<svg width="32" height="24" viewBox="0 0 32 24" fill="none" xmlns="http://www.w3.org/2000/svg">
  <g clip-path="url(#clip0_463_48003)">
    <g clip-path="url(#clip1_463_48003)">
      <path d="M12.5455 -0.272461H32.1819V24.273H12.5455V-0.272461Z" fill="#FF0000" />
      <path d="M-0.54541 -0.272461H12.5455V24.273H-0.54541V-0.272461Z" fill="#006600" />
      <path
        fill-rule="evenodd"
        clip-rule="evenodd"
        d="M16.8154 15.385C15.1637 15.3338 7.61083 10.619 7.55969 9.86222L7.9739 9.17188C8.7256 10.2611 16.4472 14.848 17.2091 14.6844L16.8154 15.385Z"
        fill="#FFFF00"
      />
      <path
        fill-rule="evenodd"
        clip-rule="evenodd"
        d="M7.97337 9.15626C7.97858 9.15609 7.98352 9.15859 7.98648 9.16288C8.07904 9.29699 8.28027 9.48656 8.56488 9.71595C8.84904 9.94496 9.21496 10.2126 9.63556 10.5028C10.4767 11.0832 11.5359 11.7534 12.5955 12.3845C13.6551 13.0156 14.7149 13.6075 15.5573 14.0313C15.9785 14.2432 16.3451 14.413 16.6299 14.5246C16.7724 14.5804 16.8941 14.6216 16.9918 14.6463C17.0903 14.6711 17.162 14.6785 17.2059 14.6691C17.2118 14.6678 17.2179 14.6701 17.2215 14.675C17.225 14.6799 17.2254 14.6864 17.2225 14.6916L16.8287 15.3922C16.8259 15.3972 16.8206 15.4002 16.8149 15.4C16.6058 15.3935 16.3051 15.3135 15.9402 15.1781C15.5748 15.0426 15.1436 14.851 14.6728 14.6204C13.7311 14.1591 12.6301 13.541 11.5793 12.901C10.5285 12.261 9.52759 11.5989 8.78602 11.0493C8.41529 10.7745 8.10907 10.5277 7.8938 10.3256C7.78619 10.2246 7.70096 10.1345 7.64172 10.0575C7.58302 9.98113 7.54788 9.9152 7.54435 9.86297C7.54414 9.85984 7.54489 9.85673 7.5465 9.85404L7.9607 9.1637C7.96339 9.15923 7.96816 9.15642 7.97337 9.15626ZM7.97497 9.19956L7.57537 9.86555C7.58001 9.90759 7.60978 9.9656 7.66604 10.0388C7.72386 10.114 7.80776 10.2028 7.91479 10.3032C8.12881 10.5041 8.43395 10.7502 8.80429 11.0246C9.54489 11.5735 10.545 12.2351 11.5953 12.8748C12.6455 13.5145 13.7457 14.1321 14.6863 14.5928C15.1566 14.8232 15.5868 15.0143 15.9509 15.1493C16.3098 15.2825 16.6031 15.3607 16.8066 15.369L17.1808 14.7032C17.1311 14.7061 17.0646 14.6963 16.9843 14.676C16.8849 14.6509 16.7618 14.6092 16.6188 14.5532C16.3326 14.441 15.965 14.2708 15.5435 14.0587C14.7002 13.6344 13.6398 13.0422 12.5798 12.4108C11.5198 11.7795 10.46 11.109 9.61813 10.5281C9.19721 10.2376 8.83061 9.96951 8.54563 9.73983C8.27409 9.52099 8.07543 9.3361 7.97497 9.19956Z"
        fill="black"
      />
      <path
        fill-rule="evenodd"
        clip-rule="evenodd"
        d="M7.88693 9.07511C7.73863 9.47397 9.8608 10.7831 12.4074 12.3376C14.9591 13.887 17.158 14.8433 17.3165 14.7103L17.3932 14.5672C17.3625 14.6183 17.2909 14.6336 17.1733 14.5978C16.483 14.3984 14.6881 13.5751 12.4636 12.2251C10.2341 10.8751 8.30113 9.63249 7.99943 9.10579C7.97591 9.05641 7.96535 9.00185 7.96875 8.94727H7.95852L7.89716 9.05977L7.88693 9.07511V9.07511ZM16.8512 15.4058C16.8256 15.4569 16.7693 15.4569 16.6722 15.4467C16.0585 15.3802 14.1869 14.47 11.9727 13.1456C9.39545 11.6012 7.26818 10.2001 7.5034 9.83193L7.56477 9.71943L7.575 9.72454C7.37045 10.3484 11.7733 12.8643 12.0341 13.028C14.5807 14.603 16.7284 15.5285 16.9176 15.2882L16.8512 15.4058V15.4058Z"
        fill="#FFFF00"
      />
      <path
        fill-rule="evenodd"
        clip-rule="evenodd"
        d="M7.94503 8.93964C7.94772 8.93471 7.95288 8.93164 7.9585 8.93164H7.96872C7.97296 8.93164 7.977 8.93339 7.9799 8.93648C7.9828 8.93956 7.9843 8.94371 7.98403 8.94793C7.98081 8.99973 7.99078 9.05149 8.01301 9.09839C8.08704 9.22729 8.26221 9.40196 8.52041 9.61339C8.77839 9.82464 9.11755 10.0712 9.51721 10.3438C10.3165 10.8888 11.3568 11.5367 12.4716 12.2117L12.4716 12.2117C14.6957 13.5616 16.4892 14.384 17.1775 14.5828L17.1778 14.5829C17.2354 14.6004 17.2802 14.6049 17.3134 14.5997C17.3462 14.5945 17.3674 14.58 17.38 14.559C17.3843 14.5518 17.3935 14.5494 17.4007 14.5535C17.408 14.5576 17.4106 14.5668 17.4067 14.5741L17.33 14.7173C17.3291 14.719 17.3278 14.7206 17.3263 14.7218C17.312 14.7339 17.2892 14.7378 17.2632 14.7377C17.2363 14.7376 17.2022 14.7332 17.1616 14.7249C17.0803 14.7082 16.9707 14.6754 16.8363 14.6278C16.5673 14.5324 16.1973 14.3767 15.7529 14.1685C14.8638 13.7521 13.6757 13.1254 12.3994 12.3504L12.3994 12.3504C11.1262 11.5732 9.9586 10.8571 9.12786 10.2853C8.71256 9.99952 8.38084 9.74938 8.16209 9.54547C8.05278 9.44358 7.971 9.35261 7.92116 9.27398C7.87176 9.19604 7.85135 9.12642 7.87253 9.06948L7.8869 9.07482L7.87414 9.06631L7.88399 9.05154L7.94503 8.93964ZM7.9007 9.08179C7.88573 9.12441 7.89946 9.18243 7.94707 9.25755C7.99485 9.33293 8.07443 9.42181 8.18301 9.52303C8.40004 9.72534 8.73022 9.97442 9.14525 10.2601C9.97515 10.8312 11.1419 11.5469 12.4153 12.3242C13.6908 13.0987 14.8779 13.7248 15.7659 14.1407C16.2099 14.3487 16.5789 14.5039 16.8465 14.5988C16.9804 14.6463 17.0885 14.6786 17.1678 14.6948C17.2074 14.7029 17.2393 14.7069 17.2633 14.707C17.2855 14.7071 17.2982 14.7037 17.3046 14.6998L17.3456 14.6232C17.3371 14.6262 17.328 14.6284 17.3182 14.63C17.2786 14.6362 17.2289 14.6305 17.1689 14.6123C16.4765 14.4122 14.6803 13.5881 12.4557 12.238C11.3409 11.5629 10.2999 10.9146 9.49993 10.3691C9.09994 10.0964 8.75995 9.84919 8.50097 9.63713C8.24256 9.42552 8.06308 9.24753 7.98609 9.11313C7.9859 9.11279 7.98572 9.11245 7.98556 9.1121C7.967 9.07314 7.95614 9.03111 7.95344 8.9883L7.9106 9.06683C7.91038 9.06723 7.91015 9.06761 7.9099 9.06799L7.9007 9.08179ZM7.55128 9.7118C7.55523 9.70454 7.56422 9.70173 7.57161 9.70542L7.58183 9.71053C7.58864 9.71394 7.59192 9.72181 7.58955 9.72904C7.57831 9.76331 7.58237 9.80574 7.60272 9.85667C7.62304 9.90752 7.65902 9.96531 7.70921 10.0291C7.80956 10.1567 7.96485 10.306 8.15861 10.4689C8.54598 10.7944 9.0847 11.1721 9.63844 11.5357C10.5196 12.1144 11.4366 12.656 11.8411 12.8949C11.9451 12.9563 12.0153 12.9978 12.0422 13.0147C13.315 13.8019 14.488 14.4267 15.3662 14.8246C15.8054 15.0236 16.1704 15.1656 16.4371 15.2429C16.5706 15.2816 16.6787 15.3038 16.7589 15.3091C16.799 15.3117 16.8314 15.3101 16.8562 15.3045C16.881 15.2989 16.8967 15.2896 16.9056 15.2784C16.9105 15.2721 16.9195 15.2707 16.9262 15.2752C16.9328 15.2796 16.9349 15.2885 16.931 15.2955L16.8647 15.4127C16.8493 15.4433 16.8241 15.4584 16.7911 15.4641C16.7593 15.4696 16.7188 15.4668 16.6705 15.4617L16.6705 15.4617C16.5149 15.4448 16.2813 15.3748 15.9848 15.2594C15.6879 15.1438 15.3268 14.9822 14.9159 14.7814C14.094 14.3797 13.0722 13.8208 11.9648 13.1585L11.9648 13.1584C10.6761 12.3863 9.49955 11.6496 8.67444 11.0599C8.26198 10.7651 7.93674 10.5066 7.72918 10.2984C7.6255 10.1944 7.55038 10.1022 7.50863 10.0236C7.46729 9.94579 7.45651 9.87701 7.49016 9.82385L7.55128 9.7118ZM16.8511 15.4055L16.8378 15.398L16.8756 15.3311C16.8715 15.3323 16.8673 15.3334 16.8629 15.3344C16.8342 15.3409 16.7986 15.3424 16.7569 15.3397C16.6735 15.3342 16.5629 15.3113 16.4286 15.2724C16.1598 15.1945 15.7933 15.0518 15.3535 14.8525C14.4739 14.454 13.2997 13.8285 12.026 13.0407L12.0259 13.0407C11.9996 13.0242 11.9305 12.9833 11.8276 12.9226C11.4245 12.6845 10.5041 12.1409 9.6216 11.5614C9.0676 11.1976 8.52766 10.8191 8.13887 10.4923C7.94455 10.329 7.78739 10.1781 7.68509 10.0481C7.63396 9.98308 7.59606 9.92269 7.57423 9.86806C7.56089 9.83466 7.55332 9.80285 7.55275 9.77316L7.51685 9.83899C7.51668 9.8393 7.5165 9.8396 7.51631 9.8399C7.49151 9.87872 7.49581 9.93409 7.53572 10.0092C7.57535 10.0838 7.64797 10.1735 7.75091 10.2767C7.9566 10.4831 8.28015 10.7404 8.69228 11.0349C9.51632 11.6239 10.692 12.36 11.9806 13.1321C13.0874 13.7942 14.1085 14.3526 14.9294 14.7538C15.3398 14.9544 15.7001 15.1156 15.9959 15.2308C16.2921 15.3461 16.5225 15.4148 16.6738 15.4312C16.7226 15.4363 16.7589 15.4386 16.7859 15.4339C16.8115 15.4294 16.8272 15.419 16.8374 15.3987L16.8511 15.4055Z"
        fill="black"
      />
      <path
        fill-rule="evenodd"
        clip-rule="evenodd"
        d="M12.5558 10.3231C14.2024 10.3077 16.2376 10.0981 17.4138 9.62763L17.1581 9.21854C16.4677 9.60206 14.4223 9.85774 12.5405 9.89354C10.3211 9.87308 8.75124 9.66342 7.96374 9.13672L7.72852 9.57649C9.17056 10.1901 10.6535 10.318 12.5558 10.3231"
        fill="#FFFF00"
      />
      <path
        fill-rule="evenodd"
        clip-rule="evenodd"
        d="M7.95998 9.12155C7.96418 9.1205 7.96863 9.12128 7.97223 9.12368C8.36321 9.38518 8.94993 9.56884 9.71751 9.68953C10.4847 9.81017 11.4311 9.86768 12.5403 9.87791C13.4807 9.86002 14.4618 9.78719 15.2939 9.67096C15.71 9.61284 16.0887 9.54389 16.4063 9.46559C16.7241 9.38723 16.9798 9.29973 17.1506 9.20484C17.1577 9.20088 17.1667 9.2032 17.1711 9.21012L17.4267 9.61921C17.4291 9.62307 17.4297 9.62779 17.4283 9.63211C17.4269 9.63643 17.4236 9.6399 17.4194 9.64159C16.2405 10.1132 14.2028 10.3228 12.5559 10.3381C12.5558 10.3381 12.5558 10.3381 12.5557 10.3381C12.5473 10.3381 12.5405 10.3313 12.5404 10.3229C12.5403 10.3145 12.5471 10.3075 12.5556 10.3075C12.5556 10.3075 12.5557 10.3075 12.5557 10.3075C10.6608 10.3024 9.18417 10.1754 7.74992 9.56864L7.96928 9.15853C8.36568 9.41874 8.95274 9.60034 9.71274 9.71984C10.4821 9.84082 11.4303 9.89836 12.5403 9.90859L12.5403 9.9086L12.5407 9.90859C13.4821 9.89069 14.4646 9.81778 15.2982 9.70135C15.7149 9.64313 16.0947 9.57401 16.4136 9.49538C16.7246 9.41871 16.9786 9.3328 17.1527 9.23867L17.391 9.61988C16.2151 10.0845 14.194 10.2922 12.5557 10.3075M7.95998 9.12155C7.95578 9.1226 7.95222 9.12538 7.95018 9.1292ZM7.95018 9.1292L7.71495 9.56897ZM12.5557 10.3381C10.653 10.333 9.16745 10.2052 7.72247 9.59032C7.71851 9.58864 7.71544 9.58537 7.71401 9.58131C7.71258 9.57724 7.71292 9.57277 7.71495 9.56897"
        fill="black"
      />
      <path
        fill-rule="evenodd"
        clip-rule="evenodd"
        d="M17.4802 9.63798C17.4393 9.70446 16.6722 9.96525 15.5472 10.1596C14.5555 10.3099 13.5536 10.3834 12.5506 10.3795C11.5896 10.3831 10.6294 10.3216 9.67674 10.1954C8.49548 10.0113 7.88696 9.75559 7.65685 9.66355L7.7131 9.55105C8.36253 9.80673 8.97617 9.96014 9.69208 10.0726C10.6378 10.2003 11.5912 10.2636 12.5455 10.2618C13.5433 10.2629 14.5399 10.1894 15.5267 10.042C16.6773 9.85275 17.3063 9.61241 17.3983 9.50503L17.4802 9.64309V9.63798ZM17.2552 9.22377C17.1324 9.32605 16.5086 9.54593 15.4142 9.7198C14.4693 9.85651 13.5157 9.92487 12.5608 9.92434C11.4358 9.92434 10.5103 9.84253 9.80969 9.74025C8.69492 9.59707 8.10173 9.33116 7.88696 9.25957L7.95344 9.14707C8.12219 9.234 8.6898 9.46412 9.81992 9.62264C10.7284 9.74433 11.6443 9.80242 12.5608 9.7965C13.5089 9.7968 14.4557 9.72844 15.3938 9.59196C16.4932 9.43855 17.0864 9.16241 17.1785 9.09082L17.2552 9.22377V9.22377ZM7.14037 12.3073C8.15287 12.8545 10.408 13.1255 12.5404 13.1459C14.4836 13.1511 17.0097 12.8494 17.9557 12.3482L17.9302 11.8011C17.6336 12.2613 14.9233 12.7062 12.5199 12.6908C10.1165 12.6704 7.88185 12.3022 7.13525 11.8215V12.3073"
        fill="#FFFF00"
      />
      <path
        fill-rule="evenodd"
        clip-rule="evenodd"
        d="M17.1815 9.07548C17.1858 9.07633 17.1896 9.07903 17.1918 9.08287L17.2685 9.21582L17.2552 9.22349L17.2651 9.23528C17.2324 9.26249 17.1684 9.29615 17.0755 9.3339C16.982 9.37187 16.8578 9.41454 16.7034 9.45939C16.3946 9.54909 15.9644 9.64765 15.4167 9.73467L15.4165 9.7347C14.4708 9.87152 13.5165 9.93993 12.5609 9.9394L12.5609 9.92406V9.9394C12.5609 9.9394 12.5609 9.9394 12.5609 9.9394C11.4352 9.9394 10.509 9.85754 9.80769 9.75517C9.80773 9.75517 9.80778 9.75518 9.80782 9.75519L9.80977 9.73997L9.80756 9.75515C9.8076 9.75516 9.80765 9.75516 9.80769 9.75517C8.85439 9.63271 8.28135 9.4205 8.00094 9.31666C7.95292 9.29888 7.91349 9.28427 7.88219 9.27384C7.87779 9.27237 7.87429 9.269 7.87267 9.26466C7.87105 9.26031 7.87148 9.25547 7.87383 9.25148L7.94031 9.13898C7.94445 9.13198 7.95332 9.12943 7.96055 9.13315C8.12733 9.21907 8.69315 9.44879 9.82208 9.60716C9.82207 9.60715 9.82205 9.60715 9.82204 9.60715L9.82 9.62236L9.82213 9.60716C9.82212 9.60716 9.8221 9.60716 9.82208 9.60716C10.7298 9.72875 11.645 9.78679 12.5608 9.78088L12.5609 9.78088C13.5082 9.78117 14.4543 9.71286 15.3917 9.57649L15.3918 9.57648C15.9406 9.4999 16.3629 9.39271 16.6592 9.29584C16.8074 9.24741 16.924 9.20157 17.0092 9.16346C17.0948 9.12517 17.1477 9.09511 17.1691 9.07843C17.1726 9.0757 17.1771 9.07463 17.1815 9.07548ZM17.2353 9.21956L17.1737 9.1128C17.1446 9.13202 17.0938 9.15925 17.0217 9.19147C16.9354 9.23007 16.8178 9.27628 16.6687 9.325C16.3706 9.42245 15.9466 9.53004 15.396 9.60686C14.4572 9.74344 13.5097 9.81185 12.561 9.81156C11.6437 9.81748 10.7271 9.75934 9.81796 9.63756L9.81787 9.63755C8.71363 9.48265 8.14473 9.25934 7.95941 9.16697L7.90984 9.25085C7.93815 9.26069 7.97194 9.2732 8.01147 9.28784C8.29213 9.39176 8.86209 9.60278 9.81173 9.72475L9.81199 9.72479L9.81199 9.72479C10.5118 9.82695 11.4366 9.90872 12.5609 9.90872H12.5609C13.515 9.90925 14.4678 9.84095 15.412 9.70435C15.9586 9.6175 16.3875 9.5192 16.6949 9.42992C16.8486 9.38528 16.9717 9.34294 17.0639 9.30548C17.1469 9.27179 17.2037 9.24249 17.2353 9.21956ZM17.3998 9.48946C17.4047 9.48989 17.4091 9.49267 17.4116 9.49692L17.4868 9.62384C17.4921 9.62635 17.4956 9.63171 17.4956 9.6377V9.64281C17.4956 9.64972 17.491 9.65578 17.4843 9.65761C17.4836 9.65781 17.4828 9.65795 17.4821 9.65804C17.4792 9.66045 17.4761 9.66277 17.4729 9.66501C17.464 9.67114 17.4524 9.67778 17.4386 9.68488C17.4108 9.69909 17.3726 9.71571 17.3247 9.73422C17.2289 9.77127 17.0936 9.81631 16.9246 9.86529C16.5865 9.96325 16.1129 10.0772 15.5499 10.1744L15.5496 10.1745C14.5571 10.3249 13.5545 10.3984 12.5507 10.3945C11.589 10.3981 10.6282 10.3366 9.6748 10.2103L9.67446 10.2102L9.67446 10.2102C8.53515 10.0327 7.92756 9.78853 7.67824 9.68835C7.66872 9.68452 7.65972 9.6809 7.65123 9.67751C7.64725 9.67592 7.64411 9.67273 7.64259 9.66872C7.64106 9.66471 7.64129 9.66024 7.64321 9.6564L7.69946 9.5439C7.70301 9.5368 7.7114 9.53358 7.7188 9.53649C8.36694 9.79166 8.97942 9.94482 9.69438 10.0572C10.6394 10.1848 11.592 10.2479 12.5455 10.2462H12.5456C13.5426 10.2473 14.5384 10.1738 15.5245 10.0265C16.0991 9.93201 16.5433 9.82478 16.855 9.72788C17.0109 9.67942 17.1335 9.6336 17.2226 9.59335C17.2672 9.57322 17.3032 9.55457 17.3308 9.53778C17.3586 9.52084 17.3768 9.50634 17.3868 9.49476C17.39 9.491 17.3948 9.48903 17.3998 9.48946ZM17.4591 9.63715L17.3953 9.52949C17.3827 9.54047 17.3664 9.55199 17.3468 9.56398C17.3178 9.58163 17.2806 9.60086 17.2353 9.62132C17.1446 9.66224 17.0208 9.70848 16.8641 9.75718C16.5507 9.85459 16.1051 9.96212 15.5293 10.0568L15.5291 10.0568C14.5415 10.2044 13.5442 10.2779 12.5456 10.2769C11.5906 10.2786 10.6365 10.2154 9.69011 10.0876L9.68978 10.0875L9.68978 10.0875C8.97779 9.97563 8.36647 9.82327 7.72063 9.57017L7.6781 9.65522C7.68188 9.65674 7.68575 9.6583 7.68971 9.65989C7.93796 9.75965 8.54316 10.0029 9.67901 10.1799C10.631 10.306 11.5904 10.3674 12.5506 10.3638H12.5507C13.5529 10.3677 14.5539 10.2943 15.5448 10.1441C16.1067 10.0471 16.5791 9.93344 16.916 9.83582C17.0845 9.78699 17.2189 9.74223 17.3136 9.70561C17.361 9.68728 17.3982 9.6711 17.4246 9.65757C17.4378 9.6508 17.4481 9.64483 17.4555 9.63974C17.4568 9.63882 17.458 9.63796 17.4591 9.63715ZM17.9342 11.786C17.9407 11.7877 17.9453 11.7934 17.9456 11.8001L17.9711 12.3472C17.9714 12.3531 17.9682 12.3587 17.963 12.3615C17.4874 12.6134 16.6169 12.8144 15.6242 12.9518C14.6308 13.0894 13.5127 13.1636 12.5404 13.161L12.5403 13.161C11.4736 13.1508 10.376 13.0779 9.4183 12.939C8.46317 12.8006 7.64549 12.5963 7.1365 12.3223C7.13611 12.3223 7.13573 12.3224 7.13534 12.3224C7.12686 12.3224 7.12 12.3155 7.12 12.307V11.8212C7.12 11.8156 7.12306 11.8104 7.12799 11.8078C7.13292 11.8051 7.13892 11.8053 7.14364 11.8083C7.51399 12.0468 8.25643 12.2586 9.20882 12.4133C10.1604 12.5679 11.3191 12.665 12.5201 12.6752C13.7209 12.6829 14.9985 12.5755 16.0127 12.4089C16.5198 12.3255 16.9607 12.2274 17.2931 12.1215C17.4593 12.0685 17.598 12.0138 17.7041 11.9582C17.8106 11.9023 17.8825 11.8466 17.9174 11.7925C17.921 11.7869 17.9278 11.7842 17.9342 11.786ZM7.15068 12.2951C7.65465 12.5665 8.46799 12.7703 9.4227 12.9087C10.3788 13.0473 11.4749 13.1201 12.5406 13.1303M7.15068 12.2951V11.849Z"
        fill="black"
      />
      <path
        fill-rule="evenodd"
        clip-rule="evenodd"
        d="M18.0068 12.2307V12.3585C17.8636 12.5324 16.9739 12.7881 15.8591 12.9722C14.7516 13.1314 13.6336 13.2066 12.5148 13.1972C11.4538 13.2062 10.3938 13.1327 9.34431 12.9773C8.56119 12.8868 7.79594 12.68 7.07385 12.3636V12.2153C7.56988 12.5426 8.90965 12.7881 9.35965 12.8597C10.1676 12.9824 11.2057 13.0744 12.5148 13.0744C13.8903 13.0744 14.9898 12.9773 15.8386 12.8494C16.6415 12.7318 17.7818 12.4301 18.0068 12.2307V12.2307ZM18.0068 11.7705V11.8983C17.8636 12.067 16.9739 12.3227 15.8591 12.5068C14.7517 12.6677 13.6338 12.7447 12.5148 12.7369C11.4539 12.7432 10.3941 12.6697 9.34431 12.517C8.56119 12.4265 7.79594 12.2197 7.07385 11.9034V11.75C7.56988 12.0824 8.91477 12.3227 9.35965 12.3943C10.4043 12.5473 11.459 12.6208 12.5148 12.6142C13.8903 12.6142 14.9949 12.5119 15.8386 12.3841C16.6415 12.2716 17.7818 11.9699 18.0068 11.7705V11.7705ZM12.5352 15.2886C10.2034 15.2784 8.20397 14.6546 7.77954 14.5523L8.08635 15.033C9.52069 15.541 11.0342 15.7886 12.5557 15.7642C14.3301 15.7131 15.8796 15.575 16.9688 15.0432L17.2858 14.5421C16.5443 14.8949 14.0131 15.2886 12.5301 15.2886"
        fill="#FFFF00"
      />
      <path
        fill-rule="evenodd"
        clip-rule="evenodd"
        d="M7.06671 11.7362C7.07171 11.7335 7.07777 11.7338 7.08247 11.737C7.32792 11.9014 7.78556 12.0441 8.23964 12.1548C8.69285 12.2652 9.13978 12.3431 9.36206 12.3789C10.4059 12.5318 11.4598 12.6052 12.5148 12.5986L12.5149 12.5986C13.8897 12.5986 14.9934 12.4964 15.8364 12.3686L15.8366 12.3686C16.2373 12.3125 16.7224 12.2091 17.1354 12.0948C17.3419 12.0377 17.5301 11.9779 17.6806 11.92C17.8318 11.8619 17.9428 11.8065 17.9967 11.7587L18.0069 11.7702H18.0223V11.898C18.0223 11.9016 18.021 11.9052 18.0186 11.9079C17.9991 11.931 17.9678 11.9545 17.927 11.9783C17.886 12.0023 17.8345 12.0271 17.7736 12.0526C17.6519 12.1034 17.4918 12.1572 17.3016 12.2113C16.9212 12.3195 16.4195 12.4296 15.8617 12.5217L15.8614 12.5217C14.7533 12.6827 13.6346 12.7597 12.5148 12.752C11.4533 12.7582 10.3929 12.6847 9.34241 12.532C8.55785 12.4413 7.7912 12.2341 7.06778 11.9172C7.0622 11.9147 7.05859 11.9092 7.05859 11.9031V11.7497C7.05859 11.7441 7.06171 11.7388 7.06671 11.7362ZM17.9916 11.802C17.928 11.8483 17.8231 11.8981 17.6916 11.9487C17.5399 12.007 17.3507 12.0671 17.1436 12.1244C16.7295 12.2389 16.2431 12.3426 15.8409 12.399C14.9964 12.5269 13.8912 12.6293 12.5149 12.6293C12.5149 12.6293 12.5149 12.6293 12.5149 12.6293V12.6139L12.515 12.6293C12.5149 12.6293 12.5149 12.6293 12.5149 12.6293C11.4584 12.6359 10.4029 12.5623 9.35751 12.4092L9.3573 12.4092L9.3573 12.4092C9.13466 12.3734 8.68677 12.2953 8.23238 12.1846C7.79283 12.0775 7.34463 11.9392 7.08928 11.778V11.7497H7.07393L7.06539 11.7625C7.07315 11.7677 7.08112 11.7728 7.08928 11.778V11.8931C7.08621 11.8918 7.08315 11.8904 7.08009 11.8891L7.07393 11.9031H7.08928V11.8931C7.80727 12.2065 8.56787 12.4116 9.34615 12.5015L9.3466 12.5016L9.3466 12.5016C10.3957 12.6541 11.4547 12.7275 12.5148 12.7213L12.515 12.7213C13.6331 12.729 14.7503 12.6522 15.8568 12.4914C15.8568 12.4914 15.8567 12.4914 15.8567 12.4914L15.8592 12.5065L15.857 12.4914C15.8569 12.4914 15.8569 12.4914 15.8568 12.4914C16.4137 12.3994 16.9142 12.2896 17.2932 12.1818C17.4827 12.1278 17.6416 12.0745 17.7618 12.0242C17.8219 11.9991 17.8721 11.9749 17.9115 11.9518C17.9483 11.9303 17.975 11.9103 17.9916 11.8922V11.898H18.0069L17.9952 11.8881C17.9941 11.8894 17.9928 11.8908 17.9916 11.8922V11.802ZM7.06666 12.2015C7.07163 12.1989 7.07767 12.1991 7.08238 12.2023C7.32788 12.3642 7.78432 12.5069 8.23775 12.6182C8.69036 12.7293 9.13733 12.8085 9.36209 12.8442C10.1692 12.9668 11.2065 13.0588 12.5149 13.0588C13.8897 13.0588 14.9884 12.9617 15.8364 12.834L15.8365 12.834C16.2372 12.7753 16.7224 12.6706 17.1354 12.5557C17.3419 12.4982 17.5301 12.4383 17.6806 12.3804C17.8318 12.3222 17.9428 12.2667 17.9967 12.2189L18.0069 12.2304H18.0223V12.3582C18.0223 12.3618 18.021 12.3652 18.0188 12.368C17.9992 12.3917 17.9679 12.4158 17.9271 12.4401C17.8861 12.4646 17.8346 12.4899 17.7737 12.5157C17.6519 12.5673 17.4918 12.6215 17.3016 12.676C16.9212 12.7848 16.4195 12.8949 15.8617 12.987L15.8614 12.9871C14.7531 13.1464 13.6344 13.2216 12.5149 13.2122C11.4533 13.2213 10.3926 13.1477 9.34239 12.9922C8.55783 12.9015 7.79119 12.6943 7.06778 12.3774C7.0622 12.375 7.05859 12.3694 7.05859 12.3634V12.2151C7.05859 12.2094 7.06169 12.2042 7.06666 12.2015ZM17.9916 12.2622C17.928 12.3085 17.8231 12.3584 17.6916 12.409C17.5399 12.4674 17.3507 12.5276 17.1436 12.5852C16.7295 12.7004 16.2431 12.8054 15.841 12.8643C14.9913 12.9923 13.8911 13.0895 12.5149 13.0895C11.205 13.0895 10.1662 12.9974 9.35743 12.8745L9.35732 12.8745C9.13207 12.8387 8.68418 12.7594 8.23044 12.648C7.79145 12.5403 7.34448 12.402 7.08928 12.2431V12.3533C7.80727 12.6668 8.56787 12.8718 9.34615 12.9618L9.34664 12.9618L9.34664 12.9618C10.3954 13.1171 11.4546 13.1906 12.5147 13.1815H12.515C13.633 13.1909 14.7501 13.1158 15.8568 12.9567C16.4137 12.8647 16.9142 12.7549 17.2932 12.6465C17.4827 12.5922 17.6415 12.5384 17.7617 12.4875C17.8218 12.462 17.872 12.4373 17.9114 12.4138C17.9483 12.3918 17.975 12.3712 17.9916 12.3526V12.2622ZM17.2974 14.5316C17.3019 14.5367 17.3025 14.5442 17.2989 14.55L16.9818 15.0511C16.9803 15.0535 16.9781 15.0554 16.9756 15.0567C15.883 15.5902 14.3303 15.7281 12.5562 15.7793L12.556 15.7793C11.0327 15.8037 9.51737 15.5557 8.08132 15.0471C8.07809 15.046 8.07534 15.0438 8.07351 15.0409L7.76669 14.5602C7.76332 14.555 7.76349 14.5482 7.76713 14.5431C7.77076 14.538 7.77713 14.5356 7.78321 14.5371C7.8352 14.5496 7.91066 14.5699 8.00734 14.5959C8.70167 14.7827 10.4903 15.264 12.535 15.273C13.2749 15.2726 14.2753 15.1744 15.1837 15.0322C16.0948 14.8896 16.9109 14.7032 17.2793 14.5279C17.2855 14.525 17.2928 14.5265 17.2974 14.5316ZM12.5293 15.3037C12.5296 15.3037 12.5299 15.3037 12.5302 15.3037C12.5318 15.3037 12.5334 15.3037 12.535 15.3037M12.5293 15.3037C10.4824 15.2938 8.69205 14.812 7.99915 14.6255C7.92387 14.6052 7.86154 14.5885 7.81325 14.5762L8.09653 15.02C9.52764 15.5262 11.0376 15.7729 12.5554 15.7486C14.328 15.6975 15.8726 15.5596 16.9582 15.031L17.2454 14.577C16.8534 14.7481 16.0626 14.9257 15.1885 15.0625C14.2793 15.2048 13.2775 15.3032 12.5355 15.3037"
        fill="black"
      />
      <path
        fill-rule="evenodd"
        clip-rule="evenodd"
        d="M17.0915 14.9297C17.0449 14.9987 16.9972 15.0669 16.9483 15.1343C16.437 15.3184 15.6188 15.5127 15.2813 15.5638C14.3756 15.7326 13.4565 15.8182 12.5352 15.8195C10.4693 15.7888 8.77671 15.3848 7.98409 15.0371L7.91761 14.9297L7.92784 14.9093L8.03523 14.9553C9.49059 15.4369 11.0125 15.6871 12.5455 15.6968C13.5068 15.6968 14.4631 15.5894 15.2352 15.4513C16.4216 15.211 16.9023 15.032 17.0506 14.9502L17.0864 14.9297H17.0915ZM17.3625 14.4797C17.3288 14.5396 17.2948 14.5993 17.2602 14.6587C16.9841 14.761 16.2375 14.9757 15.1483 15.1292C14.4324 15.2263 13.9875 15.3235 12.5608 15.349C10.9299 15.3327 9.30896 15.0918 7.74375 14.6331L7.6875 14.5053C9.27777 14.9448 10.9164 15.1853 12.5659 15.2212C13.8699 15.1956 14.4273 15.0985 15.1381 15.0013C16.4063 14.807 17.0455 14.5922 17.2347 14.536C17.2348 14.5326 17.2348 14.5292 17.2347 14.5257L17.3676 14.4746L17.3625 14.4797Z"
        fill="#FFFF00"
      />
      <path
        fill-rule="evenodd"
        clip-rule="evenodd"
        d="M17.3806 14.4669C17.3845 14.473 17.3837 14.481 17.3786 14.4861L17.3749 14.4898C17.3416 14.5491 17.3078 14.6082 17.2736 14.6671C17.2718 14.6702 17.269 14.6725 17.2657 14.6738C16.9883 14.7765 16.2406 14.9915 15.1505 15.145L15.1505 15.1451C15.0396 15.1601 14.9352 15.1751 14.8327 15.1899C14.273 15.2706 13.7678 15.3435 12.5612 15.3651L12.5607 15.3651C10.9284 15.3487 9.30608 15.1076 7.73952 14.6485C7.73517 14.6473 7.73161 14.6441 7.72979 14.64L7.67354 14.5122C7.67116 14.5067 7.6721 14.5004 7.67598 14.496C7.67985 14.4915 7.68596 14.4896 7.69167 14.4912C9.28061 14.9303 10.9179 15.1706 12.566 15.2066C13.7271 15.1838 14.2955 15.1042 14.9086 15.0184C14.9833 15.0079 15.0587 14.9974 15.136 14.9868C16.292 14.8097 16.9247 14.6156 17.1702 14.5403C17.1889 14.5345 17.2052 14.5295 17.2195 14.5252C17.2199 14.5194 17.2237 14.5143 17.2293 14.5121L17.3622 14.461C17.369 14.4584 17.3766 14.4609 17.3806 14.4669ZM17.3305 14.506L17.2501 14.537C17.2501 14.5371 17.2501 14.5371 17.2501 14.5372C17.2499 14.5438 17.2455 14.5495 17.2391 14.5514C17.2226 14.5563 17.2025 14.5624 17.179 14.5697C16.933 14.6451 16.2987 14.8397 15.1405 15.0172L15.1402 15.0172C15.063 15.0278 14.9876 15.0383 14.9128 15.0488C14.2993 15.1347 13.7295 15.2144 12.5663 15.2372L12.5657 15.2372L12.5657 15.2372C10.9257 15.2015 9.29636 14.9638 7.71462 14.5293L7.755 14.6211C9.31666 15.078 10.9338 15.318 12.5608 15.3344C13.7654 15.3128 14.2691 15.2402 14.8284 15.1596C14.9309 15.1448 15.0353 15.1297 15.1463 15.1147C16.2279 14.9623 16.9709 14.7495 17.2498 14.6469C17.277 14.6001 17.3039 14.5531 17.3305 14.506ZM7.9142 14.9031C7.91783 14.8958 7.9265 14.8927 7.93397 14.8959L8.04075 14.9416C9.49438 15.4226 11.0145 15.6725 12.5456 15.6821C13.5058 15.6821 14.4611 15.5749 15.2325 15.4369C16.4185 15.1967 16.8971 15.0181 17.0432 14.9375C17.0432 14.9375 17.0432 14.9375 17.0433 14.9374L17.0789 14.9171C17.0812 14.9158 17.0838 14.9151 17.0865 14.9151H17.0916C17.0973 14.9151 17.1025 14.9182 17.1051 14.9232C17.1078 14.9282 17.1075 14.9343 17.1043 14.939C17.0576 15.0081 17.0098 15.0765 16.9608 15.144C16.959 15.1465 16.9565 15.1484 16.9536 15.1494C16.4414 15.3338 15.6225 15.5283 15.2839 15.5796C14.3774 15.7485 13.4574 15.8342 12.5353 15.8355L12.5351 15.8355C10.4677 15.8048 8.77297 15.4006 7.97801 15.0519C7.97517 15.0506 7.97277 15.0485 7.97113 15.0459L7.90465 14.9385C7.90185 14.934 7.9016 14.9283 7.90398 14.9236L7.9142 14.9031ZM7.93539 14.9299L7.9947 15.0257C8.78681 15.3719 10.4748 15.7742 12.5354 15.8049C13.4557 15.8035 14.3739 15.718 15.2785 15.5494L15.279 15.5493L15.2791 15.5493C15.6146 15.4985 16.4281 15.3054 16.9388 15.1221C16.9749 15.0723 17.0104 15.0219 17.0453 14.9712C16.8811 15.057 16.3929 15.2331 15.2384 15.467L15.238 15.4671C14.4651 15.6053 13.508 15.7128 12.5455 15.7128L12.5455 15.7128C11.0109 15.7031 9.48738 15.4527 8.03049 14.9706C8.03008 14.9704 8.02967 14.9703 8.02927 14.9701L7.93539 14.9299Z"
        fill="black"
      />
      <path
        fill-rule="evenodd"
        clip-rule="evenodd"
        d="M17.3932 11.8775C17.3984 13.4116 16.6109 14.7922 15.9819 15.3957C15.0529 16.3017 13.8123 16.8177 12.5148 16.8377C10.9654 16.8633 9.50799 15.8559 9.11424 15.411C8.23338 14.4769 7.73204 13.2481 7.70799 11.9644C7.80004 10.2871 8.4597 9.12121 9.41084 8.31836C10.3348 7.55774 11.4971 7.14678 12.6938 7.15757C13.3924 7.19143 14.0762 7.37086 14.7014 7.68435C15.3266 7.99784 15.8795 8.43847 16.3245 8.97802C16.9637 9.7553 17.2449 10.599 17.3932 11.8775V11.8775ZM12.525 6.63086C13.9556 6.63082 15.3281 7.19628 16.3435 8.20399C17.3589 9.21169 17.9347 10.5799 17.9455 12.0104C17.9455 12.7202 17.8057 13.4231 17.5341 14.0789C17.2624 14.7346 16.8643 15.3305 16.3624 15.8324C15.8605 16.3343 15.2646 16.7325 14.6088 17.0041C13.9531 17.2757 13.2502 17.4155 12.5404 17.4155C11.8306 17.4155 11.1277 17.2757 10.4719 17.0041C9.81616 16.7325 9.2203 16.3343 8.71839 15.8324C8.21647 15.3305 7.81834 14.7346 7.5467 14.0789C7.27507 13.4231 7.13526 12.7202 7.13526 12.0104C7.13015 9.0445 9.55402 6.63086 12.525 6.63086"
        fill="#FFFF00"
      />
      <path
        fill-rule="evenodd"
        clip-rule="evenodd"
        d="M16.3327 8.21459C15.3202 7.20974 13.9515 6.64588 12.525 6.64592C9.5624 6.64592 7.14546 9.05274 7.15056 12.0101L7.15056 12.0101C7.15056 12.7179 7.28997 13.4188 7.56084 14.0727C7.8317 14.7266 8.22871 15.3208 8.72919 15.8213C9.22968 16.3218 9.82385 16.7188 10.4778 16.9896C11.1317 17.2605 11.8326 17.3999 12.5403 17.3999C13.2481 17.3999 13.949 17.2605 14.6029 16.9896C15.2568 16.7188 15.851 16.3218 16.3515 15.8213C16.852 15.3208 17.249 14.7266 17.5199 14.0727C17.7907 13.4188 17.9301 12.7179 17.9301 12.0101C17.9193 10.5837 17.3451 9.21942 16.3327 8.21459ZM12.525 6.61523C13.9596 6.61519 15.336 7.18226 16.3543 8.19281C17.3725 9.20337 17.95 10.5755 17.9608 12.01L17.9608 12.0101C17.9608 12.722 17.8206 13.4268 17.5482 14.0845C17.2758 14.7421 16.8765 15.3396 16.3732 15.843C15.8699 16.3463 15.2723 16.7456 14.6147 17.018C13.957 17.2904 13.2522 17.4306 12.5403 17.4306C11.8285 17.4306 11.1237 17.2904 10.466 17.018C9.80838 16.7456 9.21084 16.3463 8.7075 15.843C8.20416 15.3396 7.80489 14.7421 7.53249 14.0845C7.26009 13.4268 7.11988 12.722 7.11988 12.0101C7.11476 9.03569 9.54556 6.61523 12.525 6.61523ZM12.6933 7.17262C11.5003 7.16194 10.3417 7.57164 9.42062 8.32986C8.47295 9.1298 7.81524 10.2915 7.7233 11.9644C7.74741 13.2441 8.24725 14.469 9.12536 15.4002L9.1257 15.4005L9.12569 15.4005C9.3209 15.6211 9.78192 15.9831 10.388 16.2868C10.9938 16.5903 11.7431 16.8348 12.5145 16.8221H12.5145C13.8081 16.8021 15.045 16.2877 15.9711 15.3844L15.9712 15.3843C16.5974 14.7836 17.3827 13.4072 17.3779 11.8781C17.2297 10.6018 16.9491 9.76149 16.3126 8.9875C15.8689 8.4496 15.3178 8.01031 14.6945 7.69778C14.0713 7.38529 13.3897 7.20642 12.6933 7.17262ZM17.3932 11.8772L17.4084 11.8754C17.26 10.5954 16.9781 9.74838 16.3363 8.96799L16.3363 8.96798C15.8899 8.42678 15.3354 7.9848 14.7082 7.67035C14.0811 7.35591 13.3952 7.17593 12.6945 7.14196L12.6945 7.14195L12.6939 7.14194C11.4936 7.13112 10.3278 7.54333 9.40104 8.30623L9.4009 8.30636C8.44643 9.11201 7.7849 10.2819 7.69263 11.9633C7.69261 11.9636 7.69261 11.964 7.69261 11.9644C7.71673 13.2519 8.2195 14.4842 9.10288 15.4211C9.3015 15.6454 9.76597 16.0094 10.3742 16.3142C10.9829 16.6192 11.7371 16.8656 12.515 16.8528C13.8164 16.8327 15.0607 16.3151 15.9925 15.4064C15.9925 15.4064 15.9925 15.4064 15.9925 15.4064L15.9818 15.3954L15.9925 15.4063C15.9925 15.4064 15.9925 15.4064 15.9925 15.4064"
        fill="black"
      />
      <path
        fill-rule="evenodd"
        clip-rule="evenodd"
        d="M12.5404 6.60547C15.5165 6.60547 17.9404 9.02934 17.9404 12.0055C17.9404 14.9816 15.5165 17.4055 12.5455 17.4055C9.57449 17.4055 7.14551 14.9816 7.14551 12.0055C7.14551 9.02934 9.56938 6.60547 12.5455 6.60547H12.5404ZM7.25801 12.0004C7.25801 14.9049 9.64608 17.2828 12.5404 17.2828C15.4347 17.2828 17.8228 14.9049 17.8228 12.0004C17.8228 9.09581 15.4347 6.71797 12.5404 6.71797C9.64608 6.71797 7.25801 9.09581 7.25801 12.0004Z"
        fill="#FFFF00"
      />
      <path
        fill-rule="evenodd"
        clip-rule="evenodd"
        d="M12.5429 6.62053C9.57642 6.62191 7.16081 9.03838 7.16081 12.0052C7.16081 14.9729 9.58291 17.3899 12.5455 17.3899C15.508 17.3899 17.925 14.9729 17.925 12.0052C17.925 9.03838 15.5094 6.62191 12.5429 6.62053ZM12.5458 6.58985C15.5279 6.59278 17.9557 9.02238 17.9557 12.0052C17.9557 14.9898 15.525 17.4205 12.5455 17.4205C9.56599 17.4205 7.13013 14.9898 7.13013 12.0052C7.13013 9.02238 9.55793 6.59278 12.5401 6.58985C12.5402 6.58984 12.5403 6.58984 12.5404 6.58984H12.5455C12.5456 6.58984 12.5457 6.58984 12.5458 6.58985ZM7.24263 12.0001C7.24263 9.08704 9.63759 6.70234 12.5404 6.70234C15.4431 6.70234 17.8381 9.08704 17.8381 12.0001C17.8381 14.9131 15.4431 17.2978 12.5404 17.2978C9.63759 17.2978 7.24263 14.9131 7.24263 12.0001ZM12.5404 6.73303C9.65449 6.73303 7.27331 9.10402 7.27331 12.0001C7.27331 14.8961 9.65449 17.2671 12.5404 17.2671C15.4262 17.2671 17.8074 14.8961 17.8074 12.0001C17.8074 9.10402 15.4262 6.73303 12.5404 6.73303Z"
        fill="black"
      />
      <path
        fill-rule="evenodd"
        clip-rule="evenodd"
        d="M12.5455 7.05566C13.8557 7.05971 15.1111 7.58199 16.0376 8.50846C16.9641 9.43493 17.4863 10.6903 17.4904 12.0006C17.4863 13.3113 16.9642 14.5672 16.0379 15.4945C15.1116 16.4218 13.8562 16.9452 12.5455 16.9506C9.83525 16.9506 7.60059 14.721 7.60059 12.0006C7.60597 10.6908 8.12868 9.43612 9.05486 8.50994C9.98104 7.58376 11.2357 7.06105 12.5455 7.05566V7.05566ZM7.7182 12.0006C7.7182 14.6597 9.89661 16.8278 12.5455 16.8278C15.1944 16.8278 17.3728 14.6545 17.3728 12.0006C17.3728 9.34146 15.1944 7.17328 12.5455 7.17328C11.2669 7.17866 10.0422 7.68898 9.13803 8.5931C8.2339 9.49723 7.72358 10.7219 7.7182 12.0006V12.0006Z"
        fill="#FFFF00"
      />
      <path
        fill-rule="evenodd"
        clip-rule="evenodd"
        d="M16.0267 8.51902C15.1031 7.59543 13.8516 7.07477 12.5455 7.07072C11.2397 7.0761 9.98898 7.59719 9.06567 8.5205C8.14235 9.44382 7.62126 10.6946 7.61589 12.0003C7.6159 14.7123 9.84366 16.9349 12.5454 16.9349C13.852 16.9296 15.1035 16.4078 16.027 15.4834C16.9505 14.5589 17.471 13.3069 17.475 12.0003C17.471 10.6941 16.9503 9.44262 16.0267 8.51902ZM12.5454 7.05538L12.5455 7.04004C13.8598 7.0441 15.1191 7.56799 16.0484 8.49733C16.9777 9.42667 17.5016 10.686 17.5057 12.0002V12.0003C17.5016 13.3151 16.9779 14.5749 16.0487 15.505C15.1195 16.4352 13.8602 16.9602 12.5455 16.9656H12.5454C9.82674 16.9656 7.58521 14.7292 7.58521 12.0003L7.58521 12.0002C7.59061 10.6864 8.11493 9.42785 9.04397 8.49881C9.97302 7.56976 11.2315 7.04544 12.5454 7.04004L12.5454 7.05538ZM12.5454 7.15765C15.2028 7.15765 17.3881 9.33269 17.3881 12.0003C17.3881 14.6627 15.2028 16.8429 12.5454 16.8429C9.88812 16.8429 7.70282 14.6679 7.70282 12.0003H7.71816L7.70282 12.0002C7.70822 10.7175 8.22015 9.48896 9.12714 8.58197C10.0341 7.67498 11.2627 7.16305 12.5454 7.15765L12.5454 7.15765ZM7.7335 12.0003C7.73352 14.6509 9.90504 16.8122 12.5454 16.8122C15.1859 16.8122 17.3574 14.6458 17.3574 12.0003C17.3574 9.34968 15.1859 7.18835 12.5455 7.18833C11.2709 7.19371 10.0501 7.70241 9.14883 8.60367C8.24758 9.50493 7.73888 10.7258 7.7335 12.0003Z"
        fill="black"
      />
      <path fill-rule="evenodd" clip-rule="evenodd" d="M12.7654 6.5791H12.3V17.4354H12.7603L12.7654 6.5791Z" fill="#FFFF00" />
      <path
        fill-rule="evenodd"
        clip-rule="evenodd"
        d="M12.2848 6.57979C12.2848 6.57132 12.2917 6.56445 12.3001 6.56445H12.7655C12.7695 6.56445 12.7734 6.56607 12.7763 6.56895C12.7792 6.57183 12.7808 6.57573 12.7808 6.5798L12.7757 17.4361C12.7757 17.4445 12.7688 17.4514 12.7604 17.4514H12.3001C12.2917 17.4514 12.2848 17.4445 12.2848 17.4361V6.57979ZM12.3155 6.59514V17.4207H12.745L12.7501 6.59514H12.3155Z"
        fill="black"
      />
      <path
        fill-rule="evenodd"
        clip-rule="evenodd"
        d="M12.7143 6.51855H12.8319V17.4976H12.7194V6.51855H12.7143ZM12.254 6.51855H12.3768V17.4976H12.2591V6.51855H12.254Z"
        fill="#FFFF00"
      />
      <path
        fill-rule="evenodd"
        clip-rule="evenodd"
        d="M12.2386 6.51827C12.2386 6.5098 12.2455 6.50293 12.254 6.50293H12.3767C12.3852 6.50293 12.3921 6.5098 12.3921 6.51827V17.4973C12.3921 17.5057 12.3852 17.5126 12.3767 17.5126H12.2591C12.2506 17.5126 12.2438 17.5057 12.2438 17.4973V6.5297C12.2406 6.5269 12.2386 6.52281 12.2386 6.51827ZM12.2744 6.53361V17.4819H12.3614V6.53361H12.2744ZM12.6989 6.51827C12.6989 6.5098 12.7057 6.50293 12.7142 6.50293H12.8318C12.8403 6.50293 12.8472 6.5098 12.8472 6.51827V17.4973C12.8472 17.5057 12.8403 17.5126 12.8318 17.5126H12.7193C12.7109 17.5126 12.704 17.5057 12.704 17.4973V6.52971C12.7009 6.5269 12.6989 6.52281 12.6989 6.51827ZM12.7347 6.53361V17.4819H12.8165V6.53361H12.7347Z"
        fill="black"
      />
      <path
        fill-rule="evenodd"
        clip-rule="evenodd"
        d="M17.9456 12.2147V11.8158L17.6183 11.509L15.7621 11.0181L13.0927 10.7471L9.87114 10.9107L7.58022 11.4528L7.12 11.7954V12.1993L8.29102 11.6726L11.0728 11.238H13.7473L15.7109 11.4528L17.0712 11.78L17.9456 12.2147Z"
        fill="#FFFF00"
      />
      <path
        fill-rule="evenodd"
        clip-rule="evenodd"
        d="M13.0919 10.7315C13.0927 10.7314 13.0935 10.7314 13.0942 10.7315L15.7636 11.0025C15.7644 11.0026 15.7652 11.0028 15.7659 11.003L17.6222 11.4939C17.6247 11.4945 17.6269 11.4958 17.6288 11.4975L17.956 11.8043C17.9591 11.8072 17.9609 11.8113 17.9609 11.8155V12.2144C17.9609 12.2197 17.9581 12.2246 17.9536 12.2274C17.9491 12.2302 17.9435 12.2305 17.9387 12.2281L17.0658 11.7943L15.7082 11.4676L13.7464 11.253H11.074L8.29539 11.6872L7.12625 12.2131C7.1215 12.2152 7.116 12.2148 7.11162 12.2119C7.10725 12.2091 7.10461 12.2043 7.10461 12.1991V11.7951C7.10461 11.7902 7.10691 11.7857 7.11079 11.7828L7.57102 11.4402C7.5727 11.4389 7.57462 11.438 7.57665 11.4375L9.86757 10.8955C9.86847 10.8953 9.86939 10.8951 9.87032 10.8951L13.0919 10.7315ZM9.87327 10.9257L7.5868 11.4667L7.1353 11.8028V12.1753L8.28469 11.6584C8.28594 11.6578 8.28726 11.6574 8.28861 11.6572L11.0704 11.2225C11.0712 11.2224 11.072 11.2224 11.0728 11.2224H13.7472C13.7475 11.2224 13.7477 11.2224 13.7479 11.2224C13.7482 11.2224 13.7486 11.2224 13.7489 11.2224L15.7126 11.4372C15.7132 11.4373 15.7138 11.4374 15.7145 11.4376L17.0747 11.7648C17.0758 11.7651 17.0769 11.7655 17.0779 11.766L17.9302 12.1896V11.8222L17.6106 11.5226L15.7593 11.0329L13.0923 10.7622L9.87327 10.9257Z"
        fill="black"
      />
      <path
        fill-rule="evenodd"
        clip-rule="evenodd"
        d="M12.5455 11.1719C13.8188 11.1719 15.0511 11.2895 16.0381 11.4787C17.0506 11.6832 17.7614 11.9389 18.0068 12.2202V12.3633C17.7102 12.0054 16.754 11.7497 16.0125 11.5963C15.0409 11.4122 13.8136 11.2895 12.5403 11.2895C11.2057 11.2895 9.95795 11.4224 8.99658 11.6065C8.22954 11.7599 7.20169 12.0667 7.07385 12.3633V12.215C7.14033 12.0105 7.90738 11.7037 8.98124 11.4838C9.94772 11.2946 11.1955 11.1719 12.5403 11.1719H12.5455ZM12.5455 10.7065C13.7165 10.7042 14.8854 10.8069 16.0381 11.0133C17.0506 11.2179 17.7614 11.4736 18.0068 11.7599V11.898C17.7102 11.5452 16.754 11.2844 16.0125 11.1361C15.0409 10.9469 13.8136 10.8292 12.5403 10.8292C11.3535 10.8255 10.1689 10.9316 9.0017 11.1463C8.26022 11.2844 7.19147 11.6014 7.07385 11.898V11.7548C7.14544 11.5503 7.92272 11.2281 8.98124 11.0236C9.95284 10.8344 11.1955 10.7065 12.5455 10.7065V10.7065ZM12.5148 8.34401C14.5244 8.33378 16.2784 8.62526 17.0813 9.03435L17.3727 9.54572C16.6773 9.16731 14.7852 8.77867 12.5199 8.82981C10.6739 8.84515 8.69999 9.03435 7.71306 9.56617L8.06079 8.98322C8.87386 8.55878 10.7864 8.34401 12.5148 8.34401"
        fill="#FFFF00"
      />
      <path
        fill-rule="evenodd"
        clip-rule="evenodd"
        d="M15.2483 8.54681C14.4591 8.42422 13.519 8.35396 12.5149 8.35907C12.5149 8.35907 12.5149 8.35907 12.5149 8.35907M15.2483 8.54681C16.0351 8.66904 16.6708 8.8431 17.0703 9.04566ZM17.0703 9.04566L17.3335 9.50747C16.9742 9.32514 16.345 9.14349 15.5376 9.01126C14.6935 8.87304 13.6533 8.7886 12.5197 8.81418C11.5963 8.82186 10.6407 8.87302 9.79232 8.98883C8.97141 9.10088 8.24943 9.27364 7.75419 9.52701L8.07181 8.99453C8.47627 8.78463 9.15359 8.62575 9.94665 8.51937C10.7417 8.41273 11.6512 8.35907 12.5148 8.35907M12.5148 8.32839C11.65 8.32839 10.7391 8.38211 9.94257 8.48896C9.14653 8.59574 8.46284 8.75579 8.05377 8.96933C8.05125 8.97065 8.04915 8.97263 8.04769 8.97507L7.69997 9.55803C7.69643 9.56396 7.69729 9.57151 7.70206 9.5765C7.70683 9.58148 7.71434 9.58267 7.72042 9.57939C8.21138 9.31483 8.94933 9.13486 9.79647 9.01923C10.6432 8.90365 11.5975 8.85253 12.5201 8.84486L12.5203 8.84486C13.6521 8.81931 14.6905 8.90362 15.5326 9.04154C16.3753 9.17953 17.0201 9.37096 17.3655 9.55891C17.3715 9.56219 17.379 9.56107 17.3838 9.55617C17.3886 9.55128 17.3895 9.54379 17.3861 9.53784L17.0947 9.02647C17.0932 9.02387 17.091 9.02176 17.0883 9.0204C16.6847 8.81475 16.0436 8.63931 15.253 8.51649C14.4621 8.39363 13.5204 8.32327 12.5148 8.32839ZM16.0353 11.0281C14.8836 10.8218 13.7156 10.7192 12.5456 10.7216L12.5455 10.7062V10.7216C11.1964 10.7216 9.95481 10.8493 8.98426 11.0383L8.98424 11.0383C8.45567 11.1405 7.99766 11.2719 7.66313 11.4032C7.49582 11.4688 7.35982 11.5343 7.26144 11.5958C7.21225 11.6265 7.1728 11.656 7.14362 11.6839C7.11532 11.7109 7.09751 11.7355 7.08928 11.7572V11.8397C7.10542 11.8176 7.12588 11.7959 7.14993 11.7745C7.1929 11.7362 7.24816 11.6984 7.31288 11.6612C7.44231 11.587 7.61105 11.5149 7.79875 11.448C8.17425 11.314 8.62761 11.2001 8.99897 11.1309L8.999 11.1309C10.1672 10.9161 11.3527 10.8099 12.5405 10.8136C13.8146 10.8136 15.0429 10.9313 16.0155 11.1207L16.0156 11.1207C16.3867 11.195 16.8119 11.2974 17.1816 11.4255C17.3665 11.4896 17.5378 11.5602 17.6817 11.6371C17.8093 11.7053 17.9161 11.7788 17.9916 11.8577V11.7654C17.8704 11.6268 17.6359 11.4939 17.3048 11.37C16.9709 11.2452 16.541 11.1303 16.0353 11.0281ZM12.5455 10.6909C13.7175 10.6885 14.8873 10.7913 16.0409 10.998L16.0412 10.998C16.5479 11.1004 16.9796 11.2156 17.3156 11.3413C17.6509 11.4667 17.8932 11.6034 18.0186 11.7497C18.0209 11.7524 18.0223 11.756 18.0223 11.7596V11.8977C18.0223 11.9042 18.0182 11.9099 18.0122 11.9121C18.0061 11.9143 17.9993 11.9125 17.9952 11.9076C17.9228 11.8215 17.8094 11.7402 17.6672 11.6642C17.5252 11.5883 17.3555 11.5183 17.1716 11.4545C16.8037 11.327 16.38 11.2249 16.0096 11.1508C15.0391 10.9618 13.8128 10.8443 12.5404 10.8443H12.5404C11.3545 10.8405 10.1709 10.9466 9.00455 11.1611C8.63444 11.23 8.18271 11.3436 7.80906 11.4769C7.62219 11.5435 7.45535 11.6149 7.32814 11.6879C7.26454 11.7243 7.21121 11.761 7.17033 11.7974C7.12933 11.8339 7.10167 11.8694 7.0882 11.9034C7.08548 11.9102 7.07829 11.9142 7.07106 11.9128C7.06382 11.9114 7.05859 11.9051 7.05859 11.8977V11.7545C7.05859 11.7528 7.05888 11.7511 7.05946 11.7495C7.06954 11.7207 7.09143 11.6913 7.12244 11.6617C7.15361 11.6319 7.1949 11.6012 7.24518 11.5697C7.34575 11.5069 7.48365 11.4407 7.65193 11.3746C7.98857 11.2425 8.44845 11.1106 8.97841 11.0082C9.95104 10.8188 11.1946 10.6909 12.5455 10.6909ZM12.5404 11.1869C11.1964 11.1869 9.94972 11.3096 8.98435 11.4985C8.44802 11.6084 7.98868 11.7398 7.65541 11.8692C7.48872 11.9339 7.35401 11.9979 7.2571 12.0582C7.20864 12.0883 7.16999 12.1173 7.14159 12.1447C7.11399 12.1713 7.0969 12.1956 7.08928 12.2173V12.3068C7.13475 12.2453 7.21311 12.1854 7.31276 12.128C7.44019 12.0545 7.60557 11.9831 7.7904 11.9165C8.16013 11.7832 8.60963 11.668 8.99366 11.5912L8.99378 11.5912C9.95612 11.4069 11.2048 11.2738 12.5404 11.2738C13.8146 11.2738 15.0429 11.3967 16.0154 11.5809L16.0157 11.581C16.3867 11.6577 16.8119 11.7602 17.1816 11.8883C17.3665 11.9524 17.5378 12.023 17.6817 12.1002C17.8093 12.1687 17.9161 12.2427 17.9916 12.3226V12.2257C17.8704 12.0896 17.6359 11.9579 17.3048 11.8347C16.9709 11.7105 16.541 11.5956 16.0352 11.4934C15.0493 11.3045 13.8179 11.1869 12.5455 11.1869H12.5404ZM8.97838 11.4685C9.94595 11.279 11.1947 11.1562 12.5404 11.1562H12.5455C13.8197 11.1562 15.0531 11.2739 16.041 11.4633L16.0412 11.4634C16.5479 11.5657 16.9796 11.681 17.3155 11.806C17.6509 11.9308 17.8931 12.0661 18.0185 12.2098C18.0209 12.2126 18.0223 12.2162 18.0223 12.2199V12.3631C18.0223 12.3695 18.0182 12.3753 18.0121 12.3775C18.006 12.3797 17.9992 12.3778 17.9951 12.3728C17.9228 12.2855 17.8094 12.2036 17.6672 12.1273C17.5252 12.0511 17.3555 11.9811 17.1716 11.9173C16.8037 11.7898 16.38 11.6877 16.0096 11.6111C15.039 11.4272 13.8128 11.3045 12.5404 11.3045C11.2067 11.3045 9.96 11.4374 8.99961 11.6213C8.6166 11.6979 8.16869 11.8128 7.8008 11.9454C7.61681 12.0117 7.45331 12.0823 7.32809 12.1545C7.20203 12.2273 7.11785 12.2999 7.08802 12.3691C7.08514 12.3758 7.07796 12.3795 7.07083 12.3781C7.06371 12.3766 7.05859 12.3703 7.05859 12.3631V12.2148C7.05859 12.2131 7.05885 12.2115 7.05934 12.21C7.06875 12.1811 7.08996 12.1518 7.12028 12.1226C7.15075 12.0932 7.19132 12.0629 7.2409 12.0321C7.34006 11.9704 7.4767 11.9056 7.64431 11.8406C7.97964 11.7104 8.44074 11.5785 8.97825 11.4685L8.97838 11.4685Z"
        fill="black"
      />
      <path
        fill-rule="evenodd"
        clip-rule="evenodd"
        d="M12.5456 8.7633C13.5948 8.74559 14.6437 8.81917 15.6802 8.98319C16.4984 9.1366 17.2808 9.3616 17.3933 9.48432L17.4802 9.63773C17.2092 9.46387 16.5291 9.26444 15.6598 9.1008C14.7905 8.93716 13.6808 8.88091 12.5404 8.88603C11.2467 8.88091 10.2393 8.94739 9.38021 9.1008C8.788 9.1838 8.21302 9.36165 7.67737 9.62751L7.7643 9.46898C8.07112 9.31557 8.54669 9.12637 9.35464 8.97807C10.2495 8.81444 11.2671 8.76841 12.5456 8.7633V8.7633ZM12.5456 8.30307C13.6399 8.29284 14.724 8.35421 15.5677 8.50762C16.1144 8.58878 16.6434 8.76166 17.1325 9.01898L17.2603 9.22353C17.0456 8.98319 16.2376 8.75307 15.5166 8.63035C14.678 8.48205 13.6399 8.4258 12.5456 8.41557C11.5269 8.40649 10.5092 8.48175 9.50294 8.64057C8.97679 8.71389 8.46577 8.87099 7.9893 9.10591L8.1018 8.93716C8.39839 8.78375 8.87908 8.64057 9.48249 8.52296C10.4954 8.36205 11.52 8.28678 12.5456 8.29796V8.30307ZM15.2251 14.2502C14.3388 14.0968 13.4398 14.0283 12.5404 14.0457C9.19101 14.0866 8.11203 14.736 7.97907 14.9304L7.72339 14.5213C8.58248 13.9076 10.4029 13.5599 12.5609 13.5906C13.6808 13.611 14.6473 13.6877 15.4552 13.8463L15.2251 14.2554"
        fill="#FFFF00"
      />
      <path
        fill-rule="evenodd"
        clip-rule="evenodd"
        d="M9.48512 8.53778C8.88463 8.65484 8.40718 8.79701 8.11232 8.94869L8.03336 9.06714C8.49668 8.84519 8.9916 8.69606 9.50065 8.62511C10.5077 8.46617 11.5262 8.39086 12.5457 8.39995L12.5457 8.39995C13.6402 8.41018 14.6793 8.46643 15.5192 8.61494C15.8802 8.6764 16.2632 8.76476 16.583 8.86795C16.7429 8.91954 16.8873 8.97493 17.0054 9.03264C17.0776 9.06796 17.1405 9.10438 17.1912 9.14166L17.1217 9.03035C16.6351 8.7749 16.109 8.60321 15.5654 8.52251L15.5649 8.52243L15.5649 8.52243C14.7225 8.36926 13.6395 8.30791 12.5457 8.31813C12.5416 8.31817 12.5376 8.31657 12.5347 8.31369C12.5345 8.31343 12.5342 8.31317 12.534 8.31289C11.5132 8.30241 10.4933 8.37763 9.48512 8.53778ZM12.5569 8.28734C12.5541 8.2843 12.5501 8.28238 12.5457 8.28233C11.5193 8.27115 10.4938 8.34648 9.48004 8.50752L9.48004 8.50751L9.47951 8.50762C8.8757 8.62531 8.39328 8.76882 8.09471 8.92325C8.09241 8.92445 8.09044 8.92621 8.089 8.92837L7.9765 9.09712C7.97265 9.10289 7.97315 9.11053 7.97773 9.11575C7.98231 9.12097 7.98982 9.12246 7.99604 9.11939C8.47104 8.88519 8.98049 8.72857 9.50502 8.65548L9.50502 8.65549L9.50529 8.65544C10.5107 8.49675 11.5276 8.42155 12.5454 8.43063C13.6394 8.44085 14.6765 8.4971 15.5139 8.64517L15.514 8.64518C15.8739 8.70646 16.2555 8.79451 16.5736 8.89715C16.7326 8.94847 16.8756 9.00334 16.9919 9.06021C17.1086 9.11723 17.1972 9.17562 17.2489 9.23347C17.2542 9.23941 17.2631 9.24029 17.2695 9.23551C17.2759 9.23073 17.2775 9.22187 17.2733 9.21511L17.1455 9.01057C17.144 9.00827 17.142 9.00639 17.1396 9.00512C16.6491 8.74704 16.1185 8.57363 15.5702 8.4922C14.7281 8.33912 13.6477 8.27765 12.5569 8.28734ZM15.6776 8.99802C14.642 8.83416 13.5941 8.76067 12.5458 8.77835L12.5455 8.76302L12.5456 8.77836C11.2673 8.78347 10.2509 8.8295 9.35736 8.99288C8.5545 9.14024 8.08099 9.32794 7.7754 9.48028L7.71409 9.59208C8.23869 9.33737 8.80005 9.16636 9.37776 9.08536C10.238 8.93177 11.2463 8.86529 12.5404 8.8704C13.6811 8.86529 14.7918 8.92154 15.6626 9.08544C16.0976 9.16733 16.4855 9.2582 16.7987 9.35043C17.0763 9.43218 17.2962 9.51527 17.4383 9.59459L17.3808 9.49318C17.3683 9.48005 17.346 9.46452 17.3136 9.44707C17.2806 9.42925 17.2382 9.41003 17.1875 9.38978C17.0862 9.34929 16.9528 9.30502 16.7971 9.25971C16.4857 9.16912 16.0862 9.07464 15.6776 8.99802ZM12.5454 8.74768C11.2668 8.75279 10.2481 8.79881 9.35185 8.9627L9.35184 8.9627C8.54255 9.11124 8.06559 9.30088 7.7574 9.45498C7.75461 9.45637 7.75231 9.45859 7.75081 9.46132L7.66388 9.61985C7.66065 9.62572 7.66162 9.63301 7.66626 9.63785C7.6709 9.64268 7.67815 9.64394 7.68415 9.64096C8.21833 9.37584 8.79172 9.19848 9.3823 9.11571L9.3823 9.11572L9.38287 9.11562C10.2407 8.96243 11.2471 8.89597 12.5403 8.90108H12.5405C13.6805 8.89597 14.789 8.95222 15.6569 9.11559C16.0912 9.19734 16.478 9.288 16.79 9.37986C17.1024 9.47185 17.3384 9.56469 17.4719 9.65036C17.4778 9.65417 17.4856 9.65344 17.4907 9.64859C17.4959 9.64374 17.497 9.63602 17.4935 9.62989L17.4066 9.47648C17.406 9.47547 17.4053 9.47453 17.4046 9.47367C17.3887 9.45638 17.3623 9.43846 17.3282 9.42006C17.2937 9.40149 17.2502 9.38179 17.1989 9.36129C17.0963 9.32029 16.9619 9.2757 16.8056 9.23025C16.4932 9.13932 16.0925 9.04461 15.683 8.96782L15.683 8.96782L15.6826 8.96775C14.6452 8.8036 13.5955 8.72996 12.5454 8.74768ZM7.74403 14.5251L7.98036 14.9033C8.02388 14.8521 8.11622 14.7812 8.26979 14.702C8.44314 14.6125 8.6962 14.5115 9.04951 14.4154C9.75614 14.2232 10.8646 14.0505 12.5402 14.0301C12.5402 14.0301 12.5402 14.0301 12.5402 14.0301L12.5404 14.0454L12.5401 14.0301C12.5401 14.0301 12.5402 14.0301 12.5402 14.0301C13.4378 14.0127 14.335 14.0808 15.2196 14.2335L15.2117 14.2476C15.2088 14.2526 15.2092 14.2587 15.2121 14.2633C14.3301 14.1113 13.4356 14.0434 12.5407 14.0608L12.5406 14.0608C10.8668 14.0812 9.76102 14.2537 9.05756 14.445C8.70583 14.5407 8.45488 14.641 8.28386 14.7293C8.11215 14.8179 8.02268 14.8934 7.99169 14.9387C7.98877 14.943 7.98389 14.9455 7.97872 14.9454C7.97354 14.9453 7.96877 14.9426 7.96602 14.9382L7.71034 14.5291C7.70605 14.5222 7.70784 14.5132 7.71443 14.5085C8.14661 14.1998 8.81901 13.9589 9.65214 13.799C10.4856 13.6389 11.4813 13.5596 12.5611 13.575L12.5611 13.575C13.6815 13.5954 14.6489 13.6722 15.4581 13.8309C15.463 13.8319 15.4671 13.8351 15.4691 13.8396C15.4712 13.844 15.471 13.8492 15.4686 13.8535L15.2384 14.2626C15.2343 14.27 15.2249 14.2726 15.2175 14.2684C15.2153 14.2672 15.2134 14.2654 15.2121 14.2633M15.4314 13.857L15.2196 14.2335ZM15.4314 13.857C15.4384 13.8583 15.4453 13.8597 15.4522 13.861L15.4552 13.846L15.4418 13.8385L15.4314 13.857ZM15.4314 13.857C14.6289 13.7014 13.6704 13.6259 12.5606 13.6056L12.5609 13.5903L12.5606 13.6056C12.5606 13.6056 12.5606 13.6056 12.5606 13.6056C11.4825 13.5903 10.4889 13.6695 9.65792 13.8291C8.83415 13.9873 8.1714 14.2241 7.74403 14.5251"
        fill="black"
      />
      <path
        fill-rule="evenodd"
        clip-rule="evenodd"
        d="M12.5251 13.989C13.4558 14.0044 14.366 14.0402 15.2507 14.2038L15.1893 14.3163C14.3711 14.1629 13.4916 14.1117 12.5302 14.1117C11.2876 14.1015 10.0399 14.2191 8.95068 14.5311C8.60807 14.6282 8.04045 14.8481 7.97909 15.0322L7.91772 14.9299C7.93818 14.8174 8.27568 14.5924 8.92 14.4186C10.1677 14.0606 11.3336 13.9941 12.5251 13.989ZM12.566 13.5186C13.5483 13.5176 14.5288 13.6031 15.4961 13.7742L15.4297 13.8919C14.4851 13.7186 13.5263 13.6347 12.566 13.6413C11.3285 13.6413 10.0143 13.7333 8.81773 14.0811C8.4342 14.1936 7.76431 14.439 7.74386 14.6282L7.6825 14.5157C7.69272 14.3419 8.27057 14.1117 8.79216 13.9634C9.99386 13.6106 11.3132 13.5237 12.566 13.5186V13.5186Z"
        fill="#FFFF00"
      />
      <path
        fill-rule="evenodd"
        clip-rule="evenodd"
        d="M15.4721 13.7853C14.5126 13.6168 13.5402 13.5326 12.566 13.5336C11.3137 13.5387 9.99606 13.6257 8.79644 13.9779L8.79631 13.9779C8.53595 14.0519 8.26192 14.1463 8.05198 14.2436C7.94693 14.2923 7.85857 14.3415 7.79607 14.3889C7.76483 14.4126 7.74053 14.4355 7.72385 14.4572C7.70845 14.4773 7.70016 14.4956 7.69815 14.5122L7.73969 14.5883C7.74664 14.5736 7.75642 14.5591 7.76836 14.5449C7.7905 14.5185 7.82095 14.4921 7.85737 14.466C7.93022 14.4138 8.0289 14.3613 8.13825 14.3116C8.3571 14.2122 8.62119 14.1224 8.81337 14.0661L8.8134 14.066C10.012 13.7177 11.3279 13.6257 12.5659 13.6257C13.5235 13.6191 14.4796 13.7024 15.4217 13.8745L15.4721 13.7853ZM12.566 13.5183L12.566 13.5029C13.5492 13.5019 14.5306 13.5876 15.4988 13.7589C15.5037 13.7597 15.5079 13.7629 15.51 13.7674C15.5121 13.7719 15.5119 13.7772 15.5095 13.7815L15.443 13.8991C15.4398 13.9048 15.4333 13.9078 15.4269 13.9067C14.4833 13.7336 13.5254 13.6498 12.5661 13.6563L12.566 13.6563C11.3291 13.6563 10.0165 13.7484 8.82198 14.0955C8.63063 14.1516 8.36803 14.2409 8.15095 14.3396C8.04234 14.3889 7.94573 14.4404 7.87525 14.4909C7.84 14.5162 7.81176 14.5409 7.79185 14.5646C7.77186 14.5884 7.76117 14.6101 7.75907 14.6296C7.75835 14.6363 7.75338 14.6417 7.7468 14.643C7.74023 14.6443 7.73356 14.6412 7.73035 14.6353L7.66899 14.5228C7.66761 14.5203 7.66697 14.5174 7.66714 14.5145C7.66866 14.4887 7.68062 14.4632 7.6995 14.4385C7.71843 14.4139 7.74502 14.3891 7.77754 14.3644C7.84256 14.3151 7.93318 14.2649 8.03907 14.2158C8.25099 14.1175 8.52665 14.0227 8.78786 13.9484C9.99163 13.595 11.3126 13.5081 12.5659 13.5029L12.566 13.5183ZM12.5253 13.9734V13.9734C13.4561 13.9887 14.3674 14.0245 15.2534 14.1884C15.2583 14.1893 15.2624 14.1925 15.2645 14.1969C15.2666 14.2014 15.2665 14.2065 15.2641 14.2109L15.2028 14.3234C15.1996 14.3292 15.193 14.3323 15.1865 14.3311C14.3696 14.1779 13.4911 14.1268 12.5302 14.1268L12.5301 14.1268C11.2884 14.1166 10.0422 14.2341 8.95486 14.5455L8.95483 14.5455C8.78413 14.5939 8.55738 14.6729 8.36588 14.7626C8.2701 14.8075 8.18362 14.8548 8.11749 14.9021C8.05065 14.9499 8.00729 14.9957 7.9936 15.0368C7.99171 15.0425 7.98668 15.0465 7.98072 15.0472C7.97477 15.0478 7.96897 15.0449 7.96589 15.0398L7.90453 14.9375C7.90261 14.9343 7.90192 14.9306 7.90259 14.9269C7.90868 14.8934 7.93709 14.8553 7.98212 14.8153C8.02783 14.7746 8.09312 14.7299 8.17748 14.6835C8.34626 14.5908 8.59287 14.4907 8.91584 14.4035C10.1655 14.045 11.3331 13.9785 12.525 13.9734L12.5253 13.9734ZM12.525 14.0041C11.3341 14.0092 10.1699 14.0757 8.92419 14.433L8.92396 14.4331L8.92396 14.4331C8.60267 14.5198 8.35841 14.6191 8.19226 14.7104C8.10915 14.7561 8.04596 14.7996 8.0025 14.8382C7.96171 14.8745 7.9403 14.9047 7.93402 14.9271L7.97718 14.999C8.00067 14.9575 8.04451 14.9165 8.09965 14.8771C8.16791 14.8284 8.25625 14.7801 8.35287 14.7349C8.54617 14.6443 8.77452 14.5648 8.94644 14.516C10.0375 14.2036 11.2867 14.0859 12.5303 14.0961C13.4878 14.0961 14.3648 14.1468 15.1812 14.2989L15.227 14.2148C14.3503 14.0547 13.4482 14.0193 12.525 14.0041Z"
        fill="black"
      />
      <path
        fill-rule="evenodd"
        clip-rule="evenodd"
        d="M17.3217 14.5825L16.9228 15.2115L15.762 14.1836L12.7654 12.1637L9.3802 10.3075L7.62622 9.7092L7.99952 9.01374L8.12736 8.94727L9.21656 9.21829L12.8166 11.0745L14.8927 12.3836L16.6365 13.6365L17.3473 14.4547L17.3217 14.5825Z"
        fill="#FFFF00"
      />
      <path
        fill-rule="evenodd"
        clip-rule="evenodd"
        d="M8.12024 8.93337C8.12356 8.93165 8.12739 8.93119 8.13102 8.93209L9.22023 9.20312C9.22138 9.20341 9.2225 9.20383 9.22356 9.20437L12.8236 11.0606C12.824 11.0608 12.8243 11.061 12.8247 11.0613L14.9009 12.3704C14.9011 12.3705 14.9014 12.3707 14.9016 12.3709L16.6454 13.6237C16.6463 13.6244 16.6472 13.6252 16.648 13.6261L17.3588 14.4443C17.3619 14.4479 17.3632 14.4527 17.3623 14.4574L17.3367 14.5852C17.3363 14.5871 17.3356 14.5888 17.3346 14.5904L16.9357 15.2194C16.9333 15.2232 16.9294 15.2258 16.9249 15.2264C16.9205 15.227 16.916 15.2257 16.9126 15.2227L15.7526 14.1955L12.7574 12.1766L9.37395 10.3213L7.62123 9.72343C7.61696 9.72198 7.61355 9.71872 7.6119 9.71453C7.61026 9.71034 7.61053 9.70563 7.61266 9.70166L7.98596 9.0062C7.98742 9.00349 7.98966 9.00127 7.9924 8.99985L8.12024 8.93337ZM8.12925 8.96327L8.01075 9.02489L7.64825 9.70023L9.38511 10.2927C9.38595 10.293 9.38676 10.2933 9.38754 10.2938L12.7728 12.15C12.7732 12.1502 12.7736 12.1505 12.774 12.1507L15.7706 14.1706C15.7711 14.171 15.7717 14.1714 15.7722 14.1719L16.9195 15.1878L17.3072 14.5764L17.3307 14.4588L16.626 13.6476L14.8841 12.3961L12.8089 11.0876L9.21108 9.23246L8.12925 8.96327Z"
        fill="black"
      />
      <path
        fill-rule="evenodd"
        clip-rule="evenodd"
        d="M7.56477 9.72487C7.87159 9.52032 10.1318 10.5226 12.5046 11.9544C14.8619 13.3862 17.1222 15.0021 16.9176 15.3039L16.8512 15.4112L16.8205 15.4368C16.8256 15.4317 16.8614 15.3857 16.8205 15.2783C16.7182 14.9459 15.1125 13.6675 12.4585 12.0618C9.86591 10.5226 7.70795 9.59191 7.49829 9.85782L7.56477 9.72487V9.72487ZM17.4034 14.5777C17.5977 14.1891 15.5011 12.609 12.8983 11.0698C10.2392 9.56123 8.31647 8.67145 7.96363 8.93736L7.89204 9.08566C7.89204 9.09077 7.89204 9.07543 7.9125 9.06009C7.97386 9.00895 8.08125 9.00895 8.12727 9.00895C8.73068 9.01918 10.454 9.8118 12.8727 11.1976C13.9364 11.8112 17.3523 14.0101 17.3369 14.6237C17.3369 14.6749 17.3421 14.6851 17.3216 14.7158L17.4085 14.5828L17.4034 14.5777Z"
        fill="#FFFF00"
      />
      <path
        fill-rule="evenodd"
        clip-rule="evenodd"
        d="M9.57227 9.32382C10.4301 9.70191 11.5761 10.3018 12.9058 11.0561L12.9061 11.0563C14.2078 11.8261 15.3833 12.6063 16.2091 13.2428C16.622 13.561 16.948 13.8436 17.1587 14.0714C17.264 14.1852 17.3412 14.286 17.3859 14.3711C17.4277 14.4506 17.4431 14.5202 17.4215 14.5744C17.4246 14.5794 17.4247 14.5859 17.4213 14.5909L17.3363 14.7209C17.3357 14.7219 17.335 14.723 17.3343 14.724C17.3296 14.731 17.3202 14.733 17.3131 14.7283C17.3061 14.7237 17.3041 14.7142 17.3087 14.7071L17.3088 14.707C17.3094 14.7061 17.31 14.7052 17.3106 14.7043C17.3184 14.6921 17.3207 14.6846 17.3216 14.6756C17.3222 14.6702 17.3222 14.664 17.3221 14.6554C17.3219 14.647 17.3216 14.6364 17.3216 14.6235L17.3216 14.6231C17.3224 14.5881 17.3111 14.5462 17.2872 14.4973C17.2634 14.4487 17.2277 14.3942 17.181 14.3347C17.0878 14.2156 16.9522 14.0777 16.7851 13.9269C16.4511 13.6255 15.9928 13.2743 15.5005 12.9229C14.5159 12.22 13.3964 11.5172 12.865 11.2106C11.6559 10.5178 10.6208 9.97348 9.81279 9.60108C9.40876 9.41488 9.0617 9.27177 8.77816 9.1746C8.49432 9.07732 8.27542 9.02655 8.1271 9.02401C8.10406 9.02401 8.06687 9.02404 8.028 9.03021C7.98877 9.03644 7.94983 9.04864 7.92228 9.07159C7.92208 9.07176 7.92187 9.07192 7.92166 9.07208C7.9135 9.0782 7.90987 9.08395 7.90828 9.08712C7.90749 9.0887 7.90712 9.08982 7.90688 9.09053C7.90685 9.09064 7.90664 9.09128 7.90642 9.09182C7.90636 9.09198 7.90588 9.09326 7.905 9.09463C7.90468 9.09513 7.90301 9.09776 7.89976 9.09964C7.89775 9.10081 7.89444 9.10209 7.89031 9.10162C7.88609 9.10114 7.88304 9.09907 7.88119 9.09722C7.8783 9.09432 7.87742 9.09107 7.87726 9.09049C7.87725 9.09047 7.87725 9.09045 7.87725 9.09044C7.87695 9.08939 7.87684 9.08853 7.87679 9.08817C7.8767 9.0874 7.87668 9.08676 7.87667 9.08657C7.87666 9.08611 7.87666 9.08558 7.87666 9.08538C7.87666 9.08307 7.87718 9.08079 7.87819 9.07871L7.94978 8.93041C7.95084 8.92821 7.95241 8.9263 7.95436 8.92483C8.00257 8.8885 8.07541 8.8733 8.16818 8.87515C8.26137 8.87701 8.37709 8.89615 8.51337 8.93109C8.78599 9.00099 9.1434 9.13482 9.57227 9.32382ZM17.3524 14.6403L17.3894 14.5837C17.3875 14.5796 17.3876 14.5748 17.3897 14.5706C17.4104 14.529 17.4021 14.4679 17.3588 14.3854C17.3159 14.3037 17.2408 14.2053 17.1362 14.0922C16.9272 13.8663 16.6028 13.5849 16.1904 13.2671C15.3659 12.6316 14.1916 11.8521 12.8906 11.0828C11.5612 10.3286 10.4163 9.72935 9.5599 9.3519C9.13159 9.16314 8.77596 9.03009 8.50575 8.96081C8.3706 8.92616 8.25744 8.90762 8.16756 8.90583C8.07942 8.90407 8.01594 8.91846 7.97575 8.94719L7.93803 9.02531C7.96502 9.012 7.99506 9.00438 8.02319 8.99991C8.06466 8.99333 8.10399 8.99333 8.12702 8.99333H8.12749C8.28087 8.99593 8.50362 9.04807 8.78811 9.14557C9.07298 9.2432 9.42107 9.38677 9.82563 9.57322C10.6348 9.94613 11.6707 10.491 12.8803 11.184C13.4126 11.4911 14.5329 12.1945 15.5183 12.8979C16.011 13.2496 16.4704 13.6015 16.8057 13.9041C16.9733 14.0554 17.1104 14.1947 17.2052 14.3158C17.2526 14.3763 17.2897 14.4326 17.3148 14.4839C17.3397 14.5349 17.3532 14.5819 17.3523 14.6236C17.3523 14.6298 17.3523 14.6352 17.3524 14.6403ZM7.57655 9.73525L7.53793 9.81249C7.54371 9.81032 7.54977 9.80841 7.55609 9.80673C7.58603 9.79879 7.62287 9.7959 7.66579 9.79743C7.75165 9.8005 7.86457 9.8214 8.00117 9.85847C8.27456 9.93267 8.64578 10.0725 9.09094 10.2686C9.98143 10.6607 11.1696 11.2785 12.4663 12.0483L12.4664 12.0484C13.7938 12.8514 14.8591 13.5727 15.6056 14.135C15.9788 14.4161 16.2725 14.6576 16.4794 14.8498C16.5828 14.9458 16.6648 15.0298 16.7242 15.1003C16.7831 15.1702 16.8211 15.2284 16.8349 15.273C16.851 15.3153 16.8558 15.3492 16.8551 15.3754L16.9049 15.295C16.9147 15.2805 16.918 15.2611 16.9126 15.235C16.9072 15.2088 16.8933 15.177 16.8703 15.1398C16.8245 15.0655 16.7448 14.9731 16.6351 14.8652C16.4159 14.6497 16.0795 14.3752 15.6626 14.065C14.829 13.4447 13.675 12.683 12.4965 11.9672C11.3106 11.2516 10.153 10.6434 9.25362 10.2397C8.8039 10.0378 8.41914 9.8873 8.12794 9.8C7.98229 9.75634 7.86056 9.72866 7.76607 9.71818C7.71882 9.71294 7.67883 9.71205 7.64629 9.71544C7.61575 9.71863 7.59274 9.72549 7.57655 9.73525ZM7.56473 9.72458L7.55622 9.71182C7.57827 9.69712 7.60782 9.68861 7.64311 9.68492C7.67855 9.68123 7.72089 9.68229 7.76945 9.68768C7.86656 9.69845 7.99029 9.7267 8.13675 9.77061C8.42978 9.85846 8.81591 10.0096 9.26619 10.2117C10.1669 10.616 11.3256 11.2248 12.5124 11.941C13.6914 12.6571 14.8463 13.4193 15.6809 14.0403C16.0982 14.3508 16.4359 14.6263 16.6566 14.8434C16.7669 14.9518 16.8486 15.0463 16.8964 15.1237C16.9203 15.1624 16.9363 15.1977 16.9427 15.2289C16.9491 15.2602 16.9461 15.2887 16.9305 15.3119L16.8642 15.419C16.8633 15.4204 16.8622 15.4217 16.8609 15.4227L16.8303 15.4483C16.824 15.4536 16.8146 15.4529 16.8091 15.4469C16.8036 15.4408 16.8038 15.4315 16.8096 15.4257C16.8097 15.4256 16.8119 15.4231 16.8147 15.4177C16.8174 15.4123 16.8206 15.4042 16.8226 15.393C16.8265 15.3706 16.8257 15.335 16.8061 15.2835C16.806 15.2832 16.8059 15.2828 16.8058 15.2825C16.794 15.2441 16.7595 15.1898 16.7008 15.1201C16.6424 15.0509 16.5615 14.9679 16.4585 14.8722C16.2527 14.6811 15.9599 14.4403 15.5871 14.1595C14.8417 13.598 13.7772 12.8773 12.4506 12.0747C11.1547 11.3053 9.96763 10.6882 9.07858 10.2966C8.63397 10.1009 8.26435 9.9617 7.99313 9.88808C7.85743 9.85125 7.74712 9.83104 7.6647 9.82809C7.62349 9.82662 7.58993 9.8295 7.56396 9.83639C7.53798 9.84328 7.52068 9.85388 7.5103 9.86704C7.50543 9.87321 7.49667 9.87471 7.49003 9.87049C7.48339 9.86627 7.48101 9.85771 7.48453 9.85068L7.55101 9.71772L7.56473 9.72458Z"
        fill="black"
      />
      <path
        d="M9.30554 12.6018C9.30635 13.0253 9.39113 13.4443 9.55498 13.8347C9.71883 14.2252 9.95849 14.5792 10.2601 14.8764C10.558 15.1789 10.9129 15.4195 11.3042 15.5842C11.6955 15.749 12.1155 15.8347 12.5401 15.8364C13.3994 15.8363 14.2235 15.4949 14.831 14.8873C15.1316 14.5885 15.3701 14.2332 15.533 13.842C15.6959 13.4507 15.7798 13.0311 15.7801 12.6073V8.28728L9.30554 8.27637V12.6018V12.6018Z"
        fill="white"
      />
      <path
        fill-rule="evenodd"
        clip-rule="evenodd"
        d="M9.28638 8.25684L15.7991 8.26781V12.6069C15.7989 13.0332 15.7144 13.4553 15.5505 13.8489C15.3867 14.2425 15.1467 14.5998 14.8444 14.9004C14.8444 14.9004 14.8444 14.9004 14.8444 14.9004M10.2465 14.8895C10.5462 15.1938 10.9031 15.4357 11.2967 15.6014C11.6903 15.7672 12.1129 15.8534 12.54 15.8551H12.54C13.4044 15.855 14.2333 15.5116 14.8444 14.9004M10.2465 14.8895C9.94317 14.5906 9.70211 14.2344 9.53731 13.8417C9.37248 13.449 9.28719 13.0274 9.28638 12.6015L9.28638 8.25684M9.32456 12.6014C9.32537 13.0223 9.40964 13.4388 9.57251 13.8269C9.73538 14.215 9.97362 14.567 10.2734 14.8624L10.2736 14.8626C10.5698 15.1633 10.9225 15.4025 11.3115 15.5662C11.7005 15.73 12.118 15.8152 12.5401 15.8169C13.3943 15.8168 14.2135 15.4774 14.8175 14.8734L14.8175 14.8734C15.1162 14.5763 15.3534 14.2232 15.5153 13.8342C15.6772 13.4453 15.7607 13.0282 15.761 12.6069V8.30593L9.32456 8.29508V12.6014Z"
        fill="black"
      />
      <path
        d="M9.42554 12.6071C9.42669 13.0132 9.50826 13.4152 9.66554 13.7896C9.82282 14.1641 10.0527 14.5037 10.3419 14.7889C10.9226 15.3727 11.7112 15.7022 12.5346 15.7053C13.3566 15.7057 14.1452 15.3801 14.7274 14.7998C15.0156 14.5142 15.2445 14.1744 15.4008 13.7999C15.5571 13.4255 15.6379 13.0238 15.6383 12.618V8.41797H9.43645V12.6071M14.4001 9.67797V12.3453L14.3947 12.6234C14.3965 12.8671 14.3491 13.1087 14.2554 13.3336C14.1617 13.5586 14.0235 13.7623 13.8492 13.9325C13.5023 14.2806 13.0315 14.4768 12.5401 14.478C12.0274 14.478 11.5746 14.2598 11.2365 13.9216C10.8884 13.5748 10.6922 13.1039 10.691 12.6125V9.66707L14.4001 9.67797Z"
        fill="#FF0000"
      />
      <path
        fill-rule="evenodd"
        clip-rule="evenodd"
        d="M9.42277 8.4043H15.6519V12.618C15.6515 13.0255 15.5704 13.429 15.4134 13.8051C15.2563 14.1812 15.0265 14.5226 14.737 14.8094C14.1522 15.3923 13.3602 15.7193 12.5346 15.7189C11.7076 15.7158 10.9155 15.3848 10.3322 14.7985C10.0418 14.5121 9.8109 14.171 9.65293 13.7949C9.49495 13.4187 9.41302 13.015 9.41187 12.6071L9.4255 12.607H9.42277V8.4043ZM9.43914 12.607C9.44029 13.0114 9.5215 13.4115 9.67807 13.7843C9.83466 14.1571 10.0635 14.4953 10.3514 14.7792L10.3515 14.7793C10.9297 15.3605 11.7148 15.6886 12.5347 15.6916C13.353 15.692 14.1381 15.3678 14.7177 14.7901C15.0047 14.5058 15.2326 14.1674 15.3882 13.7946C15.5438 13.4218 15.6242 13.0219 15.6246 12.6179V8.43157H9.45005V12.607H9.43914ZM10.6773 9.65335L14.4137 9.66434V12.3452L14.4137 12.3455L14.4083 12.6233C14.4083 12.6234 14.4083 12.6234 14.4083 12.6235C14.4101 12.8689 14.3624 13.1122 14.268 13.3388C14.1735 13.5654 14.0344 13.7707 13.8588 13.9422C13.5093 14.2928 13.0351 14.4904 12.5401 14.4916C12.0233 14.4916 11.5672 14.2717 11.2268 13.9313C10.8762 13.5818 10.6785 13.1075 10.6773 12.6125V9.65335ZM10.7046 9.68071V12.6125C10.7058 13.1003 10.9005 13.5676 11.246 13.9119C11.582 14.2479 12.0314 14.4643 12.54 14.4643C13.0278 14.4631 13.4952 14.2684 13.8395 13.9229L13.8396 13.9228C14.0126 13.7538 14.1498 13.5516 14.2428 13.3283C14.3358 13.1051 14.3828 12.8654 14.381 12.6235L14.381 12.6231L14.3864 12.3452V9.69154L10.7046 9.68071Z"
        fill="black"
      />
      <path
        d="M9.8291 9.51349C9.83456 9.21349 10.0473 9.14258 10.0473 9.14258C10.0527 9.14258 10.2818 9.21894 10.2818 9.51894H9.8291"
        fill="#FFFF00"
      />
      <path
        d="M9.64367 9.14803L9.60549 9.49167H9.83458C9.83458 9.20803 10.0528 9.1644 10.0528 9.1644C10.0582 9.1644 10.2709 9.2244 10.2764 9.49167H10.5055L10.4619 9.14258H9.64367V9.14803ZM9.58912 9.49713H10.5164C10.5328 9.49713 10.5491 9.51349 10.5491 9.53531C10.5491 9.56258 10.5328 9.57894 10.5164 9.57894H9.58912C9.57276 9.57894 9.5564 9.56258 9.5564 9.53531C9.5564 9.51349 9.57276 9.49713 9.59458 9.49713H9.58912Z"
        fill="#FFFF00"
      />
      <path
        fill-rule="evenodd"
        clip-rule="evenodd"
        d="M9.63 9.12988H10.4739L10.5182 9.48447C10.5426 9.48558 10.5627 9.50896 10.5627 9.53625C10.5627 9.56837 10.5427 9.59352 10.5164 9.59352H9.58909C9.56276 9.59352 9.54272 9.56837 9.54272 9.53625C9.54272 9.50875 9.56246 9.48728 9.58909 9.48469V9.48443H9.59264L9.63 9.14822V9.12988ZM9.65645 9.15716L9.62069 9.47898H9.82107C9.82447 9.34138 9.87906 9.2596 9.9348 9.21222C9.96337 9.18794 9.99193 9.17294 10.0134 9.164C10.0203 9.16114 10.0264 9.15889 10.0316 9.15716H9.65645ZM10.0527 9.16534C10.052 9.16172 10.0515 9.15908 10.0511 9.15716L10.0527 9.16534ZM10.0727 9.15716C10.0788 9.15942 10.0864 9.1625 10.095 9.16655C10.1168 9.1768 10.1452 9.19332 10.1736 9.21855C10.2289 9.26761 10.2835 9.34904 10.2896 9.47898H10.49L10.4498 9.15716H10.0727ZM10.2625 9.48443C10.2578 9.35994 10.2063 9.28403 10.1555 9.23895C10.1294 9.21576 10.1032 9.20058 10.0834 9.19122C10.0735 9.18655 10.0652 9.18335 10.0593 9.18135C10.0565 9.1804 10.0543 9.17974 10.0528 9.17932C10.0514 9.17966 10.0495 9.18017 10.0472 9.18085C10.0416 9.18248 10.0336 9.18513 10.0239 9.18917C10.0044 9.19728 9.97845 9.21092 9.95247 9.233C9.90197 9.27593 9.85029 9.35173 9.84824 9.48443H10.2625ZM9.59454 9.5117C9.58026 9.5117 9.57 9.52196 9.57 9.53625C9.57 9.55868 9.58269 9.56625 9.58909 9.56625H10.5164C10.5228 9.56625 10.5355 9.55868 10.5355 9.53625C10.5355 9.52057 10.5239 9.5117 10.5164 9.5117H9.59454Z"
        fill="black"
      />
      <path
        d="M9.92722 9.49206C9.92722 9.31205 10.0527 9.26296 10.0527 9.26296C10.0527 9.26296 10.1781 9.31751 10.1781 9.49206H9.92722ZM9.61085 9.00114H10.4999C10.5163 9.00114 10.5327 9.02296 10.5327 9.04478C10.5327 9.06114 10.5163 9.07751 10.4999 9.07751H9.61085C9.59449 9.07751 9.57812 9.06114 9.57812 9.03933C9.57812 9.02296 9.59449 9.0066 9.61085 9.0066V9.00114ZM9.94904 9.57387H10.4727C10.489 9.57387 10.5054 9.59024 10.5054 9.61206C10.5054 9.63387 10.489 9.65024 10.4727 9.65024H9.62722C9.6054 9.65024 9.59449 9.63387 9.59449 9.61206C9.59449 9.59024 9.6054 9.57387 9.62722 9.57387H9.94904ZM10.2218 8.99569H10.2872V9.03933H10.3363V8.99569H10.4072V9.04478H10.4563V8.99023H10.5218V9.09933C10.5218 9.12114 10.5109 9.13205 10.4945 9.13205H10.2545C10.2381 9.13205 10.2218 9.12114 10.2218 9.10478V8.99569ZM10.4727 9.14296L10.489 9.49206H10.2545L10.2709 9.13751H10.4727"
        fill="#FFFF00"
      />
      <path
        fill-rule="evenodd"
        clip-rule="evenodd"
        d="M10.4428 8.97656H10.5355V9.00946C10.5421 9.01937 10.5464 9.03189 10.5464 9.04474C10.5464 9.05557 10.5419 9.06555 10.5355 9.07325V9.09929C10.5355 9.11232 10.5322 9.12411 10.5246 9.13282C10.5168 9.14176 10.5059 9.14565 10.4946 9.14565H10.4865L10.5034 9.50566H10.2403L10.2569 9.14565H10.2546C10.2435 9.14565 10.2324 9.14202 10.2237 9.13528C10.2149 9.12843 10.2082 9.11789 10.2082 9.10474V9.09111H9.61094C9.58573 9.09111 9.56458 9.06725 9.56458 9.03929C9.56458 9.02667 9.57075 9.0152 9.5788 9.00715C9.58382 9.00213 9.59017 8.99784 9.5973 8.99532V8.98747H10.2082V8.98202H10.3009V8.98747H10.3228V8.98202H10.4209V8.98747H10.4428V8.97656ZM10.4428 9.01474H10.4209V9.03111H10.4428V9.01474ZM10.3937 9.01474V9.05838H10.47V9.01474H10.5C10.5017 9.01474 10.5047 9.01577 10.5082 9.01906V9.06128C10.5053 9.063 10.5024 9.06384 10.5 9.06384H10.2355V9.01474H10.2737V9.05293H10.35V9.01474H10.3937ZM10.3228 9.01474H10.3009V9.02565H10.3228V9.01474ZM10.2082 9.01474H9.62458V9.0202H9.61094C9.60719 9.0202 9.6023 9.02221 9.59808 9.02643C9.59386 9.03065 9.59185 9.03554 9.59185 9.03929C9.59185 9.05496 9.60342 9.06384 9.61094 9.06384H10.2082V9.01474ZM10.2355 9.09111V9.10474C10.2355 9.10796 10.237 9.11106 10.2405 9.11375C10.2441 9.11656 10.2493 9.11838 10.2546 9.11838H10.4946C10.4996 9.11838 10.5024 9.11682 10.5041 9.11486C10.506 9.11265 10.5082 9.10808 10.5082 9.09929V9.09025C10.5056 9.09081 10.5028 9.09111 10.5 9.09111H10.2355ZM10.284 9.15111L10.2689 9.47838H10.4748L10.4595 9.15111H10.284ZM10.0582 9.25042L10.0528 9.26293L10.0478 9.25023L10.053 9.24818L10.0582 9.25042ZM10.0525 9.27806C10.0495 9.27958 10.0454 9.28184 10.0404 9.28495C10.0295 9.29182 10.0149 9.3028 10.0002 9.31911C9.97252 9.34975 9.94416 9.3998 9.94119 9.47838H10.1643C10.1613 9.40243 10.133 9.35241 10.1053 9.32105C10.0905 9.30436 10.0758 9.29283 10.0648 9.28552C10.0598 9.28217 10.0555 9.27972 10.0525 9.27806ZM10.0478 9.25023C10.0478 9.25023 10.0478 9.25023 10.0528 9.26293C10.0582 9.25042 10.0582 9.25042 10.0582 9.25042L10.0583 9.25046L10.0584 9.25051L10.0588 9.25069C10.0591 9.25083 10.0595 9.25103 10.0601 9.25129C10.0612 9.25182 10.0627 9.25257 10.0646 9.25358C10.0684 9.2556 10.0736 9.25864 10.0799 9.26283C10.0925 9.2712 10.1091 9.28422 10.1257 9.30298C10.1591 9.3407 10.1919 9.40112 10.1919 9.49202V9.50566H9.91367V9.49202C9.91367 9.3985 9.94638 9.33801 9.97991 9.30084C9.99656 9.28237 10.0133 9.26984 10.0259 9.26188C10.0322 9.25789 10.0375 9.25504 10.0413 9.25316C10.0432 9.25222 10.0448 9.25152 10.0459 9.25104C10.0464 9.2508 10.0469 9.25061 10.0472 9.25048L10.0476 9.25031L10.0477 9.25026L10.0478 9.25023ZM9.6134 9.59327C9.61044 9.59698 9.60821 9.60319 9.60821 9.61202C9.60821 9.62085 9.61044 9.62706 9.6134 9.63077C9.61605 9.63408 9.62016 9.63657 9.6273 9.63657H10.4728C10.4803 9.63657 10.4919 9.62769 10.4919 9.61202C10.4919 9.59635 10.4803 9.58747 10.4728 9.58747H9.6273C9.62016 9.58747 9.61605 9.58996 9.6134 9.59327ZM9.59211 9.57623C9.60038 9.56589 9.61263 9.5602 9.6273 9.5602H10.4728C10.498 9.5602 10.5191 9.58406 10.5191 9.61202C10.5191 9.63998 10.498 9.66384 10.4728 9.66384H9.6273C9.61263 9.66384 9.60038 9.65815 9.59211 9.64781C9.58417 9.63789 9.58094 9.62501 9.58094 9.61202C9.58094 9.59903 9.58417 9.58615 9.59211 9.57623Z"
        fill="black"
      />
      <path d="M9.87272 8.81543V9.00088H9.65454V8.81543H9.87272Z" fill="#FFFF00" />
      <path
        fill-rule="evenodd"
        clip-rule="evenodd"
        d="M9.64099 8.80176H9.88645V9.01449H9.64099V8.80176ZM9.66826 8.82903V8.98721H9.85917V8.82903H9.66826Z"
        fill="black"
      />
      <path
        d="M9.61633 8.67383H9.68179V8.72837H9.73088V8.67383H9.79633V8.72837H9.84542V8.67383H9.91088V8.78292C9.91088 8.80474 9.89997 8.81565 9.88361 8.81565H9.64906C9.64038 8.81565 9.63206 8.8122 9.62592 8.80606C9.61978 8.79992 9.61633 8.7916 9.61633 8.78292V8.67383V8.67383Z"
        fill="#FFFF00"
      />
      <path
        fill-rule="evenodd"
        clip-rule="evenodd"
        d="M9.62993 8.68743V8.78288C9.62993 8.78795 9.63195 8.7928 9.63553 8.79638C9.63911 8.79996 9.64396 8.80198 9.64902 8.80198H9.88357C9.88858 8.80198 9.89136 8.80042 9.89308 8.79845C9.89501 8.79625 9.89721 8.79167 9.89721 8.78288V8.68743H9.85903V8.74197H9.78266V8.68743H9.74448V8.74197H9.66812V8.68743H9.62993ZM9.6163 8.67379V8.66016H9.69539V8.7147H9.71721V8.66016H9.80994V8.7147H9.83175V8.66016H9.92448V8.78288C9.92448 8.79592 9.92122 8.80771 9.91361 8.81641C9.90578 8.82535 9.89492 8.82925 9.88357 8.82925H9.64902C9.63673 8.82925 9.62494 8.82436 9.61624 8.81567C9.60755 8.80697 9.60266 8.79518 9.60266 8.78288V8.67379H9.6163Z"
        fill="black"
      />
      <path d="M10.0309 8.76087C10.0309 8.72815 10.08 8.72815 10.08 8.76087V8.84815H10.0309V8.76087Z" fill="black" />
      <path d="M9.74182 8.88099C9.74182 8.84826 9.78546 8.84826 9.78546 8.88099V8.94645H9.74182V8.88099Z" fill="black" />
      <path
        d="M12.1419 12.1321C12.1409 12.2472 12.1838 12.3584 12.2619 12.443C12.2983 12.4837 12.3428 12.5164 12.3926 12.5389C12.4424 12.5615 12.4963 12.5734 12.551 12.5739C12.6655 12.5739 12.7691 12.5193 12.84 12.443C12.9181 12.3584 12.961 12.2472 12.96 12.1321V11.543H12.1419V12.1321Z"
        fill="#003399"
      />
      <path
        d="M12.3328 11.8482C12.378 11.8482 12.4146 11.8116 12.4146 11.7664C12.4146 11.7212 12.378 11.6846 12.3328 11.6846C12.2876 11.6846 12.251 11.7212 12.251 11.7664C12.251 11.8116 12.2876 11.8482 12.3328 11.8482Z"
        fill="white"
      />
      <path
        d="M12.7856 11.8482C12.8307 11.8482 12.8674 11.8116 12.8674 11.7664C12.8674 11.7212 12.8307 11.6846 12.7856 11.6846C12.7404 11.6846 12.7037 11.7212 12.7037 11.7664C12.7037 11.8116 12.7404 11.8482 12.7856 11.8482Z"
        fill="white"
      />
      <path
        d="M12.5564 12.067C12.6016 12.067 12.6382 12.0303 12.6382 11.9851C12.6382 11.94 12.6016 11.9033 12.5564 11.9033C12.5112 11.9033 12.4746 11.94 12.4746 11.9851C12.4746 12.0303 12.5112 12.067 12.5564 12.067Z"
        fill="white"
      />
      <path
        d="M12.3328 12.2955C12.378 12.2955 12.4146 12.2588 12.4146 12.2137C12.4146 12.1685 12.378 12.1318 12.3328 12.1318C12.2876 12.1318 12.251 12.1685 12.251 12.2137C12.251 12.2588 12.2876 12.2955 12.3328 12.2955Z"
        fill="white"
      />
      <path
        d="M12.7856 12.2955C12.8307 12.2955 12.8674 12.2588 12.8674 12.2137C12.8674 12.1685 12.8307 12.1318 12.7856 12.1318C12.7404 12.1318 12.7037 12.1685 12.7037 12.2137C12.7037 12.2588 12.7404 12.2955 12.7856 12.2955Z"
        fill="white"
      />
    </g>
  </g>
  <defs>
    <clipPath id="clip0_463_48003">
      <rect width="31.6364" height="24" fill="white" />
    </clipPath>
    <clipPath id="clip1_463_48003">
      <rect width="32.7273" height="24.5455" fill="white" transform="translate(-0.54541 -0.272461)" />
    </clipPath>
  </defs>
</svg>
