<svg
  width="32"
  height="24"
  viewBox="0 0 32 24"
  fill="none"
  xmlns="http://www.w3.org/2000/svg"
>
  <g clip-path="url(#clip0_463_47996)">
    <g clip-path="url(#clip1_463_47996)">
      <path
        d="M-0.54541 -0.272461H32.1819V24.273H-0.54541V-0.272461Z"
        fill="#012169"
      />
      <path
        d="M3.28983 -0.272461L15.7671 8.98324L28.1933 -0.272461H32.1819V2.898L19.9092 12.0514L32.1819 21.1537V24.273H28.091L15.8183 15.1196L3.59664 24.273H-0.54541V21.2049L11.6762 12.1026L-0.54541 3.00027V-0.272461H3.28983Z"
        fill="white"
      />
      <path
        d="M21.1365 14.0969L32.1819 22.2276V24.273L18.3239 14.0969H21.1365ZM11.7273 15.1196L12.0342 16.9094L2.21596 24.273H-0.54541L11.7273 15.1196ZM32.1819 -0.272461V-0.119052L19.449 9.49461L19.5512 7.2446L29.6251 -0.272461H32.1819ZM-0.54541 -0.272461L11.6762 8.72756H8.60802L-0.54541 1.87527V-0.272461Z"
        fill="#C8102E"
      />
      <path
        d="M11.7785 -0.272461V24.273H19.9603V-0.272461H11.7785ZM-0.54541 7.90937V16.0912H32.1819V7.90937H-0.54541Z"
        fill="white"
      />
      <path
        d="M-0.54541 9.59688V14.506H32.1819V9.59688H-0.54541ZM13.4148 -0.272461V24.273H18.3239V-0.272461H13.4148Z"
        fill="#C8102E"
      />
    </g>
  </g>
  <defs>
    <clipPath id="clip0_463_47996">
      <rect width="31.6364" height="24" fill="white" />
    </clipPath>
    <clipPath id="clip1_463_47996">
      <rect
        width="32.7273"
        height="24.5455"
        fill="white"
        transform="translate(-0.54541 -0.272461)"
      />
    </clipPath>
  </defs>
</svg>
