<svg width="25" height="24" viewBox="0 0 25 24" fill="none" xmlns="http://www.w3.org/2000/svg">
  <path
    d="M17.5244 10.58C17.0046 9.5081 15.8693 8.87642 14.6844 9H10.7644C8.83445 8.89 8.06445 10 7.94445 10.53C7.94445 10.53 6.64445 14.68 6.87445 15.65C7.00445 16.24 8.04445 16.97 9.14445 17.52V22H16.6044V17.37C17.6044 16.85 18.4544 16.2 18.6044 15.66C18.8444 14.68 17.5244 10.58 17.5244 10.58ZM10.8344 12.55C11.6342 12.5604 12.283 13.2005 12.3044 14C12.4716 13.8805 12.6578 13.7911 12.8548 13.7354L13.0044 13.7C13.173 13.6694 13.3458 13.6694 13.5144 13.7C14.5782 14.0233 15.6203 14.4141 16.6344 14.87C15.7938 15.7661 14.6128 16.264 13.3844 16.24H12.7044C11.7044 16.13 11.4344 15.76 11.4244 15.38C10.8785 15.6035 10.252 15.4791 9.83294 15.064C9.41387 14.6489 9.28349 14.0236 9.50178 13.4756C9.72007 12.9276 10.2448 12.5632 10.8344 12.55ZM12.7644 2C14.4213 2 15.7644 3.34315 15.7644 5C15.7644 6.65685 14.4213 8 12.7644 8C11.1075 8 9.76445 6.65685 9.76445 5C9.76445 3.34315 11.1075 2 12.7644 2Z"
    fill="#FF6600"
  />
</svg>
