<svg
  width="24"
  height="24"
  viewBox="0 0 24 24"
  fill="none"
  xmlns="http://www.w3.org/2000/svg"
>
  <path
    d="M8.49418 5.88074L9.18887 6.16009C9.36255 6.21611 9.48399 6.36523 9.53622 6.53255L11.0505 11.4677C11.0851 11.5797 11.0329 11.6728 10.9461 11.7099L10.4773 11.8962C10.3904 11.9333 10.286 11.8773 10.2514 11.7842L9.01796 8.33887L9.43451 12.0635C9.45146 12.1937 9.34767 12.3239 9.20859 12.3239H9.15635V12.3428L8.96503 20.2577C8.96503 20.388 8.86055 20.5 8.73912 20.5H8.11361C7.99217 20.5 7.88769 20.388 7.88769 20.2577L7.71402 13.1068H7.29748L7.1238 20.2577C7.1238 20.388 7.01932 20.5 6.89789 20.5H6.27238C6.15094 20.5 6.04646 20.388 6.04646 20.2577L5.85514 12.3428V12.3239H5.80291C5.66383 12.3239 5.55935 12.2126 5.57699 12.0635L5.99353 8.33887L4.76016 11.7842C4.72557 11.8773 4.62108 11.9333 4.53425 11.8962L4.06546 11.7099C3.97863 11.6728 3.92639 11.5608 3.96099 11.4677L5.48946 6.53255C5.55866 6.36524 5.68078 6.2161 5.83681 6.16009L6.53151 5.88074C6.80967 6.08515 7.13937 6.19718 7.50437 6.19718C7.86867 6.19718 8.21602 6.08589 8.49418 5.88074Z"
    fill="#FF6600"
  />
  <path
    d="M7.45996 5.5C8.15032 5.5 8.70996 4.94036 8.70996 4.25C8.70996 3.55964 8.15032 3 7.45996 3C6.76961 3 6.20996 3.55964 6.20996 4.25C6.20996 4.94036 6.76961 5.5 7.45996 5.5Z"
    fill="#FF6600"
  />
  <path
    d="M17.4278 5.88074L18.0433 6.16189C18.1842 6.21827 18.2893 6.34933 18.3422 6.49943L20.0479 11.4292C20.0836 11.5229 20.0479 11.6349 19.9435 11.673L19.5217 11.8414C19.4337 11.8787 19.3279 11.8414 19.2929 11.7477L17.921 8.22371L18.0969 11.0352L19.3101 15.1962C19.363 15.3272 19.2572 15.4583 19.1342 15.4583H18.044L17.9382 20.2752C17.9382 20.4063 17.8503 20.5 17.7273 20.5H17.1296C17.0245 20.5 16.9188 20.4063 16.9188 20.2752L16.813 15.4583H16.1974L16.0916 20.2752C16.0916 20.4063 16.0037 20.5 15.8808 20.5H15.2831C15.178 20.5 15.0722 20.4063 15.0722 20.2752L14.9664 15.4583H13.8762C13.7532 15.4583 13.6653 15.3272 13.7003 15.1962L14.9135 11.0352L15.0894 8.22371L13.7175 11.7477C13.6825 11.8414 13.5767 11.8787 13.4887 11.8414L13.0669 11.673C12.979 11.6357 12.9261 11.5229 12.9611 11.4292L14.6669 6.49943C14.7198 6.34933 14.8249 6.21827 14.9657 6.16189L15.5991 5.88074C15.8629 6.04913 16.1796 6.14285 16.5135 6.14285C16.8473 6.14285 17.164 6.04914 17.4278 5.88074Z"
    fill="#FF6600"
  />
  <path
    d="M16.4702 5.5C17.1605 5.5 17.7202 4.94036 17.7202 4.25C17.7202 3.55964 17.1605 3 16.4702 3C15.7798 3 15.2202 3.55964 15.2202 4.25C15.2202 4.94036 15.7798 5.5 16.4702 5.5Z"
    fill="#FF6600"
  />
</svg>
