<svg
  width="24"
  height="24"
  viewBox="0 0 24 24"
  fill="none"
  xmlns="http://www.w3.org/2000/svg"
>
  <path
    d="M16.7598 10.58C16.24 9.5081 15.1047 8.87642 13.9198 9H9.9998C8.0698 8.89 7.2998 10 7.1798 10.53C7.1798 10.53 5.8798 14.68 6.1098 15.65C6.2398 16.24 7.2798 16.97 8.3798 17.52V22H15.8398V17.37C16.8398 16.85 17.6898 16.2 17.8398 15.66C18.0798 14.68 16.7598 10.58 16.7598 10.58ZM10.0698 12.55C10.8696 12.5604 11.5184 13.2005 11.5398 14C11.707 13.8805 11.8932 13.7911 12.0902 13.7354L12.2398 13.7C12.4084 13.6694 12.5812 13.6694 12.7498 13.7C13.8136 14.0233 14.8557 14.4141 15.8698 14.87C15.0292 15.7661 13.8482 16.264 12.6198 16.24H11.9398C10.9398 16.13 10.6698 15.76 10.6598 15.38C10.1139 15.6035 9.48735 15.4791 9.06829 15.064C8.64922 14.6489 8.51884 14.0236 8.73713 13.4756C8.95542 12.9276 9.48011 12.5632 10.0698 12.55ZM11.9998 2C13.6567 2 14.9998 3.34315 14.9998 5C14.9998 6.65685 13.6567 8 11.9998 8C10.3429 8 8.9998 6.65685 8.9998 5C8.9998 3.34315 10.3429 2 11.9998 2Z"
    fill="#FF6600"
  />
</svg>
