<svg width="25" height="24" viewBox="0 0 25 24" fill="none" xmlns="http://www.w3.org/2000/svg">
  <path
    d="M9.25883 5.88086L9.95352 6.16021C10.1272 6.21623 10.2486 6.36535 10.3009 6.53267L11.8151 11.4678C11.8497 11.5798 11.7975 11.6729 11.7107 11.71L11.2419 11.8963C11.155 11.9334 11.0506 11.8774 11.016 11.7843L9.78261 8.33899L10.1992 12.0636C10.2161 12.1938 10.1123 12.324 9.97324 12.324H9.921V12.3429L9.72968 20.2578C9.72968 20.3881 9.6252 20.5001 9.50377 20.5001H8.87826C8.75682 20.5001 8.65234 20.3881 8.65234 20.2578L8.47867 13.1069H8.06213L7.88845 20.2578C7.88845 20.3881 7.78397 20.5001 7.66254 20.5001H7.03703C6.91559 20.5001 6.81111 20.3881 6.81111 20.2578L6.61979 12.3429V12.324H6.56756C6.42848 12.324 6.324 12.2127 6.34164 12.0636L6.75818 8.33899L5.52481 11.7843C5.49022 11.8774 5.38573 11.9334 5.2989 11.8963L4.83011 11.71C4.74328 11.6729 4.69104 11.5609 4.72564 11.4678L6.25411 6.53267C6.32331 6.36536 6.44543 6.21622 6.60146 6.16021L7.29616 5.88086C7.57432 6.08527 7.90402 6.1973 8.26902 6.1973C8.63332 6.1973 8.98067 6.08601 9.25883 5.88086Z"
    fill="#FF6600"
  />
  <path
    d="M8.22461 5.5C8.91497 5.5 9.47461 4.94036 9.47461 4.25C9.47461 3.55964 8.91497 3 8.22461 3C7.53426 3 6.97461 3.55964 6.97461 4.25C6.97461 4.94036 7.53426 5.5 8.22461 5.5Z"
    fill="#FF6600"
  />
  <path
    d="M18.1925 5.88086L18.808 6.16201C18.9489 6.21839 19.054 6.34945 19.1069 6.49955L20.8126 11.4293C20.8483 11.523 20.8126 11.635 20.7082 11.6731L20.2864 11.8415C20.1984 11.8788 20.0926 11.8415 20.0576 11.7478L18.6857 8.22383L18.8616 11.0353L20.0748 15.1963C20.1277 15.3273 20.0219 15.4584 19.8989 15.4584H18.8087L18.7029 20.2753C18.7029 20.4064 18.615 20.5001 18.492 20.5001H17.8943C17.7892 20.5001 17.6835 20.4064 17.6835 20.2753L17.5777 15.4584H16.9621L16.8563 20.2753C16.8563 20.4064 16.7684 20.5001 16.6455 20.5001H16.0478C15.9427 20.5001 15.8369 20.4064 15.8369 20.2753L15.7311 15.4584H14.6409C14.5179 15.4584 14.43 15.3273 14.465 15.1963L15.6782 11.0353L15.8541 8.22383L14.4822 11.7478C14.4472 11.8415 14.3414 11.8788 14.2534 11.8415L13.8316 11.6731C13.7437 11.6358 13.6908 11.523 13.7258 11.4293L15.4316 6.49955C15.4845 6.34945 15.5896 6.21839 15.7304 6.16201L16.3638 5.88086C16.6276 6.04925 16.9443 6.14297 17.2782 6.14297C17.612 6.14297 17.9287 6.04926 18.1925 5.88086Z"
    fill="#FF6600"
  />
  <path
    d="M17.2349 5.5C17.9252 5.5 18.4849 4.94036 18.4849 4.25C18.4849 3.55964 17.9252 3 17.2349 3C16.5445 3 15.9849 3.55964 15.9849 4.25C15.9849 4.94036 16.5445 5.5 17.2349 5.5Z"
    fill="#FF6600"
  />
</svg>
