<svg width="25" height="24" viewBox="0 0 25 24" fill="none" xmlns="http://www.w3.org/2000/svg">
  <path
    d="M21.7646 16.2399C22.3169 16.2399 22.7646 16.6876 22.7646 17.2399C22.7646 17.7922 22.3169 18.2399 21.7646 18.2399H3.76465C3.21237 18.2399 2.76465 17.7922 2.76465 17.2399C2.76465 16.6876 3.21237 16.2399 3.76465 16.2399H21.7646ZM8.88409 3.83103C8.95592 3.76138 9.06235 3.74126 9.15465 3.77989L11.3146 4.62989C11.3551 4.64086 11.3904 4.66562 11.4146 4.69989L14.8246 8.89989C14.8728 8.96165 14.9463 8.99839 15.0246 8.99989L18.0846 8.89989C19.3661 8.78029 20.625 9.2958 21.4546 10.2799C21.7435 10.5734 21.8229 11.014 21.6546 11.3899C21.4346 11.8199 20.8646 12.0599 19.8646 12.0599L8.47465 12.2599C7.52583 12.2309 6.58757 12.0521 5.69465 11.7299L5.13465 11.5099C4.30465 11.1399 3.87465 10.7299 3.87465 10.2899C3.88185 10.0487 4.01458 9.8287 4.22465 9.7099C4.31307 9.6508 4.35664 9.5439 4.33465 9.4399L3.76465 7.39989C3.73451 7.32187 3.74538 7.23396 3.79361 7.16563C3.84184 7.0973 3.92105 7.05762 4.00465 7.05989H5.57465C5.6454 7.05259 5.71555 7.07843 5.76465 7.12989L7.70465 8.99989C7.74758 9.0625 7.81869 9.1 7.89465 9.0999L10.3146 9.0399C10.3982 9.0422 10.4775 9.0025 10.5257 8.93415C10.5739 8.86583 10.5848 8.77791 10.5546 8.69989L8.82465 4.09989C8.78888 4.00645 8.81226 3.90068 8.88409 3.83103Z"
    fill="#FF6600"
  />
</svg>
