<svg
  width="24"
  height="24"
  viewBox="0 0 24 24"
  fill="none"
  xmlns="http://www.w3.org/2000/svg"
>
  <path
    d="M20.8125 16.6399C21.3303 16.6399 21.75 17.0596 21.75 17.5774C21.75 18.0952 21.3303 18.5149 20.8125 18.5149H3.9375C3.41973 18.5149 3 18.0952 3 17.5774C3 17.0596 3.41973 16.6399 3.9375 16.6399H20.8125ZM8.08125 4.33989C8.41025 4.00918 8.9061 3.90927 9.3375 4.08677L11.3625 4.88364C11.5472 4.95962 11.7111 5.07853 11.8406 5.23052L14.775 8.78364H17.3156C18.8257 8.64853 20.3022 9.2829 21.2437 10.4711C21.7155 11.0312 21.8181 11.8148 21.5063 12.4774C20.9531 13.6211 19.4906 13.6211 19.0125 13.6211L8.325 13.8086H8.25C7.28969 13.7695 6.3411 13.583 5.4375 13.2555C5.2366 13.1879 5.03944 13.1097 4.84687 13.0211C3.70312 12.5149 3.10312 11.8493 3.10312 11.0336C3.11038 10.6911 3.23254 10.3609 3.45 10.0961L3.05625 8.59614C2.95747 8.24391 3.02747 7.86578 3.24579 7.57224C3.46411 7.2787 3.80611 7.10288 4.17188 7.09614H5.65313C5.97234 7.0835 6.28208 7.20603 6.50625 7.43364L8.08125 8.98052H9.075L7.8 5.63364C7.61782 5.18567 7.72953 4.6718 8.08125 4.33989ZM10.0969 6.43052L11.1656 9.243C11.3006 9.598 11.2551 9.9963 11.0437 10.3118C10.8347 10.627 10.4844 10.8197 10.1062 10.8274L7.82812 10.8836C7.50609 10.8966 7.19333 10.7742 6.96563 10.5461L5.39062 8.97114L5.1 8.98052L5.37188 10.0586C5.47598 10.4332 5.38434 10.835 5.12812 11.1274C5.27942 11.2262 5.43947 11.311 5.60625 11.3805L6.06562 11.568C6.7929 11.8372 7.5592 11.986 8.33437 12.0086L19.0219 11.8211C19.2889 11.8294 19.5553 11.7913 19.8094 11.7086L19.7625 11.6336L19.6302 11.4937C19.0385 10.9096 18.2153 10.6148 17.3813 10.6961L14.5125 10.7524C14.1524 10.7508 13.8106 10.5935 13.575 10.3211L10.5 6.57114L10.0969 6.43052Z"
    fill="#FF6600"
  />
</svg>
