<svg
  width="24"
  height="24"
  viewBox="0 0 24 24"
  fill="none"
  xmlns="http://www.w3.org/2000/svg"
>
  <path
    d="M21 16.2399C21.5523 16.2399 22 16.6876 22 17.2399C22 17.7922 21.5523 18.2399 21 18.2399H3C2.44772 18.2399 2 17.7922 2 17.2399C2 16.6876 2.44772 16.2399 3 16.2399H21ZM8.11944 3.83103C8.19127 3.76138 8.2977 3.74126 8.39 3.77989L10.55 4.62989C10.5905 4.64086 10.6258 4.66562 10.65 4.69989L14.06 8.89989C14.1082 8.96165 14.1817 8.99839 14.26 8.99989L17.32 8.89989C18.6015 8.78029 19.8604 9.2958 20.69 10.2799C20.9789 10.5734 21.0583 11.014 20.89 11.3899C20.67 11.8199 20.1 12.0599 19.1 12.0599L7.71 12.2599C6.76118 12.2309 5.82292 12.0521 4.93 11.7299L4.37 11.5099C3.54 11.1399 3.11 10.7299 3.11 10.2899C3.1172 10.0487 3.24993 9.8287 3.46 9.7099C3.54842 9.6508 3.59199 9.5439 3.57 9.4399L3 7.39989C2.96986 7.32187 2.98073 7.23396 3.02896 7.16563C3.07719 7.0973 3.1564 7.05762 3.24 7.05989H4.81C4.88075 7.05259 4.9509 7.07843 5 7.12989L6.94 8.99989C6.98293 9.0625 7.05404 9.1 7.13 9.0999L9.55 9.0399C9.6336 9.0422 9.71281 9.0025 9.76104 8.93415C9.80927 8.86583 9.82014 8.77791 9.79 8.69989L8.06 4.09989C8.02423 4.00645 8.04761 3.90068 8.11944 3.83103Z"
    fill="#FF6600"
  />
</svg>
