<svg width="25" height="24" viewBox="0 0 25 24" fill="none" xmlns="http://www.w3.org/2000/svg">
  <path
    d="M21.5771 16.6399C22.0949 16.6399 22.5146 17.0596 22.5146 17.5774C22.5146 18.0952 22.0949 18.5149 21.5771 18.5149H4.70215C4.18438 18.5149 3.76465 18.0952 3.76465 17.5774C3.76465 17.0596 4.18438 16.6399 4.70215 16.6399H21.5771ZM8.8459 4.33989C9.1749 4.00918 9.67075 3.90927 10.1021 4.08677L12.1271 4.88364C12.3118 4.95962 12.4757 5.07853 12.6052 5.23052L15.5396 8.78364H18.0802C19.5903 8.64853 21.0668 9.2829 22.0083 10.4711C22.4801 11.0312 22.5827 11.8148 22.2709 12.4774C21.7177 13.6211 20.2552 13.6211 19.7771 13.6211L9.08965 13.8086H9.01465C8.05434 13.7695 7.10575 13.583 6.20215 13.2555C6.00125 13.1879 5.80409 13.1097 5.61152 13.0211C4.46777 12.5149 3.86777 11.8493 3.86777 11.0336C3.87503 10.6911 3.99719 10.3609 4.21465 10.0961L3.8209 8.59614C3.72212 8.24391 3.79212 7.86578 4.01044 7.57224C4.22876 7.2787 4.57076 7.10288 4.93653 7.09614H6.41778C6.73699 7.0835 7.04673 7.20603 7.2709 7.43364L8.8459 8.98052H9.83965L8.56465 5.63364C8.38247 5.18567 8.49418 4.6718 8.8459 4.33989ZM10.8615 6.43052L11.9302 9.243C12.0652 9.598 12.0197 9.9963 11.8083 10.3118C11.5993 10.627 11.249 10.8197 10.8708 10.8274L8.59277 10.8836C8.27074 10.8966 7.95798 10.7742 7.73028 10.5461L6.15527 8.97114L5.86465 8.98052L6.13653 10.0586C6.24063 10.4332 6.14899 10.835 5.89277 11.1274C6.04407 11.2262 6.20412 11.311 6.3709 11.3805L6.83027 11.568C7.55755 11.8372 8.32385 11.986 9.09902 12.0086L19.7865 11.8211C20.0535 11.8294 20.3199 11.7913 20.574 11.7086L20.5271 11.6336L20.3948 11.4937C19.8031 10.9096 18.9799 10.6148 18.1459 10.6961L15.2771 10.7524C14.917 10.7508 14.5752 10.5935 14.3396 10.3211L11.2646 6.57114L10.8615 6.43052Z"
    fill="#FF6600"
  />
</svg>
