<svg
  width="24"
  height="24"
  viewBox="0 0 24 24"
  fill="none"
  xmlns="http://www.w3.org/2000/svg"
>
  <path
    d="M2.15393 10.2629C3.11367 4.82485 8.29777 1.19444 13.7336 2.1537C18.514 2.99374 22.0004 7.14799 22 12.0037C21.9954 12.5872 21.9419 13.1692 21.8401 13.7437C20.8785 19.1815 15.6932 22.8101 10.2577 21.8491C4.82213 20.888 1.19418 15.701 2.15393 10.2629ZM13.6237 2.7937C8.54729 1.90127 3.70842 5.29329 2.81371 10.3714C1.91901 15.4496 5.30701 20.2923 10.3825 21.1901C15.4579 22.0879 20.3003 18.7009 21.2004 13.6237C22.0959 8.54027 18.7044 3.69251 13.6237 2.7937ZM12.844 18.6437C13.0614 18.6222 13.2807 18.6531 13.4837 18.7337V19.0537L13.4136 18.9807C13.2884 18.869 13.1241 18.8084 12.954 18.8137C12.4442 18.8137 12.2643 19.2937 12.3242 19.8137C12.3842 20.3337 12.6741 20.6337 13.1439 20.6337C13.3129 20.5982 13.4667 20.5108 13.5837 20.3837V20.6537C13.4042 20.7613 13.2025 20.8263 12.9939 20.8437C12.7048 20.8984 12.406 20.8304 12.169 20.6559C11.932 20.4814 11.7782 20.2161 11.7445 19.9237C11.6948 19.6029 11.788 19.2764 11.9994 19.0302C12.2109 18.784 12.5195 18.6428 12.844 18.6437ZM10.2252 18.5837L11.3747 18.7837C11.3704 18.8236 11.3704 18.8638 11.3747 18.9037V19.0437C11.1502 18.967 10.9194 18.9101 10.685 18.8737L10.575 19.5337L10.8949 19.5837H11.2647C11.2611 19.627 11.2611 19.6704 11.2647 19.7137C11.2598 19.7569 11.2598 19.8005 11.2647 19.8437L10.8949 19.7537L10.585 19.7037L10.4551 20.4737C10.6866 20.5136 10.9202 20.5403 11.1548 20.5537C11.1502 20.5936 11.1502 20.6338 11.1548 20.6737C11.1498 20.7202 11.1498 20.7672 11.1548 20.8137L10.0053 20.6137L10.2252 18.5837ZM15.223 17.9837C15.2173 18.0269 15.2173 18.0706 15.223 18.1137C15.2389 18.1556 15.259 18.1958 15.2829 18.2337C15.0991 18.2727 14.9186 18.3262 14.7432 18.3937L15.4329 20.1437L15.213 20.2137L15.0031 20.3137L14.3334 18.5637C14.1334 18.6437 13.9635 18.7337 13.8236 18.8037V18.6837C13.804 18.6416 13.7806 18.6014 13.7536 18.5637L15.223 17.9837ZM8.60587 17.8637L10.0053 18.4737L9.94529 18.5837C9.94226 18.627 9.94226 18.6704 9.94529 18.7137C9.78536 18.6237 9.63542 18.5337 9.4555 18.4537L8.71583 20.1937L8.50592 20.0837L8.28601 20.0037L9.07567 18.2937C8.90001 18.2188 8.71972 18.1554 8.53591 18.1037L8.60587 17.9937V17.8637ZM16.4524 17.1337L16.5124 17.2537L16.6024 17.3537C16.3948 17.4642 16.1945 17.5878 16.0026 17.7237L16.3825 18.3137L16.6423 18.1337C16.7523 18.0537 16.8523 17.9637 16.9322 17.8937C16.9495 17.9339 16.9732 17.971 17.0022 18.0037C17.0109 18.0211 17.0209 18.0378 17.0322 18.0537C16.9204 18.1117 16.8134 18.1786 16.7123 18.2537L16.4524 18.4337L16.9022 19.0737C17.0952 18.936 17.2789 18.7857 17.452 18.6237C17.499 18.6759 17.557 18.7169 17.6219 18.7437C17.6461 18.779 17.6728 18.8124 17.7019 18.8437L16.7023 19.5137L15.5028 17.8137L16.4524 17.1337ZM6.82665 16.7269C7.13959 16.7269 7.4377 16.8603 7.64629 17.0937C7.90332 17.2626 8.06834 17.5404 8.09371 17.847C8.11909 18.1536 8.002 18.4548 7.77624 18.6637C7.56623 18.8909 7.27093 19.0201 6.9616 19.0201C6.65226 19.0201 6.35696 18.8909 6.14695 18.6637C5.88854 18.4965 5.72153 18.2195 5.6942 17.9129C5.66686 17.6062 5.78226 17.304 6.00701 17.0937C6.2156 16.8603 6.51372 16.7269 6.82665 16.7269ZM7.50636 17.2237C7.1865 16.9437 6.78667 17.0237 6.33687 17.5337C6.07698 17.7937 5.92705 18.2137 6.2769 18.5337C6.62674 18.8537 7.09654 18.6337 7.43639 18.2537C7.73478 17.986 7.7658 17.5293 7.50636 17.2237ZM18.0138 15.7438C18.2696 15.7285 18.5197 15.8231 18.7014 16.0037C18.948 16.1658 19.1104 16.4287 19.1451 16.7218C19.1798 17.0149 19.0833 17.3084 18.8814 17.5237L18.3416 18.2037L16.7123 16.9037L17.362 16.0837C17.521 15.8827 17.7581 15.7591 18.0138 15.7438ZM18.3816 16.3637C17.9318 16.0037 17.5819 16.0837 17.3221 16.4237L17.1321 16.6537L18.4915 17.7337L18.6515 17.5237C18.9114 17.1937 18.8314 16.7237 18.3816 16.3637ZM5.84708 14.7937L6.17694 15.3637C6.27372 15.5021 6.3417 15.6585 6.37685 15.8237C6.39601 16.0113 6.29626 16.1909 6.12696 16.2737C5.88063 16.4331 5.55212 16.3665 5.38729 16.1237C5.21736 16.4137 5.06743 16.7237 4.91749 17.0237L4.80754 17.2237C4.76756 17.1437 4.68759 17.0637 4.68759 16.9737L4.52766 16.7437L4.8975 16.1037L5.09741 15.7637L4.24779 16.2637L4.13783 16.0537C4.10148 15.9859 4.05791 15.9222 4.00789 15.8637L5.84708 14.7937ZM9.0057 5.3337L10.545 5.6237C9.20811 7.70812 9.51246 10.4443 11.2747 12.1837C12.4703 13.3787 14.1276 13.9922 15.8127 13.8637L15.273 16.8837L7.16651 15.4537L9.0057 5.3337ZM5.93704 15.2837L5.22736 15.6937C5.26653 15.8068 5.35548 15.8957 5.46862 15.9347C5.58176 15.9738 5.70655 15.9586 5.8071 15.8937C5.85334 15.8644 5.89683 15.8309 5.93704 15.7937C6.16694 15.6237 6.027 15.4437 5.93704 15.2837ZM13.9735 14.4037L13.8036 15.4037L15.163 15.6437L15.233 15.4437L14.2334 15.2737L14.3733 14.4737L13.9735 14.4037ZM12.794 14.2037C12.5804 14.1531 12.3579 14.1531 12.1443 14.2037C11.9606 14.2326 11.8136 14.3718 11.7745 14.5537C11.7488 14.7372 11.8407 14.9171 12.0044 15.0037C12.1721 15.1163 12.3638 15.1882 12.5641 15.2137C12.7777 15.2647 13.0003 15.2647 13.2139 15.2137V15.2337C13.4142 15.2188 13.5829 15.0782 13.6337 14.8837C13.6571 14.7005 13.5711 14.5205 13.4138 14.4237C13.2256 14.3063 13.0141 14.2312 12.794 14.2037ZM12.3142 14.3737C12.4451 14.3375 12.5833 14.3375 12.7141 14.3737C12.8493 14.3782 12.9806 14.4197 13.0939 14.4937C13.1725 14.5638 13.2069 14.671 13.1839 14.7737C13.1678 14.8764 13.0997 14.9634 13.0039 15.0037C12.7397 15.0891 12.4507 15.0446 12.2243 14.8837C12.1475 14.8125 12.1134 14.7063 12.1343 14.6037C12.1441 14.4984 12.2144 14.4085 12.3142 14.3737ZM10.0153 13.7537V13.9337L10.595 14.0337L10.4551 14.8337L10.8649 14.9137L11.0048 14.1037L11.6245 14.2137L11.5846 14.0337L10.0153 13.7537ZM8.86576 13.5437L8.00614 14.3937L8.42595 14.4737L8.58588 14.2937L9.30557 14.4237L9.39553 14.6437L9.83533 14.7237L9.31556 13.6237L8.86576 13.5437ZM5.3473 13.1637L5.54722 13.8937C5.65717 14.3037 5.55721 14.5637 5.21736 14.6637C4.68759 14.8037 4.47768 14.4437 4.31775 13.9137L3.42815 14.1637C3.43377 14.0871 3.43377 14.0103 3.42815 13.9337C3.40754 13.8583 3.3808 13.7847 3.34818 13.7137L5.3473 13.1637ZM5.30732 13.6637L4.4477 13.8937C4.4666 13.9586 4.48998 14.0221 4.51767 14.0837C4.61612 14.2424 4.8153 14.306 4.98746 14.2337C5.22736 14.1737 5.30732 14.0037 5.30732 13.8537V13.6637ZM14.1634 6.2537L17.0722 6.7637L15.8927 13.3837C14.4191 13.2828 13.1116 12.4019 12.4642 11.0737C10.8849 7.9337 14.1634 6.2537 14.1634 6.2537Z"
    fill="#FF6600"
  />
</svg>
