<svg width="25" height="24" viewBox="0 0 25 24" fill="none" xmlns="http://www.w3.org/2000/svg">
  <path
    d="M2.91858 10.2629C3.87832 4.82485 9.06242 1.19444 14.4982 2.1537C19.2786 2.99374 22.765 7.14799 22.7646 12.0037C22.76 12.5872 22.7065 13.1692 22.6047 13.7437C21.6431 19.1815 16.4578 22.8101 11.0223 21.8491C5.58678 20.888 1.95883 15.701 2.91858 10.2629ZM14.3883 2.7937C9.31194 1.90127 4.47307 5.29329 3.57836 10.3714C2.68366 15.4496 6.07166 20.2923 11.1471 21.1901C16.2225 22.0879 21.0649 18.7009 21.965 13.6237C22.8605 8.54027 19.469 3.69251 14.3883 2.7937ZM13.6086 18.6437C13.826 18.6222 14.0453 18.6531 14.2483 18.7337V19.0537L14.1782 18.9807C14.053 18.869 13.8887 18.8084 13.7186 18.8137C13.2088 18.8137 13.0289 19.2937 13.0888 19.8137C13.1488 20.3337 13.4387 20.6337 13.9085 20.6337C14.0775 20.5982 14.2313 20.5108 14.3483 20.3837V20.6537C14.1688 20.7613 13.9671 20.8263 13.7585 20.8437C13.4694 20.8984 13.1706 20.8304 12.9336 20.6559C12.6966 20.4814 12.5428 20.2161 12.5091 19.9237C12.4594 19.6029 12.5526 19.2764 12.764 19.0302C12.9755 18.784 13.2841 18.6428 13.6086 18.6437ZM10.9898 18.5837L12.1393 18.7837C12.135 18.8236 12.135 18.8638 12.1393 18.9037V19.0437C11.9148 18.967 11.684 18.9101 11.4496 18.8737L11.3396 19.5337L11.6595 19.5837H12.0293C12.0257 19.627 12.0257 19.6704 12.0293 19.7137C12.0244 19.7569 12.0244 19.8005 12.0293 19.8437L11.6595 19.7537L11.3496 19.7037L11.2197 20.4737C11.4512 20.5136 11.6848 20.5403 11.9194 20.5537C11.9148 20.5936 11.9148 20.6338 11.9194 20.6737C11.9144 20.7202 11.9144 20.7672 11.9194 20.8137L10.7699 20.6137L10.9898 18.5837ZM15.9876 17.9837C15.9819 18.0269 15.9819 18.0706 15.9876 18.1137C16.0035 18.1556 16.0236 18.1958 16.0475 18.2337C15.8637 18.2727 15.6832 18.3262 15.5078 18.3937L16.1975 20.1437L15.9776 20.2137L15.7677 20.3137L15.098 18.5637C14.898 18.6437 14.7281 18.7337 14.5882 18.8037V18.6837C14.5686 18.6416 14.5452 18.6014 14.5182 18.5637L15.9876 17.9837ZM9.37052 17.8637L10.7699 18.4737L10.7099 18.5837C10.7069 18.627 10.7069 18.6704 10.7099 18.7137C10.55 18.6237 10.4001 18.5337 10.2201 18.4537L9.48048 20.1937L9.27057 20.0837L9.05066 20.0037L9.84032 18.2937C9.66466 18.2188 9.48437 18.1554 9.30056 18.1037L9.37052 17.9937V17.8637ZM17.217 17.1337L17.277 17.2537L17.367 17.3537C17.1594 17.4642 16.9591 17.5878 16.7672 17.7237L17.1471 18.3137L17.4069 18.1337C17.5169 18.0537 17.6169 17.9637 17.6968 17.8937C17.7141 17.9339 17.7378 17.971 17.7668 18.0037C17.7755 18.0211 17.7855 18.0378 17.7968 18.0537C17.685 18.1117 17.578 18.1786 17.4769 18.2537L17.217 18.4337L17.6668 19.0737C17.8598 18.936 18.0435 18.7857 18.2166 18.6237C18.2636 18.6759 18.3216 18.7169 18.3865 18.7437C18.4107 18.779 18.4374 18.8124 18.4665 18.8437L17.4669 19.5137L16.2674 17.8137L17.217 17.1337ZM7.5913 16.7269C7.90424 16.7269 8.20235 16.8603 8.41094 17.0937C8.66797 17.2626 8.83299 17.5404 8.85836 17.847C8.88374 18.1536 8.76665 18.4548 8.54089 18.6637C8.33088 18.8909 8.03558 19.0201 7.72625 19.0201C7.41691 19.0201 7.12161 18.8909 6.9116 18.6637C6.65319 18.4965 6.48618 18.2195 6.45885 17.9129C6.43151 17.6062 6.54691 17.304 6.77166 17.0937C6.98025 16.8603 7.27837 16.7269 7.5913 16.7269ZM8.27101 17.2237C7.95115 16.9437 7.55132 17.0237 7.10152 17.5337C6.84163 17.7937 6.6917 18.2137 7.04155 18.5337C7.39139 18.8537 7.86119 18.6337 8.20104 18.2537C8.49943 17.986 8.53045 17.5293 8.27101 17.2237ZM18.7784 15.7438C19.0342 15.7285 19.2843 15.8231 19.466 16.0037C19.7126 16.1658 19.875 16.4287 19.9097 16.7218C19.9444 17.0149 19.8479 17.3084 19.646 17.5237L19.1062 18.2037L17.4769 16.9037L18.1266 16.0837C18.2856 15.8827 18.5227 15.7591 18.7784 15.7438ZM19.1462 16.3637C18.6964 16.0037 18.3465 16.0837 18.0867 16.4237L17.8967 16.6537L19.2561 17.7337L19.4161 17.5237C19.676 17.1937 19.596 16.7237 19.1462 16.3637ZM6.61173 14.7937L6.94159 15.3637C7.03837 15.5021 7.10635 15.6585 7.1415 15.8237C7.16066 16.0113 7.06091 16.1909 6.89161 16.2737C6.64528 16.4331 6.31677 16.3665 6.15194 16.1237C5.98201 16.4137 5.83208 16.7237 5.68214 17.0237L5.57219 17.2237C5.53221 17.1437 5.45224 17.0637 5.45224 16.9737L5.29231 16.7437L5.66215 16.1037L5.86206 15.7637L5.01244 16.2637L4.90248 16.0537C4.86613 15.9859 4.82256 15.9222 4.77254 15.8637L6.61173 14.7937ZM9.77035 5.3337L11.3096 5.6237C9.97276 7.70812 10.2771 10.4443 12.0393 12.1837C13.2349 13.3787 14.8922 13.9922 16.5773 13.8637L16.0376 16.8837L7.93116 15.4537L9.77035 5.3337ZM6.70169 15.2837L5.99201 15.6937C6.03118 15.8068 6.12013 15.8957 6.23327 15.9347C6.34641 15.9738 6.4712 15.9586 6.57175 15.8937C6.61799 15.8644 6.66148 15.8309 6.70169 15.7937C6.93159 15.6237 6.79165 15.4437 6.70169 15.2837ZM14.7381 14.4037L14.5682 15.4037L15.9276 15.6437L15.9976 15.4437L14.998 15.2737L15.1379 14.4737L14.7381 14.4037ZM13.5586 14.2037C13.345 14.1531 13.1225 14.1531 12.9089 14.2037C12.7252 14.2326 12.5782 14.3718 12.5391 14.5537C12.5134 14.7372 12.6053 14.9171 12.769 15.0037C12.9367 15.1163 13.1284 15.1882 13.3287 15.2137C13.5423 15.2647 13.7649 15.2647 13.9785 15.2137V15.2337C14.1788 15.2188 14.3475 15.0782 14.3983 14.8837C14.4217 14.7005 14.3357 14.5205 14.1784 14.4237C13.9902 14.3063 13.7787 14.2312 13.5586 14.2037ZM13.0788 14.3737C13.2097 14.3375 13.3479 14.3375 13.4787 14.3737C13.6139 14.3782 13.7452 14.4197 13.8585 14.4937C13.9371 14.5638 13.9715 14.671 13.9485 14.7737C13.9324 14.8764 13.8643 14.9634 13.7685 15.0037C13.5043 15.0891 13.2153 15.0446 12.9889 14.8837C12.9121 14.8125 12.878 14.7063 12.8989 14.6037C12.9087 14.4984 12.979 14.4085 13.0788 14.3737ZM10.7799 13.7537V13.9337L11.3596 14.0337L11.2197 14.8337L11.6295 14.9137L11.7694 14.1037L12.3891 14.2137L12.3492 14.0337L10.7799 13.7537ZM9.63041 13.5437L8.77079 14.3937L9.1906 14.4737L9.35053 14.2937L10.0702 14.4237L10.1602 14.6437L10.6 14.7237L10.0802 13.6237L9.63041 13.5437ZM6.11195 13.1637L6.31187 13.8937C6.42182 14.3037 6.32186 14.5637 5.98201 14.6637C5.45224 14.8037 5.24233 14.4437 5.0824 13.9137L4.1928 14.1637C4.19842 14.0871 4.19842 14.0103 4.1928 13.9337C4.17219 13.8583 4.14545 13.7847 4.11283 13.7137L6.11195 13.1637ZM6.07197 13.6637L5.21235 13.8937C5.23125 13.9586 5.25463 14.0221 5.28232 14.0837C5.38077 14.2424 5.57995 14.306 5.75211 14.2337C5.99201 14.1737 6.07197 14.0037 6.07197 13.8537V13.6637ZM14.928 6.2537L17.8368 6.7637L16.6573 13.3837C15.1837 13.2828 13.8762 12.4019 13.2288 11.0737C11.6495 7.9337 14.928 6.2537 14.928 6.2537Z"
    fill="#FF6600"
  />
</svg>
