<svg width="25" height="24" viewBox="0 0 25 24" fill="none" xmlns="http://www.w3.org/2000/svg">
  <path
    d="M7.46591 2.02269C8.47807 2.04586 9.46661 3.34977 9.87586 4.50009C10.0654 5.00962 10.1643 5.54787 10.1671 6.09101C10.1674 7.68701 9.70154 8.25506 9.21576 8.75945L9.06222 8.91774C9.01116 8.97055 8.96041 9.0238 8.91047 9.0786C8.47481 9.5561 8.09699 10.0916 8.107 10.9448C8.13847 13.7062 8.92001 17.6627 8.44687 20.883C8.32152 21.7366 7.97378 22.0105 7.46607 22.0105C6.95881 22.011 6.61062 21.7366 6.4853 20.883C6.01141 17.6626 6.7934 13.7058 6.8254 10.9448C6.83549 10.0917 6.45768 9.5562 6.02198 9.0786C5.97201 9.0238 5.92122 8.97052 5.87014 8.9177L5.71651 8.75937C5.2305 8.25496 4.76465 7.6875 4.76465 6.09118C4.76739 5.54793 4.8663 5.00968 5.0559 4.50015C5.4651 3.35082 6.45368 2.04594 7.46591 2.02269ZM18.4785 2C18.6713 2 18.8307 2.15953 18.8425 2.36415L19.1512 7.73213C19.1512 8.5637 18.7347 9.2917 18.1115 9.6932C17.7062 9.9544 17.4799 10.4433 17.5322 10.9444C17.8839 14.3169 18.1229 19.8228 18.1229 20.4226C18.1229 21.2937 17.6187 22 16.9969 22C16.3751 22 15.871 21.2938 15.871 20.4226C15.871 20.013 15.9824 17.3152 16.1651 14.5714L16.2053 13.9836C16.281 12.9076 16.3673 11.8492 16.4616 10.9444C16.5139 10.443 16.2878 9.9545 15.8823 9.6932C15.2591 9.2917 14.8427 8.56375 14.8427 7.73218L15.1515 2.36415C15.1632 2.15953 15.3226 2 15.5154 2C15.7237 2 15.8899 2.18566 15.8796 2.40709L15.6788 6.71227C15.6788 6.95418 15.8633 7.15041 16.0907 7.15041C16.3182 7.15041 16.5026 6.95428 16.5026 6.71227L16.6029 2.40887C16.6083 2.18149 16.783 2 16.997 2C17.2109 2 17.3857 2.18144 17.391 2.40887L17.4913 6.71227C17.4913 6.95418 17.6757 7.15041 17.9032 7.15041C18.1306 7.15041 18.3151 6.95428 18.3151 6.71227L18.1144 2.40709C18.104 2.18576 18.2701 2 18.4785 2ZM13.211 2.01174C13.2971 2.04257 13.355 2.12835 13.355 2.22485V12.2275C13.4203 12.9443 13.4806 13.7246 13.535 14.5106L13.5746 15.1003C13.7415 17.6523 13.8427 20.1117 13.8427 20.4932C13.8427 21.3254 13.3611 22 12.7672 22C12.1732 22 11.6917 21.3254 11.6917 20.4932C11.6917 20.1264 11.7852 17.8388 11.9407 15.3948L11.9792 14.8062C12.0387 13.9214 12.1059 13.0347 12.1793 12.2283H11.8814C11.4868 12.2283 11.167 11.888 11.167 11.4684V7.8091C11.167 5.74363 11.802 3.73482 12.9753 2.08897C13.0302 2.01208 13.1251 1.98096 13.211 2.01174Z"
    fill="#FF6600"
  />
</svg>
