<svg width="25" height="24" viewBox="0 0 25 24" fill="none" xmlns="http://www.w3.org/2000/svg">
  <path
    d="M19.9808 11.033H6.15717C5.66263 11.033 5.26165 11.4258 5.26165 11.9104V14.8276C5.25325 16.7201 6.06731 18.5267 7.50036 19.7956H16.6675C17.3978 19.1511 17.9747 18.3575 18.3577 17.4706H19.992C21.2115 17.5404 22.3699 16.9426 23.0011 15.9179C23.6324 14.8933 23.6324 13.6104 23.0011 12.5857C22.3699 11.561 21.2115 10.9632 19.992 11.033H19.9808ZM20.5405 19.8066C21.1587 19.8066 21.6597 20.2976 21.6597 20.9033C21.6597 21.509 21.1587 22 20.5405 22H3.59393C2.97575 22 2.47461 21.509 2.47461 20.9033C2.47461 20.2976 2.97575 19.8066 3.59393 19.8066H20.5405ZM20.9818 13.706C21.1945 14.04 21.1945 14.4636 20.9818 14.7977C20.769 15.1317 20.3806 15.3178 19.9808 15.2772H18.8615V13.2264H19.9808C20.3806 13.1858 20.769 13.3719 20.9818 13.706ZM7.81377 2.36908C8.48536 1.46978 9.97405 2.39101 9.34724 3.24644C8.72042 4.10186 9.16814 4.68311 9.51513 5.5495C9.85139 6.28119 9.90314 7.10805 9.66065 7.87451C9.29127 8.93831 7.55632 8.43382 7.90331 7.45776C8.2503 6.4817 7.56752 5.79078 7.33246 4.88052C7.07411 4.01611 7.25298 3.08278 7.81377 2.36908ZM14.2722 2.36908C14.9438 1.46978 16.4437 2.39101 15.8057 3.24644C15.1676 4.10186 15.6266 4.68311 15.9736 5.5495C16.2862 6.28856 16.3219 7.11215 16.0743 7.87451C15.6937 8.93831 14.0036 8.43382 14.3505 7.45776C14.6975 6.4817 14.0259 5.79078 13.7797 4.88052C13.5207 4.01455 13.7041 3.07934 14.2722 2.36908ZM11.0597 2.36908C11.7313 1.46978 13.2424 2.39101 12.6044 3.24644C11.9664 4.10186 12.4141 4.68311 12.7611 5.5495C13.0863 6.28525 13.1262 7.11203 12.873 7.87451C12.4925 8.93831 10.8583 8.38996 11.2053 7.41389C11.5522 6.43783 10.8695 5.74691 10.6344 4.83665C10.3753 3.99417 10.5327 3.08146 11.0597 2.36908Z"
    fill="#FF6600"
  />
</svg>
