<svg
  width="24"
  height="24"
  viewBox="0 0 24 24"
  fill="none"
  xmlns="http://www.w3.org/2000/svg"
>
  <path
    d="M16.3527 2.10192C16.5454 2.10192 16.7049 2.26145 16.7167 2.46606L17.0253 7.83405C17.0253 8.66562 16.6088 9.3936 15.9857 9.7951C15.5803 10.0563 15.354 10.5452 15.4063 11.0463C15.4835 11.7866 15.5553 12.6297 15.6203 13.5011L15.6627 14.0855C15.8691 17.02 15.997 20.0856 15.997 20.5245C15.997 21.3956 15.4929 22.1019 14.8711 22.1019C14.2492 22.1019 13.7451 21.3957 13.7451 20.5245C13.7451 20.1295 13.8487 17.6069 14.0199 14.967L14.0795 14.0855L14.1218 13.5011C14.1868 12.6297 14.2586 11.7866 14.3358 11.0463C14.3881 10.545 14.162 10.0564 13.7564 9.7952C13.1333 9.3936 12.7168 8.66567 12.7168 7.8341L13.0256 2.46606C13.0374 2.26145 13.1968 2.10192 13.3895 2.10192C13.5979 2.10192 13.764 2.28757 13.7537 2.50901L13.553 6.81418C13.553 7.0561 13.7374 7.25233 13.9649 7.25233C14.1923 7.25233 14.3768 7.0562 14.3768 6.81418L14.4771 2.51079C14.4824 2.28341 14.6572 2.10192 14.8711 2.10192C15.085 2.10192 15.2598 2.28335 15.2651 2.51079L15.3654 6.81418C15.3654 7.0561 15.5499 7.25233 15.7773 7.25233C16.0048 7.25233 16.1892 7.0562 16.1892 6.81418L15.9885 2.50901C15.9781 2.28767 16.1442 2.10192 16.3527 2.10192ZM21.044 2.01158C21.1301 2.04241 21.188 2.12819 21.188 2.22469V12.2274C21.4816 15.4529 21.6756 19.9648 21.6756 20.4931C21.6756 21.3252 21.1941 21.9998 20.6001 21.9998C20.0062 21.9998 19.5247 21.3253 19.5247 20.4931C19.5247 20.1116 19.6258 17.6526 19.7927 15.1008L19.8323 14.5111C19.8867 13.7252 19.947 12.9449 20.0122 12.2281H19.7144C19.3198 12.2281 19 11.8879 19 11.4682V7.80894C19 5.74347 19.635 3.73466 20.8083 2.08882C20.8632 2.01192 20.958 1.9808 21.044 2.01158ZM9.9 1.99984C10.2385 1.9998 10.5145 2.27134 10.52 2.60984V10.7398C10.513 12.4084 9.40438 13.8716 7.8 14.3298V19.9998H8.8C9.35228 19.9998 9.8 20.4476 9.8 20.9998C9.8 21.5521 9.35228 21.9998 8.8 21.9998H4.8C4.24772 21.9998 3.8 21.5521 3.8 20.9998C3.8 20.4476 4.24772 19.9998 4.8 19.9998H5.8V14.3498C4.15475 13.9226 3.00452 12.4396 3 10.7398V2.60984C2.99991 2.44453 3.06692 2.28627 3.18568 2.17128C3.30444 2.05629 3.46478 1.99442 3.63 1.99984H9.9ZM8.52 3.99984H5.06V7.93984C5.40712 8.07591 5.80204 7.98903 6.06 7.71984C6.68875 7.05148 7.63011 6.77596 8.52 6.99984V3.99984Z"
    fill="#FF6600"
  />
</svg>
