<svg
  width="24"
  height="24"
  viewBox="0 0 24 24"
  fill="none"
  xmlns="http://www.w3.org/2000/svg"
>
  <path
    d="M11.8669 4.52035C10.4567 5.90304 9.97257 7.93635 10.6155 9.7763L3.25028 16.911L3 20L7.38578 19.5735V17.5103H9.42374V15.5163H11.4975L13.9764 13.1189C16.4854 13.9088 19.2158 12.8163 20.4143 10.5428C21.6129 8.26938 20.9234 5.49053 18.7887 3.9906C16.654 2.49066 13.7083 2.71534 11.8431 4.52035H11.8669ZM15.8237 6.01875C16.2416 5.61009 16.8734 5.48596 17.4231 5.70449C17.9728 5.92302 18.3317 6.44095 18.3317 7.01576C18.3317 7.59058 17.9728 8.10851 17.4231 8.32704C16.8734 8.54556 16.2416 8.42144 15.8237 8.01278C15.2587 7.4604 15.2587 6.57113 15.8237 6.01875Z"
    fill="#FF6600"
  />
</svg>
