<svg width="25" height="24" viewBox="0 0 25 24" fill="none" xmlns="http://www.w3.org/2000/svg">
  <path
    d="M16.1173 2.10208C16.31 2.10208 16.4695 2.26161 16.4813 2.46622L16.7899 7.83421C16.7899 8.66578 16.3734 9.3938 15.7503 9.7953C15.3449 10.0564 15.1186 10.5454 15.1709 11.0464C15.5227 14.4189 15.7616 19.9249 15.7616 20.5246C15.7616 21.3958 15.2575 22.1021 14.6357 22.1021C14.0138 22.1021 13.5097 21.3958 13.5097 20.5246C13.5097 20.1589 13.5985 17.9691 13.7476 15.5511L13.7845 14.9672L13.8441 14.0856C13.9198 13.0096 14.006 11.9513 14.1004 11.0464C14.1527 10.5451 13.9266 10.0566 13.521 9.7953C12.8979 9.3938 12.4814 8.66583 12.4814 7.83426L12.7902 2.46622C12.802 2.26161 12.9614 2.10208 13.1541 2.10208C13.3625 2.10208 13.5286 2.28773 13.5183 2.50917L13.3176 6.81434C13.3176 7.05626 13.502 7.25249 13.7295 7.25249C13.9569 7.25249 14.1414 7.05636 14.1414 6.81434L14.2417 2.51095C14.247 2.28357 14.4218 2.10208 14.6357 2.10208C14.8496 2.10208 15.0244 2.28351 15.0297 2.51095L15.13 6.81434C15.13 7.05626 15.3145 7.25249 15.5419 7.25249C15.7694 7.25249 15.9538 7.05636 15.9538 6.81434L15.7531 2.50917C15.7427 2.28783 15.9088 2.10208 16.1173 2.10208ZM10.8086 2.01174C10.8947 2.04257 10.9526 2.12835 10.9526 2.22485V12.2275C11.2462 15.453 11.4402 19.965 11.4402 20.4932C11.4402 21.3254 10.9587 22 10.3648 22C9.77082 22 9.2893 21.3254 9.2893 20.4932C9.2893 20.0971 9.39843 17.4605 9.57685 14.8062L9.61762 14.217C9.66648 13.5313 9.71981 12.8555 9.77689 12.2283H9.47906C9.08448 12.2283 8.76465 11.888 8.76465 11.4684V7.8091C8.76465 5.74363 9.39965 3.73482 10.5729 2.08897C10.6278 2.01208 10.7227 1.98096 10.8086 2.01174Z"
    fill="#FF6600"
  />
</svg>
