<svg
  width="24"
  height="24"
  viewBox="0 0 24 24"
  fill="none"
  xmlns="http://www.w3.org/2000/svg"
>
  <path
    d="M15.3726 1.52068C16.5505 0.82644 18.0239 0.82644 19.2019 1.52068C20.3798 2.21491 21.0695 3.48971 20.9944 4.83393C20.9815 5.2892 20.8955 5.73964 20.7395 6.16872L18.401 13.0163V21.9148C18.401 22.5141 17.9049 23 17.2928 23C16.6807 23 16.1845 22.5141 16.1845 21.9148V13.0271L13.846 6.16872C13.6823 5.74132 13.5924 5.29023 13.58 4.83393C13.5049 3.48971 14.1946 2.21491 15.3726 1.52068ZM8.57055 1.19838C9.04294 1.19378 9.49479 1.38735 9.81183 1.73029C10.1247 2.07828 10.2735 2.53912 10.2219 2.99996L9.36851 10.108C9.27274 10.9301 8.56226 11.5511 7.71717 11.5513H7.21844V21.7303C7.24324 22.0329 7.13751 22.3317 6.92692 22.5544C6.71633 22.7771 6.42011 22.9033 6.11015 22.9023C5.80019 22.9033 5.50397 22.7771 5.29338 22.5544C5.08279 22.3317 4.97707 22.0329 5.00187 21.7303V11.5513H4.51422C3.6649 11.5566 2.94803 10.9342 2.85179 10.108L2.00949 2.99996C1.9592 2.54093 2.11034 2.08258 2.42528 1.73901C2.74023 1.39545 3.18935 1.19899 3.66084 1.19838H8.57055ZM17.2817 2.28374L17.2329 2.30082C16.8997 2.44602 16.4167 3.22165 16.4061 4.83393C16.5232 6.82997 16.8162 8.81238 17.2817 10.7591C17.7419 8.81141 18.0348 6.82944 18.1572 4.83393C18.1572 3.14104 17.6252 2.37055 17.2817 2.28374ZM8.57055 2.28371H3.66084C3.50486 2.28626 3.35688 2.35179 3.25194 2.46482C3.147 2.57785 3.09444 2.72831 3.1067 2.88059L3.96008 9.9886C3.99389 10.2626 4.23237 10.4681 4.51422 10.4661H7.71717C7.99902 10.4681 8.23749 10.2626 8.27131 9.9886L9.12469 2.89144C9.14235 2.73651 9.08968 2.58179 8.98061 2.46822C8.87865 2.35019 8.72842 2.2826 8.57055 2.28371ZM18.5451 2.69611C18.8191 3.38751 18.9509 4.12508 18.933 4.86649C18.8435 6.64826 18.6026 8.41963 18.2126 10.1622L19.6867 5.82145C19.8017 5.51474 19.869 5.19281 19.8862 4.86649C19.8689 3.95992 19.3572 3.1318 18.5451 2.69611ZM16.0293 2.66355C15.2172 3.09925 14.7055 3.92737 14.6883 4.83393C14.7055 5.16025 14.7727 5.48218 14.8878 5.7889L16.3618 10.1297C15.9711 8.3872 15.7302 6.61577 15.6414 4.83393C15.6289 4.09292 15.7605 3.35635 16.0293 2.66355ZM6.11015 3.97663C6.21395 3.9736 6.31442 4.01264 6.38785 4.08454C6.46128 4.15643 6.50115 4.25482 6.49805 4.35645V8.37165C6.51075 8.47966 6.47555 8.58783 6.40139 8.66875C6.32722 8.74967 6.22119 8.79559 6.11015 8.79489C5.89592 8.79489 5.72225 8.62482 5.72225 8.41506V4.35645C5.72225 4.14668 5.89592 3.97663 6.11015 3.97663ZM7.97207 3.97663C8.08735 3.98629 8.19267 4.04448 8.26072 4.1361C8.32878 4.22772 8.35286 4.34375 8.32672 4.45412L7.83908 8.41506C7.83915 8.59496 7.71129 8.74633 7.53872 8.7853L7.46226 8.79487C7.34009 8.80151 7.22189 8.75132 7.14334 8.65946C7.0648 8.5676 7.03512 8.44483 7.06328 8.32824L7.53984 4.31304C7.54448 4.20944 7.59474 4.1129 7.67765 4.04837C7.76055 3.98385 7.86795 3.95768 7.97207 3.97663ZM4.53923 4.10685C4.62124 4.17067 4.67241 4.26504 4.68046 4.3673L5.15703 8.3825C5.17289 8.57644 5.04059 8.75226 4.84671 8.79489H4.76913C4.57108 8.79614 4.40386 8.65112 4.38123 8.45846L3.90466 4.45412C3.8849 4.2457 4.03641 4.05907 4.24823 4.03089C4.3518 4.0155 4.45723 4.04302 4.53923 4.10685Z"
    fill="#FF6600"
  />
</svg>
