<svg width="25" height="24" viewBox="0 0 25 24" fill="none" xmlns="http://www.w3.org/2000/svg">
  <path
    d="M16.1372 1.52068C17.3151 0.82644 18.7886 0.82644 19.9666 1.52068C21.1445 2.21491 21.8342 3.48971 21.7591 4.83393C21.7462 5.2892 21.6602 5.73964 21.5042 6.16872L19.1656 13.0163V21.9148C19.1656 22.5141 18.6695 23 18.0575 23C17.4454 23 16.9491 22.5141 16.9491 21.9148V13.0271L14.6106 6.16872C14.4469 5.74132 14.357 5.29023 14.3446 4.83393C14.2695 3.48971 14.9592 2.21491 16.1372 1.52068ZM9.3352 1.19838C9.80759 1.19378 10.2594 1.38735 10.5765 1.73029C10.8893 2.07828 11.0381 2.53912 10.9865 2.99996L10.1332 10.108C10.0374 10.9301 9.32691 11.5511 8.48182 11.5513H7.98309V21.7303C8.00789 22.0329 7.90216 22.3317 7.69157 22.5544C7.48098 22.7771 7.18476 22.9033 6.8748 22.9023C6.56484 22.9033 6.26862 22.7771 6.05803 22.5544C5.84744 22.3317 5.74172 22.0329 5.76652 21.7303V11.5513H5.27887C4.42955 11.5566 3.71268 10.9342 3.61644 10.108L2.77414 2.99996C2.72385 2.54093 2.87499 2.08258 3.18993 1.73901C3.50488 1.39545 3.954 1.19899 4.42549 1.19838H9.3352ZM18.0463 2.28374L17.9976 2.30082C17.6643 2.44602 17.1813 3.22165 17.1707 4.83393C17.2878 6.82997 17.5808 8.81238 18.0463 10.7591C18.5065 8.81141 18.7994 6.82944 18.9219 4.83393C18.9219 3.14104 18.3898 2.37055 18.0463 2.28374ZM9.3352 2.28371H4.42549C4.26951 2.28626 4.12153 2.35179 4.01659 2.46482C3.91165 2.57785 3.85909 2.72831 3.87135 2.88059L4.72473 9.9886C4.75854 10.2626 4.99702 10.4681 5.27887 10.4661H8.48182C8.76367 10.4681 9.00214 10.2626 9.03596 9.9886L9.88934 2.89144C9.907 2.73651 9.85433 2.58179 9.74526 2.46822C9.6433 2.35019 9.49307 2.2826 9.3352 2.28371ZM19.3097 2.69611C19.5837 3.38751 19.7156 4.12508 19.6977 4.86649C19.6082 6.64826 19.3673 8.41963 18.9773 10.1622L20.4514 5.82145C20.5664 5.51474 20.6336 5.19281 20.6509 4.86649C20.6336 3.95992 20.1218 3.1318 19.3097 2.69611ZM16.794 2.66355C15.9818 3.09925 15.4701 3.92737 15.4529 4.83393C15.4701 5.16025 15.5373 5.48218 15.6524 5.7889L17.1264 10.1297C16.7357 8.3872 16.4949 6.61577 16.406 4.83393C16.3935 4.09292 16.5252 3.35635 16.794 2.66355ZM6.8748 3.97663C6.9786 3.9736 7.07907 4.01264 7.1525 4.08454C7.22593 4.15643 7.2658 4.25482 7.2627 4.35645V8.37165C7.2754 8.47966 7.2402 8.58783 7.16604 8.66875C7.09187 8.74967 6.98584 8.79559 6.8748 8.79489C6.66057 8.79489 6.4869 8.62482 6.4869 8.41506V4.35645C6.4869 4.14668 6.66057 3.97663 6.8748 3.97663ZM8.73672 3.97663C8.852 3.98629 8.95732 4.04448 9.02537 4.1361C9.09343 4.22772 9.11751 4.34375 9.09137 4.45412L8.60373 8.41506C8.6038 8.59496 8.47594 8.74633 8.30337 8.7853L8.22691 8.79487C8.10474 8.80151 7.98654 8.75132 7.90799 8.65946C7.82945 8.5676 7.79977 8.44483 7.82793 8.32824L8.30449 4.31304C8.30913 4.20944 8.35939 4.1129 8.4423 4.04837C8.5252 3.98385 8.6326 3.95768 8.73672 3.97663ZM5.30388 4.10685C5.38589 4.17067 5.43706 4.26504 5.44511 4.3673L5.92168 8.3825C5.93754 8.57644 5.80524 8.75226 5.61136 8.79489H5.53378C5.33573 8.79614 5.16851 8.65112 5.14588 8.45846L4.66931 4.45412C4.64955 4.2457 4.80106 4.05907 5.01288 4.03089C5.11645 4.0155 5.22188 4.04302 5.30388 4.10685Z"
    fill="#FF6600"
  />
</svg>
