<svg
  width="24"
  height="24"
  viewBox="0 0 24 24"
  fill="none"
  xmlns="http://www.w3.org/2000/svg"
>
  <path
    d="M19.2161 11.033H5.39252C4.89798 11.033 4.497 11.4258 4.497 11.9104V14.8276C4.4886 16.7201 5.30266 18.5267 6.73571 19.7956H15.9029C16.6332 19.1511 17.2101 18.3575 17.5931 17.4706H19.2273C20.4468 17.5404 21.6053 16.9426 22.2365 15.9179C22.8678 14.8933 22.8678 13.6104 22.2365 12.5857C21.6053 11.561 20.4468 10.9632 19.2273 11.033H19.2161ZM19.7758 19.8066C20.394 19.8066 20.8951 20.2976 20.8951 20.9033C20.8951 21.509 20.394 22 19.7758 22H2.82928C2.2111 22 1.70996 21.509 1.70996 20.9033C1.70996 20.2976 2.2111 19.8066 2.82928 19.8066H19.7758ZM20.2171 13.706C20.4299 14.04 20.4299 14.4636 20.2171 14.7977C20.0043 15.1317 19.6159 15.3178 19.2161 15.2772H18.0968V13.2264H19.2161C19.6159 13.1858 20.0043 13.3719 20.2171 13.706ZM7.04912 2.36908C7.72071 1.46978 9.2094 2.39101 8.58259 3.24644C7.95577 4.10186 8.40349 4.68311 8.75048 5.5495C9.08674 6.28119 9.13849 7.10805 8.896 7.87451C8.52662 8.93831 6.79167 8.43382 7.13866 7.45776C7.48565 6.4817 6.80287 5.79078 6.56781 4.88052C6.30946 4.01611 6.48833 3.08278 7.04912 2.36908ZM13.5076 2.36908C14.1792 1.46978 15.6791 2.39101 15.0411 3.24644C14.403 4.10186 14.862 4.68311 15.209 5.5495C15.5216 6.28856 15.5573 7.11215 15.3097 7.87451C14.9291 8.93831 13.239 8.43382 13.5859 7.45776C13.9329 6.4817 13.2613 5.79078 13.0151 4.88052C12.7561 4.01455 12.9395 3.07934 13.5076 2.36908ZM10.2951 2.36908C10.9667 1.46978 12.4778 2.39101 11.8398 3.24644C11.2018 4.10186 11.6495 4.68311 11.9965 5.5495C12.3217 6.28525 12.3615 7.11203 12.1084 7.87451C11.7279 8.93831 10.0937 8.38996 10.4407 7.41389C10.7876 6.43783 10.1049 5.74691 9.8698 4.83665C9.6107 3.99417 9.76802 3.08146 10.2951 2.36908Z"
    fill="#FF6600"
  />
</svg>
