<svg width="25" height="24" viewBox="0 0 25 24" fill="none" xmlns="http://www.w3.org/2000/svg">
  <path
    d="M17.1173 2.10192C17.31 2.10192 17.4695 2.26145 17.4813 2.46606L17.7899 7.83405C17.7899 8.66562 17.3734 9.3936 16.7503 9.7951C16.3449 10.0563 16.1186 10.5452 16.1709 11.0463C16.2481 11.7866 16.3199 12.6297 16.3849 13.5011L16.4273 14.0855C16.6337 17.02 16.7616 20.0856 16.7616 20.5245C16.7616 21.3956 16.2575 22.1019 15.6357 22.1019C15.0138 22.1019 14.5097 21.3957 14.5097 20.5245C14.5097 20.1295 14.6133 17.6069 14.7845 14.967L14.8441 14.0855L14.8864 13.5011C14.9514 12.6297 15.0232 11.7866 15.1004 11.0463C15.1527 10.545 14.9266 10.0564 14.521 9.7952C13.8979 9.3936 13.4814 8.66567 13.4814 7.8341L13.7902 2.46606C13.802 2.26145 13.9614 2.10192 14.1541 2.10192C14.3625 2.10192 14.5286 2.28757 14.5183 2.50901L14.3176 6.81418C14.3176 7.0561 14.502 7.25233 14.7295 7.25233C14.9569 7.25233 15.1414 7.0562 15.1414 6.81418L15.2417 2.51079C15.247 2.28341 15.4218 2.10192 15.6357 2.10192C15.8496 2.10192 16.0244 2.28335 16.0297 2.51079L16.13 6.81418C16.13 7.0561 16.3145 7.25233 16.5419 7.25233C16.7694 7.25233 16.9538 7.0562 16.9538 6.81418L16.7531 2.50901C16.7427 2.28767 16.9088 2.10192 17.1173 2.10192ZM21.8086 2.01158C21.8947 2.04241 21.9526 2.12819 21.9526 2.22469V12.2274C22.2462 15.4529 22.4402 19.9648 22.4402 20.4931C22.4402 21.3252 21.9587 21.9998 21.3647 21.9998C20.7708 21.9998 20.2893 21.3253 20.2893 20.4931C20.2893 20.1116 20.3904 17.6526 20.5573 15.1008L20.5969 14.5111C20.6513 13.7252 20.7116 12.9449 20.7768 12.2281H20.479C20.0844 12.2281 19.7646 11.8879 19.7646 11.4682V7.80894C19.7646 5.74347 20.3996 3.73466 21.5729 2.08882C21.6278 2.01192 21.7226 1.9808 21.8086 2.01158ZM10.6646 1.99984C11.0031 1.9998 11.2791 2.27134 11.2846 2.60984V10.7398C11.2776 12.4084 10.169 13.8716 8.56465 14.3298V19.9998H9.56465C10.1169 19.9998 10.5646 20.4476 10.5646 20.9998C10.5646 21.5521 10.1169 21.9998 9.56465 21.9998H5.56465C5.01237 21.9998 4.56465 21.5521 4.56465 20.9998C4.56465 20.4476 5.01237 19.9998 5.56465 19.9998H6.56465V14.3498C4.9194 13.9226 3.76917 12.4396 3.76465 10.7398V2.60984C3.76456 2.44453 3.83157 2.28627 3.95033 2.17128C4.06909 2.05629 4.22943 1.99442 4.39465 1.99984H10.6646ZM9.28465 3.99984H5.82465V7.93984C6.17177 8.07591 6.56669 7.98903 6.82465 7.71984C7.4534 7.05148 8.39476 6.77596 9.28465 6.99984V3.99984Z"
    fill="#FF6600"
  />
</svg>
