<svg
  width="24"
  height="24"
  viewBox="0 0 24 24"
  fill="none"
  xmlns="http://www.w3.org/2000/svg"
>
  <path
    d="M15.3527 2.10208C15.5454 2.10208 15.7049 2.26161 15.7167 2.46622L16.0253 7.83421C16.0253 8.66578 15.6088 9.3938 14.9857 9.7953C14.5803 10.0564 14.354 10.5454 14.4063 11.0464C14.7581 14.4189 14.997 19.9249 14.997 20.5246C14.997 21.3958 14.4929 22.1021 13.8711 22.1021C13.2492 22.1021 12.7451 21.3958 12.7451 20.5246C12.7451 20.1589 12.8339 17.9691 12.983 15.5511L13.0199 14.9672L13.0795 14.0856C13.1552 13.0096 13.2414 11.9513 13.3358 11.0464C13.3881 10.5451 13.162 10.0566 12.7564 9.7953C12.1333 9.3938 11.7168 8.66583 11.7168 7.83426L12.0256 2.46622C12.0374 2.26161 12.1968 2.10208 12.3895 2.10208C12.5979 2.10208 12.764 2.28773 12.7537 2.50917L12.553 6.81434C12.553 7.05626 12.7374 7.25249 12.9649 7.25249C13.1923 7.25249 13.3768 7.05636 13.3768 6.81434L13.4771 2.51095C13.4824 2.28357 13.6572 2.10208 13.8711 2.10208C14.085 2.10208 14.2598 2.28351 14.2651 2.51095L14.3654 6.81434C14.3654 7.05626 14.5499 7.25249 14.7773 7.25249C15.0048 7.25249 15.1892 7.05636 15.1892 6.81434L14.9885 2.50917C14.9781 2.28783 15.1442 2.10208 15.3527 2.10208ZM10.044 2.01174C10.1301 2.04257 10.188 2.12835 10.188 2.22485V12.2275C10.4816 15.453 10.6756 19.965 10.6756 20.4932C10.6756 21.3254 10.1941 22 9.60015 22C9.00617 22 8.52465 21.3254 8.52465 20.4932C8.52465 20.0971 8.63378 17.4605 8.8122 14.8062L8.85297 14.217C8.90183 13.5313 8.95516 12.8555 9.01224 12.2283H8.71441C8.31983 12.2283 8 11.888 8 11.4684V7.8091C8 5.74363 8.635 3.73482 9.80825 2.08897C9.86316 2.01208 9.95804 1.98096 10.044 2.01174Z"
    fill="#FF6600"
  />
</svg>
