<svg width="25" height="24" viewBox="0 0 25 24" fill="none" xmlns="http://www.w3.org/2000/svg">
  <path
    d="M12.6315 4.52035C11.2213 5.90304 10.7372 7.93635 11.3801 9.7763L4.01493 16.911L3.76465 20L8.15043 19.5735V17.5103H10.1884V15.5163H12.2621L14.741 13.1189C17.25 13.9088 19.9804 12.8163 21.1789 10.5428C22.3776 8.26938 21.688 5.49053 19.5533 3.9906C17.4186 2.49066 14.4729 2.71534 12.6077 4.52035H12.6315ZM16.5883 6.01875C17.0062 5.61009 17.638 5.48596 18.1877 5.70449C18.7374 5.92302 19.0963 6.44095 19.0963 7.01576C19.0963 7.59058 18.7374 8.10851 18.1877 8.32704C17.638 8.54556 17.0062 8.42144 16.5883 8.01278C16.0233 7.4604 16.0233 6.57113 16.5883 6.01875Z"
    fill="#FF6600"
  />
</svg>
