<svg
  width="24"
  height="24"
  viewBox="0 0 24 24"
  fill="none"
  xmlns="http://www.w3.org/2000/svg"
>
  <path
    d="M6.70126 2.02269C7.71342 2.04586 8.70196 3.34977 9.11121 4.50009C9.3008 5.00962 9.3997 5.54787 9.40242 6.09101C9.40274 7.68701 8.93689 8.25506 8.45111 8.75945L8.29757 8.91774C8.24651 8.97055 8.19576 9.0238 8.14582 9.0786C7.71016 9.5561 7.33234 10.0916 7.34235 10.9448C7.37382 13.7062 8.15536 17.6627 7.68222 20.883C7.55687 21.7366 7.20913 22.0105 6.70142 22.0105C6.19416 22.011 5.84597 21.7366 5.72065 20.883C5.24676 17.6626 6.02875 13.7058 6.06075 10.9448C6.07084 10.0917 5.69303 9.5562 5.25733 9.0786C5.20736 9.0238 5.15657 8.97052 5.10549 8.9177L4.95186 8.75937C4.46585 8.25496 4 7.6875 4 6.09118C4.00274 5.54793 4.10165 5.00968 4.29125 4.50015C4.70045 3.35082 5.68903 2.04594 6.70126 2.02269ZM17.7139 2C17.9067 2 18.0661 2.15953 18.0779 2.36415L18.3866 7.73213C18.3866 8.5637 17.9701 9.2917 17.3469 9.6932C16.9416 9.9544 16.7153 10.4433 16.7676 10.9444C17.1193 14.3169 17.3583 19.8228 17.3583 20.4226C17.3583 21.2937 16.8541 22 16.2323 22C15.6105 22 15.1064 21.2938 15.1064 20.4226C15.1064 20.013 15.2178 17.3152 15.4005 14.5714L15.4407 13.9836C15.5164 12.9076 15.6027 11.8492 15.697 10.9444C15.7493 10.443 15.5232 9.9545 15.1177 9.6932C14.4945 9.2917 14.0781 8.56375 14.0781 7.73218L14.3869 2.36415C14.3986 2.15953 14.558 2 14.7508 2C14.9591 2 15.1253 2.18566 15.115 2.40709L14.9142 6.71227C14.9142 6.95418 15.0987 7.15041 15.3261 7.15041C15.5536 7.15041 15.738 6.95428 15.738 6.71227L15.8383 2.40887C15.8437 2.18149 16.0184 2 16.2324 2C16.4463 2 16.6211 2.18144 16.6264 2.40887L16.7267 6.71227C16.7267 6.95418 16.9111 7.15041 17.1386 7.15041C17.366 7.15041 17.5505 6.95428 17.5505 6.71227L17.3498 2.40709C17.3394 2.18576 17.5055 2 17.7139 2ZM12.4464 2.01174C12.5325 2.04257 12.5904 2.12835 12.5904 2.22485V12.2275C12.6557 12.9443 12.716 13.7246 12.7704 14.5106L12.81 15.1003C12.9769 17.6523 13.0781 20.1117 13.0781 20.4932C13.0781 21.3254 12.5965 22 12.0026 22C11.4086 22 10.9271 21.3254 10.9271 20.4932C10.9271 20.1264 11.0206 17.8388 11.1761 15.3948L11.2146 14.8062C11.2741 13.9214 11.3413 13.0347 11.4147 12.2283H11.1168C10.7222 12.2283 10.4024 11.888 10.4024 11.4684V7.8091C10.4024 5.74363 11.0374 3.73482 12.2107 2.08897C12.2656 2.01208 12.3605 1.98096 12.4464 2.01174Z"
    fill="#FF6600"
  />
</svg>
