<svg
  width="24"
  height="24"
  viewBox="0 0 24 24"
  fill="none"
  xmlns="http://www.w3.org/2000/svg"
>
  <path
    d="M22.2402 11.83C22.318 11.573 22.2891 11.2955 22.1602 11.06C22.0272 10.8306 21.8132 10.6593 21.5602 10.58L19.8102 10.08L18.2802 5.18C17.9629 4.14333 17.0043 3.4366 15.9202 3.44H14.5002V2.88C14.5083 2.64941 14.4224 2.42543 14.2621 2.25947C14.1018 2.09352 13.8809 2 13.6502 2H10.3602C9.88909 2 9.50565 2.37895 9.50017 2.85V3.41H8.09017C6.99777 3.41056 6.03658 4.13144 5.73017 5.18L4.20017 10.08L2.44017 10.58C2.18718 10.6593 1.9731 10.8306 1.84017 11.06C1.71121 11.2955 1.68238 11.573 1.76017 11.83L3.81017 18.76C3.81017 18.76 3.81017 18.76 3.81017 18.83C3.54151 18.7948 3.27109 18.7748 3.00017 18.77C2.44789 18.77 2.00017 19.2177 2.00017 19.77C2.00017 20.3223 2.44789 20.77 3.00017 20.77C3.72659 20.7531 4.44226 20.9477 5.06017 21.33C5.79156 21.7762 6.63345 22.0083 7.49017 22C8.34725 22.0182 9.19237 21.7965 9.93017 21.36C10.5477 20.9653 11.2673 20.7602 12.0002 20.77C12.7299 20.7518 13.4492 20.9464 14.0702 21.33C14.802 21.7752 15.6436 22.0073 16.5002 22C17.3571 22.0171 18.202 21.7955 18.9402 21.36C19.5544 20.9661 20.2706 20.7609 21.0002 20.77C21.5525 20.77 22.0002 20.3223 22.0002 19.77C22.0002 19.2177 21.5525 18.77 21.0002 18.77C20.7159 18.7733 20.4321 18.7933 20.1502 18.83C20.1502 18.83 20.1502 18.83 20.1502 18.76L22.2402 11.83ZM7.64017 5.83C7.69795 5.62926 7.88128 5.49074 8.09017 5.49H15.9202C16.1291 5.49074 16.3124 5.62926 16.3702 5.83L17.5102 9.47L12.2802 7.97C12.0969 7.9198 11.9035 7.9198 11.7202 7.97L6.50017 9.42L7.64017 5.83ZM12.0002 9.92L20.0002 12.23L18.2702 18.19C18.1537 18.5826 18.2884 19.0066 18.6102 19.26C18.3802 19.36 18.1802 19.47 18.0002 19.56C17.5529 19.8447 17.0301 19.9877 16.5002 19.97C15.9704 19.987 15.4477 19.8442 15.0002 19.56C14.092 19.0253 13.0539 18.752 12.0002 18.77C10.9467 18.7535 9.90891 19.0268 9.00017 19.56C8.55397 19.8471 8.03037 19.9902 7.50017 19.97C6.96991 19.9909 6.44611 19.8477 6.00017 19.56C5.82017 19.47 5.62017 19.36 5.39017 19.26C5.71192 19.0066 5.84664 18.5826 5.73017 18.19L4.00017 12.23L12.0002 9.92Z"
    fill="#FF6600"
  />
</svg>
