<svg width="25" height="24" viewBox="0 0 25 24" fill="none" xmlns="http://www.w3.org/2000/svg">
  <path
    d="M23.0049 11.83C23.0827 11.573 23.0538 11.2955 22.9249 11.06C22.7919 10.8306 22.5779 10.6593 22.3249 10.58L20.5749 10.08L19.0448 5.18C18.7275 4.14333 17.769 3.4366 16.6849 3.44H15.2649V2.88C15.273 2.64941 15.1871 2.42543 15.0268 2.25947C14.8665 2.09352 14.6455 2 14.4149 2H11.1249C10.6537 2 10.2703 2.37895 10.2648 2.85V3.41H8.85482C7.76242 3.41056 6.80123 4.13144 6.49482 5.18L4.96482 10.08L3.20482 10.58C2.95183 10.6593 2.73775 10.8306 2.60482 11.06C2.47586 11.2955 2.44703 11.573 2.52482 11.83L4.57482 18.76C4.57482 18.76 4.57482 18.76 4.57482 18.83C4.30616 18.7948 4.03574 18.7748 3.76482 18.77C3.21254 18.77 2.76482 19.2177 2.76482 19.77C2.76482 20.3223 3.21254 20.77 3.76482 20.77C4.49124 20.7531 5.20691 20.9477 5.82482 21.33C6.55621 21.7762 7.3981 22.0083 8.25482 22C9.1119 22.0182 9.95702 21.7965 10.6948 21.36C11.3119 20.9642 12.0319 20.759 12.7649 20.77C13.4946 20.7518 14.2139 20.9464 14.8349 21.33C15.566 21.7767 16.4081 22.0089 17.2649 22C18.1218 22.0171 18.9667 21.7955 19.7049 21.36C20.3191 20.9661 21.0352 20.7609 21.7649 20.77C22.3172 20.77 22.7649 20.3223 22.7649 19.77C22.7649 19.2177 22.3172 18.77 21.7649 18.77C21.4806 18.7733 21.1968 18.7933 20.9149 18.83C20.9149 18.83 20.9149 18.83 20.9149 18.76L23.0049 11.83ZM9.55482 15.55C9.16479 15.9377 8.53486 15.9377 8.14482 15.55C7.85759 15.2645 7.77094 14.8339 7.92538 14.4595C8.07981 14.0851 8.44482 13.8408 8.84982 13.8408C9.25483 13.8408 9.61984 14.0851 9.77427 14.4595C9.9287 14.8339 9.84206 15.2645 9.55482 15.55ZM17.9149 15.55C17.5247 15.9377 16.8949 15.9377 16.5049 15.55C16.1651 15.1532 16.1878 14.5618 16.5573 14.1924C16.9267 13.8231 17.5181 13.8002 17.9149 14.14C18.3026 14.53 18.3026 15.16 17.9149 15.55ZM13.0449 7.92C12.8616 7.8698 12.6681 7.8698 12.4848 7.92L7.26482 9.42L8.40482 5.78C8.4626 5.57926 8.64593 5.44074 8.85482 5.44H16.6849C16.8938 5.44074 17.077 5.57926 17.1348 5.78L18.2749 9.42L13.0449 7.92Z"
    fill="#FF6600"
  />
</svg>
