<svg width="25" height="24" viewBox="0 0 25 24" fill="none" xmlns="http://www.w3.org/2000/svg">
  <path
    d="M23.0049 11.83C23.0827 11.573 23.0538 11.2955 22.9249 11.06C22.7919 10.8306 22.5779 10.6593 22.3249 10.58L20.5749 10.08L19.0448 5.18C18.7275 4.14333 17.769 3.4366 16.6849 3.44H15.2649V2.88C15.273 2.64941 15.1871 2.42543 15.0268 2.25947C14.8665 2.09352 14.6455 2 14.4149 2H11.1249C10.6537 2 10.2703 2.37895 10.2648 2.85V3.41H8.85482C7.76242 3.41056 6.80123 4.13144 6.49482 5.18L4.96482 10.08L3.20482 10.58C2.95183 10.6593 2.73775 10.8306 2.60482 11.06C2.47586 11.2955 2.44703 11.573 2.52482 11.83L4.57482 18.76C4.57482 18.76 4.57482 18.76 4.57482 18.83C4.30616 18.7948 4.03574 18.7748 3.76482 18.77C3.21254 18.77 2.76482 19.2177 2.76482 19.77C2.76482 20.3223 3.21254 20.77 3.76482 20.77C4.49124 20.7531 5.20691 20.9477 5.82482 21.33C6.55621 21.7762 7.3981 22.0083 8.25482 22C9.1119 22.0182 9.95702 21.7965 10.6948 21.36C11.3124 20.9653 12.032 20.7602 12.7649 20.77C13.4946 20.7518 14.2139 20.9464 14.8349 21.33C15.5667 21.7752 16.4083 22.0073 17.2649 22C18.1218 22.0171 18.9667 21.7955 19.7049 21.36C20.3191 20.9661 21.0352 20.7609 21.7649 20.77C22.3172 20.77 22.7649 20.3223 22.7649 19.77C22.7649 19.2177 22.3172 18.77 21.7649 18.77C21.4806 18.7733 21.1968 18.7933 20.9149 18.83C20.9149 18.83 20.9149 18.83 20.9149 18.76L23.0049 11.83ZM8.40482 5.83C8.4626 5.62926 8.64593 5.49074 8.85482 5.49H16.6849C16.8938 5.49074 17.077 5.62926 17.1348 5.83L18.2749 9.47L13.0449 7.97C12.8616 7.9198 12.6681 7.9198 12.4848 7.97L7.26482 9.42L8.40482 5.83ZM12.7649 9.92L20.7649 12.23L19.0349 18.19C18.9184 18.5826 19.0531 19.0066 19.3749 19.26C19.1449 19.36 18.9449 19.47 18.7649 19.56C18.3176 19.8447 17.7948 19.9877 17.2649 19.97C16.7351 19.987 16.2124 19.8442 15.7649 19.56C14.8567 19.0253 13.8186 18.752 12.7649 18.77C11.7114 18.7535 10.6736 19.0268 9.76482 19.56C9.31862 19.8471 8.79502 19.9902 8.26482 19.97C7.73456 19.9909 7.21076 19.8477 6.76482 19.56C6.58482 19.47 6.38482 19.36 6.15482 19.26C6.47657 19.0066 6.61129 18.5826 6.49482 18.19L4.76482 12.23L12.7649 9.92Z"
    fill="#FF6600"
  />
</svg>
