<svg width="25" height="24" viewBox="0 0 25 24" fill="none" xmlns="http://www.w3.org/2000/svg">
  <path
    d="M18.2945 2C19.4819 2 20.4445 2.96259 20.4445 4.15V6.36C20.8831 6.47322 21.1908 6.86708 21.1945 7.32V9.32C21.1819 9.7654 20.876 10.1488 20.4445 10.26V17.5C20.4458 18.1971 20.106 18.8507 19.5345 19.25H19.6745V21C19.6745 21.5523 19.2268 22 18.6745 22H16.6745C16.1222 22 15.6745 21.5523 15.6745 21V19.65H9.84447V21C9.84447 21.5523 9.39676 22 8.84447 22H6.84447C6.29219 22 5.84447 21.5523 5.84447 21V19.25H5.97447C5.40305 18.8507 5.06316 18.1971 5.06447 17.5V10.23C4.64432 10.1124 4.34888 9.7361 4.33447 9.3V7.3C4.34456 6.86021 4.64087 6.47866 5.06447 6.36V4.15C5.06447 2.96259 6.02706 2 7.21447 2H18.2945ZM18.4445 14.31H7.06447V17.5C7.06145 17.5406 7.07628 17.5806 7.10509 17.6094C7.13391 17.6382 7.17384 17.653 7.21447 17.65H18.2945C18.3774 17.65 18.4445 17.5828 18.4445 17.5V14.31ZM16.4445 15C16.9968 15 17.4445 15.4477 17.4445 16C17.4445 16.5523 16.9968 17 16.4445 17C15.8922 17 15.4445 16.5523 15.4445 16C15.4445 15.4477 15.8922 15 16.4445 15ZM9.06447 15C9.61676 15 10.0645 15.4477 10.0645 16C10.0645 16.5523 9.61676 17 9.06447 17C8.51219 17 8.06447 16.5523 8.06447 16C8.06447 15.4477 8.51219 15 9.06447 15ZM18.2945 4H7.21447C7.13163 4 7.06447 4.06716 7.06447 4.15V12.31H18.4445V4.15C18.4445 4.06716 18.3774 4 18.2945 4Z"
    fill="#FF6600"
  />
</svg>
