<svg
  width="24"
  height="24"
  viewBox="0 0 24 24"
  fill="none"
  xmlns="http://www.w3.org/2000/svg"
>
  <path
    d="M17.5298 2C18.7172 2 19.6798 2.96259 19.6798 4.15V6.36C20.1184 6.47322 20.4261 6.86708 20.4298 7.32V9.32C20.4172 9.7654 20.1113 10.1488 19.6798 10.26V17.5C19.6811 18.1971 19.3413 18.8507 18.7698 19.25H18.9098V21C18.9098 21.5523 18.4621 22 17.9098 22H15.9098C15.3575 22 14.9098 21.5523 14.9098 21V19.65H9.07982V21C9.07982 21.5523 8.63211 22 8.07982 22H6.07982C5.52754 22 5.07982 21.5523 5.07982 21V19.25H5.20982C4.6384 18.8507 4.29851 18.1971 4.29982 17.5V10.23C3.87967 10.1124 3.58423 9.7361 3.56982 9.3V7.3C3.57991 6.86021 3.87622 6.47866 4.29982 6.36V4.15C4.29982 2.96259 5.26241 2 6.44982 2H17.5298ZM17.6798 14.31H6.29982V17.5C6.2968 17.5406 6.31163 17.5806 6.34044 17.6094C6.36926 17.6382 6.40919 17.653 6.44982 17.65H17.5298C17.6127 17.65 17.6798 17.5828 17.6798 17.5V14.31ZM15.6798 15C16.2321 15 16.6798 15.4477 16.6798 16C16.6798 16.5523 16.2321 17 15.6798 17C15.1275 17 14.6798 16.5523 14.6798 16C14.6798 15.4477 15.1275 15 15.6798 15ZM8.29982 15C8.85211 15 9.29982 15.4477 9.29982 16C9.29982 16.5523 8.85211 17 8.29982 17C7.74754 17 7.29982 16.5523 7.29982 16C7.29982 15.4477 7.74754 15 8.29982 15ZM17.5298 4H6.44982C6.36698 4 6.29982 4.06716 6.29982 4.15V12.31H17.6798V4.15C17.6798 4.06716 17.6127 4 17.5298 4Z"
    fill="#FF6600"
  />
</svg>
