<svg width="25" height="24" viewBox="0 0 25 24" fill="none" xmlns="http://www.w3.org/2000/svg">
  <path
    d="M20.4445 6.36V4.15C20.4445 2.96259 19.4819 2 18.2945 2H7.21447C6.02706 2 5.06447 2.96259 5.06447 4.15V6.36C4.64087 6.47866 4.34456 6.86021 4.33447 7.3V9.3C4.34888 9.7361 4.64432 10.1124 5.06447 10.23V17.5C5.06316 18.1971 5.40305 18.8507 5.97447 19.25H5.84447V21C5.84447 21.5523 6.29219 22 6.84447 22H8.84447C9.39676 22 9.84447 21.5523 9.84447 21V19.65H15.6745V21C15.6745 21.5523 16.1222 22 16.6745 22H18.6745C19.2268 22 19.6745 21.5523 19.6745 21V19.25H19.5345C20.106 18.8507 20.4458 18.1971 20.4445 17.5V10.26C20.876 10.1488 21.1819 9.7654 21.1945 9.32V7.32C21.1908 6.86708 20.8831 6.47322 20.4445 6.36ZM9.06447 17C8.51219 17 8.06447 16.5523 8.06447 16C8.06447 15.4477 8.51219 15 9.06447 15C9.61676 15 10.0645 15.4477 10.0645 16C10.0645 16.5523 9.61676 17 9.06447 17ZM16.4445 17C15.8922 17 15.4445 16.5523 15.4445 16C15.4445 15.4477 15.8922 15 16.4445 15C16.9968 15 17.4445 15.4477 17.4445 16C17.4445 16.5523 16.9968 17 16.4445 17ZM18.4445 12.31H7.06447V10.31V6.31V4.15C7.06447 4.06716 7.13163 4 7.21447 4H18.2945C18.3774 4 18.4445 4.06716 18.4445 4.15V12.31Z"
    fill="#FF6600"
  />
</svg>
