<svg
  width="24"
  height="24"
  viewBox="0 0 24 24"
  fill="none"
  xmlns="http://www.w3.org/2000/svg"
>
  <path
    d="M19.6798 6.36V4.15C19.6798 2.96259 18.7172 2 17.5298 2H6.44982C5.26241 2 4.29982 2.96259 4.29982 4.15V6.36C3.87622 6.47866 3.57991 6.86021 3.56982 7.3V9.3C3.58423 9.7361 3.87967 10.1124 4.29982 10.23V17.5C4.29851 18.1971 4.6384 18.8507 5.20982 19.25H5.07982V21C5.07982 21.5523 5.52754 22 6.07982 22H8.07982C8.63211 22 9.07982 21.5523 9.07982 21V19.65H14.9098V21C14.9098 21.5523 15.3575 22 15.9098 22H17.9098C18.4621 22 18.9098 21.5523 18.9098 21V19.25H18.7698C19.3413 18.8507 19.6811 18.1971 19.6798 17.5V10.26C20.1113 10.1488 20.4172 9.7654 20.4298 9.32V7.32C20.4261 6.86708 20.1184 6.47322 19.6798 6.36ZM8.29982 17C7.74754 17 7.29982 16.5523 7.29982 16C7.29982 15.4477 7.74754 15 8.29982 15C8.85211 15 9.29982 15.4477 9.29982 16C9.29982 16.5523 8.85211 17 8.29982 17ZM15.6798 17C15.1275 17 14.6798 16.5523 14.6798 16C14.6798 15.4477 15.1275 15 15.6798 15C16.2321 15 16.6798 15.4477 16.6798 16C16.6798 16.5523 16.2321 17 15.6798 17ZM17.6798 12.31H6.29982V10.31V6.31V4.15C6.29982 4.06716 6.36698 4 6.44982 4H17.5298C17.6127 4 17.6798 4.06716 17.6798 4.15V12.31Z"
    fill="#FF6600"
  />
</svg>
