<svg width="56" height="56" viewBox="0 0 56 56" fill="none" xmlns="http://www.w3.org/2000/svg">
  <path
    d="M38.8809 14.6946L37.3755 14.5906V12.964C37.6448 12.8362 37.8153 12.5732 37.8156 12.2852V10.6829C37.8187 9.39391 36.7779 8.3238 35.4364 8.2368L31.8644 8.00441C31.1616 7.96391 30.4726 8.20363 29.9605 8.66684C29.4484 9.13004 29.1586 9.77555 29.1599 10.4506V11.802C29.1597 12.0772 29.3163 12.3305 29.5681 12.4625V14.0525L27.6546 13.9241C26.5831 13.8459 25.5138 14.1011 24.6056 14.6518L20.3192 17.2325C20.1383 17.3226 19.9655 17.4269 19.8025 17.5444L19.6877 17.6116L19.5346 17.7278C18.8296 18.3841 18.4433 19.2933 18.4694 20.2351V24.7482C15.7849 26.073 13.8863 28.5092 13.3219 31.3528L12.7287 34.2148C12.5002 34.3368 12.2863 34.4824 12.0909 34.649C11.3895 35.2843 10.9946 36.1701 11.0001 37.0951V44.4336C11.0029 45.2949 11.6615 46.025 12.5501 46.152L23.1003 47.7297H23.3809C23.8924 47.7274 24.3799 47.5214 24.7268 47.161L28.133 44.3908C28.2222 44.3154 28.3054 44.2336 28.3817 44.1461C29.6205 43.6046 30.7481 42.8548 31.7113 41.9324L33.9821 42.1403C33.9616 42.2266 33.9509 42.3148 33.9502 42.4033C33.8914 42.9064 34.162 43.3923 34.6308 43.6253C35.0996 43.8584 35.6697 43.7904 36.0647 43.4544C36.4597 43.1183 36.5979 42.5837 36.4124 42.1097C36.8631 41.9913 37.2826 41.7829 37.6434 41.4982L41.6109 38.0124C42.8836 36.8908 43.6174 35.3156 43.6393 33.6583L43.7924 19.856C43.828 17.1641 41.6801 14.9069 38.8809 14.6946ZM30.3336 12.4747C30.5959 12.3446 30.7606 12.0852 30.7609 11.802V10.4322C30.7613 10.1818 30.8698 9.94265 31.0607 9.77175C31.2524 9.60153 31.5079 9.51324 31.7688 9.52713L35.3025 9.74729C35.8123 9.77996 36.204 10.1933 36.1891 10.6829V12.2852C36.189 12.5587 36.3426 12.8111 36.591 12.9456V14.5356L30.3336 14.1075V12.4747ZM12.6011 44.4213V37.0829C12.6018 36.5912 12.8147 36.1216 13.1892 35.7857C13.5638 35.4497 14.0667 35.2773 14.5785 35.3095L21.8756 35.7559C22.8521 35.8141 23.6124 36.5913 23.6106 37.5293V45.9991C23.6103 46.0638 23.5827 46.1255 23.534 46.1703C23.4824 46.211 23.4151 46.2288 23.349 46.2192L12.7925 44.6415C12.6822 44.6211 12.6021 44.529 12.6011 44.4213ZM27.3356 42.7518C27.3402 42.9411 27.2531 43.1218 27.0996 43.2411L25.1861 44.7821V37.5171C25.1865 35.7727 23.7742 34.3277 21.9585 34.2148L14.6614 33.7623C14.5785 33.7623 14.4956 33.7623 14.4127 33.7623L14.84 31.6525C15.5976 27.8391 19.1362 25.1209 23.1832 25.2436C25.4994 25.2936 27.3467 27.1136 27.3356 29.3348V42.7518ZM22.7813 23.7147C22.9663 23.3045 23.3868 23.0381 23.8529 23.0359C24.4455 23.046 24.9415 23.4696 25.0202 24.0327C24.4435 23.8386 23.8389 23.7313 23.2278 23.7147H22.7813ZM30.5887 40.8683C30.086 41.3466 29.5323 41.7729 28.9367 42.1403V40.5503C30.7418 39.1071 31.9729 36.8811 31.9729 35.0037C32.033 32.6934 30.893 30.5052 28.9303 29.1635C28.9127 28.6128 28.8139 28.0672 28.6369 27.543C31.3733 28.6926 33.3251 31.5974 33.3251 35.0037C33.2497 37.2268 32.2671 39.3327 30.5887 40.8683ZM28.9303 38.3732V31.1694C29.8811 32.2369 30.3936 33.6001 30.3718 35.0037C30.2863 36.2473 29.7802 37.4302 28.9303 38.3732ZM37.2543 38.942C37.2622 39.4498 37.0442 39.9369 36.6547 40.2812C36.2614 40.6221 35.7332 40.7827 35.2068 40.7215L32.9679 40.5197C34.1927 38.9213 34.8722 36.9989 34.9134 35.0159C34.9134 30.2888 31.6858 26.3627 27.4696 25.6227C27.1975 25.3281 26.8939 25.0617 26.5638 24.8277C26.6108 24.627 26.6344 24.4219 26.634 24.2162C26.6479 22.7994 25.5036 21.6196 24.0287 21.5301C22.5538 21.4406 21.2635 22.4727 21.091 23.8799C20.7332 23.946 20.3797 24.0317 20.0322 24.1367V20.2351C20.0322 19.2219 20.8889 18.4005 21.9457 18.4005H22.0988L35.0537 19.2995C36.2717 19.4161 37.2091 20.3829 37.2416 21.556L37.2543 38.942ZM42.0702 33.6338C42.0561 34.8683 41.5087 36.0419 40.5584 36.875L38.8809 38.3794V21.556C38.8479 19.5704 37.2461 17.9341 35.1813 17.7767L23.7445 16.9695L25.4412 15.9483C26.0601 15.5712 26.7893 15.3954 27.5206 15.4468L38.7342 16.2173C40.6956 16.3557 42.2097 17.9276 42.1978 19.8132L42.0702 33.6338ZM21.1165 38.4589C21.0864 38.8594 20.7381 39.1693 20.3192 39.1682H20.2618L14.4382 38.8136C14.1423 38.8107 13.8724 38.6509 13.7371 38.3986C13.6019 38.1463 13.6235 37.8429 13.7933 37.6106C13.963 37.3782 14.2531 37.2551 14.5466 37.2908L20.3766 37.6761C20.8034 37.7023 21.1312 38.0491 21.1165 38.4589Z"
    fill="black"
    stroke="black"
    stroke-width="0.25"
  />
</svg>
