<svg width="25" height="24" viewBox="0 0 25 24" fill="none" xmlns="http://www.w3.org/2000/svg">
  <path
    d="M11.1651 4V5.6H14.3651V4H17.5651V5.6H19.7411C20.019 5.60202 20.2844 5.71608 20.4772 5.91635C20.6699 6.11662 20.7737 6.38618 20.7651 6.664V18.968C20.7651 19.5348 20.3079 19.9956 19.7411 20H5.78915C5.22232 19.9956 4.76513 19.5348 4.76515 18.968V6.664C4.75652 6.38618 4.86033 6.11662 5.05307 5.91635C5.24582 5.71608 5.5112 5.60202 5.78915 5.6H7.96515V4H11.1651ZM19.1651 11.2H6.36515V18.4H19.1651V11.2ZM16.8131 15.208V16.808H15.2131V15.208H16.8131ZM10.3331 15.208V16.808H8.73315V15.208H10.3331ZM13.5731 15.208V16.808H11.9731V15.208H13.5731ZM10.3331 12.816V14.416H8.73315V12.816H10.3331ZM13.5731 12.816V14.416H11.9731V12.816H13.5731ZM16.8131 12.816V14.416H15.2131V12.816H16.8131ZM7.96515 7.2H6.36515V9.6H19.1651V7.2H17.5651V8.8H14.3651V7.2H11.1651V8.8H7.96515V7.2Z"
    fill="#FF6600"
  />
</svg>
