<svg
  width="24"
  height="24"
  viewBox="0 0 24 24"
  fill="none"
  xmlns="http://www.w3.org/2000/svg"
>
  <path
    d="M10.4005 4V5.6H13.6005V4H16.8005V5.6H18.9765C19.2544 5.60202 19.5198 5.71608 19.7126 5.91635C19.9053 6.11662 20.0091 6.38618 20.0005 6.664V18.968C20.0005 19.5348 19.5433 19.9956 18.9765 20H5.0245C4.45767 19.9956 4.00048 19.5348 4.0005 18.968V6.664C3.99187 6.38618 4.09568 6.11662 4.28842 5.91635C4.48117 5.71608 4.74655 5.60202 5.0245 5.6H7.2005V4H10.4005ZM18.4005 11.2H5.6005V18.4H18.4005V11.2ZM16.0485 15.208V16.808H14.4485V15.208H16.0485ZM9.5685 15.208V16.808H7.9685V15.208H9.5685ZM12.8085 15.208V16.808H11.2085V15.208H12.8085ZM9.5685 12.816V14.416H7.9685V12.816H9.5685ZM12.8085 12.816V14.416H11.2085V12.816H12.8085ZM16.0485 12.816V14.416H14.4485V12.816H16.0485ZM7.2005 7.2H5.6005V9.6H18.4005V7.2H16.8005V8.8H13.6005V7.2H10.4005V8.8H7.2005V7.2Z"
    fill="#FF6600"
  />
</svg>
