<svg
  width="24"
  height="24"
  viewBox="0 0 24 24"
  fill="none"
  xmlns="http://www.w3.org/2000/svg"
>
  <path
    d="M7.63863 1V3.563H16.4387V1H18.6387V3.563H19.6397C20.7332 3.563 21.6197 4.44948 21.6197 5.543V20.8C21.6136 21.8892 20.7289 22.769 19.6397 22.769H4.33863C3.25118 22.769 2.36963 21.8874 2.36963 20.8V5.543C2.36963 4.45376 3.24941 3.56905 4.33863 3.563H5.43863V1H7.63863ZM19.1777 8.623H4.87763C4.57388 8.623 4.32763 8.86924 4.32763 9.173V20.25C4.32763 20.5538 4.57388 20.8 4.87763 20.8H19.1777C19.4772 20.8 19.7217 20.5605 19.7277 20.261V9.173C19.7277 8.86924 19.4814 8.623 19.1777 8.623ZM9.76163 11.813L13.2597 13.573C13.3086 13.5951 13.3647 13.5951 13.4137 13.573L15.4377 12.638C16.2501 12.1778 17.2364 12.145 18.0777 12.55C18.4737 12.781 18.5397 13.045 18.5397 13.232C18.5287 13.584 18.1987 13.903 17.5497 14.2L10.0367 17.753C9.39751 18.0106 8.72199 18.1665 8.03463 18.215H7.59463C6.93463 18.215 6.53863 18.072 6.39563 17.775C6.33315 17.613 6.35806 17.4303 6.46163 17.291C6.5042 17.2278 6.5042 17.1452 6.46163 17.082L5.54863 15.872C5.51282 15.8293 5.49938 15.7721 5.51239 15.7179C5.5254 15.6637 5.56333 15.6188 5.61463 15.597L6.64863 15.113C6.69382 15.0913 6.74644 15.0913 6.79163 15.113L8.62863 15.806C8.67382 15.8277 8.72644 15.8277 8.77163 15.806L10.3667 15.047C10.4205 15.0212 10.4587 14.9712 10.4696 14.9125C10.4805 14.8538 10.4627 14.7934 10.4217 14.75L7.91363 12.209C7.86152 12.157 7.8448 12.0792 7.87092 12.0103C7.89703 11.9415 7.96112 11.8944 8.03463 11.89L9.67363 11.813H9.76163Z"
    fill="#FF6600"
  />
</svg>
