<svg width="25" height="24" viewBox="0 0 25 24" fill="none" xmlns="http://www.w3.org/2000/svg">
  <path
    d="M8.40328 1V3.563H17.2033V1H19.4033V3.563H20.4043C21.4978 3.563 22.3843 4.44948 22.3843 5.543V20.8C22.3782 21.8892 21.4935 22.769 20.4043 22.769H5.10328C4.01583 22.769 3.13428 21.8874 3.13428 20.8V5.543C3.13428 4.45376 4.01406 3.56905 5.10328 3.563H6.20328V1H8.40328ZM19.9423 8.623H5.64228C5.33853 8.623 5.09228 8.86924 5.09228 9.173V20.25C5.09228 20.5538 5.33853 20.8 5.64228 20.8H19.9423C20.2418 20.8 20.4863 20.5605 20.4923 20.261V9.173C20.4923 8.86924 20.246 8.623 19.9423 8.623ZM10.5263 11.813L14.0243 13.573C14.0732 13.5951 14.1293 13.5951 14.1783 13.573L16.2023 12.638C17.0147 12.1778 18.001 12.145 18.8423 12.55C19.2383 12.781 19.3043 13.045 19.3043 13.232C19.2933 13.584 18.9633 13.903 18.3143 14.2L10.8013 17.753C10.1622 18.0106 9.48664 18.1665 8.79928 18.215H8.35928C7.69928 18.215 7.30328 18.072 7.16028 17.775C7.0978 17.613 7.12271 17.4303 7.22628 17.291C7.26885 17.2278 7.26885 17.1452 7.22628 17.082L6.31328 15.872C6.27747 15.8293 6.26403 15.7721 6.27704 15.7179C6.29005 15.6637 6.32798 15.6188 6.37928 15.597L7.41328 15.113C7.45847 15.0913 7.51109 15.0913 7.55628 15.113L9.39328 15.806C9.43847 15.8277 9.49109 15.8277 9.53628 15.806L11.1313 15.047C11.1851 15.0212 11.2233 14.9712 11.2342 14.9125C11.2451 14.8538 11.2273 14.7934 11.1863 14.75L8.67828 12.209C8.62617 12.157 8.60945 12.0792 8.63557 12.0103C8.66168 11.9415 8.72577 11.8944 8.79928 11.89L10.4383 11.813H10.5263Z"
    fill="#FF6600"
  />
</svg>
