<svg
  width="24"
  height="24"
  viewBox="0 0 24 24"
  fill="none"
  xmlns="http://www.w3.org/2000/svg"
>
  <path
    d="M18.9765 5.6H16.8005V4H13.6005V5.6H10.4005V4H7.2005V5.6H5.0245C4.74655 5.60202 4.48117 5.71608 4.28842 5.91635C4.09568 6.11662 3.99187 6.38618 4.0005 6.664V18.968C4.00048 19.5348 4.45767 19.9956 5.0245 20H18.9765C19.5433 19.9956 20.0005 19.5348 20.0005 18.968V6.664C20.0091 6.38618 19.9053 6.11662 19.7126 5.91635C19.5198 5.71608 19.2544 5.60202 18.9765 5.6ZM14.4485 14.4V12.8H16.0485V14.4H14.4485ZM16.0485 15.2V16.8H14.4485V15.2H16.0485ZM11.2485 14.4V12.8H12.8485V14.4H11.2485ZM12.8485 15.2V16.8H11.2005V15.2H12.8485ZM8.0005 14.4V12.8H9.6005V14.4H8.0005ZM9.6005 15.2V16.8H8.0005V15.2H9.6005ZM5.6005 7.2H7.2005V8.8H10.4005V7.2H13.6005V8.8H16.8005V7.2H18.4005V9.6H5.6005V7.2Z"
    fill="#FF6600"
  />
</svg>
