<svg width="25" height="24" viewBox="0 0 25 24" fill="none" xmlns="http://www.w3.org/2000/svg">
  <path
    d="M19.7411 5.6H17.5651V4H14.3651V5.6H11.1651V4H7.96515V5.6H5.78915C5.5112 5.60202 5.24582 5.71608 5.05307 5.91635C4.86033 6.11662 4.75652 6.38618 4.76515 6.664V18.968C4.76513 19.5348 5.22232 19.9956 5.78915 20H19.7411C20.3079 19.9956 20.7651 19.5348 20.7651 18.968V6.664C20.7737 6.38618 20.6699 6.11662 20.4772 5.91635C20.2844 5.71608 20.019 5.60202 19.7411 5.6ZM15.2131 14.4V12.8H16.8131V14.4H15.2131ZM16.8131 15.2V16.8H15.2131V15.2H16.8131ZM12.0131 14.4V12.8H13.6131V14.4H12.0131ZM13.6131 15.2V16.8H11.9651V15.2H13.6131ZM8.76515 14.4V12.8H10.3651V14.4H8.76515ZM10.3651 15.2V16.8H8.76515V15.2H10.3651ZM6.36515 7.2H7.96515V8.8H11.1651V7.2H14.3651V8.8H17.5651V7.2H19.1651V9.6H6.36515V7.2Z"
    fill="#FF6600"
  />
</svg>
