<svg
  width="24"
  height="24"
  viewBox="0 0 24 24"
  fill="none"
  xmlns="http://www.w3.org/2000/svg"
>
  <path
    d="M18.856 9.096L18.728 9H19.12C19.5618 9 19.92 8.64183 19.92 8.2C19.92 7.75817 19.5618 7.4 19.12 7.4H17.64C17.434 6.02114 16.2502 5.00055 14.856 5H9.184C7.78985 5.00055 6.60595 6.02114 6.4 7.4H4.8C4.35817 7.4 4 7.75817 4 8.2C4 8.64183 4.35817 9 4.8 9H5.464C5.3518 9.0839 5.24493 9.1748 5.144 9.272C4.55617 9.8493 4.15727 10.5913 4 11.4V15.176C4 15.8142 4.33781 16.4047 4.888 16.728V18.6C4.888 19.0418 5.24617 19.4 5.688 19.4H7.288C7.72983 19.4 8.088 19.0418 8.088 18.6V17H15.888V18.6C15.888 19.0418 16.2462 19.4 16.688 19.4H18.288C18.7298 19.4 19.088 19.0418 19.088 18.6V16.744C19.6612 16.4171 20.0108 15.8038 20 15.144V11.4C19.9154 10.5173 19.5081 9.6969 18.856 9.096ZM5.6 15.176V11.568C5.70756 11.1329 5.9348 10.7366 6.256 10.424C6.58136 10.105 6.99292 9.8881 7.44 9.8H16.632C17.06 9.8283 17.4659 10.0002 17.784 10.288C18.1205 10.6025 18.338 11.0236 18.4 11.48V15.176C18.4 15.2909 18.3069 15.384 18.192 15.384H5.808C5.75283 15.384 5.69993 15.3621 5.66092 15.3231C5.62191 15.2841 5.6 15.2312 5.6 15.176ZM13.6 12.2C14.0418 12.2 14.4 12.5582 14.4 13C14.4 13.4418 14.0418 13.8 13.6 13.8H10.48C10.0382 13.8 9.68 13.4418 9.68 13C9.68 12.5582 10.0382 12.2 10.48 12.2H13.6ZM7.288 12.168C7.72983 12.168 8.088 12.5262 8.088 12.968C8.088 13.4098 7.72983 13.768 7.288 13.768C6.84617 13.768 6.488 13.4098 6.488 12.968C6.488 12.5262 6.84617 12.168 7.288 12.168ZM16.688 12.168C17.1298 12.168 17.488 12.5262 17.488 12.968C17.488 13.4098 17.1298 13.768 16.688 13.768C16.2462 13.768 15.888 13.4098 15.888 12.968C15.888 12.5262 16.2462 12.168 16.688 12.168ZM14.856 6.6C15.1827 6.6 15.4961 6.7298 15.7272 6.96084C15.9582 7.19189 16.088 7.50525 16.088 7.832V8.2H7.95197V7.84C7.94987 7.51187 8.07873 7.19645 8.31 6.96367C8.54128 6.73089 8.85586 6.6 9.184 6.6H14.856Z"
    fill="#FF6600"
  />
</svg>
