<svg width="25" height="24" viewBox="0 0 25 24" fill="none" xmlns="http://www.w3.org/2000/svg">
  <path
    d="M19.6206 9.096L19.4926 9H19.8846C20.3264 9 20.6846 8.64183 20.6846 8.2C20.6846 7.75817 20.3264 7.4 19.8846 7.4H18.4046C18.1986 6.02114 17.0148 5.00055 15.6206 5H9.94865C8.5545 5.00055 7.3706 6.02114 7.16465 7.4H5.56465C5.12282 7.4 4.76465 7.75817 4.76465 8.2C4.76465 8.64183 5.12282 9 5.56465 9H6.22865C6.11645 9.0839 6.00958 9.1748 5.90865 9.272C5.32082 9.8493 4.92192 10.5913 4.76465 11.4V15.176C4.76465 15.8142 5.10246 16.4047 5.65265 16.728V18.6C5.65265 19.0418 6.01082 19.4 6.45265 19.4H8.05265C8.49448 19.4 8.85265 19.0418 8.85265 18.6V17H16.6526V18.6C16.6526 19.0418 17.0108 19.4 17.4526 19.4H19.0526C19.4944 19.4 19.8526 19.0418 19.8526 18.6V16.744C20.4258 16.4171 20.7754 15.8038 20.7646 15.144V11.4C20.68 10.5173 20.2727 9.6969 19.6206 9.096ZM6.36465 15.176V11.568C6.47221 11.1329 6.69945 10.7366 7.02065 10.424C7.34601 10.105 7.75757 9.8881 8.20465 9.8H17.3966C17.8246 9.8283 18.2305 10.0002 18.5486 10.288C18.8851 10.6025 19.1026 11.0236 19.1646 11.48V15.176C19.1646 15.2909 19.0715 15.384 18.9566 15.384H6.57265C6.51748 15.384 6.46458 15.3621 6.42557 15.3231C6.38656 15.2841 6.36465 15.2312 6.36465 15.176ZM14.3646 12.2C14.8064 12.2 15.1646 12.5582 15.1646 13C15.1646 13.4418 14.8064 13.8 14.3646 13.8H11.2446C10.8028 13.8 10.4446 13.4418 10.4446 13C10.4446 12.5582 10.8028 12.2 11.2446 12.2H14.3646ZM8.05265 12.168C8.49448 12.168 8.85265 12.5262 8.85265 12.968C8.85265 13.4098 8.49448 13.768 8.05265 13.768C7.61082 13.768 7.25265 13.4098 7.25265 12.968C7.25265 12.5262 7.61082 12.168 8.05265 12.168ZM17.4526 12.168C17.8944 12.168 18.2526 12.5262 18.2526 12.968C18.2526 13.4098 17.8944 13.768 17.4526 13.768C17.0108 13.768 16.6526 13.4098 16.6526 12.968C16.6526 12.5262 17.0108 12.168 17.4526 12.168ZM15.6206 6.6C15.9473 6.6 16.2607 6.7298 16.4918 6.96084C16.7228 7.19189 16.8526 7.50525 16.8526 7.832V8.2H8.71662V7.84C8.71452 7.51187 8.84338 7.19645 9.07465 6.96367C9.30593 6.73089 9.62051 6.6 9.94865 6.6H15.6206Z"
    fill="#FF6600"
  />
</svg>
