<svg width="25" height="24" viewBox="0 0 25 24" fill="none" xmlns="http://www.w3.org/2000/svg">
  <path
    d="M19.6206 9.096L19.4926 9H19.8846C20.3264 9 20.6846 8.64183 20.6846 8.2C20.6846 7.75817 20.3264 7.4 19.8846 7.4H18.4046C18.1986 6.02114 17.0148 5.00055 15.6206 5H9.94865C8.5545 5.00055 7.3706 6.02114 7.16465 7.4H5.56465C5.12282 7.4 4.76465 7.75817 4.76465 8.2C4.76465 8.64183 5.12282 9 5.56465 9H6.22865C6.11645 9.0839 6.00958 9.1748 5.90865 9.272C5.32082 9.8493 4.92192 10.5913 4.76465 11.4V15.176C4.76465 15.8142 5.10246 16.4047 5.65265 16.728V18.6C5.65265 19.0418 6.01082 19.4 6.45265 19.4H8.05265C8.49448 19.4 8.85265 19.0418 8.85265 18.6V17H16.6526V18.6C16.6526 19.0418 17.0108 19.4 17.4526 19.4H19.0526C19.4944 19.4 19.8526 19.0418 19.8526 18.6V16.744C20.4258 16.4171 20.7754 15.8038 20.7646 15.144V11.4C20.68 10.5173 20.2727 9.6969 19.6206 9.096ZM15.1646 13C15.1646 13.4418 14.8064 13.8 14.3646 13.8H11.2446C10.8028 13.8 10.4446 13.4418 10.4446 13C10.4446 12.5582 10.8028 12.2 11.2446 12.2H14.3646C14.8064 12.2 15.1646 12.5582 15.1646 13ZM8.05265 12.2C8.49448 12.2 8.85265 12.5582 8.85265 13C8.85265 13.4418 8.49448 13.8 8.05265 13.8C7.61082 13.8 7.25265 13.4418 7.25265 13C7.25265 12.5582 7.61082 12.2 8.05265 12.2ZM17.4526 12.2C17.8944 12.2 18.2526 12.5582 18.2526 13C18.2526 13.4418 17.8944 13.8 17.4526 13.8C17.0108 13.8 16.6526 13.4418 16.6526 13C16.6526 12.5582 17.0108 12.2 17.4526 12.2ZM8.71662 7.84C8.71452 7.51187 8.84338 7.19645 9.07465 6.96367C9.30593 6.73089 9.62051 6.6 9.94865 6.6H15.6206C15.9473 6.6 16.2607 6.7298 16.4918 6.96084C16.7228 7.19189 16.8526 7.50525 16.8526 7.832V8.2H8.71662V7.84Z"
    fill="#FF6600"
  />
</svg>
