<svg viewBox="0 0 258 41">
  <path
    d="M33.1 18.3H26.6C25.8 18.3 24.9 18.7 24.3 19.3L18.3 25.3C17.7 26 17.3 26.8 17.3 27.7V34.1C17.3 35.4 16.2 36.5 14.9 36.5H8.40001C7.50001 36.5 6.60001 36.9 6.00001 37.5L3.20001 40.3C2.50001 41.1 1.20001 41.1 0.500008 40.3C-0.199992 39.5 -0.0999914 38.3 0.600009 37.6L3.30001 34.9C3.90001 34.2 4.30001 33.4 4.30001 32.5V26C4.30001 24.7 5.40001 23.6 6.70001 23.6H13.2C14.1 23.6 15 23.2 15.6 22.6L21.6 16.6C22.2 15.9 22.6 15.1 22.6 14.2V7.69999C22.6 6.39999 23.7 5.29999 25 5.29999H31.4C32.3 5.29999 33.2 4.89999 33.8 4.29999L36.6 1.49999C37.3 0.699994 38.6 0.699994 39.3 1.49999C40 2.29999 39.9 3.49999 39.2 4.19999L36.5 6.89999C35.9 7.59999 35.5 8.39999 35.5 9.29999V15.9C35.5 17.2 34.4 18.3 33.1 18.3Z"
    fill="currentColor"
  ></path>
  <path
    d="M5.90001 18.9L3.20001 21.6C2.40001 22.4 1.20001 22.4 0.500008 21.6C-0.199992 20.9 -0.0999914 19.7 0.600009 19L3.30001 16.3C4.00001 15.7 4.30001 14.9 4.30001 14V7.6C4.30001 6.4 5.30001 5.3 6.60001 5.3H13C13.8 5.3 14.7 4.9 15.3 4.3L18 1.6C18.8 0.8 20 0.8 20.7 1.6C21.4 2.3 21.3 3.5 20.6 4.2L17.9 6.9C17.2 7.5 16.9 8.3 16.9 9.2V15.6C16.9 16.8 15.9 17.9 14.6 17.9H8.20001C7.40001 17.9 6.50001 18.3 5.90001 18.9Z"
    fill="currentColor"
  ></path>
  <path d="M209.9 36.3H215.8V3.39999H209.9V36.3Z" fill="currentColor"></path>
  <path d="M138.4 9.5H129.1V36.3H123V9.5H113.8V4.5H138.4V9.5Z" fill="currentColor"></path>
  <path
    d="M62.5 37.5C53.4 37.5 48 30.7 48 21.1C48 11.6 53.5 4.60001 62.5 4.60001C70.4 4.60001 75.2 9.00001 76.1 15.7H69.7C68.9 11.9 66.4 9.50001 62.6 9.50001H62.2C57.3 9.50001 54.3 14.5 54.3 21.1C54.3 27.6 57.3 32.6 62.2 32.6H62.6C66.8 32.6 69.2 29.6 69.7 26.5H76.1C75.6 32.5 71 37.5 62.5 37.5Z"
    fill="currentColor"
  ></path>
  <path
    fill-rule="evenodd"
    clip-rule="evenodd"
    d="M98.7 21.8V30.8C98.7 31.9 98.8 32.2 99.9 32.2C100.3 32.2 100.7 32.2 101 32.1V36.9C101 36.9 99.1 37.2 97.6 37.2C95 37.2 94 36 94 33.6V33.4L93.4 33.3C92.1 36.2 88.7 37.5 85.9 37.5C84 37.5 82.3 37 81 36C79.5 34.9 78.6 33.2 78.6 30.9C78.6 28.7 79.5 26.9 81.1 25.7C82.4 24.8 84.1 24.2 86.3 23.9L88 23.6C91 23.2 92.8 22.6 92.8 20.7C92.8 19 91.4 18.1 89.1 18.1C86.8 18.1 85.2 19.4 85 21.8H79.1C79.2 16.8 83.2 13.9 89.1 13.9C95.2 13.9 98.7 16 98.7 21.8ZM89.5 27L88 27.4C86.9 27.7 86 28 85.4 28.6C84.9 29 84.6 29.7 84.6 30.5C84.6 31.3 84.9 31.9 85.3 32.3C85.9 32.9 86.7 33.2 87.7 33.2C90.1 33.2 93.1 31.6 93.1 27.3V24.5C92.5 26 91 26.7 89.5 27Z"
    fill="currentColor"
  ></path>
  <path
    d="M109.2 25C109.2 21.3 111 19.9 113.9 19.9C114.618 19.9 115.491 20.0032 116.297 20.0984C116.613 20.1357 116.918 20.1718 117.2 20.2V13.8H116.1C112.6 13.8 110.3 14.5 109.1 18.2L108.4 18C108.9 16.7 109 16 109 14.8V14H103.2V36.2H109.2V25Z"
    fill="currentColor"
  ></path>
  <path
    d="M139.7 25C139.7 21.3 141.5 19.9 144.4 19.9C145.118 19.9 145.991 20.0032 146.797 20.0984C147.113 20.1357 147.418 20.1718 147.7 20.2V13.8H146.6C143.1 13.8 140.8 14.5 139.6 18.2L138.9 18C139.4 16.7 139.5 16 139.5 14.8V14H133.7V36.2H139.7V25Z"
    fill="currentColor"
  ></path>
  <path
    fill-rule="evenodd"
    clip-rule="evenodd"
    d="M170.2 21.8V30.8C170.2 31.9 170.3 32.2 171.4 32.2C171.8 32.2 172.2 32.2 172.5 32.1V36.9C172.5 36.9 170.6 37.2 169.1 37.2C166.5 37.2 165.5 36 165.5 33.6V33.4L164.9 33.3C163.6 36.2 160.2 37.5 157.4 37.5C155.6 37.5 153.9 37 152.6 36C151.1 34.9 150.2 33.2 150.2 30.9C150.2 28.7 151.1 26.9 152.7 25.7C154 24.8 155.7 24.2 157.9 23.9L159.7 23.7C162.7 23.3 164.5 22.7 164.5 20.8C164.5 19.1 163.1 18.2 160.8 18.2C158.5 18.2 156.9 19.5 156.7 21.9H150.8C150.9 16.9 154.9 14 160.8 14C166.8 13.9 170.2 16 170.2 21.8ZM161 27L159.5 27.4C158.4 27.7 157.5 28 156.9 28.6C156.4 29 156.1 29.7 156.1 30.5C156.1 31.3 156.4 31.9 156.8 32.3C157.4 32.9 158.2 33.2 159.2 33.2C161.6 33.2 164.6 31.6 164.6 27.3V24.5C164 26 162.5 26.7 161 27Z"
    fill="currentColor"
  ></path>
  <path
    d="M199.9 36.3L206.4 13.9H200.4L197.5 24.5C196.9 26.4 196.6 28.5 196.5 30.2H195.8C195.63 28.8369 195.242 27.1109 194.883 25.5167L194.883 25.5157C194.821 25.239 194.759 24.9662 194.7 24.7L192.3 13.9H186.7L184.2 24.5C183.7 26.4 183.3 28.4 183.1 30.2H182.4C182.3 28.3 182 26.4 181.5 24.5L178.5 13.9H172.4L178.9 36.3H185.7L188.1 26.5C188.6 24.4 189 22.5 189.1 20.5H189.8C190 22.4 190.3 24.4 190.8 26.5L193.2 36.3H199.9Z"
    fill="currentColor"
  ></path>
  <path
    fill-rule="evenodd"
    clip-rule="evenodd"
    d="M239.9 26.9V25.8C239.9 18.5 235.7 13.9 229.1 13.9C222.6 13.9 218.1 18.4 218.1 25.7C218.1 32.6 222.3 37.4 229.3 37.4C235 37.4 239.6 34 240.4 29.1H234.4C234.1 31 232.2 32.8 229.6 32.8H229.4C226.2 32.8 224.1 30.4 224 27.1V27L239.9 26.9ZM229.4 18.1C232.3 18.1 233.9 20.4 234.2 23.2H224C224.2 20.4 226.1 18.1 229 18.1H229.4Z"
    fill="currentColor"
  ></path>
  <path
    d="M254.6 19.9C251.7 19.9 249.9 21.3 249.9 25V36.2H243.9V14H249.7V14.8C249.7 16 249.6 16.7 249.1 18L249.8 18.2C251 14.5 253.3 13.8 256.8 13.8H257.9V20.2C257.613 20.1713 257.31 20.1344 256.997 20.0963C256.22 20.0017 255.384 19.9 254.6 19.9Z"
    fill="currentColor"
  ></path>
  <path
    d="M36.7 19.2L34 21.9C33.4 22.5 32.5 22.9 31.7 22.9H25.3C24 22.9 23 23.9 23 25.2V31.6C23 32.5 22.7 33.3 22 33.9L19.3 36.6C18.6 37.3 18.5 38.5 19.2 39.2C19.9 40 21.1 40 21.9 39.2L24.6 36.5C25.2 35.9 26.1 35.5 26.9 35.5H33.3C34.6 35.5 35.6 34.4 35.6 33.2V26.9C35.6 26 35.9 25.2 36.6 24.6L39.3 21.9C40 21.1 40.1 20 39.4 19.2C38.7 18.5 37.5 18.5 36.7 19.2Z"
    fill="currentColor"
  ></path>
</svg>
