<svg width="25" height="24" viewBox="0 0 25 24" fill="none" xmlns="http://www.w3.org/2000/svg">
  <path
    d="M18.6124 4.6001C19.1831 4.6001 19.7305 4.82683 20.1341 5.2304C20.5376 5.63398 20.7644 6.18135 20.7644 6.7521V14.0001C20.7556 15.1824 19.7947 16.1361 18.6124 16.1361H12.9644L10.2684 19.1041C10.1172 19.2717 9.90217 19.3676 9.67642 19.3681C9.57764 19.3689 9.47969 19.3499 9.38842 19.3121C9.0807 19.1934 8.8774 18.8979 8.87642 18.5681V16.1681H6.90842C5.72433 16.1681 4.76429 15.2082 4.76429 14.0241V6.7761C4.75801 6.2012 4.98191 5.64765 5.38618 5.23887C5.79046 4.83008 6.3415 4.6001 6.91642 4.6001H18.6124ZM18.6204 6.2241H6.91642C6.61156 6.2241 6.36436 6.47124 6.36436 6.7761V14.0241C6.36207 14.174 6.4217 14.3183 6.52923 14.4228C6.63675 14.5272 6.78264 14.5827 6.93242 14.5761H9.33242C9.96424 14.5761 10.4764 15.0883 10.4764 15.7201V16.5201L11.9164 14.9201C12.1326 14.6843 12.4365 14.5482 12.7564 14.5441H18.6124C18.758 14.5462 18.8985 14.4899 19.0022 14.3876C19.106 14.2854 19.1644 14.1458 19.1644 14.0001V6.7761C19.1644 6.47433 18.9221 6.22847 18.6204 6.2241ZM17.2204 12.0001C17.4148 12.0001 17.5724 12.1577 17.5724 12.3521C17.5724 12.5465 17.4148 12.7041 17.2204 12.7041H8.30842C8.11402 12.7041 7.95642 12.5465 7.95642 12.3521C7.95642 12.1577 8.11402 12.0001 8.30842 12.0001H17.2204ZM17.2204 9.9681C17.4116 9.9724 17.5644 10.1288 17.5644 10.3201C17.5644 10.5101 17.4104 10.6641 17.2204 10.6641H8.30842C8.11844 10.6641 7.96442 10.5101 7.96442 10.3201C7.96442 10.1288 8.11715 9.9724 8.30842 9.9681H17.2204ZM12.7644 7.9121C12.9364 7.93825 13.0635 8.08613 13.0635 8.2601C13.0635 8.43407 12.9364 8.58195 12.7644 8.6081H8.30842C8.13643 8.58195 8.00934 8.43407 8.00934 8.2601C8.00934 8.08613 8.13643 7.93825 8.30842 7.9121H12.7644Z"
    fill="#FF6600"
  />
</svg>
