<svg
  width="24"
  height="24"
  viewBox="0 0 24 24"
  fill="none"
  xmlns="http://www.w3.org/2000/svg"
>
  <path
    d="M17.8478 4.6001C18.4185 4.6001 18.9659 4.82683 19.3695 5.2304C19.773 5.63398 19.9998 6.18135 19.9998 6.7521V14.0001C19.991 15.1824 19.0301 16.1361 17.8478 16.1361H12.1998L9.50377 19.1041C9.35253 19.2717 9.13752 19.3676 8.91177 19.3681C8.81299 19.3689 8.71504 19.3499 8.62377 19.3121C8.31605 19.1934 8.11275 18.8979 8.11177 18.5681V16.1681H6.14377C4.95968 16.1681 3.99964 15.2082 3.99964 14.0241V6.7761C3.99336 6.2012 4.21726 5.64765 4.62153 5.23887C5.02581 4.83008 5.57685 4.6001 6.15177 4.6001H17.8478ZM17.8558 6.2241H6.15177C5.84691 6.2241 5.59971 6.47124 5.59971 6.7761V14.0241C5.59742 14.174 5.65705 14.3183 5.76458 14.4228C5.8721 14.5272 6.01799 14.5827 6.16777 14.5761H8.56777C9.19959 14.5761 9.71177 15.0883 9.71177 15.7201V16.5201L11.1518 14.9201C11.368 14.6843 11.6719 14.5482 11.9918 14.5441H17.8478C17.9934 14.5462 18.1339 14.4899 18.2376 14.3876C18.3414 14.2854 18.3998 14.1458 18.3998 14.0001V6.7761C18.3998 6.47433 18.1575 6.22847 17.8558 6.2241ZM16.4558 12.0001C16.6502 12.0001 16.8078 12.1577 16.8078 12.3521C16.8078 12.5465 16.6502 12.7041 16.4558 12.7041H7.54377C7.34937 12.7041 7.19177 12.5465 7.19177 12.3521C7.19177 12.1577 7.34937 12.0001 7.54377 12.0001H16.4558ZM16.4558 9.9681C16.647 9.9724 16.7998 10.1288 16.7998 10.3201C16.7998 10.5101 16.6458 10.6641 16.4558 10.6641H7.54377C7.35379 10.6641 7.19977 10.5101 7.19977 10.3201C7.19977 10.1288 7.3525 9.9724 7.54377 9.9681H16.4558ZM11.9998 7.9121C12.1718 7.93825 12.2989 8.08613 12.2989 8.2601C12.2989 8.43407 12.1718 8.58195 11.9998 8.6081H7.54377C7.37178 8.58195 7.24469 8.43407 7.24469 8.2601C7.24469 8.08613 7.37178 7.93825 7.54377 7.9121H11.9998Z"
    fill="#FF6600"
  />
</svg>
