<svg width="25" height="24" viewBox="0 0 25 24" fill="none" xmlns="http://www.w3.org/2000/svg">
  <path
    d="M18.6127 4.6001H6.91677C6.3425 4.60221 5.79272 4.83291 5.38891 5.24123C4.9851 5.64954 4.76051 6.20185 4.76471 6.7761V14.0241C4.76471 15.2082 5.72467 16.1681 6.90877 16.1681H8.87677V18.5681C8.87774 18.8979 9.08105 19.1934 9.38877 19.3121C9.48004 19.3499 9.57798 19.3689 9.67677 19.3681C9.90251 19.3676 10.1175 19.2717 10.2688 19.1041L12.9647 16.1361H18.6127C19.795 16.1361 20.7559 15.1824 20.7647 14.0001V6.7521C20.7647 6.18135 20.538 5.63398 20.1344 5.2304C19.7308 4.82683 19.1835 4.6001 18.6127 4.6001ZM8.30877 7.9121H12.7647C12.9367 7.93825 13.0638 8.08613 13.0638 8.2601C13.0638 8.43407 12.9367 8.58195 12.7647 8.6081H8.30877C8.13677 8.58195 8.00968 8.43407 8.00968 8.2601C8.00968 8.08613 8.13677 7.93825 8.30877 7.9121ZM17.2207 12.7121H8.30877C8.11436 12.7121 7.95677 12.5545 7.95677 12.3601C7.95677 12.1657 8.11436 12.0081 8.30877 12.0081H17.2207C17.4151 12.0081 17.5727 12.1657 17.5727 12.3601C17.5727 12.5545 17.4151 12.7121 17.2207 12.7121ZM17.2207 10.6481H8.30877C8.12486 10.6483 7.97332 10.5038 7.96477 10.3201C7.96477 10.1288 8.11749 9.9724 8.30877 9.9681H17.2207C17.412 9.9724 17.5647 10.1288 17.5647 10.3201C17.5647 10.5101 17.4107 10.6641 17.2207 10.6641V10.6481Z"
    fill="#FF6600"
  />
</svg>
