<svg
  width="24"
  height="24"
  viewBox="0 0 24 24"
  fill="none"
  xmlns="http://www.w3.org/2000/svg"
>
  <path
    d="M17.8481 4.6001H6.15212C5.57785 4.60221 5.02807 4.83291 4.62426 5.24123C4.22045 5.64954 3.99586 6.20185 4.00006 6.7761V14.0241C4.00006 15.2082 4.96002 16.1681 6.14412 16.1681H8.11212V18.5681C8.11309 18.8979 8.3164 19.1934 8.62412 19.3121C8.71539 19.3499 8.81333 19.3689 8.91212 19.3681C9.13786 19.3676 9.35287 19.2717 9.50412 19.1041L12.2001 16.1361H17.8481C19.0304 16.1361 19.9913 15.1824 20.0001 14.0001V6.7521C20.0001 6.18135 19.7734 5.63398 19.3698 5.2304C18.9662 4.82683 18.4189 4.6001 17.8481 4.6001ZM7.54412 7.9121H12.0001C12.1721 7.93825 12.2992 8.08613 12.2992 8.2601C12.2992 8.43407 12.1721 8.58195 12.0001 8.6081H7.54412C7.37212 8.58195 7.24503 8.43407 7.24503 8.2601C7.24503 8.08613 7.37212 7.93825 7.54412 7.9121ZM16.4561 12.7121H7.54412C7.34971 12.7121 7.19212 12.5545 7.19212 12.3601C7.19212 12.1657 7.34971 12.0081 7.54412 12.0081H16.4561C16.6505 12.0081 16.8081 12.1657 16.8081 12.3601C16.8081 12.5545 16.6505 12.7121 16.4561 12.7121ZM16.4561 10.6481H7.54412C7.36021 10.6483 7.20867 10.5038 7.20012 10.3201C7.20012 10.1288 7.35284 9.9724 7.54412 9.9681H16.4561C16.6474 9.9724 16.8001 10.1288 16.8001 10.3201C16.8001 10.5101 16.6461 10.6641 16.4561 10.6641V10.6481Z"
    fill="#FF6600"
  />
</svg>
