<svg width="25" height="24" viewBox="0 0 25 24" fill="none" xmlns="http://www.w3.org/2000/svg">
  <path
    fill-rule="evenodd"
    clip-rule="evenodd"
    d="M12.7646 1C6.68937 1 1.76465 5.92472 1.76465 12C1.76465 18.0753 6.68937 23 12.7646 23C18.8399 23 23.7646 18.0753 23.7646 12C23.7646 5.92472 18.8399 1 12.7646 1ZM16.4717 10.7071C16.8622 10.3166 16.8622 9.68342 16.4717 9.29289C16.0812 8.90237 15.448 8.90237 15.0575 9.29289L11.7646 12.5858L10.4718 11.2929C10.0812 10.9024 9.44807 10.9024 9.05754 11.2929C8.66702 11.6834 8.66702 12.3166 9.05754 12.7071L11.0575 14.7071C11.448 15.0976 12.0812 15.0976 12.4717 14.7071L16.4717 10.7071Z"
    fill="#FF6600"
  />
</svg>
