<svg
  width="24"
  height="24"
  viewBox="0 0 24 24"
  fill="none"
  xmlns="http://www.w3.org/2000/svg"
>
  <path
    d="M2.19123 6.60418C2.4451 6.35182 2.8551 6.35182 3.10897 6.60418L5.58233 9.0775H7.7693L10.2427 6.60418C10.4965 6.35182 10.9065 6.35182 11.1604 6.60418C11.4043 6.85646 11.4043 7.25663 11.1604 7.50891L8.62846 10.0408V17.8514C8.62846 18.2109 8.33705 18.5023 7.97758 18.5023C7.61811 18.5023 7.32669 18.2109 7.32669 17.8514V14.2065H6.02493V17.8514C6.02493 18.2109 5.73352 18.5023 5.37405 18.5023C5.01457 18.5023 4.72316 18.2109 4.72316 17.8514V10.0408L2.19123 7.52192C1.93886 7.26805 1.93886 6.85805 2.19123 6.60418ZM6.67581 5.49768C7.57449 5.49768 8.30302 6.2262 8.30302 7.12488C8.30302 8.02357 7.57449 8.75209 6.67581 8.75209C5.77713 8.75209 5.0486 8.02357 5.0486 7.12488C5.0486 6.2262 5.77713 5.49768 6.67581 5.49768Z"
    fill="#FF6600"
  />
  <path
    d="M12.846 6.60418C13.0999 6.35182 13.5099 6.35182 13.7637 6.60418L16.2371 9.0775H18.4241L20.8974 6.60418C21.1513 6.35182 21.5613 6.35182 21.8152 6.60418C22.059 6.85646 22.059 7.25663 21.8152 7.50891L19.2832 10.0408V17.8514C19.2832 18.2109 18.9918 18.5023 18.6323 18.5023C18.2729 18.5023 17.9815 18.2109 17.9815 17.8514V14.2065H16.6797V17.8514C16.6797 18.2109 16.3883 18.5023 16.0288 18.5023C15.6693 18.5023 15.3779 18.2109 15.3779 17.8514V10.0408L12.846 7.52192C12.5936 7.26805 12.5936 6.85805 12.846 6.60418ZM17.3306 5.49768C18.2293 5.49768 18.9578 6.2262 18.9578 7.12488C18.9578 8.02357 18.2293 8.75209 17.3306 8.75209C16.4319 8.75209 15.7034 8.02357 15.7034 7.12488C15.7034 6.2262 16.4319 5.49768 17.3306 5.49768Z"
    fill="#FF6600"
  />
</svg>
