<svg width="25" height="24" viewBox="0 0 25 24" fill="none" xmlns="http://www.w3.org/2000/svg">
  <path
    d="M2.95588 6.60406C3.20975 6.3517 3.61975 6.3517 3.87362 6.60406L6.34698 9.07738H8.53395L11.0073 6.60406C11.2611 6.3517 11.6712 6.3517 11.925 6.60406C12.169 6.85634 12.169 7.25651 11.925 7.50879L9.39311 10.0407V17.8513C9.39311 18.2108 9.1017 18.5022 8.74223 18.5022C8.38276 18.5022 8.09134 18.2108 8.09134 17.8513V14.2064H6.78958V17.8513C6.78958 18.2108 6.49817 18.5022 6.1387 18.5022C5.77922 18.5022 5.48781 18.2108 5.48781 17.8513V10.0407L2.95588 7.5218C2.70351 7.26793 2.70351 6.85793 2.95588 6.60406ZM7.44046 5.49756C8.33914 5.49756 9.06767 6.22608 9.06767 7.12476C9.06767 8.02345 8.33914 8.75197 7.44046 8.75197C6.54178 8.75197 5.81325 8.02345 5.81325 7.12476C5.81325 6.22608 6.54178 5.49756 7.44046 5.49756Z"
    fill="#FF6600"
  />
  <path
    d="M13.6107 6.60406C13.8646 6.3517 14.2746 6.3517 14.5284 6.60406L17.0018 9.07738H19.1888L21.6621 6.60406C21.916 6.3517 22.326 6.3517 22.5799 6.60406C22.8237 6.85634 22.8237 7.25651 22.5799 7.50879L20.0479 10.0407V17.8513C20.0479 18.2108 19.7565 18.5022 19.397 18.5022C19.0376 18.5022 18.7462 18.2108 18.7462 17.8513V14.2064H17.4444V17.8513C17.4444 18.2108 17.153 18.5022 16.7935 18.5022C16.434 18.5022 16.1426 18.2108 16.1426 17.8513V10.0407L13.6107 7.5218C13.3583 7.26793 13.3583 6.85793 13.6107 6.60406ZM18.0953 5.49756C18.994 5.49756 19.7225 6.22608 19.7225 7.12476C19.7225 8.02345 18.994 8.75197 18.0953 8.75197C17.1966 8.75197 16.4681 8.02345 16.4681 7.12476C16.4681 6.22608 17.1966 5.49756 18.0953 5.49756Z"
    fill="#FF6600"
  />
</svg>
