<svg
  width="24"
  height="24"
  viewBox="0 0 24 24"
  fill="none"
  xmlns="http://www.w3.org/2000/svg"
>
  <path
    d="M6.24314 5.36135C6.56926 5.05086 7.09597 5.05086 7.42209 5.36135L10.5994 8.40439H13.4088L16.5861 5.36135C16.9122 5.05086 17.4389 5.05086 17.7651 5.36135C18.0783 5.67173 18.0783 6.16407 17.7651 6.47446L14.5125 9.5896V19.1992C14.5125 19.6415 14.1381 20 13.6764 20C13.2146 20 12.8402 19.6415 12.8402 19.1992V14.7147H11.168V19.1992C11.168 19.6415 10.7936 20 10.3318 20C9.87005 20 9.4957 19.6415 9.4957 19.1992V9.5896L6.24314 6.49048C5.91895 6.17813 5.91895 5.67369 6.24314 5.36135Z"
    fill="#FF6600"
  />
  <path
    d="M12 7.5C13.1046 7.5 14 6.60457 14 5.5C14 4.39543 13.1046 3.5 12 3.5C10.8954 3.5 10 4.39543 10 5.5C10 6.60457 10.8954 7.5 12 7.5Z"
    fill="#FF6600"
  />
</svg>
