<svg width="25" height="24" viewBox="0 0 25 24" fill="none" xmlns="http://www.w3.org/2000/svg">
  <path
    d="M7.00779 5.36129C7.33391 5.0508 7.86062 5.0508 8.18674 5.36129L11.3641 8.40433H14.1735L17.3507 5.36129C17.6769 5.0508 18.2036 5.0508 18.5298 5.36129C18.843 5.67167 18.843 6.16401 18.5298 6.4744L15.2772 9.58954V19.1991C15.2772 19.6414 14.9028 19.9999 14.4411 19.9999C13.9793 19.9999 13.6049 19.6414 13.6049 19.1991V14.7146H11.9327V19.1991C11.9327 19.6414 11.5583 19.9999 11.0965 19.9999C10.6347 19.9999 10.2604 19.6414 10.2604 19.1991V9.58954L7.00779 6.49042C6.6836 6.17807 6.6836 5.67363 7.00779 5.36129Z"
    fill="#FF6600"
  />
  <path
    d="M12.7646 7.5C13.8692 7.5 14.7646 6.60457 14.7646 5.5C14.7646 4.39543 13.8692 3.5 12.7646 3.5C11.66 3.5 10.7646 4.39543 10.7646 5.5C10.7646 6.60457 11.66 7.5 12.7646 7.5Z"
    fill="#FF6600"
  />
</svg>
