<svg width="25" height="24" viewBox="0 0 25 24" fill="none" xmlns="http://www.w3.org/2000/svg">
  <path
    fill-rule="evenodd"
    clip-rule="evenodd"
    d="M20.7646 3H8.76465V17H20.7646V3ZM8.76465 1C7.66008 1 6.76465 1.89543 6.76465 3V17C6.76465 18.1046 7.66008 19 8.76465 19H20.7646C21.8692 19 22.7646 18.1046 22.7646 17V3C22.7646 1.89543 21.8692 1 20.7646 1H8.76465Z"
    fill="#FF6600"
  />
  <path
    fill-rule="evenodd"
    clip-rule="evenodd"
    d="M6.76465 5H4.76465C3.66008 5 2.76465 5.89543 2.76465 7V21C2.76465 22.1046 3.66008 23 4.76465 23H16.7646C17.8692 23 18.7646 22.1046 18.7646 21V19H16.7646V21H4.76465V7H6.76465V5Z"
    fill="#FF6600"
  />
  <path
    fill-rule="evenodd"
    clip-rule="evenodd"
    d="M10.7646 10C10.7646 9.4477 11.2123 9 11.7646 9H17.7646C18.3169 9 18.7646 9.4477 18.7646 10C18.7646 10.5523 18.3169 11 17.7646 11H11.7646C11.2123 11 10.7646 10.5523 10.7646 10Z"
    fill="#FF6600"
  />
  <path
    fill-rule="evenodd"
    clip-rule="evenodd"
    d="M10.7646 6C10.7646 5.44772 11.2123 5 11.7646 5H17.7646C18.3169 5 18.7646 5.44772 18.7646 6C18.7646 6.55228 18.3169 7 17.7646 7H11.7646C11.2123 7 10.7646 6.55228 10.7646 6Z"
    fill="#FF6600"
  />
  <path
    fill-rule="evenodd"
    clip-rule="evenodd"
    d="M10.7646 14C10.7646 13.4477 11.2123 13 11.7646 13H17.7646C18.3169 13 18.7646 13.4477 18.7646 14C18.7646 14.5523 18.3169 15 17.7646 15H11.7646C11.2123 15 10.7646 14.5523 10.7646 14Z"
    fill="#FF6600"
  />
</svg>
