<svg
  width="24"
  height="24"
  viewBox="0 0 24 24"
  fill="none"
  xmlns="http://www.w3.org/2000/svg"
>
  <path
    fill-rule="evenodd"
    clip-rule="evenodd"
    d="M20 3H8V17H20V3ZM8 1C6.89543 1 6 1.89543 6 3V17C6 18.1046 6.89543 19 8 19H20C21.1046 19 22 18.1046 22 17V3C22 1.89543 21.1046 1 20 1H8Z"
    fill="#FF6600"
  />
  <path
    fill-rule="evenodd"
    clip-rule="evenodd"
    d="M6 5H4C2.89543 5 2 5.89543 2 7V21C2 22.1046 2.89543 23 4 23H16C17.1046 23 18 22.1046 18 21V19H16V21H4V7H6V5Z"
    fill="#FF6600"
  />
  <path
    fill-rule="evenodd"
    clip-rule="evenodd"
    d="M10 10C10 9.4477 10.4477 9 11 9H17C17.5523 9 18 9.4477 18 10C18 10.5523 17.5523 11 17 11H11C10.4477 11 10 10.5523 10 10Z"
    fill="#FF6600"
  />
  <path
    fill-rule="evenodd"
    clip-rule="evenodd"
    d="M10 6C10 5.44772 10.4477 5 11 5H17C17.5523 5 18 5.44772 18 6C18 6.55228 17.5523 7 17 7H11C10.4477 7 10 6.55228 10 6Z"
    fill="#FF6600"
  />
  <path
    fill-rule="evenodd"
    clip-rule="evenodd"
    d="M10 14C10 13.4477 10.4477 13 11 13H17C17.5523 13 18 13.4477 18 14C18 14.5523 17.5523 15 17 15H11C10.4477 15 10 14.5523 10 14Z"
    fill="#FF6600"
  />
</svg>
