<svg width="25" height="24" viewBox="0 0 25 24" fill="none" xmlns="http://www.w3.org/2000/svg">
  <path
    fill-rule="evenodd"
    clip-rule="evenodd"
    d="M1.76465 12C1.76465 5.92487 6.68952 1 12.7646 1C18.8397 1 23.7646 5.92487 23.7646 12C23.7646 18.0751 18.8397 23 12.7646 23C6.68952 23 1.76465 18.0751 1.76465 12ZM16.4717 8.29289C16.8622 8.68342 16.8622 9.31658 16.4717 9.70711L14.1788 12L16.4717 14.2929C16.8622 14.6834 16.8622 15.3166 16.4717 15.7071C16.0812 16.0976 15.448 16.0976 15.0575 15.7071L12.7646 13.4142L10.4718 15.7071C10.0812 16.0976 9.44807 16.0976 9.05754 15.7071C8.66702 15.3166 8.66702 14.6834 9.05754 14.2929L11.3504 12L9.05754 9.70711C8.66702 9.31658 8.66702 8.68342 9.05754 8.29289C9.44807 7.90237 10.0812 7.90237 10.4718 8.29289L12.7646 10.5858L15.0575 8.29289C15.448 7.90237 16.0812 7.90237 16.4717 8.29289Z"
    fill="#FF6600"
  />
</svg>
