<svg
  width="24"
  height="24"
  viewBox="0 0 24 24"
  fill="none"
  xmlns="http://www.w3.org/2000/svg"
>
  <path
    d="M21 4.68995H19.5H16.25V3.99995C16.2445 3.28037 15.6596 2.69995 14.94 2.69995H9.05C8.33203 2.69995 7.75 3.28198 7.75 3.99995V4.67995H4.5H3C2.44772 4.67995 2 5.12767 2 5.67995C2 6.23224 2.44772 6.67995 3 6.67995H4.5V20C4.5 20.7234 5.08651 21.3099 5.81 21.3099H18.19C18.9135 21.3099 19.5 20.7234 19.5 20V6.68995H21C21.5523 6.68995 22 6.24224 22 5.68995C22 5.13767 21.5523 4.68995 21 4.68995ZM9.25 17.49C9.25 17.7661 9.02614 17.99 8.75 17.99C8.47386 17.99 8.25 17.7661 8.25 17.49V8.48995C8.25 8.21381 8.47386 7.98995 8.75 7.98995C9.02614 7.98995 9.25 8.21381 9.25 8.48995V17.49ZM12.5 17.49C12.5 17.7661 12.2761 17.99 12 17.99C11.7239 17.99 11.5 17.7661 11.5 17.49V8.48995C11.5 8.21381 11.7239 7.98995 12 7.98995C12.2761 7.98995 12.5 8.21381 12.5 8.48995V17.49ZM15.75 17.49C15.75 17.7661 15.5261 17.99 15.25 17.99C14.9739 17.99 14.75 17.7661 14.75 17.49V8.48995C14.75 8.21381 14.9739 7.98995 15.25 7.98995C15.5239 7.99527 15.7447 8.21604 15.75 8.48995V17.49Z"
    fill="#FF6600"
  />
</svg>
