<svg width="25" height="24" viewBox="0 0 25 24" fill="none" xmlns="http://www.w3.org/2000/svg">
  <path
    d="M15.7046 2.69995C16.4242 2.69995 17.0091 3.28037 17.0146 3.99995V4.68995H21.7646C22.3169 4.68995 22.7646 5.13767 22.7646 5.68995C22.7646 6.24224 22.3169 6.68995 21.7646 6.68995H20.2646V20C20.2646 20.7234 19.6781 21.3099 18.9546 21.3099H6.57465C5.85116 21.3099 5.26465 20.7234 5.26465 20V6.67995H3.76465C3.21237 6.67995 2.76465 6.23224 2.76465 5.67995C2.76465 5.12767 3.21237 4.67995 3.76465 4.67995H8.51465V3.99995C8.51465 3.28198 9.09668 2.69995 9.81465 2.69995H15.7046ZM18.2646 6.68995H7.26465V19.3099H18.2646V6.68995ZM9.51465 7.99995C9.79079 7.99995 10.0146 8.22381 10.0146 8.49995V17.5C10.0146 17.7761 9.79079 18 9.51465 18C9.23851 18 9.01465 17.7761 9.01465 17.5V8.49995C9.01465 8.22381 9.23851 7.99995 9.51465 7.99995ZM12.7646 7.99995C13.0407 7.99995 13.2646 8.22381 13.2646 8.49995V17.5C13.2646 17.7761 13.0407 18 12.7646 18C12.4885 18 12.2646 17.7761 12.2646 17.5V8.49995C12.2646 8.22381 12.4885 7.99995 12.7646 7.99995ZM16.0146 7.98995C16.2885 7.99527 16.5093 8.21604 16.5146 8.48995V17.49C16.5146 17.7661 16.2907 17.99 16.0146 17.99C15.7385 17.99 15.5146 17.7661 15.5146 17.49V8.48995C15.5146 8.21381 15.7385 7.98995 16.0146 7.98995Z"
    fill="#FF6600"
  />
</svg>
