<svg width="25" height="24" viewBox="0 0 25 24" fill="none" xmlns="http://www.w3.org/2000/svg">
  <path
    d="M21.7646 4.68995H20.2646H17.0146V3.99995C17.0091 3.28037 16.4242 2.69995 15.7046 2.69995H9.81465C9.09668 2.69995 8.51465 3.28198 8.51465 3.99995V4.67995H5.26465H3.76465C3.21237 4.67995 2.76465 5.12767 2.76465 5.67995C2.76465 6.23224 3.21237 6.67995 3.76465 6.67995H5.26465V20C5.26465 20.7234 5.85116 21.3099 6.57465 21.3099H18.9546C19.6781 21.3099 20.2646 20.7234 20.2646 20V6.68995H21.7646C22.3169 6.68995 22.7646 6.24224 22.7646 5.68995C22.7646 5.13767 22.3169 4.68995 21.7646 4.68995ZM10.0146 17.49C10.0146 17.7661 9.79079 17.99 9.51465 17.99C9.23851 17.99 9.01465 17.7661 9.01465 17.49V8.48995C9.01465 8.21381 9.23851 7.98995 9.51465 7.98995C9.79079 7.98995 10.0146 8.21381 10.0146 8.48995V17.49ZM13.2646 17.49C13.2646 17.7661 13.0407 17.99 12.7646 17.99C12.4885 17.99 12.2646 17.7661 12.2646 17.49V8.48995C12.2646 8.21381 12.4885 7.98995 12.7646 7.98995C13.0407 7.98995 13.2646 8.21381 13.2646 8.48995V17.49ZM16.5146 17.49C16.5146 17.7661 16.2907 17.99 16.0146 17.99C15.7385 17.99 15.5146 17.7661 15.5146 17.49V8.48995C15.5146 8.21381 15.7385 7.98995 16.0146 7.98995C16.2885 7.99527 16.5093 8.21604 16.5146 8.48995V17.49Z"
    fill="#FF6600"
  />
</svg>
