<svg
  width="24"
  height="24"
  viewBox="0 0 24 24"
  fill="none"
  xmlns="http://www.w3.org/2000/svg"
>
  <path
    d="M14.94 2.69995C15.6596 2.69995 16.2445 3.28037 16.25 3.99995V4.68995H21C21.5523 4.68995 22 5.13767 22 5.68995C22 6.24224 21.5523 6.68995 21 6.68995H19.5V20C19.5 20.7234 18.9135 21.3099 18.19 21.3099H5.81C5.08651 21.3099 4.5 20.7234 4.5 20V6.67995H3C2.44772 6.67995 2 6.23224 2 5.67995C2 5.12767 2.44772 4.67995 3 4.67995H7.75V3.99995C7.75 3.28198 8.33203 2.69995 9.05 2.69995H14.94ZM17.5 6.68995H6.5V19.3099H17.5V6.68995ZM8.75 7.99995C9.02614 7.99995 9.25 8.22381 9.25 8.49995V17.5C9.25 17.7761 9.02614 18 8.75 18C8.47386 18 8.25 17.7761 8.25 17.5V8.49995C8.25 8.22381 8.47386 7.99995 8.75 7.99995ZM12 7.99995C12.2761 7.99995 12.5 8.22381 12.5 8.49995V17.5C12.5 17.7761 12.2761 18 12 18C11.7239 18 11.5 17.7761 11.5 17.5V8.49995C11.5 8.22381 11.7239 7.99995 12 7.99995ZM15.25 7.98995C15.5239 7.99527 15.7447 8.21604 15.75 8.48995V17.49C15.75 17.7661 15.5261 17.99 15.25 17.99C14.9739 17.99 14.75 17.7661 14.75 17.49V8.48995C14.75 8.21381 14.9739 7.98995 15.25 7.98995Z"
    fill="#FF6600"
  />
</svg>
