<svg width="25" height="24" viewBox="0 0 25 24" fill="none" xmlns="http://www.w3.org/2000/svg">
  <path
    d="M21.7644 17.9101C22.3167 17.9101 22.7644 18.3578 22.7644 18.9101C22.7644 19.4624 22.3167 19.9101 21.7644 19.9101H3.76443C3.21214 19.9101 2.76443 19.4624 2.76443 18.9101C2.76443 18.3578 3.21214 17.9101 3.76443 17.9101H21.7644ZM9.53443 4.09011C9.74855 4.08288 9.96125 4.12748 10.1544 4.22011L14.6344 6.48011L17.0744 5.33011C18.4865 4.54368 20.1988 4.5174 21.6344 5.26011C22.3416 5.60147 22.7836 6.32508 22.7644 7.11011C22.7644 8.43011 21.3044 9.0901 20.8344 9.3001L10.5044 14.1501C9.52268 14.5667 8.47838 14.8168 7.41443 14.8901H6.73443C5.40443 14.8901 4.54443 14.4901 4.18443 13.7101C4.01606 13.3646 3.98393 12.9683 4.09443 12.6001L3.03443 11.2801C2.79644 10.9788 2.70882 10.5854 2.79643 10.2116C2.88405 9.8378 3.13734 9.5243 3.48443 9.3601L4.91443 8.69011C5.23397 8.55452 5.59489 8.55452 5.91443 8.69011L8.09443 9.5301L9.09443 9.0801L6.37443 6.34011C6.03123 5.9841 5.92588 5.46125 6.10443 5.00011C6.27953 4.53272 6.7159 4.21429 7.21443 4.19011L9.53443 4.09011ZM9.43443 6.12011H8.98444L11.3144 8.51011C11.5953 8.79918 11.7195 9.2059 11.6481 9.6026C11.5767 9.9992 11.3184 10.3371 10.9544 10.5101L8.76443 11.5101C8.44537 11.6481 8.08349 11.6481 7.76443 11.5101L5.49443 10.6701L5.21443 10.8201L5.93443 11.7201C6.19559 12.0384 6.28176 12.4655 6.16443 12.8601C6.52641 12.9045 6.89245 12.9045 7.25443 12.8601C8.08141 12.8028 8.89444 12.6172 9.66443 12.3101L20.0444 7.45011C20.3081 7.34174 20.5515 7.1896 20.7644 7.00011H20.6344L20.4455 6.92506C19.6194 6.62875 18.7006 6.70831 17.9344 7.15011L15.1544 8.44011C14.8075 8.61012 14.4014 8.61012 14.0544 8.44011L9.43443 6.12011Z"
    fill="#FF6600"
  />
</svg>
