<svg
  width="24"
  height="24"
  viewBox="0 0 24 24"
  fill="none"
  xmlns="http://www.w3.org/2000/svg"
>
  <path
    d="M21 18.41C21.5523 18.41 22 18.8577 22 19.41C22 19.9623 21.5523 20.41 21 20.41H3C2.44772 20.41 2 19.9623 2 19.41C2 18.8577 2.44772 18.41 3 18.41H21ZM9 5.62003L13.77 8.00003C13.8417 8.03916 13.9283 8.03916 14 8.00003L16.73 6.74003C17.8526 6.1112 19.2115 6.07013 20.37 6.63003C20.7507 6.78166 21.0004 7.15023 21 7.56003C21 8.00003 20.56 8.48003 19.66 8.90003L9.31 13.74C8.43533 14.1065 7.50618 14.3261 6.56 14.39H5.96C5.06 14.39 4.5 14.18 4.32 13.78C4.22405 13.5586 4.25461 13.3027 4.4 13.11C4.46501 13.0243 4.46501 12.9058 4.4 12.82L3.08 11.05C3.03308 10.9885 3.01599 10.9093 3.03339 10.8339C3.05079 10.7585 3.10086 10.6948 3.17 10.66L4.6 10C4.66349 9.9709 4.73651 9.9709 4.8 10L7.32 11C7.38421 11.0256 7.45579 11.0256 7.52 11L9.71 10C9.77441 9.9717 9.82459 9.9185 9.84908 9.8526C9.87358 9.7866 9.8703 9.7135 9.84 9.65L6.39 6.15003C6.31703 6.07972 6.29372 5.97232 6.33098 5.87809C6.36823 5.78386 6.45868 5.72144 6.56 5.72003L8.88 5.62003C8.91949 5.61103 8.96051 5.61103 9 5.62003Z"
    fill="#FF6600"
  />
</svg>
