<svg width="25" height="24" viewBox="0 0 25 24" fill="none" xmlns="http://www.w3.org/2000/svg">
  <path
    d="M21.7646 18.41C22.3169 18.41 22.7646 18.8577 22.7646 19.41C22.7646 19.9623 22.3169 20.41 21.7646 20.41H3.76465C3.21237 20.41 2.76465 19.9623 2.76465 19.41C2.76465 18.8577 3.21237 18.41 3.76465 18.41H21.7646ZM9.76465 5.62003L14.5346 8.00003C14.6063 8.03916 14.6929 8.03916 14.7646 8.00003L17.4946 6.74003C18.6172 6.1112 19.9761 6.07013 21.1346 6.63003C21.5153 6.78166 21.765 7.15023 21.7646 7.56003C21.7646 8.00003 21.3246 8.48003 20.4246 8.90003L10.0746 13.74C9.19998 14.1065 8.27083 14.3261 7.32465 14.39H6.72465C5.82465 14.39 5.26465 14.18 5.08465 13.78C4.9887 13.5586 5.01926 13.3027 5.16465 13.11C5.22966 13.0243 5.22966 12.9058 5.16465 12.82L3.84465 11.05C3.79773 10.9885 3.78064 10.9093 3.79804 10.8339C3.81544 10.7585 3.86551 10.6948 3.93465 10.66L5.36465 10C5.42814 9.9709 5.50116 9.9709 5.56465 10L8.08465 11C8.14886 11.0256 8.22044 11.0256 8.28465 11L10.4746 10C10.5391 9.9717 10.5892 9.9185 10.6137 9.8526C10.6382 9.7866 10.6349 9.7135 10.6046 9.65L7.15465 6.15003C7.08168 6.07972 7.05837 5.97232 7.09563 5.87809C7.13288 5.78386 7.22333 5.72144 7.32465 5.72003L9.64465 5.62003C9.68414 5.61103 9.72516 5.61103 9.76465 5.62003Z"
    fill="#FF6600"
  />
</svg>
