<svg
  width="24"
  height="24"
  viewBox="0 0 24 24"
  fill="none"
  xmlns="http://www.w3.org/2000/svg"
>
  <path
    d="M20.9998 17.9101C21.5521 17.9101 21.9998 18.3578 21.9998 18.9101C21.9998 19.4624 21.5521 19.9101 20.9998 19.9101H2.99979C2.4475 19.9101 1.99979 19.4624 1.99979 18.9101C1.99979 18.3578 2.4475 17.9101 2.99979 17.9101H20.9998ZM8.76979 4.09011C8.98391 4.08288 9.19661 4.12748 9.38979 4.22011L13.8698 6.48011L16.3098 5.33011C17.7219 4.54368 19.4342 4.5174 20.8698 5.26011C21.577 5.60147 22.019 6.32508 21.9998 7.11011C21.9998 8.43011 20.5398 9.0901 20.0698 9.3001L9.73979 14.1501C8.75804 14.5667 7.71374 14.8168 6.64979 14.8901H5.96979C4.63979 14.8901 3.77979 14.4901 3.41979 13.7101C3.25142 13.3646 3.21929 12.9683 3.32979 12.6001L2.26979 11.2801C2.0318 10.9788 1.94418 10.5854 2.03179 10.2116C2.11941 9.8378 2.3727 9.5243 2.71979 9.3601L4.14979 8.69011C4.46933 8.55452 4.83025 8.55452 5.14979 8.69011L7.32979 9.5301L8.32979 9.0801L5.60979 6.34011C5.26659 5.9841 5.16124 5.46125 5.33979 5.00011C5.51489 4.53272 5.95126 4.21429 6.44979 4.19011L8.76979 4.09011ZM8.66979 6.12011H8.21979L10.5498 8.51011C10.8307 8.79918 10.9549 9.2059 10.8835 9.6026C10.8121 9.9992 10.5538 10.3371 10.1898 10.5101L7.99979 11.5101C7.68073 11.6481 7.31885 11.6481 6.99979 11.5101L4.72979 10.6701L4.44979 10.8201L5.16979 11.7201C5.43095 12.0384 5.51712 12.4655 5.39979 12.8601C5.76177 12.9045 6.12781 12.9045 6.48979 12.8601C7.31677 12.8028 8.1298 12.6172 8.89979 12.3101L19.2798 7.45011C19.5435 7.34174 19.7869 7.1896 19.9998 7.00011H19.8698L19.6809 6.92506C18.8548 6.62875 17.936 6.70831 17.1698 7.15011L14.3898 8.44011C14.0429 8.61012 13.6368 8.61012 13.2898 8.44011L8.66979 6.12011Z"
    fill="#FF6600"
  />
</svg>
