<svg
  width="24"
  height="24"
  viewBox="0 0 24 24"
  fill="none"
  xmlns="http://www.w3.org/2000/svg"
>
  <path
    d="M18.3722 14.2239C20.3604 14.2239 21.9722 15.8357 21.9722 17.8239C21.9722 19.8122 20.3604 21.4239 18.3722 21.4239C16.384 21.4239 14.7722 19.8122 14.7722 17.8239C14.7722 15.8357 16.384 14.2239 18.3722 14.2239ZM18.3722 15.1239C16.881 15.1239 15.6722 16.3328 15.6722 17.8239C15.6722 19.3151 16.881 20.5239 18.3722 20.5239C19.8634 20.5239 21.0722 19.3151 21.0722 17.8239C21.0722 16.3328 19.8634 15.1239 18.3722 15.1239ZM18.2732 16.0959C18.5217 16.0959 18.7232 16.2974 18.7232 16.5459V17.5629L19.9382 18.7779C20.0234 18.8624 20.0713 18.9774 20.0713 19.0974C20.0713 19.2174 20.0234 19.3324 19.9382 19.4169C19.8526 19.4968 19.7402 19.5418 19.6232 19.5429C19.5058 19.5436 19.3927 19.4984 19.3082 19.4169L17.9582 18.0669C17.8708 17.9857 17.8217 17.8713 17.8232 17.7519V16.5459C17.828 16.2994 18.0267 16.1007 18.2732 16.0959ZM20.9282 11.4699V14.1249C19.5523 13.1754 17.7634 13.0668 16.2828 13.843C14.8022 14.6192 13.8739 16.1522 13.8722 17.8239C13.8783 17.9687 13.8933 18.113 13.9172 18.2559H5.01618C4.36007 18.2559 3.82818 17.724 3.82818 17.0679V11.4699H20.9282ZM7.39218 13.8999C6.93344 13.9049 6.56416 14.2782 6.56418 14.7369C6.5642 15.0763 6.76912 15.382 7.08299 15.511C7.39686 15.64 7.75757 15.5668 7.99622 15.3255C8.23488 15.0843 8.30425 14.7228 8.17186 14.4103C8.03947 14.0979 7.73151 13.8963 7.39218 13.8999ZM13.3322 13.8999H9.73218C9.55159 13.8999 9.37852 13.9723 9.25168 14.1008C9.12483 14.2293 9.05477 14.4034 9.05718 14.5839V14.8899C9.05718 15.2627 9.35939 15.5649 9.73218 15.5649H13.3322C13.7029 15.5601 14.0023 15.2607 14.0072 14.8899V14.5749C14.0023 14.2042 13.7029 13.9048 13.3322 13.8999ZM19.7402 4.57593C20.0616 4.57578 20.3694 4.70587 20.5932 4.93652C20.8171 5.16716 20.9379 5.47866 20.9282 5.79993V8.04993H3.82818V5.79993C3.81844 5.47866 3.93929 5.16716 4.16315 4.93652C4.38701 4.70587 4.69477 4.57578 5.01618 4.57593H19.7402Z"
    fill="#FF6600"
  />
</svg>
