<svg width="25" height="24" viewBox="0 0 25 24" fill="none" xmlns="http://www.w3.org/2000/svg">
  <path
    d="M18.7645 13.25C20.9737 13.25 22.7645 15.0409 22.7645 17.25C22.7645 19.4591 20.9737 21.25 18.7645 21.25C16.5554 21.25 14.7645 19.4591 14.7645 17.25C14.7645 15.0409 16.5554 13.25 18.7645 13.25ZM18.7645 14.25C17.1077 14.25 15.7645 15.5931 15.7645 17.25C15.7645 18.9069 17.1077 20.25 18.7645 20.25C20.4214 20.25 21.7645 18.9069 21.7645 17.25C21.7645 15.5931 20.4214 14.25 18.7645 14.25ZM18.6145 15.34C18.8907 15.34 19.1145 15.5639 19.1145 15.84V17L20.4645 18.29C20.5592 18.3839 20.6124 18.5117 20.6124 18.645C20.6124 18.7783 20.5592 18.9061 20.4645 19C20.3747 19.0918 20.2529 19.1455 20.1245 19.15C19.9894 19.1497 19.8599 19.0957 19.7645 19L18.2645 17.52C18.1674 17.4297 18.1129 17.3026 18.1145 17.17V15.84C18.1145 15.5639 18.3384 15.34 18.6145 15.34ZM19.9745 2.75C20.3246 2.75 20.6604 2.88907 20.9079 3.13662C21.1555 3.38417 21.2945 3.71991 21.2945 4.07V12.99C20.6872 12.6164 20.0037 12.384 19.2945 12.31V10.14H4.83447V15.52H14.0945C13.883 16.0726 13.7713 16.6584 13.7645 17.25V17.52H4.15447C3.80439 17.52 3.46864 17.3809 3.22109 17.1334C2.97355 16.8858 2.83447 16.5501 2.83447 16.2V4.07C2.83447 3.34098 3.42546 2.75 4.15447 2.75H19.9745ZM6.52447 12.9C6.90062 12.9 7.23974 13.1266 7.38368 13.4741C7.52763 13.8216 7.44806 14.2216 7.18208 14.4876C6.91611 14.7536 6.5161 14.8332 6.16858 14.6892C5.82106 14.5453 5.59447 14.2061 5.59447 13.83C5.59447 13.3164 6.01085 12.9 6.52447 12.9ZM13.1545 12.9C13.5687 12.9 13.9045 13.2358 13.9045 13.65V14C13.9045 14.4142 13.5687 14.75 13.1545 14.75H9.11447C8.70026 14.75 8.36447 14.4142 8.36447 14V13.65C8.36447 13.2358 8.70026 12.9 9.11447 12.9H13.1545ZM19.2945 4.75H4.83447V6.44H19.2945V4.75Z"
    fill="#FF6600"
  />
</svg>
