<svg width="25" height="24" viewBox="0 0 25 24" fill="none" xmlns="http://www.w3.org/2000/svg">
  <path
    d="M19.1369 14.2239C21.1251 14.2239 22.7369 15.8357 22.7369 17.8239C22.7369 19.8122 21.1251 21.4239 19.1369 21.4239C17.1487 21.4239 15.5369 19.8122 15.5369 17.8239C15.5369 15.8357 17.1487 14.2239 19.1369 14.2239ZM19.1369 15.1239C17.6457 15.1239 16.4369 16.3328 16.4369 17.8239C16.4369 19.3151 17.6457 20.5239 19.1369 20.5239C20.6281 20.5239 21.8369 19.3151 21.8369 17.8239C21.8369 16.3328 20.6281 15.1239 19.1369 15.1239ZM19.0379 16.0959C19.2864 16.0959 19.4879 16.2974 19.4879 16.5459V17.5629L20.7029 18.7779C20.7881 18.8624 20.836 18.9774 20.836 19.0974C20.836 19.2174 20.7881 19.3324 20.7029 19.4169C20.6173 19.4968 20.5049 19.5418 20.3879 19.5429C20.2705 19.5436 20.1574 19.4984 20.0729 19.4169L18.7229 18.0669C18.6355 17.9857 18.5864 17.8713 18.5879 17.7519V16.5459C18.5927 16.2994 18.7914 16.1007 19.0379 16.0959ZM21.6929 11.4699V14.1249C20.317 13.1754 18.5281 13.0668 17.0475 13.843C15.5669 14.6192 14.6386 16.1522 14.6369 17.8239C14.643 17.9687 14.658 18.113 14.6819 18.2559H5.78083C5.12472 18.2559 4.59283 17.724 4.59283 17.0679V11.4699H21.6929ZM8.15683 13.8999C7.69809 13.9049 7.32881 14.2782 7.32883 14.7369C7.32885 15.0763 7.53377 15.382 7.84764 15.511C8.16151 15.64 8.52222 15.5668 8.76087 15.3255C8.99953 15.0843 9.0689 14.7228 8.93651 14.4103C8.80412 14.0979 8.49616 13.8963 8.15683 13.8999ZM14.0969 13.8999H10.4968C10.3162 13.8999 10.1432 13.9723 10.0163 14.1008C9.88948 14.2293 9.81942 14.4034 9.82183 14.5839V14.8899C9.82183 15.2627 10.124 15.5649 10.4968 15.5649H14.0969C14.4676 15.5601 14.767 15.2607 14.7719 14.8899V14.5749C14.767 14.2042 14.4676 13.9048 14.0969 13.8999ZM20.5049 4.57593C20.8263 4.57578 21.1341 4.70587 21.3579 4.93652C21.5818 5.16716 21.7026 5.47866 21.6929 5.79993V8.04993H4.59283V5.79993C4.58309 5.47866 4.70394 5.16716 4.9278 4.93652C5.15166 4.70587 5.45942 4.57578 5.78083 4.57593H20.5049Z"
    fill="#FF6600"
  />
</svg>
