<svg
  width="24"
  height="24"
  viewBox="0 0 24 24"
  fill="none"
  xmlns="http://www.w3.org/2000/svg"
>
  <path
    d="M17.9998 13.25C20.209 13.25 21.9998 15.0409 21.9998 17.25C21.9998 19.4591 20.209 21.25 17.9998 21.25C15.7907 21.25 13.9998 19.4591 13.9998 17.25C13.9998 15.0409 15.7907 13.25 17.9998 13.25ZM17.9998 14.25C16.343 14.25 14.9998 15.5931 14.9998 17.25C14.9998 18.9069 16.343 20.25 17.9998 20.25C19.6567 20.25 20.9998 18.9069 20.9998 17.25C20.9998 15.5931 19.6567 14.25 17.9998 14.25ZM17.8498 15.34C18.126 15.34 18.3498 15.5639 18.3498 15.84V17L19.6998 18.29C19.7945 18.3839 19.8477 18.5117 19.8477 18.645C19.8477 18.7783 19.7945 18.9061 19.6998 19C19.61 19.0918 19.4882 19.1455 19.3598 19.15C19.2247 19.1497 19.0952 19.0957 18.9998 19L17.4998 17.52C17.4027 17.4297 17.3482 17.3026 17.3498 17.17V15.84C17.3498 15.5639 17.5737 15.34 17.8498 15.34ZM19.2098 2.75C19.5599 2.75 19.8957 2.88907 20.1432 3.13662C20.3908 3.38417 20.5298 3.71991 20.5298 4.07V12.99C19.9225 12.6164 19.239 12.384 18.5298 12.31V10.14H4.06982V15.52H13.3298C13.1183 16.0726 13.0066 16.6584 12.9998 17.25V17.52H3.38982C3.03974 17.52 2.70399 17.3809 2.45644 17.1334C2.2089 16.8858 2.06982 16.5501 2.06982 16.2V4.07C2.06982 3.34098 2.66081 2.75 3.38982 2.75H19.2098ZM5.75982 12.9C6.13597 12.9 6.47509 13.1266 6.61903 13.4741C6.76298 13.8216 6.68341 14.2216 6.41743 14.4876C6.15146 14.7536 5.75145 14.8332 5.40393 14.6892C5.05641 14.5453 4.82982 14.2061 4.82982 13.83C4.82982 13.3164 5.2462 12.9 5.75982 12.9ZM12.3898 12.9C12.804 12.9 13.1398 13.2358 13.1398 13.65V14C13.1398 14.4142 12.804 14.75 12.3898 14.75H8.34982C7.93561 14.75 7.59982 14.4142 7.59982 14V13.65C7.59982 13.2358 7.93561 12.9 8.34982 12.9H12.3898ZM18.5298 4.75H4.06982V6.44H18.5298V4.75Z"
    fill="#FF6600"
  />
</svg>
