<svg
  width="24"
  height="24"
  viewBox="0 0 24 24"
  fill="none"
  xmlns="http://www.w3.org/2000/svg"
>
  <path
    d="M11.3029 2.23774C11.6371 1.92075 12.2206 1.92075 12.5548 2.23774L12.9721 2.65368C14.5998 4.19672 16.7492 5.12755 19.0443 5.30537C19.5029 5.32559 19.8574 5.682 19.8574 6.11726V8.53165C19.8574 13.5583 16.978 18.2296 12.3672 20.7035C12.2205 20.7631 12.0746 20.8025 11.9287 20.8025C11.782 20.8025 11.6157 20.7824 11.4902 20.7035C6.87961 18.2296 4 13.5583 4 8.53165V6.13646C4 5.7012 4.35454 5.3448 4.81341 5.30537C7.10858 5.12764 9.25795 4.19759 10.8856 2.65368L11.3029 2.23774ZM11.9289 3.99963C10.2171 5.54354 8.0688 6.53312 5.75234 6.86942V8.53161C5.75234 12.8068 8.11032 16.7651 11.9289 19.001C15.7474 16.7845 18.1054 12.807 18.1054 8.53161V6.86942C15.7889 6.53316 13.6193 5.54354 11.9289 3.99963ZM14.934 8.31428C15.0799 8.17512 15.3097 8.15579 15.4556 8.29418L16.2071 8.94746C16.3538 9.0858 16.3742 9.3039 16.2283 9.4423L11.638 14.3508C11.4912 14.4892 11.241 14.5093 11.0951 14.3508L8.15272 11.4022C8.00683 11.2638 8.00683 11.0458 8.15272 10.9074L8.883 10.2147C9.00769 10.0756 9.23754 10.0756 9.38344 10.1946L11.0315 11.5598C11.1774 11.6982 11.3861 11.6781 11.5328 11.5397L14.934 8.31428Z"
    fill="#FF6600"
  />
</svg>
