<svg width="25" height="24" viewBox="0 0 25 24" fill="none" xmlns="http://www.w3.org/2000/svg">
  <path
    d="M12.0675 2.23774C12.4017 1.92075 12.9852 1.92075 13.3194 2.23774L13.7367 2.65368C15.3644 4.19672 17.5138 5.12755 19.8089 5.30537C20.2675 5.32559 20.622 5.682 20.622 6.11726V8.53165C20.622 13.5583 17.7426 18.2296 13.1318 20.7035C12.9851 20.7631 12.8392 20.8025 12.6933 20.8025C12.5466 20.8025 12.3803 20.7824 12.2548 20.7035C7.64426 18.2296 4.76465 13.5583 4.76465 8.53165V6.13646C4.76465 5.7012 5.11919 5.3448 5.57806 5.30537C7.87323 5.12764 10.0226 4.19759 11.6502 2.65368L12.0675 2.23774ZM12.6935 3.99963C10.9817 5.54354 8.83345 6.53312 6.51699 6.86942V8.53161C6.51699 12.8068 8.87497 16.7651 12.6935 19.001C16.512 16.7845 18.87 12.807 18.87 8.53161V6.86942C16.5535 6.53316 14.3839 5.54354 12.6935 3.99963ZM15.6986 8.31428C15.8445 8.17512 16.0743 8.15579 16.2202 8.29418L16.9717 8.94746C17.1184 9.0858 17.1388 9.3039 16.9929 9.4423L12.4026 14.3508C12.2558 14.4892 12.0056 14.5093 11.8597 14.3508L8.91737 11.4022C8.77148 11.2638 8.77148 11.0458 8.91737 10.9074L9.64765 10.2147C9.77234 10.0756 10.0022 10.0756 10.1481 10.1946L11.7961 11.5598C11.942 11.6982 12.1507 11.6781 12.2974 11.5397L15.6986 8.31428Z"
    fill="#FF6600"
  />
</svg>
