<svg
  width="24"
  height="24"
  viewBox="0 0 24 24"
  fill="none"
  xmlns="http://www.w3.org/2000/svg"
>
  <path
    d="M21.2602 10.89C21.3108 10.6941 21.3343 10.4923 21.3302 10.29C21.3641 9.6794 21.2218 9.072 20.9202 8.54001C20.9853 8.08868 20.9546 7.62871 20.8302 7.19001C20.7255 6.7597 20.5351 6.35494 20.2702 6.00001C20.2908 5.16955 20.0102 4.35969 19.4802 3.72001C18.7333 2.89224 17.6537 2.44426 16.5402 2.50001H15.1102C14.5087 2.50337 13.909 2.56702 13.3202 2.69001C12.8303 2.77764 12.3461 2.89452 11.8702 3.04001L10.5002 3.49001C10.0143 3.69895 9.51278 3.86947 9.00023 4.00001C8.75233 4.0095 8.50972 4.07442 8.29023 4.19001C8.20382 4.18051 8.11662 4.18051 8.03022 4.19001H3.52021C2.80224 4.19001 2.22021 4.77204 2.22021 5.49001V12.68C2.22021 13.3996 2.80063 13.9845 3.52021 13.99H7.82022L10.5502 16.72L11.3802 17.54C11.438 17.6076 11.4821 17.6857 11.5102 17.77C11.569 17.893 11.6191 18.02 11.6602 18.15C11.6602 18.28 11.7302 18.49 11.7902 18.75C11.8502 19.01 11.9002 19.31 11.9402 19.5C12.0201 19.7863 12.1273 20.0642 12.2602 20.33C12.7361 21.093 13.5813 21.5461 14.4802 21.52H14.7602C15.8897 21.422 16.8566 20.6704 17.2302 19.6C17.3194 19.3539 17.3831 19.0992 17.4202 18.84C17.4536 18.6382 17.4736 18.4344 17.4802 18.23C17.4802 18.11 17.4802 17.96 17.4802 17.77C17.478 17.4023 17.4309 17.0363 17.3402 16.68C17.2778 16.4259 17.201 16.1755 17.1102 15.93H18.6002C20.3266 15.9245 21.7247 14.5264 21.7302 12.8C21.7664 12.1308 21.6028 11.466 21.2602 10.89ZM19.4402 13.53C19.2416 13.7566 18.9513 13.8815 18.6502 13.87H15.5902C15.2708 13.8581 14.9649 13.9995 14.7672 14.2507C14.5695 14.5018 14.5037 14.8323 14.5902 15.14C14.6242 15.2619 14.6642 15.3821 14.7102 15.5C14.7634 15.6315 14.827 15.7586 14.9002 15.88L14.9902 16.05C15.0906 16.2281 15.1807 16.4117 15.2602 16.6C15.3325 16.7635 15.3862 16.9345 15.4202 17.11C15.4714 17.306 15.4982 17.5075 15.5002 17.71C15.5002 17.87 15.5002 18 15.5002 18.11C15.5065 18.2333 15.5065 18.3568 15.5002 18.48C15.4804 18.6121 15.4503 18.7425 15.4102 18.87C15.2945 19.2086 14.9872 19.445 14.6302 19.47C14.4448 19.4977 14.2557 19.4549 14.1002 19.35C14.0325 19.2264 13.9788 19.0956 13.9402 18.96L13.8102 18.31L13.6602 17.62C13.5908 17.3819 13.5073 17.1482 13.4102 16.92C13.2806 16.6083 13.0941 16.3235 12.8602 16.08L12.0002 15.25L9.37021 12.62V5.92001C9.97703 5.80119 10.5725 5.63056 11.1502 5.41001C11.7102 5.22001 12.1502 5.07001 12.4602 4.98001C12.7702 4.89001 13.1702 4.79001 13.7102 4.68001C14.171 4.58532 14.6398 4.53509 15.1102 4.53001H16.5202C17.0592 4.45488 17.6033 4.62766 18.0002 5.00001C18.2767 5.36516 18.389 5.82881 18.3102 6.28001C18.2881 6.57971 18.4019 6.87347 18.6202 7.08001C18.7823 7.24264 18.8965 7.44677 18.9502 7.67001C19.0202 7.91171 19.0202 8.16831 18.9502 8.41001C18.8587 8.71523 18.9181 9.0458 19.1102 9.3C19.3133 9.5619 19.413 9.8894 19.3902 10.22C19.3773 10.3953 19.3368 10.5674 19.2702 10.73C19.1491 11.0748 19.2258 11.4583 19.4702 11.73C19.7107 12.0068 19.8391 12.3634 19.8302 12.73C19.8326 13.043 19.6883 13.3391 19.4402 13.53Z"
    fill="#FF6600"
  />
</svg>
