<svg width="25" height="24" viewBox="0 0 25 24" fill="none" xmlns="http://www.w3.org/2000/svg">
  <path
    d="M22.0249 10.89C22.0755 10.6941 22.099 10.4923 22.0949 10.29C22.1288 9.6794 21.9865 9.072 21.6849 8.54001C21.75 8.08868 21.7193 7.62871 21.5949 7.19001C21.4902 6.7597 21.2998 6.35494 21.0349 6.00001C21.0555 5.16955 20.7749 4.35969 20.2449 3.72001C19.498 2.89224 18.4184 2.44426 17.3049 2.50001H15.8749C15.2734 2.50337 14.6737 2.56702 14.0849 2.69001C13.595 2.77764 13.1108 2.89452 12.6349 3.04001L11.2649 3.49001C10.779 3.69895 10.2774 3.86947 9.76488 4.00001C9.51698 4.0095 9.27437 4.07442 9.05488 4.19001C8.96847 4.18051 8.88127 4.18051 8.79487 4.19001H4.28486C3.56689 4.19001 2.98486 4.77204 2.98486 5.49001V12.68C2.98486 13.3996 3.56528 13.9845 4.28486 13.99H8.58487L11.3149 16.72L12.1449 17.54C12.2027 17.6076 12.2468 17.6857 12.2749 17.77C12.3337 17.893 12.3838 18.02 12.4249 18.15C12.4249 18.28 12.4949 18.49 12.5549 18.75C12.6149 19.01 12.6649 19.31 12.7049 19.5C12.7848 19.7863 12.892 20.0642 13.0249 20.33C13.5008 21.093 14.346 21.5461 15.2449 21.52H15.5249C16.6544 21.422 17.6213 20.6704 17.9949 19.6C18.0841 19.3539 18.1478 19.0992 18.1849 18.84C18.2183 18.6382 18.2383 18.4344 18.2449 18.23C18.2449 18.11 18.2449 17.96 18.2449 17.77C18.2427 17.4023 18.1956 17.0363 18.1049 16.68C18.0425 16.4259 17.9657 16.1755 17.8749 15.93H19.3649C21.0913 15.9245 22.4894 14.5264 22.4949 12.8C22.5311 12.1308 22.3675 11.466 22.0249 10.89ZM20.2049 13.53C20.0063 13.7566 19.716 13.8815 19.4149 13.87H16.3549C16.0355 13.8581 15.7296 13.9995 15.5319 14.2507C15.3342 14.5018 15.2684 14.8323 15.3549 15.14C15.3889 15.2619 15.4289 15.3821 15.4749 15.5C15.5281 15.6315 15.5917 15.7586 15.6649 15.88L15.7549 16.05C15.8553 16.2281 15.9454 16.4117 16.0249 16.6C16.0972 16.7635 16.1509 16.9345 16.1849 17.11C16.2361 17.306 16.2629 17.5075 16.2649 17.71C16.2649 17.87 16.2649 18 16.2649 18.11C16.2712 18.2333 16.2712 18.3568 16.2649 18.48C16.2451 18.6121 16.215 18.7425 16.1749 18.87C16.0592 19.2086 15.7519 19.445 15.3949 19.47C15.2095 19.4977 15.0204 19.4549 14.8649 19.35C14.7972 19.2264 14.7435 19.0956 14.7049 18.96L14.5749 18.31L14.4249 17.62C14.3555 17.3819 14.272 17.1482 14.1749 16.92C14.0453 16.6083 13.8588 16.3235 13.6249 16.08L12.7649 15.25L10.1349 12.62V5.92001C10.7417 5.80119 11.3372 5.63056 11.9149 5.41001C12.4749 5.22001 12.9149 5.07001 13.2249 4.98001C13.5349 4.89001 13.9349 4.79001 14.4749 4.68001C14.9357 4.58532 15.4045 4.53509 15.8749 4.53001H17.2849C17.8239 4.45488 18.368 4.62766 18.7649 5.00001C19.0414 5.36516 19.1537 5.82881 19.0749 6.28001C19.0528 6.57971 19.1666 6.87347 19.3849 7.08001C19.547 7.24264 19.6612 7.44677 19.7149 7.67001C19.7849 7.91171 19.7849 8.16831 19.7149 8.41001C19.6234 8.71523 19.6828 9.0458 19.8749 9.3C20.078 9.5619 20.1777 9.8894 20.1549 10.22C20.142 10.3953 20.1015 10.5674 20.0349 10.73C19.9138 11.0748 19.9905 11.4583 20.2349 11.73C20.4754 12.0068 20.6038 12.3634 20.5949 12.73C20.5973 13.043 20.453 13.3391 20.2049 13.53Z"
    fill="#FF6600"
  />
</svg>
