<svg width="25" height="24" viewBox="0 0 25 24" fill="none" xmlns="http://www.w3.org/2000/svg">
  <path
    d="M21.8449 6.61216C21.3386 5.63708 20.6294 4.78162 19.7649 4.10329C17.9682 2.68007 15.7264 1.93669 13.4349 2.00423C11.9561 1.98896 10.4897 2.27463 9.12485 2.84385C7.39306 3.5608 5.88682 4.73142 4.76485 6.23233C3.45536 7.91829 2.75096 9.9953 2.76485 12.1297C2.76273 13.7484 3.15394 15.3434 3.90485 16.7776C4.45742 17.8479 5.20723 18.8042 6.11485 19.5964C8.04108 21.2176 10.4979 22.0717 13.0149 21.9953C15.5938 22.0438 18.1146 21.2274 20.1749 19.6763C21.1553 19.1167 21.8064 18.1198 21.9249 16.9975C21.9198 16.5232 21.746 16.0662 21.4349 15.7081C21.2221 15.3529 20.8482 15.125 20.4349 15.0984C20.0441 15.1489 19.6743 15.3043 19.3649 15.5482C18.7789 15.9408 18.1342 16.2377 17.4549 16.4278C16.7782 16.641 16.0743 16.7555 15.3649 16.7676C14.2594 16.7655 13.1927 16.3604 12.3649 15.6281C11.564 15.081 11.059 14.1966 10.9949 13.2292C10.9949 12.8894 11.1849 12.6994 11.6049 12.6994H20.8148C21.3725 12.6818 21.887 12.3949 22.1949 11.9298C22.5789 11.2904 22.7763 10.5564 22.7649 9.8107C22.7362 8.68354 22.4195 7.58242 21.8449 6.61216ZM14.1549 9.0011H12.1549C11.8152 9.0129 11.4761 8.96205 11.1549 8.85116C10.9618 8.61277 10.8751 8.30565 10.9149 8.00154C10.9242 7.40818 11.1241 6.83352 11.4848 6.36228C11.8714 5.79716 12.5204 5.46905 13.2049 5.49267C13.8075 5.45353 14.3955 5.68864 14.8049 6.13238C15.2297 6.60109 15.4493 7.22012 15.4149 7.85161C15.4149 8.61793 14.9949 9.0011 14.1549 9.0011Z"
    fill="#FF6600"
  />
</svg>
