<svg
  width="24"
  height="24"
  viewBox="0 0 24 24"
  fill="none"
  xmlns="http://www.w3.org/2000/svg"
>
  <path
    d="M21.0802 6.61216C20.5739 5.63708 19.8647 4.78162 19.0002 4.10329C17.2035 2.68007 14.9617 1.93669 12.6702 2.00423C11.1914 1.98896 9.72501 2.27463 8.3602 2.84385C6.62841 3.5608 5.12217 4.73142 4.0002 6.23233C2.69071 7.91829 1.98631 9.9953 2.0002 12.1297C1.99808 13.7484 2.38929 15.3434 3.1402 16.7776C3.69277 17.8479 4.44258 18.8042 5.3502 19.5964C7.27643 21.2176 9.73321 22.0717 12.2502 21.9953C14.8291 22.0438 17.3499 21.2274 19.4102 19.6763C20.3906 19.1167 21.0418 18.1198 21.1602 16.9975C21.1551 16.5232 20.9814 16.0662 20.6702 15.7081C20.4574 15.3529 20.0835 15.125 19.6702 15.0984C19.2794 15.1489 18.9096 15.3043 18.6002 15.5482C18.0142 15.9408 17.3695 16.2377 16.6902 16.4278C16.0135 16.641 15.3096 16.7555 14.6002 16.7676C13.4948 16.7655 12.4281 16.3604 11.6002 15.6281C10.7994 15.081 10.2943 14.1966 10.2302 13.2292C10.2302 12.8894 10.4202 12.6994 10.8402 12.6994H20.0502C20.6079 12.6818 21.1223 12.3949 21.4302 11.9298C21.8142 11.2904 22.0116 10.5564 22.0002 9.8107C21.9716 8.68354 21.6549 7.58242 21.0802 6.61216ZM13.3902 9.0011H11.3902C11.0505 9.0129 10.7115 8.96205 10.3902 8.85116C10.1971 8.61277 10.1104 8.30565 10.1502 8.00154C10.1595 7.40818 10.3594 6.83352 10.7202 6.36228C11.1068 5.79716 11.7557 5.46905 12.4402 5.49267C13.0428 5.45353 13.6308 5.68864 14.0402 6.13238C14.465 6.60109 14.6846 7.22012 14.6502 7.85161C14.6502 8.61793 14.2302 9.0011 13.3902 9.0011Z"
    fill="#FF6600"
  />
</svg>
