<svg viewBox="0 0 91 22">
  <path
    d="M58.0944 18.1164C59.4006 18.1164 64.5263 17.6511 64.6668 12.7142L64.8479 5.54315C64.8734 4.4532 65.4508 4.14413 65.9564 3.87348C66.3572 3.65896 66.7128 3.46858 66.7128 2.93262C66.7128 2.28498 66.2012 1.2146 61.7979 1.2146C57.2579 1.2146 57.073 2.70256 57.073 3.14592C57.073 3.82384 57.4918 3.94658 57.9552 4.08237C58.5559 4.25843 59.2316 4.45642 59.1661 5.91498C59.1143 7.07547 59.1771 8.27949 59.2365 9.41977C59.3917 12.3953 59.5242 14.9368 57.5396 15.1385C56.9783 15.1824 56.5149 14.8595 56.5149 14.2737C56.5149 14.1333 56.5503 13.9717 56.588 13.7993C56.6311 13.6022 56.6773 13.3911 56.6773 13.1814C56.6773 11.7135 55.3273 10.877 53.9772 10.877C52.4177 10.877 51.3667 12.1587 51.3667 13.6718C51.3667 16.9996 55.3943 18.1164 58.0944 18.1164Z"
    fill="currentColor"
  ></path>
  <path
    fill-rule="evenodd"
    clip-rule="evenodd"
    d="M10.9874 12.4379C11.7337 12.4379 12.4329 12.2278 12.4329 10.6909C12.4329 8.94453 10.6871 5.89837 6.72912 5.89837C3.23444 5.89837 0.185059 8.50375 0.185059 12.0906C0.185059 15.091 2.34901 18.1178 6.54159 18.1178C8.63466 18.1178 11.918 16.8167 11.918 15.0227C11.918 14.58 11.5036 13.8582 11.0119 13.8582C10.8426 13.8582 10.6285 13.9835 10.3484 14.1474C9.81937 14.4569 9.05507 14.9041 7.91356 14.9041C6.81805 14.9041 5.3056 13.9265 5.3056 12.7659C5.3056 12.4193 5.59238 12.4283 5.83504 12.4358C5.86941 12.4369 5.90289 12.4379 5.93455 12.4379H10.9874ZM6.29972 10.2089C5.75942 10.234 5.1896 10.2604 5.1896 9.54964C5.1896 8.80534 5.81598 8.01335 6.58864 8.01335C7.45022 8.01335 7.96253 8.66679 7.96253 9.5026C7.96253 10.2357 7.39626 10.22 6.83158 10.2044C6.74999 10.2021 6.66844 10.1999 6.58864 10.1999C6.49575 10.1999 6.3982 10.2044 6.29972 10.2089Z"
    fill="currentColor"
  ></path>
  <path
    fill-rule="evenodd"
    clip-rule="evenodd"
    d="M24.9091 9.89956C24.9091 6.40423 21.281 5.89837 19.9516 5.89837C17.7412 5.89837 13.8045 7.17367 13.8045 9.15525C13.8045 9.89956 14.3599 10.4364 15.1113 10.4364C16.2486 10.4364 16.8037 9.67741 17.3042 8.99322C17.715 8.43171 18.0889 7.92055 18.7175 7.92055C19.7904 7.92055 19.8149 9.52644 19.8149 10.2959C19.8149 11.0906 19.5255 11.0897 18.8741 11.0875L18.7652 11.0872C14.6731 11.0872 13.0866 13.1352 13.0866 14.79C13.0866 17.0958 15.014 18.1178 16.9524 18.1178C18.3504 18.1178 19.1292 17.5999 19.6583 17.2481C19.9304 17.0672 20.1364 16.9302 20.3266 16.9302C20.5355 16.9302 20.6753 17.0838 20.8543 17.2806C21.173 17.6309 21.6161 18.1178 22.7941 18.1178C24.4973 18.1178 26.3074 16.6763 26.3074 15.3468C26.3074 14.8984 26.1297 14.8943 25.901 14.8891C25.4882 14.8796 24.9091 14.8664 24.9091 12.2285V9.89956ZM19.2536 12.7878C19.8867 12.7878 19.8859 13.3323 19.8852 13.8318L19.8852 13.8814C19.8852 14.58 19.8149 15.5356 18.9282 15.5356C18.2509 15.5356 17.9307 14.8835 17.9307 14.2758C17.9307 13.5334 18.4623 12.7878 19.2536 12.7878Z"
    fill="currentColor"
  ></path>
  <path
    d="M34.9483 6.049C34.7448 6.12419 34.5414 6.19931 34.3218 6.19931C34.1852 6.19931 33.9397 6.15474 33.6376 6.09991C33.1547 6.01225 32.5272 5.89837 31.9691 5.89837C29.5686 5.89837 27.6605 7.36119 27.6605 9.69334C27.6605 12.0955 29.4477 13.058 30.7858 13.7787C31.5864 14.2099 32.2262 14.5545 32.2262 15.0691C32.2262 15.5827 31.7815 15.8147 31.3182 15.8147C30.6262 15.8147 30.038 15.1657 29.4857 14.5564C28.997 14.0171 28.5363 13.5089 28.0568 13.5089C27.3821 13.5089 27.1727 13.9981 27.1727 14.6045C27.1727 15.4873 27.7539 16.8167 28.3365 17.4657C28.6619 17.8381 28.8933 17.9097 29.3618 17.9097C29.5085 17.9097 29.6509 17.8871 29.7963 17.8641C29.9477 17.8401 30.1024 17.8156 30.2685 17.8156C30.3653 17.8156 30.639 17.8525 30.995 17.9006C31.6573 17.99 32.6045 18.1178 33.2276 18.1178C35.6468 18.1178 37.7656 16.606 37.7656 14.4176C37.7656 12.2195 35.8661 11.2561 34.3806 10.5026C33.4269 10.0189 32.6438 9.62171 32.6438 9.0399C32.6438 8.59397 33.0607 8.24791 33.4815 8.24791C33.9612 8.24791 34.3793 8.64971 34.8244 9.07737C35.3307 9.56388 35.8718 10.0839 36.5779 10.0839C37.1843 10.0839 37.7166 9.62117 37.7166 8.99157C37.7166 8.03912 36.6482 5.89837 35.5765 5.89837C35.356 5.89837 35.152 5.97371 34.9483 6.049Z"
    fill="currentColor"
  ></path>
  <path
    d="M48.8092 15.8344C47.6705 18.9302 46.1825 21.9596 42.3843 21.9596C40.7108 21.9596 38.7318 21.0993 38.7318 19.1603C38.7318 17.9984 39.6146 17.0221 40.8016 17.0221C42.1048 17.0221 42.4052 17.913 42.6449 18.6238C42.8039 19.0954 42.9361 19.4876 43.3168 19.4876C43.9425 19.4876 44.2241 18.8857 44.2241 18.3489C44.2241 17.7715 43.8588 17.0136 43.5828 16.441C43.5471 16.3669 43.5128 16.2959 43.4811 16.2288L40.2204 9.41151C40.0203 8.98852 39.6386 8.81393 39.2807 8.65023C38.848 8.45231 38.4502 8.27031 38.4502 7.68447C38.4502 6.9885 38.871 5.96387 43.7859 5.96387C44.6669 5.96387 46.7619 6.05474 46.7619 7.38417C46.7619 7.70822 46.6204 7.91441 46.4832 8.11432C46.3542 8.30241 46.2289 8.48494 46.2289 8.75485C46.2289 9.63963 47.2529 11.27 47.6454 11.27C48.3452 11.27 48.833 9.66348 48.833 9.10477C48.833 8.54414 48.6206 8.30393 48.4229 8.08038C48.2509 7.88586 48.09 7.70396 48.09 7.33455C48.09 6.10178 50.2752 5.96387 51.1194 5.96387C51.8869 5.96387 53.6075 6.07922 53.6075 7.15025C53.6075 7.88628 53.2069 8.05415 52.7099 8.26242C52.2792 8.44291 51.776 8.65374 51.3985 9.291C50.8869 10.1067 50.518 11.1225 50.1903 12.0245L48.8092 15.8344Z"
    fill="currentColor"
  ></path>
  <path
    fill-rule="evenodd"
    clip-rule="evenodd"
    d="M77.0331 12.4379C77.7793 12.4379 78.4759 12.2278 78.4759 10.6909C78.4759 8.94453 76.7296 5.89837 72.7748 5.89837C69.2775 5.89837 66.2314 8.50375 66.2314 12.0906C66.2314 15.091 68.3998 18.1178 72.5872 18.1178C74.6803 18.1178 77.9662 16.8167 77.9662 15.0227C77.9662 14.58 77.5435 13.8582 77.0589 13.8582C76.8883 13.8582 76.6737 13.984 76.3933 14.1484C75.8652 14.4579 75.104 14.9041 73.965 14.9041C72.8643 14.9041 71.3519 13.9265 71.3519 12.7659C71.3519 12.4194 71.638 12.4283 71.8827 12.4358C71.9174 12.4369 71.9513 12.4379 71.9834 12.4379H77.0331ZM72.3446 10.209C71.8031 10.234 71.2359 10.2602 71.2359 9.54964C71.2359 8.80534 71.8661 8.01335 72.6349 8.01335C73.4965 8.01335 74.0076 8.66679 74.0076 9.5026C74.0076 10.2359 73.4365 10.22 72.8753 10.2044C72.7944 10.2021 72.7137 10.1999 72.6349 10.1999C72.5414 10.1999 72.4434 10.2044 72.3446 10.209Z"
    fill="currentColor"
  ></path>
  <path
    d="M87.8316 14.6975C87.2033 14.6975 86.5557 14.3231 86.5557 12.7655V9.29211C86.5557 8.45308 86.5976 8.43117 87.4108 8.43117H89.0238C89.9273 8.43117 90.0923 8.3358 90.0923 7.01087C90.0923 5.96498 90.0923 5.89732 89.0902 5.89732H87.4579C87.0277 5.89732 86.7966 5.90395 86.6744 5.79184C86.487 5.61993 86.5557 5.16885 86.5557 3.98662C86.5557 2.99885 86.5133 2.99924 85.7845 3.00588C85.7198 3.00647 85.6496 3.0071 85.5736 3.0071C85.4475 3.0071 85.345 3.0047 85.2584 3.00267C84.8643 2.99343 84.8013 2.99196 84.3602 3.26036L79.0527 6.63969C78.8243 6.79038 78.8328 6.99139 78.8432 7.23846C78.8454 7.29251 78.8478 7.34877 78.8478 7.40719C78.8478 7.93853 78.8254 8.19535 78.943 8.31895C79.068 8.45033 79.3512 8.43117 79.9878 8.43117C80.5746 8.43117 80.8257 8.38083 80.9331 8.48242C81.0178 8.56257 81.013 8.73728 81.013 9.10588V13.9036C81.013 17.6057 83.9922 18.1168 85.1805 18.1168C87.5301 18.1168 90.1851 16.7661 90.1851 15.2278C90.1851 14.8128 89.8564 14.1613 89.3969 14.1613C89.2127 14.1613 89.0298 14.2623 88.8226 14.3765C88.5524 14.5256 88.241 14.6975 87.8316 14.6975Z"
    fill="currentColor"
  ></path>
</svg>
