<svg width="25" height="24" viewBox="0 0 25 24" fill="none" xmlns="http://www.w3.org/2000/svg">
  <path
    d="M8.5184 9.9543C10.1179 8.35474 12.7108 8.35474 14.3104 9.9543C14.6302 10.2742 14.6302 10.7929 14.3104 11.1128C13.9904 11.4327 13.4717 11.4327 13.1518 11.1128C12.1922 10.1531 10.6366 10.1531 9.67692 11.1128L5.0427 15.747C4.08304 16.7067 4.08304 18.2622 5.04289 19.2221C6.00254 20.1823 7.55793 20.1823 8.5184 19.2219L10.8352 16.9052C11.1551 16.5852 11.6738 16.5852 11.9937 16.9051C12.3135 17.225 12.3135 17.7437 11.9937 18.0636L9.67696 20.3804C8.0766 21.9807 5.48353 21.9807 3.88421 20.3804C2.28469 18.7808 2.28469 16.188 3.88421 14.5884L8.5184 9.9543ZM15.3525 3.11956C16.952 1.52004 19.5457 1.52004 21.1452 3.11956C22.7447 4.71907 22.7447 7.31199 21.1452 8.91151L16.048 14.0086C14.4486 15.6081 11.8558 15.6081 10.2562 14.0086C9.93628 13.6887 9.93628 13.17 10.2562 12.85C10.5761 12.5301 11.0949 12.5301 11.4148 12.85C12.3743 13.8097 13.9299 13.8097 14.8896 12.85L19.9867 7.75294C20.9463 6.79328 20.9463 5.23774 19.9867 4.27808C19.027 3.31839 17.4706 3.31839 16.511 4.27808L13.7313 7.05763C13.4115 7.37754 12.8927 7.37754 12.5729 7.05763C12.253 6.73772 12.253 6.21901 12.5729 5.8991L15.3525 3.11956Z"
    fill="#FF6600"
  />
</svg>
