<svg width="25" height="24" viewBox="0 0 25 24" fill="none" xmlns="http://www.w3.org/2000/svg">
  <path
    d="M21.7646 11C22.3169 11 22.7646 11.4477 22.7646 12V21C22.7646 21.5523 22.3169 22 21.7646 22H3.76465C3.21237 22 2.76465 21.5523 2.76465 21V12C2.76465 11.4477 3.21237 11 3.76465 11C4.31693 11 4.76465 11.4477 4.76465 12V20H20.7646V12C20.7646 11.4477 21.2123 11 21.7646 11ZM12.7646 2C13.3169 2 13.7646 2.44772 13.7646 3V15L15.5946 13.12C15.8483 12.8663 16.218 12.7673 16.5645 12.8601C16.911 12.953 17.1816 13.2236 17.2745 13.5701C17.3673 13.9166 17.2683 14.2863 17.0146 14.54L13.4146 18.13L13.3229 18.2087C13.2587 18.2573 13.1888 18.298 13.1146 18.33L12.9911 18.3746C12.7815 18.434 12.5563 18.4191 12.3546 18.33L12.2481 18.2734C12.1791 18.2322 12.1142 18.1842 12.0546 18.13L8.45465 14.54C8.20099 14.2863 8.10193 13.9166 8.19477 13.5701C8.28762 13.2236 8.55827 12.953 8.90477 12.8601C9.25128 12.7673 9.62099 12.8663 9.87465 13.12L11.7646 15V3C11.7646 2.44772 12.2123 2 12.7646 2Z"
    fill="#FF6600"
  />
</svg>
