<svg
  width="24"
  height="24"
  viewBox="0 0 24 24"
  fill="none"
  xmlns="http://www.w3.org/2000/svg"
>
  <path
    d="M7.75375 9.9543C9.35326 8.35474 11.9461 8.35474 13.5457 9.9543C13.8656 10.2742 13.8656 10.7929 13.5457 11.1128C13.2257 11.4327 12.707 11.4327 12.3871 11.1128C11.4275 10.1531 9.87193 10.1531 8.91227 11.1128L4.27805 15.747C3.31839 16.7067 3.31839 18.2622 4.27824 19.2221C5.23789 20.1823 6.79328 20.1823 7.75375 19.2219L10.0705 16.9052C10.3904 16.5852 10.9091 16.5852 11.229 16.9051C11.5489 17.225 11.5489 17.7437 11.229 18.0636L8.91231 20.3804C7.31195 21.9807 4.71888 21.9807 3.11956 20.3804C1.52004 18.7808 1.52004 16.188 3.11956 14.5884L7.75375 9.9543ZM14.5878 3.11956C16.1873 1.52004 18.781 1.52004 20.3805 3.11956C21.98 4.71907 21.98 7.31199 20.3805 8.91151L15.2834 14.0086C13.6839 15.6081 11.0911 15.6081 9.49154 14.0086C9.17163 13.6887 9.17163 13.17 9.49154 12.85C9.81145 12.5301 10.3302 12.5301 10.6501 12.85C11.6097 13.8097 13.1652 13.8097 14.1249 12.85L19.222 7.75294C20.1816 6.79328 20.1816 5.23774 19.222 4.27808C18.2623 3.31839 16.7059 3.31839 15.7463 4.27808L12.9667 7.05763C12.6468 7.37754 12.1281 7.37754 11.8082 7.05763C11.4883 6.73772 11.4883 6.21901 11.8082 5.8991L14.5878 3.11956Z"
    fill="#FF6600"
  />
</svg>
