<svg
  width="24"
  height="24"
  viewBox="0 0 24 24"
  fill="none"
  xmlns="http://www.w3.org/2000/svg"
>
  <path
    d="M21 11C21.5523 11 22 11.4477 22 12V21C22 21.5523 21.5523 22 21 22H3C2.44772 22 2 21.5523 2 21V12C2 11.4477 2.44772 11 3 11C3.55228 11 4 11.4477 4 12V20H20V12C20 11.4477 20.4477 11 21 11ZM12 2C12.5523 2 13 2.44772 13 3V15L14.83 13.12C15.0837 12.8663 15.4534 12.7673 15.7999 12.8601C16.1464 12.953 16.417 13.2236 16.5099 13.5701C16.6027 13.9166 16.5037 14.2863 16.25 14.54L12.65 18.13L12.5583 18.2087C12.4941 18.2573 12.4242 18.298 12.35 18.33L12.2265 18.3746C12.0169 18.434 11.7917 18.4191 11.59 18.33L11.4835 18.2734C11.4145 18.2322 11.3496 18.1842 11.29 18.13L7.69 14.54C7.43634 14.2863 7.33728 13.9166 7.43012 13.5701C7.52297 13.2236 7.79362 12.953 8.14012 12.8601C8.48663 12.7673 8.85634 12.8663 9.11 13.12L11 15V3C11 2.44772 11.4477 2 12 2Z"
    fill="#FF6600"
  />
</svg>
