<svg
  width="24"
  height="24"
  viewBox="0 0 24 24"
  fill="none"
  xmlns="http://www.w3.org/2000/svg"
>
  <path
    d="M11.7611 18.9227C12.8614 18.9227 13.7535 19.8157 13.7535 20.916C13.7535 22.0164 12.8614 22.9085 11.7611 22.9085C10.6607 22.9085 9.76865 22.0164 9.76865 20.916C9.76865 19.8156 10.6607 18.9227 11.7611 18.9227ZM16.3726 1.39899C16.4968 1.15332 16.7967 1.05524 17.0423 1.18041C17.2871 1.30466 17.3852 1.60451 17.2609 1.85017C17.2609 1.85017 17.2571 1.85778 17.2495 1.87267L17.2158 1.93888C16.9048 2.55077 15.0339 6.23177 13.1327 9.9724L12.7254 10.7737C12.6802 10.8626 12.6351 10.9514 12.59 11.0401L12.3205 11.5703L15.3816 17.5936L18.8088 15.6142C19.2665 15.3489 19.8102 15.277 20.3211 15.4134C20.8321 15.5507 21.2674 15.8841 21.5317 16.3428L22.03 17.2059C22.2944 17.6636 22.3654 18.2073 22.229 18.7182C22.0917 19.2282 21.7582 19.6635 21.2996 19.927L20.8689 20.1764C19.8395 20.7705 18.6148 20.9321 17.4668 20.6238C16.3178 20.3165 15.3389 19.5655 14.7438 18.5361C14.7438 18.5361 14.7396 18.5276 14.7313 18.5115L14.6949 18.4397C14.4383 17.9352 13.2068 15.5129 11.7612 12.669C10.3155 15.5129 9.08398 17.9352 8.82749 18.4397L8.78169 18.5298C8.1834 19.5655 7.20447 20.3165 6.05552 20.6238C4.90648 20.9321 3.6828 20.7705 2.65341 20.1764L2.22185 19.927C1.76416 19.6635 1.43067 19.2282 1.29336 18.7173C1.15699 18.2073 1.22796 17.6636 1.49232 17.2059L1.99019 16.3428C2.25455 15.8842 2.68984 15.5498 3.20079 15.4134C3.71174 15.277 4.25538 15.3489 4.7131 15.6142L8.14031 17.5936L11.2014 11.5703C11.0225 11.2183 10.8419 10.863 10.6609 10.5069L10.2535 9.7054C8.21908 5.70259 6.26099 1.85017 6.26099 1.85017C6.13675 1.60448 6.23484 1.30464 6.47957 1.18041C6.72525 1.05524 7.02509 1.15333 7.14932 1.39899L11.761 10.4711L16.3726 1.39899Z"
    fill="#FF6600"
  />
</svg>
