<svg width="25" height="24" viewBox="0 0 25 24" fill="none" xmlns="http://www.w3.org/2000/svg">
  <path
    d="M19.0214 17.7546C19.0214 16.7191 19.9498 15.899 21.0245 16.0857C21.7088 16.2045 22.269 16.7647 22.3878 17.449C22.4961 18.0707 22.269 18.6426 21.8563 19.0161C21.59 19.2537 21.59 19.6505 21.8563 19.8935C22.269 20.2669 22.495 20.8377 22.3878 21.4605C22.269 22.1448 21.7088 22.705 21.0245 22.8238C19.9498 23.0106 19.0214 22.1957 19.0214 21.155H6.60613C6.60613 22.1904 5.67779 23.0106 4.60305 22.8238C3.91874 22.705 3.35855 22.1448 3.23973 21.4605C3.13149 20.8388 3.35855 20.2669 3.77126 19.8935C4.03756 19.6494 4.03756 19.2537 3.77126 19.0161C3.35855 18.6426 3.13257 18.0718 3.23973 17.449C3.35855 16.7647 3.91874 16.2045 4.60305 16.0857C5.67779 15.899 6.60613 16.7138 6.60613 17.7546H19.0214ZM12.8136 7.08337C15.3482 7.08337 17.5605 8.77452 18.7265 11.2816C19.4171 12.7701 18.7944 14.5525 17.6061 15.1519C17.1934 15.3556 16.6841 15.293 16.3446 14.9822C13.9901 12.8433 11.6369 12.8433 9.28266 14.9822C8.94316 15.293 8.4339 15.3609 8.0212 15.1519C6.83292 14.5525 6.21013 12.7701 6.90083 11.2816C8.06601 8.77561 10.279 7.08337 12.8136 7.08337ZM6.2559 6.07575C7.07177 7.10486 7.16301 8.38966 6.4596 8.94767C5.75726 9.5047 4.52548 9.1217 3.71069 8.09361C2.89482 7.06447 2.80464 5.77967 3.50699 5.22274C4.21039 4.66468 5.44111 5.04769 6.2559 6.07575ZM22.1205 5.21718C22.824 5.77418 22.7327 7.06007 21.9179 8.08804C21.1021 9.1172 19.8713 9.4991 19.1679 8.9421C18.4656 8.38509 18.5568 7.09921 19.3716 6.07124C20.1875 5.0421 21.4182 4.66017 22.1205 5.21718ZM11.3878 3.21735C11.7666 4.63371 11.2892 5.99179 10.3205 6.25172C9.35084 6.51059 8.25804 5.57377 7.87928 4.15846C7.49947 2.74209 7.97795 1.38402 8.94661 1.12409C9.91526 0.865217 11.008 1.80204 11.3878 3.21735ZM16.6798 1.12409C17.6484 1.38402 18.1269 2.74204 17.7471 4.15737C17.3683 5.57374 16.2755 6.51059 15.3058 6.25063C14.3372 5.99176 13.8598 4.63374 14.2385 3.21735C14.6183 1.80204 15.7111 0.864137 16.6798 1.12409Z"
    fill="#FF6600"
  />
</svg>
