<svg width="25" height="24" viewBox="0 0 25 24" fill="none" xmlns="http://www.w3.org/2000/svg">
  <path
    d="M3.81445 4.5C4.36674 4.5 4.81445 4.94772 4.81445 5.5V14.5H11.7245V7.7C11.7245 7.3134 12.0379 7 12.4245 7H18.8645C19.8942 6.98663 20.8864 7.38634 21.6192 8.10981C22.3521 8.83328 22.7645 9.8202 22.7645 10.85V18.5C22.7645 19.0523 22.3168 19.5 21.7645 19.5C21.2122 19.5 20.7645 19.0523 20.7645 18.5V16.5H4.81445V18.5C4.81445 19.0523 4.36674 19.5 3.81445 19.5C3.26217 19.5 2.81445 19.0523 2.81445 18.5V5.5C2.81445 4.94772 3.26217 4.5 3.81445 4.5ZM18.8645 9H13.7645V14.5H20.7645V10.85C20.7647 10.3506 20.5629 9.8723 20.2051 9.5239C19.8473 9.1754 19.3638 8.9865 18.8645 9ZM8.26445 7.96C9.64517 7.96 10.7645 9.0793 10.7645 10.46C10.7645 11.8407 9.64517 12.96 8.26445 12.96C6.88374 12.96 5.76445 11.8407 5.76445 10.46C5.76445 9.0793 6.88374 7.96 8.26445 7.96Z"
    fill="#FF6600"
  />
</svg>
