<svg width="25" height="24" viewBox="0 0 25 24" fill="none" xmlns="http://www.w3.org/2000/svg">
  <path
    d="M18.6648 2.3208C16.5814 1.79552 14.4599 3.02873 13.8412 5.12487H4.06315C3.94467 5.12632 3.83796 5.19827 3.79024 5.30889C3.74252 5.41951 3.7626 5.54837 3.8416 5.63844L8.28252 10.7022L10.4979 13.2084V19.782H8.56448C8.00833 19.782 7.55747 20.2419 7.55747 20.8092C7.55747 21.3765 8.00833 21.8363 8.56448 21.8363H14.4152C14.9713 21.8363 15.4222 21.3765 15.4222 20.8092C15.4222 20.2419 14.9713 19.782 14.4152 19.782H12.5018V13.1673L15.5229 9.747C16.1712 10.1835 16.9312 10.4156 17.7081 10.4146C19.7473 10.4291 21.4755 8.88691 21.7323 6.82341C21.989 4.75992 20.6933 2.82627 18.7151 2.3208H18.6648ZM9.17876 8.64794L7.88979 7.17914H13.7405C13.8574 7.70577 14.0728 8.20447 14.3749 8.64794H9.17876Z"
    fill="#FF6600"
  />
</svg>
