<svg
  width="24"
  height="24"
  viewBox="0 0 24 24"
  fill="none"
  xmlns="http://www.w3.org/2000/svg"
>
  <path
    d="M20.46 2C21.3105 2 22 2.68948 22 3.54V20.46C22 21.3105 21.3105 22 20.46 22H3.54C2.68948 22 2 21.3105 2 20.46V3.54C2 2.68948 2.68948 2 3.54 2H20.46ZM20 4H4V20H20V4ZM18 6V18H6V6H18ZM12.7 8.08H9.85C9.73717 8.07866 9.62514 8.09903 9.52 8.14C9.41865 8.18093 9.32676 8.24219 9.25 8.32C9.1678 8.39304 9.10581 8.48603 9.07 8.59C9.02109 8.69653 8.99715 8.81282 9 8.93V15.63C8.98763 15.7555 9.00475 15.8822 9.05 16C9.09324 16.0942 9.15437 16.1791 9.23 16.25C9.31032 16.3208 9.40148 16.3781 9.5 16.42C9.71277 16.4998 9.94723 16.4998 10.16 16.42C10.2601 16.3813 10.3518 16.3236 10.43 16.25C10.5078 16.1732 10.5691 16.0814 10.61 15.98C10.6591 15.87 10.683 15.7504 10.68 15.63V13.93C10.68 13.81 10.73 13.76 10.84 13.76H12.66C13.0779 13.7648 13.4925 13.6866 13.88 13.53C14.5707 13.2537 15.1121 12.6978 15.37 12C15.5034 11.6382 15.5711 11.2556 15.57 10.87C15.5771 10.4816 15.5127 10.0951 15.38 9.73C15.2684 9.3975 15.08 9.096 14.83 8.85C14.5777 8.59826 14.2742 8.40384 13.94 8.28C13.5413 8.14238 13.1218 8.07472 12.7 8.08ZM12.64 9.58C12.9668 9.5517 13.2912 9.6563 13.54 9.87C13.7814 10.1441 13.8974 10.5066 13.86 10.87C13.861 11.0629 13.834 11.2549 13.78 11.44C13.7346 11.603 13.6525 11.7535 13.54 11.88C13.4386 12.006 13.3082 12.1055 13.16 12.17C12.9945 12.2356 12.8181 12.2696 12.64 12.27H10.84C10.73 12.27 10.68 12.21 10.68 12.1V9.75C10.68 9.63 10.73 9.58 10.84 9.58H12.64Z"
    fill="#FF6600"
  />
</svg>
