<svg width="25" height="24" viewBox="0 0 25 24" fill="none" xmlns="http://www.w3.org/2000/svg">
  <path
    d="M7.71128 2.09044C9.83728 1.83552 11.8185 3.20947 12.3249 5.28995H12.9549C13.5072 5.28995 13.9549 5.73767 13.9549 6.28995C13.9549 6.84224 13.5072 7.28995 12.9549 7.28995H12.3249V7.79995C12.3249 8.0043 12.1593 8.16995 11.9549 8.16995C11.7489 8.17002 11.5803 8.00591 11.5749 7.79995V7.24995H9.95487C9.40258 7.24995 8.95487 6.80224 8.95487 6.24995C8.95487 5.69767 9.40258 5.24995 9.95487 5.24995H10.2149C9.7553 4.31802 8.71299 3.82699 7.70178 4.06604C6.69056 4.3051 5.97847 5.21088 5.98486 6.24995V12.25H20.7649C21.191 12.2713 21.5254 12.6233 21.5249 13.05V16.45C21.5208 18.773 19.7818 20.7267 17.4749 21V21.5C17.4749 21.7761 17.2511 22 16.9749 22C16.701 21.9946 16.4802 21.7739 16.4749 21.5V21.05H8.59486C8.45386 21.0432 8.31351 21.0265 8.17486 21V21.46C8.16954 21.7339 7.94877 21.9546 7.67486 21.96C7.39872 21.96 7.17486 21.7361 7.17486 21.46V20.76C5.27828 20.1525 3.98976 18.3914 3.98486 16.4V6.28995C3.98507 4.14872 5.58528 2.34535 7.71128 2.09044ZM19.5449 14.25H6.00486V16.4C6.01037 17.8375 7.1773 19 8.61486 19H16.9349C17.6289 19.0053 18.2964 18.734 18.7899 18.2461C19.2834 17.7583 19.5623 17.0939 19.5649 16.4L19.5449 14.25ZM11.9549 9.3399C12.1593 9.3399 12.3249 9.5056 12.3249 9.7099V10.71C12.3276 10.8098 12.2898 10.9065 12.2201 10.9781C12.1505 11.0496 12.0548 11.09 11.9549 11.09C11.8541 11.09 11.7575 11.0499 11.6862 10.9787C11.615 10.9074 11.5749 10.8107 11.5749 10.71V9.7099C11.5803 9.504 11.7489 9.3399 11.9549 9.3399ZM10.9549 7.69995C11.0548 7.69992 11.1505 7.74027 11.2201 7.81184C11.2898 7.8834 11.3276 7.9801 11.3249 8.07995V10.08C11.3276 10.1798 11.2898 10.2765 11.2201 10.3481C11.1505 10.4196 11.0548 10.46 10.9549 10.46C10.8541 10.46 10.7574 10.4199 10.6862 10.3487C10.6149 10.2774 10.5749 10.1807 10.5749 10.08V8.07995C10.5749 7.97917 10.6149 7.88252 10.6862 7.81125C10.7574 7.73999 10.8541 7.69995 10.9549 7.69995Z"
    fill="#FF6600"
  />
</svg>
