<svg
  width="24"
  height="24"
  viewBox="0 0 24 24"
  fill="none"
  xmlns="http://www.w3.org/2000/svg"
>
  <path
    d="M21 11H20V9C20 8.44772 19.5523 8 19 8C18.4477 8 18 8.44772 18 9V11V8C18 7.44772 17.5523 7 17 7C16.4477 7 16 7.44772 16 8V11H8V8C8 7.44772 7.55228 7 7 7C6.44772 7 6 7.44772 6 8V11V9C6 8.44772 5.55228 8 5 8C4.44772 8 4 8.44772 4 9V11H3C2.44772 11 2 11.4477 2 12C2 12.5523 2.44772 13 3 13H4V15C4 15.5523 4.44772 16 5 16C5.55228 16 6 15.5523 6 15V13V16C6 16.5523 6.44772 17 7 17C7.55228 17 8 16.5523 8 16V13H16V16C16 16.5523 16.4477 17 17 17C17.5523 17 18 16.5523 18 16V13V15C18 15.5523 18.4477 16 19 16C19.5523 16 20 15.5523 20 15V13H21C21.5523 13 22 12.5523 22 12C22 11.4477 21.5523 11 21 11Z"
    fill="#FF6600"
  />
</svg>
