<svg
  width="24"
  height="24"
  viewBox="0 0 24 24"
  fill="none"
  xmlns="http://www.w3.org/2000/svg"
>
  <path
    d="M7.94663 2.09044C10.0726 1.83552 12.0538 3.20947 12.5602 5.28995H13.1902C13.7425 5.28995 14.1902 5.73767 14.1902 6.28995C14.1902 6.84224 13.7425 7.28995 13.1902 7.28995H12.5602V7.79995C12.5602 8.0043 12.3946 8.16995 12.1902 8.16995C11.9842 8.17002 11.8156 8.00591 11.8102 7.79995V7.24995H10.1902C9.63793 7.24995 9.19022 6.80224 9.19022 6.24995C9.19022 5.69767 9.63793 5.24995 10.1902 5.24995H10.4502C9.99065 4.31802 8.94834 3.82699 7.93713 4.06604C6.92591 4.3051 6.21382 5.21088 6.22021 6.24995V12.25H21.0002C21.4263 12.2713 21.7607 12.6233 21.7602 13.05V16.45C21.7561 18.773 20.0171 20.7267 17.7102 21V21.5C17.7102 21.7761 17.4864 22 17.2102 22C16.9363 21.9946 16.7155 21.7739 16.7102 21.5V21.05H8.83021C8.68921 21.0432 8.54886 21.0265 8.41021 21V21.46C8.40489 21.7339 8.18412 21.9546 7.91021 21.96C7.63407 21.96 7.41021 21.7361 7.41021 21.46V20.76C5.51363 20.1525 4.22511 18.3914 4.22021 16.4V6.28995C4.22042 4.14872 5.82063 2.34535 7.94663 2.09044ZM12.1902 9.3399C12.3946 9.3399 12.5602 9.5056 12.5602 9.7099V10.71C12.5629 10.8098 12.5251 10.9065 12.4554 10.9781C12.3858 11.0496 12.2901 11.09 12.1902 11.09C12.0894 11.09 11.9928 11.0499 11.9215 10.9787C11.8503 10.9074 11.8102 10.8107 11.8102 10.71V9.7099C11.8156 9.504 11.9842 9.3399 12.1902 9.3399ZM11.1902 7.69995C11.2901 7.69992 11.3858 7.74027 11.4554 7.81184C11.5251 7.8834 11.5629 7.9801 11.5602 8.07995V10.08C11.5629 10.1798 11.5251 10.2765 11.4554 10.3481C11.3858 10.4196 11.2901 10.46 11.1902 10.46C11.0894 10.46 10.9928 10.4199 10.9215 10.3487C10.8503 10.2774 10.8102 10.1807 10.8102 10.08V8.07995C10.8102 7.97917 10.8503 7.88252 10.9215 7.81125C10.9928 7.73999 11.0894 7.69995 11.1902 7.69995Z"
    fill="#FF6600"
  />
</svg>
