<svg width="25" height="24" viewBox="0 0 25 24" fill="none" xmlns="http://www.w3.org/2000/svg">
  <path
    d="M7.76438 5.67003C8.26497 4.88526 9.3036 4.64901 10.0944 5.14003C11.542 6.25485 12.8813 7.50371 14.0944 8.87003C14.2899 9.0585 14.4004 9.3184 14.4004 9.59C14.4004 9.8616 14.2899 10.1215 14.0944 10.31C13.9059 10.5056 13.646 10.6161 13.3744 10.6161C13.1028 10.6161 12.8429 10.5056 12.6544 10.31L10.3444 8.00003C10.2699 7.931 10.1685 7.89886 10.0679 7.91241C9.96725 7.92596 9.87793 7.98377 9.82438 8.07003C7.80505 11.2507 7.63345 11.4945 7.62359 11.6006L7.62342 11.624C7.62355 11.6266 7.6237 11.6292 7.62384 11.632L7.62438 11.65C7.77784 17.0696 7.80736 16.6767 7.81303 18.7805L7.81369 19.0989C7.81378 19.1551 7.81385 19.213 7.81392 19.2726L7.81438 20.82C7.85571 21.2694 7.63931 21.7034 7.2556 21.9409C6.87189 22.1784 6.38688 22.1784 6.00316 21.9409C5.61945 21.7034 5.40306 21.2694 5.44438 20.82L5.44462 20.3714C5.44469 20.3005 5.44478 20.2315 5.44488 20.1643L5.44562 19.7819C5.44632 19.4799 5.44718 19.2183 5.44782 18.9857L5.44866 18.5962C5.45083 16.8216 5.41859 16.7793 5.09438 10.82C5.02731 10.3071 5.13286 9.7864 5.39438 9.34L7.76438 5.67003ZM19.9544 16.64C20.2305 16.64 20.4544 16.8639 20.4544 17.14C20.4544 17.4162 20.2305 17.64 19.9544 17.64H12.9544C12.6782 17.64 12.4544 17.4162 12.4544 17.14C12.4544 16.8639 12.6782 16.64 12.9544 16.64H19.9544ZM12.5194 11.0321C12.6527 11.0321 12.7805 11.0854 12.8744 11.18L14.5544 12.86L14.6173 12.9392C14.7432 13.1346 14.7222 13.3969 14.5544 13.57L14.4544 13.67H16.8544V12.17C16.8544 11.8939 17.0782 11.67 17.3544 11.67C17.6305 11.67 17.8544 11.8939 17.8544 12.17V14.67C17.8544 15.2223 17.4067 15.67 16.8544 15.67H13.4544C12.9021 15.67 12.4544 15.2223 12.4544 14.67C12.4596 14.5008 12.5078 14.3356 12.5944 14.19C12.6148 14.1186 12.6526 14.0533 12.7044 14L13.4944 13.21L12.1644 11.88C12.0677 11.7893 12.0129 11.6626 12.0129 11.53C12.0129 11.3974 12.0677 11.2708 12.1644 11.18C12.2583 11.0854 12.3861 11.0321 12.5194 11.0321ZM19.4544 13.06C20.0067 13.06 20.4544 13.5077 20.4544 14.06C20.4544 14.6123 20.0067 15.06 19.4544 15.06C18.9021 15.06 18.4544 14.6123 18.4544 14.06C18.4544 13.5077 18.9021 13.06 19.4544 13.06ZM10.657 2.09645C11.1648 1.88279 11.7514 1.99666 12.1424 2.38482C12.5335 2.77298 12.6517 3.35872 12.4418 3.86814C12.2319 4.37757 11.7353 4.71001 11.1844 4.71003C10.8246 4.71269 10.4787 4.57164 10.2233 4.31818C9.96798 4.06471 9.82435 3.71981 9.82438 3.36003C9.82033 2.80907 10.1491 2.3101 10.657 2.09645Z"
    fill="#FF6600"
  />
</svg>
