<svg
  width="24"
  height="24"
  viewBox="0 0 24 24"
  fill="none"
  xmlns="http://www.w3.org/2000/svg"
>
  <path
    d="M17.9001 2.3208C15.8167 1.79552 13.6953 3.02873 13.0766 5.12487H3.2985C3.18002 5.12632 3.07331 5.19827 3.02559 5.30889C2.97787 5.41951 2.99795 5.54837 3.07695 5.63844L7.51787 10.7022L9.73329 13.2084V19.782H7.79983C7.24368 19.782 6.79282 20.2419 6.79282 20.8092C6.79282 21.3765 7.24368 21.8363 7.79983 21.8363H13.6506C14.2067 21.8363 14.6576 21.3765 14.6576 20.8092C14.6576 20.2419 14.2067 19.782 13.6506 19.782H11.7372V13.1673L14.7583 9.747C15.4066 10.1835 16.1666 10.4156 16.9435 10.4146C18.9827 10.4291 20.7109 8.88691 20.9676 6.82341C21.2244 4.75992 19.9287 2.82627 17.9505 2.3208H17.9001ZM8.41411 8.64794L7.12514 7.17914H12.9759C13.0928 7.70577 13.3082 8.20447 13.6103 8.64794H8.41411Z"
    fill="#FF6600"
  />
</svg>
