<svg width="25" height="24" viewBox="0 0 25 24" fill="none" xmlns="http://www.w3.org/2000/svg">
  <path
    d="M21.7646 11H20.7646V9C20.7646 8.44772 20.3169 8 19.7646 8C19.2123 8 18.7646 8.44772 18.7646 9V11V8C18.7646 7.44772 18.3169 7 17.7646 7C17.2123 7 16.7646 7.44772 16.7646 8V11H8.76465V8C8.76465 7.44772 8.31693 7 7.76465 7C7.21237 7 6.76465 7.44772 6.76465 8V11V9C6.76465 8.44772 6.31693 8 5.76465 8C5.21237 8 4.76465 8.44772 4.76465 9V11H3.76465C3.21237 11 2.76465 11.4477 2.76465 12C2.76465 12.5523 3.21237 13 3.76465 13H4.76465V15C4.76465 15.5523 5.21237 16 5.76465 16C6.31693 16 6.76465 15.5523 6.76465 15V13V16C6.76465 16.5523 7.21237 17 7.76465 17C8.31693 17 8.76465 16.5523 8.76465 16V13H16.7646V16C16.7646 16.5523 17.2123 17 17.7646 17C18.3169 17 18.7646 16.5523 18.7646 16V13V15C18.7646 15.5523 19.2123 16 19.7646 16C20.3169 16 20.7646 15.5523 20.7646 15V13H21.7646C22.3169 13 22.7646 12.5523 22.7646 12C22.7646 11.4477 22.3169 11 21.7646 11Z"
    fill="#FF6600"
  />
</svg>
