<svg
  width="24"
  height="24"
  viewBox="0 0 24 24"
  fill="none"
  xmlns="http://www.w3.org/2000/svg"
>
  <path
    d="M14 1.99988C14.1363 1.97935 14.2747 2.01964 14.3786 2.11011C14.4825 2.20057 14.5415 2.33209 14.54 2.46988V8.06988H21.54C21.6731 8.05564 21.8059 8.0988 21.9052 8.18853C22.0044 8.27826 22.0608 8.40606 22.06 8.53988V14.2399C22.0002 17.4628 20.0373 20.3443 17.06 21.5799L16.34 21.8899C16.1655 21.9617 15.9787 21.9991 15.79 21.9999C15.5981 21.9982 15.4082 21.9609 15.23 21.8899L14.52 21.5799C11.9732 20.4821 10.1527 18.1727 9.68 15.4399L9.54 15.5099L8.83 15.8199C8.65175 15.8909 8.46187 15.9282 8.27 15.9299C8.08128 15.9291 7.8945 15.8917 7.72 15.8199L7 15.5099C4.03123 14.2639 2.07267 11.3887 2 8.16988V2.46988C2 2.21416 2.20434 2.00532 2.46 1.99988H14ZM20 10.0399H14.23C14.0294 10.8101 13.7125 11.5453 13.29 12.2199C13.4633 12.0808 13.6779 12.0034 13.9 11.9999C14.1847 12.0025 14.4563 12.1194 14.6538 12.3244C14.8513 12.5295 14.9581 12.8053 14.95 13.0899C13.89 12.5599 13.89 12.5599 12.83 13.0899C12.8369 13.0016 12.8537 12.9144 12.88 12.8299C12.4863 13.3752 12.0223 13.8661 11.5 14.2899C11.5868 16.6862 13.0583 18.8135 15.27 19.7399L15.75 19.9499L16.23 19.7399C18.4611 18.8101 19.9376 16.6561 20 14.2399V10.0399ZM14.5558 15.2197C15.3112 14.7615 16.2588 14.7615 17.0142 15.2197C17.7696 15.6779 18.2074 16.5182 18.15 17.3999H13.42C13.3626 16.5182 13.8004 15.6779 14.5558 15.2197ZM12.5 3.99988H4V8.16988C4.06071 10.5837 5.53282 12.7371 7.76 13.6699L8.24 13.8799L8.72 13.6699C10.9584 12.7474 12.4409 10.5902 12.5 8.16988V3.99988ZM17.665 12.1232C18.2159 12.1232 18.6768 12.5415 18.73 13.0899C17.67 12.5599 17.67 12.5599 16.6 13.0899C16.6532 12.5415 17.1141 12.1232 17.665 12.1232ZM10.61 9.4499C10.61 10.0784 10.3603 10.6813 9.91584 11.1257C9.47138 11.5702 8.86856 11.8199 8.24 11.8199C7.61144 11.8199 7.00862 11.5702 6.56416 11.1257C6.1197 10.6813 5.87 10.0784 5.87 9.4499H10.61ZM6.36 5.93988C6.94542 5.93988 7.42 6.41446 7.42 6.99988C6.36 6.48988 6.36 6.48988 5.3 6.99988C5.3 6.41446 5.77458 5.93988 6.36 5.93988ZM9.59 6.08189C9.91797 5.89254 10.322 5.89254 10.65 6.08189C10.978 6.27124 11.18 6.62118 11.18 6.99988C10.12 6.48988 10.12 6.48988 9.06 6.99988C9.06 6.62118 9.26204 6.27124 9.59 6.08189Z"
    fill="#FF6600"
  />
</svg>
