<svg
  width="24"
  height="24"
  viewBox="0 0 24 24"
  fill="none"
  xmlns="http://www.w3.org/2000/svg"
>
  <path
    d="M12.18 6.69C12.7323 6.69 13.18 7.13772 13.18 7.69V9.29H15.75C16.3023 9.29 16.75 9.7377 16.75 10.29C16.75 10.8423 16.3023 11.29 15.75 11.29H13.18V13.81H19.37C19.9223 13.81 20.37 14.2577 20.37 14.81V21C20.37 21.5523 19.9223 22 19.37 22C18.8177 22 18.37 21.5523 18.37 21V15.81H12.18C11.6277 15.81 11.18 15.3623 11.18 14.81V7.69C11.18 7.13772 11.6277 6.69 12.18 6.69ZM8.28998 8.39C8.80901 8.20997 9.37607 8.48234 9.55998 9C9.6647 9.2489 9.66427 9.5297 9.55879 9.7783C9.45332 10.0269 9.25176 10.2223 8.99998 10.32C7.95769 10.6593 7.05965 11.339 6.44998 12.25L6.32045 12.4433C4.91069 14.6561 5.4775 17.6086 7.64498 19.135C9.87621 20.7063 12.9587 20.1712 14.53 17.94V17.9C14.7443 17.6142 15.0949 17.4644 15.4496 17.5072C15.8043 17.5499 16.1093 17.7786 16.2496 18.1072C16.3899 18.4357 16.3443 18.8142 16.13 19.1C15.3077 20.2122 14.1676 21.049 12.86 21.5C12.339 21.6796 11.7986 21.7971 11.25 21.85C8.58641 22.1061 6.01236 20.8103 4.63156 18.5182C3.25076 16.2262 3.30849 13.3449 4.77998 11.11L4.95246 10.8601C5.7816 9.7137 6.94673 8.84961 8.28998 8.39ZM12.09 2C13.1946 2 14.09 2.89543 14.09 4C14.09 5.10457 13.1946 6 12.09 6C10.9854 6 10.09 5.10457 10.09 4C10.09 2.89543 10.9854 2 12.09 2Z"
    fill="#FF6600"
  />
</svg>
