<svg
  width="24"
  height="24"
  viewBox="0 0 24 24"
  fill="none"
  xmlns="http://www.w3.org/2000/svg"
>
  <path
    d="M6.94663 2.09044C9.07263 1.83552 11.0538 3.20947 11.5602 5.28995H12.1902C12.7425 5.28995 13.1902 5.73767 13.1902 6.28995C13.1902 6.84224 12.7425 7.28995 12.1902 7.28995H11.5602V7.79995C11.5602 8.0043 11.3946 8.16995 11.1902 8.16995C10.9842 8.17002 10.8156 8.00591 10.8102 7.79995V7.24995H9.19022C8.63793 7.24995 8.19022 6.80224 8.19022 6.24995C8.19022 5.69767 8.63793 5.24995 9.19022 5.24995H9.45021C8.99065 4.31802 7.94834 3.82699 6.93713 4.06604C5.92591 4.3051 5.21382 5.21088 5.22021 6.24995V12.25H20.0002C20.4263 12.2713 20.7607 12.6233 20.7602 13.05V16.45C20.7561 18.773 19.0171 20.7267 16.7102 21V21.5C16.7102 21.7761 16.4864 22 16.2102 22C15.9363 21.9946 15.7155 21.7739 15.7102 21.5V21.05H7.83021C7.68921 21.0432 7.54886 21.0265 7.41021 21V21.46C7.40489 21.7339 7.18412 21.9546 6.91021 21.96C6.63407 21.96 6.41021 21.7361 6.41021 21.46V20.76C4.51363 20.1525 3.22511 18.3914 3.22021 16.4V6.28995C3.22042 4.14872 4.82063 2.34535 6.94663 2.09044ZM18.7802 14.25H5.24021V16.4C5.24572 17.8375 6.41265 19 7.85021 19H16.1702C16.8642 19.0053 17.5317 18.734 18.0252 18.2461C18.5187 17.7583 18.7976 17.0939 18.8002 16.4L18.7802 14.25ZM11.1902 9.3399C11.3946 9.3399 11.5602 9.5056 11.5602 9.7099V10.71C11.5629 10.8098 11.5251 10.9065 11.4554 10.9781C11.3858 11.0496 11.2901 11.09 11.1902 11.09C11.0894 11.09 10.9928 11.0499 10.9215 10.9787C10.8503 10.9074 10.8102 10.8107 10.8102 10.71V9.7099C10.8156 9.504 10.9842 9.3399 11.1902 9.3399ZM10.1902 7.69995C10.2901 7.69992 10.3858 7.74027 10.4554 7.81184C10.5251 7.8834 10.5629 7.9801 10.5602 8.07995V10.08C10.5629 10.1798 10.5251 10.2765 10.4554 10.3481C10.3858 10.4196 10.2901 10.46 10.1902 10.46C10.0894 10.46 9.99278 10.4199 9.92151 10.3487C9.85025 10.2774 9.81021 10.1807 9.81021 10.08V8.07995C9.81021 7.97917 9.85025 7.88252 9.92151 7.81125C9.99278 7.73999 10.0894 7.69995 10.1902 7.69995Z"
    fill="#FF6600"
  />
</svg>
