<svg width="25" height="24" viewBox="0 0 25 24" fill="none" xmlns="http://www.w3.org/2000/svg">
  <path
    d="M12.9446 6.69C13.497 6.69 13.9446 7.13772 13.9446 7.69V9.29H16.5146C17.0669 9.29 17.5146 9.7377 17.5146 10.29C17.5146 10.8423 17.0669 11.29 16.5146 11.29H13.9446V13.81H20.1347C20.687 13.81 21.1347 14.2577 21.1347 14.81V21C21.1347 21.5523 20.687 22 20.1347 22C19.5823 22 19.1347 21.5523 19.1347 21V15.81H12.9446C12.3923 15.81 11.9446 15.3623 11.9446 14.81V7.69C11.9446 7.13772 12.3923 6.69 12.9446 6.69ZM9.05463 8.39C9.57366 8.20997 10.1407 8.48234 10.3246 9C10.4293 9.2489 10.4289 9.5297 10.3234 9.7783C10.218 10.0269 10.0164 10.2223 9.76463 10.32C8.72234 10.6593 7.8243 11.339 7.21463 12.25L7.0851 12.4433C5.67534 14.6561 6.24215 17.6086 8.40963 19.135C10.6409 20.7063 13.7233 20.1712 15.2946 17.94V17.9C15.5089 17.6142 15.8595 17.4644 16.2142 17.5072C16.5689 17.5499 16.8739 17.7786 17.0142 18.1072C17.1545 18.4357 17.1089 18.8142 16.8946 19.1C16.0723 20.2122 14.9322 21.049 13.6246 21.5C13.1036 21.6796 12.5632 21.7971 12.0146 21.85C9.35106 22.1061 6.77701 20.8103 5.39621 18.5182C4.01541 16.2262 4.07314 13.3449 5.54463 11.11L5.71711 10.8601C6.54625 9.7137 7.71138 8.84961 9.05463 8.39ZM12.8546 2C13.9592 2 14.8546 2.89543 14.8546 4C14.8546 5.10457 13.9592 6 12.8546 6C11.75 6 10.8546 5.10457 10.8546 4C10.8546 2.89543 11.75 2 12.8546 2Z"
    fill="#FF6600"
  />
</svg>
