<svg
  width="24"
  height="24"
  viewBox="0 0 24 24"
  fill="none"
  xmlns="http://www.w3.org/2000/svg"
>
  <path
    d="M17.3798 6.8901C17.261 6.75896 17.1341 6.63538 16.9998 6.5201C16.1051 5.81885 14.8908 5.68354 13.8637 6.17064C12.8366 6.65774 12.173 7.68355 12.1498 8.8201C11.9698 9.9881 12.4923 11.153 13.4844 11.7953C14.4764 12.4376 15.7531 12.4376 16.7452 11.7953C17.7373 11.153 18.2598 9.9881 18.0798 8.8201C18.0841 8.11211 17.8319 7.42652 17.3698 6.8901H17.3798ZM14.2898 7.0001C14.0098 7.4901 13.7798 7.7201 13.4498 7.7301C13.6487 7.40674 13.9419 7.152 14.2898 7.0001ZM13.4498 10.0001C13.2254 9.6662 13.1069 9.2724 13.1098 8.8701C13.105 8.80018 13.105 8.73002 13.1098 8.6601H13.3798C14.4598 8.6601 14.9498 7.6601 15.3198 6.9801V6.9101C15.3234 6.88355 15.3234 6.85665 15.3198 6.8301C15.8073 6.89967 16.2541 7.14077 16.5798 7.5101C16.7312 7.66334 16.8233 7.86531 16.8398 8.0801C16.8195 8.32802 16.6916 8.5546 16.4898 8.7001C16.1771 8.84287 15.8296 8.89152 15.4898 8.8401C14.9702 8.80098 14.451 8.91947 13.9998 9.1801C13.732 9.3862 13.5388 9.6741 13.4498 10.0001ZM16.5298 2.0001C17.988 1.9681 19.3988 2.51875 20.4498 3.5301C21.4688 4.57353 22.0271 5.98187 21.9998 7.4401C21.9433 9.59 21.0414 11.6309 19.4898 13.1201C18.1788 14.4574 16.4637 15.3255 14.6098 15.5901C14.5327 15.6226 14.4522 15.646 14.3698 15.6601L13.5598 15.7801C11.9698 16.0001 10.0698 16.2301 8.87979 17.2301C8.83847 17.3454 8.77378 17.4509 8.68979 17.5401L4.68979 21.5401C4.398 21.8384 3.99704 22.0045 3.57979 22.0001C3.15577 22.0146 2.74415 21.8557 2.43979 21.5601C1.82996 20.9379 1.82996 19.9422 2.43979 19.3201L6.43979 15.3201C6.52204 15.23 6.62502 15.1614 6.73979 15.1201C7.70979 13.9301 7.99979 12.0001 8.17979 10.4901C8.21979 10.2101 8.29979 9.9301 8.29979 9.6801C8.48772 7.71394 9.37899 5.88168 10.8098 4.5201C12.3146 2.96595 14.3674 2.0616 16.5298 2.0001ZM9.30979 13.4701C9.13815 14.171 8.86885 14.8442 8.50979 15.4701C9.12897 15.1023 9.79503 14.8197 10.4898 14.6301C10.2509 14.4629 10.0267 14.2756 9.81979 14.0701C9.63159 13.8863 9.46086 13.6855 9.30979 13.4701ZM16.5498 3.7001C14.8302 3.74736 13.1973 4.46513 11.9998 5.7001C10.8561 6.76838 10.1265 8.20629 9.93979 9.7601L9.93972 10.4433C9.96859 11.3729 10.3452 12.2615 10.9998 12.9301C11.7355 13.6417 12.7266 14.0273 13.7498 14.0001L14.0522 13.9845C15.6594 13.8645 17.1716 13.1608 18.2998 12.0001C19.5699 10.8135 20.3118 9.1676 20.3598 7.4301C20.3937 6.41549 20.0149 5.43046 19.3098 4.7001C18.5597 4.01246 17.5663 3.65252 16.5498 3.7001ZM17.0498 9.4901C16.9507 9.7824 16.7826 10.0465 16.5598 10.2601V10.3101C16.1857 10.6918 15.6743 10.9079 15.1398 10.9101C14.9808 10.9175 14.8218 10.8972 14.6698 10.8501C14.4868 10.758 14.36 10.5827 14.3298 10.3801C14.3346 10.2132 14.4112 10.0565 14.5398 9.9501C14.867 9.7962 15.2308 9.7373 15.5898 9.7801C16.0946 9.8326 16.6034 9.7316 17.0498 9.4901Z"
    fill="#FF6600"
  />
</svg>
