<svg width="25" height="24" viewBox="0 0 25 24" fill="none" xmlns="http://www.w3.org/2000/svg">
  <path
    d="M7.26441 1.67349C7.26441 1.38147 7.03992 1.15698 6.74791 1.15698C6.45589 1.15698 6.2314 1.38147 6.2314 1.67349V2.81875H7.28633L7.2872 1.67349H7.26441ZM6.74791 8.47575C8.16237 8.47575 9.32954 7.3305 9.32954 5.89412C9.32954 4.47966 8.18428 3.31249 6.74791 3.31249C5.33344 3.31249 4.16628 4.45775 4.16628 5.89412C4.16628 7.3305 5.31153 8.47575 6.74791 8.47575ZM10.2722 3.40184C10.4739 3.20014 10.4739 2.86342 10.2722 2.66084C10.0705 2.45915 9.73376 2.45915 9.53118 2.66084L8.72353 3.49215L9.46453 4.23314L10.2722 3.40184ZM8.72355 8.31861L9.53208 9.1271C9.73377 9.3288 10.0705 9.3288 10.2731 9.1271C10.4748 8.92544 10.4748 8.58872 10.2731 8.38614L9.46455 7.57761L8.72355 8.31861ZM9.80128 6.43238H10.9465C11.2385 6.43238 11.463 6.20789 11.463 5.91587C11.463 5.62386 11.2385 5.39937 10.9465 5.39937H9.80128V6.43238ZM4.00922 4.2322L4.75022 3.4912L3.9417 2.68268C3.74001 2.48099 3.40328 2.48099 3.2007 2.68268C2.99901 2.88437 2.99901 3.2211 3.2007 3.42368L4.00922 4.2322ZM6.2094 10.1365C6.2094 10.4285 6.43389 10.653 6.72591 10.653C7.01793 10.653 7.24242 10.4285 7.24242 10.1365V8.99125H6.18749L6.18662 10.1365H6.2094ZM2.50532 6.43243H3.65058V5.3775H2.50532C2.2133 5.3775 1.98881 5.60199 1.98881 5.89401C1.98881 6.18602 2.2133 6.43243 2.50532 6.43243ZM3.20072 8.38531C2.99903 8.587 2.99903 8.92372 3.20072 9.1263C3.40241 9.328 3.73914 9.328 3.94172 9.1263L4.75024 8.31778L4.00925 7.57766L3.20072 8.38531ZM20.4865 21.9449C18.1521 21.9449 17.4329 20.598 15.4583 20.598C15.2338 20.598 14.9865 20.6208 14.7401 20.6427L17.3217 14.0649C17.6813 14.0202 18.1075 14.0877 18.5564 14.2666C19.2071 14.5139 19.6789 14.9173 19.8358 15.2997C19.8806 15.4347 20.0376 15.4794 20.1727 15.4347C20.5541 15.2549 21.1828 15.2777 21.8116 15.5241C22.2833 15.7039 22.6868 15.9731 22.9111 16.2651C23.0462 16.4221 23.3155 16.3774 23.3602 16.1757C24.1907 12.8312 22.4174 9.3059 19.1178 8.02649C15.7725 6.72427 12.0911 8.16066 10.4749 11.214C10.3855 11.3938 10.5424 11.6183 10.7441 11.5955C11.1037 11.5279 11.5745 11.5955 12.0463 11.7752C12.675 12.0225 13.1459 12.4259 13.3038 12.8082C13.3485 12.9433 13.5055 12.988 13.6405 12.9433C14.022 12.7635 14.6507 12.7863 15.2795 13.0327C15.7285 13.2125 16.11 13.4589 16.3344 13.729L13.5274 20.8442C13.0784 20.9337 12.6294 21.0459 12.1129 21.1581V19.4298C12.1129 19.1825 12.0235 18.958 11.8437 18.801L12.6294 18.0153C12.8092 17.8355 12.8092 17.5663 12.6294 17.3865C12.4497 17.2068 12.1804 17.2068 12.0007 17.3865L9.57691 19.8568H5.73768C5.10893 19.8568 4.59242 20.3733 4.59242 21.0021L4.5933 21.8772C2.95435 22.0789 1.98877 22.4385 1.98877 22.8427H23.5398C23.5398 22.8427 22.8218 21.9449 20.4865 21.9449ZM16.1317 12.0227C16.087 12.1122 16.0195 12.1578 15.93 12.1578C15.9072 12.1578 15.8853 12.1578 15.8406 12.135C15.7284 12.0902 15.6608 11.9552 15.7056 11.8429C15.7284 11.7535 16.3791 10.0698 18.0627 9.2842C15.2337 8.90276 13.5053 10.8556 13.4378 10.9451C13.393 10.9898 13.3255 11.0126 13.258 11.0126C13.2133 11.0126 13.1457 10.9898 13.101 10.9679C13.0116 10.8784 12.9888 10.7434 13.0782 10.6539C13.101 10.6311 15.3679 8.04942 18.938 9.015C18.938 9.015 18.9608 9.015 18.9608 9.0378H18.9836C22.1931 10.9898 21.7668 14.4246 21.7668 14.4466C21.7439 14.5589 21.6544 14.6483 21.5422 14.6483H21.5195C21.4072 14.6255 21.3178 14.5133 21.3178 14.401C21.3406 14.2888 21.6317 11.7072 19.4324 9.8884C19.9937 11.6615 19.1404 13.3004 19.0956 13.3908C19.0509 13.4584 18.9834 13.5031 18.8939 13.5031C18.8492 13.5031 18.8265 13.5031 18.7817 13.4803C18.6694 13.4128 18.6248 13.2786 18.6923 13.1664C18.6923 13.1436 19.6796 11.2582 18.7817 9.4852C16.8727 10.0692 16.1317 11.9998 16.1317 12.0227ZM11.2376 21.361C10.2275 21.5627 9.10503 21.7206 7.80276 21.7206C6.94952 21.7206 6.18662 21.7434 5.49029 21.81V21.0243C5.49029 20.8893 5.60254 20.777 5.73759 20.777H9.93533L10.0704 20.642L11.2375 19.4748L11.2376 21.361Z"
    fill="#FF6600"
  />
</svg>
