<svg width="25" height="24" viewBox="0 0 25 24" fill="none" xmlns="http://www.w3.org/2000/svg">
  <path
    d="M11.7644 9.4501H8.22446V7.00008C8.22642 6.86449 8.17211 6.73415 8.07446 6.64008L5.50446 4.07008C5.41057 3.97542 5.28277 3.92218 5.14946 3.92218C5.01614 3.92218 4.88834 3.97542 4.79446 4.07008C4.69778 4.16081 4.64294 4.28749 4.64294 4.42008C4.64294 4.55266 4.69778 4.67934 4.79446 4.77008L7.22446 7.20008V9.4501H3.46446C3.27568 9.4519 3.09642 9.5332 2.97077 9.6741C2.84511 9.815 2.78472 10.0023 2.80446 10.1901L4.08446 21.4101C4.121 21.7548 4.41802 22.0125 4.76446 22.0001H10.0845C10.4149 21.9988 10.6951 21.7568 10.7445 21.4301L12.3844 10.2101C12.4098 10.0258 12.3574 9.8393 12.2398 9.6951C12.1222 9.551 11.95 9.4622 11.7644 9.4501ZM21.9644 2.00008C22.1728 1.98909 22.3766 2.06429 22.5279 2.20803C22.6792 2.35176 22.7647 2.55139 22.7644 2.76008V21.0001C22.7644 21.5524 22.3167 22.0001 21.7644 22.0001L21.6478 21.9934C21.1504 21.9356 20.7644 21.5129 20.7644 21.0001V11.8201H19.5244C19.1047 11.8201 18.7644 11.4798 18.7644 11.0601V5.19008C18.7643 3.44379 20.1683 2.02197 21.9144 2.00008H21.9644ZM16.4944 1.99998C16.7667 1.99998 16.989 2.21785 16.9944 2.49008V6.32008C16.9923 6.90502 16.7793 7.46957 16.3944 7.91008C16.1448 8.19419 15.8382 8.42249 15.4944 8.58008V21.0001C15.4944 21.5524 15.0467 22.0001 14.4944 22.0001L14.3778 21.9934C13.8804 21.9356 13.4944 21.5129 13.4944 21.0001V8.58008C13.1475 8.42782 12.8398 8.19872 12.5944 7.91008C12.2096 7.46957 11.9965 6.90502 11.9944 6.32008V2.49008C11.9944 2.35837 12.0474 2.2322 12.1414 2.14001C12.2355 2.04783 12.3627 1.99739 12.4944 1.99998C12.7667 1.99998 12.989 2.21785 12.9944 2.49008V6.49008C12.9944 6.62179 13.0474 6.74796 13.1414 6.84014C13.2355 6.93233 13.3627 6.98277 13.4944 6.98008C13.7667 6.98013 13.989 6.76231 13.9944 6.49008V2.49008C13.9944 2.35837 14.0474 2.2322 14.1414 2.14001C14.2355 2.04783 14.3627 1.99739 14.4944 1.99998C14.7667 1.99998 14.989 2.21785 14.9944 2.49008V6.49008C14.9944 6.62179 15.0474 6.74796 15.1414 6.84014C15.2355 6.93233 15.3627 6.98277 15.4944 6.98008C15.7667 6.98013 15.989 6.76231 15.9944 6.49008V2.49008C15.9944 2.35837 16.0474 2.2322 16.1414 2.14001C16.2355 2.04783 16.3627 1.99739 16.4944 1.99998ZM10.2145 11.4501L9.76446 14.0001C8.72329 13.4691 7.45838 13.6711 6.63446 14.5001C6.26543 14.8641 5.6794 14.8858 5.28446 14.5501L4.96446 11.4501H10.2145Z"
    fill="#FF6600"
  />
</svg>
