<svg
  width="24"
  height="24"
  viewBox="0 0 24 24"
  fill="none"
  xmlns="http://www.w3.org/2000/svg"
>
  <path
    d="M18.96 6.625H15.6V6.05625C15.6 5.4729 15.1344 5 14.56 5H9.4C8.82562 5 8.36 5.4729 8.36 6.05625V6.625H5.04C4.47181 6.62493 4.00874 7.08801 4 7.665V16.96C4.00874 17.537 4.47181 18 5.04 18H18.96C19.5344 18 20 17.5271 20 16.9438V7.665C19.9913 7.08801 19.5282 6.62493 18.96 6.625ZM12 15.5625C10.2327 15.5625 8.8 14.1074 8.8 12.3125C8.8 10.5176 10.2327 9.0625 12 9.0625C13.7673 9.0625 15.2 10.5176 15.2 12.3125C15.2 13.1745 14.8629 14.0011 14.2627 14.6106C13.6626 15.2201 12.8487 15.5625 12 15.5625ZM12 10.6875C12.8837 10.6875 13.6 11.415 13.6 12.3125C13.6 13.21 12.8837 13.9375 12 13.9375C11.1163 13.9375 10.4 13.21 10.4 12.3125C10.4 11.415 11.1163 10.6875 12 10.6875ZM16.8 9.0625C17.2418 9.0625 17.6 9.4263 17.6 9.875C17.6 10.3237 17.2418 10.6875 16.8 10.6875C16.3582 10.6875 16 10.3237 16 9.875C16 9.4263 16.3582 9.0625 16.8 9.0625Z"
    fill="#FF6600"
  />
</svg>
