<svg
  width="24"
  height="24"
  viewBox="0 0 24 24"
  fill="none"
  xmlns="http://www.w3.org/2000/svg"
>
  <path
    d="M11.9999 1.81006C14.7613 1.81006 16.9999 4.04863 16.9999 6.81006H18.5599C19.1576 6.81342 19.6531 7.27415 19.6999 7.87006L20.6799 20.7101C20.7023 21.0276 20.5897 21.3399 20.3699 21.5701C20.1587 21.8062 19.8567 21.9408 19.5399 21.9401H4.43989C4.11592 21.9376 3.80772 21.7999 3.58989 21.5601C3.38201 21.3277 3.27735 21.021 3.29989 20.7101L4.29989 7.86006C4.34694 7.26585 4.84382 6.8082 5.43989 6.81006H6.99989C6.99989 4.04863 9.23846 1.81006 11.9999 1.81006ZM12.0499 4.06006C10.3654 4.06006 8.99989 5.42559 8.99989 7.11006V8.81006H6.22989L5.38989 19.9401H18.6599L17.8199 8.81006H15.0999V7.11006C15.0999 5.42559 13.7344 4.06006 12.0499 4.06006ZM11.9999 5.65006C12.983 5.65006 13.7799 6.44699 13.7799 7.43006V7.85006H10.2199V7.43006C10.2199 6.44699 11.0168 5.65006 11.9999 5.65006Z"
    fill="#FF6600"
  />
</svg>
