<svg
  width="24"
  height="24"
  viewBox="0 0 24 24"
  fill="none"
  xmlns="http://www.w3.org/2000/svg"
>
  <path
    d="M3.0498 4.5C3.60209 4.5 4.0498 4.94772 4.0498 5.5V14.5H10.9598V7.7C10.9598 7.3134 11.2732 7 11.6598 7H18.0998C19.1295 6.98663 20.1217 7.38634 20.8545 8.10981C21.5874 8.83328 21.9998 9.8202 21.9998 10.85V18.5C21.9998 19.0523 21.5521 19.5 20.9998 19.5C20.4475 19.5 19.9998 19.0523 19.9998 18.5V16.5H4.0498V18.5C4.0498 19.0523 3.60209 19.5 3.0498 19.5C2.49752 19.5 2.0498 19.0523 2.0498 18.5V5.5C2.0498 4.94772 2.49752 4.5 3.0498 4.5ZM18.0998 9H12.9998V14.5H19.9998V10.85C20 10.3506 19.7982 9.8723 19.4404 9.5239C19.0826 9.1754 18.5991 8.9865 18.0998 9ZM7.4998 7.96C8.88052 7.96 9.9998 9.0793 9.9998 10.46C9.9998 11.8407 8.88052 12.96 7.4998 12.96C6.11909 12.96 4.9998 11.8407 4.9998 10.46C4.9998 9.0793 6.11909 7.96 7.4998 7.96Z"
    fill="#FF6600"
  />
</svg>
