<svg width="25" height="24" viewBox="0 0 25 24" fill="none" xmlns="http://www.w3.org/2000/svg">
  <path
    d="M12.7646 10C10.9973 10 9.56465 11.4327 9.56465 13.2C9.56465 14.9673 10.9973 16.4 12.7646 16.4C14.5319 16.4 15.9646 14.9673 15.9646 13.2C15.9646 12.3513 15.6275 11.5374 15.0273 10.9373C14.4272 10.3371 13.6133 10 12.7646 10ZM15.3246 6C15.899 6 16.3646 6.46562 16.3646 7.04V7.6H19.7246C20.2928 7.59993 20.7559 8.05588 20.7646 8.624V17.76C20.7646 18.3344 20.299 18.8 19.7246 18.8H5.80465C5.23646 18.8 4.77339 18.3441 4.76465 17.776V8.624C4.77339 8.05588 5.23646 7.59993 5.80465 7.6H9.12465V7.04C9.12465 6.46562 9.59027 6 10.1646 6H15.3246ZM19.1646 9.2H6.36465V17.2H19.1646V9.2ZM12.7646 11.6C13.6483 11.6 14.3646 12.3163 14.3646 13.2C14.3646 14.0837 13.6483 14.8 12.7646 14.8C11.8809 14.8 11.1646 14.0837 11.1646 13.2C11.1646 12.3163 11.8809 11.6 12.7646 11.6ZM17.5726 9.984C18.0144 9.984 18.3726 10.3422 18.3726 10.784C18.3726 11.2258 18.0144 11.584 17.5726 11.584C17.1308 11.584 16.7726 11.2258 16.7726 10.784C16.7726 10.3422 17.1308 9.984 17.5726 9.984Z"
    fill="#FF6600"
  />
</svg>
