<svg width="25" height="24" viewBox="0 0 25 24" fill="none" xmlns="http://www.w3.org/2000/svg">
  <path
    d="M14.7646 1.99988C14.9009 1.97935 15.0393 2.01964 15.1432 2.11011C15.2471 2.20057 15.3061 2.33209 15.3046 2.46988V8.06988H22.3046C22.4377 8.05564 22.5705 8.0988 22.6698 8.18853C22.769 8.27826 22.8254 8.40606 22.8246 8.53988V14.2399C22.7648 17.4628 20.8019 20.3443 17.8246 21.5799L17.1046 21.8899C16.9301 21.9617 16.7433 21.9991 16.5546 21.9999C16.3627 21.9982 16.1728 21.9609 15.9946 21.8899L15.2846 21.5799C12.7378 20.4821 10.9173 18.1727 10.4446 15.4399L10.3046 15.5099L9.59465 15.8199C9.4164 15.8909 9.22652 15.9282 9.03465 15.9299C8.84593 15.9291 8.65915 15.8917 8.48465 15.8199L7.76465 15.5099C4.79588 14.2639 2.83732 11.3887 2.76465 8.16988V2.46988C2.76465 2.21416 2.96899 2.00532 3.22465 1.99988H14.7646ZM20.7646 10.0399H14.9946C14.794 10.8101 14.4771 11.5453 14.0546 12.2199C14.2279 12.0808 14.4425 12.0034 14.6646 11.9999C14.9493 12.0025 15.2209 12.1194 15.4184 12.3244C15.6159 12.5295 15.7227 12.8053 15.7146 13.0899C14.6546 12.5599 14.6546 12.5599 13.5946 13.0899C13.6015 13.0016 13.6183 12.9144 13.6446 12.8299C13.2509 13.3752 12.7869 13.8661 12.2646 14.2899C12.3514 16.6862 13.8229 18.8135 16.0346 19.7399L16.5146 19.9499L16.9946 19.7399C19.2257 18.8101 20.7022 16.6561 20.7646 14.2399V10.0399ZM15.3204 15.2197C16.0758 14.7615 17.0234 14.7615 17.7788 15.2197C18.5342 15.6779 18.972 16.5182 18.9146 17.3999H14.1846C14.1272 16.5182 14.565 15.6779 15.3204 15.2197ZM13.2646 3.99988H4.76465V8.16988C4.82536 10.5837 6.29747 12.7371 8.52465 13.6699L9.00465 13.8799L9.48465 13.6699C11.723 12.7474 13.2055 10.5902 13.2646 8.16988V3.99988ZM18.4296 12.1232C18.9805 12.1232 19.4414 12.5415 19.4946 13.0899C18.4346 12.5599 18.4346 12.5599 17.3646 13.0899C17.4178 12.5415 17.8787 12.1232 18.4296 12.1232ZM11.3746 9.4499C11.3746 10.0784 11.1249 10.6813 10.6805 11.1257C10.236 11.5702 9.63321 11.8199 9.00465 11.8199C8.37609 11.8199 7.77327 11.5702 7.32881 11.1257C6.88435 10.6813 6.63465 10.0784 6.63465 9.4499H11.3746ZM7.12465 5.93988C7.71007 5.93988 8.18465 6.41446 8.18465 6.99988C7.12465 6.48988 7.12465 6.48988 6.06465 6.99988C6.06465 6.41446 6.53923 5.93988 7.12465 5.93988ZM10.3546 6.08189C10.6826 5.89254 11.0866 5.89254 11.4146 6.08189C11.7426 6.27124 11.9446 6.62118 11.9446 6.99988C10.8846 6.48988 10.8846 6.48988 9.82465 6.99988C9.82465 6.62118 10.0267 6.27124 10.3546 6.08189Z"
    fill="#FF6600"
  />
</svg>
