<svg width="25" height="24" viewBox="0 0 25 24" fill="none" xmlns="http://www.w3.org/2000/svg">
  <path
    d="M19.7246 6.625H16.3646V6.05625C16.3646 5.4729 15.899 5 15.3246 5H10.1646C9.59027 5 9.12465 5.4729 9.12465 6.05625V6.625H5.80465C5.23646 6.62493 4.77339 7.08801 4.76465 7.665V16.96C4.77339 17.537 5.23646 18 5.80465 18H19.7246C20.299 18 20.7646 17.5271 20.7646 16.9438V7.665C20.7559 7.08801 20.2928 6.62493 19.7246 6.625ZM12.7646 15.5625C10.9973 15.5625 9.56465 14.1074 9.56465 12.3125C9.56465 10.5176 10.9973 9.0625 12.7646 9.0625C14.5319 9.0625 15.9646 10.5176 15.9646 12.3125C15.9646 13.1745 15.6275 14.0011 15.0273 14.6106C14.4272 15.2201 13.6133 15.5625 12.7646 15.5625ZM12.7646 10.6875C13.6483 10.6875 14.3646 11.415 14.3646 12.3125C14.3646 13.21 13.6483 13.9375 12.7646 13.9375C11.8809 13.9375 11.1646 13.21 11.1646 12.3125C11.1646 11.415 11.8809 10.6875 12.7646 10.6875ZM17.5646 9.0625C18.0064 9.0625 18.3646 9.4263 18.3646 9.875C18.3646 10.3237 18.0064 10.6875 17.5646 10.6875C17.1228 10.6875 16.7646 10.3237 16.7646 9.875C16.7646 9.4263 17.1228 9.0625 17.5646 9.0625Z"
    fill="#FF6600"
  />
</svg>
