<svg width="25" height="24" viewBox="0 0 25 24" fill="none" xmlns="http://www.w3.org/2000/svg">
  <path
    d="M12.5257 18.9227C13.626 18.9227 14.5181 19.8157 14.5181 20.916C14.5181 22.0164 13.626 22.9085 12.5257 22.9085C11.4253 22.9085 10.5333 22.0164 10.5333 20.916C10.5333 19.8156 11.4253 18.9227 12.5257 18.9227ZM17.1372 1.39899C17.2614 1.15332 17.5613 1.05524 17.8069 1.18041C18.0517 1.30466 18.1498 1.60451 18.0255 1.85017C18.0255 1.85017 18.0217 1.85778 18.0141 1.87267L17.9804 1.93888C17.6694 2.55077 15.7985 6.23177 13.8973 9.9724L13.49 10.7737C13.4448 10.8626 13.3997 10.9514 13.3546 11.0401L13.0851 11.5703L16.1462 17.5936L19.5734 15.6142C20.0311 15.3489 20.5748 15.277 21.0857 15.4134C21.5967 15.5507 22.032 15.8841 22.2963 16.3428L22.7946 17.2059C23.059 17.6636 23.13 18.2073 22.9936 18.7182C22.8563 19.2282 22.5228 19.6635 22.0642 19.927L21.6335 20.1764C20.6041 20.7705 19.3794 20.9321 18.2314 20.6238C17.0824 20.3165 16.1035 19.5655 15.5084 18.5361C15.5084 18.5361 15.5042 18.5276 15.4959 18.5115L15.4595 18.4397C15.2029 17.9352 13.9714 15.5129 12.5258 12.669C11.0801 15.5129 9.84863 17.9352 9.59214 18.4397L9.54634 18.5298C8.94805 19.5655 7.96912 20.3165 6.82017 20.6238C5.67113 20.9321 4.44745 20.7705 3.41806 20.1764L2.9865 19.927C2.52881 19.6635 2.19532 19.2282 2.05801 18.7173C1.92164 18.2073 1.99261 17.6636 2.25697 17.2059L2.75484 16.3428C3.0192 15.8842 3.45449 15.5498 3.96544 15.4134C4.47639 15.277 5.02003 15.3489 5.47775 15.6142L8.90496 17.5936L11.966 11.5703C11.7871 11.2183 11.6065 10.863 11.4255 10.5069L11.0181 9.7054C8.98373 5.70259 7.02564 1.85017 7.02564 1.85017C6.9014 1.60448 6.99949 1.30464 7.24422 1.18041C7.4899 1.05524 7.78974 1.15333 7.91397 1.39899L12.5256 10.4711L17.1372 1.39899Z"
    fill="#FF6600"
  />
</svg>
