<svg
  width="24"
  height="24"
  viewBox="0 0 24 24"
  fill="none"
  xmlns="http://www.w3.org/2000/svg"
>
  <path
    d="M12 10C10.2327 10 8.8 11.4327 8.8 13.2C8.8 14.9673 10.2327 16.4 12 16.4C13.7673 16.4 15.2 14.9673 15.2 13.2C15.2 12.3513 14.8629 11.5374 14.2627 10.9373C13.6626 10.3371 12.8487 10 12 10ZM14.56 6C15.1344 6 15.6 6.46562 15.6 7.04V7.6H18.96C19.5282 7.59993 19.9913 8.05588 20 8.624V17.76C20 18.3344 19.5344 18.8 18.96 18.8H5.04C4.47181 18.8 4.00874 18.3441 4 17.776V8.624C4.00874 8.05588 4.47181 7.59993 5.04 7.6H8.36V7.04C8.36 6.46562 8.82562 6 9.4 6H14.56ZM18.4 9.2H5.6V17.2H18.4V9.2ZM12 11.6C12.8837 11.6 13.6 12.3163 13.6 13.2C13.6 14.0837 12.8837 14.8 12 14.8C11.1163 14.8 10.4 14.0837 10.4 13.2C10.4 12.3163 11.1163 11.6 12 11.6ZM16.808 9.984C17.2498 9.984 17.608 10.3422 17.608 10.784C17.608 11.2258 17.2498 11.584 16.808 11.584C16.3662 11.584 16.008 11.2258 16.008 10.784C16.008 10.3422 16.3662 9.984 16.808 9.984Z"
    fill="#FF6600"
  />
</svg>
