<svg width="25" height="24" viewBox="0 0 25 24" fill="none" xmlns="http://www.w3.org/2000/svg">
  <path
    d="M9.6653 7.11114C9.95188 6.97998 10.2789 6.96226 10.575 7.07214C10.8711 7.17849 11.1125 7.39827 11.2456 7.68185L13.3409 12.1436C14.3874 14.1452 15.3518 16.0559 15.8156 17C15.6776 16.9728 15.5385 16.9397 15.3946 16.9031C14.3755 16.6396 13.3528 16.1823 12.2731 15.7002C11.0625 15.1567 9.80919 14.5954 8.42144 14.2457C7.7341 14.0743 7.01347 13.9857 6.27857 13.9857C5.71847 13.9857 5.15838 14.0354 4.6078 14.1358C6.19652 13.3547 7.78523 12.5772 9.37395 11.7962C9.81275 11.5788 10.1112 11.4311 10.33 11.3224L9.59276 9.752L4.45677 12.1341C3.85982 12.4083 3.15345 12.1542 2.87638 11.5634C2.59931 10.9726 2.85497 10.2684 3.45074 9.9931L9.6653 7.11114ZM18.1983 7.5865C20.1676 7.5865 21.7658 9.1746 21.7646 11.1313C21.7646 13.0892 20.1676 14.6761 18.1971 14.6761C16.2279 14.6761 14.6296 13.0892 14.6296 11.1313C14.6308 9.1746 16.2279 7.5865 18.1983 7.5865Z"
    fill="#FF6600"
  />
</svg>
