<svg
  width="24"
  height="24"
  viewBox="0 0 24 24"
  fill="none"
  xmlns="http://www.w3.org/2000/svg"
>
  <path
    d="M6.49976 1.67349C6.49976 1.38147 6.27527 1.15698 5.98326 1.15698C5.69124 1.15698 5.46675 1.38147 5.46675 1.67349V2.81875H6.52168L6.52255 1.67349H6.49976ZM5.98326 8.47575C7.39772 8.47575 8.56489 7.3305 8.56489 5.89412C8.56489 4.47966 7.41963 3.31249 5.98326 3.31249C4.56879 3.31249 3.40163 4.45775 3.40163 5.89412C3.40163 7.3305 4.54688 8.47575 5.98326 8.47575ZM9.50752 3.40184C9.70921 3.20014 9.70921 2.86342 9.50752 2.66084C9.30583 2.45915 8.96911 2.45915 8.76653 2.66084L7.95888 3.49215L8.69988 4.23314L9.50752 3.40184ZM7.9589 8.31861L8.76743 9.1271C8.96912 9.3288 9.30584 9.3288 9.50842 9.1271C9.71011 8.92544 9.71011 8.58872 9.50842 8.38614L8.6999 7.57761L7.9589 8.31861ZM9.03663 6.43238H10.1819C10.4739 6.43238 10.6984 6.20789 10.6984 5.91587C10.6984 5.62386 10.4739 5.39937 10.1819 5.39937H9.03663V6.43238ZM3.24457 4.2322L3.98557 3.4912L3.17705 2.68268C2.97536 2.48099 2.63863 2.48099 2.43605 2.68268C2.23436 2.88437 2.23436 3.2211 2.43605 3.42368L3.24457 4.2322ZM5.44475 10.1365C5.44475 10.4285 5.66924 10.653 5.96126 10.653C6.25328 10.653 6.47777 10.4285 6.47777 10.1365V8.99125H5.42284L5.42197 10.1365H5.44475ZM1.74067 6.43243H2.88593V5.3775H1.74067C1.44865 5.3775 1.22416 5.60199 1.22416 5.89401C1.22416 6.18602 1.44865 6.43243 1.74067 6.43243ZM2.43607 8.38531C2.23438 8.587 2.23438 8.92372 2.43607 9.1263C2.63776 9.328 2.97449 9.328 3.17707 9.1263L3.98559 8.31778L3.2446 7.57766L2.43607 8.38531ZM19.7218 21.9449C17.3875 21.9449 16.6683 20.598 14.6937 20.598C14.4692 20.598 14.2219 20.6208 13.9755 20.6427L16.5571 14.0649C16.9167 14.0202 17.3428 14.0877 17.7918 14.2666C18.4425 14.5139 18.9143 14.9173 19.0712 15.2997C19.1159 15.4347 19.2729 15.4794 19.408 15.4347C19.7894 15.2549 20.4182 15.2777 21.0469 15.5241C21.5187 15.7039 21.9221 15.9731 22.1465 16.2651C22.2816 16.4221 22.5508 16.3774 22.5955 16.1757C23.426 12.8312 21.6528 9.3059 18.3531 8.02649C15.0078 6.72427 11.3264 8.16066 9.71026 11.214C9.62081 11.3938 9.77778 11.6183 9.97947 11.5955C10.339 11.5279 10.8099 11.5955 11.2817 11.7752C11.9104 12.0225 12.3813 12.4259 12.5392 12.8082C12.5839 12.9433 12.7409 12.988 12.8759 12.9433C13.2574 12.7635 13.8861 12.7863 14.5149 13.0327C14.9639 13.2125 15.3453 13.4589 15.5698 13.729L12.7628 20.8442C12.3138 20.9337 11.8648 21.0459 11.3483 21.1581V19.4298C11.3483 19.1825 11.2589 18.958 11.0791 18.801L11.8648 18.0153C12.0446 17.8355 12.0446 17.5663 11.8648 17.3865C11.6851 17.2068 11.4158 17.2068 11.2361 17.3865L8.81226 19.8568H4.97303C4.34428 19.8568 3.82777 20.3733 3.82777 21.0021L3.82865 21.8772C2.1897 22.0789 1.22412 22.4385 1.22412 22.8427H22.7751C22.7751 22.8427 22.0572 21.9449 19.7218 21.9449ZM15.3671 12.0227C15.3224 12.1122 15.2549 12.1578 15.1654 12.1578C15.1426 12.1578 15.1207 12.1578 15.076 12.135C14.9638 12.0902 14.8962 11.9552 14.941 11.8429C14.9638 11.7535 15.6144 10.0698 17.2981 9.2842C14.4691 8.90276 12.7407 10.8556 12.6732 10.9451C12.6284 10.9898 12.5609 11.0126 12.4934 11.0126C12.4487 11.0126 12.3811 10.9898 12.3364 10.9679C12.247 10.8784 12.2242 10.7434 12.3136 10.6539C12.3364 10.6311 14.6032 8.04942 18.1733 9.015C18.1733 9.015 18.1961 9.015 18.1961 9.0378H18.2189C21.4284 10.9898 21.0021 14.4246 21.0021 14.4466C20.9793 14.5589 20.8898 14.6483 20.7776 14.6483H20.7548C20.6425 14.6255 20.5531 14.5133 20.5531 14.401C20.5759 14.2888 20.867 11.7072 18.6677 9.8884C19.229 11.6615 18.3757 13.3004 18.331 13.3908C18.2863 13.4584 18.2188 13.5031 18.1293 13.5031C18.0846 13.5031 18.0618 13.5031 18.0171 13.4803C17.9048 13.4128 17.8601 13.2786 17.9276 13.1664C17.9276 13.1436 18.915 11.2582 18.0171 9.4852C16.108 10.0692 15.3671 11.9998 15.3671 12.0227ZM10.473 21.361C9.46283 21.5627 8.34038 21.7206 7.03811 21.7206C6.18487 21.7206 5.42197 21.7434 4.72564 21.81V21.0243C4.72564 20.8893 4.83789 20.777 4.97294 20.777H9.17068L9.30572 20.642L10.4729 19.4748L10.473 21.361Z"
    fill="#FF6600"
  />
</svg>
