<svg
  width="24"
  height="24"
  viewBox="0 0 24 24"
  fill="none"
  xmlns="http://www.w3.org/2000/svg"
>
  <path
    d="M6.99973 5.67003C7.50032 4.88526 8.53895 4.64901 9.32973 5.14003C10.7774 6.25485 12.1167 7.50371 13.3298 8.87003C13.5253 9.0585 13.6358 9.3184 13.6358 9.59C13.6358 9.8616 13.5253 10.1215 13.3298 10.31C13.1413 10.5056 12.8814 10.6161 12.6098 10.6161C12.3382 10.6161 12.0783 10.5056 11.8898 10.31L9.57973 8.00003C9.50527 7.931 9.40385 7.89886 9.30323 7.91241C9.2026 7.92596 9.11329 7.98377 9.05973 8.07003C7.0404 11.2507 6.8688 11.4945 6.85894 11.6006L6.85877 11.624C6.8589 11.6266 6.85905 11.6292 6.85919 11.632L6.85973 11.65C7.01319 17.0696 7.04271 16.6767 7.04838 18.7805L7.04904 19.0989C7.04913 19.1551 7.0492 19.213 7.04927 19.2726L7.04973 20.82C7.09106 21.2694 6.87466 21.7034 6.49095 21.9409C6.10724 22.1784 5.62223 22.1784 5.23851 21.9409C4.8548 21.7034 4.63841 21.2694 4.67973 20.82L4.67997 20.3714C4.68004 20.3005 4.68013 20.2315 4.68023 20.1643L4.68097 19.7819C4.68167 19.4799 4.68253 19.2183 4.68317 18.9857L4.68401 18.5962C4.68618 16.8216 4.65394 16.7793 4.32973 10.82C4.26266 10.3071 4.36821 9.7864 4.62973 9.34L6.99973 5.67003ZM19.1898 16.64C19.4659 16.64 19.6898 16.8639 19.6898 17.14C19.6898 17.4162 19.4659 17.64 19.1898 17.64H12.1898C11.9136 17.64 11.6898 17.4162 11.6898 17.14C11.6898 16.8639 11.9136 16.64 12.1898 16.64H19.1898ZM11.7548 11.0321C11.8881 11.0321 12.0159 11.0854 12.1098 11.18L13.7898 12.86L13.8527 12.9392C13.9786 13.1346 13.9576 13.3969 13.7898 13.57L13.6898 13.67H16.0898V12.17C16.0898 11.8939 16.3136 11.67 16.5898 11.67C16.8659 11.67 17.0898 11.8939 17.0898 12.17V14.67C17.0898 15.2223 16.6421 15.67 16.0898 15.67H12.6898C12.1375 15.67 11.6898 15.2223 11.6898 14.67C11.695 14.5008 11.7432 14.3356 11.8298 14.19C11.8502 14.1186 11.888 14.0533 11.9398 14L12.7298 13.21L11.3998 11.88C11.3031 11.7893 11.2483 11.6626 11.2483 11.53C11.2483 11.3974 11.3031 11.2708 11.3998 11.18C11.4937 11.0854 11.6215 11.0321 11.7548 11.0321ZM18.6898 13.06C19.2421 13.06 19.6898 13.5077 19.6898 14.06C19.6898 14.6123 19.2421 15.06 18.6898 15.06C18.1375 15.06 17.6898 14.6123 17.6898 14.06C17.6898 13.5077 18.1375 13.06 18.6898 13.06ZM9.89232 2.09645C10.4002 1.88279 10.9868 1.99666 11.3778 2.38482C11.7689 2.77298 11.8871 3.35872 11.6772 3.86814C11.4673 4.37757 10.9707 4.71001 10.4198 4.71003C10.06 4.71269 9.71401 4.57164 9.45867 4.31818C9.20333 4.06471 9.0597 3.71981 9.05973 3.36003C9.05568 2.80907 9.38445 2.3101 9.89232 2.09645Z"
    fill="#FF6600"
  />
</svg>
