<svg width="25" height="24" viewBox="0 0 25 24" fill="none" xmlns="http://www.w3.org/2000/svg">
  <path
    d="M18.1445 6.8901C18.0257 6.75896 17.8988 6.63538 17.7645 6.5201C16.8698 5.81885 15.6555 5.68354 14.6284 6.17064C13.6013 6.65774 12.9377 7.68355 12.9145 8.8201C12.7345 9.9881 13.257 11.153 14.2491 11.7953C15.2411 12.4376 16.5178 12.4376 17.5099 11.7953C18.502 11.153 19.0245 9.9881 18.8445 8.8201C18.8488 8.11211 18.5966 7.42652 18.1345 6.8901H18.1445ZM15.0545 7.0001C14.7745 7.4901 14.5445 7.7201 14.2145 7.7301C14.4134 7.40674 14.7066 7.152 15.0545 7.0001ZM14.2145 10.0001C13.9901 9.6662 13.8716 9.2724 13.8745 8.8701C13.8697 8.80018 13.8697 8.73002 13.8745 8.6601H14.1445C15.2245 8.6601 15.7145 7.6601 16.0845 6.9801V6.9101C16.0881 6.88355 16.0881 6.85665 16.0845 6.8301C16.572 6.89967 17.0188 7.14077 17.3445 7.5101C17.4959 7.66334 17.588 7.86531 17.6045 8.0801C17.5842 8.32802 17.4563 8.5546 17.2545 8.7001C16.9418 8.84287 16.5943 8.89152 16.2545 8.8401C15.7349 8.80098 15.2157 8.91947 14.7645 9.1801C14.4967 9.3862 14.3035 9.6741 14.2145 10.0001ZM17.2945 2.0001C18.7527 1.9681 20.1635 2.51875 21.2145 3.5301C22.2335 4.57353 22.7918 5.98187 22.7645 7.4401C22.708 9.59 21.8061 11.6309 20.2545 13.1201C18.9435 14.4574 17.2284 15.3255 15.3745 15.5901C15.2974 15.6226 15.2169 15.646 15.1345 15.6601L14.3245 15.7801C12.7345 16.0001 10.8345 16.2301 9.64444 17.2301C9.60312 17.3454 9.53843 17.4509 9.45444 17.5401L5.45444 21.5401C5.16265 21.8384 4.76169 22.0045 4.34444 22.0001C3.92042 22.0146 3.5088 21.8557 3.20444 21.5601C2.59461 20.9379 2.59461 19.9422 3.20444 19.3201L7.20444 15.3201C7.28669 15.23 7.38967 15.1614 7.50444 15.1201C8.47444 13.9301 8.76444 12.0001 8.94444 10.4901C8.98444 10.2101 9.06444 9.9301 9.06444 9.6801C9.25237 7.71394 10.1436 5.88168 11.5745 4.5201C13.0793 2.96595 15.1321 2.0616 17.2945 2.0001ZM10.0744 13.4701C9.9028 14.171 9.6335 14.8442 9.27444 15.4701C9.89362 15.1023 10.5597 14.8197 11.2545 14.6301C11.0156 14.4629 10.7914 14.2756 10.5844 14.0701C10.3962 13.8863 10.2255 13.6855 10.0744 13.4701ZM17.3145 3.7001C15.5949 3.74736 13.962 4.46513 12.7645 5.7001C11.6208 6.76838 10.8912 8.20629 10.7044 9.7601L10.7044 10.4433C10.7332 11.3729 11.1099 12.2615 11.7645 12.9301C12.5002 13.6417 13.4913 14.0273 14.5145 14.0001L14.8169 13.9845C16.4241 13.8645 17.9363 13.1608 19.0645 12.0001C20.3346 10.8135 21.0765 9.1676 21.1245 7.4301C21.1584 6.41549 20.7796 5.43046 20.0745 4.7001C19.3244 4.01246 18.331 3.65252 17.3145 3.7001ZM17.8145 9.4901C17.7154 9.7824 17.5473 10.0465 17.3245 10.2601V10.3101C16.9504 10.6918 16.439 10.9079 15.9045 10.9101C15.7455 10.9175 15.5865 10.8972 15.4345 10.8501C15.2515 10.758 15.1247 10.5827 15.0945 10.3801C15.0993 10.2132 15.1759 10.0565 15.3045 9.9501C15.6317 9.7962 15.9955 9.7373 16.3545 9.7801C16.8593 9.8326 17.3681 9.7316 17.8145 9.4901Z"
    fill="#FF6600"
  />
</svg>
