<svg
  width="24"
  height="24"
  viewBox="0 0 24 24"
  fill="none"
  xmlns="http://www.w3.org/2000/svg"
>
  <path
    d="M18.2568 17.7546C18.2568 16.7191 19.1852 15.899 20.2599 16.0857C20.9442 16.2045 21.5044 16.7647 21.6232 17.449C21.7315 18.0707 21.5044 18.6426 21.0917 19.0161C20.8254 19.2537 20.8254 19.6505 21.0917 19.8935C21.5044 20.2669 21.7304 20.8377 21.6232 21.4605C21.5044 22.1448 20.9442 22.705 20.2599 22.8238C19.1852 23.0106 18.2568 22.1957 18.2568 21.155H5.84148C5.84148 22.1904 4.91314 23.0106 3.8384 22.8238C3.15409 22.705 2.5939 22.1448 2.47508 21.4605C2.36684 20.8388 2.5939 20.2669 3.00661 19.8935C3.27291 19.6494 3.27291 19.2537 3.00661 19.0161C2.5939 18.6426 2.36792 18.0718 2.47508 17.449C2.5939 16.7647 3.15409 16.2045 3.8384 16.0857C4.91314 15.899 5.84148 16.7138 5.84148 17.7546H18.2568ZM12.049 7.08337C14.5836 7.08337 16.7959 8.77452 17.9619 11.2816C18.6525 12.7701 18.0298 14.5525 16.8415 15.1519C16.4288 15.3556 15.9195 15.293 15.58 14.9822C13.2255 12.8433 10.8723 12.8433 8.51801 14.9822C8.17851 15.293 7.66925 15.3609 7.25655 15.1519C6.06827 14.5525 5.44548 12.7701 6.13618 11.2816C7.30136 8.77561 9.5144 7.08337 12.049 7.08337ZM5.49125 6.07575C6.30712 7.10486 6.39836 8.38966 5.69495 8.94767C4.99261 9.5047 3.76083 9.1217 2.94604 8.09361C2.13017 7.06447 2.03999 5.77967 2.74234 5.22274C3.44574 4.66468 4.67646 5.04769 5.49125 6.07575ZM21.3559 5.21718C22.0594 5.77418 21.9681 7.06007 21.1533 8.08804C20.3375 9.1172 19.1067 9.4991 18.4033 8.9421C17.701 8.38509 17.7922 7.09921 18.607 6.07124C19.4229 5.0421 20.6536 4.66017 21.3559 5.21718ZM10.6232 3.21735C11.002 4.63371 10.5246 5.99179 9.5559 6.25172C8.58619 6.51059 7.49339 5.57377 7.11463 4.15846C6.73482 2.74209 7.2133 1.38402 8.18196 1.12409C9.15061 0.865218 10.2434 1.80204 10.6232 3.21735ZM15.9152 1.12409C16.8838 1.38402 17.3623 2.74204 16.9825 4.15737C16.6037 5.57374 15.5109 6.51059 14.5412 6.25063C13.5726 5.99176 13.0952 4.63374 13.4739 3.21735C13.8537 1.80204 14.9465 0.864138 15.9152 1.12409Z"
    fill="#FF6600"
  />
</svg>
