<svg width="25" height="24" viewBox="0 0 25 24" fill="none" xmlns="http://www.w3.org/2000/svg">
  <path
    d="M12.7646 15.9835L13.1622 15.5277C15.9158 12.3688 15.9158 7.6052 13.1622 4.44631L12.7646 4L12.367 4.44631C9.61336 7.60524 9.61336 12.3688 12.367 15.5277L12.7646 15.9835Z"
    fill="#FF6600"
  />
  <path
    d="M18.5546 15.3989C16.3339 16.891 14.5072 16.9472 12.7646 17.0711C12.8714 17.0786 9.60509 17.1699 6.97255 15.3993C5.03372 15.7863 3.76465 16.3628 3.76465 17.0078C3.76465 18.1728 7.81352 19.1172 12.7646 19.1172C17.7157 19.1172 21.7646 18.1728 21.7646 17.0078C21.7646 16.3626 20.4949 15.7858 18.5546 15.3989Z"
    fill="#FF6600"
  />
  <path
    d="M19.2767 7.89069C19.3495 10.8627 18.0117 13.7486 15.6514 15.6074C18.973 14.6326 21.479 11.6625 21.7236 8.09758L21.7648 7.49402L21.1612 7.53523C20.5142 7.57977 19.8764 7.70637 19.2767 7.89069Z"
    fill="#FF6600"
  />
  <path
    d="M9.8785 15.6075C7.51856 13.7491 6.18066 10.8629 6.25311 7.8908C5.65328 7.70644 5.0154 7.57973 4.36821 7.53519L3.76465 7.49402L3.80585 8.09759C4.05047 11.6627 6.55665 14.6329 9.8785 15.6075Z"
    fill="#FF6600"
  />
  <path
    d="M14.9829 14.7931C17.7426 12.6325 18.9472 8.89317 17.7991 5.47419L17.6065 4.90051L17.0642 5.16984C16.4908 5.45489 15.9686 5.80554 15.4898 6.19904C16.6829 8.95519 16.5187 12.1697 14.9829 14.7931Z"
    fill="#FF6600"
  />
  <path
    d="M10.5467 14.7932C9.01033 12.1698 8.84633 8.95515 10.0391 6.19897C9.56046 5.80547 9.03835 5.45489 8.46495 5.16984L7.92267 4.90051L7.73005 5.47419C6.58262 8.89296 7.78711 12.6326 10.5467 14.7932Z"
    fill="#FF6600"
  />
</svg>
