<svg width="25" height="24" viewBox="0 0 25 24" fill="none" xmlns="http://www.w3.org/2000/svg">
  <path
    d="M8.71128 2.09044C10.8373 1.83552 12.8185 3.20947 13.3249 5.28995H13.9549C14.5072 5.28995 14.9549 5.73767 14.9549 6.28995C14.9549 6.84224 14.5072 7.28995 13.9549 7.28995H13.3249V7.79995C13.3249 8.0043 13.1593 8.16995 12.9549 8.16995C12.7489 8.17002 12.5803 8.00591 12.5749 7.79995V7.24995H10.9549C10.4026 7.24995 9.95487 6.80224 9.95487 6.24995C9.95487 5.69767 10.4026 5.24995 10.9549 5.24995H11.2149C10.7553 4.31802 9.71299 3.82699 8.70178 4.06604C7.69056 4.3051 6.97847 5.21088 6.98486 6.24995V12.25H21.7649C22.191 12.2713 22.5254 12.6233 22.5249 13.05V16.45C22.5208 18.773 20.7818 20.7267 18.4749 21V21.5C18.4749 21.7761 18.2511 22 17.9749 22C17.701 21.9946 17.4802 21.7739 17.4749 21.5V21.05H9.59486C9.45386 21.0432 9.31351 21.0265 9.17486 21V21.46C9.16954 21.7339 8.94877 21.9546 8.67486 21.96C8.39872 21.96 8.17486 21.7361 8.17486 21.46V20.76C6.27828 20.1525 4.98976 18.3914 4.98486 16.4V6.28995C4.98507 4.14872 6.58528 2.34535 8.71128 2.09044ZM12.9549 9.3399C13.1593 9.3399 13.3249 9.5056 13.3249 9.7099V10.71C13.3276 10.8098 13.2898 10.9065 13.2201 10.9781C13.1505 11.0496 13.0548 11.09 12.9549 11.09C12.8541 11.09 12.7575 11.0499 12.6862 10.9787C12.615 10.9074 12.5749 10.8107 12.5749 10.71V9.7099C12.5803 9.504 12.7489 9.3399 12.9549 9.3399ZM11.9549 7.69995C12.0548 7.69992 12.1505 7.74027 12.2201 7.81184C12.2898 7.8834 12.3276 7.9801 12.3249 8.07995V10.08C12.3276 10.1798 12.2898 10.2765 12.2201 10.3481C12.1505 10.4196 12.0548 10.46 11.9549 10.46C11.8541 10.46 11.7575 10.4199 11.6862 10.3487C11.615 10.2774 11.5749 10.1807 11.5749 10.08V8.07995C11.5749 7.97917 11.615 7.88252 11.6862 7.81125C11.7575 7.73999 11.8541 7.69995 11.9549 7.69995Z"
    fill="#FF6600"
  />
</svg>
