<svg
  width="24"
  height="24"
  viewBox="0 0 24 24"
  fill="none"
  xmlns="http://www.w3.org/2000/svg"
>
  <path
    d="M11.9999 15.9835L12.3975 15.5277C15.1511 12.3688 15.1511 7.6052 12.3975 4.44631L11.9999 4L11.6023 4.44631C8.84871 7.60524 8.84871 12.3688 11.6023 15.5277L11.9999 15.9835Z"
    fill="#FF6600"
  />
  <path
    d="M17.79 15.3989C15.5693 16.891 13.7426 16.9472 12 17.0711C12.1068 17.0786 8.84044 17.1699 6.2079 15.3993C4.26907 15.7863 3 16.3628 3 17.0078C3 18.1728 7.04887 19.1172 12 19.1172C16.9511 19.1172 21 18.1728 21 17.0078C21 16.3626 19.7302 15.7858 17.79 15.3989Z"
    fill="#FF6600"
  />
  <path
    d="M18.512 7.89069C18.5848 10.8627 17.247 13.7486 14.8867 15.6074C18.2083 14.6326 20.7143 11.6625 20.9589 8.09758L21.0001 7.49402L20.3965 7.53523C19.7495 7.57977 19.1117 7.70637 18.512 7.89069Z"
    fill="#FF6600"
  />
  <path
    d="M9.11385 15.6075C6.75391 13.7491 5.41601 10.8629 5.48846 7.8908C4.88863 7.70644 4.25075 7.57973 3.60356 7.53519L3 7.49402L3.0412 8.09759C3.28582 11.6627 5.792 14.6329 9.11385 15.6075Z"
    fill="#FF6600"
  />
  <path
    d="M14.2183 14.7931C16.978 12.6325 18.1826 8.89317 17.0345 5.47419L16.8419 4.90051L16.2996 5.16984C15.7262 5.45489 15.204 5.80554 14.7252 6.19904C15.9183 8.95519 15.7541 12.1697 14.2183 14.7931Z"
    fill="#FF6600"
  />
  <path
    d="M9.78201 14.7933C8.24568 12.1699 8.08168 8.95521 9.27449 6.19903C8.79581 5.80553 8.2737 5.45495 7.7003 5.1699L7.15802 4.90057L6.9654 5.47425C5.81797 8.89302 7.02246 12.6327 9.78201 14.7933Z"
    fill="#FF6600"
  />
</svg>
