<svg width="25" height="24" viewBox="0 0 25 24" fill="none" xmlns="http://www.w3.org/2000/svg">
  <path
    d="M21.2246 2C22.0751 2 22.7646 2.68948 22.7646 3.54V20.46C22.7646 21.3105 22.0751 22 21.2246 22H4.30465C3.45413 22 2.76465 21.3105 2.76465 20.46V3.54C2.76465 2.68948 3.45413 2 4.30465 2H21.2246ZM20.7646 4H4.76465V20H20.7646V4ZM18.7646 6V18H6.76465V6H18.7646ZM13.4646 8.08H10.6146C10.5018 8.07866 10.3898 8.09903 10.2846 8.14C10.1833 8.18093 10.0914 8.24219 10.0146 8.32C9.93245 8.39304 9.87046 8.48603 9.83465 8.59C9.78574 8.69653 9.7618 8.81282 9.76465 8.93V15.63C9.75228 15.7555 9.7694 15.8822 9.81465 16C9.85789 16.0942 9.91902 16.1791 9.99465 16.25C10.075 16.3208 10.1661 16.3781 10.2646 16.42C10.4774 16.4998 10.7119 16.4998 10.9246 16.42C11.0247 16.3813 11.1164 16.3236 11.1946 16.25C11.2724 16.1732 11.3337 16.0814 11.3746 15.98C11.4237 15.87 11.4476 15.7504 11.4446 15.63V13.93C11.4446 13.81 11.4946 13.76 11.6046 13.76H13.4246C13.8425 13.7648 14.2571 13.6866 14.6446 13.53C15.3353 13.2537 15.8767 12.6978 16.1346 12C16.268 11.6382 16.3357 11.2556 16.3346 10.87C16.3417 10.4816 16.2773 10.0951 16.1446 9.73C16.033 9.3975 15.8446 9.096 15.5946 8.85C15.3423 8.59826 15.0388 8.40384 14.7046 8.28C14.3059 8.14238 13.8864 8.07472 13.4646 8.08ZM13.4046 9.58C13.7314 9.5517 14.0558 9.6563 14.3046 9.87C14.546 10.1441 14.662 10.5066 14.6246 10.87C14.6256 11.0629 14.5986 11.2549 14.5446 11.44C14.4992 11.603 14.4171 11.7535 14.3046 11.88C14.2032 12.006 14.0728 12.1055 13.9246 12.17C13.7591 12.2356 13.5827 12.2696 13.4046 12.27H11.6046C11.4946 12.27 11.4446 12.21 11.4446 12.1V9.75C11.4446 9.63 11.4946 9.58 11.6046 9.58H13.4046Z"
    fill="#FF6600"
  />
</svg>
