<svg
  width="24"
  height="24"
  viewBox="0 0 24 24"
  fill="none"
  xmlns="http://www.w3.org/2000/svg"
>
  <path
    d="M8.90065 7.11114C9.18723 6.97998 9.51425 6.96226 9.81035 7.07214C10.1065 7.17849 10.3479 7.39827 10.481 7.68185L12.5763 12.1436C13.6228 14.1452 14.5872 16.0559 15.051 17C14.913 16.9728 14.7739 16.9397 14.63 16.9031C13.6109 16.6396 12.5882 16.1823 11.5085 15.7002C10.2979 15.1567 9.04454 14.5954 7.65679 14.2457C6.96945 14.0743 6.24882 13.9857 5.51392 13.9857C4.95382 13.9857 4.39373 14.0354 3.84315 14.1358C5.43187 13.3547 7.02058 12.5772 8.6093 11.7962C9.0481 11.5788 9.34658 11.4311 9.56539 11.3224L8.82811 9.752L3.69212 12.1341C3.09517 12.4083 2.3888 12.1542 2.11173 11.5634C1.83466 10.9726 2.09032 10.2684 2.68609 9.9931L8.90065 7.11114ZM17.4337 7.5865C19.403 7.5865 21.0012 9.1746 21 11.1313C21 13.0892 19.403 14.6761 17.4325 14.6761C15.4633 14.6761 13.865 13.0892 13.865 11.1313C13.8662 9.1746 15.4633 7.5865 17.4337 7.5865Z"
    fill="#FF6600"
  />
</svg>
