<svg
  width="24"
  height="24"
  viewBox="0 0 24 24"
  fill="none"
  xmlns="http://www.w3.org/2000/svg"
>
  <path
    d="M10.9998 9.4501H7.45981V7.00008C7.46177 6.86449 7.40746 6.73415 7.30981 6.64008L4.73981 4.07008C4.64592 3.97542 4.51812 3.92218 4.38481 3.92218C4.25149 3.92218 4.12369 3.97542 4.02981 4.07008C3.93313 4.16081 3.87829 4.28749 3.87829 4.42008C3.87829 4.55266 3.93313 4.67934 4.02981 4.77008L6.45981 7.20008V9.4501H2.69981C2.51103 9.4519 2.33177 9.5332 2.20612 9.6741C2.08046 9.815 2.02007 10.0023 2.03981 10.1901L3.31981 21.4101C3.35635 21.7548 3.65337 22.0125 3.99981 22.0001H9.31981C9.65027 21.9988 9.93048 21.7568 9.97981 21.4301L11.6198 10.2101C11.6452 10.0258 11.5928 9.8393 11.4752 9.6951C11.3576 9.551 11.1854 9.4622 10.9998 9.4501ZM9.44981 11.4501L8.99981 14.0001C7.95864 13.4691 6.69373 13.6711 5.86981 14.5001C5.50078 14.8641 4.91475 14.8858 4.51981 14.5501L4.19981 11.4501H9.44981ZM21.1998 2.00008C21.4082 1.98909 21.612 2.06429 21.7633 2.20803C21.9146 2.35176 22.0001 2.55139 21.9998 2.76008V21.0001C21.9998 21.5524 21.5521 22.0001 20.9998 22.0001L20.8832 21.9934C20.3858 21.9356 19.9998 21.5129 19.9998 21.0001V11.8201H18.7598C18.3401 11.8201 17.9998 11.4798 17.9998 11.0601V5.19008C17.9997 3.44379 19.4037 2.02197 21.1498 2.00008H21.1998ZM15.7298 1.99998C16.0021 1.99998 16.2244 2.21785 16.2298 2.49008V6.32008C16.2277 6.90502 16.0147 7.46957 15.6298 7.91008C15.3802 8.19419 15.0736 8.42249 14.7298 8.58008V21.0001C14.7298 21.5524 14.2821 22.0001 13.7298 22.0001L13.6132 21.9934C13.1158 21.9356 12.7298 21.5129 12.7298 21.0001V8.58008C12.3829 8.42782 12.0752 8.19872 11.8298 7.91008C11.445 7.46957 11.2319 6.90502 11.2298 6.32008V2.49008C11.2298 2.35837 11.2828 2.2322 11.3768 2.14001C11.4709 2.04783 11.5981 1.99739 11.7298 1.99998C12.0021 1.99998 12.2244 2.21785 12.2298 2.49008V6.49008C12.2298 6.62179 12.2828 6.74796 12.3768 6.84014C12.4709 6.93233 12.5981 6.98277 12.7298 6.98008C13.0021 6.98013 13.2244 6.76231 13.2298 6.49008V2.49008C13.2298 2.35837 13.2828 2.2322 13.3768 2.14001C13.4709 2.04783 13.5981 1.99739 13.7298 1.99998C14.0021 1.99998 14.2244 2.21785 14.2298 2.49008V6.49008C14.2298 6.62179 14.2828 6.74796 14.3768 6.84014C14.4709 6.93233 14.5981 6.98277 14.7298 6.98008C15.0021 6.98013 15.2244 6.76231 15.2298 6.49008V2.49008C15.2298 2.35837 15.2828 2.2322 15.3768 2.14001C15.4709 2.04783 15.5981 1.99739 15.7298 1.99998ZM8.69981 16.1601L8.16981 20.0001H5.16981L4.80981 16.7701C4.97191 16.7971 5.13558 16.8138 5.29981 16.8201C6.05789 16.8086 6.77916 16.4912 7.29981 15.9401C7.71981 15.5101 8.35981 15.9401 8.69981 16.1601Z"
    fill="#FF6600"
  />
</svg>
