<svg width="25" height="24" viewBox="0 0 25 24" fill="none" xmlns="http://www.w3.org/2000/svg">
  <path
    d="M12.7645 1.81006C15.5259 1.81006 17.7645 4.04863 17.7645 6.81006H19.3245C19.9222 6.81342 20.4177 7.27415 20.4645 7.87006L21.4445 20.7101C21.4669 21.0276 21.3543 21.3399 21.1345 21.5701C20.9233 21.8062 20.6213 21.9408 20.3045 21.9401H5.20454C4.88057 21.9376 4.57237 21.7999 4.35454 21.5601C4.14666 21.3277 4.042 21.021 4.06454 20.7101L5.06454 7.86006C5.11159 7.26585 5.60847 6.8082 6.20454 6.81006H7.76454C7.76454 4.04863 10.0031 1.81006 12.7645 1.81006ZM12.8145 4.06006C11.13 4.06006 9.76454 5.42559 9.76454 7.11006V8.81006H6.99454L6.15454 19.9401H19.4245L18.5845 8.81006H15.8645V7.11006C15.8645 5.42559 14.499 4.06006 12.8145 4.06006ZM12.7645 5.65006C13.7476 5.65006 14.5445 6.44699 14.5445 7.43006V7.85006H10.9845V7.43006C10.9845 6.44699 11.7814 5.65006 12.7645 5.65006Z"
    fill="#FF6600"
  />
</svg>
