<svg
  width="24"
  height="24"
  viewBox="0 0 24 24"
  fill="none"
  xmlns="http://www.w3.org/2000/svg"
>
  <path
    d="M15.1259 5.85911C16.7316 5.54221 18.3375 6.40391 18.9612 7.91708C19.5849 9.4302 19.0526 11.1733 17.69 12.0799C20.1294 12.2973 21.9993 14.3408 22 16.7899V18.2499H16.24V17.2499C16.2384 15.7942 15.2574 14.5217 13.85 14.1499C14.2036 13.7299 14.3983 13.1989 14.4 12.6499C14.4 11.5451 13.6368 10.5869 12.56 10.3399C12.433 9.9799 12.3655 9.6016 12.36 9.2199C12.3621 7.58321 13.5202 6.17601 15.1259 5.85911ZM12.84 14.7599C13.5455 14.7599 14.2221 15.0401 14.7209 15.539C15.2198 16.0378 15.5 16.7144 15.5 17.4199V18.2099H8.5V17.4199C8.5 16.7144 8.78025 16.0378 9.2791 15.539C9.77794 15.0401 10.4545 14.7599 11.16 14.7599H12.84ZM5.24929 7.56381C6.10565 6.00129 8.01579 5.35467 9.64518 6.07571C11.2746 6.79675 12.0805 8.64531 11.5 10.3299C10.6949 10.5041 10.0389 11.0855 9.76922 11.8639C9.49955 12.6423 9.65525 13.5049 10.18 14.1399C8.77338 14.5005 7.78216 15.7579 7.76 17.2099V18.2099H2V16.7899C2.00247 14.3212 3.89929 12.2678 6.36 12.0699C4.87557 11.0843 4.39293 9.1263 5.24929 7.56381ZM12.02 10.8999C12.9865 10.8999 13.77 11.6834 13.77 12.6499C13.77 13.6164 12.9865 14.3999 12.02 14.3999C11.0535 14.3999 10.27 13.6164 10.27 12.6499C10.27 11.6834 11.0535 10.8999 12.02 10.8999Z"
    fill="#FF6600"
  />
</svg>
