<svg width="25" height="24" viewBox="0 0 25 24" fill="none" xmlns="http://www.w3.org/2000/svg">
  <path
    d="M15.8905 5.85911C17.4962 5.54221 19.1021 6.40391 19.7258 7.91708C20.3495 9.4302 19.8172 11.1733 18.4546 12.0799C20.894 12.2973 22.7639 14.3408 22.7646 16.7899V18.2499H17.0046V17.2499C17.003 15.7942 16.022 14.5217 14.6146 14.1499C14.9682 13.7299 15.1629 13.1989 15.1646 12.6499C15.1646 11.5451 14.4014 10.5869 13.3246 10.3399C13.1976 9.9799 13.1301 9.6016 13.1246 9.2199C13.1267 7.58321 14.2848 6.17601 15.8905 5.85911ZM13.6046 14.7599C14.3101 14.7599 14.9867 15.0401 15.4855 15.539C15.9844 16.0378 16.2646 16.7144 16.2646 17.4199V18.2099H9.26465V17.4199C9.26465 16.7144 9.5449 16.0378 10.0437 15.539C10.5426 15.0401 11.2191 14.7599 11.9246 14.7599H13.6046ZM6.01394 7.56381C6.8703 6.00129 8.78044 5.35467 10.4098 6.07571C12.0392 6.79675 12.8451 8.64531 12.2646 10.3299C11.4595 10.5041 10.8035 11.0855 10.5339 11.8639C10.2642 12.6423 10.4199 13.5049 10.9446 14.1399C9.53803 14.5005 8.54681 15.7579 8.52465 17.2099V18.2099H2.76465V16.7899C2.76712 14.3212 4.66394 12.2678 7.12465 12.0699C5.64022 11.0843 5.15758 9.1263 6.01394 7.56381ZM12.7846 10.8999C13.7511 10.8999 14.5346 11.6834 14.5346 12.6499C14.5346 13.6164 13.7511 14.3999 12.7846 14.3999C11.8181 14.3999 11.0346 13.6164 11.0346 12.6499C11.0346 11.6834 11.8181 10.8999 12.7846 10.8999Z"
    fill="#FF6600"
  />
</svg>
