<svg width="25" height="24" viewBox="0 0 25 24" fill="none" xmlns="http://www.w3.org/2000/svg">
  <path
    d="M21.1507 18.6548H4.15061C3.60061 18.6548 3.15061 19.1048 3.15061 19.6548C3.15061 20.2048 3.60061 20.6548 4.15061 20.6548H21.1507C21.7007 20.6548 22.1507 20.2048 22.1507 19.6548C22.1507 19.1048 21.7007 18.6548 21.1507 18.6548ZM22.7207 9.2948C22.5007 8.49482 21.6807 8.02482 20.8807 8.23482L15.5707 9.6548L9.11061 3.63482C8.84061 3.37482 8.45061 3.28482 8.09061 3.38482C7.41061 3.57482 7.09061 4.35482 7.44061 4.96482L10.8807 10.9248L5.91061 12.2548L4.34061 11.0148C4.09061 10.8248 3.77061 10.7548 3.46061 10.8348L3.13061 10.9248C2.81061 11.0048 2.66061 11.3748 2.83061 11.6548L4.71061 14.9048C4.94061 15.2948 5.40061 15.4848 5.83061 15.3748L21.6507 11.1348C22.4507 10.9148 22.9307 10.0948 22.7207 9.2948Z"
    fill="#FF6600"
  />
</svg>
