<svg
  width="24"
  height="24"
  viewBox="0 0 24 24"
  fill="none"
  xmlns="http://www.w3.org/2000/svg"
>
  <path
    d="M21.1053 2.81093C20.5891 2.29186 19.8873 2 19.1553 2C18.4232 2 17.7214 2.29186 17.2053 2.81093L13.4053 6.61093L6.23527 4.24093C5.62466 4.03206 4.94838 4.19141 4.49527 4.65093L3.49527 5.65093C3.12343 6.01865 2.94153 6.53704 3.00207 7.05647C3.0626 7.5759 3.35884 8.03857 3.80527 8.31093L8.69527 11.3109L6.02527 13.9609L4.71527 13.7509C4.21093 13.6622 3.69517 13.8267 3.33527 14.1909L2.46527 15.0709C2.08012 15.4544 1.91908 16.0089 2.03892 16.539C2.15875 17.0691 2.54263 17.5004 3.05527 17.6809L5.38527 18.5009L6.20527 20.8309C6.38842 21.3378 6.81881 21.7154 7.34527 21.8309C7.46507 21.8408 7.58547 21.8408 7.70527 21.8309C8.12284 21.8271 8.52192 21.6581 8.81527 21.3609L9.69527 20.4909C10.0566 20.1292 10.2205 19.615 10.1353 19.1109L9.95527 17.8909L12.6353 15.2109L15.6353 20.1009C15.9063 20.5452 16.366 20.8409 16.8827 20.9033C17.3994 20.9657 17.9162 20.7879 18.2853 20.4209L19.2853 19.4209C19.744 18.9676 19.9067 18.2936 19.7053 17.6809L17.3253 10.5109L21.1253 6.71093C21.6417 6.19211 21.93 5.4888 21.9262 4.75677C21.9225 4.02474 21.627 3.32442 21.1053 2.81093ZM19.6953 5.30093L15.4553 9.5309C15.1969 9.7944 15.1046 10.1788 15.2153 10.5309L17.7253 18.1109L17.1253 18.7109L13.6453 13.0609C13.484 12.8051 13.2156 12.636 12.9153 12.6009C12.6103 12.5617 12.3042 12.6649 12.0853 12.8809L8.14527 16.8409C7.91712 17.0688 7.81287 17.3927 7.86527 17.7109L8.12527 19.3109L7.87527 19.5709L7.20527 17.6809C7.05085 17.207 6.67923 16.8353 6.20527 16.6809L4.31527 16.0109L4.57527 15.7609L6.17527 16.0209C6.49345 16.0733 6.81738 15.9691 7.04527 15.7409L10.9853 11.8009C11.2013 11.582 11.3045 11.2759 11.2653 10.9709C11.2302 10.6706 11.0611 10.4022 10.8053 10.2409L5.18527 6.79093L5.78527 6.19093L13.3653 8.70093C13.7173 8.81159 14.1018 8.71933 14.3653 8.46093L18.5953 4.22093C18.7882 4.028 19.0694 3.95266 19.3329 4.02327C19.5965 4.09389 19.8023 4.29974 19.8729 4.56327C19.9435 4.82681 19.8682 5.108 19.6753 5.30093H19.6953Z"
    fill="#FF6600"
  />
</svg>
