<svg
  width="24"
  height="24"
  viewBox="0 0 24 24"
  fill="none"
  xmlns="http://www.w3.org/2000/svg"
>
  <path
    d="M2.50152 2C2.6341 2 2.76079 2.05484 2.85152 2.15152L5.65152 4.93152L18.3515 17.6515L21.1515 20.4515C21.2766 20.5766 21.3254 20.7588 21.2796 20.9296C21.2339 21.1004 21.1004 21.2339 20.9296 21.2796C20.7588 21.3254 20.5766 21.2766 20.4515 21.1515L17.6215 18.3815L17.3115 18.6915C17.1694 18.8236 16.9763 18.8864 16.7837 18.8632C16.5911 18.8401 16.4184 18.7334 16.3115 18.5715L13.8415 14.5715L12.4815 13.2115L9.04152 16.6515L9.36152 18.3515C9.39188 18.5263 9.33602 18.7051 9.21152 18.8315L8.37152 19.6715C8.23537 19.8056 8.04028 19.8609 7.85402 19.8184C7.66776 19.7759 7.51602 19.6414 7.45152 19.4615L6.61152 17.0615C6.55635 16.902 6.43101 16.7767 6.27152 16.7215L3.86152 15.8815C3.68168 15.817 3.54714 15.6653 3.50462 15.479C3.4621 15.2928 3.51748 15.0977 3.65152 14.9615L4.44152 14.1215C4.56914 13.9917 4.75189 13.932 4.93152 13.9615L6.65152 14.2515L10.1315 10.7615L8.77152 9.4015L4.77152 6.93152C4.61243 6.82248 4.50805 6.65018 4.48507 6.45869C4.46209 6.2672 4.52275 6.0751 4.65152 5.93152L4.92152 5.65152L2.15152 2.85152C2.05484 2.76079 2 2.6341 2 2.50152C2 2.36893 2.05484 2.24225 2.15152 2.15152L2.21003 2.09864C2.29316 2.0351 2.39545 2 2.50152 2ZM17.6515 3.23152C18.3198 2.57706 19.3921 2.58825 20.0465 3.25652C20.701 3.92478 20.6898 4.99706 20.0215 5.65152L16.0215 9.6515L18.1115 15.9815L7.31152 5.17152L13.6515 7.23152L17.6515 3.23152Z"
    fill="#FF6600"
  />
</svg>
