<svg width="25" height="24" viewBox="0 0 25 24" fill="none" xmlns="http://www.w3.org/2000/svg">
  <path
    fill-rule="evenodd"
    clip-rule="evenodd"
    d="M12.7646 1C6.68952 1 1.76465 5.92487 1.76465 12C1.76465 18.0751 6.68952 23 12.7646 23C18.8397 23 23.7646 18.0751 23.7646 12C23.7646 5.92487 18.8397 1 12.7646 1ZM17.9533 8.07623C18.0731 7.71689 17.9795 7.32073 17.7117 7.05289C17.4439 6.78506 17.0477 6.69154 16.6884 6.81132L10.3284 8.93132C10.0298 9.03085 9.79551 9.26517 9.69598 9.56377L7.57598 15.9238C7.4562 16.2831 7.54972 16.6793 7.81755 16.9471C8.08539 17.2149 8.48155 17.3085 8.84089 17.1887L15.2008 15.0687C15.4994 14.9691 15.7338 14.7348 15.8333 14.4362L17.9533 8.07623ZM10.1058 14.6589L11.4352 10.6706L15.4235 9.34114L14.094 13.3294L10.1058 14.6589Z"
    fill="#FF6600"
  />
</svg>
