<svg width="25" height="24" viewBox="0 0 25 24" fill="none" xmlns="http://www.w3.org/2000/svg">
  <path
    d="M21.8699 2.81093C21.3537 2.29186 20.6519 2 19.9199 2C19.1878 2 18.486 2.29186 17.9699 2.81093L14.1699 6.61093L6.99992 4.24093C6.38931 4.03206 5.71303 4.19141 5.25992 4.65093L4.25992 5.65093C3.88808 6.01865 3.70618 6.53704 3.76672 7.05647C3.82725 7.5759 4.12349 8.03857 4.56992 8.31093L9.45992 11.3109L6.78992 13.9609L5.47992 13.7509C4.97558 13.6622 4.45982 13.8267 4.09992 14.1909L3.22992 15.0709C2.84477 15.4544 2.68373 16.0089 2.80357 16.539C2.9234 17.0691 3.30728 17.5004 3.81992 17.6809L6.14992 18.5009L6.96992 20.8309C7.15307 21.3378 7.58346 21.7154 8.10992 21.8309C8.22972 21.8408 8.35012 21.8408 8.46992 21.8309C8.88749 21.8271 9.28657 21.6581 9.57992 21.3609L10.4599 20.4909C10.8212 20.1292 10.9851 19.615 10.8999 19.1109L10.7199 17.8909L13.3999 15.2109L16.3999 20.1009C16.6709 20.5452 17.1306 20.8409 17.6473 20.9033C18.164 20.9657 18.6808 20.7879 19.0499 20.4209L20.0499 19.4209C20.5086 18.9676 20.6713 18.2936 20.4699 17.6809L18.0899 10.5109L21.8899 6.71093C22.4063 6.19211 22.6946 5.4888 22.6908 4.75677C22.6871 4.02474 22.3916 3.32442 21.8699 2.81093ZM20.4599 5.30093L16.2199 9.5309C15.9615 9.7944 15.8692 10.1788 15.9799 10.5309L18.4899 18.1109L17.8899 18.7109L14.4099 13.0609C14.2486 12.8051 13.9802 12.636 13.6799 12.6009C13.3749 12.5617 13.0688 12.6649 12.8499 12.8809L8.90992 16.8409C8.68177 17.0688 8.57752 17.3927 8.62992 17.7109L8.88992 19.3109L8.63992 19.5709L7.96992 17.6809C7.8155 17.207 7.44388 16.8353 6.96992 16.6809L5.07992 16.0109L5.33992 15.7609L6.93992 16.0209C7.2581 16.0733 7.58203 15.9691 7.80992 15.7409L11.7499 11.8009C11.9659 11.582 12.0691 11.2759 12.0299 10.9709C11.9948 10.6706 11.8257 10.4022 11.5699 10.2409L5.94992 6.79093L6.54992 6.19093L14.1299 8.70093C14.4819 8.81159 14.8664 8.71933 15.1299 8.46093L19.3599 4.22093C19.5528 4.028 19.834 3.95266 20.0975 4.02327C20.3611 4.09389 20.5669 4.29974 20.6375 4.56327C20.7081 4.82681 20.6328 5.108 20.4399 5.30093H20.4599Z"
    fill="#FF6600"
  />
</svg>
