<svg
  width="24"
  height="24"
  viewBox="0 0 24 24"
  fill="none"
  xmlns="http://www.w3.org/2000/svg"
>
  <path
    fill-rule="evenodd"
    clip-rule="evenodd"
    d="M12 1C5.92487 1 1 5.92487 1 12C1 18.0751 5.92487 23 12 23C18.0751 23 23 18.0751 23 12C23 5.92487 18.0751 1 12 1ZM17.1887 8.07623C17.3085 7.71689 17.2149 7.32073 16.9471 7.05289C16.6793 6.78506 16.2831 6.69154 15.9238 6.81132L9.56378 8.93132C9.26518 9.03085 9.03086 9.26517 8.93133 9.56377L6.81133 15.9238C6.69155 16.2831 6.78507 16.6793 7.0529 16.9471C7.32074 17.2149 7.7169 17.3085 8.07624 17.1887L14.4362 15.0687C14.7348 14.9691 14.9692 14.7348 15.0687 14.4362L17.1887 8.07623ZM9.34115 14.6589L10.6706 10.6706L14.6589 9.34114L13.3294 13.3294L9.34115 14.6589Z"
    fill="#FF6600"
  />
</svg>
