<svg
  width="24"
  height="24"
  viewBox="0 0 24 24"
  fill="none"
  xmlns="http://www.w3.org/2000/svg"
>
  <path
    d="M20.5 19.3431H3.5C2.95 19.3431 2.5 19.7931 2.5 20.3431C2.5 20.8931 2.95 21.3431 3.5 21.3431H20.5C21.05 21.3431 21.5 20.8931 21.5 20.3431C21.5 19.7931 21.05 19.3431 20.5 19.3431ZM3.51 11.9531L19.34 16.1931C20.14 16.4031 20.96 15.9331 21.18 15.1331C21.39 14.3331 20.92 13.5131 20.12 13.2931L14.81 11.8731L12.23 3.42313C12.12 3.06313 11.84 2.79313 11.48 2.69313C10.8 2.51313 10.13 3.02313 10.13 3.73313V10.6131L5.15 9.2931L4.4 7.43313C4.28 7.14313 4.04 6.92313 3.73 6.84313L3.4 6.75313C3.08 6.66313 2.77 6.90313 2.77 7.23313V10.9831C2.77 11.4431 3.07 11.8331 3.51 11.9531Z"
    fill="#FF6600"
  />
</svg>
