<svg width="25" height="24" viewBox="0 0 25 24" fill="none" xmlns="http://www.w3.org/2000/svg">
  <path
    d="M21.2646 19.3431H4.26465C3.71465 19.3431 3.26465 19.7931 3.26465 20.3431C3.26465 20.8931 3.71465 21.3431 4.26465 21.3431H21.2646C21.8146 21.3431 22.2646 20.8931 22.2646 20.3431C22.2646 19.7931 21.8146 19.3431 21.2646 19.3431ZM4.27465 11.9531L20.1046 16.1931C20.9046 16.4031 21.7246 15.9331 21.9446 15.1331C22.1546 14.3331 21.6846 13.5131 20.8846 13.2931L15.5746 11.8731L12.9946 3.42313C12.8846 3.06313 12.6046 2.79313 12.2446 2.69313C11.5646 2.51313 10.8946 3.02313 10.8946 3.73313V10.6131L5.91465 9.2931L5.16465 7.43313C5.04465 7.14313 4.80465 6.92313 4.49465 6.84313L4.16465 6.75313C3.84465 6.66313 3.53465 6.90313 3.53465 7.23313V10.9831C3.53465 11.4431 3.83465 11.8331 4.27465 11.9531Z"
    fill="#FF6600"
  />
</svg>
