<svg
  width="24"
  height="24"
  viewBox="0 0 24 24"
  fill="none"
  xmlns="http://www.w3.org/2000/svg"
>
  <path
    d="M20.4338 3.51934C20.1067 3.1871 19.66 3 19.1938 3C18.7276 3 18.2809 3.1871 17.9538 3.51934L13.7138 7.74934L5.9938 5.18934C5.74114 5.10169 5.46058 5.16793 5.2738 5.35934L4.2738 6.35934C4.11906 6.51111 4.04335 6.72601 4.06879 6.94126C4.09423 7.1565 4.21794 7.34783 4.4038 7.45934L10.4038 11.1293L6.4038 15.0593L4.5938 14.7693C4.40768 14.7329 4.21574 14.7931 4.0838 14.9293L3.2038 15.8093C3.04066 15.9484 2.96751 16.1661 3.01356 16.3754C3.05962 16.5847 3.21738 16.7516 3.4238 16.8093L5.9938 17.6493C6.16287 17.7074 6.2957 17.8403 6.3538 18.0093L7.2338 20.5293C7.29153 20.7358 7.45841 20.8935 7.66775 20.9396C7.87709 20.9856 8.09477 20.9125 8.2338 20.7493L8.9938 19.8693C9.13006 19.7374 9.19028 19.5455 9.1538 19.3593L8.8938 17.5493L12.8338 13.6093L16.5138 19.6093C16.6258 19.7916 16.8149 19.9127 17.0274 19.938C17.2398 19.9634 17.4521 19.8902 17.6038 19.7393L18.6038 18.7393C18.7869 18.548 18.8519 18.2724 18.7738 18.0193L16.2038 10.2693L20.4338 5.95934C21.0996 5.28227 21.0996 4.19642 20.4338 3.51934Z"
    fill="#FF6600"
  />
</svg>
