<svg width="25" height="24" viewBox="0 0 25 24" fill="none" xmlns="http://www.w3.org/2000/svg">
  <path
    d="M3.26617 2C3.39875 2 3.52544 2.05484 3.61617 2.15152L6.41617 4.93152L19.1161 17.6515L21.9161 20.4515C22.0412 20.5766 22.09 20.7588 22.0442 20.9296C21.9985 21.1004 21.865 21.2339 21.6942 21.2796C21.5234 21.3254 21.3412 21.2766 21.2161 21.1515L18.3861 18.3815L18.0761 18.6915C17.934 18.8236 17.7409 18.8864 17.5483 18.8632C17.3557 18.8401 17.183 18.7334 17.0761 18.5715L14.6061 14.5715L13.2461 13.2115L9.80617 16.6515L10.1262 18.3515C10.1565 18.5263 10.1007 18.7051 9.97617 18.8315L9.13617 19.6715C9.00002 19.8056 8.80493 19.8609 8.61867 19.8184C8.43241 19.7759 8.28067 19.6414 8.21617 19.4615L7.37617 17.0615C7.321 16.902 7.19566 16.7767 7.03617 16.7215L4.62617 15.8815C4.44633 15.817 4.31179 15.6653 4.26927 15.479C4.22675 15.2928 4.28213 15.0977 4.41617 14.9615L5.20617 14.1215C5.33379 13.9917 5.51654 13.932 5.69617 13.9615L7.41617 14.2515L10.8961 10.7615L9.53617 9.4015L5.53617 6.93152C5.37708 6.82248 5.2727 6.65018 5.24972 6.45869C5.22674 6.2672 5.2874 6.0751 5.41617 5.93152L5.68617 5.65152L2.91617 2.85152C2.81949 2.76079 2.76465 2.6341 2.76465 2.50152C2.76465 2.36893 2.81949 2.24225 2.91617 2.15152L2.97468 2.09864C3.05781 2.0351 3.1601 2 3.26617 2ZM18.4161 3.23152C19.0844 2.57706 20.1567 2.58825 20.8111 3.25652C21.4656 3.92478 21.4544 4.99706 20.7861 5.65152L16.7861 9.6515L18.8761 15.9815L8.07617 5.17152L14.4161 7.23152L18.4161 3.23152Z"
    fill="#FF6600"
  />
</svg>
