<svg
  width="24"
  height="24"
  viewBox="0 0 24 24"
  fill="none"
  xmlns="http://www.w3.org/2000/svg"
>
  <path
    d="M20.386 18.6548H3.38596C2.83596 18.6548 2.38596 19.1048 2.38596 19.6548C2.38596 20.2048 2.83596 20.6548 3.38596 20.6548H20.386C20.936 20.6548 21.386 20.2048 21.386 19.6548C21.386 19.1048 20.936 18.6548 20.386 18.6548ZM21.956 9.2948C21.736 8.49482 20.916 8.02482 20.116 8.23482L14.806 9.6548L8.34596 3.63482C8.07596 3.37482 7.68596 3.28482 7.32596 3.38482C6.64596 3.57482 6.32596 4.35482 6.67596 4.96482L10.116 10.9248L5.14596 12.2548L3.57596 11.0148C3.32596 10.8248 3.00596 10.7548 2.69596 10.8348L2.36596 10.9248C2.04596 11.0048 1.89596 11.3748 2.06596 11.6548L3.94596 14.9048C4.17596 15.2948 4.63596 15.4848 5.06596 15.3748L20.886 11.1348C21.686 10.9148 22.166 10.0948 21.956 9.2948Z"
    fill="#FF6600"
  />
</svg>
