<svg width="25" height="24" viewBox="0 0 25 24" fill="none" xmlns="http://www.w3.org/2000/svg">
  <path
    d="M22.7646 14.1514C22.7587 12.5773 21.558 11.2684 19.9979 11.1353C20.823 10.5961 21.1971 9.5756 20.9174 8.62707C20.6377 7.67854 19.7709 7.02789 18.7868 7.02789C17.8028 7.02789 16.9359 7.67854 16.6562 8.62707C16.3766 9.5756 16.7507 10.5961 17.5757 11.1353C16.6907 11.1945 15.8771 11.6444 15.3535 12.3641C15.0153 12.2311 14.6598 12.1484 14.2979 12.1183C15.0468 11.6231 15.501 10.7853 15.509 9.8841C15.5291 8.57319 14.6216 7.43209 13.3452 7.16332C12.0688 6.89454 10.7821 7.57361 10.2773 8.78247C9.77238 9.9913 10.1911 11.3904 11.2757 12.1183C10.8955 12.1461 10.5213 12.2289 10.1646 12.3641C9.65433 11.6574 8.86349 11.2089 7.99798 11.1353C8.91579 10.5654 9.29393 9.4151 8.89469 8.40755C8.49544 7.40001 7.43413 6.82627 6.37796 7.04702C5.32179 7.26776 4.57586 8.21922 4.60909 9.3033C4.61281 10.0364 4.97407 10.7211 5.57576 11.1353C3.99812 11.2463 2.77242 12.5614 2.76465 14.1514V15.0674H7.87576C7.80837 15.3339 7.77477 15.6079 7.77576 15.8829V17H17.709V15.8829C17.7082 15.6087 17.6784 15.3353 17.6202 15.0674H22.7646V14.1514Z"
    fill="#FF6600"
  />
</svg>
