<svg
  width="24"
  height="24"
  viewBox="0 0 24 24"
  fill="none"
  xmlns="http://www.w3.org/2000/svg"
>
  <path
    d="M22 14.1514C21.9941 12.5773 20.7934 11.2684 19.2333 11.1353C20.0584 10.5961 20.4325 9.5756 20.1528 8.62707C19.8731 7.67854 19.0063 7.02789 18.0222 7.02789C17.0382 7.02789 16.1713 7.67854 15.8916 8.62707C15.612 9.5756 15.9861 10.5961 16.8111 11.1353C15.9261 11.1945 15.1125 11.6444 14.5889 12.3641C14.2507 12.2311 13.8952 12.1484 13.5333 12.1183C14.2822 11.6231 14.7364 10.7853 14.7444 9.8841C14.7645 8.57319 13.857 7.43209 12.5806 7.16332C11.3042 6.89454 10.0175 7.57361 9.51262 8.78247C9.00773 9.9913 9.42649 11.3904 10.5111 12.1183C10.1309 12.1461 9.7567 12.2289 9.4 12.3641C8.88968 11.6574 8.09884 11.2089 7.23333 11.1353C8.15114 10.5654 8.52928 9.4151 8.13004 8.40755C7.73079 7.40001 6.66948 6.82627 5.61331 7.04702C4.55714 7.26776 3.81121 8.21922 3.84444 9.3033C3.84816 10.0364 4.20942 10.7211 4.81111 11.1353C3.23347 11.2463 2.00777 12.5614 2 14.1514V15.0674H7.11111C7.04372 15.3339 7.01012 15.6079 7.01111 15.8829V17H16.9444V15.8829C16.9436 15.6087 16.9138 15.3353 16.8556 15.0674H22V14.1514Z"
    fill="#FF6600"
  />
</svg>
