<svg width="25" height="24" viewBox="0 0 25 24" fill="none" xmlns="http://www.w3.org/2000/svg">
  <path
    fill-rule="evenodd"
    clip-rule="evenodd"
    d="M19.2221 12.1854C19.9456 11.5363 20.4008 10.594 20.4008 9.5455C20.4008 7.58735 18.8135 6 16.8554 6C14.8973 6 13.3099 7.58735 13.3099 9.5455C13.3099 10.594 13.7651 11.5363 14.4887 12.1854C12.4034 12.7544 10.9463 14.31 10.9463 17.8182H22.7645C22.7645 14.3099 21.3074 12.7544 19.2221 12.1854Z"
    fill="#FF6600"
  />
  <path
    fill-rule="evenodd"
    clip-rule="evenodd"
    d="M11.7234 14.2369C11.3311 14.9274 11.0721 15.8044 10.9819 16.9092C10.9585 17.1966 10.9464 17.4994 10.9464 17.8183C10.9464 16.2733 11.229 15.107 11.7234 14.2369ZM10.0374 17.8183H2.76465C2.76465 14.8498 3.99755 13.5335 5.76208 13.0521C5.14983 12.5028 4.76466 11.7055 4.76466 10.8183C4.76466 9.16136 6.10781 7.81824 7.76466 7.81824C9.42152 7.81824 10.7646 9.16136 10.7646 10.8183C10.7646 11.7055 10.3795 12.5028 9.76724 13.0521C10.2301 13.1784 10.6565 13.3622 11.0335 13.6181C10.3732 14.6869 10.0374 16.0769 10.0374 17.8183Z"
    fill="#FF6600"
  />
</svg>
