<svg
  width="24"
  height="24"
  viewBox="0 0 24 24"
  fill="none"
  xmlns="http://www.w3.org/2000/svg"
>
  <path
    fill-rule="evenodd"
    clip-rule="evenodd"
    d="M18.4574 12.1854C19.1809 11.5363 19.6361 10.594 19.6361 9.5455C19.6361 7.58735 18.0488 6 16.0907 6C14.1326 6 12.5452 7.58735 12.5452 9.5455C12.5452 10.594 13.0004 11.5363 13.724 12.1854C11.6387 12.7544 10.1816 14.31 10.1816 17.8182H21.9998C21.9998 14.3099 20.5427 12.7544 18.4574 12.1854Z"
    fill="#FF6600"
  />
  <path
    fill-rule="evenodd"
    clip-rule="evenodd"
    d="M10.9588 14.2368C10.5665 14.9273 10.3075 15.8043 10.2173 16.9091C10.1939 17.1965 10.1818 17.4993 10.1818 17.8182C10.1818 16.2732 10.4644 15.1069 10.9588 14.2368ZM9.27273 17.8182H2C2 14.8497 3.2329 13.5334 4.99743 13.052C4.38518 12.5027 4.00001 11.7054 4.00001 10.8182C4.00001 9.1613 5.34316 7.81818 7.00001 7.81818C8.65687 7.81818 10 9.1613 10 10.8182C10 11.7054 9.61484 12.5027 9.00259 13.052C9.4655 13.1783 9.89183 13.3621 10.2689 13.618C9.60851 14.6868 9.27273 16.0768 9.27273 17.8182Z"
    fill="#FF6600"
  />
</svg>
