<svg
  width="24"
  height="24"
  viewBox="0 0 24 24"
  fill="none"
  xmlns="http://www.w3.org/2000/svg"
>
  <path
    d="M11.3971 12.2614C11.739 12.5788 12.2653 12.5788 12.6071 12.266L12.6521 12.2252L12.6793 12.2003C15.0256 10.0519 16.5609 8.64611 16.4981 6.89392C16.4712 6.12324 16.0798 5.3843 15.4456 4.9491C14.258 4.12856 12.7916 4.5139 11.9999 5.44777C11.2082 4.5139 9.74174 4.13309 8.5542 4.9491C7.91995 5.3843 7.5286 6.12324 7.50161 6.89392C7.44313 8.65286 8.98604 10.0627 11.3476 12.2161L11.3971 12.2614Z"
    fill="#FF6600"
  />
  <path
    d="M6.44816 18.2473L4.10645 18.9895V15.0485L7.62064 14.1233C7.88212 14.0529 8.1527 14.0178 8.42446 14.0191C8.75571 14.0183 9.08472 14.0706 9.39768 14.1738L11.746 14.9664H14.2371C14.2371 14.9664 15.0509 14.8906 15.0509 15.5234C15.0509 15.9414 14.5248 16.2954 14.172 16.2954H10.3829C10.2448 16.2954 10.1329 16.4074 10.1329 16.5454C10.1329 16.6835 10.2448 16.7954 10.3829 16.7954H14.2371C14.5197 16.7954 14.7931 16.6888 14.9966 16.4954L15.0174 16.4758C15.1783 16.3242 15.5479 15.9762 15.5193 15.4055C15.5184 15.3872 15.5156 15.3696 15.511 15.3526L18.0105 14.4073C18.1292 14.3558 18.2588 14.331 18.3892 14.3347C19.0188 14.3347 19.2342 14.7564 19.4769 15.2317C19.5057 15.2879 19.5348 15.3449 19.565 15.4021L13.0082 19.1189C12.7333 19.2946 12.4094 19.3881 12.0782 19.3873C11.9095 19.3862 11.7418 19.3629 11.58 19.3179L7.5941 18.1937C7.43221 18.1487 7.26453 18.1253 7.09587 18.1242C6.87358 18.1247 6.65355 18.1665 6.44816 18.2473Z"
    fill="#FF6600"
  />
</svg>
