<svg width="25" height="24" viewBox="0 0 25 24" fill="none" xmlns="http://www.w3.org/2000/svg">
  <path
    d="M12.1617 12.2614C12.5036 12.5788 13.0299 12.5788 13.3717 12.266L13.4167 12.2252L13.4439 12.2003C15.7902 10.0519 17.3255 8.64611 17.2627 6.89392C17.2358 6.12324 16.8444 5.3843 16.2102 4.9491C15.0226 4.12856 13.5562 4.5139 12.7645 5.44777C11.9728 4.5139 10.5064 4.13309 9.31885 4.9491C8.6846 5.3843 8.29324 6.12324 8.26625 6.89392C8.20777 8.65286 9.75068 10.0627 12.1122 12.2161L12.1617 12.2614Z"
    fill="#FF6600"
  />
  <path
    d="M7.2128 18.2473L4.87109 18.9895V15.0485L8.38528 14.1233C8.64676 14.0529 8.91734 14.0178 9.1891 14.0191C9.52035 14.0183 9.84936 14.0706 10.1623 14.1738L12.5106 14.9664H15.0017C15.0017 14.9664 15.8155 14.8906 15.8155 15.5234C15.8155 15.9414 15.2894 16.2954 14.9366 16.2954H11.1475C11.0094 16.2954 10.8975 16.4074 10.8975 16.5454C10.8975 16.6835 11.0094 16.7954 11.1475 16.7954H15.0017C15.2843 16.7954 15.5577 16.6888 15.7612 16.4954L15.782 16.4758C15.9429 16.3242 16.3125 15.9762 16.2839 15.4055C16.283 15.3872 16.2802 15.3696 16.2756 15.3526L18.7751 14.4073C18.8938 14.3558 19.0234 14.331 19.1538 14.3347C19.7834 14.3347 19.9988 14.7564 20.2415 15.2317C20.2703 15.2879 20.2994 15.3449 20.3296 15.4021L13.7728 19.1189C13.4979 19.2946 13.174 19.3881 12.8428 19.3873C12.6741 19.3862 12.5064 19.3629 12.3446 19.3179L8.35874 18.1937C8.19685 18.1487 8.02917 18.1253 7.86051 18.1242C7.63822 18.1247 7.41819 18.1665 7.2128 18.2473Z"
    fill="#FF6600"
  />
</svg>
