<svg width="25" height="24" viewBox="0 0 25 24" fill="none" xmlns="http://www.w3.org/2000/svg">
  <path
    d="M12.7646 22C18.2874 22 22.7646 17.5228 22.7646 12C22.7646 6.47715 18.2874 2 12.7646 2C7.2418 2 2.76465 6.47715 2.76465 12C2.76465 17.5228 7.2418 22 12.7646 22Z"
    stroke="#FF6600"
    stroke-width="2"
    stroke-linecap="round"
    stroke-linejoin="round"
  />
  <path
    d="M9.85449 8.99996C10.0896 8.33163 10.5537 7.76807 11.1645 7.40909C11.7753 7.05012 12.4934 6.9189 13.1917 7.03867C13.89 7.15845 14.5234 7.52148 14.9796 8.06349C15.4359 8.60549 15.6856 9.29148 15.6845 9.99996C15.6845 12 12.6845 13 12.6845 13"
    stroke="#FF6600"
    stroke-width="2"
    stroke-linecap="round"
    stroke-linejoin="round"
  />
  <path d="M12.7646 17H12.7746" stroke="#FF6600" stroke-width="2" stroke-linecap="round" stroke-linejoin="round" />
</svg>
