<svg width="25" height="24" viewBox="0 0 25 24" fill="none" xmlns="http://www.w3.org/2000/svg">
  <path
    fill-rule="evenodd"
    clip-rule="evenodd"
    d="M1.76465 12C1.76465 5.92487 6.68952 1 12.7646 1C18.8397 1 23.7646 5.92487 23.7646 12C23.7646 18.0751 18.8397 23 12.7646 23C6.68952 23 1.76465 18.0751 1.76465 12ZM13.0227 8.02432C12.5572 7.94447 12.0784 8.03195 11.6712 8.27127C11.264 8.51058 10.9547 8.88629 10.7979 9.33184C10.6147 9.85283 10.0438 10.1266 9.5228 9.94333C9.00181 9.76006 8.72804 9.18915 8.91131 8.66816C9.22478 7.77705 9.84351 7.02563 10.6579 6.547C11.4723 6.06837 12.4298 5.89341 13.3608 6.05311C14.2919 6.2128 15.1363 6.69686 15.7447 7.41953C16.3529 8.14205 16.6859 9.05648 16.6846 10.0009C16.6841 11.5313 15.5495 12.5419 14.7393 13.082C14.3037 13.3725 13.8751 13.586 13.5595 13.7263C13.4002 13.7971 13.2661 13.8508 13.1695 13.8876C13.1211 13.906 13.0819 13.9203 13.0533 13.9305L13.0186 13.9427L13.0075 13.9464L13.0036 13.9478L13.0021 13.9483C13.0021 13.9483 13.0008 13.9487 12.6846 13L13.0008 13.9487C12.4769 14.1233 11.9106 13.8402 11.7359 13.3162C11.5614 12.7926 11.844 12.2267 12.3673 12.0517L12.3833 12.0461C12.3987 12.0406 12.4239 12.0314 12.4575 12.0186C12.5249 11.9929 12.6252 11.9529 12.7472 11.8987C12.994 11.789 13.3155 11.6275 13.6299 11.4179C14.3195 10.9582 14.6846 10.4691 14.6846 10V9.99851C14.6853 9.52619 14.5188 9.06886 14.2146 8.70753C13.9105 8.34619 13.4882 8.10417 13.0227 8.02432ZM12.7646 16C12.2123 16 11.7646 16.4477 11.7646 17C11.7646 17.5523 12.2123 18 12.7646 18H12.7746C13.3269 18 13.7746 17.5523 13.7746 17C13.7746 16.4477 13.3269 16 12.7746 16H12.7646Z"
    fill="#FF6600"
  />
</svg>
