<svg width="56" height="56" viewBox="0 0 56 56" fill="none" xmlns="http://www.w3.org/2000/svg">
  <path
    fill-rule="evenodd"
    clip-rule="evenodd"
    d="M10.0004 14.5999H46.0004C47.7083 14.5999 49.1221 15.8592 49.3639 17.4999H39.0004C38.7242 17.4999 38.5004 17.7238 38.5004 17.9999C38.5004 18.276 38.7242 18.4999 39.0004 18.4999H49.4004V28.4999H47.0004C46.7242 28.4999 46.5004 28.7238 46.5004 28.9999C46.5004 29.276 46.7242 29.4999 47.0004 29.4999H49.4004V39.4999H39.0004C38.7242 39.4999 38.5004 39.7238 38.5004 39.9999C38.5004 40.276 38.7242 40.4999 39.0004 40.4999H49.3639C49.1221 42.1406 47.7083 43.3999 46.0004 43.3999H34.0004C33.669 43.3999 33.4004 43.6685 33.4004 43.9999C33.4004 44.3313 33.669 44.5999 34.0004 44.5999H36.47C36.7408 45.7466 37.771 46.5999 39.0004 46.5999H42.0004C43.2298 46.5999 44.26 45.7466 44.5308 44.5999H46.0004C48.5409 44.5999 50.6004 42.5404 50.6004 39.9999V17.9999C50.6004 15.4594 48.5409 13.3999 46.0004 13.3999H38.4841C38.2467 12.8135 37.6719 12.3999 37.0004 12.3999H36.3145C35.6646 10.6482 33.9783 9.3999 32.0004 9.3999H24.0004C22.0225 9.3999 20.3362 10.6482 19.6863 12.3999H19.0004C18.3289 12.3999 17.754 12.8135 17.5167 13.3999H10.0004C7.45988 13.3999 5.40039 15.4594 5.40039 17.9999V39.9999C5.40039 42.5404 7.45988 44.5999 10.0004 44.5999H11.47C11.7408 45.7466 12.771 46.5999 14.0004 46.5999H17.0004C18.2298 46.5999 19.26 45.7466 19.5308 44.5999H28.0004C28.3318 44.5999 28.6004 44.3313 28.6004 43.9999C28.6004 43.6685 28.3318 43.3999 28.0004 43.3999H10.0004C8.29249 43.3999 6.8787 42.1406 6.6369 40.4999H16.0004C16.2765 40.4999 16.5004 40.276 16.5004 39.9999C16.5004 39.7238 16.2765 39.4999 16.0004 39.4999H6.60039V29.4999H9.00039C9.27653 29.4999 9.50039 29.276 9.50039 28.9999C9.50039 28.7238 9.27653 28.4999 9.00039 28.4999H6.60039V18.4999H16.0004C16.2765 18.4999 16.5004 18.276 16.5004 17.9999C16.5004 17.7238 16.2765 17.4999 16.0004 17.4999H6.6369C6.8787 15.8592 8.29249 14.5999 10.0004 14.5999ZM39.0004 45.3999C38.4419 45.3999 37.9598 45.0729 37.7351 44.5999H43.2657C43.041 45.0729 42.5589 45.3999 42.0004 45.3999H39.0004ZM18.2657 44.5999H12.7351C12.9598 45.0729 13.4419 45.3999 14.0004 45.3999H17.0004C17.5589 45.3999 18.041 45.0729 18.2657 44.5999ZM35.0012 12.3999C34.4288 11.3287 33.2997 10.5999 32.0004 10.5999H24.0004C22.7011 10.5999 21.572 11.3287 20.9996 12.3999C21.6711 12.3999 22.2467 12.8135 22.4841 13.3999H33.5167C33.754 12.8135 34.3297 12.3999 35.0012 12.3999Z"
    fill="black"
  />
  <path
    d="M16.6471 30.1737C16.5201 30.2942 16.4566 30.439 16.4566 30.6083C16.4566 30.7515 16.5087 30.8882 16.6129 31.0185C17.2346 31.7541 18.0191 32.122 18.9664 32.122C19.7216 32.122 20.3124 31.9169 20.7389 31.5067C21.1686 31.0933 21.3834 30.5448 21.3834 29.8612C21.3834 29.3371 21.2532 28.8993 20.9928 28.5478C20.7356 28.1929 20.3629 27.9309 19.8746 27.7616C19.816 27.7421 19.7835 27.7144 19.777 27.6786C19.7704 27.6396 19.7835 27.6037 19.816 27.5712L21.1637 26.0575C21.2158 25.9989 21.2548 25.9273 21.2809 25.8427C21.3102 25.7548 21.3248 25.6832 21.3248 25.6278C21.3248 25.4553 21.2613 25.3072 21.1344 25.1835C21.0107 25.0598 20.8609 24.9979 20.6852 24.9979H17.316C17.137 24.9979 16.984 25.0598 16.857 25.1835C16.7301 25.3072 16.6666 25.4553 16.6666 25.6278C16.6666 25.8069 16.7285 25.9517 16.8521 26.0624C16.9758 26.1731 17.1305 26.2284 17.316 26.2284H19.1861C19.2577 26.2284 19.3017 26.2512 19.318 26.2968C19.3342 26.3424 19.3196 26.3863 19.274 26.4286L18.0875 27.7714C17.9801 27.9049 17.9264 28.0383 17.9264 28.1718C17.9264 28.3476 17.9833 28.4989 18.0973 28.6259C18.2112 28.7496 18.3512 28.8114 18.5172 28.8114H18.7857C19.1731 28.8114 19.4807 28.914 19.7086 29.119C19.9397 29.3209 20.0553 29.5683 20.0553 29.8612C20.0553 30.1868 19.956 30.4455 19.7574 30.6376C19.5589 30.8264 19.2773 30.9208 18.9127 30.9208C18.6327 30.9208 18.3919 30.8606 18.19 30.7401C17.9915 30.6164 17.7766 30.4358 17.5455 30.1981C17.4055 30.0582 17.2558 29.9882 17.0963 29.9882C16.927 29.9882 16.7773 30.05 16.6471 30.1737Z"
    fill="black"
  />
  <path
    d="M22.1307 30.8378C21.9712 30.9973 21.8914 31.1747 21.8914 31.37C21.8914 31.5523 21.9516 31.7037 22.0721 31.8241C22.1925 31.9413 22.3455 31.9999 22.5311 31.9999H26.0223C26.198 31.9999 26.3462 31.9397 26.4666 31.8192C26.5903 31.6988 26.6521 31.5491 26.6521 31.37C26.6521 31.2138 26.5903 31.0738 26.4666 30.9501C26.3429 30.8231 26.1948 30.7597 26.0223 30.7597H24.2693C24.188 30.7597 24.1408 30.7369 24.1277 30.6913C24.1147 30.6425 24.1326 30.5985 24.1814 30.5595L25.3777 29.4218C25.5698 29.2395 25.7228 29.0897 25.8367 28.9726C25.9539 28.8521 26.0809 28.7073 26.2176 28.538C26.3543 28.3655 26.4601 28.206 26.535 28.0595C26.6098 27.913 26.6717 27.7453 26.7205 27.5565C26.7726 27.3645 26.7986 27.1659 26.7986 26.9608C26.7986 26.2805 26.6033 25.7646 26.2127 25.413C25.8253 25.0582 25.2947 24.8808 24.6209 24.8808C23.8299 24.8808 23.1268 25.234 22.5115 25.9403C22.3292 26.1617 22.2381 26.3586 22.2381 26.5312C22.2381 26.7069 22.2918 26.8534 22.3992 26.9706C22.5099 27.0845 22.6531 27.1415 22.8289 27.1415C23.0405 27.1415 23.2081 27.0504 23.3318 26.8681C23.7029 26.344 24.1326 26.0819 24.6209 26.0819C24.9106 26.0819 25.132 26.1601 25.285 26.3163C25.4412 26.4693 25.5193 26.6841 25.5193 26.9608C25.5193 27.1041 25.4917 27.2457 25.4363 27.3856C25.3842 27.5256 25.298 27.6737 25.1775 27.83C25.0604 27.983 24.9448 28.1197 24.8309 28.2401C24.7169 28.3606 24.5607 28.5168 24.3621 28.7089L22.1307 30.8378Z"
    fill="black"
  />
  <path
    d="M27.6973 25.7108V31.2919C27.6973 31.497 27.7656 31.6662 27.9023 31.7997C28.0391 31.9332 28.2067 31.9999 28.4053 31.9999C28.6038 31.9999 28.7715 31.9332 28.9082 31.7997C29.0449 31.6662 29.1133 31.497 29.1133 31.2919V29.5292C29.1133 29.4543 29.1361 29.412 29.1816 29.4022C29.2305 29.3892 29.2744 29.4022 29.3135 29.4413L32.2139 31.8681C32.3343 31.956 32.4629 31.9999 32.5996 31.9999L32.6973 31.9901C32.873 31.9641 33.0098 31.8843 33.1074 31.7509C33.1921 31.6304 33.2344 31.5002 33.2344 31.3603C33.2344 31.3342 33.2327 31.3065 33.2295 31.2772C33.21 31.108 33.1286 30.9647 32.9854 30.8476L30.3438 28.6698C30.2526 28.6015 30.2526 28.5315 30.3438 28.4599L33.0635 26.1308C33.2035 26.0168 33.2767 25.8703 33.2832 25.6913V25.6571C33.2832 25.4911 33.2279 25.3495 33.1172 25.2323C33 25.0956 32.8568 25.0207 32.6875 25.0077C32.6712 25.0077 32.6533 25.0061 32.6338 25.0028C32.4841 25.0028 32.3441 25.0549 32.2139 25.1591L29.3135 27.7519C29.2777 27.7877 29.2354 27.7958 29.1865 27.7763C29.1377 27.7535 29.1133 27.7112 29.1133 27.6493V25.7108C29.1133 25.5025 29.0449 25.3316 28.9082 25.1981C28.7715 25.0647 28.6038 24.9979 28.4053 24.9979C28.2067 24.9979 28.0391 25.0647 27.9023 25.1981C27.7656 25.3316 27.6973 25.5025 27.6973 25.7108Z"
    fill="black"
  />
  <path
    d="M34.7238 25.8622C34.0663 26.5132 33.7375 27.3922 33.7375 28.4989C33.7375 29.2118 33.8872 29.8417 34.1867 30.3886C34.4895 30.9354 34.9208 31.3619 35.4807 31.6679C36.0406 31.9706 36.6883 32.122 37.424 32.122C38.3355 32.122 39.1623 31.8778 39.9045 31.3896C40.2333 31.1715 40.3977 30.8785 40.3977 30.5106V28.7284C40.3977 28.5266 40.3277 28.3606 40.1877 28.2304C40.0477 28.0969 39.8768 28.0302 39.675 28.0302H38.1272C37.9481 28.0302 37.8016 28.0888 37.6877 28.206C37.5738 28.3231 37.5168 28.468 37.5168 28.6405C37.5168 28.8098 37.5738 28.9514 37.6877 29.0653C37.8016 29.176 37.9481 29.2313 38.1272 29.2313H38.9279C39.0126 29.2313 39.0549 29.2769 39.0549 29.3681V30.2421C39.0549 30.2974 39.0386 30.3365 39.0061 30.3593C38.5992 30.6653 38.0653 30.8183 37.4045 30.8183C36.7111 30.8183 36.174 30.6083 35.7932 30.1884C35.4156 29.7652 35.2268 29.1988 35.2268 28.4892C35.2268 27.7795 35.4156 27.2147 35.7932 26.7948C36.174 26.3716 36.7111 26.1601 37.4045 26.1601C37.691 26.1601 37.9595 26.2024 38.2102 26.287C38.4641 26.3684 38.6724 26.4791 38.8352 26.619C39.0174 26.7785 39.1851 26.8583 39.3381 26.8583C39.5236 26.8583 39.6815 26.7932 39.8117 26.663C39.9419 26.5328 40.007 26.3749 40.007 26.1894C40.007 26.0852 39.9777 25.9827 39.9191 25.8817C39.8605 25.7776 39.7889 25.6929 39.7043 25.6278C39.037 25.1298 38.2769 24.8808 37.424 24.8808C36.2847 24.8808 35.3846 25.2079 34.7238 25.8622Z"
    fill="black"
  />
</svg>
