<svg width="56" height="56" viewBox="0 0 56 56" fill="none" xmlns="http://www.w3.org/2000/svg">
  <path
    d="M45.3385 37.7091C45.4173 37.7091 45.4954 37.6935 45.5682 37.6634C45.641 37.6332 45.7071 37.589 45.7628 37.5333C45.8185 37.4776 45.8627 37.4115 45.8929 37.3387C45.923 37.2659 45.9385 37.1879 45.9385 37.1091V17.9411C45.9378 17.1293 45.6149 16.351 45.0408 15.7771C44.4667 15.2032 43.6883 14.8806 42.8765 14.8801H31.7555V10.7801H33.3235C33.4827 10.7801 33.6353 10.7169 33.7478 10.6043C33.8603 10.4918 33.9235 10.3392 33.9235 10.1801V7.99307C33.9235 7.83394 33.8603 7.68132 33.7478 7.5688C33.6353 7.45628 33.4827 7.39307 33.3235 7.39307H22.4765C22.3174 7.39307 22.1648 7.45628 22.0523 7.5688C21.9398 7.68132 21.8765 7.83394 21.8765 7.99307V10.1851C21.8765 10.3442 21.9398 10.4968 22.0523 10.6093C22.1648 10.7219 22.3174 10.7851 22.4765 10.7851H24.0425V14.8851H13.1215C12.31 14.8859 11.5318 15.2086 10.958 15.7825C10.3841 16.3564 10.0613 17.1345 10.0605 17.9461V43.2051C10.0613 44.0167 10.3841 44.7948 10.958 45.3686C11.5318 45.9425 12.31 46.2653 13.1215 46.2661H19.4775C19.4775 46.2761 19.4715 46.2851 19.4715 46.2961V47.3601C19.4718 47.6857 19.6013 47.9979 19.8315 48.2281C20.0617 48.4583 20.3739 48.5878 20.6995 48.5881H23.1905C23.5163 48.5881 23.8288 48.4587 24.0592 48.2285C24.2897 47.9982 24.4193 47.6858 24.4195 47.3601V46.3001C24.4181 46.29 24.4161 46.2799 24.4135 46.2701H31.5495C31.5495 46.2801 31.5435 46.2891 31.5435 46.3001V47.3601C31.5438 47.6858 31.6734 47.9982 31.9039 48.2285C32.1343 48.4587 32.4468 48.5881 32.7725 48.5881H35.2635C35.5893 48.5881 35.9018 48.4587 36.1322 48.2285C36.3627 47.9982 36.4923 47.6858 36.4925 47.3601V46.3001C36.4925 46.2891 36.4865 46.2801 36.4865 46.2701H42.8765C43.6883 46.2695 44.4667 45.9469 45.0408 45.373C45.6149 44.7991 45.9378 44.0208 45.9385 43.2091V41.6741C45.9385 41.5149 45.8753 41.3623 45.7628 41.2498C45.6503 41.1373 45.4977 41.0741 45.3385 41.0741C45.1794 41.0741 45.0268 41.1373 44.9143 41.2498C44.8018 41.3623 44.7385 41.5149 44.7385 41.6741V43.2051C44.7378 43.6988 44.5412 44.1721 44.1919 44.5212C43.8427 44.8702 43.3693 45.0665 42.8755 45.0671H40.1645V16.0791H42.8765C43.3703 16.0796 43.8437 16.2759 44.1929 16.625C44.5422 16.974 44.7388 17.4473 44.7395 17.9411V37.1091C44.7395 37.268 44.8026 37.4205 44.9149 37.533C45.0272 37.6455 45.1796 37.7088 45.3385 37.7091ZM23.0755 8.59207H32.7235V9.58607H23.0755V8.59207ZM25.2425 10.7851H30.5565V14.8851H25.2425V10.7851ZM11.2595 43.2051V17.9411C11.2603 17.4475 11.4568 16.9743 11.8058 16.6253C12.1548 16.2763 12.628 16.0799 13.1215 16.0791H15.8315V45.0671H13.1215C12.628 45.0663 12.1548 44.8698 11.8058 44.5208C11.4568 44.1718 11.2603 43.6987 11.2595 43.2051ZM23.2205 46.3001V47.3601C23.2203 47.3677 23.2172 47.3749 23.2118 47.3803C23.2064 47.3857 23.1992 47.3888 23.1915 47.3891L20.6705 47.3601L20.7005 46.2661L23.2205 46.3001ZM35.2925 46.3001V47.3601C35.2925 47.3678 35.2895 47.3751 35.2841 47.3806C35.2786 47.386 35.2712 47.3891 35.2635 47.3891L32.7425 47.3601L32.7725 46.2661L35.2925 46.3001ZM39.1645 45.0711H16.8315V16.0791H39.1645V45.0711Z"
    fill="black"
  />
  <path
    d="M27.9995 20.6681C27.8669 20.6681 27.7398 20.7207 27.646 20.8145C27.5522 20.9083 27.4995 21.0355 27.4995 21.1681V40.9781C27.4995 41.1107 27.5522 41.2378 27.646 41.3316C27.7398 41.4254 27.8669 41.4781 27.9995 41.4781C28.1322 41.4781 28.2593 41.4254 28.3531 41.3316C28.4469 41.2378 28.4995 41.1107 28.4995 40.9781V21.1681C28.4995 21.0355 28.4469 20.9083 28.3531 20.8145C28.2593 20.7207 28.1322 20.6681 27.9995 20.6681Z"
    fill="black"
  />
  <path
    d="M23.8205 22.6681C23.6879 22.6681 23.5608 22.7207 23.467 22.8145C23.3732 22.9083 23.3205 23.0355 23.3205 23.1681V38.9781C23.3205 39.1107 23.3732 39.2378 23.467 39.3316C23.5608 39.4254 23.6879 39.4781 23.8205 39.4781C23.9532 39.4781 24.0803 39.4254 24.1741 39.3316C24.2679 39.2378 24.3205 39.1107 24.3205 38.9781V23.1681C24.3205 23.0355 24.2679 22.9083 24.1741 22.8145C24.0803 22.7207 23.9532 22.6681 23.8205 22.6681Z"
    fill="black"
  />
  <path
    d="M32.1605 39.4781C32.2932 39.4781 32.4203 39.4254 32.5141 39.3316C32.6079 39.2378 32.6605 39.1107 32.6605 38.9781V23.1681C32.6605 23.0355 32.6079 22.9083 32.5141 22.8145C32.4203 22.7207 32.2932 22.6681 32.1605 22.6681C32.0279 22.6681 31.9008 22.7207 31.807 22.8145C31.7132 22.9083 31.6605 23.0355 31.6605 23.1681V38.9781C31.6605 39.1107 31.7132 39.2378 31.807 39.3316C31.9008 39.4254 32.0279 39.4781 32.1605 39.4781Z"
    fill="black"
  />
</svg>
