<svg width="56" height="56" viewBox="0 0 56 56" fill="none" xmlns="http://www.w3.org/2000/svg">
  <path
    fill-rule="evenodd"
    clip-rule="evenodd"
    d="M16.0004 16.5999H40.0004C41.8782 16.5999 43.4004 18.1221 43.4004 19.9999V37.9999C43.4004 39.8777 41.8782 41.3999 40.0004 41.3999H30.5004V37.9999C30.5004 37.7238 30.2765 37.4999 30.0004 37.4999C29.7242 37.4999 29.5004 37.7238 29.5004 37.9999V41.3999H26.5004V37.9999C26.5004 37.7238 26.2765 37.4999 26.0004 37.4999C25.7242 37.4999 25.5004 37.7238 25.5004 37.9999V41.3999H16.0004C14.1226 41.3999 12.6004 39.8777 12.6004 37.9999V27.9999C12.6004 27.6685 12.3318 27.3999 12.0004 27.3999C11.669 27.3999 11.4004 27.6685 11.4004 27.9999V37.9999C11.4004 40.3586 13.1756 42.3026 15.4628 42.5688C15.7223 43.7311 16.7599 44.5999 18.0004 44.5999H19.0004C20.2298 44.5999 21.26 43.7466 21.5308 42.5999H34.47C34.7408 43.7466 35.771 44.5999 37.0004 44.5999H38.0004C39.2409 44.5999 40.2785 43.7311 40.538 42.5688C42.8252 42.3026 44.6004 40.3586 44.6004 37.9999V19.9999C44.6004 17.4594 42.5409 15.3999 40.0004 15.3999H34.5308C34.26 14.2532 33.2298 13.3999 32.0004 13.3999H24.0004C22.771 13.3999 21.7408 14.2532 21.47 15.3999H16.0004C13.4599 15.3999 11.4004 17.4594 11.4004 19.9999V21.9999C11.4004 22.3313 11.669 22.5999 12.0004 22.5999C12.3318 22.5999 12.6004 22.3313 12.6004 21.9999V19.9999C12.6004 18.1221 14.1226 16.5999 16.0004 16.5999ZM37.0004 43.3999C36.4419 43.3999 35.9598 43.0729 35.7351 42.5999H39.2657C39.041 43.0729 38.5589 43.3999 38.0004 43.3999H37.0004ZM20.2657 42.5999H16.7351C16.9598 43.0729 17.4419 43.3999 18.0004 43.3999H19.0004C19.5589 43.3999 20.041 43.0729 20.2657 42.5999ZM32.0004 14.5999C32.5589 14.5999 33.041 14.9269 33.2657 15.3999H22.7351C22.9598 14.9269 23.4419 14.5999 24.0004 14.5999H32.0004Z"
    fill="black"
  />
  <path
    d="M17.5943 25.9501C17.3665 26.0803 17.2525 26.2772 17.2525 26.5409C17.2525 26.7362 17.3176 26.9022 17.4479 27.039C17.5813 27.1724 17.7392 27.2392 17.9215 27.2392C18.0419 27.2392 18.1656 27.2034 18.2926 27.1317L18.4928 27.0097C18.5286 26.9836 18.5693 26.982 18.6148 27.0048C18.6604 27.0276 18.6832 27.0634 18.6832 27.1122V31.2919C18.6832 31.5002 18.7499 31.6711 18.8834 31.8046C19.0201 31.9348 19.1894 31.9999 19.3912 31.9999C19.5898 31.9999 19.7574 31.9332 19.8941 31.7997C20.0341 31.6662 20.1041 31.497 20.1041 31.2919V25.7108C20.1041 25.6685 20.1008 25.6376 20.0943 25.6181V25.5888C20.0716 25.413 19.9934 25.2714 19.86 25.164C19.7298 25.0533 19.5816 24.9979 19.4156 24.9979C19.3798 24.9979 19.344 25.0028 19.3082 25.0126C19.2724 25.0191 19.2317 25.0321 19.1861 25.0517C19.1438 25.0679 19.1113 25.0826 19.0885 25.0956C19.0657 25.1054 19.0283 25.1249 18.9762 25.1542C18.9273 25.1835 18.8964 25.2014 18.8834 25.2079L17.5943 25.9501Z"
    fill="black"
  />
  <path
    d="M20.9881 30.1347C20.8644 30.2649 20.8025 30.413 20.8025 30.579C20.8025 30.6864 20.8693 30.8297 21.0027 31.0087C21.2957 31.331 21.6489 31.593 22.0623 31.7948C22.4757 31.9966 22.9217 32.0976 23.4002 32.0976C24.1489 32.0976 24.7511 31.8925 25.2068 31.4823C25.6626 31.0689 25.8904 30.5009 25.8904 29.7782C25.8904 29.0198 25.674 28.4501 25.241 28.0692C24.8081 27.6884 24.1847 27.4979 23.3709 27.4979C23.1658 27.4979 22.9298 27.5256 22.6629 27.581C22.6206 27.5875 22.588 27.5858 22.5652 27.5761C22.5457 27.5663 22.5376 27.5338 22.5408 27.4784L22.6727 26.3896C22.6824 26.2951 22.7231 26.2479 22.7947 26.2479H25.0408C25.2068 26.2479 25.3517 26.1812 25.4754 26.0478C25.5991 25.9143 25.6609 25.7711 25.6609 25.6181C25.6609 25.4521 25.5991 25.3072 25.4754 25.1835C25.3549 25.0598 25.2101 24.9979 25.0408 24.9979H22.1941C22.0542 24.9979 21.9207 25.0517 21.7938 25.1591C21.6668 25.2632 21.5936 25.4032 21.574 25.579L21.242 28.3622C21.2192 28.5933 21.2615 28.7626 21.3689 28.87C21.4796 28.9774 21.631 29.0312 21.823 29.0312C22.0053 29.0312 22.1681 28.9937 22.3113 28.9188C22.6238 28.7333 22.977 28.6405 23.3709 28.6405C23.7811 28.6405 24.0936 28.7366 24.3084 28.9286C24.5232 29.1207 24.6307 29.4039 24.6307 29.7782C24.6307 30.1265 24.52 30.4016 24.2986 30.6034C24.0805 30.802 23.7811 30.9013 23.4002 30.9013C23.1072 30.9013 22.8403 30.8345 22.5994 30.7011C22.3618 30.5676 22.1193 30.3804 21.8719 30.1396C21.7384 30.0061 21.5887 29.9394 21.4227 29.9394C21.2566 29.9394 21.1118 30.0045 20.9881 30.1347Z"
    fill="black"
  />
  <path
    d="M26.7988 25.7108V31.2919C26.7988 31.497 26.8672 31.6662 27.0039 31.7997C27.1406 31.9332 27.3083 31.9999 27.5068 31.9999C27.7054 31.9999 27.873 31.9332 28.0098 31.7997C28.1465 31.6662 28.2148 31.497 28.2148 31.2919V29.5292C28.2148 29.4543 28.2376 29.412 28.2832 29.4022C28.332 29.3892 28.376 29.4022 28.415 29.4413L31.3154 31.8681C31.4359 31.956 31.5645 31.9999 31.7012 31.9999L31.7988 31.9901C31.9746 31.9641 32.1113 31.8843 32.209 31.7509C32.2936 31.6304 32.3359 31.5002 32.3359 31.3603C32.3359 31.3342 32.3343 31.3065 32.3311 31.2772C32.3115 31.108 32.2301 30.9647 32.0869 30.8476L29.4453 28.6698C29.3542 28.6015 29.3542 28.5315 29.4453 28.4599L32.165 26.1308C32.305 26.0168 32.3783 25.8703 32.3848 25.6913V25.6571C32.3848 25.4911 32.3294 25.3495 32.2188 25.2323C32.1016 25.0956 31.9583 25.0207 31.7891 25.0077C31.7728 25.0077 31.7549 25.0061 31.7354 25.0028C31.5856 25.0028 31.4456 25.0549 31.3154 25.1591L28.415 27.7519C28.3792 27.7877 28.3369 27.7958 28.2881 27.7763C28.2393 27.7535 28.2148 27.7112 28.2148 27.6493V25.7108C28.2148 25.5025 28.1465 25.3316 28.0098 25.1981C27.873 25.0647 27.7054 24.9979 27.5068 24.9979C27.3083 24.9979 27.1406 25.0647 27.0039 25.1981C26.8672 25.3316 26.7988 25.5025 26.7988 25.7108Z"
    fill="black"
  />
  <path
    d="M33.8254 25.8622C33.1678 26.5132 32.8391 27.3922 32.8391 28.4989C32.8391 29.2118 32.9888 29.8417 33.2883 30.3886C33.591 30.9354 34.0223 31.3619 34.5822 31.6679C35.1421 31.9706 35.7899 32.122 36.5256 32.122C37.437 32.122 38.2639 31.8778 39.0061 31.3896C39.3348 31.1715 39.4992 30.8785 39.4992 30.5106V28.7284C39.4992 28.5266 39.4292 28.3606 39.2893 28.2304C39.1493 28.0969 38.9784 28.0302 38.7766 28.0302H37.2287C37.0497 28.0302 36.9032 28.0888 36.7893 28.206C36.6753 28.3231 36.6184 28.468 36.6184 28.6405C36.6184 28.8098 36.6753 28.9514 36.7893 29.0653C36.9032 29.176 37.0497 29.2313 37.2287 29.2313H38.0295C38.1141 29.2313 38.1564 29.2769 38.1564 29.3681V30.2421C38.1564 30.2974 38.1402 30.3365 38.1076 30.3593C37.7007 30.6653 37.1669 30.8183 36.5061 30.8183C35.8127 30.8183 35.2756 30.6083 34.8947 30.1884C34.5171 29.7652 34.3283 29.1988 34.3283 28.4892C34.3283 27.7795 34.5171 27.2147 34.8947 26.7948C35.2756 26.3716 35.8127 26.1601 36.5061 26.1601C36.7925 26.1601 37.0611 26.2024 37.3117 26.287C37.5656 26.3684 37.774 26.4791 37.9367 26.619C38.119 26.7785 38.2867 26.8583 38.4396 26.8583C38.6252 26.8583 38.7831 26.7932 38.9133 26.663C39.0435 26.5328 39.1086 26.3749 39.1086 26.1894C39.1086 26.0852 39.0793 25.9826 39.0207 25.8817C38.9621 25.7776 38.8905 25.6929 38.8059 25.6278C38.1385 25.1298 37.3785 24.8808 36.5256 24.8808C35.3863 24.8808 34.4862 25.2079 33.8254 25.8622Z"
    fill="black"
  />
</svg>
