<svg width="56" height="56" viewBox="0 0 56 56" fill="none" xmlns="http://www.w3.org/2000/svg">
  <path
    d="M51.3385 38.2183C51.4173 38.2183 51.4954 38.2028 51.5682 38.1727C51.641 38.1425 51.7071 38.0983 51.7628 38.0426C51.8185 37.9869 51.8627 37.9208 51.8929 37.848C51.923 37.7752 51.9385 37.6971 51.9385 37.6183V15.4503C51.9378 14.6386 51.6149 13.8603 51.0408 13.2864C50.4667 12.7125 49.6883 12.3899 48.8765 12.3893H31.7555V10.2893H33.3235C33.4827 10.2893 33.6353 10.2261 33.7478 10.1136C33.8603 10.0011 33.9235 9.84847 33.9235 9.68934V7.50234C33.9235 7.34321 33.8603 7.1906 33.7478 7.07808C33.6353 6.96556 33.4827 6.90234 33.3235 6.90234H22.4765C22.3174 6.90234 22.1648 6.96556 22.0523 7.07808C21.9398 7.1906 21.8765 7.34321 21.8765 7.50234V9.69434C21.8765 9.85347 21.9398 10.0061 22.0523 10.1186C22.1648 10.2311 22.3174 10.2943 22.4765 10.2943H24.0425V12.3943H7.12155C6.30996 12.3951 5.53185 12.7179 4.95797 13.2918C4.38409 13.8656 4.06134 14.6438 4.06055 15.4553V43.7143C4.06134 44.5259 4.38409 45.304 4.95797 45.8779C5.53185 46.4518 6.30996 46.7745 7.12155 46.7753H19.4775C19.4775 46.7853 19.4715 46.7943 19.4715 46.8053V47.8693C19.4718 48.1949 19.6013 48.5071 19.8315 48.7374C20.0617 48.9676 20.3739 49.0971 20.6995 49.0973H23.1905C23.5163 49.0973 23.8288 48.968 24.0592 48.7377C24.2897 48.5075 24.4193 48.1951 24.4195 47.8693V46.8093C24.4181 46.7992 24.4161 46.7892 24.4135 46.7793H31.5495C31.5495 46.7893 31.5435 46.7983 31.5435 46.8093V47.8693C31.5438 48.1951 31.6734 48.5075 31.9039 48.7377C32.1343 48.968 32.4468 49.0973 32.7725 49.0973H35.2635C35.5893 49.0973 35.9018 48.968 36.1322 48.7377C36.3627 48.5075 36.4923 48.1951 36.4925 47.8693V46.8093C36.4925 46.7983 36.4865 46.7893 36.4865 46.7793H48.8765C49.6883 46.7788 50.4667 46.4562 51.0408 45.8823C51.6149 45.3084 51.9378 44.5301 51.9385 43.7183V42.1833C51.9385 42.0242 51.8753 41.8716 51.7628 41.7591C51.6503 41.6466 51.4977 41.5833 51.3385 41.5833C51.1794 41.5833 51.0268 41.6466 50.9143 41.7591C50.8018 41.8716 50.7385 42.0242 50.7385 42.1833V43.7143C50.7378 44.2081 50.5412 44.6814 50.1919 45.0305C49.8427 45.3795 49.3693 45.5758 48.8755 45.5763H46.1645V13.5883H48.8765C49.3703 13.5889 49.8437 13.7852 50.1929 14.1342C50.5422 14.4833 50.7388 14.9566 50.7395 15.4503V37.6183C50.7395 37.7773 50.8026 37.9298 50.9149 38.0423C51.0272 38.1547 51.1796 38.2181 51.3385 38.2183ZM23.0755 8.10134H32.7235V9.09534H23.0755V8.10134ZM25.2425 10.2943H30.5565V12.3943H25.2425V10.2943ZM5.25955 43.7143V15.4503C5.26034 14.9568 5.45677 14.4836 5.80579 14.1346C6.15481 13.7856 6.62796 13.5891 7.12155 13.5883H9.83155V45.5763H7.12155C6.62796 45.5756 6.15481 45.3791 5.80579 45.0301C5.45677 44.6811 5.26034 44.2079 5.25955 43.7143ZM23.2205 46.8093V47.8693C23.2203 47.877 23.2172 47.8842 23.2118 47.8896C23.2064 47.895 23.1992 47.8981 23.1915 47.8983L20.6705 47.8693L20.7005 46.7753L23.2205 46.8093ZM35.2925 46.8093V47.8693C35.2925 47.877 35.2895 47.8844 35.2841 47.8898C35.2786 47.8953 35.2712 47.8983 35.2635 47.8983L32.7425 47.8693L32.7725 46.7753L35.2925 46.8093ZM45.1645 45.5803H10.8315V13.5883H45.1645V45.5803Z"
    fill="black"
  />
  <path
    d="M27.9995 18.1773C27.8669 18.1773 27.7398 18.23 27.646 18.3238C27.5522 18.4176 27.4995 18.5447 27.4995 18.6773V41.4873C27.4995 41.6199 27.5522 41.7471 27.646 41.8409C27.7398 41.9347 27.8669 41.9873 27.9995 41.9873C28.1322 41.9873 28.2593 41.9347 28.3531 41.8409C28.4469 41.7471 28.4995 41.6199 28.4995 41.4873V18.6773C28.4995 18.5447 28.4469 18.4176 28.3531 18.3238C28.2593 18.23 28.1322 18.1773 27.9995 18.1773Z"
    fill="black"
  />
  <path
    d="M23.8205 20.1773C23.6879 20.1773 23.5608 20.23 23.467 20.3238C23.3732 20.4176 23.3205 20.5447 23.3205 20.6773V39.4873C23.3205 39.6199 23.3732 39.7471 23.467 39.8409C23.5608 39.9347 23.6879 39.9873 23.8205 39.9873C23.9532 39.9873 24.0803 39.9347 24.1741 39.8409C24.2679 39.7471 24.3205 39.6199 24.3205 39.4873V20.6773C24.3205 20.5447 24.2679 20.4176 24.1741 20.3238C24.0803 20.23 23.9532 20.1773 23.8205 20.1773Z"
    fill="black"
  />
  <path
    d="M32.1605 39.9873C32.2932 39.9873 32.4203 39.9347 32.5141 39.8409C32.6079 39.7471 32.6605 39.6199 32.6605 39.4873V20.6773C32.6605 20.5447 32.6079 20.4176 32.5141 20.3238C32.4203 20.23 32.2932 20.1773 32.1605 20.1773C32.0279 20.1773 31.9008 20.23 31.807 20.3238C31.7132 20.4176 31.6605 20.5447 31.6605 20.6773V39.4873C31.6605 39.6199 31.7132 39.7471 31.807 39.8409C31.9008 39.9347 32.0279 39.9873 32.1605 39.9873Z"
    fill="black"
  />
  <path
    d="M19.9715 22.1773C19.8389 22.1773 19.7118 22.23 19.618 22.3238C19.5242 22.4176 19.4715 22.5447 19.4715 22.6773V37.4873C19.4715 37.6199 19.5242 37.7471 19.618 37.8409C19.7118 37.9347 19.8389 37.9873 19.9715 37.9873C20.1042 37.9873 20.2313 37.9347 20.3251 37.8409C20.4189 37.7471 20.4715 37.6199 20.4715 37.4873V22.6773C20.4715 22.5447 20.4189 22.4176 20.3251 22.3238C20.2313 22.23 20.1042 22.1773 19.9715 22.1773Z"
    fill="black"
  />
  <path
    d="M35.9925 37.9873C36.1252 37.9873 36.2523 37.9347 36.3461 37.8409C36.4399 37.7471 36.4925 37.6199 36.4925 37.4873V22.6773C36.4925 22.5447 36.4399 22.4176 36.3461 22.3238C36.2523 22.23 36.1252 22.1773 35.9925 22.1773C35.8599 22.1773 35.7328 22.23 35.639 22.3238C35.5452 22.4176 35.4925 22.5447 35.4925 22.6773V37.4873C35.4925 37.6199 35.5452 37.7471 35.639 37.8409C35.7328 37.9347 35.8599 37.9873 35.9925 37.9873Z"
    fill="black"
  />
</svg>
