<svg width="56" height="56" viewBox="0 0 56 56" fill="none" xmlns="http://www.w3.org/2000/svg">
  <path
    d="M28.3531 42.3435C28.2593 42.4372 28.1322 42.4899 27.9995 42.4899C27.8669 42.4899 27.7398 42.4372 27.646 42.3435C27.5522 42.2497 27.4995 42.1225 27.4995 41.9899V26.1799C27.4995 26.0473 27.5522 25.9201 27.646 25.8263C27.7398 25.7326 27.8669 25.6799 27.9995 25.6799C28.1322 25.6799 28.2593 25.7326 28.3531 25.8263C28.4469 25.9201 28.4995 26.0473 28.4995 26.1799V41.9899C28.4995 42.1225 28.4469 42.2497 28.3531 42.3435Z"
    fill="black"
  />
  <path
    d="M23.8205 40.4899C23.9531 40.4899 24.0803 40.4372 24.1741 40.3435C24.2679 40.2497 24.3205 40.1225 24.3205 39.9899V28.1799C24.3205 28.0473 24.2679 27.9201 24.1741 27.8263C24.0803 27.7326 23.9531 27.6799 23.8205 27.6799C23.6879 27.6799 23.5608 27.7326 23.467 27.8263C23.3732 27.9201 23.3205 28.0473 23.3205 28.1799V39.9899C23.3205 40.1225 23.3732 40.2497 23.467 40.3435C23.5608 40.4372 23.6879 40.4899 23.8205 40.4899Z"
    fill="black"
  />
  <path
    d="M32.5141 40.3435C32.4203 40.4372 32.2932 40.4899 32.1606 40.4899C32.0279 40.4899 31.9008 40.4372 31.807 40.3435C31.7132 40.2497 31.6606 40.1225 31.6606 39.9899V28.1799C31.6606 28.0473 31.7132 27.9201 31.807 27.8263C31.9008 27.7326 32.0279 27.6799 32.1606 27.6799C32.2932 27.6799 32.4203 27.7326 32.5141 27.8263C32.6079 27.9201 32.6606 28.0473 32.6606 28.1799V39.9899C32.6606 40.1225 32.6079 40.2497 32.5141 40.3435Z"
    fill="black"
  />
  <path
    fill-rule="evenodd"
    clip-rule="evenodd"
    d="M42.7628 37.5452C42.6503 37.6577 42.4977 37.7209 42.3385 37.7209C42.1796 37.7206 42.0272 37.6573 41.9149 37.5448C41.8026 37.4323 41.7395 37.2799 41.7395 37.1209V20.9529C41.7388 20.4591 41.5422 19.9858 41.1929 19.6368C40.8437 19.2877 40.3703 19.0914 39.8765 19.0909H16.1215C15.628 19.0917 15.1548 19.2881 14.8058 19.6371C14.4568 19.9862 14.2603 20.4593 14.2595 20.9529V43.2169C14.2603 43.7105 14.4568 44.1836 14.8058 44.5327C15.1548 44.8817 15.628 45.0781 16.1215 45.0789H17.4715V24.7429C17.4715 24.0533 17.7455 23.392 18.2331 22.9044C18.7207 22.4168 19.382 22.1429 20.0715 22.1429H35.8925C36.5821 22.1429 37.2434 22.4168 37.731 22.9044C38.2186 23.392 38.4925 24.0533 38.4925 24.7429V45.0789H39.8755C40.3693 45.0784 40.8427 44.8821 41.1919 44.533C41.5412 44.184 41.7378 43.7107 41.7385 43.2169V41.6859C41.7385 41.5268 41.8018 41.3742 41.9143 41.2616C42.0268 41.1491 42.1794 41.0859 42.3385 41.0859C42.4977 41.0859 42.6503 41.1491 42.7628 41.2616C42.8753 41.3742 42.9385 41.5268 42.9385 41.6859V43.2169C42.9377 44.0287 42.6149 44.8069 42.0408 45.3808C41.4667 45.9547 40.6883 46.2774 39.8765 46.2779H36.4865C36.4865 46.2834 36.488 46.2882 36.4895 46.2929C36.491 46.2976 36.4925 46.3024 36.4925 46.3079V47.3709C36.4923 47.6968 36.3627 48.0092 36.1323 48.2396C35.9019 48.4701 35.5894 48.5996 35.2635 48.5999H32.7725C32.4467 48.5996 32.1342 48.4701 31.9038 48.2396C31.6734 48.0092 31.5438 47.6968 31.5435 47.3709V46.3079C31.5435 46.3044 31.5442 46.3011 31.545 46.298L31.5465 46.2929C31.548 46.2882 31.5495 46.2834 31.5495 46.2779H24.4125C24.413 46.2829 24.4143 46.2873 24.4155 46.2916C24.4171 46.2968 24.4185 46.3019 24.4185 46.3079V47.3709C24.4183 47.6966 24.2889 48.0089 24.0586 48.2393C23.8284 48.4697 23.5162 48.5994 23.1905 48.5999H20.6995C20.3739 48.5994 20.0617 48.4697 19.8315 48.2393C19.6012 48.0089 19.4718 47.6966 19.4715 47.3709V46.3079C19.4715 46.3024 19.473 46.2976 19.4745 46.2929C19.476 46.2882 19.4775 46.2834 19.4775 46.2779H16.1215C15.31 46.2771 14.5318 45.9544 13.958 45.3805C13.3841 44.8066 13.0613 44.0285 13.0605 43.2169V20.9609C13.0613 20.1493 13.3841 19.3712 13.958 18.7973C14.5318 18.2234 15.31 17.9007 16.1215 17.8999H24.0425V10.7999H22.4765C22.3174 10.7999 22.1648 10.7367 22.0523 10.6242C21.9398 10.5116 21.8765 10.359 21.8765 10.1999V7.9999C21.8765 7.84077 21.9398 7.68816 22.0523 7.57564C22.1648 7.46312 22.3174 7.3999 22.4765 7.3999H33.3235C33.4827 7.3999 33.6353 7.46312 33.7478 7.57564C33.8603 7.68816 33.9235 7.84077 33.9235 7.9999V10.1999C33.9235 10.359 33.8603 10.5116 33.7478 10.6242C33.6353 10.7367 33.4827 10.7999 33.3235 10.7999H31.7555V17.8919H39.8765C40.6883 17.8924 41.4667 18.2151 42.0408 18.789C42.6149 19.3629 42.9377 20.1411 42.9385 20.9529V37.1209C42.9385 37.28 42.8753 37.4326 42.7628 37.5452ZM23.2205 47.3709V46.3079L20.7005 46.2779L20.6705 47.3709L23.1915 47.3999L23.1943 47.3999L23.1981 47.3994L23.2028 47.398L23.2076 47.3955C23.2093 47.3944 23.2109 47.3932 23.2124 47.3917C23.2151 47.389 23.2172 47.3857 23.2186 47.3822L23.2202 47.3765L23.2205 47.3743L23.2205 47.3709ZM35.2925 47.3709V46.3079L32.7725 46.2779L32.7425 47.3709L35.2635 47.3999C35.2674 47.4 35.2712 47.3994 35.2748 47.398C35.2784 47.3966 35.2816 47.3944 35.2844 47.3917C35.2871 47.389 35.2892 47.3857 35.2906 47.3822C35.292 47.3786 35.2927 47.3747 35.2925 47.3709ZM19.0806 23.753C18.818 24.0155 18.6705 24.3716 18.6705 24.7429V45.0789H37.2925V24.7429C37.2925 24.3716 37.145 24.0155 36.8825 23.753C36.6199 23.4904 36.2639 23.3429 35.8925 23.3429H20.0705C19.6992 23.3429 19.3431 23.4904 19.0806 23.753ZM32.7235 8.5999H23.0755V9.5999H32.7235V8.5999ZM30.5565 10.7999H25.2425V17.8999H30.5565V10.7999Z"
    fill="black"
  />
</svg>
