<svg width="56" height="56" viewBox="0 0 56 56" fill="none" xmlns="http://www.w3.org/2000/svg">
  <path
    fill-rule="evenodd"
    clip-rule="evenodd"
    d="M12.0004 15.5999H44.0004C45.8782 15.5999 47.4004 17.1221 47.4004 18.9999V20.9999C47.4004 21.3313 47.669 21.5999 48.0004 21.5999C48.3318 21.5999 48.6004 21.3313 48.6004 20.9999V18.9999C48.6004 16.4594 46.5409 14.3999 44.0004 14.3999H37.4841C37.2467 13.8135 36.6719 13.3999 36.0004 13.3999H35.2262C34.6371 12.2145 33.4139 11.3999 32.0004 11.3999H24.0004C22.5869 11.3999 21.3637 12.2145 20.7746 13.3999H20.0004C19.3289 13.3999 18.754 13.8135 18.5167 14.3999H12.0004C9.45988 14.3999 7.40039 16.4594 7.40039 18.9999V38.9999C7.40039 41.5404 9.45988 43.5999 12.0004 43.5999H13.47C13.7408 44.7466 14.771 45.5999 16.0004 45.5999H17.0004C18.2298 45.5999 19.26 44.7466 19.5308 43.5999H36.47C36.7408 44.7466 37.771 45.5999 39.0004 45.5999H40.0004C41.2298 45.5999 42.26 44.7466 42.5308 43.5999H44.0004C46.5409 43.5999 48.6004 41.5404 48.6004 38.9999V26.9999C48.6004 26.6685 48.3318 26.3999 48.0004 26.3999C47.669 26.3999 47.4004 26.6685 47.4004 26.9999V38.4999H42.0004C41.7242 38.4999 41.5004 38.7238 41.5004 38.9999C41.5004 39.276 41.7242 39.4999 42.0004 39.4999H47.3639C47.1221 41.1406 45.7083 42.3999 44.0004 42.3999H12.0004C10.2925 42.3999 8.8787 41.1406 8.6369 39.4999H14.0004C14.2765 39.4999 14.5004 39.276 14.5004 38.9999C14.5004 38.7238 14.2765 38.4999 14.0004 38.4999H8.60039V18.9999C8.60039 17.1221 10.1226 15.5999 12.0004 15.5999ZM39.0004 44.3999C38.4419 44.3999 37.9598 44.0729 37.7351 43.5999H41.2657C41.041 44.0729 40.5589 44.3999 40.0004 44.3999H39.0004ZM18.2657 43.5999H14.7351C14.9598 44.0729 15.4419 44.3999 16.0004 44.3999H17.0004C17.5589 44.3999 18.041 44.0729 18.2657 43.5999ZM32.5167 14.3999C32.7301 13.8727 33.2163 13.4852 33.8003 13.4123C33.3605 12.9141 32.7172 12.5999 32.0004 12.5999H24.0004C23.2836 12.5999 22.6403 12.9141 22.2005 13.4123C22.7845 13.4852 23.2707 13.8727 23.4841 14.3999H32.5167Z"
    fill="black"
  />
  <path
    d="M16.5982 30.8378C16.4387 30.9973 16.359 31.1747 16.359 31.37C16.359 31.5523 16.4192 31.7037 16.5396 31.8241C16.6601 31.9413 16.8131 31.9999 16.9986 31.9999H20.4898C20.6656 31.9999 20.8137 31.9397 20.9342 31.8192C21.0579 31.6988 21.1197 31.5491 21.1197 31.37C21.1197 31.2138 21.0579 31.0738 20.9342 30.9501C20.8105 30.8231 20.6624 30.7597 20.4898 30.7597H18.7369C18.6555 30.7597 18.6083 30.7369 18.5953 30.6913C18.5823 30.6425 18.6002 30.5985 18.649 30.5595L19.8453 29.4218C20.0374 29.2395 20.1904 29.0897 20.3043 28.9726C20.4215 28.8521 20.5484 28.7073 20.6852 28.538C20.8219 28.3655 20.9277 28.206 21.0025 28.0595C21.0774 27.913 21.1393 27.7453 21.1881 27.5565C21.2402 27.3645 21.2662 27.1659 21.2662 26.9608C21.2662 26.2805 21.0709 25.7646 20.6803 25.413C20.2929 25.0582 19.7623 24.8808 19.0885 24.8808C18.2975 24.8808 17.5943 25.234 16.9791 25.9403C16.7968 26.1617 16.7057 26.3586 16.7057 26.5312C16.7057 26.7069 16.7594 26.8534 16.8668 26.9706C16.9775 27.0845 17.1207 27.1415 17.2965 27.1415C17.5081 27.1415 17.6757 27.0504 17.7994 26.8681C18.1705 26.344 18.6002 26.0819 19.0885 26.0819C19.3782 26.0819 19.5995 26.1601 19.7525 26.3163C19.9088 26.4693 19.9869 26.6841 19.9869 26.9608C19.9869 27.1041 19.9592 27.2457 19.9039 27.3856C19.8518 27.5256 19.7656 27.6737 19.6451 27.83C19.5279 27.983 19.4124 28.1197 19.2984 28.2401C19.1845 28.3606 19.0283 28.5168 18.8297 28.7089L16.5982 30.8378Z"
    fill="black"
  />
  <path
    fill-rule="evenodd"
    clip-rule="evenodd"
    d="M21.8816 27.4833C21.8035 27.8479 21.7645 28.2271 21.7645 28.621C21.7645 29.7278 21.9923 30.5888 22.448 31.204C22.907 31.816 23.5581 32.122 24.4012 32.122C24.8504 32.122 25.2654 32.0162 25.6463 31.8046C26.0304 31.5897 26.3331 31.3 26.5545 30.9354C26.7791 30.5709 26.8914 30.1754 26.8914 29.7489C26.8914 29.2802 26.7791 28.87 26.5545 28.5185C26.3331 28.1636 26.0353 27.8951 25.6609 27.7128C25.2866 27.5305 24.8667 27.4394 24.4012 27.4394C24.0333 27.4394 23.6574 27.5468 23.2732 27.7616C23.2374 27.7909 23.1984 27.7974 23.1561 27.7812C23.117 27.7616 23.1056 27.7144 23.1219 27.6396C23.2391 27.1513 23.423 26.7704 23.6736 26.497C23.9243 26.2203 24.2238 26.0819 24.5721 26.0819C24.9171 26.0819 25.2671 26.2317 25.6219 26.5312C25.7358 26.6223 25.8497 26.6679 25.9637 26.6679C26.1329 26.6679 26.2794 26.6028 26.4031 26.4726C26.5301 26.3391 26.5936 26.1845 26.5936 26.0087C26.5936 25.8329 26.5268 25.6864 26.3934 25.5692C25.8595 25.1103 25.2524 24.8808 24.5721 24.8808C24.2238 24.8808 23.8982 24.9475 23.5955 25.081C23.296 25.2144 23.0356 25.3983 22.8143 25.6327C22.5929 25.8671 22.4025 26.1422 22.243 26.4579C22.0835 26.7737 21.963 27.1155 21.8816 27.4833ZM23.5271 30.6229C23.3058 30.4016 23.1951 30.12 23.1951 29.7782C23.1951 29.4397 23.2993 29.1581 23.5076 28.9335C23.7192 28.7056 24.0171 28.5917 24.4012 28.5917C24.7951 28.5917 25.1027 28.7007 25.324 28.9188C25.5486 29.1337 25.6609 29.4202 25.6609 29.7782C25.6609 30.1037 25.5454 30.3804 25.3143 30.6083C25.0831 30.8362 24.7788 30.9501 24.4012 30.9501C24.0398 30.9501 23.7485 30.841 23.5271 30.6229Z"
    fill="black"
  />
  <path
    d="M27.7949 25.7108V31.2919C27.7949 31.497 27.8633 31.6662 28 31.7997C28.1367 31.9332 28.3044 31.9999 28.5029 31.9999C28.7015 31.9999 28.8691 31.9332 29.0059 31.7997C29.1426 31.6662 29.2109 31.497 29.2109 31.2919V29.5292C29.2109 29.4543 29.2337 29.412 29.2793 29.4022C29.3281 29.3892 29.3721 29.4022 29.4111 29.4413L32.3115 31.8681C32.432 31.956 32.5605 31.9999 32.6973 31.9999L32.7949 31.9901C32.9707 31.9641 33.1074 31.8843 33.2051 31.7509C33.2897 31.6304 33.332 31.5002 33.332 31.3603C33.332 31.3342 33.3304 31.3065 33.3271 31.2772C33.3076 31.108 33.2262 30.9647 33.083 30.8476L30.4414 28.6698C30.3503 28.6015 30.3503 28.5315 30.4414 28.4599L33.1611 26.1308C33.3011 26.0168 33.3743 25.8703 33.3809 25.6913V25.6571C33.3809 25.4911 33.3255 25.3495 33.2148 25.2323C33.0977 25.0956 32.9544 25.0207 32.7852 25.0077C32.7689 25.0077 32.751 25.0061 32.7314 25.0028C32.5817 25.0028 32.4417 25.0549 32.3115 25.1591L29.4111 27.7519C29.3753 27.7877 29.333 27.7958 29.2842 27.7763C29.2354 27.7535 29.2109 27.7112 29.2109 27.6493V25.7108C29.2109 25.5025 29.1426 25.3316 29.0059 25.1981C28.8691 25.0647 28.7015 24.9979 28.5029 24.9979C28.3044 24.9979 28.1367 25.0647 28 25.1981C27.8633 25.3316 27.7949 25.5025 27.7949 25.7108Z"
    fill="black"
  />
  <path
    d="M34.8215 25.8622C34.1639 26.5132 33.8352 27.3922 33.8352 28.4989C33.8352 29.2118 33.9849 29.8417 34.2844 30.3886C34.5871 30.9354 35.0184 31.3619 35.5783 31.6679C36.1382 31.9706 36.786 32.122 37.5217 32.122C38.4331 32.122 39.26 31.8778 40.0022 31.3896C40.3309 31.1715 40.4953 30.8785 40.4953 30.5106V28.7284C40.4953 28.5266 40.4253 28.3606 40.2854 28.2304C40.1454 28.0969 39.9745 28.0302 39.7727 28.0302H38.2248C38.0458 28.0302 37.8993 28.0888 37.7854 28.206C37.6714 28.3231 37.6145 28.468 37.6145 28.6405C37.6145 28.8098 37.6714 28.9514 37.7854 29.0653C37.8993 29.176 38.0458 29.2313 38.2248 29.2313H39.0256C39.1102 29.2313 39.1525 29.2769 39.1525 29.3681V30.2421C39.1525 30.2974 39.1363 30.3365 39.1037 30.3593C38.6968 30.6653 38.163 30.8183 37.5021 30.8183C36.8088 30.8183 36.2717 30.6083 35.8908 30.1884C35.5132 29.7652 35.3244 29.1988 35.3244 28.4892C35.3244 27.7795 35.5132 27.2147 35.8908 26.7948C36.2717 26.3716 36.8088 26.1601 37.5021 26.1601C37.7886 26.1601 38.0572 26.2024 38.3078 26.287C38.5617 26.3684 38.7701 26.4791 38.9328 26.619C39.1151 26.7785 39.2827 26.8583 39.4357 26.8583C39.6213 26.8583 39.7792 26.7932 39.9094 26.663C40.0396 26.5328 40.1047 26.3749 40.1047 26.1894C40.1047 26.0852 40.0754 25.9826 40.0168 25.8817C39.9582 25.7776 39.8866 25.6929 39.802 25.6278C39.1346 25.1298 38.3745 24.8808 37.5217 24.8808C36.3824 24.8808 35.4823 25.2079 34.8215 25.8622Z"
    fill="black"
  />
</svg>
