<svg width="56" height="56" viewBox="0 0 56 56" fill="none" xmlns="http://www.w3.org/2000/svg">
  <path
    fill-rule="evenodd"
    clip-rule="evenodd"
    d="M13.0004 16.5999C11.1226 16.5999 9.60039 18.1221 9.60039 19.9999V37.9999C9.60039 39.8777 11.1226 41.3999 13.0004 41.3999H23.5004V36.9999C23.5004 36.7238 23.7242 36.4999 24.0004 36.4999C24.2765 36.4999 24.5004 36.7238 24.5004 36.9999V41.3999H27.5004V38.9999C27.5004 38.7238 27.7242 38.4999 28.0004 38.4999C28.2765 38.4999 28.5004 38.7238 28.5004 38.9999V41.3999H31.5004V36.9999C31.5004 36.7238 31.7242 36.4999 32.0004 36.4999C32.2765 36.4999 32.5004 36.7238 32.5004 36.9999V41.3999H43.0004C44.8782 41.3999 46.4004 39.8777 46.4004 37.9999V35.9999C46.4004 35.6685 46.669 35.3999 47.0004 35.3999C47.3318 35.3999 47.6004 35.6685 47.6004 35.9999V37.9999C47.6004 40.5404 45.5409 42.5999 43.0004 42.5999H42.5308C42.26 43.7466 41.2298 44.5999 40.0004 44.5999H39.0004C37.771 44.5999 36.7408 43.7466 36.47 42.5999H19.5308C19.26 43.7466 18.2298 44.5999 17.0004 44.5999H16.0004C14.771 44.5999 13.7408 43.7466 13.47 42.5999H13.0004C10.4599 42.5999 8.40039 40.5404 8.40039 37.9999V19.9999C8.40039 17.4594 10.4599 15.3999 13.0004 15.3999H18.5167C18.754 14.8135 19.3289 14.3999 20.0004 14.3999H20.7746C21.3637 13.2145 22.5869 12.3999 24.0004 12.3999H32.0004C33.4139 12.3999 34.6371 13.2145 35.2262 14.3999H36.0004C36.6719 14.3999 37.2467 14.8135 37.4841 15.3999H43.0004C45.5409 15.3999 47.6004 17.4594 47.6004 19.9999V29.9999C47.6004 30.3313 47.3318 30.5999 47.0004 30.5999C46.669 30.5999 46.4004 30.3313 46.4004 29.9999V19.9999C46.4004 18.1221 44.8782 16.5999 43.0004 16.5999H13.0004ZM37.7351 42.5999H41.2657C41.041 43.0729 40.5589 43.3999 40.0004 43.3999H39.0004C38.4419 43.3999 37.9598 43.0729 37.7351 42.5999ZM14.7351 42.5999C14.9598 43.0729 15.4419 43.3999 16.0004 43.3999H17.0004C17.5589 43.3999 18.041 43.0729 18.2657 42.5999H14.7351ZM32.0004 13.5999C32.7172 13.5999 33.3605 13.9141 33.8003 14.4123C33.2163 14.4852 32.7301 14.8727 32.5167 15.3999H23.4841C23.2707 14.8727 22.7845 14.4852 22.2005 14.4123C22.6403 13.9141 23.2836 13.5999 24.0004 13.5999H32.0004Z"
    fill="black"
  />
  <path
    d="M16.6959 30.8378C16.5364 30.9973 16.4566 31.1747 16.4566 31.37C16.4566 31.5523 16.5169 31.7037 16.6373 31.8241C16.7577 31.9413 16.9107 31.9999 17.0963 31.9999H20.5875C20.7633 31.9999 20.9114 31.9397 21.0318 31.8192C21.1555 31.6988 21.2174 31.5491 21.2174 31.37C21.2174 31.2138 21.1555 31.0738 21.0318 30.9501C20.9081 30.8231 20.76 30.7597 20.5875 30.7597H18.8346C18.7532 30.7597 18.706 30.7369 18.693 30.6913C18.6799 30.6425 18.6979 30.5985 18.7467 30.5595L19.943 29.4218C20.135 29.2395 20.288 29.0897 20.402 28.9726C20.5191 28.8521 20.6461 28.7073 20.7828 28.538C20.9195 28.3655 21.0253 28.206 21.1002 28.0595C21.1751 27.913 21.2369 27.7453 21.2857 27.5565C21.3378 27.3645 21.3639 27.1659 21.3639 26.9608C21.3639 26.2805 21.1686 25.7646 20.7779 25.413C20.3906 25.0582 19.86 24.8808 19.1861 24.8808C18.3951 24.8808 17.692 25.234 17.0768 25.9403C16.8945 26.1617 16.8033 26.3586 16.8033 26.5312C16.8033 26.7069 16.857 26.8534 16.9645 26.9706C17.0751 27.0845 17.2184 27.1415 17.3941 27.1415C17.6057 27.1415 17.7734 27.0504 17.8971 26.8681C18.2682 26.344 18.6979 26.0819 19.1861 26.0819C19.4758 26.0819 19.6972 26.1601 19.8502 26.3163C20.0064 26.4693 20.0846 26.6841 20.0846 26.9608C20.0846 27.1041 20.0569 27.2457 20.0016 27.3856C19.9495 27.5256 19.8632 27.6737 19.7428 27.83C19.6256 27.983 19.51 28.1197 19.3961 28.2401C19.2822 28.3606 19.1259 28.5168 18.9273 28.7089L16.6959 30.8378Z"
    fill="black"
  />
  <path
    d="M22.0525 30.1737C21.9256 30.2942 21.8621 30.439 21.8621 30.6083C21.8621 30.7515 21.9142 30.8882 22.0184 31.0185C22.6401 31.7541 23.4246 32.122 24.3719 32.122C25.1271 32.122 25.7179 31.9169 26.1443 31.5067C26.574 31.0933 26.7889 30.5448 26.7889 29.8612C26.7889 29.3371 26.6587 28.8993 26.3982 28.5478C26.1411 28.1929 25.7684 27.9309 25.2801 27.7616C25.2215 27.7421 25.1889 27.7144 25.1824 27.6786C25.1759 27.6396 25.1889 27.6037 25.2215 27.5712L26.5691 26.0575C26.6212 25.9989 26.6603 25.9273 26.6863 25.8427C26.7156 25.7548 26.7303 25.6832 26.7303 25.6278C26.7303 25.4553 26.6668 25.3072 26.5398 25.1835C26.4161 25.0598 26.2664 24.9979 26.0906 24.9979H22.7215C22.5424 24.9979 22.3895 25.0598 22.2625 25.1835C22.1355 25.3072 22.0721 25.4553 22.0721 25.6278C22.0721 25.8069 22.1339 25.9517 22.2576 26.0624C22.3813 26.1731 22.5359 26.2284 22.7215 26.2284H24.5916C24.6632 26.2284 24.7072 26.2512 24.7234 26.2968C24.7397 26.3424 24.7251 26.3863 24.6795 26.4286L23.493 27.7714C23.3855 27.9049 23.3318 28.0383 23.3318 28.1718C23.3318 28.3476 23.3888 28.4989 23.5027 28.6259C23.6167 28.7496 23.7566 28.8114 23.9227 28.8114H24.1912C24.5786 28.8114 24.8862 28.914 25.1141 29.119C25.3452 29.3209 25.4607 29.5683 25.4607 29.8612C25.4607 30.1868 25.3615 30.4455 25.1629 30.6376C24.9643 30.8264 24.6827 30.9208 24.3182 30.9208C24.0382 30.9208 23.7973 30.8606 23.5955 30.7401C23.3969 30.6164 23.1821 30.4358 22.951 30.1981C22.811 30.0582 22.6613 29.9882 22.5018 29.9882C22.3325 29.9882 22.1827 30.05 22.0525 30.1737Z"
    fill="black"
  />
  <path
    d="M27.6973 25.7108V31.2919C27.6973 31.497 27.7656 31.6662 27.9023 31.7997C28.0391 31.9332 28.2067 31.9999 28.4053 31.9999C28.6038 31.9999 28.7715 31.9332 28.9082 31.7997C29.0449 31.6662 29.1133 31.497 29.1133 31.2919V29.5292C29.1133 29.4543 29.1361 29.412 29.1816 29.4022C29.2305 29.3892 29.2744 29.4022 29.3135 29.4413L32.2139 31.8681C32.3343 31.956 32.4629 31.9999 32.5996 31.9999L32.6973 31.9901C32.873 31.9641 33.0098 31.8843 33.1074 31.7509C33.1921 31.6304 33.2344 31.5002 33.2344 31.3603C33.2344 31.3342 33.2327 31.3065 33.2295 31.2772C33.21 31.108 33.1286 30.9647 32.9854 30.8476L30.3438 28.6698C30.2526 28.6015 30.2526 28.5315 30.3438 28.4599L33.0635 26.1308C33.2035 26.0168 33.2767 25.8703 33.2832 25.6913V25.6571C33.2832 25.4911 33.2279 25.3495 33.1172 25.2323C33 25.0956 32.8568 25.0207 32.6875 25.0077C32.6712 25.0077 32.6533 25.0061 32.6338 25.0028C32.4841 25.0028 32.3441 25.0549 32.2139 25.1591L29.3135 27.7519C29.2777 27.7877 29.2354 27.7958 29.1865 27.7763C29.1377 27.7535 29.1133 27.7112 29.1133 27.6493V25.7108C29.1133 25.5025 29.0449 25.3316 28.9082 25.1981C28.7715 25.0647 28.6038 24.9979 28.4053 24.9979C28.2067 24.9979 28.0391 25.0647 27.9023 25.1981C27.7656 25.3316 27.6973 25.5025 27.6973 25.7108Z"
    fill="black"
  />
  <path
    d="M34.7238 25.8622C34.0663 26.5132 33.7375 27.3922 33.7375 28.4989C33.7375 29.2118 33.8872 29.8417 34.1867 30.3886C34.4895 30.9354 34.9208 31.3619 35.4807 31.6679C36.0406 31.9706 36.6883 32.122 37.424 32.122C38.3355 32.122 39.1623 31.8778 39.9045 31.3896C40.2333 31.1715 40.3977 30.8785 40.3977 30.5106V28.7284C40.3977 28.5266 40.3277 28.3606 40.1877 28.2304C40.0477 28.0969 39.8768 28.0302 39.675 28.0302H38.1271C37.9481 28.0302 37.8016 28.0888 37.6877 28.206C37.5738 28.3231 37.5168 28.468 37.5168 28.6405C37.5168 28.8098 37.5738 28.9514 37.6877 29.0653C37.8016 29.176 37.9481 29.2313 38.1271 29.2313H38.9279C39.0126 29.2313 39.0549 29.2769 39.0549 29.3681V30.2421C39.0549 30.2974 39.0386 30.3365 39.0061 30.3593C38.5992 30.6653 38.0653 30.8183 37.4045 30.8183C36.7111 30.8183 36.174 30.6083 35.7932 30.1884C35.4156 29.7652 35.2268 29.1988 35.2268 28.4892C35.2268 27.7795 35.4156 27.2147 35.7932 26.7948C36.174 26.3716 36.7111 26.1601 37.4045 26.1601C37.691 26.1601 37.9595 26.2024 38.2102 26.287C38.4641 26.3684 38.6724 26.4791 38.8352 26.619C39.0174 26.7785 39.1851 26.8583 39.3381 26.8583C39.5236 26.8583 39.6815 26.7932 39.8117 26.663C39.9419 26.5328 40.007 26.3749 40.007 26.1894C40.007 26.0852 39.9777 25.9826 39.9191 25.8817C39.8605 25.7776 39.7889 25.6929 39.7043 25.6278C39.037 25.1298 38.2769 24.8808 37.424 24.8808C36.2847 24.8808 35.3846 25.2079 34.7238 25.8622Z"
    fill="black"
  />
</svg>
