<svg width="56" height="56" viewBox="0 0 56 56" fill="none" xmlns="http://www.w3.org/2000/svg">
  <path
    fill-rule="evenodd"
    clip-rule="evenodd"
    d="M11.0004 15.5999H45.0004C46.8782 15.5999 48.4004 17.1221 48.4004 18.9999V19.4999H43.0004C42.7242 19.4999 42.5004 19.7238 42.5004 19.9999C42.5004 20.276 42.7242 20.4999 43.0004 20.4999H48.4004V25.9999C48.4004 26.3313 48.669 26.5999 49.0004 26.5999C49.3318 26.5999 49.6004 26.3313 49.6004 25.9999V18.9999C49.6004 16.4594 47.5409 14.3999 45.0004 14.3999H38.4841C38.2467 13.8135 37.6719 13.3999 37.0004 13.3999H36.2262C35.6371 12.2145 34.4139 11.3999 33.0004 11.3999H23.0004C21.5869 11.3999 20.3637 12.2145 19.7746 13.3999H19.0004C18.3289 13.3999 17.754 13.8135 17.5167 14.3999H11.0004C8.45988 14.3999 6.40039 16.4594 6.40039 18.9999V38.9999C6.40039 41.5404 8.45988 43.5999 11.0004 43.5999H11.47C11.7408 44.7466 12.771 45.5999 14.0004 45.5999H17.0004C18.2298 45.5999 19.26 44.7466 19.5308 43.5999H36.47C36.7408 44.7466 37.771 45.5999 39.0004 45.5999H42.0004C43.2298 45.5999 44.26 44.7466 44.5308 43.5999H45.0004C47.5409 43.5999 49.6004 41.5404 49.6004 38.9999V31.9999C49.6004 31.6685 49.3318 31.3999 49.0004 31.3999C48.669 31.3999 48.4004 31.6685 48.4004 31.9999V37.4999H43.0004C42.7242 37.4999 42.5004 37.7238 42.5004 37.9999C42.5004 38.276 42.7242 38.4999 43.0004 38.4999H48.4004V38.9999C48.4004 40.8777 46.8782 42.3999 45.0004 42.3999H11.0004C9.12262 42.3999 7.60039 40.8777 7.60039 38.9999V38.4999H13.0004C13.2765 38.4999 13.5004 38.276 13.5004 37.9999C13.5004 37.7238 13.2765 37.4999 13.0004 37.4999H7.60039V20.4999H13.0004C13.2765 20.4999 13.5004 20.276 13.5004 19.9999C13.5004 19.7238 13.2765 19.4999 13.0004 19.4999H7.60039V18.9999C7.60039 17.1221 9.12262 15.5999 11.0004 15.5999ZM39.0004 44.3999C38.4419 44.3999 37.9598 44.0729 37.7351 43.5999H43.2657C43.041 44.0729 42.5589 44.3999 42.0004 44.3999H39.0004ZM18.2657 43.5999H12.7351C12.9598 44.0729 13.4419 44.3999 14.0004 44.3999H17.0004C17.5589 44.3999 18.041 44.0729 18.2657 43.5999ZM33.5167 14.3999C33.7301 13.8727 34.2163 13.4852 34.8003 13.4123C34.3605 12.9141 33.7172 12.5999 33.0004 12.5999H23.0004C22.2836 12.5999 21.6403 12.9141 21.2005 13.4123C21.7845 13.4852 22.2707 13.8727 22.4841 14.3999H33.5167Z"
    fill="black"
  />
  <path
    d="M16.5982 30.8378C16.4387 30.9973 16.359 31.1747 16.359 31.37C16.359 31.5523 16.4192 31.7037 16.5396 31.8241C16.6601 31.9413 16.8131 31.9999 16.9986 31.9999H20.4898C20.6656 31.9999 20.8137 31.9397 20.9342 31.8192C21.0579 31.6988 21.1197 31.5491 21.1197 31.37C21.1197 31.2138 21.0579 31.0738 20.9342 30.9501C20.8105 30.8231 20.6624 30.7597 20.4898 30.7597H18.7369C18.6555 30.7597 18.6083 30.7369 18.5953 30.6913C18.5823 30.6425 18.6002 30.5985 18.649 30.5595L19.8453 29.4218C20.0374 29.2395 20.1904 29.0897 20.3043 28.9726C20.4215 28.8521 20.5484 28.7073 20.6852 28.538C20.8219 28.3655 20.9277 28.206 21.0025 28.0595C21.0774 27.913 21.1393 27.7453 21.1881 27.5565C21.2402 27.3645 21.2662 27.1659 21.2662 26.9608C21.2662 26.2805 21.0709 25.7646 20.6803 25.413C20.2929 25.0582 19.7623 24.8808 19.0885 24.8808C18.2975 24.8808 17.5943 25.234 16.9791 25.9403C16.7968 26.1617 16.7057 26.3586 16.7057 26.5312C16.7057 26.7069 16.7594 26.8534 16.8668 26.9706C16.9775 27.0845 17.1207 27.1415 17.2965 27.1415C17.5081 27.1415 17.6757 27.0504 17.7994 26.8681C18.1705 26.344 18.6002 26.0819 19.0885 26.0819C19.3782 26.0819 19.5995 26.1601 19.7525 26.3163C19.9088 26.4693 19.9869 26.6841 19.9869 26.9608C19.9869 27.1041 19.9592 27.2457 19.9039 27.3856C19.8518 27.5256 19.7656 27.6737 19.6451 27.83C19.5279 27.983 19.4124 28.1197 19.2984 28.2401C19.1845 28.3606 19.0283 28.5168 18.8297 28.7089L16.5982 30.8378Z"
    fill="black"
  />
  <path
    fill-rule="evenodd"
    clip-rule="evenodd"
    d="M22.0721 26.1063C21.867 26.4774 21.7645 26.8778 21.7645 27.3075C21.7645 27.6591 21.8279 27.983 21.9549 28.2792C22.0851 28.5754 22.2625 28.8244 22.4871 29.0263C22.7117 29.2281 22.9754 29.3843 23.2781 29.495C23.5841 29.6057 23.9096 29.661 24.2547 29.661C24.6225 29.661 24.9985 29.5536 25.3826 29.3388C25.4184 29.3095 25.4559 29.303 25.4949 29.3192C25.534 29.3355 25.547 29.3827 25.534 29.4608C25.4331 29.9654 25.2654 30.3349 25.0311 30.5692C24.7999 30.8036 24.4842 30.9208 24.0838 30.9208C23.7387 30.9208 23.3888 30.7711 23.034 30.4716C22.9168 30.3772 22.8029 30.33 22.6922 30.33C22.5229 30.33 22.3748 30.3967 22.2479 30.5302C22.1242 30.6604 22.0623 30.8134 22.0623 30.9892C22.0623 31.1649 22.129 31.3114 22.2625 31.4286C22.7996 31.8909 23.4067 32.122 24.0838 32.122C24.5363 32.122 24.9432 32.0243 25.3045 31.829C25.6658 31.6337 25.9604 31.3668 26.1883 31.0282C26.4161 30.6864 26.5903 30.2909 26.7107 29.8417C26.8312 29.3925 26.8914 28.9058 26.8914 28.3817C26.8914 27.2847 26.6489 26.427 26.1639 25.8085C25.6821 25.19 25.0148 24.8808 24.1619 24.8808C23.716 24.8808 23.3074 24.9931 22.9363 25.2177C22.5685 25.439 22.2804 25.7353 22.0721 26.1063ZM23.3318 28.1669C23.1072 27.939 22.9949 27.6428 22.9949 27.2782C22.9949 26.9462 23.1105 26.6581 23.3416 26.414C23.576 26.1698 23.8803 26.0478 24.2547 26.0478C24.6128 26.0478 24.9025 26.1666 25.1238 26.4042C25.3484 26.6386 25.4607 26.9299 25.4607 27.2782C25.4607 27.62 25.3549 27.9114 25.1434 28.1522C24.9318 28.3899 24.6355 28.5087 24.2547 28.5087C23.8641 28.5087 23.5564 28.3948 23.3318 28.1669Z"
    fill="black"
  />
  <path
    d="M27.7949 25.7108V31.2919C27.7949 31.497 27.8633 31.6662 28 31.7997C28.1367 31.9332 28.3044 31.9999 28.5029 31.9999C28.7015 31.9999 28.8691 31.9332 29.0059 31.7997C29.1426 31.6662 29.2109 31.497 29.2109 31.2919V29.5292C29.2109 29.4543 29.2337 29.412 29.2793 29.4022C29.3281 29.3892 29.3721 29.4022 29.4111 29.4413L32.3115 31.8681C32.432 31.956 32.5605 31.9999 32.6973 31.9999L32.7949 31.9901C32.9707 31.9641 33.1074 31.8843 33.2051 31.7509C33.2897 31.6304 33.332 31.5002 33.332 31.3603C33.332 31.3342 33.3304 31.3065 33.3271 31.2772C33.3076 31.108 33.2262 30.9647 33.083 30.8476L30.4414 28.6698C30.3503 28.6015 30.3503 28.5315 30.4414 28.4599L33.1611 26.1308C33.3011 26.0168 33.3743 25.8703 33.3809 25.6913V25.6571C33.3809 25.4911 33.3255 25.3495 33.2148 25.2323C33.0977 25.0956 32.9544 25.0207 32.7852 25.0077C32.7689 25.0077 32.751 25.0061 32.7314 25.0028C32.5817 25.0028 32.4417 25.0549 32.3115 25.1591L29.4111 27.7519C29.3753 27.7877 29.333 27.7958 29.2842 27.7763C29.2354 27.7535 29.2109 27.7112 29.2109 27.6493V25.7108C29.2109 25.5025 29.1426 25.3316 29.0059 25.1981C28.8691 25.0647 28.7015 24.9979 28.5029 24.9979C28.3044 24.9979 28.1367 25.0647 28 25.1981C27.8633 25.3316 27.7949 25.5025 27.7949 25.7108Z"
    fill="black"
  />
  <path
    d="M34.8215 25.8622C34.1639 26.5132 33.8352 27.3922 33.8352 28.4989C33.8352 29.2118 33.9849 29.8417 34.2844 30.3886C34.5871 30.9354 35.0184 31.3619 35.5783 31.6679C36.1382 31.9706 36.786 32.122 37.5217 32.122C38.4331 32.122 39.26 31.8778 40.0022 31.3896C40.3309 31.1715 40.4953 30.8785 40.4953 30.5106V28.7284C40.4953 28.5266 40.4253 28.3606 40.2854 28.2304C40.1454 28.0969 39.9745 28.0302 39.7727 28.0302H38.2248C38.0458 28.0302 37.8993 28.0888 37.7854 28.206C37.6714 28.3231 37.6145 28.468 37.6145 28.6405C37.6145 28.8098 37.6714 28.9514 37.7854 29.0653C37.8993 29.176 38.0458 29.2313 38.2248 29.2313H39.0256C39.1102 29.2313 39.1525 29.2769 39.1525 29.3681V30.2421C39.1525 30.2974 39.1363 30.3365 39.1037 30.3593C38.6968 30.6653 38.163 30.8183 37.5021 30.8183C36.8088 30.8183 36.2717 30.6083 35.8908 30.1884C35.5132 29.7652 35.3244 29.1988 35.3244 28.4892C35.3244 27.7795 35.5132 27.2147 35.8908 26.7948C36.2717 26.3716 36.8088 26.1601 37.5021 26.1601C37.7886 26.1601 38.0572 26.2024 38.3078 26.287C38.5617 26.3684 38.7701 26.4791 38.9328 26.619C39.1151 26.7785 39.2827 26.8583 39.4357 26.8583C39.6213 26.8583 39.7792 26.7932 39.9094 26.663C40.0396 26.5328 40.1047 26.3749 40.1047 26.1894C40.1047 26.0852 40.0754 25.9826 40.0168 25.8817C39.9582 25.7776 39.8866 25.6929 39.802 25.6278C39.1346 25.1298 38.3745 24.8808 37.5217 24.8808C36.3824 24.8808 35.4823 25.2079 34.8215 25.8622Z"
    fill="black"
  />
</svg>
