<svg width="56" height="56" viewBox="0 0 56 56" fill="none" xmlns="http://www.w3.org/2000/svg">
  <path
    d="M22.1479 40.7799C21.0252 40.7799 20.1118 41.6934 20.1118 42.8161C20.1118 43.9388 21.0252 44.8523 22.1479 44.8523C23.2706 44.8523 24.1841 43.9388 24.1841 42.8161C24.1841 41.6934 23.2706 40.7799 22.1479 40.7799ZM22.1479 43.6629C21.681 43.6629 21.3011 43.283 21.3011 42.816C21.3011 42.3491 21.681 41.9692 22.1479 41.9692C22.6149 41.9692 22.9948 42.3491 22.9948 42.816C22.9947 43.283 22.6148 43.6629 22.1479 43.6629Z"
    fill="black"
  />
  <path
    d="M38.7495 44.8522C39.8722 44.8522 40.7857 43.9387 40.7857 42.816C40.7857 41.6933 39.8722 40.7799 38.7495 40.7799C37.6268 40.7799 36.7133 41.6933 36.7133 42.816C36.7133 43.9387 37.6268 44.8522 38.7495 44.8522ZM38.7495 41.9693C39.2165 41.9693 39.5964 42.3491 39.5964 42.8161C39.5964 43.2831 39.2165 43.663 38.7495 43.663C38.2826 43.663 37.9027 43.2831 37.9027 42.8161C37.9028 42.3491 38.2826 41.9693 38.7495 41.9693Z"
    fill="black"
  />
  <path
    d="M44.4096 13.4078C44.1895 13.1641 43.8135 13.145 43.5697 13.3652C43.3261 13.5853 43.307 13.9613 43.5271 14.2051C45.6255 16.5284 46.7897 19.5276 46.8103 22.6588H31.0434V10.0004H34.0673C36.7817 10.0004 39.3726 10.8421 41.5598 12.4345C41.8252 12.6278 42.1973 12.5693 42.3906 12.3038C42.5839 12.0383 42.5253 11.6664 42.2599 11.473C39.868 9.7315 37.0351 8.81104 34.0673 8.81104H31.0023C30.3692 8.81104 29.8542 9.32602 29.8542 9.95906V22.6588H14.6502L13.9068 19.1303C13.7879 18.5658 13.2829 18.1561 12.706 18.1561H8.59467C8.26617 18.1561 8 18.4223 8 18.7508C8 19.0793 8.26617 19.3454 8.59467 19.3454H12.7061C12.7239 19.3454 12.7394 19.358 12.7431 19.3754L13.4355 22.6616C13.1337 22.6902 12.8976 22.9441 12.8976 23.2534V26.5837C12.8976 28.9489 13.7267 31.2531 15.2323 33.0719C15.4417 33.325 15.8167 33.3604 16.0696 33.1508C16.3226 32.9414 16.3579 32.5666 16.1484 32.3135C14.9046 30.8107 14.1835 28.9323 14.096 26.9857H46.8019C46.591 31.7585 42.642 35.5764 37.8181 35.5764C37.1069 35.5764 23.7932 35.5764 23.0795 35.5764C21.286 35.5764 19.5545 35.0502 18.0722 34.0546C17.7996 33.8715 17.4301 33.944 17.247 34.2166C17.0639 34.4893 17.1364 34.8587 17.4091 35.0418C19.0882 36.1697 21.049 36.7658 23.0796 36.7657H23.5549L28.975 39.1557L25.8705 40.5247C25.0995 39.2768 23.7194 38.4431 22.1479 38.4431C19.7367 38.4431 17.7751 40.4048 17.7751 42.816C17.7751 45.2273 19.7367 47.1889 22.1479 47.1889C24.5591 47.1889 26.5208 45.2273 26.5208 42.816C26.5208 42.3986 26.4608 41.9952 26.351 41.6125L30.4488 39.8056L34.5465 41.6124C34.4368 41.995 34.3767 42.3985 34.3767 42.8159C34.3767 45.2272 36.3384 47.1889 38.7497 47.1889C41.1609 47.1889 43.1225 45.2272 43.1225 42.8159C43.1225 40.4047 41.1609 38.4431 38.7497 38.4431C37.1782 38.4431 35.7981 39.2767 35.0271 40.5245L31.9227 39.1556L37.3428 36.7656H37.8181C43.4325 36.7656 48.0001 32.198 48.0001 26.5837C48.0001 25.3026 48.0001 24.0226 48.0001 22.7437C48 19.2868 46.725 15.9711 44.4096 13.4078ZM22.1479 45.9997C20.3925 45.9997 18.9644 44.5715 18.9644 42.8161C18.9644 41.0607 20.3925 39.6325 22.1479 39.6325C23.9033 39.6325 25.3315 41.0607 25.3315 42.8161C25.3315 44.5715 23.9033 45.9997 22.1479 45.9997ZM38.7496 39.6325C40.5051 39.6325 41.9331 41.0606 41.9331 42.816C41.9331 44.5714 40.505 45.9996 38.7496 45.9996C36.9942 45.9996 35.566 44.5714 35.566 42.816C35.566 41.0606 36.9942 39.6325 38.7496 39.6325ZM30.4488 38.5058L26.5026 36.7656H34.395L30.4488 38.5058ZM14.0869 25.7964V23.8481H14.1637C14.1649 23.8481 14.1661 23.8483 14.1673 23.8483C14.1682 23.8483 14.1692 23.8481 14.1702 23.8481H46.8107V25.7964H14.0869Z"
    fill="black"
  />
</svg>
