<svg width="56" height="56" viewBox="0 0 56 56" fill="none" xmlns="http://www.w3.org/2000/svg">
  <path
    d="M33.3205 7.3999C33.6519 7.3999 33.9205 7.66853 33.9205 7.9999V10.1899C33.9205 10.5213 33.6519 10.7899 33.3205 10.7899H31.7605V17.9399H36.8805C38.5705 17.9399 39.9405 19.3099 39.9405 20.9999V37.1199C39.9405 37.4513 39.6719 37.7199 39.3405 37.7199C39.0092 37.7199 38.7405 37.4513 38.7405 37.1199V20.9999C38.7405 19.9727 37.9078 19.1399 36.8805 19.1399H19.1205C18.0933 19.1399 17.2605 19.9727 17.2605 20.9999V43.2099C17.2605 44.2388 18.0917 45.0744 19.1205 45.0799H36.8805C37.9094 45.0744 38.7406 44.2388 38.7405 43.2099V41.6799C38.7405 41.3485 39.0092 41.0799 39.3405 41.0799C39.6719 41.0799 39.9405 41.3485 39.9405 41.6799V43.2099C39.9405 44.9015 38.5722 46.2744 36.8805 46.2799L36.4902 46.2797C36.4904 46.2897 36.4905 46.2998 36.4905 46.3099V47.3699C36.4905 47.6961 36.361 48.009 36.1303 48.2396C35.8996 48.4703 35.5868 48.5999 35.2605 48.5999H32.7705C32.0935 48.5945 31.546 48.0469 31.5405 47.3699V46.3099L31.5425 46.2799L24.4202 46.2797C24.4204 46.2897 24.4205 46.2998 24.4205 46.3099V47.3699C24.4205 47.6961 24.291 48.009 24.0603 48.2396C23.8296 48.4703 23.5168 48.5999 23.1905 48.5999H20.7005C20.0212 48.5999 19.4705 48.0492 19.4705 47.3699V46.3099L19.4715 46.2799H19.1205C17.4289 46.2744 16.0605 44.9015 16.0605 43.2099V20.9999C16.0605 19.3099 17.4306 17.9399 19.1205 17.9399H24.0395V10.7899H22.4805C22.1492 10.7899 21.8805 10.5213 21.8805 10.1899V7.9999C21.8805 7.66853 22.1492 7.3999 22.4805 7.3999H33.3205ZM20.7005 46.2799V47.3699H23.2205V46.3099L20.7005 46.2799ZM32.8505 46.2799H32.7695L32.7705 47.3699H35.2905V46.3099L32.8505 46.2799ZM28.0005 21.6799C28.2767 21.6799 28.5005 21.9038 28.5005 22.1799V41.9999C28.4951 42.2721 28.2728 42.4899 28.0005 42.4899C27.7244 42.4899 27.5005 42.266 27.5005 41.9899V22.1799C27.5005 21.9038 27.7244 21.6799 28.0005 21.6799ZM23.8205 23.6799C24.0967 23.6799 24.3205 23.9038 24.3205 24.1799V39.9999C24.3151 40.2721 24.0928 40.4899 23.8205 40.4899C23.5444 40.4899 23.3205 40.266 23.3205 39.9899V24.1799C23.3205 23.9038 23.5444 23.6799 23.8205 23.6799ZM32.1605 23.6799C32.4367 23.6799 32.6605 23.9038 32.6605 24.1799V39.9999C32.6551 40.2721 32.4328 40.4899 32.1605 40.4899C31.8866 40.4846 31.6659 40.2638 31.6605 39.9899V24.1799C31.6605 23.9038 31.8844 23.6799 32.1605 23.6799ZM30.5605 10.7899H25.2395V17.9399H30.5605V10.7899ZM32.7205 8.5899H23.0805V9.5899L24.6283 9.59003C24.6324 9.58994 24.6364 9.5899 24.6405 9.5899H24.6515L31.1483 9.59003C31.1524 9.58994 31.1564 9.5899 31.1605 9.5899H31.1715H32.7205V8.5899Z"
    fill="black"
  />
</svg>
