<svg
  width="24"
  height="24"
  viewBox="0 0 24 24"
  fill="none"
  xmlns="http://www.w3.org/2000/svg"
>
  <path
    d="M21.8802 8.49002L18.5802 2.49002C18.4191 2.181 18.0987 1.98801 17.7502 1.99001H6.25024C5.9023 1.99915 5.58414 2.18853 5.41024 2.49002L2.12024 8.49002C1.94134 8.82944 1.97243 9.2413 2.20024 9.55L11.2002 21.62C11.3932 21.8643 11.689 22.0048 12.0002 22.0001C12.2975 21.9926 12.576 21.8534 12.7602 21.62L21.7602 9.55C22.0011 9.2493 22.0478 8.83697 21.8802 8.49002ZM17.1302 4.00002L19.3402 8.00002H15.8902L14.6902 4.00002H17.1302ZM8.13024 10L10.5002 17.26L5.05024 10H8.13024ZM10.2302 10H13.7902L12.0002 15.46L10.2302 10ZM15.8902 10H19.0002L13.5602 17.25L15.8902 10ZM12.6102 4.00002L13.8002 8.00002H10.1902L11.3802 4.00002H12.6102ZM6.87024 4.00002H9.29024L8.11024 8.00002H4.66024L6.87024 4.00002Z"
    fill="#FF6600"
  />
</svg>
