<svg
  width="24"
  height="24"
  viewBox="0 0 24 24"
  fill="none"
  xmlns="http://www.w3.org/2000/svg"
>
  <path
    d="M18.8401 4.06H17.9001V2.94C17.8729 2.44762 17.4908 2.04856 17.0001 2H6.87009C6.62079 2 6.3817 2.09904 6.20541 2.27532C6.02913 2.4516 5.93009 2.6907 5.93009 2.94V4.06H5.16009C4.51071 4.07635 3.99443 4.61044 4.00005 5.26V20.81C4.00005 21.4557 4.51462 21.9837 5.16009 22H18.8401C19.4856 21.9837 20.0001 21.4557 20.0001 20.81V5.26C20.0058 4.61044 19.4895 4.07635 18.8401 4.06ZM9.00008 10V12H7.00009V10H9.00008ZM7.00009 9V7H9.00008V9H7.00009ZM9.00008 13V15H7.00009V13H9.00008ZM12.9401 10V12H10.9401V10H12.9401ZM10.9401 9V7H12.9401V9H10.9401ZM12.9401 13V15H10.9401V13H12.9401ZM16.8901 10V12H14.8901V10H16.8901ZM14.8901 9V7H16.8901V9H14.8901ZM16.8901 13V15H14.8901V13H16.8901ZM10.0001 18H10.9501V20H10.0001V18ZM12.9501 18H13.9001V20H12.9501V18Z"
    fill="#FF6600"
  />
</svg>
