<svg width="25" height="24" viewBox="0 0 25 24" fill="none" xmlns="http://www.w3.org/2000/svg">
  <path
    d="M7.47465 2.28992C7.64772 2.1144 7.91401 2.07002 8.13465 2.17992L17.4046 6.81992C17.4819 6.85976 17.5677 6.88034 17.6546 6.87992C17.8054 6.87942 17.9496 6.81813 18.0546 6.70992L21.7646 2.99992C21.8744 2.87703 22.0299 2.80471 22.1946 2.79992C22.3509 2.79168 22.5037 2.84808 22.6172 2.95588C22.7307 3.06368 22.7948 3.2134 22.7946 3.36992V16.7299C22.7946 16.8837 22.7334 17.0312 22.6246 17.1399L18.0846 21.6799C17.9796 21.7881 17.8354 21.8494 17.6846 21.8499C17.5946 21.849 17.5059 21.8286 17.4246 21.7899L8.16465 17.1499C7.94401 17.04 7.67772 17.0844 7.50465 17.2599L3.76465 20.9999C3.6589 21.1281 3.50084 21.2016 3.33465 21.1999C3.01985 21.1999 2.76465 20.9447 2.76465 20.6299V7.22992C2.76515 7.07914 2.82644 6.93493 2.93465 6.82992L7.47465 2.28992ZM9.02465 4.85992V15.3899L16.7646 19.2799V8.69992C16.676 8.67592 16.5891 8.64585 16.5046 8.60992L9.02465 4.85992ZM20.7646 6.82992L19.4746 8.11992C19.2689 8.32413 19.0285 8.49005 18.7646 8.60992V18.1899L20.7646 16.1899V6.82992ZM7.02465 5.56992L4.76465 7.82992V17.1699L6.02465 15.8699C6.30589 15.596 6.64886 15.3936 7.02465 15.2799V5.56992ZM13.8246 10.4384C13.9572 10.4384 14.0839 10.4932 14.1746 10.5899C14.2713 10.6807 14.3261 10.8073 14.3261 10.9399C14.3261 11.0725 14.2713 11.1992 14.1746 11.2899L13.4746 11.9999L14.1746 12.7099C14.3679 12.9032 14.3679 13.2166 14.1746 13.4099C13.9813 13.6032 13.6679 13.6032 13.4746 13.4099L12.7646 12.7099L12.0546 13.4099C11.8613 13.6032 11.5479 13.6032 11.3546 13.4099C11.1613 13.2166 11.1613 12.9032 11.3546 12.7099L12.0546 11.9999L11.3546 11.2899C11.1613 11.0966 11.1613 10.7832 11.3546 10.5899C11.5479 10.3966 11.8613 10.3966 12.0546 10.5899L12.7646 11.2899L13.4746 10.5899C13.5653 10.4932 13.692 10.4384 13.8246 10.4384Z"
    fill="#FF6600"
  />
</svg>
