<svg width="25" height="24" viewBox="0 0 25 24" fill="none" xmlns="http://www.w3.org/2000/svg">
  <path
    d="M10.1036 6.58393L1.43565 10.0049C1.33898 10.0538 1.29231 10.1658 1.32565 10.2689L1.45765 10.5879C1.49836 10.687 1.61044 10.7357 1.71065 10.6979L3.30565 10.0709V17.5839H2.74465C2.6605 17.6 2.60013 17.6743 2.60165 17.7599V18.7499C2.59448 18.8397 2.65618 18.9203 2.74465 18.9369H23.5126C23.622 18.9369 23.7106 18.8483 23.7106 18.7389V17.7489C23.7106 17.6396 23.622 17.5509 23.5126 17.5509H22.9076V6.93593H23.5456C23.655 6.93593 23.7436 6.84728 23.7436 6.73793V5.42893C23.7451 5.34328 23.6847 5.26898 23.6006 5.25293H10.2796C10.1868 5.2644 10.1191 5.34656 10.1256 5.43993V6.53993L10.1036 6.58393ZM9.74065 17.4959C9.7482 17.5173 9.7482 17.5406 9.74065 17.5619C9.74065 17.5619 9.74065 17.5619 9.67465 17.5619H6.52865C6.50036 17.573 6.46894 17.573 6.44065 17.5619C6.43588 17.5402 6.43588 17.5177 6.44065 17.4959V11.9959C6.44064 11.5564 6.61599 11.1351 6.92781 10.8253C7.23962 10.5155 7.66214 10.343 8.10165 10.3459C9.01292 10.3459 9.75165 11.0847 9.75165 11.9959L9.74065 17.4959ZM14.8666 17.4959C14.8741 17.5173 14.8741 17.5406 14.8666 17.5619H12.9966C12.9891 17.5406 12.9891 17.5173 12.9966 17.4959V15.7469C12.9966 15.6923 13.0409 15.6479 13.0956 15.6479H14.8336C14.8883 15.6479 14.9326 15.6923 14.9326 15.7469L14.8666 17.4959ZM14.8666 15.0869C14.8666 15.1416 14.8223 15.1859 14.7676 15.1859H13.0296C12.9749 15.1859 12.9306 15.1416 12.9306 15.0869V12.4909C12.9356 12.4385 12.9771 12.397 13.0296 12.3919H14.7676C14.8201 12.397 14.8616 12.4385 14.8666 12.4909V15.0869ZM14.8666 11.7869C14.8666 11.8416 14.8223 11.8859 14.7676 11.8859H13.0296C12.9749 11.8859 12.9306 11.8416 12.9306 11.7869V10.4999C12.9269 10.4727 12.9362 10.4453 12.9556 10.4259C12.975 10.4065 13.0024 10.3972 13.0296 10.4009H14.7676C14.7948 10.3972 14.8222 10.4065 14.8416 10.4259C14.861 10.4453 14.8703 10.4727 14.8666 10.4999V11.7869ZM18.2986 17.4739C18.3061 17.4953 18.3061 17.5186 18.2986 17.5399H15.2846C15.2747 17.519 15.2747 17.4948 15.2846 17.4739V15.7469C15.2843 15.6963 15.3223 15.6536 15.3726 15.6479H18.2216C18.2764 15.6479 18.3206 15.6923 18.3206 15.7469L18.2986 17.4739ZM18.2986 15.0649C18.2986 15.1196 18.2543 15.1639 18.1996 15.1639H15.3506C15.3003 15.1583 15.2623 15.1156 15.2626 15.0649V12.4909C15.2666 12.442 15.3025 12.4016 15.3506 12.3919H18.1996C18.2521 12.397 18.2936 12.4385 18.2986 12.4909V15.0649ZM18.2986 11.7649C18.2986 11.8196 18.2543 11.8639 18.1996 11.8639H15.3506C15.3003 11.8583 15.2623 11.8156 15.2626 11.7649V10.4999C15.2594 10.4748 15.2673 10.4494 15.2841 10.4305C15.301 10.4115 15.3252 10.4007 15.3506 10.4009H18.1996C18.2268 10.3972 18.2542 10.4065 18.2736 10.4259C18.293 10.4453 18.3023 10.4727 18.2986 10.4999V11.7649ZM20.6856 17.4519C20.6931 17.4733 20.6931 17.4966 20.6856 17.5179H18.8156C18.8081 17.4966 18.8081 17.4733 18.8156 17.4519V15.7469C18.8156 15.6923 18.8599 15.6479 18.9146 15.6479H20.5646C20.5918 15.6442 20.6192 15.6535 20.6386 15.6729C20.658 15.6923 20.6673 15.7197 20.6636 15.7469L20.6856 17.4519ZM20.6856 15.0429C20.6893 15.0701 20.68 15.0975 20.6606 15.1169C20.6412 15.1364 20.6138 15.1456 20.5866 15.1419H18.8486C18.7939 15.1419 18.7496 15.0976 18.7496 15.0429V12.4909C18.7546 12.4385 18.7961 12.397 18.8486 12.3919H20.5646C20.6193 12.3919 20.6636 12.4363 20.6636 12.4909L20.6856 15.0429ZM20.6856 11.7429C20.6893 11.7701 20.68 11.7975 20.6606 11.8169C20.6412 11.8364 20.6138 11.8456 20.5866 11.8419H18.8486C18.7939 11.8419 18.7496 11.7976 18.7496 11.7429V10.4999C18.7459 10.4727 18.7552 10.4453 18.7746 10.4259C18.794 10.4065 18.8214 10.3972 18.8486 10.4009H20.5646C20.5918 10.3972 20.6192 10.4065 20.6386 10.4259C20.658 10.4453 20.6673 10.4727 20.6636 10.4999L20.6856 11.7429Z"
    fill="#FF6600"
  />
</svg>
