<svg width="25" height="24" viewBox="0 0 25 24" fill="none" xmlns="http://www.w3.org/2000/svg">
  <path
    d="M21.2021 17.6906C21.7199 17.6906 22.1396 18.1103 22.1396 18.6281C22.1396 19.1458 21.7199 19.5656 21.2021 19.5656C20.5256 19.5525 19.8593 19.7312 19.2802 20.0812C18.5911 20.4975 17.7976 20.7089 16.9927 20.6906C16.1877 20.7099 15.3939 20.4985 14.7052 20.0812C14.1199 19.7297 13.4472 19.551 12.7646 19.5656C12.0818 19.5489 11.4084 19.7278 10.824 20.0812C10.1353 20.4985 9.34156 20.7099 8.53652 20.6906C7.73606 20.7069 6.94698 20.4991 6.2584 20.0906C5.67955 19.7312 5.0083 19.5487 4.32715 19.5656C3.80938 19.5656 3.38965 19.1458 3.38965 18.6281C3.38965 18.1103 3.80938 17.6906 4.32715 17.6906C5.3148 17.6751 6.28771 17.9313 7.13965 18.4312C7.55771 18.7009 8.04877 18.8351 8.5459 18.8156C9.04296 18.8345 9.53384 18.7003 9.95215 18.4312C10.804 17.9313 11.777 17.6751 12.7646 17.6906C13.752 17.677 14.7244 17.9331 15.5771 18.4312C15.9954 18.7003 16.4863 18.8345 16.9834 18.8156C17.4801 18.8321 17.9703 18.6981 18.3896 18.4312C19.2415 17.9313 20.2145 17.6751 21.2021 17.6906ZM9.1459 3.30933L9.4084 4.04058C12.2101 3.48543 14.9976 5.0584 15.9708 7.7437L16.1865 8.32495L15.5771 8.43745C14.5891 8.61857 13.6384 8.96398 12.7646 9.4593L12.5771 9.5249H12.3802C12.0656 9.5293 11.752 9.5607 11.4427 9.6187L13.2521 14.6343C16.2146 14.7375 18.6802 15.75 19.524 17.1281C19.1305 17.2563 18.7506 17.4227 18.3896 17.625C17.9714 17.8952 17.4811 18.0325 16.9834 18.0187C16.4853 18.0349 15.9943 17.8974 15.5771 17.625C14.7231 17.131 13.751 16.8783 12.7646 16.8937C11.7777 16.8744 10.8046 17.1274 9.95215 17.625C9.53227 17.8993 9.03774 18.0368 8.53652 18.0187C8.04157 18.0335 7.55399 17.8961 7.13965 17.625C6.78093 17.4297 6.40418 17.2696 6.01465 17.1468C6.76465 15.9281 8.78028 14.9906 11.2927 14.7187L9.68965 10.3218C9.3945 10.4863 9.11519 10.6778 8.85527 10.8937L8.75215 10.9875H8.61152C7.62441 11.1668 6.67397 11.509 5.79903 12L5.26465 12.2812L5.04902 11.6718C4.06599 9.0141 5.17392 6.03709 7.65527 4.6687L7.3834 3.9187L8.66777 3.44995H8.76153L9.1459 3.30933Z"
    fill="#FF6600"
  />
</svg>
