<svg
  width="24"
  height="24"
  viewBox="0 0 24 24"
  fill="none"
  xmlns="http://www.w3.org/2000/svg"
>
  <path
    d="M20.6591 7.00609H20.9801C21.3656 7.0063 21.7163 6.7832 21.8794 6.43396C22.0426 6.08472 21.9886 5.67259 21.7411 5.37709L19.2401 2.39009C19.0454 2.17527 18.769 2.05273 18.4791 2.05273C18.1892 2.05273 17.9128 2.17527 17.7181 2.39009L15.2181 5.37709C14.9712 5.67262 14.9177 6.08432 15.0807 6.43317C15.2438 6.78202 15.594 7.00498 15.9791 7.00509H16.3001L15.2171 8.30009C14.9696 8.59559 14.9156 9.0077 15.0788 9.357C15.2419 9.7062 15.5926 9.9293 15.9781 9.9291H17.4871V12.0451C17.1271 11.9081 16.7501 11.7841 16.3561 11.6771C15.1961 9.8301 12.8291 8.77709 9.7751 8.77709C5.4181 8.77709 2.6031 10.3191 2.6031 12.7061C2.60678 13.2341 2.74331 13.7527 3.0001 14.2141C2.9955 14.2603 2.975 14.3034 2.9421 14.3361C2.4179 14.8912 2.11794 15.6208 2.1001 16.3841C2.1001 19.5461 6.4691 21.9311 12.2621 21.9311C14.6711 21.9311 19.0061 21.6051 20.9621 19.4261C21.6589 18.6748 21.9915 17.6558 21.8721 16.6381C21.6354 15.1538 20.7576 13.8489 19.4721 13.0701V9.9271H20.9801C21.3656 9.9268 21.716 9.7035 21.8791 9.3542C22.0422 9.0049 21.9884 8.5928 21.7411 8.29709L20.6591 7.00609ZM19.4851 18.1001C18.4501 19.2551 15.7501 19.9441 12.2651 19.9441C7.4461 19.9441 4.0871 18.0671 4.0871 16.3821C4.11132 16.0992 4.2358 15.8343 4.4381 15.6351C5.03524 14.9856 5.15563 14.0293 4.7381 13.2521C4.64542 13.0848 4.59496 12.8973 4.5911 12.7061C4.5911 11.6151 6.8701 10.7611 9.7791 10.7611C12.2791 10.7611 14.1131 11.5681 14.8191 12.9751C14.9506 13.2374 15.1916 13.4278 15.4771 13.4951C18.0081 14.0951 19.7461 15.4131 19.9041 16.8531C19.9617 17.3109 19.8075 17.77 19.4851 18.1001Z"
    fill="#FF6600"
  />
  <path
    d="M7.73006 13.8901C8.04519 13.8817 8.35868 13.9382 8.65106 14.0561C9.06487 14.2184 9.50662 14.2976 9.95106 14.2891C10.3955 14.2976 10.8373 14.2184 11.2511 14.0561C11.5424 13.938 11.8549 13.8814 12.1691 13.8901C12.4806 13.8901 12.7331 13.6376 12.7331 13.3261C12.7331 13.0146 12.4806 12.7621 12.1691 12.7621C11.7247 12.7531 11.2829 12.832 10.8691 12.9941C10.5775 13.1121 10.2646 13.1686 9.95006 13.1601C9.6346 13.1684 9.3208 13.1119 9.02806 12.9941C8.61422 12.8319 8.17244 12.7531 7.72806 12.7621C7.41657 12.7621 7.16406 13.0146 7.16406 13.3261C7.16406 13.6376 7.41657 13.8901 7.72806 13.8901H7.73006Z"
    fill="#FF6600"
  />
  <path
    d="M16.4473 16.0751C16.0029 16.0667 15.5611 16.1458 15.1473 16.3081C14.553 16.5281 13.8996 16.5281 13.3053 16.3081C12.8899 16.1451 12.4464 16.0659 12.0003 16.0751C11.5559 16.0666 11.1141 16.1458 10.7003 16.3081C10.4086 16.4257 10.0957 16.4818 9.78139 16.4731C9.46726 16.4823 9.15465 16.4261 8.86338 16.3081C8.44962 16.1455 8.00783 16.0664 7.56338 16.0751C7.35603 16.0664 7.16059 16.172 7.05432 16.3503C6.94804 16.5285 6.94804 16.7507 7.05432 16.9289C7.16059 17.1072 7.35603 17.2128 7.56338 17.2041C7.87756 17.1954 8.19012 17.252 8.48138 17.3701C8.89526 17.5321 9.33702 17.6109 9.78139 17.6021C10.2257 17.6109 10.6674 17.532 11.0813 17.3701C11.3727 17.2507 11.6855 17.1929 12.0003 17.2001C12.3158 17.1918 12.6296 17.2483 12.9223 17.3661C13.3361 17.5284 13.7779 17.6072 14.2223 17.5981C14.6667 17.6068 15.1084 17.528 15.5223 17.3661C15.815 17.2483 16.1288 17.1918 16.4443 17.2001C16.6516 17.2088 16.8471 17.1032 16.9534 16.9249C17.0596 16.7467 17.0596 16.5245 16.9534 16.3463C16.8471 16.168 16.6516 16.0624 16.4443 16.0711L16.4473 16.0751Z"
    fill="#FF6600"
  />
</svg>
