<svg
  width="24"
  height="24"
  viewBox="0 0 24 24"
  fill="none"
  xmlns="http://www.w3.org/2000/svg"
>
  <path
    d="M20.4375 17.6906C20.9553 17.6906 21.375 18.1103 21.375 18.6281C21.375 19.1458 20.9553 19.5656 20.4375 19.5656C19.761 19.5525 19.0947 19.7312 18.5156 20.0812C17.8265 20.4975 17.033 20.7089 16.2281 20.6906C15.4231 20.7099 14.6293 20.4985 13.9406 20.0812C13.3553 19.7297 12.6826 19.551 12 19.5656C11.3172 19.5489 10.6438 19.7278 10.0594 20.0812C9.37066 20.4985 8.57691 20.7099 7.77187 20.6906C6.97141 20.7069 6.18233 20.4991 5.49375 20.0906C4.9149 19.7312 4.24365 19.5487 3.5625 19.5656C3.04473 19.5656 2.625 19.1458 2.625 18.6281C2.625 18.1103 3.04473 17.6906 3.5625 17.6906C4.55015 17.6751 5.52306 17.9313 6.375 18.4312C6.79306 18.7009 7.28412 18.8351 7.78125 18.8156C8.27831 18.8345 8.76919 18.7003 9.1875 18.4312C10.0394 17.9313 11.0124 17.6751 12 17.6906C12.9874 17.677 13.9598 17.9331 14.8125 18.4312C15.2308 18.7003 15.7217 18.8345 16.2188 18.8156C16.7155 18.8321 17.2057 18.6981 17.625 18.4312C18.4769 17.9313 19.4499 17.6751 20.4375 17.6906ZM8.38125 3.30933L8.64375 4.04058C11.4455 3.48543 14.233 5.0584 15.2062 7.7437L15.4219 8.32495L14.8125 8.43745C13.8245 8.61857 12.8738 8.96398 12 9.4593L11.8125 9.5249H11.6156C11.301 9.5293 10.9874 9.5607 10.6781 9.6187L12.4875 14.6343C15.45 14.7375 17.9156 15.75 18.7594 17.1281C18.3659 17.2563 17.986 17.4227 17.625 17.625C17.2068 17.8952 16.7165 18.0325 16.2188 18.0187C15.7207 18.0349 15.2297 17.8974 14.8125 17.625C13.9585 17.131 12.9864 16.8783 12 16.8937C11.0131 16.8744 10.04 17.1274 9.1875 17.625C8.76762 17.8993 8.27309 18.0368 7.77187 18.0187C7.27692 18.0335 6.78934 17.8961 6.375 17.625C6.01628 17.4297 5.63953 17.2696 5.25 17.1468C6 15.9281 8.01563 14.9906 10.5281 14.7187L8.925 10.3218C8.62985 10.4863 8.35054 10.6778 8.09062 10.8937L7.9875 10.9875H7.84687C6.85976 11.1668 5.90932 11.509 5.03438 12L4.5 12.2812L4.28437 11.6718C3.30134 9.0141 4.40927 6.03709 6.89062 4.6687L6.61875 3.9187L7.90312 3.44995H7.99688L8.38125 3.30933Z"
    fill="#FF6600"
  />
</svg>
