<svg width="25" height="24" viewBox="0 0 25 24" fill="none" xmlns="http://www.w3.org/2000/svg">
  <path
    d="M17.8546 4.77566C17.1546 3.74566 16.3546 2.78566 15.4546 1.92566C15.1046 1.58566 14.5146 1.90566 14.6146 2.38566C14.8046 3.32566 15.0046 4.56566 15.0046 5.67566C15.0046 7.73566 13.6546 9.4057 11.5946 9.4057C10.0546 9.4057 8.79465 8.47566 8.24465 7.14566C8.14465 6.94566 8.10465 6.82566 8.04465 6.60566C7.93465 6.18566 7.38465 6.05566 7.14465 6.42566C6.96465 6.69566 6.79465 6.96566 6.63465 7.25566C5.44465 9.2957 4.76465 11.6757 4.76465 14.2157C4.76465 18.6357 8.34465 22.2157 12.7646 22.2157C17.1846 22.2157 20.7646 18.6357 20.7646 14.2157C20.7646 10.7257 19.6846 7.48566 17.8546 4.77566ZM12.4746 19.2157C10.6946 19.2157 9.25465 17.8157 9.25465 16.0757C9.25465 14.4557 10.3046 13.3157 12.0646 12.9557C13.5346 12.6557 15.0446 12.0257 16.0946 11.0357C16.3746 10.7757 16.8346 10.8957 16.9146 11.2657C17.1446 12.2857 17.2646 13.3457 17.2646 14.4157C17.2746 17.0657 15.1246 19.2157 12.4746 19.2157Z"
    fill="#FF6600"
  />
</svg>
