<svg width="25" height="24" viewBox="0 0 25 24" fill="none" xmlns="http://www.w3.org/2000/svg">
  <path
    d="M6.94313 14.7281C6.94313 14.7281 7.06625 15.1335 7.93932 15.1335C9.80859 15.1663 9.38325 16.5686 10.6145 16.8206C10.6877 16.8367 10.7494 16.8846 10.7821 16.9507C10.8148 17.0169 10.8149 17.094 10.7824 17.1602C10.5178 17.6432 10.0289 18.631 9.5207 19.6729L9.21508 20.3009C8.70731 21.3464 8.22119 22.3559 7.96171 22.8788C7.92075 22.9534 7.84119 23 7.75463 23C7.66808 23 7.58852 22.9534 7.54756 22.8788L6.40585 21.115C6.35609 21.0436 6.26961 21.0055 6.18199 21.0164L4.03289 21.2465C3.94563 21.2541 3.86079 21.2158 3.81008 21.1459C3.75938 21.076 3.75045 20.985 3.78664 20.9069L6.94313 14.7281ZM18.5392 14.7281L21.7518 20.9069C21.7779 20.9825 21.7638 21.0659 21.7146 21.1296C21.6653 21.1932 21.587 21.2288 21.5055 21.2246L19.3563 20.9945C19.2688 20.9836 19.1823 21.0217 19.1326 21.0931L17.9349 22.8569C17.8939 22.9315 17.8144 22.9781 17.7278 22.9781C17.6413 22.9781 17.5617 22.9315 17.5208 22.8569C17.493 22.8021 17.4628 22.7421 17.4302 22.6773L17.2094 22.2354C16.4764 20.7629 15.1606 18.0773 14.7001 17.1383C14.6674 17.0721 14.6676 16.995 14.7003 16.9288C14.733 16.8627 14.7947 16.8148 14.868 16.7987C16.0992 16.5686 15.6739 15.1335 17.5431 15.1335C18.4162 15.1335 18.5392 14.7281 18.5392 14.7281ZM13.7934 1.2313C14.0697 1.02064 14.4307 0.948695 14.7692 1.03689C15.1076 1.12508 15.3844 1.36323 15.5171 1.68047C15.8814 2.36462 16.6095 2.78869 17.3976 2.77599C17.7459 2.72786 18.0969 2.84271 18.3456 3.0861C18.5943 3.32948 18.7116 3.67311 18.6625 4.01393C18.6504 4.7879 19.0827 5.50312 19.7817 5.86536C20.1059 5.99523 20.3492 6.26611 20.4393 6.59736C20.5294 6.92861 20.4559 7.28204 20.2407 7.55246C19.8384 8.20619 19.8384 9.024 20.2407 9.6778C20.4559 9.9482 20.5294 10.3016 20.4393 10.6329C20.3492 10.9641 20.1059 11.235 19.7817 11.3649C19.0827 11.7215 18.6495 12.4339 18.6625 13.2054C18.7116 13.5462 18.5943 13.8898 18.3456 14.1332C18.0969 14.3766 17.7459 14.4914 17.3976 14.4433C16.6108 14.4357 15.8854 14.8583 15.5171 15.5388C15.3916 15.8615 15.1179 16.1074 14.7786 16.2023C14.4394 16.2972 14.0742 16.2299 13.7934 16.0208C13.1228 15.6366 12.2924 15.6366 11.6218 16.0208C11.3455 16.2315 10.9844 16.3034 10.646 16.2153C10.3076 16.1271 10.0308 15.8889 9.89813 15.5717C9.52235 14.8929 8.79524 14.4718 8.00648 14.4762C7.65826 14.5243 7.30717 14.4094 7.05849 14.166C6.80982 13.9227 6.69248 13.579 6.74165 13.2382C6.75463 12.4668 6.32135 11.7544 5.62233 11.3977C5.2982 11.2679 5.05488 10.997 4.96477 10.6657C4.87466 10.3345 4.94817 9.9811 5.16341 9.7106C5.56571 9.0569 5.56571 8.23905 5.16341 7.58533C4.94817 7.31491 4.87466 6.96147 4.96477 6.63022C5.05488 6.29897 5.2982 6.0281 5.62233 5.89822C6.32127 5.53598 6.75366 4.82077 6.74165 4.04679C6.70396 3.71128 6.82639 3.3775 7.0735 3.14206C7.32062 2.90662 7.66482 2.79582 8.00648 2.84172C8.79466 2.85442 9.52257 2.43035 9.88694 1.7462C10.0187 1.42526 10.2976 1.18408 10.6393 1.09563C10.981 1.00718 11.3452 1.08184 11.6218 1.29703C12.3021 1.67079 13.1379 1.64549 13.7934 1.2313ZM14.3722 4.53751C12.6596 3.85903 10.6978 4.26017 9.40596 5.55299C8.11411 6.84581 7.74801 8.77428 8.47916 10.435C9.2103 12.0957 10.8939 13.1597 12.7413 13.1287C15.2353 13.0867 17.2311 11.0894 17.2185 8.64798C17.2091 6.83968 16.0848 5.21598 14.3722 4.53751ZM12.7413 5.82151C12.8819 5.8404 13.0037 5.9267 13.0659 6.0516L13.7263 7.34431C13.7502 7.39999 13.8003 7.44083 13.8605 7.45386L15.3493 7.65106C15.4874 7.69841 15.592 7.81031 15.628 7.94911C15.6641 8.08791 15.6265 8.23514 15.5283 8.34124L14.4762 9.3491C14.4483 9.4005 14.4483 9.4621 14.4762 9.5134L14.7225 10.9376C14.746 11.0606 14.7118 11.1874 14.6294 11.283C14.5469 11.3785 14.4249 11.4328 14.2971 11.4306C14.2265 11.4278 14.1576 11.409 14.0956 11.3758L12.7972 10.7076C12.7425 10.6738 12.6728 10.6738 12.6181 10.7076L11.3085 11.3758C11.1647 11.455 10.9871 11.4456 10.8528 11.3517C10.7185 11.2579 10.6518 11.0965 10.6817 10.9376L10.9279 9.5463C10.9401 9.4857 10.9188 9.4233 10.8719 9.382L9.81978 8.3741C9.7025 8.25955 9.65944 8.09098 9.70785 7.93589C9.76021 7.78506 9.89396 7.67527 10.0548 7.65106L11.4764 7.45386C11.5381 7.43816 11.5905 7.39862 11.6218 7.34431L12.3495 6.0516C12.4254 5.90881 12.5767 5.81988 12.7413 5.82151Z"
    fill="#FF6600"
  />
</svg>
