<svg
  width="24"
  height="24"
  viewBox="0 0 24 24"
  fill="none"
  xmlns="http://www.w3.org/2000/svg"
>
  <path
    d="M14.9998 20V20.7C14.9998 21.0483 14.8601 21.382 14.612 21.6264C14.3638 21.8708 14.028 22.0054 13.6798 22H10.2998C9.58181 22 8.99979 21.418 8.99979 20.7V20H14.9998ZM11.9998 1.99999C15.895 1.92171 19.1215 5.00524 19.2198 8.89999C19.2085 10.8744 18.5321 12.7874 17.2998 14.33C16.4956 15.2727 16.0092 16.4449 15.9098 17.68C15.827 18.2371 15.491 18.7245 14.9998 19H8.99979C8.51238 18.7222 8.1803 18.2352 8.09978 17.68C7.99432 16.4385 7.50503 15.2607 6.69979 14.31C5.4703 12.7735 4.79397 10.8678 4.77979 8.89999C4.87805 5.00524 8.10454 1.92171 11.9998 1.99999ZM11.9998 3.99999C9.20676 3.91579 6.87221 6.10727 6.77979 8.89999C6.79601 10.4677 7.35027 11.9822 8.34978 13.19C9.23105 14.296 9.81919 15.6064 10.0598 17H13.9398C14.1823 15.6119 14.7665 14.306 15.6398 13.2C16.6451 11.9909 17.203 10.4723 17.2198 8.89999C17.1274 6.10727 14.7928 3.91579 11.9998 3.99999ZM12.2698 9.17C12.3525 9.2045 12.4274 9.2556 12.4898 9.32C12.5534 9.381 12.6014 9.4565 12.6298 9.54C12.6507 9.6288 12.6507 9.7212 12.6298 9.81V13.44C12.6505 13.5322 12.6505 13.6278 12.6298 13.72C12.5965 13.801 12.5491 13.8755 12.4898 13.94C12.4243 13.998 12.35 14.0452 12.2698 14.08C12.187 14.1128 12.0988 14.1298 12.0098 14.13C11.9208 14.1289 11.8328 14.1119 11.7498 14.08C11.6664 14.0454 11.5888 13.9982 11.5198 13.94C11.4608 13.8732 11.4104 13.7993 11.3698 13.72C11.3491 13.6278 11.3491 13.5322 11.3698 13.44V9.81C11.3489 9.7212 11.3489 9.6288 11.3698 9.54C11.4055 9.4579 11.4564 9.3832 11.5198 9.32C11.5858 9.2553 11.664 9.2043 11.7498 9.17C11.8358 9.1549 11.9238 9.1549 12.0098 9.17C12.0957 9.154 12.1839 9.154 12.2698 9.17ZM11.9998 6.86999C12.0932 6.86869 12.1857 6.88924 12.2698 6.92999C12.3519 6.96107 12.4268 7.00872 12.4898 7.06999C12.5461 7.12181 12.5934 7.18264 12.6298 7.24999C12.6495 7.33554 12.6495 7.42444 12.6298 7.50999C12.6507 7.59878 12.6507 7.6912 12.6298 7.77999C12.595 7.86024 12.5478 7.93449 12.4898 7.99999C12.4309 8.07573 12.3557 8.13724 12.2698 8.17999C12.1857 8.22075 12.0932 8.24129 11.9998 8.23999C11.9096 8.24047 11.8206 8.21993 11.7398 8.17999C11.6563 8.15164 11.5808 8.10362 11.5198 8.03999C11.4587 7.97489 11.4081 7.90067 11.3698 7.81999C11.3489 7.7312 11.3489 7.63878 11.3698 7.54999C11.3501 7.46444 11.3501 7.37554 11.3698 7.28999C11.4055 7.20786 11.4564 7.13321 11.5198 7.06999C11.5808 7.00637 11.6563 6.95835 11.7398 6.92999C11.8206 6.89006 11.9096 6.86951 11.9998 6.86999Z"
    fill="#FF6600"
  />
</svg>
