<svg width="25" height="24" viewBox="0 0 25 24" fill="none" xmlns="http://www.w3.org/2000/svg">
  <path
    d="M5.61475 2.54997C5.76555 2.34261 6.04877 2.28293 6.27043 2.4118C6.49209 2.54067 6.58034 2.81633 6.47475 3.04997L5.99475 3.88997L12.7648 7.76997L12.8948 7.53997C13.2339 6.91689 13.9139 6.55828 14.6196 6.63038C15.3253 6.70248 15.9187 7.19119 16.1248 7.86997C16.1843 8.11981 16.1843 8.38013 16.1248 8.62997L17.1248 10.17L19.3948 8.88997C19.6699 8.73456 20.007 8.73772 20.2791 8.89825C20.5513 9.0588 20.7171 9.3523 20.7141 9.6682C20.7112 9.9842 20.5399 10.2746 20.2648 10.43L17.9648 11.73C17.7075 11.8822 17.4137 11.9617 17.1148 11.96C16.5198 11.9638 15.9646 11.6617 15.6448 11.16L15.2348 10.51L14.4848 11.89C14.4565 11.9416 14.4502 12.0024 14.4671 12.0588C14.484 12.1152 14.5228 12.1624 14.5748 12.19L15.9248 12.92C16.4541 13.2075 16.8474 13.6937 17.0181 14.2714C17.1887 14.8491 17.1228 15.4709 16.8348 16L15.1448 19.15L17.0848 19.85C17.7119 20.0817 18.4055 20.0536 19.0119 19.772C19.6183 19.4904 20.0872 18.9786 20.3148 18.35C20.5027 17.831 21.0757 17.5624 21.5948 17.75C22.0981 17.9378 22.363 18.4898 22.1948 19C21.7918 20.1386 20.9488 21.068 19.8548 21.58C18.7727 22.0957 17.5276 22.1499 16.4048 21.73L3.93475 17.19C3.5716 17.089 3.29609 16.7924 3.22211 16.4228C3.14814 16.0532 3.28828 15.6734 3.58459 15.4404C3.8809 15.2074 4.28304 15.1609 4.62475 15.32L11.7648 17.93L12.9248 15.79C13.0231 15.596 12.9529 15.3591 12.7648 15.25L11.7648 14.72C11.1852 14.3995 10.7543 13.8646 10.5648 13.23C10.3837 12.5946 10.4554 11.9138 10.7648 11.33L12.0148 9.15L12.2848 8.64997L5.53475 4.74997L5.05475 5.58997C4.91188 5.82752 4.60545 5.90746 4.36475 5.76997C4.12849 5.63097 4.04821 5.32766 4.18475 5.08997L4.67475 4.24997L3.69498 3.68976C3.60711 3.62899 3.54086 3.54065 3.50752 3.43761C3.46585 3.3088 3.47932 3.16849 3.54475 3.04997C3.68385 2.81462 3.98379 2.73081 4.22475 2.85997L5.13475 3.38997L5.61475 2.54997ZM16.7595 1.94353C17.5731 1.90014 18.3317 2.35467 18.6772 3.09256C19.0228 3.83045 18.8861 4.70418 18.3318 5.30134C17.7775 5.8985 16.9163 6.0997 16.1548 5.80997C15.1458 5.4261 14.6236 4.31077 14.9748 3.28997C15.2399 2.51952 15.9459 1.98691 16.7595 1.94353Z"
    fill="#FF6600"
  />
</svg>
