<svg width="25" height="24" viewBox="0 0 25 24" fill="none" xmlns="http://www.w3.org/2000/svg">
  <path
    d="M15.5645 19.6546V20.3419C15.5645 20.6838 15.4274 21.0115 15.1838 21.2514C14.9401 21.4914 14.6104 21.6235 14.2685 21.6183H10.95C10.245 21.6183 9.67356 21.0468 9.67356 20.3419V19.6546H15.5645ZM12.6191 1.9819C16.4434 1.90504 19.6113 4.9325 19.7078 8.75644C19.6967 10.6949 19.0326 12.5731 17.8227 14.0877C17.0331 15.0132 16.5556 16.1642 16.458 17.3768C16.3767 17.9238 16.0468 18.4023 15.5645 18.6728H9.67356C9.19501 18.4001 8.86897 17.9219 8.78991 17.3768C8.68637 16.1579 8.20597 15.0015 7.41537 14.0681C6.20823 12.5595 5.54421 10.6885 5.53027 8.75644C5.62675 4.9325 8.79461 1.90504 12.6191 1.9819ZM12.9332 9.0215C12.8489 9.0058 12.7623 9.0058 12.678 9.0215C12.5935 9.0067 12.5071 9.0067 12.4227 9.0215C12.3384 9.0552 12.2617 9.1053 12.1969 9.1688C12.1346 9.2309 12.0846 9.3042 12.0496 9.3848C12.0291 9.472 12.0291 9.5627 12.0496 9.6499V13.2139C12.0293 13.3044 12.0293 13.3983 12.0496 13.4888C12.0895 13.5667 12.139 13.6392 12.1969 13.7048C12.2646 13.7619 12.3408 13.8083 12.4227 13.8423C12.5042 13.8736 12.5906 13.8903 12.678 13.8914C12.7654 13.8911 12.852 13.8745 12.9332 13.8423C13.012 13.8081 13.0849 13.7617 13.1492 13.7048C13.2075 13.6415 13.254 13.5684 13.2867 13.4888C13.307 13.3983 13.307 13.3044 13.2867 13.2139V9.6499C13.3072 9.5627 13.3072 9.472 13.2867 9.3848C13.2588 9.3028 13.2117 9.2288 13.1492 9.1688C13.088 9.1056 13.0145 9.0554 12.9332 9.0215ZM12.6191 6.76335C12.5336 6.75044 12.4463 6.75715 12.3638 6.78299C12.2818 6.81083 12.2077 6.85797 12.1478 6.92045C12.0855 6.98251 12.0355 7.0558 12.0005 7.13645C11.9812 7.22044 11.9812 7.30772 12.0005 7.39172C11.98 7.47889 11.98 7.56963 12.0005 7.65681C12.0381 7.73602 12.0878 7.80889 12.1478 7.87281C12.2164 7.95704 12.3087 8.01863 12.4129 8.04954C12.4922 8.08875 12.5796 8.10892 12.6681 8.10845C12.7599 8.10972 12.8507 8.08955 12.9332 8.04954C13.0139 8.01903 13.0874 7.97224 13.1492 7.91208C13.2061 7.84777 13.2525 7.77487 13.2867 7.69608H13.2376C13.2581 7.60891 13.2581 7.51817 13.2376 7.43099C13.2569 7.347 13.2569 7.25971 13.2376 7.17572C13.2059 7.09564 13.1593 7.02233 13.1001 6.95972C13.0383 6.89956 12.9648 6.85277 12.8841 6.82226C12.8016 6.78225 12.7108 6.76208 12.6191 6.76335Z"
    fill="#FF6600"
  />
</svg>
