<svg
  width="24"
  height="24"
  viewBox="0 0 24 24"
  fill="none"
  xmlns="http://www.w3.org/2000/svg"
>
  <path
    d="M17.0001 2C17.4908 2.04856 17.8729 2.44762 17.9001 2.94V4.06H18.8401C19.4895 4.07635 20.0058 4.61044 20.0001 5.26V20.81C20.0001 21.4557 19.4856 21.9837 18.8401 22H5.16009C4.51462 21.9837 4.00005 21.4557 4.00005 20.81V5.26C3.99443 4.61044 4.51071 4.07635 5.16009 4.06H5.93009V2.94C5.93009 2.6907 6.02913 2.4516 6.20541 2.27532C6.3817 2.09904 6.62079 2 6.87009 2H17.0001ZM13.8601 18H12.9101V20H13.8601V18ZM10.9401 18H10.0001V20H10.9101L10.9401 18ZM18.0001 6.06H6.00009V20H8.00008V17C8.00008 16.4477 8.4478 16 9.00008 16H14.8601C15.4124 16 15.8601 16.4477 15.8601 17V20H18.0001V6.06ZM16.8601 13V15H14.8601V13H16.8601ZM8.97009 13V15H6.97009V13H8.97009ZM12.9101 13V15H10.9101V13H12.9101ZM8.97009 10V12H6.97009V10H8.97009ZM12.9101 10V12H10.9101V10H12.9101ZM16.8601 10V12H14.8601V10H16.8601ZM8.97009 7V9H6.97009V7H8.97009ZM12.9101 7V9H10.9101V7H12.9101ZM16.8601 7V9H14.8601V7H16.8601Z"
    fill="#FF6600"
  />
</svg>
