<svg width="25" height="24" viewBox="0 0 25 24" fill="none" xmlns="http://www.w3.org/2000/svg">
  <path
    d="M15.7644 20V20.7C15.7644 21.0483 15.6247 21.382 15.3766 21.6264C15.1284 21.8708 14.7926 22.0054 14.4444 22H11.0644C10.3465 22 9.76443 21.418 9.76443 20.7V20H15.7644ZM12.7644 1.99999C16.6596 1.92171 19.8861 5.00524 19.9844 8.89999C19.9731 10.8744 19.2967 12.7874 18.0644 14.33C17.2602 15.2727 16.7738 16.4449 16.6744 17.68C16.5916 18.2371 16.2556 18.7245 15.7644 19H9.76443C9.27702 18.7222 8.94494 18.2352 8.86442 17.68C8.75896 16.4385 8.26967 15.2607 7.46443 14.31C6.23494 12.7735 5.55861 10.8678 5.54443 8.89999C5.64269 5.00524 8.86918 1.92171 12.7644 1.99999ZM12.7644 3.99999C9.9714 3.91579 7.63685 6.10727 7.54443 8.89999C7.56065 10.4677 8.11491 11.9822 9.11442 13.19C9.99569 14.296 10.5838 15.6064 10.8244 17H14.7044C14.9469 15.6119 15.5311 14.306 16.4044 13.2C17.4097 11.9909 17.9676 10.4723 17.9844 8.89999C17.892 6.10727 15.5574 3.91579 12.7644 3.99999ZM13.0344 9.17C13.1171 9.2045 13.192 9.2556 13.2544 9.32C13.318 9.381 13.366 9.4565 13.3944 9.54C13.4153 9.6288 13.4153 9.7212 13.3944 9.81V13.44C13.4151 13.5322 13.4151 13.6278 13.3944 13.72C13.3611 13.801 13.3137 13.8755 13.2544 13.94C13.1889 13.998 13.1146 14.0452 13.0344 14.08C12.9516 14.1128 12.8634 14.1298 12.7744 14.13C12.6854 14.1289 12.5974 14.1119 12.5144 14.08C12.431 14.0454 12.3534 13.9982 12.2844 13.94C12.2254 13.8732 12.175 13.7993 12.1344 13.72C12.1137 13.6278 12.1137 13.5322 12.1344 13.44V9.81C12.1135 9.7212 12.1135 9.6288 12.1344 9.54C12.1701 9.4579 12.221 9.3832 12.2844 9.32C12.3504 9.2553 12.4286 9.2043 12.5144 9.17C12.6004 9.1549 12.6884 9.1549 12.7744 9.17C12.8603 9.154 12.9485 9.154 13.0344 9.17ZM12.7644 6.86999C12.8578 6.86869 12.9503 6.88924 13.0344 6.92999C13.1165 6.96107 13.1914 7.00872 13.2544 7.06999C13.3107 7.12181 13.358 7.18264 13.3944 7.24999C13.4141 7.33554 13.4141 7.42444 13.3944 7.50999C13.4153 7.59878 13.4153 7.6912 13.3944 7.77999C13.3596 7.86024 13.3124 7.93449 13.2544 7.99999C13.1955 8.07573 13.1203 8.13724 13.0344 8.17999C12.9503 8.22075 12.8578 8.24129 12.7644 8.23999C12.6742 8.24047 12.5852 8.21993 12.5044 8.17999C12.4209 8.15164 12.3454 8.10362 12.2844 8.03999C12.2233 7.97489 12.1727 7.90067 12.1344 7.81999C12.1135 7.7312 12.1135 7.63878 12.1344 7.54999C12.1147 7.46444 12.1147 7.37554 12.1344 7.28999C12.1701 7.20786 12.221 7.13321 12.2844 7.06999C12.3454 7.00637 12.4209 6.95835 12.5044 6.92999C12.5852 6.89006 12.6742 6.86951 12.7644 6.86999Z"
    fill="#FF6600"
  />
</svg>
