<svg
  width="24"
  height="24"
  viewBox="0 0 24 24"
  fill="none"
  xmlns="http://www.w3.org/2000/svg"
>
  <path
    d="M4.00009 12.1C3.53749 13.8339 4.37869 15.6509 6.00009 16.42L5.47009 19.51L4.47009 19.34H4.30009C3.7478 19.2931 3.26203 19.7027 3.21509 20.255C3.16815 20.8073 3.5778 21.2931 4.13009 21.34L8.06009 22H8.23009C8.78237 22.0469 9.26815 21.6373 9.31509 21.085C9.36203 20.5327 8.95237 20.0469 8.40009 20L7.40009 19.83L8.00009 16.75C9.78594 16.5697 11.183 15.1304 11.3101 13.34L12.0001 3.41L6.60009 2.49L4.00009 12.1ZM7.59009 14.79H7.29009C6.80501 14.7062 6.37907 14.4186 6.12009 14C5.85866 13.5939 5.7823 13.0958 5.91009 12.63L6.41009 10.8C6.57009 10.71 7.03009 10.48 7.25009 10.7C7.66053 11.1324 8.23405 11.3719 8.83009 11.36C9.022 11.3564 9.21302 11.3329 9.40009 11.29L9.27009 13.2C9.20724 14.0934 8.4657 14.787 7.57009 14.79H7.59009ZM17.2801 2L20.0001 11.58C20.4823 13.3209 19.6368 15.1555 18.0001 15.92L18.5401 19L19.5401 18.82H19.7101L19.8301 18.83C20.3824 18.7831 20.8681 19.1927 20.9151 19.745C20.962 20.2973 20.5524 20.7831 20.0001 20.83L19.0001 21.01L18.0001 21.18L16.0001 21.53H15.7101C15.1578 21.5769 14.672 21.1673 14.6251 20.615C14.5781 20.0627 14.9878 19.5769 15.5401 19.53L16.5401 19.35L16.0001 16.27C14.248 16.0821 12.8715 14.6847 12.7101 12.93L11.9201 3L17.2801 2ZM15.1001 10.67C14.9287 10.5633 14.7115 10.5633 14.5401 10.67L14.7001 12.72C14.787 13.5954 15.5204 14.2641 16.4001 14.27H16.7001C17.1767 14.1864 17.5956 13.9048 17.8529 13.495C18.1102 13.0852 18.1819 12.5856 18.0501 12.12L17.7801 11.12C17.4275 11.2501 17.0558 11.3211 16.6801 11.33C16.0848 11.3383 15.5127 11.0993 15.1001 10.67ZM8.05009 4.77L9.83009 5.07L9.55009 9.14C9.22009 9.3 8.80009 9.43 8.67009 9.3C8.23326 8.8494 7.62744 8.60272 7.00009 8.62L8.05009 4.77ZM15.8401 4.28L14.0601 4.6L14.3801 8.66C15.159 8.4916 15.97 8.73301 16.5301 9.3C16.6301 9.41 16.9401 9.33 17.2301 9.21L15.8401 4.28Z"
    fill="#FF6600"
  />
</svg>
