<svg width="25" height="24" viewBox="0 0 25 24" fill="none" xmlns="http://www.w3.org/2000/svg">
  <path
    d="M20.8146 12.57L17.5547 13.44C17.4634 13.4732 17.376 13.5168 17.2947 13.57L15.6146 12.57C15.6195 12.4901 15.6195 12.41 15.6146 12.33C15.6137 12.0328 15.5595 11.7382 15.4546 11.46L17.2046 10.46C17.3027 10.5291 17.4106 10.583 17.5246 10.62L20.7846 11.49C21.2397 11.5612 21.675 11.2772 21.7934 10.8321C21.9117 10.387 21.6749 9.9243 21.2446 9.76L19.3047 9.24L21.1146 8.24004C21.3915 8.08106 21.5626 7.78644 21.5633 7.46716C21.5641 7.14788 21.3944 6.85245 21.1183 6.69216C20.8422 6.53186 20.5015 6.53106 20.2246 6.69004L18.4846 7.69004L18.9746 5.86004C19.0966 5.38335 18.8175 4.89609 18.3446 4.76004C17.868 4.63812 17.3807 4.91719 17.2446 5.39004L16.3746 8.65004C16.3647 8.73977 16.3647 8.83031 16.3746 8.92004L14.4646 10L14.4046 10.05C14.1824 9.9073 13.9396 9.7994 13.6846 9.73C13.6893 9.6801 13.6893 9.6299 13.6846 9.58V7.36004C13.7838 7.32522 13.873 7.26689 13.9446 7.19004L16.3246 4.81004C16.5497 4.58496 16.6376 4.2569 16.5552 3.94944C16.4729 3.64198 16.2327 3.40183 15.9252 3.31944C15.6178 3.23706 15.2897 3.32496 15.0646 3.55004L13.7646 4.93004V2.93004C13.7646 2.43851 13.3662 2.04004 12.8746 2.04004C12.3831 2.04004 11.9846 2.43851 11.9846 2.93004V4.93004L10.5447 3.55004C10.3196 3.32496 9.99156 3.23706 9.6841 3.31944C9.37664 3.40183 9.13649 3.64198 9.0541 3.94944C8.97172 4.2569 9.05962 4.58496 9.2847 4.81004L11.6646 7.19004C11.7442 7.26434 11.8354 7.32514 11.9346 7.37004V9.58C11.9242 9.6429 11.9242 9.7071 11.9346 9.77C11.6923 9.8577 11.4634 9.9789 11.2546 10.13C11.2196 10.0883 11.1792 10.0514 11.1346 10.02L9.1347 8.83004C9.14459 8.73363 9.14459 8.63645 9.1347 8.54004L8.2547 5.29004C8.19388 5.05968 8.04324 4.86332 7.8365 4.74491C7.62975 4.6265 7.38416 4.59593 7.1547 4.66004C6.68323 4.7916 6.40335 5.27584 6.5247 5.75004L7.0147 7.58004L5.4147 6.58004C5.19778 6.47049 4.94578 6.45331 4.71601 6.53241C4.48623 6.61152 4.29821 6.78018 4.1947 7.00004C4.07485 7.20414 4.04123 7.44757 4.10128 7.67651C4.16133 7.90545 4.3101 8.10104 4.5147 8.22004L6.2047 9.22L4.2547 9.74C3.88012 9.9407 3.69963 10.3781 3.82374 10.7845C3.94785 11.1909 4.34194 11.4529 4.7647 11.41L8.0247 10.54C8.13367 10.5105 8.23565 10.4595 8.3247 10.39L10.3247 11.56C10.2411 11.8117 10.1972 12.0749 10.1947 12.34C10.1947 12.4 10.1947 12.46 10.1947 12.53L8.3447 13.58C8.26082 13.5187 8.16567 13.4745 8.0647 13.45L4.7647 12.57C4.30963 12.4989 3.87432 12.7829 3.75596 13.228C3.63761 13.6731 3.87441 14.1357 4.3047 14.3L6.1947 14.8L4.4647 15.8C4.03668 16.0458 3.88893 16.592 4.1347 17.02C4.38046 17.4481 4.92668 17.5958 5.3547 17.35L7.0847 16.35L6.5847 18.23C6.50074 18.5373 6.58707 18.866 6.81118 19.0923C7.03529 19.3187 7.36312 19.4082 7.67118 19.3273C7.97924 19.2464 8.22074 19.0073 8.3047 18.7L9.1747 15.44C9.19466 15.3377 9.19466 15.2324 9.1747 15.13L10.8146 14.13C11.1043 14.4525 11.4681 14.6996 11.8746 14.85V16.74C11.7733 16.781 11.6814 16.8422 11.6046 16.92L9.2847 19.35C9.05962 19.5751 8.97172 19.9032 9.0541 20.2106C9.13649 20.5181 9.37664 20.7582 9.6841 20.8406C9.99156 20.923 10.3196 20.8351 10.5447 20.61L11.9346 19.23V21.11C11.9346 21.6016 12.3331 22 12.8246 22C13.3162 22 13.7146 21.6016 13.7146 21.11V19.23L15.0946 20.61C15.3197 20.8351 15.6479 20.923 15.9552 20.8406C16.2627 20.7582 16.5029 20.5181 16.5852 20.2106C16.6676 19.9032 16.5797 19.5751 16.3546 19.35L13.9746 17C13.9006 16.9235 13.8123 16.8624 13.7146 16.82V15C14.1622 14.8642 14.5659 14.6124 14.8846 14.27L16.3846 15.15C16.3652 15.2625 16.3652 15.3775 16.3846 15.49L17.2546 18.74C17.3155 18.9704 17.4661 19.1668 17.6728 19.2852C17.8796 19.4036 18.1252 19.4341 18.3546 19.37C18.5828 19.3091 18.7773 19.16 18.8955 18.9556C19.0136 18.7511 19.0457 18.5081 18.9846 18.28L18.4746 16.39L20.2146 17.39C20.6405 17.6338 21.1832 17.4915 21.4346 17.07C21.5545 16.8659 21.5881 16.6225 21.5281 16.3936C21.468 16.1646 21.3192 15.969 21.1146 15.85L19.3646 14.85L21.2546 14.34C21.7296 14.213 22.0117 13.725 21.8846 13.25C21.7576 12.7751 21.2696 12.493 20.7946 12.62L20.8146 12.57ZM12.9046 13.08C12.496 13.08 12.1646 12.7487 12.1646 12.34C12.1646 11.9313 12.496 11.6 12.9046 11.6C13.3133 11.6 13.6446 11.9313 13.6446 12.34C13.6446 12.7487 13.3133 13.08 12.9046 13.08Z"
    fill="#FF6600"
  />
</svg>
