<svg width="25" height="24" viewBox="0 0 25 24" fill="none" xmlns="http://www.w3.org/2000/svg">
  <path
    d="M19.7646 14C21.2546 12.54 22.7646 10.79 22.7646 8.5C22.7646 7.04131 22.1851 5.64236 21.1537 4.61091C20.1222 3.57946 18.7233 3 17.2646 3C15.5046 3 14.2646 3.5 12.7646 5C11.2646 3.5 10.0246 3 8.26465 3C6.80596 3 5.40701 3.57946 4.37556 4.61091C3.34411 5.64236 2.76465 7.04131 2.76465 8.5C2.76465 10.8 4.26465 12.55 5.76465 14L12.7646 21L19.7646 14Z"
    fill="#FF6600"
  />
  <path
    fill-rule="evenodd"
    clip-rule="evenodd"
    d="M3.66846 3.90381C4.88744 2.68482 6.54074 2 8.26465 2C9.24483 2 10.1378 2.14018 11.0114 2.52068C11.6243 2.78762 12.1967 3.15937 12.7646 3.63935C13.3325 3.15937 13.9049 2.78762 14.5178 2.52068C15.3914 2.14018 16.2844 2 17.2646 2C18.9885 2 20.6418 2.68482 21.8608 3.90381C23.0798 5.12279 23.7646 6.77609 23.7646 8.5C23.7646 11.2418 21.9552 13.2531 20.4681 14.7107L13.4717 21.7071C13.0812 22.0976 12.448 22.0976 12.0575 21.7071L5.0635 14.7131C3.55907 13.258 1.76465 11.2494 1.76465 8.5C1.76465 6.77609 2.44947 5.12279 3.66846 3.90381ZM8.26465 4C7.07118 4 5.92658 4.47411 5.08267 5.31802C4.23876 6.16193 3.76465 7.30653 3.76465 8.5C3.76465 10.3469 4.96535 11.8365 6.45967 13.281L6.47176 13.2929L12.7646 19.5858L19.0647 13.2857C20.5569 11.8235 21.7646 10.3359 21.7646 8.5C21.7646 7.30653 21.2905 6.16193 20.4466 5.31802C19.6027 4.47411 18.4581 4 17.2646 4C16.4848 4 15.8778 4.10982 15.3164 4.35432C14.7486 4.60163 14.1647 5.0141 13.4717 5.70711C13.0812 6.09763 12.448 6.09763 12.0575 5.70711C11.3645 5.0141 10.7806 4.60163 10.2128 4.35432C9.65147 4.10982 9.04447 4 8.26465 4Z"
    fill="#FF6600"
  />
</svg>
