<svg
  width="24"
  height="24"
  viewBox="0 0 24 24"
  fill="none"
  xmlns="http://www.w3.org/2000/svg"
>
  <path
    d="M6.71 2.28992C6.88307 2.1144 7.14936 2.07002 7.37 2.17992L16.64 6.81992C16.7173 6.85976 16.8031 6.88034 16.89 6.87992C17.0408 6.87942 17.185 6.81813 17.29 6.70992L21 2.99992C21.1098 2.87703 21.2653 2.80471 21.43 2.79992C21.5863 2.79168 21.7391 2.84808 21.8526 2.95588C21.9661 3.06368 22.0302 3.2134 22.03 3.36992V16.7299C22.03 16.8837 21.9688 17.0312 21.86 17.1399L17.32 21.6799C17.215 21.7881 17.0708 21.8494 16.92 21.8499C16.83 21.849 16.7413 21.8286 16.66 21.7899L7.4 17.1499C7.17936 17.04 6.91307 17.0844 6.74 17.2599L3 20.9999C2.89425 21.1281 2.73619 21.2016 2.57 21.1999C2.2552 21.1999 2 20.9447 2 20.6299V7.22992C2.0005 7.07914 2.06179 6.93493 2.17 6.82992L6.71 2.28992ZM8.26 4.85992V15.3899L16 19.2799V8.69992C15.9114 8.67592 15.8245 8.64585 15.74 8.60992L8.26 4.85992ZM20 6.82992L18.71 8.11992C18.5043 8.32413 18.2639 8.49005 18 8.60992V18.1899L20 16.1899V6.82992ZM6.26 5.56992L4 7.82992V17.1699L5.26 15.8699C5.54124 15.596 5.88421 15.3936 6.26 15.2799V5.56992ZM13.06 10.4384C13.1926 10.4384 13.3193 10.4932 13.41 10.5899C13.5067 10.6807 13.5615 10.8073 13.5615 10.9399C13.5615 11.0725 13.5067 11.1992 13.41 11.2899L12.71 11.9999L13.41 12.7099C13.6033 12.9032 13.6033 13.2166 13.41 13.4099C13.2167 13.6032 12.9033 13.6032 12.71 13.4099L12 12.7099L11.29 13.4099C11.0967 13.6032 10.7833 13.6032 10.59 13.4099C10.3967 13.2166 10.3967 12.9032 10.59 12.7099L11.29 11.9999L10.59 11.2899C10.3967 11.0966 10.3967 10.7832 10.59 10.5899C10.7833 10.3966 11.0967 10.3966 11.29 10.5899L12 11.2899L12.71 10.5899C12.8007 10.4932 12.9274 10.4384 13.06 10.4384Z"
    fill="#FF6600"
  />
</svg>
