<svg width="25" height="24" viewBox="0 0 25 24" fill="none" xmlns="http://www.w3.org/2000/svg">
  <path
    d="M21.4237 7.00609H21.7447C22.1302 7.0063 22.4809 6.7832 22.644 6.43396C22.8072 6.08472 22.7532 5.67259 22.5057 5.37709L20.0047 2.39009C19.81 2.17527 19.5336 2.05273 19.2437 2.05273C18.9538 2.05273 18.6774 2.17527 18.4827 2.39009L15.9827 5.37709C15.7358 5.67262 15.6823 6.08432 15.8453 6.43317C16.0084 6.78202 16.3586 7.00498 16.7437 7.00509H17.0647L15.9817 8.30009C15.7342 8.59559 15.6802 9.0077 15.8434 9.357C16.0065 9.7062 16.3572 9.9293 16.7427 9.9291H18.2517V12.0451C17.8917 11.9081 17.5147 11.7841 17.1207 11.6771C15.9607 9.8301 13.5937 8.77709 10.5397 8.77709C6.18275 8.77709 3.36775 10.3191 3.36775 12.7061C3.37143 13.2341 3.50796 13.7527 3.76475 14.2141C3.76015 14.2603 3.73965 14.3034 3.70675 14.3361C3.18255 14.8912 2.88259 15.6208 2.86475 16.3841C2.86475 19.5461 7.23375 21.9311 13.0267 21.9311C15.4357 21.9311 19.7707 21.6051 21.7267 19.4261C22.4235 18.6748 22.7561 17.6558 22.6367 16.6381C22.4 15.1538 21.5222 13.8489 20.2367 13.0701V9.9271H21.7447C22.1302 9.9268 22.4806 9.7035 22.6437 9.3542C22.8068 9.0049 22.753 8.5928 22.5057 8.29709L21.4237 7.00609ZM20.2497 18.1001C19.2147 19.2551 16.5147 19.9441 13.0297 19.9441C8.21075 19.9441 4.85175 18.0671 4.85175 16.3821C4.87597 16.0992 5.00045 15.8343 5.20275 15.6351C5.79989 14.9856 5.92028 14.0293 5.50275 13.2521C5.41007 13.0848 5.35961 12.8973 5.35575 12.7061C5.35575 11.6151 7.63475 10.7611 10.5437 10.7611C13.0437 10.7611 14.8777 11.5681 15.5837 12.9751C15.7152 13.2374 15.9562 13.4278 16.2417 13.4951C18.7727 14.0951 20.5107 15.4131 20.6687 16.8531C20.7263 17.3109 20.5721 17.77 20.2497 18.1001Z"
    fill="#FF6600"
  />
  <path
    d="M8.49471 13.89C8.80984 13.8816 9.12333 13.9381 9.41571 14.056C9.82952 14.2183 10.2713 14.2975 10.7157 14.289C11.1602 14.2975 11.602 14.2183 12.0158 14.056C12.3071 13.9379 12.6196 13.8813 12.9338 13.89C13.2453 13.89 13.4978 13.6375 13.4978 13.326C13.4978 13.0145 13.2453 12.762 12.9338 12.762C12.4894 12.753 12.0476 12.8319 11.6338 12.994C11.3422 13.112 11.0293 13.1685 10.7147 13.16C10.3993 13.1683 10.0855 13.1118 9.79271 12.994C9.37887 12.8318 8.93709 12.753 8.49271 12.762C8.18122 12.762 7.92871 13.0145 7.92871 13.326C7.92871 13.6375 8.18122 13.89 8.49271 13.89H8.49471Z"
    fill="#FF6600"
  />
  <path
    d="M17.2119 16.0751C16.7675 16.0667 16.3257 16.1458 15.9119 16.3081C15.3176 16.5281 14.6642 16.5281 14.0699 16.3081C13.6545 16.1451 13.211 16.0659 12.7649 16.0751C12.3205 16.0666 11.8787 16.1458 11.4649 16.3081C11.1732 16.4257 10.8603 16.4818 10.546 16.4731C10.2319 16.4823 9.9193 16.4261 9.62803 16.3081C9.21427 16.1455 8.77248 16.0664 8.32803 16.0751C8.12068 16.0664 7.92524 16.172 7.81897 16.3503C7.71269 16.5285 7.71269 16.7507 7.81897 16.9289C7.92524 17.1072 8.12068 17.2128 8.32803 17.2041C8.64221 17.1954 8.95477 17.252 9.24603 17.3701C9.65991 17.5321 10.1017 17.6109 10.546 17.6021C10.9903 17.6109 11.432 17.532 11.8459 17.3701C12.1373 17.2507 12.4501 17.1929 12.7649 17.2001C13.0804 17.1918 13.3942 17.2483 13.6869 17.3661C14.1007 17.5284 14.5425 17.6072 14.9869 17.5981C15.4313 17.6068 15.873 17.528 16.2869 17.3661C16.5796 17.2483 16.8934 17.1918 17.2089 17.2001C17.4162 17.2088 17.6117 17.1032 17.718 16.9249C17.8242 16.7467 17.8242 16.5245 17.718 16.3463C17.6117 16.168 17.4162 16.0624 17.2089 16.0711L17.2119 16.0751Z"
    fill="#FF6600"
  />
</svg>
