<svg
  width="24"
  height="24"
  viewBox="0 0 24 24"
  fill="none"
  xmlns="http://www.w3.org/2000/svg"
>
  <path
    d="M6.17848 14.7281C6.17848 14.7281 6.3016 15.1335 7.17467 15.1335C9.04394 15.1663 8.6186 16.5686 9.84985 16.8206C9.92308 16.8367 9.9848 16.8846 10.0175 16.9507C10.0502 17.0169 10.0503 17.094 10.0177 17.1602C9.75318 17.6432 9.26429 18.631 8.75605 19.6729L8.45043 20.3009C7.94266 21.3464 7.45654 22.3559 7.19706 22.8788C7.1561 22.9534 7.07654 23 6.98998 23C6.90343 23 6.82387 22.9534 6.78291 22.8788L5.6412 21.115C5.59144 21.0436 5.50496 21.0055 5.41734 21.0164L3.26824 21.2465C3.18098 21.2541 3.09614 21.2158 3.04543 21.1459C2.99473 21.076 2.9858 20.985 3.02199 20.9069L6.17848 14.7281ZM17.7746 14.7281L20.9871 20.9069C21.0132 20.9825 20.9992 21.0659 20.9499 21.1296C20.9006 21.1932 20.8223 21.2288 20.7408 21.2246L18.5917 20.9945C18.5041 20.9836 18.4176 21.0217 18.3679 21.0931L17.1702 22.8569C17.1292 22.9315 17.0497 22.9781 16.9631 22.9781C16.8766 22.9781 16.797 22.9315 16.7561 22.8569C16.7283 22.8021 16.6981 22.7421 16.6655 22.6773L16.4447 22.2354C15.7117 20.7629 14.3959 18.0773 13.9354 17.1383C13.9028 17.0721 13.9029 16.995 13.9356 16.9288C13.9683 16.8627 14.03 16.8148 14.1033 16.7987C15.3345 16.5686 14.9092 15.1335 16.7784 15.1335C17.6515 15.1335 17.7746 14.7281 17.7746 14.7281ZM13.0287 1.2313C13.305 1.02064 13.6661 0.948696 14.0046 1.03689C14.343 1.12508 14.6198 1.36323 14.7525 1.68047C15.1168 2.36462 15.8448 2.78869 16.6329 2.77599C16.9812 2.72786 17.3322 2.84271 17.5809 3.0861C17.8296 3.32948 17.9469 3.67311 17.8978 4.01393C17.8857 4.7879 18.3181 5.50312 19.0171 5.86536C19.3412 5.99523 19.5845 6.26611 19.6746 6.59736C19.7647 6.92861 19.6912 7.28204 19.476 7.55246C19.0737 8.20619 19.0737 9.024 19.476 9.6778C19.6912 9.9482 19.7647 10.3016 19.6746 10.6329C19.5845 10.9641 19.3412 11.235 19.0171 11.3649C18.3181 11.7215 17.8848 12.4339 17.8978 13.2054C17.9469 13.5462 17.8296 13.8898 17.5809 14.1332C17.3322 14.3766 16.9812 14.4914 16.6329 14.4433C15.8461 14.4357 15.1207 14.8583 14.7525 15.5388C14.6269 15.8615 14.3532 16.1074 14.0139 16.2023C13.6747 16.2972 13.3095 16.2299 13.0287 16.0208C12.3581 15.6366 11.5278 15.6366 10.8572 16.0208C10.5809 16.2315 10.2198 16.3034 9.88139 16.2153C9.54294 16.1271 9.26618 15.8889 9.13348 15.5717C8.7577 14.8929 8.03059 14.4718 7.24183 14.4762C6.89361 14.5243 6.54252 14.4094 6.29384 14.166C6.04517 13.9227 5.92783 13.579 5.977 13.2382C5.98998 12.4668 5.5567 11.7544 4.85768 11.3977C4.53355 11.2679 4.29023 10.997 4.20012 10.6657C4.11001 10.3345 4.18352 9.9811 4.39876 9.7106C4.80106 9.0569 4.80106 8.23905 4.39876 7.58533C4.18352 7.31491 4.11001 6.96147 4.20012 6.63022C4.29023 6.29897 4.53355 6.0281 4.85768 5.89822C5.55662 5.53598 5.98901 4.82077 5.977 4.04679C5.93931 3.71128 6.06174 3.3775 6.30885 3.14206C6.55597 2.90662 6.90017 2.79582 7.24183 2.84172C8.03001 2.85442 8.75792 2.43035 9.12229 1.7462C9.25408 1.42526 9.53298 1.18408 9.87464 1.09563C10.2163 1.00718 10.5806 1.08184 10.8572 1.29703C11.5375 1.67079 12.3733 1.64549 13.0287 1.2313ZM13.6075 4.53751C11.8949 3.85903 9.93315 4.26017 8.64131 5.55299C7.34946 6.84581 6.98336 8.77428 7.71451 10.435C8.44565 12.0957 10.1292 13.1597 11.9766 13.1287C14.4707 13.0867 16.4665 11.0894 16.4539 8.64798C16.4445 6.83968 15.3201 5.21598 13.6075 4.53751ZM11.9766 5.82151C12.1172 5.8404 12.239 5.9267 12.3012 6.0516L12.9616 7.34431C12.9855 7.39999 13.0356 7.44083 13.0959 7.45386L14.5846 7.65106C14.7227 7.69841 14.8273 7.81031 14.8633 7.94911C14.8994 8.08791 14.8619 8.23514 14.7637 8.34124L13.7115 9.3491C13.6836 9.4005 13.6836 9.4621 13.7115 9.5134L13.9578 10.9376C13.9813 11.0606 13.9471 11.1874 13.8647 11.283C13.7822 11.3785 13.6602 11.4328 13.5324 11.4306C13.4618 11.4278 13.3929 11.409 13.3309 11.3758L12.0325 10.7076C11.9778 10.6738 11.9081 10.6738 11.8534 10.7076L10.5438 11.3758C10.4 11.455 10.2224 11.4456 10.0881 11.3517C9.95382 11.2579 9.88714 11.0965 9.91701 10.9376L10.1633 9.5463C10.1755 9.4857 10.1542 9.4233 10.1073 9.382L9.05513 8.3741C8.93785 8.25955 8.89479 8.09098 8.9432 7.93589C8.99556 7.78506 9.12931 7.67527 9.29019 7.65106L10.7117 7.45386C10.7734 7.43816 10.8259 7.39862 10.8572 7.34431L11.5848 6.0516C11.6607 5.90881 11.8121 5.81988 11.9766 5.82151Z"
    fill="#FF6600"
  />
</svg>
