<svg width="25" height="24" viewBox="0 0 25 24" fill="none" xmlns="http://www.w3.org/2000/svg">
  <path
    fill-rule="evenodd"
    clip-rule="evenodd"
    d="M10.3845 6.89998V5.89998C10.3785 5.8151 10.44 5.74041 10.5245 5.72998H22.6444C22.7193 5.74498 22.771 5.81387 22.7644 5.88998V7.04998C22.7644 7.14939 22.6838 7.22998 22.5844 7.22998H22.0044V16.89H22.5644C22.6599 16.8953 22.7346 16.9743 22.7344 17.07V18C22.7346 18.0956 22.6599 18.1747 22.5644 18.18H3.68448C3.59852 18.1648 3.53802 18.087 3.54448 18V17.1C3.54793 17.0204 3.60611 16.954 3.68448 16.94H4.18448V10.08L2.76448 10.65C2.67063 10.6852 2.56558 10.6414 2.52448 10.55L2.41448 10.26C2.37929 10.1661 2.42306 10.0611 2.51448 10.02L10.3645 6.90998L10.3845 6.89998Z"
    stroke="#FF6600"
  />
  <path
    d="M19.9943 15.24V16.83C20.0011 16.8494 20.0011 16.8706 19.9943 16.89H18.2543C18.2453 16.871 18.2453 16.849 18.2543 16.83V15.24C18.2514 15.2171 18.2585 15.1941 18.2739 15.1768C18.2892 15.1596 18.3112 15.1498 18.3343 15.15H19.9243C19.9661 15.1595 19.9954 15.1971 19.9943 15.24Z"
    fill="#FF6600"
  />
  <path
    d="M17.8247 15.24V16.83C17.8316 16.8494 17.8316 16.8706 17.8247 16.89H15.0847C15.0779 16.8706 15.0779 16.8494 15.0847 16.83V15.24C15.0893 15.1923 15.1271 15.1546 15.1747 15.15H17.7647C17.8006 15.1657 17.8241 15.2008 17.8247 15.24Z"
    fill="#FF6600"
  />
  <path
    d="M14.6946 15.24V16.83C14.7037 16.849 14.7037 16.871 14.6946 16.89H12.9646C12.9578 16.8706 12.9578 16.8494 12.9646 16.83V15.24C12.9646 15.1903 13.0049 15.15 13.0546 15.15H14.6446C14.681 15.1639 14.7021 15.2018 14.6946 15.24Z"
    fill="#FF6600"
  />
  <path
    d="M14.6946 12.2799V14.6399C14.6975 14.6628 14.6903 14.6858 14.675 14.703C14.6597 14.7203 14.6377 14.7301 14.6146 14.7299H13.0246C12.9749 14.7299 12.9346 14.6896 12.9346 14.6399V12.2799C12.9392 12.2322 12.9769 12.1944 13.0246 12.1899H14.6146C14.6604 12.195 14.6949 12.2338 14.6946 12.2799Z"
    fill="#FF6600"
  />
  <path
    d="M17.8247 12.2799V14.6399C17.8201 14.6876 17.7824 14.7253 17.7347 14.7299H15.1447C15.097 14.7253 15.0593 14.6876 15.0547 14.6399V12.2799C15.0625 12.2338 15.0986 12.1977 15.1447 12.1899H17.7647C17.7991 12.2073 17.8218 12.2414 17.8247 12.2799Z"
    fill="#FF6600"
  />
  <path
    d="M19.9945 12.2799V14.6399C19.9945 14.6896 19.9542 14.7299 19.9045 14.7299H18.3145C18.2914 14.7301 18.2694 14.7203 18.254 14.703C18.2387 14.6858 18.2316 14.6628 18.2345 14.6399V12.2799C18.2342 12.2338 18.2687 12.195 18.3145 12.1899H19.9045C19.9522 12.1944 19.9899 12.2322 19.9945 12.2799Z"
    fill="#FF6600"
  />
  <path
    d="M19.9944 10.42V11.66C19.9898 11.7077 19.952 11.7454 19.9044 11.75H18.3144C18.2686 11.7449 18.2341 11.706 18.2344 11.66V10.42C18.2344 10.36 18.2344 10.33 18.3144 10.33H19.9044C19.9291 10.3266 19.954 10.335 19.9716 10.3527C19.9893 10.3703 19.9977 10.3952 19.9944 10.42Z"
    fill="#FF6600"
  />
  <path
    d="M17.8247 10.42V11.66C17.8169 11.7061 17.7808 11.7422 17.7347 11.75H15.1447C15.0986 11.7422 15.0625 11.7061 15.0547 11.66V10.42C15.0547 10.3703 15.095 10.33 15.1447 10.33H17.7647C17.8025 10.3433 17.827 10.38 17.8247 10.42Z"
    fill="#FF6600"
  />
  <path
    d="M10.0442 11.83V16.83C10.0511 16.8494 10.0511 16.8706 10.0442 16.89C10.0252 16.899 10.0032 16.899 9.98422 16.89H7.11421C7.09183 16.8994 7.06659 16.8994 7.04422 16.89C7.03735 16.8706 7.03735 16.8494 7.04422 16.83V11.83C7.04971 10.9999 7.72414 10.33 8.55421 10.33C9.37872 10.3355 10.0442 11.0054 10.0442 11.83Z"
    fill="#FF6600"
  />
  <path
    d="M14.6943 10.42V11.66C14.6946 11.706 14.6601 11.7449 14.6143 11.75H13.0243C12.9766 11.7454 12.9389 11.7077 12.9343 11.66V10.42C12.9309 10.3952 12.9393 10.3703 12.957 10.3527C12.9747 10.335 12.9995 10.3266 13.0243 10.33H14.6143C14.6643 10.33 14.6943 10.36 14.6943 10.42Z"
    fill="#FF6600"
  />
</svg>
