<svg width="25" height="24" viewBox="0 0 25 24" fill="none" xmlns="http://www.w3.org/2000/svg">
  <path
    d="M19.6047 4.06H18.6647V2.94C18.6375 2.44762 18.2554 2.04856 17.7647 2H7.63473C7.38543 2 7.14634 2.09904 6.97005 2.27532C6.79377 2.4516 6.69473 2.6907 6.69473 2.94V4.06H5.92473C5.27535 4.07635 4.75907 4.61044 4.76469 5.26V20.81C4.76469 21.4557 5.27926 21.9837 5.92473 22H19.6047C20.2502 21.9837 20.7647 21.4557 20.7647 20.81V5.26C20.7704 4.61044 20.2541 4.07635 19.6047 4.06ZM9.76472 10V12H7.76473V10H9.76472ZM7.76473 9V7H9.76472V9H7.76473ZM9.76472 13V15H7.76473V13H9.76472ZM13.7047 10V12H11.7047V10H13.7047ZM11.7047 9V7H13.7047V9H11.7047ZM13.7047 13V15H11.7047V13H13.7047ZM17.6547 10V12H15.6547V10H17.6547ZM15.6547 9V7H17.6547V9H15.6547ZM17.6547 13V15H15.6547V13H17.6547ZM10.7647 18H11.7147V20H10.7647V18ZM13.7147 18H14.6647V20H13.7147V18Z"
    fill="#FF6600"
  />
</svg>
