<svg width="25" height="24" viewBox="0 0 25 24" fill="none" xmlns="http://www.w3.org/2000/svg">
  <path
    d="M17.1566 4C17.7707 4 18.2686 4.49786 18.2686 5.112V11H19.2686C19.6752 10.9979 20.0659 11.1579 20.3542 11.4447C20.6425 11.7315 20.8046 12.1214 20.8046 12.528V18.464C20.8046 19.3123 20.1169 20 19.2686 20H6.26065C5.428 19.9783 4.76437 19.2969 4.76465 18.464V8.688C4.78584 7.87204 5.44459 7.21682 6.26065 7.2H9.31665V5.112C9.31665 4.49786 9.81451 4 10.4286 4H17.1566ZM9.02865 8.8H6.36465V18.4H9.02865V8.8ZM16.6686 5.6H10.9166V18.4H13.0446V16H14.6446V18.4H16.6686V5.6ZM19.2046 12.6H18.3086V18.4H19.2046V12.6ZM8.47665 15.2V16.8H6.87665V15.2H8.47665ZM13.5326 13.192V14.792H11.9326V13.192H13.5326ZM15.6526 13.184V14.784H14.0526V13.184H15.6526ZM8.47665 12.776V14.376H6.87665V12.776H8.47665ZM8.47665 10.368V11.968H6.87665V10.368H8.47665ZM13.5326 9.976V11.576H11.9326V9.976H13.5326ZM15.6526 9.968V11.568H14.0526V9.968H15.6526ZM13.5326 6.768V8.368H11.9326V6.768H13.5326ZM15.6526 6.76V8.36H14.0526V6.76H15.6526Z"
    fill="#FF6600"
  />
</svg>
