<svg width="25" height="24" viewBox="0 0 25 24" fill="none" xmlns="http://www.w3.org/2000/svg">
  <path
    d="M22.6448 8.49002L19.3448 2.49002C19.1837 2.181 18.8633 1.98801 18.5148 1.99001H7.01489C6.66695 1.99915 6.34879 2.18853 6.17489 2.49002L2.88489 8.49002C2.70599 8.82944 2.73708 9.2413 2.96489 9.55L11.9648 21.62C12.1578 21.8643 12.4536 22.0048 12.7648 22.0001C13.0621 21.9926 13.3406 21.8534 13.5248 21.62L22.5248 9.55C22.7657 9.2493 22.8124 8.83697 22.6448 8.49002ZM17.8948 4.00002L20.1048 8.00002H16.6548L15.4548 4.00002H17.8948ZM8.89489 10L11.2648 17.26L5.81489 10H8.89489ZM10.9948 10H14.5548L12.7648 15.46L10.9948 10ZM16.6548 10H19.7648L14.3248 17.25L16.6548 10ZM13.3748 4.00002L14.5648 8.00002H10.9548L12.1448 4.00002H13.3748ZM7.63489 4.00002H10.0549L8.87489 8.00002H5.42489L7.63489 4.00002Z"
    fill="#FF6600"
  />
</svg>
