<svg
  width="24"
  height="24"
  viewBox="0 0 24 24"
  fill="none"
  xmlns="http://www.w3.org/2000/svg"
>
  <path
    d="M4.8501 2.54997C5.0009 2.34261 5.28412 2.28293 5.50578 2.4118C5.72744 2.54067 5.81569 2.81633 5.7101 3.04997L5.2301 3.88997L12.0001 7.76997L12.1301 7.53997C12.4692 6.91689 13.1492 6.55828 13.8549 6.63038C14.5606 6.70248 15.154 7.19119 15.3601 7.86997C15.4196 8.11981 15.4196 8.38013 15.3601 8.62997L16.3601 10.17L18.6301 8.88997C18.9052 8.73456 19.2423 8.73772 19.5144 8.89825C19.7866 9.0588 19.9524 9.3523 19.9494 9.6682C19.9465 9.9842 19.7752 10.2746 19.5001 10.43L17.2001 11.73C16.9428 11.8822 16.649 11.9617 16.3501 11.96C15.7551 11.9638 15.1999 11.6617 14.8801 11.16L14.4701 10.51L13.7201 11.89C13.6918 11.9416 13.6855 12.0024 13.7024 12.0588C13.7193 12.1152 13.7581 12.1624 13.8101 12.19L15.1601 12.92C15.6894 13.2075 16.0827 13.6937 16.2534 14.2714C16.424 14.8491 16.3581 15.4709 16.0701 16L14.3801 19.15L16.3201 19.85C16.9472 20.0817 17.6408 20.0536 18.2472 19.772C18.8536 19.4904 19.3225 18.9786 19.5501 18.35C19.738 17.831 20.311 17.5624 20.8301 17.75C21.3334 17.9378 21.5983 18.4898 21.4301 19C21.0271 20.1386 20.1841 21.068 19.0901 21.58C18.008 22.0957 16.7629 22.1499 15.6401 21.73L3.1701 17.19C2.80695 17.089 2.53144 16.7924 2.45746 16.4228C2.38349 16.0532 2.52363 15.6734 2.81994 15.4404C3.11625 15.2074 3.51839 15.1609 3.8601 15.32L11.0001 17.93L12.1601 15.79C12.2584 15.596 12.1882 15.3591 12.0001 15.25L11.0001 14.72C10.4205 14.3995 9.98966 13.8646 9.8001 13.23C9.61909 12.5946 9.69075 11.9138 10.0001 11.33L11.2501 9.15L11.5201 8.64997L4.7701 4.74997L4.2901 5.58997C4.14723 5.82752 3.8408 5.90746 3.6001 5.76997C3.36384 5.63097 3.28356 5.32766 3.4201 5.08997L3.9101 4.24997L2.93033 3.68976C2.84246 3.62899 2.77621 3.54065 2.74287 3.43761C2.7012 3.3088 2.71467 3.16849 2.7801 3.04997C2.9192 2.81462 3.21914 2.73081 3.4601 2.85997L4.3701 3.38997L4.8501 2.54997ZM15.9948 1.94353C16.8084 1.90014 17.567 2.35467 17.9125 3.09256C18.2581 3.83045 18.1214 4.70418 17.5671 5.30134C17.0128 5.8985 16.1516 6.0997 15.3901 5.80997C14.3811 5.4261 13.8589 4.31077 14.2101 3.28997C14.4752 2.51952 15.1812 1.98691 15.9948 1.94353Z"
    fill="#FF6600"
  />
</svg>
