<svg width="25" height="24" viewBox="0 0 25 24" fill="none" xmlns="http://www.w3.org/2000/svg">
  <path
    d="M22.4048 10.0001L13.4048 2.29011C13.0306 1.97003 12.4791 1.97003 12.1048 2.29011L3.12487 10.0001C2.83732 10.2762 2.74118 10.6966 2.88019 11.0702C3.0192 11.4438 3.3668 11.6992 3.76487 11.7201C3.98699 11.7166 4.20162 11.6392 4.37487 11.5001V19.6401C4.36416 20.2606 4.60248 20.8595 5.03657 21.303C5.47065 21.7464 6.06431 21.9975 6.68487 22.0001H9.76487V15.7001C9.76487 14.9821 10.3469 14.4001 11.0648 14.4001H14.4648C15.1828 14.4001 15.7648 14.9821 15.7648 15.7001V22.0001H18.8448C19.4619 21.9948 20.0514 21.744 20.4831 21.303C20.9147 20.8619 21.1528 20.2671 21.1448 19.6501V11.4901C21.5609 11.8203 22.1625 11.7676 22.5148 11.3701C22.8475 10.9566 22.7992 10.3552 22.4048 10.0001Z"
    fill="#FF6600"
  />
</svg>
