<svg
  width="24"
  height="24"
  viewBox="0 0 24 24"
  fill="none"
  xmlns="http://www.w3.org/2000/svg"
>
  <path
    fill-rule="evenodd"
    clip-rule="evenodd"
    d="M9.61983 6.89998V5.89998C9.61387 5.8151 9.67538 5.74041 9.75983 5.72998H21.8798C21.9547 5.74498 22.0064 5.81387 21.9998 5.88998V7.04998C21.9998 7.14939 21.9192 7.22998 21.8198 7.22998H21.2398V16.89H21.7998C21.8953 16.8953 21.97 16.9743 21.9698 17.07V18C21.97 18.0956 21.8953 18.1747 21.7998 18.18H2.91983C2.83387 18.1648 2.77337 18.087 2.77983 18V17.1C2.78328 17.0204 2.84146 16.954 2.91983 16.94H3.41983V10.08L1.99983 10.65C1.90598 10.6852 1.80093 10.6414 1.75983 10.55L1.64983 10.26C1.61464 10.1661 1.65841 10.0611 1.74983 10.02L9.59983 6.90998L9.61983 6.89998Z"
    stroke="#FF6600"
  />
  <path
    d="M19.2297 15.24V16.83C19.2365 16.8494 19.2365 16.8706 19.2297 16.89H17.4897C17.4807 16.871 17.4807 16.849 17.4897 16.83V15.24C17.4868 15.2171 17.4939 15.1941 17.5093 15.1768C17.5246 15.1596 17.5466 15.1498 17.5697 15.15H19.1597C19.2015 15.1595 19.2308 15.1971 19.2297 15.24Z"
    fill="#FF6600"
  />
  <path
    d="M17.06 15.24V16.83C17.0669 16.8494 17.0669 16.8706 17.06 16.89H14.32C14.3132 16.8706 14.3132 16.8494 14.32 16.83V15.24C14.3246 15.1923 14.3624 15.1546 14.41 15.15H17C17.0359 15.1657 17.0594 15.2008 17.06 15.24Z"
    fill="#FF6600"
  />
  <path
    d="M13.9299 15.24V16.83C13.939 16.849 13.939 16.871 13.9299 16.89H12.1999C12.1931 16.8706 12.1931 16.8494 12.1999 16.83V15.24C12.1999 15.1903 12.2402 15.15 12.2899 15.15H13.8799C13.9163 15.1639 13.9374 15.2018 13.9299 15.24Z"
    fill="#FF6600"
  />
  <path
    d="M13.9299 12.28V14.64C13.9328 14.6629 13.9256 14.6859 13.9103 14.7031C13.895 14.7204 13.873 14.7302 13.8499 14.73H12.2599C12.2102 14.73 12.1699 14.6897 12.1699 14.64V12.28C12.1745 12.2323 12.2122 12.1945 12.2599 12.19H13.8499C13.8957 12.1951 13.9302 12.2339 13.9299 12.28Z"
    fill="#FF6600"
  />
  <path
    d="M17.06 12.28V14.64C17.0554 14.6877 17.0177 14.7254 16.97 14.73H14.38C14.3323 14.7254 14.2946 14.6877 14.29 14.64V12.28C14.2978 12.2339 14.3339 12.1978 14.38 12.19H17C17.0344 12.2074 17.0571 12.2415 17.06 12.28Z"
    fill="#FF6600"
  />
  <path
    d="M19.2299 12.28V14.64C19.2299 14.6897 19.1896 14.73 19.1399 14.73H17.5499C17.5268 14.7302 17.5048 14.7204 17.4894 14.7031C17.4741 14.6859 17.467 14.6629 17.4699 14.64V12.28C17.4696 12.2339 17.5041 12.1951 17.5499 12.19H19.1399C19.1876 12.1945 19.2253 12.2323 19.2299 12.28Z"
    fill="#FF6600"
  />
  <path
    d="M19.2297 10.42V11.66C19.2251 11.7077 19.1873 11.7454 19.1397 11.75H17.5497C17.5039 11.7449 17.4694 11.706 17.4697 11.66V10.42C17.4697 10.36 17.4697 10.33 17.5497 10.33H19.1397C19.1644 10.3266 19.1893 10.335 19.2069 10.3527C19.2246 10.3703 19.233 10.3952 19.2297 10.42Z"
    fill="#FF6600"
  />
  <path
    d="M17.06 10.42V11.66C17.0522 11.7061 17.0161 11.7422 16.97 11.75H14.38C14.3339 11.7422 14.2978 11.7061 14.29 11.66V10.42C14.29 10.3703 14.3303 10.33 14.38 10.33H17C17.0378 10.3433 17.0623 10.38 17.06 10.42Z"
    fill="#FF6600"
  />
  <path
    d="M9.27956 11.83V16.83C9.28643 16.8494 9.28643 16.8706 9.27956 16.89C9.26058 16.899 9.23855 16.899 9.21957 16.89H6.34957C6.32719 16.8994 6.30194 16.8994 6.27957 16.89C6.2727 16.8706 6.2727 16.8494 6.27957 16.83V11.83C6.28506 10.9999 6.9595 10.33 7.78957 10.33C8.61408 10.3355 9.27958 11.0054 9.27956 11.83Z"
    fill="#FF6600"
  />
  <path
    d="M13.9297 10.42V11.66C13.93 11.706 13.8955 11.7449 13.8497 11.75H12.2597C12.212 11.7454 12.1743 11.7077 12.1697 11.66V10.42C12.1663 10.3952 12.1747 10.3703 12.1924 10.3527C12.2101 10.335 12.2349 10.3266 12.2597 10.33H13.8497C13.8997 10.33 13.9297 10.36 13.9297 10.42Z"
    fill="#FF6600"
  />
</svg>
