<svg
  width="24"
  height="24"
  viewBox="0 0 24 24"
  fill="none"
  xmlns="http://www.w3.org/2000/svg"
>
  <path
    d="M14.7998 19.6546V20.3419C14.7998 20.6838 14.6627 21.0115 14.4191 21.2514C14.1754 21.4914 13.8457 21.6235 13.5038 21.6183H10.1853C9.48034 21.6183 8.90891 21.0468 8.90891 20.3419V19.6546H14.7998ZM11.8544 1.9819C15.6787 1.90504 18.8466 4.9325 18.9431 8.75644C18.932 10.6949 18.2679 12.5731 17.058 14.0877C16.2684 15.0132 15.7909 16.1642 15.6933 17.3768C15.612 17.9238 15.2821 18.4023 14.7998 18.6728H8.90891C8.43036 18.4001 8.10432 17.9219 8.02526 17.3768C7.92172 16.1579 7.44132 15.0015 6.65072 14.0681C5.44358 12.5595 4.77956 10.6885 4.76562 8.75644C4.8621 4.9325 8.02996 1.90504 11.8544 1.9819ZM12.1685 9.0215C12.0842 9.0058 11.9976 9.0058 11.9133 9.0215C11.8288 9.0067 11.7424 9.0067 11.658 9.0215C11.5737 9.0552 11.497 9.1053 11.4322 9.1688C11.3699 9.2309 11.3199 9.3042 11.2849 9.3848C11.2644 9.472 11.2644 9.5627 11.2849 9.6499V13.2139C11.2646 13.3044 11.2646 13.3983 11.2849 13.4888C11.3248 13.5667 11.3743 13.6392 11.4322 13.7048C11.4999 13.7619 11.5761 13.8083 11.658 13.8423C11.7395 13.8736 11.8259 13.8903 11.9133 13.8914C12.0007 13.8911 12.0873 13.8745 12.1685 13.8423C12.2473 13.8081 12.3202 13.7617 12.3845 13.7048C12.4428 13.6415 12.4893 13.5684 12.522 13.4888C12.5423 13.3983 12.5423 13.3044 12.522 13.2139V9.6499C12.5425 9.5627 12.5425 9.472 12.522 9.3848C12.4941 9.3028 12.447 9.2288 12.3845 9.1688C12.3233 9.1056 12.2498 9.0554 12.1685 9.0215ZM11.8544 6.76335C11.7689 6.75044 11.6816 6.75715 11.5991 6.78299C11.5171 6.81083 11.443 6.85797 11.3831 6.92045C11.3208 6.98251 11.2708 7.0558 11.2358 7.13645C11.2165 7.22044 11.2165 7.30772 11.2358 7.39172C11.2153 7.47889 11.2153 7.56963 11.2358 7.65681C11.2734 7.73602 11.3231 7.80889 11.3831 7.87281C11.4517 7.95704 11.544 8.01863 11.6482 8.04954C11.7275 8.08875 11.8149 8.10892 11.9034 8.10845C11.9952 8.10972 12.086 8.08955 12.1685 8.04954C12.2492 8.01903 12.3227 7.97224 12.3845 7.91208C12.4414 7.84777 12.4878 7.77487 12.522 7.69608H12.4729C12.4934 7.60891 12.4934 7.51817 12.4729 7.43099C12.4922 7.347 12.4922 7.25971 12.4729 7.17572C12.4412 7.09564 12.3946 7.02233 12.3354 6.95972C12.2736 6.89956 12.2001 6.85277 12.1194 6.82226C12.0369 6.78225 11.9461 6.76208 11.8544 6.76335Z"
    fill="#FF6600"
  />
</svg>
