<svg width="25" height="24" viewBox="0 0 25 24" fill="none" xmlns="http://www.w3.org/2000/svg">
  <path
    d="M12.5148 2.13993C12.6946 2.00153 12.945 2.00153 13.1248 2.13993L19.4848 6.99993H19.8848C20.66 6.90968 21.4357 7.16578 22.0048 7.69993C22.6114 8.23537 22.8565 9.0717 22.6348 9.8499L21.9548 12.2599C21.9073 12.4575 21.9727 12.6652 22.1248 12.7999C22.5254 13.1963 22.7508 13.7364 22.7508 14.2999C22.7508 14.8635 22.5254 15.4036 22.1248 15.7999C21.9727 15.9347 21.9073 16.1423 21.9548 16.3399L22.6848 18.7099C22.9065 19.4881 22.6615 20.3245 22.0548 20.8599L21.907 20.9843C21.3504 21.4182 20.6389 21.61 19.9348 21.5099L15.8648 20.9999C15.6019 20.9622 15.3337 21.0039 15.0948 21.1199L14.0148 21.6599C13.2584 22.0335 12.3712 22.0335 11.6148 21.6599L10.5349 21.1199C10.2959 21.0039 10.0277 20.9622 9.76486 20.9999L5.64486 21.5099C4.87671 21.6191 4.09979 21.3809 3.52486 20.8599C2.91818 20.3245 2.6731 19.4881 2.89486 18.7099L3.57486 16.2999C3.62229 16.1023 3.55693 15.8947 3.40486 15.7599C3.00424 15.3636 2.77881 14.8235 2.77881 14.2599C2.77881 13.6964 3.00424 13.1563 3.40486 12.7599C3.55693 12.6252 3.62229 12.4175 3.57486 12.2199L2.89486 9.8099C2.6731 9.0317 2.91818 8.19537 3.52486 7.65993C4.10085 7.14022 4.87565 6.89901 5.64486 6.99993L6.13486 7.13993L12.5148 2.13993ZM19.6548 9.5999H5.87486V18.9999H19.6548V9.5999ZM14.9248 10.9999C15.0689 10.8576 15.3007 10.8576 15.4448 10.9999L18.5648 14.1299C18.6353 14.198 18.675 14.2919 18.6748 14.3899V17.6399C18.6748 17.7372 18.6355 17.8303 18.5658 17.8981C18.4961 17.9659 18.402 18.0026 18.3048 17.9999H7.24486C7.1459 18.0027 7.05016 17.9646 6.98016 17.8946C6.91015 17.8246 6.87207 17.7289 6.87486 17.6299V16.5399C6.8746 16.4419 6.91432 16.348 6.98486 16.2799L9.29486 13.9999C9.43897 13.8576 9.67075 13.8576 9.81486 13.9999L10.6349 14.7799C10.7789 14.9223 11.0107 14.9223 11.1548 14.7799L14.9248 10.9999ZM10.0849 10.5941C10.3515 10.5941 10.6071 10.7006 10.7948 10.8899C10.982 11.0787 11.0863 11.3341 11.0848 11.5999C11.0848 12.1522 10.6371 12.5999 10.0849 12.5999C9.81761 12.5988 9.56193 12.4908 9.37486 12.2999C8.98714 11.9099 8.98714 11.28 9.37486 10.8899C9.56263 10.7006 9.81822 10.5941 10.0849 10.5941ZM12.8248 3.16993L7.53486 7.26993L9.76486 7.54993C10.0113 7.57786 10.2607 7.5363 10.4849 7.42993L11.5648 6.88993C12.3219 6.51943 13.2077 6.51943 13.9648 6.88993L15.0448 7.42993C15.2839 7.54533 15.5519 7.5871 15.8148 7.54993L18.0848 7.25993L12.8248 3.16993Z"
    fill="#FF6600"
  />
</svg>
