<svg width="25" height="24" viewBox="0 0 25 24" fill="none" xmlns="http://www.w3.org/2000/svg">
  <path
    d="M22.4045 10.4601L13.4045 2.75008C13.0303 2.42999 12.4788 2.42999 12.1045 2.75008L3.10458 10.4601C2.78494 10.7334 2.67045 11.1775 2.81812 11.5712C2.96578 11.965 3.34405 12.2243 3.76458 12.2201C3.99015 12.2188 4.20864 12.1412 4.38458 12.0001V20.1401C4.37658 20.7571 4.61473 21.3519 5.04635 21.7929C5.47798 22.2339 6.06752 22.4848 6.68458 22.4901H18.8445C19.4616 22.4848 20.0511 22.2339 20.4828 21.7929C20.9144 21.3519 21.1525 20.7571 21.1445 20.1401V12.0001C21.5725 12.2833 22.1454 12.1965 22.4703 11.7994C22.7953 11.4022 22.7669 10.8235 22.4045 10.4601ZM11.7645 20.4901V16.9001H13.7645V20.4901H11.7645ZM18.8445 20.4901H15.7645V16.2001C15.7645 15.4821 15.1825 14.9001 14.4645 14.9001H11.0645C10.3466 14.9001 9.76458 15.4821 9.76458 16.2001V20.4901H6.68458C6.50616 20.4742 6.37302 20.3188 6.38458 20.1401V10.2901L12.7645 4.82008L19.1445 10.2901V20.1401C19.1561 20.3188 19.0229 20.4742 18.8445 20.4901Z"
    fill="#FF6600"
  />
</svg>
