<svg
  width="24"
  height="24"
  viewBox="0 0 24 24"
  fill="none"
  xmlns="http://www.w3.org/2000/svg"
>
  <path
    d="M9.339 6.58393L0.671 10.0049C0.574332 10.0538 0.527663 10.1658 0.561 10.2689L0.693 10.5879C0.733708 10.687 0.845796 10.7357 0.946 10.6979L2.541 10.0709V17.5839H1.98C1.89585 17.6 1.83548 17.6743 1.837 17.7599V18.7499C1.82983 18.8397 1.89153 18.9203 1.98 18.9369H22.748C22.8574 18.9369 22.946 18.8483 22.946 18.7389V17.7489C22.946 17.6396 22.8574 17.5509 22.748 17.5509H22.143V6.93593H22.781C22.8904 6.93593 22.979 6.84728 22.979 6.73793V5.42893C22.9805 5.34328 22.9201 5.26898 22.836 5.25293H9.515C9.42211 5.2644 9.35444 5.34656 9.361 5.43993V6.53993L9.339 6.58393ZM8.976 17.4959C8.98355 17.5173 8.98355 17.5406 8.976 17.5619C8.976 17.5619 8.976 17.5619 8.91 17.5619H5.764C5.73571 17.573 5.70429 17.573 5.676 17.5619C5.67123 17.5402 5.67123 17.5177 5.676 17.4959V11.9959C5.67599 11.5564 5.85134 11.1351 6.16316 10.8253C6.47497 10.5155 6.89749 10.343 7.337 10.3459C8.24827 10.3459 8.987 11.0847 8.987 11.9959L8.976 17.4959ZM14.102 17.4959C14.1095 17.5173 14.1095 17.5406 14.102 17.5619H12.232C12.2245 17.5406 12.2245 17.5173 12.232 17.4959V15.7469C12.232 15.6923 12.2763 15.6479 12.331 15.6479H14.069C14.1237 15.6479 14.168 15.6923 14.168 15.7469L14.102 17.4959ZM14.102 15.0869C14.102 15.1416 14.0577 15.1859 14.003 15.1859H12.265C12.2103 15.1859 12.166 15.1416 12.166 15.0869V12.4909C12.171 12.4385 12.2125 12.397 12.265 12.3919H14.003C14.0555 12.397 14.097 12.4385 14.102 12.4909V15.0869ZM14.102 11.7869C14.102 11.8416 14.0577 11.8859 14.003 11.8859H12.265C12.2103 11.8859 12.166 11.8416 12.166 11.7869V10.4999C12.1623 10.4727 12.1716 10.4453 12.191 10.4259C12.2104 10.4065 12.2378 10.3972 12.265 10.4009H14.003C14.0302 10.3972 14.0576 10.4065 14.077 10.4259C14.0964 10.4453 14.1057 10.4727 14.102 10.4999V11.7869ZM17.534 17.4739C17.5415 17.4953 17.5415 17.5186 17.534 17.5399H14.52C14.5101 17.519 14.5101 17.4948 14.52 17.4739V15.7469C14.5197 15.6963 14.5577 15.6536 14.608 15.6479H17.457C17.5117 15.6479 17.556 15.6923 17.556 15.7469L17.534 17.4739ZM17.534 15.0649C17.534 15.1196 17.4897 15.1639 17.435 15.1639H14.586C14.5357 15.1583 14.4977 15.1156 14.498 15.0649V12.4909C14.502 12.442 14.5379 12.4016 14.586 12.3919H17.435C17.4875 12.397 17.529 12.4385 17.534 12.4909V15.0649ZM17.534 11.7649C17.534 11.8196 17.4897 11.8639 17.435 11.8639H14.586C14.5357 11.8583 14.4977 11.8156 14.498 11.7649V10.4999C14.4948 10.4748 14.5027 10.4494 14.5195 10.4305C14.5364 10.4115 14.5606 10.4007 14.586 10.4009H17.435C17.4622 10.3972 17.4896 10.4065 17.509 10.4259C17.5284 10.4453 17.5377 10.4727 17.534 10.4999V11.7649ZM19.921 17.4519C19.9285 17.4733 19.9285 17.4966 19.921 17.5179H18.051C18.0435 17.4966 18.0435 17.4733 18.051 17.4519V15.7469C18.051 15.6923 18.0953 15.6479 18.15 15.6479H19.8C19.8272 15.6442 19.8546 15.6535 19.874 15.6729C19.8934 15.6923 19.9027 15.7197 19.899 15.7469L19.921 17.4519ZM19.921 15.0429C19.9247 15.0701 19.9154 15.0975 19.896 15.1169C19.8766 15.1364 19.8492 15.1456 19.822 15.1419H18.084C18.0293 15.1419 17.985 15.0976 17.985 15.0429V12.4909C17.99 12.4385 18.0315 12.397 18.084 12.3919H19.8C19.8547 12.3919 19.899 12.4363 19.899 12.4909L19.921 15.0429ZM19.921 11.7429C19.9247 11.7701 19.9154 11.7975 19.896 11.8169C19.8766 11.8364 19.8492 11.8456 19.822 11.8419H18.084C18.0293 11.8419 17.985 11.7976 17.985 11.7429V10.4999C17.9813 10.4727 17.9906 10.4453 18.01 10.4259C18.0294 10.4065 18.0568 10.3972 18.084 10.4009H19.8C19.8272 10.3972 19.8546 10.4065 19.874 10.4259C19.8934 10.4453 19.9027 10.4727 19.899 10.4999L19.921 11.7429Z"
    fill="#FF6600"
  />
</svg>
