<svg width="25" height="24" viewBox="0 0 25 24" fill="none" xmlns="http://www.w3.org/2000/svg">
  <path
    d="M17.7647 2C18.2554 2.04856 18.6375 2.44762 18.6647 2.94V4.06H19.6047C20.2541 4.07635 20.7704 4.61044 20.7647 5.26V20.81C20.7647 21.4557 20.2502 21.9837 19.6047 22H5.92473C5.27926 21.9837 4.76469 21.4557 4.76469 20.81V5.26C4.75907 4.61044 5.27535 4.07635 5.92473 4.06H6.69473V2.94C6.69473 2.6907 6.79377 2.4516 6.97005 2.27532C7.14634 2.09904 7.38543 2 7.63473 2H17.7647ZM14.6247 18H13.6747V20H14.6247V18ZM11.7047 18H10.7647V20H11.6747L11.7047 18ZM18.7647 6.06H6.76473V20H8.76472V17C8.76472 16.4477 9.21244 16 9.76472 16H15.6247C16.177 16 16.6247 16.4477 16.6247 17V20H18.7647V6.06ZM17.6247 13V15H15.6247V13H17.6247ZM9.73473 13V15H7.73473V13H9.73473ZM13.6747 13V15H11.6747V13H13.6747ZM9.73473 10V12H7.73473V10H9.73473ZM13.6747 10V12H11.6747V10H13.6747ZM17.6247 10V12H15.6247V10H17.6247ZM9.73473 7V9H7.73473V7H9.73473ZM13.6747 7V9H11.6747V7H13.6747ZM17.6247 7V9H15.6247V7H17.6247Z"
    fill="#FF6600"
  />
</svg>
