<svg
  width="24"
  height="24"
  viewBox="0 0 24 24"
  fill="none"
  xmlns="http://www.w3.org/2000/svg"
>
  <path
    d="M16.392 4C17.0061 4 17.504 4.49786 17.504 5.112V11H18.504C18.9106 10.9979 19.3013 11.1579 19.5896 11.4447C19.8779 11.7315 20.04 12.1214 20.04 12.528V18.464C20.04 19.3123 19.3523 20 18.504 20H5.496C4.66335 19.9783 3.99972 19.2969 4 18.464V8.688C4.02119 7.87204 4.67994 7.21682 5.496 7.2H8.552V5.112C8.552 4.49786 9.04986 4 9.664 4H16.392ZM8.264 8.8H5.6V18.4H8.264V8.8ZM15.904 5.6H10.152V18.4H12.28V16H13.88V18.4H15.904V5.6ZM18.44 12.6H17.544V18.4H18.44V12.6ZM7.712 15.2V16.8H6.112V15.2H7.712ZM12.768 13.192V14.792H11.168V13.192H12.768ZM14.888 13.184V14.784H13.288V13.184H14.888ZM7.712 12.776V14.376H6.112V12.776H7.712ZM7.712 10.368V11.968H6.112V10.368H7.712ZM12.768 9.976V11.576H11.168V9.976H12.768ZM14.888 9.968V11.568H13.288V9.968H14.888ZM12.768 6.768V8.368H11.168V6.768H12.768ZM14.888 6.76V8.36H13.288V6.76H14.888Z"
    fill="#FF6600"
  />
</svg>
