<svg width="25" height="24" viewBox="0 0 25 24" fill="none" xmlns="http://www.w3.org/2000/svg">
  <path
    d="M4.76474 12.1C4.30214 13.8339 5.14334 15.6509 6.76474 16.42L6.23474 19.51L5.23474 19.34H5.06474C4.51245 19.2931 4.02668 19.7027 3.97974 20.255C3.9328 20.8073 4.34245 21.2931 4.89474 21.34L8.82474 22H8.99474C9.54702 22.0469 10.0328 21.6373 10.0797 21.085C10.1267 20.5327 9.71702 20.0469 9.16474 20L8.16474 19.83L8.76474 16.75C10.5506 16.5697 11.9476 15.1304 12.0747 13.34L12.7647 3.41L7.36474 2.49L4.76474 12.1ZM8.35474 14.79H8.05474C7.56966 14.7062 7.14372 14.4186 6.88474 14C6.62331 13.5939 6.54695 13.0958 6.67474 12.63L7.17474 10.8C7.33474 10.71 7.79474 10.48 8.01474 10.7C8.42518 11.1324 8.9987 11.3719 9.59474 11.36C9.78665 11.3564 9.97767 11.3329 10.1647 11.29L10.0347 13.2C9.97189 14.0934 9.23035 14.787 8.33474 14.79H8.35474ZM18.0447 2L20.7647 11.58C21.2469 13.3209 20.4014 15.1555 18.7647 15.92L19.3047 19L20.3047 18.82H20.4747L20.5947 18.83C21.147 18.7831 21.6327 19.1927 21.6797 19.745C21.7266 20.2973 21.317 20.7831 20.7647 20.83L19.7647 21.01L18.7647 21.18L16.7647 21.53H16.4747C15.9224 21.5769 15.4366 21.1673 15.3897 20.615C15.3427 20.0627 15.7524 19.5769 16.3047 19.53L17.3047 19.35L16.7647 16.27C15.0126 16.0821 13.6361 14.6847 13.4747 12.93L12.6847 3L18.0447 2ZM15.8647 10.67C15.6933 10.5633 15.4761 10.5633 15.3047 10.67L15.4647 12.72C15.5516 13.5954 16.285 14.2641 17.1647 14.27H17.4647C17.9413 14.1864 18.3602 13.9048 18.6175 13.495C18.8748 13.0852 18.9465 12.5856 18.8147 12.12L18.5447 11.12C18.1921 11.2501 17.8204 11.3211 17.4447 11.33C16.8494 11.3383 16.2773 11.0993 15.8647 10.67ZM8.81474 4.77L10.5947 5.07L10.3147 9.14C9.98474 9.3 9.56474 9.43 9.43474 9.3C8.99791 8.8494 8.39209 8.60272 7.76474 8.62L8.81474 4.77ZM16.6047 4.28L14.8247 4.6L15.1447 8.66C15.9236 8.4916 16.7346 8.73301 17.2947 9.3C17.3947 9.41 17.7047 9.33 17.9947 9.21L16.6047 4.28Z"
    fill="#FF6600"
  />
</svg>
