<svg
  width="24"
  height="24"
  viewBox="0 0 24 24"
  fill="none"
  xmlns="http://www.w3.org/2000/svg"
>
  <path
    d="M11.7502 2.13993C11.93 2.00153 12.1804 2.00153 12.3602 2.13993L18.7202 6.99993H19.1202C19.8954 6.90968 20.6711 7.16578 21.2402 7.69993C21.8468 8.23537 22.0919 9.0717 21.8702 9.8499L21.1902 12.2599C21.1427 12.4575 21.2081 12.6652 21.3602 12.7999C21.7608 13.1963 21.9862 13.7364 21.9862 14.2999C21.9862 14.8635 21.7608 15.4036 21.3602 15.7999C21.2081 15.9347 21.1427 16.1423 21.1902 16.3399L21.9202 18.7099C22.1419 19.4881 21.8969 20.3245 21.2902 20.8599L21.1424 20.9843C20.5858 21.4182 19.8743 21.61 19.1702 21.5099L15.1002 20.9999C14.8373 20.9622 14.5691 21.0039 14.3302 21.1199L13.2502 21.6599C12.4938 22.0335 11.6066 22.0335 10.8502 21.6599L9.77021 21.1199C9.53128 21.0039 9.2631 20.9622 9.00021 20.9999L4.88021 21.5099C4.11206 21.6191 3.33514 21.3809 2.76021 20.8599C2.15353 20.3245 1.90845 19.4881 2.13021 18.7099L2.81021 16.2999C2.85764 16.1023 2.79228 15.8947 2.64021 15.7599C2.23959 15.3636 2.01416 14.8235 2.01416 14.2599C2.01416 13.6964 2.23959 13.1563 2.64021 12.7599C2.79228 12.6252 2.85764 12.4175 2.81021 12.2199L2.13021 9.8099C1.90845 9.0317 2.15353 8.19537 2.76021 7.65993C3.3362 7.14022 4.111 6.89901 4.88021 6.99993L5.37021 7.13993L11.7502 2.13993ZM18.8902 9.5999H5.11021V18.9999H18.8902V9.5999ZM14.1602 10.9999C14.3043 10.8576 14.5361 10.8576 14.6802 10.9999L17.8002 14.1299C17.8707 14.198 17.9104 14.2919 17.9102 14.3899V17.6399C17.9102 17.7372 17.8709 17.8303 17.8012 17.8981C17.7315 17.9659 17.6374 18.0026 17.5402 17.9999H6.48021C6.38125 18.0027 6.28551 17.9646 6.21551 17.8946C6.1455 17.8246 6.10742 17.7289 6.11021 17.6299V16.5399C6.10995 16.4419 6.14967 16.348 6.22021 16.2799L8.53021 13.9999C8.67432 13.8576 8.9061 13.8576 9.05021 13.9999L9.87021 14.7799C10.0143 14.9223 10.2461 14.9223 10.3902 14.7799L14.1602 10.9999ZM9.32021 10.5941C9.58685 10.5941 9.84244 10.7006 10.0302 10.8899C10.2174 11.0787 10.3217 11.3341 10.3202 11.5999C10.3202 12.1522 9.87249 12.5999 9.32021 12.5999C9.05296 12.5988 8.79728 12.4908 8.61021 12.2999C8.22249 11.9099 8.22249 11.28 8.61021 10.8899C8.79798 10.7006 9.05357 10.5941 9.32021 10.5941ZM12.0602 3.16993L6.77021 7.26993L9.00021 7.54993C9.2467 7.57786 9.4961 7.5363 9.72021 7.42993L10.8002 6.88993C11.5573 6.51943 12.4431 6.51943 13.2002 6.88993L14.2802 7.42993C14.5193 7.54533 14.7873 7.5871 15.0502 7.54993L17.3202 7.25993L12.0602 3.16993Z"
    fill="#FF6600"
  />
</svg>
