<svg
  width="24"
  height="24"
  viewBox="0 0 24 24"
  fill="none"
  xmlns="http://www.w3.org/2000/svg"
>
  <path
    d="M18.504 11H17.504V5.112C17.504 4.49786 17.0061 4 16.392 4H9.664C9.04986 4 8.552 4.49786 8.552 5.112V7.2H5.496C4.67994 7.21682 4.02119 7.87204 4 8.688V18.464C3.99972 19.2969 4.66335 19.9783 5.496 20H12.28V16H13.88V20H18.504C19.3523 20 20.04 19.3123 20.04 18.464V12.528C20.04 12.1214 19.8779 11.7315 19.5896 11.4447C19.3013 11.1579 18.9106 10.9979 18.504 11ZM7.712 16.8H6.112V15.2H7.712V16.8ZM7.712 14.4H6.112V12.8H7.712V14.4ZM7.712 12H6.112V10.4H7.712V12ZM12.8 14.792H11.2V13.192H12.8V14.792ZM12.8 11.592H11.2V9.992H12.8V11.592ZM12.8 8.392H11.2V6.792H12.8V8.392ZM14.92 14.792H13.32V13.192H14.92V14.792ZM14.92 11.592H13.32V9.992H14.92V11.592ZM14.92 8.392H13.32V6.792H14.92V8.392Z"
    fill="#FF6600"
  />
</svg>
