<svg
  width="24"
  height="24"
  viewBox="0 0 24 24"
  fill="none"
  xmlns="http://www.w3.org/2000/svg"
>
  <path
    d="M20.05 12.57L16.79 13.44C16.6987 13.4732 16.6114 13.5168 16.53 13.57L14.85 12.57C14.8549 12.4901 14.8549 12.41 14.85 12.33C14.8491 12.0328 14.7949 11.7382 14.69 11.46L16.44 10.46C16.5381 10.5291 16.646 10.583 16.76 10.62L20.02 11.49C20.4751 11.5612 20.9104 11.2772 21.0288 10.8321C21.1471 10.387 20.9103 9.9243 20.48 9.76L18.54 9.24L20.35 8.24004C20.6269 8.08106 20.798 7.78644 20.7987 7.46716C20.7995 7.14788 20.6298 6.85245 20.3537 6.69216C20.0776 6.53186 19.7369 6.53106 19.46 6.69004L17.72 7.69004L18.21 5.86004C18.332 5.38335 18.0529 4.89609 17.58 4.76004C17.1034 4.63812 16.6161 4.91719 16.48 5.39004L15.61 8.65004C15.6001 8.73977 15.6001 8.83031 15.61 8.92004L13.7 10L13.64 10.05C13.4178 9.9073 13.175 9.7994 12.92 9.73C12.9247 9.6801 12.9247 9.6299 12.92 9.58V7.36004C13.0192 7.32522 13.1084 7.26689 13.18 7.19004L15.56 4.81004C15.7851 4.58496 15.873 4.2569 15.7906 3.94944C15.7083 3.64198 15.4681 3.40183 15.1606 3.31944C14.8532 3.23706 14.5251 3.32496 14.3 3.55004L13 4.93004V2.93004C13 2.43851 12.6016 2.04004 12.11 2.04004C11.6185 2.04004 11.22 2.43851 11.22 2.93004V4.93004L9.78005 3.55004C9.55497 3.32496 9.22691 3.23706 8.91945 3.31944C8.61199 3.40183 8.37184 3.64198 8.28945 3.94944C8.20707 4.2569 8.29497 4.58496 8.52005 4.81004L10.9 7.19004C10.9796 7.26434 11.0708 7.32514 11.17 7.37004V9.58C11.1596 9.6429 11.1596 9.7071 11.17 9.77C10.9277 9.8577 10.6988 9.9789 10.49 10.13C10.455 10.0883 10.4146 10.0514 10.37 10.02L8.37005 8.83004C8.37994 8.73363 8.37994 8.63645 8.37005 8.54004L7.49005 5.29004C7.42923 5.05968 7.27859 4.86332 7.07185 4.74491C6.8651 4.6265 6.61951 4.59593 6.39005 4.66004C5.91858 4.7916 5.6387 5.27584 5.76005 5.75004L6.25005 7.58004L4.65005 6.58004C4.43313 6.47049 4.18113 6.45331 3.95136 6.53241C3.72158 6.61152 3.53356 6.78018 3.43005 7.00004C3.3102 7.20414 3.27658 7.44757 3.33663 7.67651C3.39668 7.90545 3.54545 8.10104 3.75005 8.22004L5.44005 9.22L3.49005 9.74C3.11547 9.9407 2.93498 10.3781 3.05909 10.7845C3.1832 11.1909 3.57729 11.4529 4.00005 11.41L7.26005 10.54C7.36902 10.5105 7.471 10.4595 7.56005 10.39L9.56005 11.56C9.47642 11.8117 9.43256 12.0749 9.43005 12.34C9.43005 12.4 9.43005 12.46 9.43005 12.53L7.58005 13.58C7.49617 13.5187 7.40102 13.4745 7.30005 13.45L4.00005 12.57C3.54498 12.4989 3.10967 12.7829 2.99131 13.228C2.87296 13.6731 3.10976 14.1357 3.54005 14.3L5.43005 14.8L3.70005 15.8C3.27203 16.0458 3.12428 16.592 3.37005 17.02C3.61581 17.4481 4.16203 17.5958 4.59005 17.35L6.32005 16.35L5.82005 18.23C5.73609 18.5373 5.82242 18.866 6.04653 19.0923C6.27064 19.3187 6.59847 19.4082 6.90653 19.3273C7.21459 19.2464 7.45609 19.0073 7.54005 18.7L8.41005 15.44C8.43001 15.3377 8.43001 15.2324 8.41005 15.13L10.05 14.13C10.3397 14.4525 10.7035 14.6996 11.11 14.85V16.74C11.0087 16.781 10.9168 16.8422 10.84 16.92L8.52005 19.35C8.29497 19.5751 8.20707 19.9032 8.28945 20.2106C8.37184 20.5181 8.61199 20.7582 8.91945 20.8406C9.22691 20.923 9.55497 20.8351 9.78005 20.61L11.17 19.23V21.11C11.17 21.6016 11.5685 22 12.06 22C12.5516 22 12.95 21.6016 12.95 21.11V19.23L14.33 20.61C14.5551 20.8351 14.8832 20.923 15.1906 20.8406C15.4981 20.7582 15.7383 20.5181 15.8206 20.2106C15.903 19.9032 15.8151 19.5751 15.59 19.35L13.21 17C13.136 16.9235 13.0477 16.8624 12.95 16.82V15C13.3976 14.8642 13.8013 14.6124 14.12 14.27L15.62 15.15C15.6006 15.2625 15.6006 15.3775 15.62 15.49L16.49 18.74C16.5509 18.9704 16.7015 19.1668 16.9082 19.2852C17.115 19.4036 17.3606 19.4341 17.59 19.37C17.8182 19.3091 18.0127 19.16 18.1309 18.9556C18.249 18.7511 18.2811 18.5081 18.22 18.28L17.71 16.39L19.45 17.39C19.8759 17.6338 20.4186 17.4915 20.67 17.07C20.7899 16.8659 20.8235 16.6225 20.7635 16.3936C20.7034 16.1646 20.5546 15.969 20.35 15.85L18.6 14.85L20.49 14.34C20.965 14.213 21.2471 13.725 21.12 13.25C20.993 12.7751 20.505 12.493 20.03 12.62L20.05 12.57ZM12.14 13.08C11.7314 13.08 11.4 12.7487 11.4 12.34C11.4 11.9313 11.7314 11.6 12.14 11.6C12.5487 11.6 12.88 11.9313 12.88 12.34C12.88 12.7487 12.5487 13.08 12.14 13.08Z"
    fill="#FF6600"
  />
</svg>
