<svg width="25" height="24" viewBox="0 0 25 24" fill="none" xmlns="http://www.w3.org/2000/svg">
  <path
    d="M19.2686 11H18.2686V5.112C18.2686 4.49786 17.7707 4 17.1566 4H10.4286C9.81451 4 9.31665 4.49786 9.31665 5.112V7.2H6.26065C5.44459 7.21682 4.78584 7.87204 4.76465 8.688V18.464C4.76437 19.2969 5.428 19.9783 6.26065 20H13.0446V16H14.6446V20H19.2686C20.1169 20 20.8046 19.3123 20.8046 18.464V12.528C20.8046 12.1214 20.6425 11.7315 20.3542 11.4447C20.0659 11.1579 19.6752 10.9979 19.2686 11ZM8.47665 16.8H6.87665V15.2H8.47665V16.8ZM8.47665 14.4H6.87665V12.8H8.47665V14.4ZM8.47665 12H6.87665V10.4H8.47665V12ZM13.5646 14.792H11.9646V13.192H13.5646V14.792ZM13.5646 11.592H11.9646V9.992H13.5646V11.592ZM13.5646 8.392H11.9646V6.792H13.5646V8.392ZM15.6846 14.792H14.0846V13.192H15.6846V14.792ZM15.6846 11.592H14.0846V9.992H15.6846V11.592ZM15.6846 8.392H14.0846V6.792H15.6846V8.392Z"
    fill="#FF6600"
  />
</svg>
