<svg
  width="24"
  height="24"
  viewBox="0 0 24 24"
  fill="none"
  xmlns="http://www.w3.org/2000/svg"
>
  <path
    d="M21.6402 10.0001L12.6402 2.29011C12.266 1.97003 11.7145 1.97003 11.3402 2.29011L2.36023 10.0001C2.07268 10.2762 1.97654 10.6966 2.11555 11.0702C2.25456 11.4438 2.60216 11.6992 3.00023 11.7201C3.22235 11.7166 3.43698 11.6392 3.61023 11.5001V19.6401C3.59952 20.2606 3.83784 20.8595 4.27193 21.303C4.70601 21.7464 5.29967 21.9975 5.92023 22.0001H9.00023V15.7001C9.00023 14.9821 9.58226 14.4001 10.3002 14.4001H13.7002C14.4182 14.4001 15.0002 14.9821 15.0002 15.7001V22.0001H18.0802C18.6973 21.9948 19.2868 21.744 19.7185 21.303C20.1501 20.8619 20.3882 20.2671 20.3802 19.6501V11.4901C20.7963 11.8203 21.3979 11.7676 21.7502 11.3701C22.0829 10.9566 22.0346 10.3552 21.6402 10.0001Z"
    fill="#FF6600"
  />
</svg>
