<svg
  width="24"
  height="24"
  viewBox="0 0 24 24"
  fill="none"
  xmlns="http://www.w3.org/2000/svg"
>
  <path
    d="M21.6399 10.4601L12.6399 2.75008C12.2657 2.42999 11.7142 2.42999 11.3399 2.75008L2.33993 10.4601C2.02029 10.7334 1.9058 11.1775 2.05347 11.5712C2.20113 11.965 2.5794 12.2243 2.99993 12.2201C3.2255 12.2188 3.44399 12.1412 3.61993 12.0001V20.1401C3.61193 20.7571 3.85008 21.3519 4.2817 21.7929C4.71333 22.2339 5.30287 22.4848 5.91993 22.4901H18.0799C18.697 22.4848 19.2865 22.2339 19.7182 21.7929C20.1498 21.3519 20.3879 20.7571 20.3799 20.1401V12.0001C20.8079 12.2833 21.3808 12.1965 21.7057 11.7994C22.0307 11.4022 22.0023 10.8235 21.6399 10.4601ZM10.9999 20.4901V16.9001H12.9999V20.4901H10.9999ZM18.0799 20.4901H14.9999V16.2001C14.9999 15.4821 14.4179 14.9001 13.6999 14.9001H10.2999C9.58196 14.9001 8.99993 15.4821 8.99993 16.2001V20.4901H5.91993C5.74151 20.4742 5.60837 20.3188 5.61993 20.1401V10.2901L11.9999 4.82008L18.3799 10.2901V20.1401C18.3915 20.3188 18.2583 20.4742 18.0799 20.4901Z"
    fill="#FF6600"
  />
</svg>
