<svg
  width="24"
  height="24"
  viewBox="0 0 24 24"
  fill="none"
  xmlns="http://www.w3.org/2000/svg"
>
  <path
    d="M10.4698 16.4759L11.2033 15.5384L9.44107 14.0385L8.12626 15.7198C7.96756 15.9227 7.87922 16.1737 7.87512 16.4334C7.87102 16.6932 7.95138 16.947 8.1036 17.155L9.47907 19.03C9.56903 19.1534 9.68196 19.2574 9.81136 19.3361C9.94077 19.4147 10.0841 19.4664 10.2331 19.4882C10.3821 19.51 10.5339 19.5015 10.6797 19.4631C10.8255 19.4247 10.9624 19.3572 11.0826 19.2645C11.3257 19.078 11.4864 18.8005 11.5294 18.4929C11.5724 18.1852 11.4942 17.8727 11.3119 17.6241L10.4698 16.4759ZM14.5583 14.0385L12.7961 15.5384L13.5295 16.4759L12.6874 17.6241C12.5128 17.8732 12.4406 18.1823 12.4862 18.4852C12.5318 18.7881 12.6917 19.0607 12.9314 19.2445C13.1712 19.4284 13.4719 19.5089 13.769 19.4688C14.0661 19.4287 14.336 19.2711 14.5209 19.03L15.8964 17.155C16.0483 16.9469 16.1285 16.6931 16.1244 16.4335C16.1202 16.1738 16.0321 15.9228 15.8737 15.7198L14.5583 14.0385ZM17.2912 8.74693C17.1166 8.49279 16.8506 8.31985 16.5515 8.26603C16.2524 8.21222 15.9446 8.28194 15.6957 8.45989L14.5323 9.29507C13.7891 9.82437 12.9053 10.1082 11.9997 10.1082C11.0941 10.1082 10.2102 9.82437 9.46707 9.29507L8.30362 8.4633C8.05512 8.28501 7.74762 8.21474 7.44854 8.26791C7.14946 8.32108 6.8832 8.49334 6.70812 8.74693C6.53362 9.00117 6.46489 9.31587 6.51702 9.62187C6.56914 9.92787 6.73786 10.2003 6.98615 10.3792L8.1496 11.2144C8.63257 11.5545 9.15653 11.8293 9.70843 12.0319V12.9373H14.2922V12.0353C14.844 11.8324 15.3679 11.5576 15.8511 11.2178L17.0145 10.3826C17.5319 10.0069 17.6546 9.27737 17.2912 8.74693Z"
    fill="#FF6600"
  />
  <path
    d="M12 9C13.3807 9 14.5 7.88071 14.5 6.5C14.5 5.11929 13.3807 4 12 4C10.6193 4 9.5 5.11929 9.5 6.5C9.5 7.88071 10.6193 9 12 9Z"
    fill="#FF6600"
  />
</svg>
