<svg width="25" height="24" viewBox="0 0 25 24" fill="none" xmlns="http://www.w3.org/2000/svg">
  <path
    d="M11.2344 16.4759L11.9679 15.5384L10.2057 14.0385L8.89091 15.7198C8.73221 15.9227 8.64387 16.1737 8.63977 16.4334C8.63567 16.6932 8.71603 16.947 8.86825 17.155L10.2437 19.03C10.3337 19.1534 10.4466 19.2574 10.576 19.3361C10.7054 19.4147 10.8487 19.4664 10.9977 19.4882C11.1467 19.51 11.2985 19.5015 11.4443 19.4631C11.5901 19.4247 11.727 19.3572 11.8472 19.2645C12.0903 19.078 12.251 18.8005 12.294 18.4929C12.337 18.1852 12.2588 17.8727 12.0765 17.6241L11.2344 16.4759ZM15.3229 14.0385L13.5607 15.5384L14.2941 16.4759L13.452 17.6241C13.2774 17.8732 13.2052 18.1823 13.2508 18.4852C13.2964 18.7881 13.4563 19.0607 13.696 19.2445C13.9358 19.4284 14.2365 19.5089 14.5336 19.4688C14.8307 19.4287 15.1006 19.2711 15.2855 19.03L16.661 17.155C16.8129 16.9469 16.8931 16.6931 16.889 16.4335C16.8848 16.1738 16.7967 15.9228 16.6383 15.7198L15.3229 14.0385ZM18.0558 8.74693C17.8812 8.49279 17.6152 8.31985 17.3161 8.26603C17.017 8.21222 16.7092 8.28194 16.4603 8.45989L15.2969 9.29507C14.5537 9.82437 13.6699 10.1082 12.7643 10.1082C11.8587 10.1082 10.9748 9.82437 10.2317 9.29507L9.06827 8.4633C8.81977 8.28501 8.51227 8.21474 8.21319 8.26791C7.91411 8.32108 7.64785 8.49334 7.47277 8.74693C7.29827 9.00117 7.22954 9.31587 7.28167 9.62187C7.33379 9.92787 7.50251 10.2003 7.7508 10.3792L8.91425 11.2144C9.39722 11.5545 9.92118 11.8293 10.4731 12.0319V12.9373H15.0568V12.0353C15.6086 11.8324 16.1325 11.5576 16.6157 11.2178L17.7791 10.3826C18.2965 10.0069 18.4192 9.27737 18.0558 8.74693Z"
    fill="#FF6600"
  />
  <path
    d="M12.7646 9C14.1453 9 15.2646 7.88071 15.2646 6.5C15.2646 5.11929 14.1453 4 12.7646 4C11.3839 4 10.2646 5.11929 10.2646 6.5C10.2646 7.88071 11.3839 9 12.7646 9Z"
    fill="#FF6600"
  />
</svg>
