<svg
  width="24"
  height="24"
  viewBox="0 0 24 24"
  fill="none"
  xmlns="http://www.w3.org/2000/svg"
>
  <path
    d="M14.7468 17.0491L15.2948 16.3202L13.978 15.1541L12.9955 16.4612C12.8769 16.6189 12.8109 16.8141 12.8078 17.016C12.8048 17.218 12.8648 17.4153 12.9786 17.577L14.0064 19.0346C14.0736 19.1306 14.158 19.2115 14.2547 19.2726C14.3514 19.3337 14.4585 19.3739 14.5699 19.3909C14.6812 19.4078 14.7946 19.4012 14.9036 19.3713C15.0125 19.3415 15.1148 19.289 15.2046 19.217C15.3863 19.072 15.5064 18.8562 15.5385 18.6171C15.5706 18.3779 15.5122 18.135 15.376 17.9417L14.7468 17.0491ZM17.8019 15.1541L16.4851 16.3202L17.0331 17.0491L16.4039 17.9417C16.2734 18.1353 16.2194 18.3756 16.2535 18.6111C16.2876 18.8466 16.407 19.0585 16.5862 19.2014C16.7654 19.3443 16.99 19.4069 17.2121 19.3758C17.4341 19.3446 17.6358 19.2221 17.774 19.0346L18.8018 17.577C18.9153 17.4152 18.9752 17.2179 18.9721 17.016C18.9691 16.8142 18.9032 16.6191 18.7849 16.4612L17.8019 15.1541ZM19.8441 11.0404C19.7136 10.8428 19.5148 10.7083 19.2913 10.6665C19.0678 10.6247 18.8378 10.6789 18.6518 10.8172L17.7824 11.4665C17.2271 11.878 16.5667 12.0986 15.8899 12.0986C15.2132 12.0986 14.5527 11.878 13.9974 11.4665L13.128 10.8199C12.9423 10.6813 12.7126 10.6266 12.4891 10.668C12.2656 10.7093 12.0666 10.8432 11.9358 11.0404C11.8054 11.238 11.754 11.4827 11.793 11.7206C11.8319 11.9585 11.958 12.1702 12.1436 12.3093L13.013 12.9586C13.3739 13.223 13.7654 13.4366 14.1778 13.5942V14.2981H17.6031V13.5968C18.0154 13.4391 18.4069 13.2255 18.7679 12.9613L19.6373 12.312C20.0239 12.0199 20.1156 11.4527 19.8441 11.0404Z"
    fill="#FF6600"
  />
  <path
    d="M6.96649 14.7104L7.51454 13.9816L6.19773 12.8155L5.21524 14.1226C5.09664 14.2803 5.03063 14.4755 5.02757 14.6774C5.0245 14.8793 5.08455 15.0767 5.1983 15.2384L6.22613 16.696C6.29335 16.792 6.37774 16.8728 6.47444 16.934C6.57114 16.9951 6.67825 17.0353 6.7896 17.0523C6.90096 17.0692 7.01437 17.0626 7.1233 17.0327C7.23223 17.0029 7.33455 16.9504 7.42436 16.8784C7.606 16.7334 7.72609 16.5176 7.75823 16.2784C7.79037 16.0393 7.73193 15.7964 7.59575 15.603L6.96649 14.7104ZM10.0216 12.8155L8.70479 13.9816L9.25284 14.7104L8.62358 15.603C8.49313 15.7967 8.43917 16.037 8.47325 16.2725C8.50734 16.508 8.62676 16.7199 8.80593 16.8628C8.9851 17.0057 9.20977 17.0683 9.43179 17.0371C9.6538 17.006 9.85551 16.8835 9.99369 16.696L11.0215 15.2384C11.135 15.0766 11.1949 14.8793 11.1919 14.6774C11.1888 14.4755 11.1229 14.2804 11.0046 14.1226L10.0216 12.8155ZM12.0638 8.70174C11.9334 8.50417 11.7346 8.36972 11.5111 8.32788C11.2875 8.28605 11.0576 8.34025 10.8716 8.47859L10.0022 9.1279C9.44686 9.5394 8.78639 9.76 8.10966 9.76C7.43294 9.76 6.77246 9.5394 6.21716 9.1279L5.34776 8.48124C5.16207 8.34263 4.93229 8.288 4.7088 8.32934C4.48531 8.37067 4.28635 8.50459 4.15552 8.70174C4.02512 8.8994 3.97376 9.144 4.01272 9.3819C4.05167 9.6198 4.17774 9.8316 4.36328 9.9707L5.23267 10.62C5.59358 10.8844 5.98511 11.098 6.39752 11.2555V11.9595H9.8228V11.2582C10.2351 11.1004 10.6266 10.8868 10.9876 10.6227L11.857 9.9733C12.2437 9.6813 12.3353 9.1141 12.0638 8.70174Z"
    fill="#FF6600"
  />
  <path
    d="M8.1499 9C9.25447 9 10.1499 8.10457 10.1499 7C10.1499 5.89543 9.25447 5 8.1499 5C7.04533 5 6.1499 5.89543 6.1499 7C6.1499 8.10457 7.04533 9 8.1499 9Z"
    fill="#FF6600"
  />
  <path
    d="M15.8999 11.3C17.0045 11.3 17.8999 10.4046 17.8999 9.3C17.8999 8.19548 17.0045 7.30005 15.8999 7.30005C14.7953 7.30005 13.8999 8.19548 13.8999 9.3C13.8999 10.4046 14.7953 11.3 15.8999 11.3Z"
    fill="#FF6600"
  />
</svg>
