<svg width="25" height="24" viewBox="0 0 25 24" fill="none" xmlns="http://www.w3.org/2000/svg">
  <path
    d="M15.5115 17.0491L16.0595 16.3202L14.7427 15.1541L13.7602 16.4612C13.6416 16.6189 13.5756 16.8141 13.5725 17.016C13.5695 17.218 13.6295 17.4153 13.7433 17.577L14.7711 19.0346C14.8383 19.1306 14.9227 19.2115 15.0194 19.2726C15.1161 19.3337 15.2232 19.3739 15.3346 19.3909C15.4459 19.4078 15.5593 19.4012 15.6683 19.3713C15.7772 19.3415 15.8795 19.289 15.9693 19.217C16.151 19.072 16.2711 18.8562 16.3032 18.6171C16.3353 18.3779 16.2769 18.135 16.1407 17.9417L15.5115 17.0491ZM18.5666 15.1541L17.2498 16.3202L17.7978 17.0491L17.1686 17.9417C17.0381 18.1353 16.9841 18.3756 17.0182 18.6111C17.0523 18.8466 17.1717 19.0585 17.3509 19.2014C17.5301 19.3443 17.7547 19.4069 17.9768 19.3758C18.1988 19.3446 18.4005 19.2221 18.5387 19.0346L19.5665 17.577C19.68 17.4152 19.7399 17.2179 19.7368 17.016C19.7338 16.8142 19.6679 16.6191 19.5496 16.4612L18.5666 15.1541ZM20.6088 11.0404C20.4783 10.8428 20.2795 10.7083 20.056 10.6665C19.8325 10.6247 19.6025 10.6789 19.4165 10.8172L18.5471 11.4665C17.9918 11.878 17.3314 12.0986 16.6546 12.0986C15.9779 12.0986 15.3174 11.878 14.7621 11.4665L13.8927 10.8199C13.707 10.6813 13.4773 10.6266 13.2538 10.668C13.0303 10.7093 12.8313 10.8432 12.7005 11.0404C12.5701 11.238 12.5187 11.4827 12.5577 11.7206C12.5966 11.9585 12.7227 12.1702 12.9083 12.3093L13.7777 12.9586C14.1386 13.223 14.5301 13.4366 14.9425 13.5942V14.2981H18.3678V13.5968C18.7801 13.4391 19.1716 13.2255 19.5326 12.9613L20.402 12.312C20.7886 12.0199 20.8803 11.4527 20.6088 11.0404Z"
    fill="#FF6600"
  />
  <path
    d="M7.73114 14.7104L8.27919 13.9816L6.96238 12.8155L5.97989 14.1226C5.86129 14.2803 5.79528 14.4755 5.79222 14.6774C5.78915 14.8793 5.8492 15.0767 5.96295 15.2384L6.99078 16.696C7.058 16.792 7.14239 16.8728 7.23909 16.934C7.33579 16.9951 7.4429 17.0353 7.55425 17.0523C7.66561 17.0692 7.77902 17.0626 7.88795 17.0327C7.99688 17.0029 8.0992 16.9504 8.18901 16.8784C8.37065 16.7334 8.49074 16.5176 8.52288 16.2784C8.55502 16.0393 8.49658 15.7964 8.3604 15.603L7.73114 14.7104ZM10.7862 12.8155L9.46944 13.9816L10.0175 14.7104L9.38823 15.603C9.25778 15.7967 9.20382 16.037 9.2379 16.2725C9.27199 16.508 9.39141 16.7199 9.57058 16.8628C9.74975 17.0057 9.97442 17.0683 10.1964 17.0371C10.4184 17.006 10.6202 16.8835 10.7583 16.696L11.7861 15.2384C11.8996 15.0766 11.9595 14.8793 11.9565 14.6774C11.9534 14.4755 11.8875 14.2804 11.7692 14.1226L10.7862 12.8155ZM12.8284 8.70174C12.698 8.50417 12.4992 8.36972 12.2757 8.32788C12.0521 8.28605 11.8222 8.34025 11.6362 8.47859L10.7668 9.1279C10.2115 9.5394 9.55104 9.76 8.87431 9.76C8.19759 9.76 7.53711 9.5394 6.98181 9.1279L6.11241 8.48124C5.92672 8.34263 5.69694 8.288 5.47345 8.32934C5.24996 8.37067 5.051 8.50459 4.92017 8.70174C4.78977 8.8994 4.73841 9.144 4.77737 9.3819C4.81632 9.6198 4.94239 9.8316 5.12793 9.9707L5.99732 10.62C6.35823 10.8844 6.74976 11.098 7.16217 11.2555V11.9595H10.5874V11.2582C10.9997 11.1004 11.3912 10.8868 11.7522 10.6227L12.6216 9.9733C13.0083 9.6813 13.0999 9.1141 12.8284 8.70174Z"
    fill="#FF6600"
  />
  <path
    d="M8.91455 9C10.0191 9 10.9146 8.10457 10.9146 7C10.9146 5.89543 10.0191 5 8.91455 5C7.80998 5 6.91455 5.89543 6.91455 7C6.91455 8.10457 7.80998 9 8.91455 9Z"
    fill="#FF6600"
  />
  <path
    d="M16.6646 11.3C17.7692 11.3 18.6646 10.4046 18.6646 9.3C18.6646 8.19548 17.7692 7.30005 16.6646 7.30005C15.56 7.30005 14.6646 8.19548 14.6646 9.3C14.6646 10.4046 15.56 11.3 16.6646 11.3Z"
    fill="#FF6600"
  />
</svg>
