<svg width="25" height="24" viewBox="0 0 25 24" fill="none" xmlns="http://www.w3.org/2000/svg">
  <path
    fill-rule="evenodd"
    clip-rule="evenodd"
    d="M1.76465 12C1.76465 5.92487 6.68952 1 12.7646 1C18.8397 1 23.7646 5.92487 23.7646 12C23.7646 18.0751 18.8397 23 12.7646 23C6.68952 23 1.76465 18.0751 1.76465 12ZM12.7646 11C13.3169 11 13.7646 11.4477 13.7646 12V16C13.7646 16.5523 13.3169 17 12.7646 17C12.2123 17 11.7646 16.5523 11.7646 16V12C11.7646 11.4477 12.2123 11 12.7646 11ZM12.7646 7C12.2123 7 11.7646 7.44772 11.7646 8C11.7646 8.55228 12.2123 9 12.7646 9H12.7746C13.3269 9 13.7746 8.55228 13.7746 8C13.7746 7.44772 13.3269 7 12.7746 7H12.7646Z"
    fill="#FF6600"
  />
</svg>
