<svg width="25" height="24" viewBox="0 0 25 24" fill="none" xmlns="http://www.w3.org/2000/svg">
  <path
    d="M16.7646 2C20.0783 2 22.7646 4.68629 22.7646 8V16C22.7646 19.3137 20.0783 22 16.7646 22H8.76465C5.45094 22 2.76465 19.3137 2.76465 16V8C2.76465 4.68629 5.45094 2 8.76465 2H16.7646ZM16.7646 4H8.76465C6.55551 4 4.76465 5.79086 4.76465 8V16C4.76465 18.2091 6.55551 20 8.76465 20H16.7646C18.9737 20 20.7646 18.2091 20.7646 16V8C20.7646 5.79086 18.9737 4 16.7646 4ZM12.7646 6.83C15.6176 6.8355 17.9291 9.147 17.9346 12C17.9346 14.8553 15.6199 17.17 12.7646 17.17C9.90934 17.17 7.59465 14.8553 7.59465 12C7.59465 9.1447 9.90934 6.83 12.7646 6.83ZM12.7646 8.84C11.0194 8.84 9.60465 10.2548 9.60465 12C9.60465 13.7452 11.0194 15.16 12.7646 15.16C13.6035 15.1627 14.4088 14.8306 15.002 14.2374C15.5952 13.6442 15.9273 12.8389 15.9246 12C15.9246 10.2548 14.5098 8.84 12.7646 8.84ZM17.9446 5.63C18.2735 5.63 18.5889 5.76064 18.8214 5.99319C19.054 6.22573 19.1846 6.54113 19.1846 6.87C19.1846 7.55483 18.6294 8.11 17.9446 8.11C17.2598 8.11 16.7046 7.55483 16.7046 6.87C16.7046 6.18517 17.2598 5.63 17.9446 5.63Z"
    fill="#FF6600"
  />
</svg>
