<svg
  width="24"
  height="24"
  viewBox="0 0 24 24"
  fill="none"
  xmlns="http://www.w3.org/2000/svg"
>
  <path
    d="M16 2C19.3137 2 22 4.68629 22 8V16C22 19.3137 19.3137 22 16 22H8C4.68629 22 2 19.3137 2 16V8C2 4.68629 4.68629 2 8 2H16ZM16 4H8C5.79086 4 4 5.79086 4 8V16C4 18.2091 5.79086 20 8 20H16C18.2091 20 20 18.2091 20 16V8C20 5.79086 18.2091 4 16 4ZM12 6.83C14.853 6.8355 17.1645 9.147 17.17 12C17.17 14.8553 14.8553 17.17 12 17.17C9.14469 17.17 6.83 14.8553 6.83 12C6.83 9.1447 9.14469 6.83 12 6.83ZM12 8.84C10.2548 8.84 8.84 10.2548 8.84 12C8.84 13.7452 10.2548 15.16 12 15.16C12.8389 15.1627 13.6442 14.8306 14.2374 14.2374C14.8306 13.6442 15.1627 12.8389 15.16 12C15.16 10.2548 13.7452 8.84 12 8.84ZM17.18 5.63C17.5089 5.63 17.8243 5.76064 18.0568 5.99319C18.2894 6.22573 18.42 6.54113 18.42 6.87C18.42 7.55483 17.8648 8.11 17.18 8.11C16.4952 8.11 15.94 7.55483 15.94 6.87C15.94 6.18517 16.4952 5.63 17.18 5.63Z"
    fill="#FF6600"
  />
</svg>
