<svg
  width="24"
  height="24"
  viewBox="0 0 24 24"
  fill="none"
  xmlns="http://www.w3.org/2000/svg"
>
  <path
    d="M20.5301 5.51996C20.5021 5.24144 20.2791 5.02269 20.0001 4.99996C17.2067 5.01358 14.5043 4.00729 12.4001 2.16996C12.1707 1.97069 11.8296 1.97069 11.6001 2.16996C9.50888 3.99592 6.82634 5.00143 4.05012 4.99996C3.73745 4.99978 3.4809 5.24748 3.47012 5.55996C3.41012 11.14 2.60012 18.75 11.7801 21.98C11.9225 22.0303 12.0778 22.0303 12.2201 21.98C21.4001 18.71 20.5901 11.1 20.5301 5.51996ZM16.5301 12.12H12.5301V16.12C12.5248 16.3939 12.304 16.6146 12.0301 16.62C11.754 16.62 11.5301 16.3961 11.5301 16.12V12.12H7.53012C7.25398 12.12 7.03012 11.8961 7.03012 11.62C7.03012 11.3438 7.25398 11.12 7.53012 11.12H11.5301V7.11996C11.5301 6.84382 11.754 6.61996 12.0301 6.61996C12.3063 6.61996 12.5301 6.84382 12.5301 7.11996V11.12H16.5301C16.8063 11.12 17.0301 11.3438 17.0301 11.62C17.0275 11.7552 16.9712 11.8839 16.8737 11.9777C16.7762 12.0715 16.6454 12.1226 16.5101 12.12H16.5301Z"
    fill="#FF6600"
  />
</svg>
