<svg
  width="24"
  height="24"
  viewBox="0 0 24 24"
  fill="none"
  xmlns="http://www.w3.org/2000/svg"
>
  <path
    d="M11.6001 2.16996C11.8295 1.97069 12.1707 1.97069 12.4001 2.16996C14.5043 4.00729 17.2067 5.01358 20.0001 4.99996C20.2791 5.02269 20.5021 5.24144 20.5301 5.51996C20.5396 6.40102 20.5678 7.33268 20.5723 8.28995L20.5725 8.77061C20.5495 13.7571 19.7091 19.316 12.2201 22C12.1475 22.0143 12.0727 22.0143 12.0001 22C11.9262 22.0085 11.8513 22.0017 11.7801 21.98C4.29116 19.345 3.45068 13.795 3.42773 8.81024L3.42787 8.32972C3.43246 7.37268 3.46063 6.44102 3.47011 5.55996C3.48089 5.24748 3.73743 4.99978 4.05011 4.99996C6.82633 5.00143 9.50886 3.99592 11.6001 2.16996ZM12.0001 4.40996C10.0737 5.795 7.81257 6.64077 5.45011 6.85996C5.35011 12 5.31011 17.32 12.0001 19.89C18.4671 17.4056 18.6453 12.3516 18.5597 7.37446L18.5501 6.85996C16.1873 6.6422 13.9258 5.79629 12.0001 4.40996ZM12.0101 6.61996C12.2863 6.61996 12.5101 6.84382 12.5101 7.11996V11.12H16.5101C16.7863 11.12 17.0101 11.3438 17.0101 11.62C17.0048 11.8939 16.784 12.1146 16.5101 12.12H12.5101V16.12C12.5048 16.3939 12.284 16.6146 12.0101 16.62C11.734 16.62 11.5101 16.3961 11.5101 16.12V12.12H7.51011C7.23397 12.12 7.01011 11.8961 7.01011 11.62C7.01011 11.3438 7.23397 11.12 7.51011 11.12H11.5101V7.11996C11.5101 6.84382 11.734 6.61996 12.0101 6.61996Z"
    fill="#FF6600"
  />
</svg>
