<svg width="25" height="24" viewBox="0 0 25 24" fill="none" xmlns="http://www.w3.org/2000/svg">
  <path
    d="M12.3648 2.16996C12.5942 1.97069 12.9354 1.97069 13.1648 2.16996C15.269 4.00729 17.9714 5.01358 20.7648 4.99996C21.0438 5.02269 21.2668 5.24144 21.2948 5.51996C21.3043 6.40102 21.3325 7.33268 21.337 8.28995L21.3372 8.77061C21.3142 13.7571 20.4738 19.316 12.9848 22C12.9122 22.0143 12.8374 22.0143 12.7648 22C12.6909 22.0085 12.616 22.0017 12.5448 21.98C5.05581 19.345 4.21533 13.795 4.19238 8.81024L4.19252 8.32972C4.19711 7.37268 4.22528 6.44102 4.23476 5.55996C4.24554 5.24748 4.50208 4.99978 4.81476 4.99996C7.59098 5.00143 10.2735 3.99592 12.3648 2.16996ZM12.7648 4.40996C10.8384 5.795 8.57722 6.64077 6.21476 6.85996C6.11476 12 6.07476 17.32 12.7648 19.89C19.2318 17.4056 19.41 12.3516 19.3244 7.37446L19.3148 6.85996C16.952 6.6422 14.6905 5.79629 12.7648 4.40996ZM12.7748 6.61996C13.051 6.61996 13.2748 6.84382 13.2748 7.11996V11.12H17.2748C17.551 11.12 17.7748 11.3438 17.7748 11.62C17.7695 11.8939 17.5487 12.1146 17.2748 12.12H13.2748V16.12C13.2695 16.3939 13.0487 16.6146 12.7748 16.62C12.4987 16.62 12.2748 16.3961 12.2748 16.12V12.12H8.27476C7.99862 12.12 7.77476 11.8961 7.77476 11.62C7.77476 11.3438 7.99862 11.12 8.27476 11.12H12.2748V7.11996C12.2748 6.84382 12.4987 6.61996 12.7748 6.61996Z"
    fill="#FF6600"
  />
</svg>
