<svg width="25" height="24" viewBox="0 0 25 24" fill="none" xmlns="http://www.w3.org/2000/svg">
  <path
    d="M21.2947 5.51996C21.2667 5.24144 21.0437 5.02269 20.7647 4.99996C17.9713 5.01358 15.2689 4.00729 13.1647 2.16996C12.9353 1.97069 12.5942 1.97069 12.3647 2.16996C10.2735 3.99592 7.59099 5.00143 4.81477 4.99996C4.5021 4.99978 4.24555 5.24748 4.23477 5.55996C4.17477 11.14 3.36477 18.75 12.5447 21.98C12.6871 22.0303 12.8424 22.0303 12.9847 21.98C22.1647 18.71 21.3547 11.1 21.2947 5.51996ZM17.2947 12.12H13.2947V16.12C13.2894 16.3939 13.0686 16.6146 12.7947 16.62C12.5186 16.62 12.2947 16.3961 12.2947 16.12V12.12H8.29477C8.01863 12.12 7.79477 11.8961 7.79477 11.62C7.79477 11.3438 8.01863 11.12 8.29477 11.12H12.2947V7.11996C12.2947 6.84382 12.5186 6.61996 12.7947 6.61996C13.0709 6.61996 13.2947 6.84382 13.2947 7.11996V11.12H17.2947C17.5709 11.12 17.7947 11.3438 17.7947 11.62C17.7921 11.7552 17.7358 11.8839 17.6383 11.9777C17.5408 12.0715 17.41 12.1226 17.2747 12.12H17.2947Z"
    fill="#FF6600"
  />
</svg>
