<svg
  width="24"
  height="24"
  viewBox="0 0 24 24"
  fill="none"
  xmlns="http://www.w3.org/2000/svg"
>
  <path
    d="M21.4761 11.7079C21.7683 11.4157 22.1321 11.4157 22.4243 11.7079C22.7165 12.0001 22.7165 12.4011 22.4243 12.6561L19.6902 15.3531V16.4459L20.9292 18.7061C21.0022 18.7791 20.9292 18.888 20.8203 18.888H19.1803V22.2782C19.1803 22.6421 18.8881 22.9342 18.5243 22.9342C18.1605 22.9342 17.8683 22.642 17.8683 22.2782V18.888H17.2839V22.2782C17.2839 22.6421 16.9917 22.9342 16.6279 22.9342C16.2641 22.9342 15.9719 22.642 15.9719 22.2782V18.888H14.3319C14.2589 18.888 14.1873 18.815 14.2231 18.7061L15.462 16.4459V15.3531L12.765 12.6561C12.51 12.3997 12.51 11.9628 12.765 11.7079C13.0214 11.453 13.421 11.453 13.7131 11.7079L15.6453 13.6043C15.7556 13.4209 15.9733 13.3121 16.1924 13.3121H18.9983C19.2174 13.3121 19.4366 13.4224 19.5454 13.6043L21.4761 11.7079ZM10.2495 11.6719C10.5417 11.3797 10.9428 11.3797 11.1977 11.6719C11.4169 11.9641 11.4169 12.401 11.1247 12.6559L8.42771 15.3529V18.196L8.42342 22.2796C8.42342 22.7179 7.94932 23.0459 7.51247 22.8998C7.25752 22.8267 7.07562 22.536 7.07562 22.2438V19.5826C7.07562 19.2188 6.78489 18.8908 6.38383 18.8908H6.27498C5.91118 18.8908 5.58319 19.1815 5.58319 19.5826V22.2796C5.58319 22.7179 5.10909 23.0459 4.67224 22.8998C4.41729 22.8267 4.23539 22.536 4.23539 22.2438V15.3185L1.53838 12.6215C1.28343 12.3651 1.28343 11.9283 1.53838 11.6734C1.79475 11.4184 2.19435 11.4184 2.48654 11.6734L4.41869 13.5683C4.52898 13.385 4.74669 13.2761 4.96583 13.2761L7.77024 13.2747C7.98939 13.2747 8.20853 13.385 8.31738 13.5669L10.2495 11.6719ZM19.18 11.1978C19.18 13.3362 15.9731 13.3362 15.9731 11.1978C15.9731 9.0594 19.18 9.0594 19.18 11.1978ZM7.9538 11.1978C7.9538 13.3362 4.7469 13.3362 4.7469 11.1978C4.7469 9.0594 7.9538 9.0594 7.9538 11.1978ZM20.6023 7.77206C20.6023 8.20891 19.9463 8.20891 19.9463 7.77206C19.9463 7.33521 20.6023 7.33521 20.6023 7.77206ZM4.16393 7.77206C4.16393 8.20891 3.50793 8.20891 3.50793 7.77206C3.50793 7.33521 4.16393 7.33521 4.16393 7.77206ZM13.8949 6.67903C13.8949 7.11587 13.2389 7.11587 13.2389 6.67903C13.2389 6.24075 13.8949 6.24075 13.8949 6.67903ZM8.6468 4.89299C8.6468 5.32984 7.99079 5.32984 7.99079 4.89299C7.99079 4.45472 8.6468 4.45472 8.6468 4.89299ZM17.6862 4.60076C17.6862 5.3298 16.592 5.3298 16.592 4.60076C16.592 3.87172 17.6862 3.87172 17.6862 4.60076ZM12.6559 4.38333C12.6559 4.82017 11.9999 4.82017 11.9999 4.38333C11.9999 3.94505 12.6559 3.94505 12.6559 4.38333ZM5.32993 3.61699C5.32993 4.19992 4.45481 4.19992 4.45481 3.61699C4.45481 3.03407 5.32993 3.03407 5.32993 3.61699ZM20.2742 2.30506C20.2742 2.74191 19.6167 2.74191 19.6167 2.30506C19.6167 1.86821 20.2742 1.86821 20.2742 2.30506ZM7.9538 1.39389C7.9538 1.83074 7.29779 1.83074 7.29779 1.39389C7.29779 0.955618 7.9538 0.955618 7.9538 1.39389Z"
    fill="#FF6600"
  />
</svg>
