<svg width="25" height="24" viewBox="0 0 25 24" fill="none" xmlns="http://www.w3.org/2000/svg">
  <path
    d="M22.2407 11.7079C22.5329 11.4157 22.8967 11.4157 23.1889 11.7079C23.4811 12.0001 23.4811 12.4011 23.1889 12.6561L20.4548 15.3531V16.4459L21.6938 18.7061C21.7668 18.7791 21.6938 18.888 21.5849 18.888H19.9449V22.2782C19.9449 22.6421 19.6527 22.9342 19.2889 22.9342C18.9251 22.9342 18.6329 22.642 18.6329 22.2782V18.888H18.0485V22.2782C18.0485 22.6421 17.7563 22.9342 17.3925 22.9342C17.0287 22.9342 16.7365 22.642 16.7365 22.2782V18.888H15.0965C15.0235 18.888 14.9519 18.815 14.9877 18.7061L16.2266 16.4459V15.3531L13.5296 12.6561C13.2746 12.3997 13.2746 11.9628 13.5296 11.7079C13.786 11.453 14.1856 11.453 14.4777 11.7079L16.4099 13.6043C16.5202 13.4209 16.7379 13.3121 16.957 13.3121H19.7629C19.982 13.3121 20.2012 13.4224 20.31 13.6043L22.2407 11.7079ZM11.0141 11.6719C11.3063 11.3797 11.7074 11.3797 11.9623 11.6719C12.1815 11.9641 12.1815 12.401 11.8893 12.6559L9.19236 15.3529V18.196L9.18807 22.2796C9.18807 22.7179 8.71397 23.0459 8.27712 22.8998C8.02217 22.8267 7.84027 22.536 7.84027 22.2438V19.5826C7.84027 19.2188 7.54954 18.8908 7.14848 18.8908H7.03963C6.67583 18.8908 6.34784 19.1815 6.34784 19.5826V22.2796C6.34784 22.7179 5.87374 23.0459 5.43689 22.8998C5.18194 22.8267 5.00004 22.536 5.00004 22.2438V15.3185L2.30303 12.6215C2.04808 12.3651 2.04808 11.9283 2.30303 11.6734C2.5594 11.4184 2.959 11.4184 3.25119 11.6734L5.18334 13.5683C5.29363 13.385 5.51134 13.2761 5.73048 13.2761L8.53489 13.2747C8.75404 13.2747 8.97318 13.385 9.08203 13.5669L11.0141 11.6719ZM19.9446 11.1978C19.9446 13.3362 16.7377 13.3362 16.7377 11.1978C16.7377 9.0594 19.9446 9.0594 19.9446 11.1978ZM8.71845 11.1978C8.71845 13.3362 5.51155 13.3362 5.51155 11.1978C5.51155 9.0594 8.71845 9.0594 8.71845 11.1978ZM21.3669 7.77206C21.3669 8.20891 20.7109 8.20891 20.7109 7.77206C20.7109 7.33521 21.3669 7.33521 21.3669 7.77206ZM4.92858 7.77206C4.92858 8.20891 4.27258 8.20891 4.27258 7.77206C4.27258 7.33521 4.92858 7.33521 4.92858 7.77206ZM14.6595 6.67903C14.6595 7.11587 14.0035 7.11587 14.0035 6.67903C14.0035 6.24075 14.6595 6.24075 14.6595 6.67903ZM9.41145 4.89299C9.41145 5.32984 8.75544 5.32984 8.75544 4.89299C8.75544 4.45472 9.41145 4.45472 9.41145 4.89299ZM18.4508 4.60076C18.4508 5.3298 17.3566 5.3298 17.3566 4.60076C17.3566 3.87172 18.4508 3.87172 18.4508 4.60076ZM13.4205 4.38333C13.4205 4.82017 12.7645 4.82017 12.7645 4.38333C12.7645 3.94505 13.4205 3.94505 13.4205 4.38333ZM6.09458 3.61699C6.09458 4.19992 5.21946 4.19992 5.21946 3.61699C5.21946 3.03407 6.09458 3.03407 6.09458 3.61699ZM21.0388 2.30506C21.0388 2.74191 20.3813 2.74191 20.3813 2.30506C20.3813 1.86821 21.0388 1.86821 21.0388 2.30506ZM8.71845 1.39389C8.71845 1.83074 8.06244 1.83074 8.06244 1.39389C8.06244 0.955618 8.71845 0.955618 8.71845 1.39389Z"
    fill="#FF6600"
  />
</svg>
