<svg width="56" height="56" viewBox="0 0 56 56" fill="none" xmlns="http://www.w3.org/2000/svg">
  <path
    d="M38.1535 12.6668L36.1774 12.5244V10.297C36.3513 10.2121 36.4977 10.0798 36.5999 9.9154C36.7021 9.751 36.7559 9.56114 36.7551 9.36757V7.13181C36.7571 6.2813 36.4354 5.46191 35.8554 4.83988C35.2753 4.21785 34.4804 3.83977 33.6318 3.78236L28.9928 3.50604C28.5364 3.4786 28.0791 3.54492 27.6493 3.70092C27.2194 3.85691 26.826 4.09928 26.4934 4.41308C26.1608 4.72688 25.8959 5.10547 25.7152 5.52553C25.5344 5.94558 25.4416 6.39819 25.4424 6.85548V8.7228C25.4435 8.90866 25.4936 9.09095 25.5877 9.25123C25.6818 9.4115 25.8165 9.54407 25.9783 9.63553V11.8127L23.4663 11.6284C22.0588 11.5244 20.6552 11.8768 19.4637 12.6333L13.8283 16.1502C13.5909 16.2706 13.364 16.4107 13.15 16.5689L12.9993 16.6694L12.7983 16.8368C12.3338 17.2748 11.9658 17.8048 11.7178 18.3931C11.4698 18.9814 11.3473 19.615 11.3581 20.2533V43.4901C11.38 44.5791 11.7297 45.6363 12.3616 46.5236C12.9935 47.4109 13.8781 48.0871 14.9001 48.464C14.8391 48.6303 14.808 48.8061 14.808 48.9832C14.7586 49.2264 14.7639 49.4776 14.8235 49.7185C14.8831 49.9594 14.9955 50.1841 15.1525 50.3763C15.3096 50.5685 15.5074 50.7233 15.7317 50.8297C15.9559 50.936 16.201 50.9912 16.4492 50.9912C16.6974 50.9912 16.9425 50.936 17.1668 50.8297C17.391 50.7233 17.5888 50.5685 17.7459 50.3763C17.903 50.1841 18.0154 49.9594 18.0749 49.7185C18.1345 49.4776 18.1398 49.2264 18.0904 48.9832V48.9413L31.7812 50.2643C31.6966 50.5023 31.667 50.7562 31.6944 51.0073C31.7218 51.2583 31.8057 51.4999 31.9396 51.7139C32.0736 51.9279 32.2543 52.1089 32.4681 52.2433C32.6819 52.3777 32.9233 52.4619 33.1742 52.4898C33.4252 52.5177 33.6792 52.4885 33.9173 52.4043C34.1554 52.3202 34.3714 52.1833 34.5491 52.0038C34.7268 51.8244 34.8616 51.6072 34.9435 51.3683C35.0253 51.1294 35.0521 50.8751 35.0218 50.6244C35.0226 50.4888 35.0057 50.3537 34.9716 50.2225C35.5671 50.0446 36.1181 49.7421 36.5877 49.3349L41.796 44.5703C42.6255 43.8134 43.2912 42.8947 43.752 41.8708C44.2128 40.8469 44.4591 39.7394 44.4756 38.6166L44.643 19.7006C44.6563 17.9234 43.9931 16.2078 42.788 14.9016C41.5828 13.5953 39.926 12.7964 38.1535 12.6668ZM26.9748 9.63553C27.1444 9.54671 27.2863 9.41309 27.3852 9.24922C27.4842 9.08534 27.5362 8.89747 27.5358 8.70605V6.85548C27.535 6.68568 27.5696 6.51756 27.6374 6.36186C27.7051 6.20616 27.8046 6.06628 27.9294 5.95113C28.0516 5.83239 28.1977 5.74109 28.358 5.68333C28.5182 5.62557 28.689 5.60268 28.8589 5.61619L33.4978 5.91764C33.8118 5.93676 34.1068 6.07459 34.3229 6.30317C34.5391 6.53175 34.6602 6.83398 34.6617 7.14856V9.36757C34.6599 9.55188 34.708 9.73325 34.8009 9.89246C34.8937 10.0517 35.0279 10.1828 35.1893 10.2719V12.4574L26.9748 11.8797V9.63553ZM33.3722 48.3133L16.3404 46.6386C15.5712 46.5327 14.864 46.1589 14.3433 45.583C13.8225 45.0071 13.5216 44.266 13.4933 43.4901V20.2533C13.4887 19.9038 13.5571 19.5572 13.6941 19.2357C13.8311 18.9142 14.0336 18.6248 14.2888 18.386C14.7566 17.958 15.3715 17.727 16.0054 17.7412H16.2064L33.2299 18.9889C34.0019 19.0641 34.7199 19.4188 35.2488 19.9863C35.7778 20.5538 36.0812 21.2949 36.102 22.0704V45.8682C36.1118 46.2131 36.047 46.5561 35.912 46.8737C35.777 47.1913 35.5749 47.4759 35.3196 47.7081C35.0644 47.9403 34.7619 48.1146 34.433 48.2191C34.1041 48.3235 33.7565 48.3557 33.4141 48.3133H33.3722ZM42.3822 38.5999C42.3726 39.4353 42.1924 40.2599 41.8525 41.023C41.5127 41.7862 41.0205 42.4719 40.406 43.0379L38.1535 45.0978V22.0704C38.1297 20.7669 37.6249 19.5182 36.7361 18.5645C35.8473 17.6108 34.6373 17.0193 33.3387 16.9038L18.3249 15.7901L20.5523 14.3917C21.365 13.8761 22.322 13.6353 23.2821 13.7051L38.0028 14.7602C39.243 14.8534 40.4017 15.4133 41.2455 16.3269C42.0892 17.2406 42.5553 18.4402 42.5497 19.6839L42.3822 38.5999Z"
    fill="black"
  />
</svg>
