<svg width="25" height="24" viewBox="0 0 25 24" fill="none" xmlns="http://www.w3.org/2000/svg">
  <g clip-path="url(#clip0_463_46327)">
    <path
      d="M3.76465 9.3838L3.91334 9.3893C4.94461 9.466 5.76465 10.3338 5.76465 11.3838V19.3838C5.76465 20.4838 4.86465 21.3838 3.76465 21.3838L3.61596 21.3782C2.58469 21.3015 1.76465 20.4338 1.76465 19.3838V11.3838C1.76465 10.2838 2.66465 9.3838 3.76465 9.3838ZM13.8846 2.44376C14.4646 1.85376 15.4046 1.85376 15.9946 2.43376L16.0963 2.5461C16.3821 2.89566 16.4946 3.35376 16.4046 3.80376L15.4546 8.38376H21.1046C23.2546 8.38376 24.7046 10.5838 23.8646 12.5638L20.6046 20.1738C20.2846 20.9038 19.5646 21.3838 18.7646 21.3838H9.76465C8.66465 21.3838 7.76465 20.4838 7.76465 19.3838V9.3938C7.76465 8.86376 7.97465 8.35376 8.34465 7.98376L13.8846 2.44376Z"
      fill="#FF6600"
    />
  </g>
  <defs>
    <clipPath id="clip0_463_46327">
      <rect width="24" height="24" fill="white" transform="translate(0.764648)" />
    </clipPath>
  </defs>
</svg>
