<svg
  width="24"
  height="24"
  viewBox="0 0 24 24"
  fill="none"
  xmlns="http://www.w3.org/2000/svg"
>
  <path
    d="M21.2602 13.11C21.6089 12.5566 21.7895 11.914 21.7802 11.26C21.7747 9.5336 20.3766 8.1355 18.6502 8.13001H17.1602C17.2555 7.88611 17.3324 7.6354 17.3902 7.38001C17.4816 7.02384 17.5287 6.65772 17.5302 6.29001C17.5302 6.10001 17.5302 5.95001 17.5302 5.83001C17.5243 5.62174 17.5009 5.41434 17.4602 5.21001C17.4305 4.96442 17.3735 4.72293 17.2902 4.49001C16.9211 3.40323 15.9438 2.63789 14.8002 2.54001C13.7775 2.41273 12.7777 2.90871 12.2602 3.80001C12.146 4.04172 12.0524 4.2926 11.9802 4.55001C11.9802 4.73001 11.8902 4.98001 11.8402 5.27001C11.7902 5.56001 11.7302 5.78001 11.6902 5.91001C11.6559 6.03767 11.609 6.1616 11.5502 6.28001C11.5165 6.36171 11.4728 6.43895 11.4202 6.51001L11.1402 6.79001C10.3002 7.63001 8.00022 10 7.86022 10.07H3.52021C2.80224 10.07 2.22021 10.652 2.22021 11.37V18.56C2.22021 19.2796 2.80063 19.8645 3.52021 19.87H8.07022C8.15881 19.8596 8.246 19.8395 8.33021 19.81C8.55381 19.9243 8.79936 19.9891 9.05022 20C9.54764 20.1083 10.0358 20.2554 10.5102 20.44L11.8702 20.89C12.3475 21.0278 12.8314 21.1413 13.3202 21.23C13.909 21.353 14.5087 21.4167 15.1102 21.42H16.5502C17.6606 21.4742 18.7364 21.0262 19.4802 20.2C19.9923 19.5814 20.2717 18.8031 20.2702 18C20.53 17.6619 20.7172 17.2738 20.8202 16.86C20.9473 16.4151 20.9813 15.9487 20.9202 15.49C21.2164 14.9701 21.3618 14.378 21.3402 13.78C21.3388 13.5544 21.312 13.3296 21.2602 13.11ZM7.37021 17.92H4.22021V12.12H7.37021V17.92ZM19.4202 12.25C19.1758 12.5217 19.0991 12.9052 19.2202 13.25C19.2914 13.4286 19.332 13.6179 19.3402 13.81C19.3553 14.1243 19.2558 14.4335 19.0602 14.68C18.8649 14.9367 18.8053 15.2718 18.9002 15.58C18.9751 15.8244 18.9751 16.0856 18.9002 16.33C18.8494 16.5464 18.7384 16.7439 18.5802 16.9C18.3619 17.1065 18.2481 17.4003 18.2702 17.7C18.3662 18.152 18.2683 18.6236 18.0002 19C17.6282 19.3693 17.1124 19.5559 16.5902 19.51H15.1102C14.6398 19.5054 14.1709 19.4552 13.7102 19.36C13.1702 19.25 12.7102 19.15 12.4602 19.06C12.2102 18.97 11.7102 18.82 11.1602 18.64C10.5814 18.4102 9.98205 18.2361 9.37021 18.12V11.42L12.5502 8.20001L12.8402 7.92001C13.0741 7.67656 13.2606 7.39171 13.3902 7.08001C13.4873 6.85182 13.5708 6.61808 13.6402 6.38001L13.8002 5.65001L13.9202 5.00001C13.9202 4.89001 14.0002 4.76001 14.0302 4.68001C14.1799 4.5242 14.3973 4.45299 14.6102 4.49001C14.9777 4.51842 15.2907 4.76805 15.4002 5.12001C15.4344 5.23483 15.4611 5.35174 15.4802 5.47001C15.4802 5.64001 15.4802 5.77001 15.4802 5.85001C15.4802 5.93001 15.4802 6.09001 15.4802 6.25001C15.4782 6.45253 15.4514 6.65404 15.4002 6.85001C15.3662 7.02548 15.3125 7.19656 15.2402 7.36001C15.1731 7.57794 15.0929 7.79166 15.0002 8.00001C14.9792 8.05284 14.9524 8.10316 14.9202 8.15001C14.847 8.27147 14.7834 8.39853 14.7302 8.53001C14.6841 8.64448 14.644 8.76131 14.6102 8.88001C14.5249 9.1837 14.5879 9.5099 14.7802 9.76C14.9691 10.0118 15.2655 10.16 15.5802 10.16H18.6402C18.9413 10.1485 19.2316 10.2734 19.4302 10.5C19.6501 10.7035 19.7736 10.9905 19.7703 11.29C19.7739 11.6419 19.6495 11.9831 19.4202 12.25Z"
    fill="#FF6600"
  />
</svg>
