<svg
  width="24"
  height="24"
  viewBox="0 0 24 24"
  fill="none"
  xmlns="http://www.w3.org/2000/svg"
>
  <path
    d="M3 9.3838L3.14869 9.3893C4.17996 9.466 5 10.3338 5 11.3838V19.3838C5 20.4838 4.1 21.3838 3 21.3838L2.85131 21.3782C1.82004 21.3015 1 20.4338 1 19.3838V11.3838C1 10.2838 1.9 9.3838 3 9.3838ZM13.12 2.44376C13.7 1.85376 14.64 1.85376 15.23 2.43376L15.3317 2.5461C15.6175 2.89566 15.73 3.35376 15.64 3.80376L14.69 8.38376H20.34C22.49 8.38376 23.94 10.5838 23.1 12.5638L19.84 20.1738C19.52 20.9038 18.8 21.3838 18 21.3838H9C7.9 21.3838 7 20.4838 7 19.3838V9.3938C7 8.86376 7.21 8.35376 7.58 7.98376L13.12 2.44376Z"
    fill="#FF6600"
  />
</svg>
