<svg width="25" height="24" viewBox="0 0 25 24" fill="none" xmlns="http://www.w3.org/2000/svg">
  <path
    d="M22.0249 13.11C22.3736 12.5566 22.5542 11.914 22.5449 11.26C22.5394 9.5336 21.1413 8.1355 19.4149 8.13001H17.9249C18.0202 7.88611 18.0971 7.6354 18.1549 7.38001C18.2463 7.02384 18.2934 6.65772 18.2949 6.29001C18.2949 6.10001 18.2949 5.95001 18.2949 5.83001C18.289 5.62174 18.2656 5.41434 18.2249 5.21001C18.1952 4.96442 18.1382 4.72293 18.0549 4.49001C17.6858 3.40323 16.7085 2.63789 15.5649 2.54001C14.5422 2.41273 13.5424 2.90871 13.0249 3.80001C12.9107 4.04172 12.8171 4.2926 12.7449 4.55001C12.7449 4.73001 12.6549 4.98001 12.6049 5.27001C12.5549 5.56001 12.4949 5.78001 12.4549 5.91001C12.4206 6.03767 12.3737 6.1616 12.3149 6.28001C12.2812 6.36171 12.2375 6.43895 12.1849 6.51001L11.9049 6.79001C11.0649 7.63001 8.76487 10 8.62487 10.07H4.28486C3.56689 10.07 2.98486 10.652 2.98486 11.37V18.56C2.98486 19.2796 3.56528 19.8645 4.28486 19.87H8.83487C8.92346 19.8596 9.01065 19.8395 9.09486 19.81C9.31846 19.9243 9.56401 19.9891 9.81487 20C10.3123 20.1083 10.8005 20.2554 11.2749 20.44L12.6349 20.89C13.1122 21.0278 13.5961 21.1413 14.0849 21.23C14.6737 21.353 15.2734 21.4167 15.8749 21.42H17.3149C18.4253 21.4742 19.5011 21.0262 20.2449 20.2C20.757 19.5814 21.0364 18.8031 21.0349 18C21.2947 17.6619 21.4819 17.2738 21.5849 16.86C21.712 16.4151 21.746 15.9487 21.6849 15.49C21.9811 14.9701 22.1265 14.378 22.1049 13.78C22.1035 13.5544 22.0767 13.3296 22.0249 13.11ZM8.13486 17.92H4.98486V12.12H8.13486V17.92ZM20.1849 12.25C19.9405 12.5217 19.8638 12.9052 19.9849 13.25C20.0561 13.4286 20.0967 13.6179 20.1049 13.81C20.12 14.1243 20.0205 14.4335 19.8249 14.68C19.6296 14.9367 19.57 15.2718 19.6649 15.58C19.7398 15.8244 19.7398 16.0856 19.6649 16.33C19.6141 16.5464 19.5031 16.7439 19.3449 16.9C19.1266 17.1065 19.0128 17.4003 19.0349 17.7C19.1309 18.152 19.033 18.6236 18.7649 19C18.3929 19.3693 17.8771 19.5559 17.3549 19.51H15.8749C15.4045 19.5054 14.9356 19.4552 14.4749 19.36C13.9349 19.25 13.4749 19.15 13.2249 19.06C12.9749 18.97 12.4749 18.82 11.9249 18.64C11.3461 18.4102 10.7467 18.2361 10.1349 18.12V11.42L13.3149 8.20001L13.6049 7.92001C13.8388 7.67656 14.0253 7.39171 14.1549 7.08001C14.252 6.85182 14.3355 6.61808 14.4049 6.38001L14.5649 5.65001L14.6849 5.00001C14.6849 4.89001 14.7649 4.76001 14.7949 4.68001C14.9446 4.5242 15.162 4.45299 15.3749 4.49001C15.7424 4.51842 16.0554 4.76805 16.1649 5.12001C16.1991 5.23483 16.2258 5.35174 16.2449 5.47001C16.2449 5.64001 16.2449 5.77001 16.2449 5.85001C16.2449 5.93001 16.2449 6.09001 16.2449 6.25001C16.2429 6.45253 16.2161 6.65404 16.1649 6.85001C16.1309 7.02548 16.0772 7.19656 16.0049 7.36001C15.9378 7.57794 15.8576 7.79166 15.7649 8.00001C15.7439 8.05284 15.7171 8.10316 15.6849 8.15001C15.6117 8.27147 15.5481 8.39853 15.4949 8.53001C15.4488 8.64448 15.4087 8.76131 15.3749 8.88001C15.2896 9.1837 15.3526 9.5099 15.5449 9.76C15.7338 10.0118 16.0302 10.16 16.3449 10.16H19.4049C19.706 10.1485 19.9963 10.2734 20.1949 10.5C20.4148 10.7035 20.5383 10.9905 20.535 11.29C20.5386 11.6419 20.4142 11.9831 20.1849 12.25Z"
    fill="#FF6600"
  />
</svg>
