<svg width="25" height="24" viewBox="0 0 25 24" fill="none" xmlns="http://www.w3.org/2000/svg">
  <path
    d="M3.74389 8.59246H7.44715V21.4988H3.74389V8.59246ZM5.50113 6.9781H5.47432C4.13377 6.9781 3.26465 5.99148 3.26465 4.74209C3.26465 3.46715 4.15946 2.5 5.52682 2.5C6.89306 2.5 7.73314 3.46472 7.75995 4.73844C7.75995 5.98783 6.89306 6.9781 5.50113 6.9781ZM22.2646 21.5H18.0653V14.82C18.0653 13.0718 17.4085 11.8796 15.964 11.8796C14.8592 11.8796 14.2448 12.6837 13.9588 13.4611C13.8516 13.7384 13.8683 14.1265 13.8683 14.5158V21.5H9.70821C9.70821 21.5 9.76183 9.6679 9.70821 8.59246H13.8683V10.618C14.1141 9.7324 15.4435 8.46837 17.5649 8.46837C20.1968 8.46837 22.2646 10.326 22.2646 14.3224V21.5Z"
    fill="#FF6600"
  />
</svg>
