<svg
  width="24"
  height="24"
  viewBox="0 0 24 24"
  fill="none"
  xmlns="http://www.w3.org/2000/svg"
>
  <path
    d="M2.97924 8.59246H6.6825V21.4988H2.97924V8.59246ZM4.73648 6.9781H4.70967C3.36912 6.9781 2.5 5.99148 2.5 4.74209C2.5 3.46715 3.39481 2.5 4.76217 2.5C6.12841 2.5 6.96849 3.46472 6.9953 4.73844C6.9953 5.98783 6.12841 6.9781 4.73648 6.9781ZM21.5 21.5H17.3007V14.82C17.3007 13.0718 16.6439 11.8796 15.1994 11.8796C14.0946 11.8796 13.4802 12.6837 13.1942 13.4611C13.087 13.7384 13.1037 14.1265 13.1037 14.5158V21.5H8.94356C8.94356 21.5 8.99718 9.6679 8.94356 8.59246H13.1037V10.618C13.3495 9.7324 14.6789 8.46837 16.8003 8.46837C19.4322 8.46837 21.5 10.326 21.5 14.3224V21.5Z"
    fill="#FF6600"
  />
</svg>
