<svg
  width="24"
  height="24"
  viewBox="0 0 24 24"
  fill="none"
  xmlns="http://www.w3.org/2000/svg"
>
  <path
    d="M3 17C3.55228 17 4 17.4477 4 18C4 18.5523 3.55228 19 3 19C2.44772 19 2 18.5523 2 18C2 17.4477 2.44772 17 3 17ZM21 17C21.5523 17 22 17.4477 22 18C22 18.5523 21.5523 19 21 19H7C6.44772 19 6 18.5523 6 18C6 17.4477 6.44772 17 7 17H21ZM3 13C3.55228 13 4 13.4477 4 14C4 14.5523 3.55228 15 3 15C2.44772 15 2 14.5523 2 14C2 13.4477 2.44772 13 3 13ZM21.01 13C21.5623 13 22.01 13.4477 22.01 14C22.01 14.5523 21.5623 15 21.01 15H7.01C6.45772 15 6.01 14.5523 6.01 14C6.01 13.4477 6.45772 13 7.01 13H21.01ZM3 9C3.55228 9 4 9.4477 4 10C4 10.5523 3.55228 11 3 11C2.44772 11 2 10.5523 2 10C2 9.4477 2.44772 9 3 9ZM21.01 9C21.5623 9 22.01 9.4477 22.01 10C22.01 10.5523 21.5623 11 21.01 11H7.01C6.45772 11 6.01 10.5523 6.01 10C6.01 9.4477 6.45772 9 7.01 9H21.01ZM3 5C3.55228 5 4 5.44772 4 6C4 6.55228 3.55228 7 3 7C2.44772 7 2 6.55228 2 6C2 5.44772 2.44772 5 3 5ZM21 5C21.5523 5 22 5.44772 22 6C22 6.55228 21.5523 7 21 7H7C6.44772 7 6 6.55228 6 6C6 5.44772 6.44772 5 7 5H21Z"
    fill="#FF6600"
  />
</svg>
