<svg
  width="24"
  height="24"
  viewBox="0 0 24 24"
  fill="none"
  xmlns="http://www.w3.org/2000/svg"
>
  <path
    d="M14.7003 19H12.3C12.2125 19 12.1406 19.0351 12.0843 19.1056C12.0282 19.1758 12 19.2657 12 19.375V21.625C12 21.7347 12.0281 21.8242 12.0843 21.8947C12.1407 21.9649 12.2125 22 12.3 22H14.7003C14.7878 22 14.8598 21.9649 14.9158 21.8947C14.9722 21.8241 15 21.7347 15 21.625V19.375C15 19.2657 14.9722 19.1758 14.9158 19.1056C14.8598 19.0351 14.7878 19 14.7003 19Z"
    fill="#FF6600"
  />
  <path
    d="M9.63677 16.9287H7.45738V2.33928C7.45738 2.24039 7.42343 2.15895 7.35528 2.0954C7.28714 2.0319 7.20019 2 7.09415 2H4.91472C4.80884 2 4.72166 2.03175 4.65363 2.09537C4.58568 2.15906 4.55153 2.24039 4.55153 2.33925V16.9286H2.3721C2.20575 16.9286 2.09221 16.9993 2.03161 17.1406C1.97098 17.2751 1.99762 17.3987 2.11101 17.5118L5.74331 20.9049C5.82656 20.9682 5.91351 21 6.0044 21C6.10276 21 6.18987 20.9682 6.26549 20.9049L9.88645 17.5225C9.96223 17.4379 10 17.3528 10 17.2683C10 17.169 9.96585 17.0879 9.8979 17.0238C9.8298 16.9605 9.74285 16.9287 9.63677 16.9287Z"
    fill="#FF6600"
  />
  <path
    d="M16.6875 13H12.3125C12.2213 13 12.1465 13.0351 12.0878 13.1053C12.0293 13.1756 12 13.2655 12 13.3747V15.6253C12 15.7345 12.0292 15.8245 12.0878 15.8947C12.1465 15.9649 12.2213 16 12.3125 16H16.6875C16.7787 16 16.8536 15.9649 16.912 15.8947C16.9707 15.8244 17 15.7345 17 15.6253V13.3747C17 13.2655 16.9707 13.1755 16.912 13.1053C16.8536 13.0351 16.7787 13 16.6875 13Z"
    fill="#FF6600"
  />
  <path
    d="M21.8997 2.10541C21.8327 2.03526 21.7472 2 21.643 2H12.3571C12.2529 2 12.1674 2.03509 12.1004 2.10541C12.0336 2.1758 12 2.26569 12 2.37496V4.62504C12 4.73447 12.0334 4.82424 12.1004 4.89459C12.1674 4.96474 12.2529 5 12.3571 5H21.643C21.7472 5 21.8327 4.96491 21.8997 4.89459C21.9666 4.82424 22 4.73447 22 4.62504V2.375C22.0002 2.26569 21.9666 2.17564 21.8997 2.10541Z"
    fill="#FF6600"
  />
  <path
    d="M19.6365 8H12.3636C12.2575 8 12.1704 8.03509 12.1022 8.10549C12.0342 8.1758 12 8.26556 12 8.37503V10.625C12 10.7344 12.034 10.8242 12.1022 10.8945C12.1704 10.9647 12.2575 11 12.3636 11H19.6365C19.7425 11 19.8296 10.9649 19.898 10.8945C19.966 10.8242 20 10.7344 20 10.625V8.37503C20 8.26556 19.966 8.17563 19.898 8.10549C19.8295 8.03526 19.7423 8 19.6365 8Z"
    fill="#FF6600"
  />
</svg>
