<svg width="25" height="24" viewBox="0 0 25 24" fill="none" xmlns="http://www.w3.org/2000/svg">
  <path
    d="M3.76465 17C4.31693 17 4.76465 17.4477 4.76465 18C4.76465 18.5523 4.31693 19 3.76465 19C3.21237 19 2.76465 18.5523 2.76465 18C2.76465 17.4477 3.21237 17 3.76465 17ZM21.7646 17C22.3169 17 22.7646 17.4477 22.7646 18C22.7646 18.5523 22.3169 19 21.7646 19H7.76465C7.21237 19 6.76465 18.5523 6.76465 18C6.76465 17.4477 7.21237 17 7.76465 17H21.7646ZM3.76465 13C4.31693 13 4.76465 13.4477 4.76465 14C4.76465 14.5523 4.31693 15 3.76465 15C3.21237 15 2.76465 14.5523 2.76465 14C2.76465 13.4477 3.21237 13 3.76465 13ZM21.7746 13C22.3269 13 22.7746 13.4477 22.7746 14C22.7746 14.5523 22.3269 15 21.7746 15H7.77465C7.22237 15 6.77465 14.5523 6.77465 14C6.77465 13.4477 7.22237 13 7.77465 13H21.7746ZM3.76465 9C4.31693 9 4.76465 9.4477 4.76465 10C4.76465 10.5523 4.31693 11 3.76465 11C3.21237 11 2.76465 10.5523 2.76465 10C2.76465 9.4477 3.21237 9 3.76465 9ZM21.7746 9C22.3269 9 22.7746 9.4477 22.7746 10C22.7746 10.5523 22.3269 11 21.7746 11H7.77465C7.22237 11 6.77465 10.5523 6.77465 10C6.77465 9.4477 7.22237 9 7.77465 9H21.7746ZM3.76465 5C4.31693 5 4.76465 5.44772 4.76465 6C4.76465 6.55228 4.31693 7 3.76465 7C3.21237 7 2.76465 6.55228 2.76465 6C2.76465 5.44772 3.21237 5 3.76465 5ZM21.7646 5C22.3169 5 22.7646 5.44772 22.7646 6C22.7646 6.55228 22.3169 7 21.7646 7H7.76465C7.21237 7 6.76465 6.55228 6.76465 6C6.76465 5.44772 7.21237 5 7.76465 5H21.7646Z"
    fill="#FF6600"
  />
</svg>
