<svg width="25" height="24" viewBox="0 0 25 24" fill="none" xmlns="http://www.w3.org/2000/svg">
  <path
    d="M19.1947 4.00003L14.0747 9.14L13.4847 9.72V17L12.0447 18.44V9.72L11.4547 9.14L6.33462 4.00003H19.1947ZM21.8447 2.00003H3.68462C3.3174 1.98196 2.98111 2.20481 2.85462 2.55003C2.67675 2.88876 2.76015 3.30576 3.05462 3.55003L10.0546 10.55V21.08C10.0366 21.4472 10.2594 21.7835 10.6046 21.91C10.7155 21.9562 10.8345 21.98 10.9547 21.98C11.197 21.9866 11.4303 21.8881 11.5947 21.71L15.2247 18.08C15.3981 17.9165 15.4959 17.6884 15.4947 17.45V10.55L22.4947 3.55003C22.7891 3.30576 22.8725 2.88876 22.6947 2.55003C22.5661 2.19736 22.2191 1.97284 21.8447 2.00003Z"
    fill="#FF6600"
  />
</svg>
