<svg width="25" height="24" viewBox="0 0 25 24" fill="none" xmlns="http://www.w3.org/2000/svg">
  <path
    d="M2.85457 2.57005C2.97409 2.21691 3.31207 1.98481 3.68457 2.00005H21.8446C22.2118 1.98198 22.5481 2.20483 22.6746 2.55005C22.8525 2.88878 22.7691 3.30578 22.4746 3.55005L15.4746 10.55V17.45C15.4757 17.6884 15.378 17.9165 15.2046 18.08L11.5746 21.71C11.4102 21.8882 11.1769 21.9866 10.9346 21.98C10.8145 21.98 10.6955 21.9563 10.5846 21.91C10.2394 21.7836 10.0165 21.4473 10.0346 21.08V10.55L3.03457 3.55005C2.75698 3.30328 2.68279 2.89935 2.85457 2.57005Z"
    fill="#FF6600"
  />
</svg>
