<svg
  width="24"
  height="24"
  viewBox="0 0 24 24"
  fill="none"
  xmlns="http://www.w3.org/2000/svg"
>
  <path
    d="M18.43 4.00003L13.31 9.14L12.72 9.72V17L11.28 18.44V9.72L10.69 9.14L5.56997 4.00003H18.43ZM21.08 2.00003H2.91997C2.55275 1.98196 2.21646 2.20481 2.08997 2.55003C1.9121 2.88876 1.9955 3.30576 2.28997 3.55003L9.28997 10.55V21.08C9.27191 21.4472 9.49475 21.7835 9.83997 21.91C9.95088 21.9562 10.0698 21.98 10.19 21.98C10.4323 21.9866 10.6656 21.8881 10.83 21.71L14.46 18.08C14.6334 17.9165 14.7312 17.6884 14.73 17.45V10.55L21.73 3.55003C22.0244 3.30576 22.1078 2.88876 21.93 2.55003C21.8014 2.19736 21.4544 1.97284 21.08 2.00003Z"
    fill="#FF6600"
  />
</svg>
