<svg
  width="24"
  height="24"
  viewBox="0 0 24 24"
  fill="none"
  xmlns="http://www.w3.org/2000/svg"
>
  <path
    d="M2.08992 2.57005C2.20944 2.21691 2.54742 1.98481 2.91992 2.00005H21.0799C21.4471 1.98198 21.7834 2.20483 21.9099 2.55005C22.0878 2.88878 22.0044 3.30578 21.7099 3.55005L14.7099 10.55V17.45C14.7111 17.6884 14.6133 17.9165 14.4399 18.08L10.8099 21.71C10.6455 21.8882 10.4122 21.9866 10.1699 21.98C10.0498 21.98 9.93082 21.9563 9.81992 21.91C9.4747 21.7836 9.25185 21.4473 9.26992 21.08V10.55L2.26992 3.55005C1.99233 3.30328 1.91814 2.89935 2.08992 2.57005Z"
    fill="#FF6600"
  />
</svg>
