<svg width="25" height="24" viewBox="0 0 25 24" fill="none" xmlns="http://www.w3.org/2000/svg">
  <path
    d="M15.4649 19H13.0646C12.9771 19 12.9052 19.0351 12.8489 19.1056C12.7928 19.1758 12.7646 19.2657 12.7646 19.375V21.625C12.7646 21.7347 12.7927 21.8242 12.8489 21.8947C12.9053 21.9649 12.9771 22 13.0646 22H15.4649C15.5524 22 15.6244 21.9649 15.6804 21.8947C15.7368 21.8241 15.7646 21.7347 15.7646 21.625V19.375C15.7646 19.2657 15.7368 19.1758 15.6804 19.1056C15.6244 19.0351 15.5524 19 15.4649 19Z"
    fill="#FF6600"
  />
  <path
    d="M10.4014 16.9287H8.22203V2.33928C8.22203 2.24039 8.18808 2.15895 8.11993 2.0954C8.05179 2.0319 7.96484 2 7.8588 2H5.67937C5.57349 2 5.48631 2.03175 5.41828 2.09537C5.35033 2.15906 5.31618 2.24039 5.31618 2.33925V16.9286H3.13675C2.9704 16.9286 2.85686 16.9993 2.79626 17.1406C2.73563 17.2751 2.76227 17.3987 2.87566 17.5118L6.50796 20.9049C6.59121 20.9682 6.67816 21 6.76905 21C6.86741 21 6.95452 20.9682 7.03014 20.9049L10.6511 17.5225C10.7269 17.4379 10.7647 17.3528 10.7647 17.2683C10.7647 17.169 10.7305 17.0879 10.6626 17.0238C10.5945 16.9605 10.5075 16.9287 10.4014 16.9287Z"
    fill="#FF6600"
  />
  <path
    d="M17.4521 13H13.0771C12.9859 13 12.9111 13.0351 12.8524 13.1053C12.7939 13.1756 12.7646 13.2655 12.7646 13.3747V15.6253C12.7646 15.7345 12.7938 15.8245 12.8524 15.8947C12.9111 15.9649 12.9859 16 13.0771 16H17.4521C17.5433 16 17.6182 15.9649 17.6766 15.8947C17.7353 15.8244 17.7646 15.7345 17.7646 15.6253V13.3747C17.7646 13.2655 17.7353 13.1755 17.6766 13.1053C17.6182 13.0351 17.5433 13 17.4521 13Z"
    fill="#FF6600"
  />
  <path
    d="M22.6643 2.10541C22.5973 2.03526 22.5118 2 22.4076 2H13.1217C13.0175 2 12.932 2.03509 12.865 2.10541C12.7982 2.1758 12.7646 2.26569 12.7646 2.37496V4.62504C12.7646 4.73447 12.798 4.82424 12.865 4.89459C12.932 4.96474 13.0175 5 13.1217 5H22.4076C22.5118 5 22.5973 4.96491 22.6643 4.89459C22.7312 4.82424 22.7646 4.73447 22.7646 4.62504V2.375C22.7648 2.26569 22.7312 2.17564 22.6643 2.10541Z"
    fill="#FF6600"
  />
  <path
    d="M20.4011 8H13.1282C13.0221 8 12.935 8.03509 12.8668 8.10549C12.7988 8.1758 12.7646 8.26556 12.7646 8.37503V10.625C12.7646 10.7344 12.7986 10.8242 12.8668 10.8945C12.935 10.9647 13.0221 11 13.1282 11H20.4011C20.5071 11 20.5942 10.9649 20.6626 10.8945C20.7306 10.8242 20.7646 10.7344 20.7646 10.625V8.37503C20.7646 8.26556 20.7306 8.17563 20.6626 8.10549C20.5941 8.03526 20.5069 8 20.4011 8Z"
    fill="#FF6600"
  />
</svg>
