<svg width="25" height="24" viewBox="0 0 25 24" fill="none" xmlns="http://www.w3.org/2000/svg">
  <path
    d="M12.7646 5.93C11.1423 5.90972 9.66855 6.87133 9.03364 8.3643C8.39873 9.8573 8.7285 11.5859 9.86845 12.7403C11.0084 13.8947 12.7327 14.2461 14.2335 13.6301C15.7344 13.014 16.7144 11.5524 16.7146 9.93C16.7147 7.74024 14.9541 5.95737 12.7646 5.93ZM12.7646 2C17.0239 2.04371 20.4584 5.50045 20.4746 9.76C20.4746 15.98 13.4746 21.76 13.4746 21.76C13.0301 22.0933 12.419 22.0933 11.9746 21.76L11.951 21.7403C11.508 21.3689 4.97461 15.7885 4.97461 9.76C4.99113 5.46942 8.474 2 12.7646 2ZM12.7646 3.97C9.56688 3.97 6.97461 6.56227 6.97461 9.76C6.97461 13.7 10.7646 18 12.7646 19.81V19.78C14.7646 18 18.5547 13.7 18.5547 9.76C18.5547 6.56227 15.9623 3.97 12.7646 3.97ZM13.4679 7.98794C14.2214 8.29434 14.7143 9.0266 14.7146 9.84C14.7149 10.9253 13.8496 11.8129 12.7646 11.84C11.9514 11.8603 11.2069 11.3862 10.8815 10.6406C10.5562 9.8951 10.7148 9.0268 11.2826 8.44442C11.8504 7.86202 12.7144 7.68154 13.4679 7.98794Z"
    fill="#FF6600"
  />
</svg>
