<svg width="25" height="24" viewBox="0 0 25 24" fill="none" xmlns="http://www.w3.org/2000/svg">
  <path
    d="M6.88444 12.3838L3.76465 11.7343L4.86825 10.6716C4.97436 10.5732 5.14415 10.5141 5.29271 10.5141C5.31393 10.5141 5.31393 10.5141 5.33515 10.5141L6.86321 10.6125L8.98552 8.62485L4.84702 6.75523C4.74091 6.69619 4.69846 6.57811 4.78336 6.49939L5.69595 5.65314C5.86573 5.4957 6.07796 5.41697 6.31141 5.41697C6.37508 5.41697 6.43875 5.41697 6.50242 5.43665L11.32 6.42066L12.5297 5.27921C12.5722 5.23985 12.7207 5.10209 12.7844 5.04305C13.3362 4.53137 14.0365 4.31488 14.5671 4.31488C14.843 4.31488 15.0977 4.37392 15.225 4.492C15.5858 4.80689 15.4797 5.9877 14.652 6.75523C14.6096 6.79459 14.4398 6.95203 14.4186 6.99139L13.2301 8.11316L14.3337 12.6396C14.3973 12.9151 14.3124 13.1907 14.1002 13.3875L13.1876 14.2337C13.1452 14.2731 13.1027 14.2731 13.0603 14.2731C12.9966 14.2731 12.933 14.2337 12.9117 14.1747L10.8743 10.3173L8.75206 12.3247L8.8794 13.7417C8.90062 13.8991 8.83695 14.0763 8.70962 14.1747L7.60602 15.2374L6.88444 12.3838ZM21.8891 4L21.4434 4.41328C22.4196 5.31857 22.356 7.14883 21.2948 9.3137C20.0214 7.66052 18.0053 6.57811 15.6919 6.46002C15.5434 6.71587 15.3736 6.97171 15.1189 7.18819C15.0977 7.20787 15.0765 7.22755 15.0553 7.24723C15.1401 7.24723 15.2463 7.24723 15.3312 7.24723C16.3286 7.24723 17.2624 7.46372 18.0901 7.81796C17.793 7.83764 17.411 7.83764 17.0078 7.75892C16.5833 7.6802 16.265 8.01476 15.9466 8.32964C15.6495 8.64453 15.3312 8.95941 14.9279 8.99877C14.6308 9.0381 14.3761 9.1365 14.1639 9.294L14.6308 11.1833C14.7369 11.1046 14.8218 10.9865 14.8855 10.9077C15.0553 10.6716 15.1401 10.5732 15.3948 10.6125C15.5434 10.6322 15.7344 10.6519 15.9678 10.6716C16.3074 10.6913 17.1139 10.7503 17.22 10.8881C17.2412 10.9471 17.6232 12.187 18.2599 12.2657C18.3873 12.2854 18.5995 12.2657 18.7905 11.9902C18.9391 11.7737 19.0452 11.5572 19.1513 11.3801C19.2999 11.1046 19.4272 10.8881 19.5545 10.829C19.7455 10.7503 20.2549 10.7109 20.4883 10.8487C20.552 10.8881 20.6157 10.9471 20.5945 11.0849C20.5945 11.262 20.4459 11.4194 20.2973 11.5572C20.1276 11.7343 19.8729 12.0098 20.0851 12.3247C20.2124 12.4822 20.4035 12.4822 20.552 12.4822C20.5945 12.4822 20.6794 12.4822 20.7218 12.5018C20.7218 12.5412 20.7218 12.6396 20.6369 12.8364C20.2973 13.6827 19.9153 14.647 21.2099 15.2964C21.2524 15.3161 21.316 15.3555 21.3585 15.3752C21.0826 16.0246 20.7006 16.5953 20.2337 17.107C19.7031 16.8512 19.4696 16.4379 19.5333 15.8672C19.597 15.0996 18.8966 14.9028 18.3873 14.7651C18.1963 14.706 18.0265 14.6667 17.8779 14.5879C17.1351 14.2337 16.7319 14.7257 16.4984 15.0012L16.4347 15.0603C16.4135 15.08 16.4135 15.08 16.4135 15.08C16.3286 15.08 16.0315 14.8241 15.8193 14.2927C15.6283 13.7811 15.3099 13.4465 14.9067 13.2891C14.843 13.4662 14.7157 13.6433 14.5671 13.8007L13.6545 14.647C13.506 14.7847 13.2937 14.8635 13.0815 14.8635C12.7632 14.8635 12.4873 14.706 12.3599 14.4502L11.7232 13.23C11.6808 13.2497 11.6383 13.2694 11.5959 13.2891C11.0441 13.5843 10.8743 14.4502 10.8319 14.6076C10.8106 14.706 10.7682 14.8044 10.7258 14.9225C10.5772 15.2571 10.4075 15.69 10.747 16.3985C11.0653 17.048 12.275 17.6974 13.6121 18.3665C13.9304 18.524 14.2063 18.6617 14.3124 18.7405C14.3973 18.7798 14.3973 18.8192 14.3973 18.8192C14.3973 18.8389 14.3761 18.8782 14.3761 18.9176C14.3549 18.9766 14.3337 19.0553 14.3337 19.1341C11.7869 18.7601 9.72832 16.9889 9.09163 14.6863L8.41249 15.3358C8.83695 16.615 9.68588 17.7171 10.8106 18.5437C8.85818 19.1931 7.26645 19.1341 6.41753 18.3469C5.54738 17.54 5.48372 16.0836 6.22652 14.214C6.31141 13.9975 6.41753 13.7614 6.52364 13.5449L6.35386 12.8758L6.16285 12.8364C5.95062 13.23 5.75961 13.6236 5.61105 14.0172C4.78336 16.1033 4.88947 17.7958 5.95062 18.7798C6.54487 19.3309 7.37257 19.5867 8.39127 19.5867C9.28264 19.5867 10.3013 19.3702 11.4261 18.957C12.5509 19.6261 13.888 20 15.3312 20C19.3635 20 22.6319 16.9693 22.6319 13.23C22.6319 12.0295 22.2923 10.8881 21.6768 9.9041C23.0563 7.32595 23.12 5.14145 21.8891 4Z"
    fill="#FF6600"
  />
</svg>
