<svg width="25" height="24" viewBox="0 0 25 24" fill="none" xmlns="http://www.w3.org/2000/svg">
  <path
    d="M7.28333 13.2227C2.9449 16.1776 3.68539 16.8305 9.50478 15.1813C18.2338 12.7076 27.1943 7.32685 19.4235 9.0661"
    stroke="#FF6600"
    stroke-linecap="round"
  />
  <path
    fill-rule="evenodd"
    clip-rule="evenodd"
    d="M12.7646 2.26501C8.89465 2.26501 5.76465 5.39502 5.76465 9.26501C5.76465 10.8555 6.40768 12.6759 7.3042 14.4409C7.85312 14.3189 8.47737 14.1639 9.17909 13.9745C13.116 12.9118 17.1959 11.1909 19.7438 9.77271C19.7575 9.60111 19.7646 9.43181 19.7646 9.26501C19.7646 5.39502 16.6346 2.26501 12.7646 2.26501ZM12.0046 21.375C11.1831 20.3865 9.8319 18.6727 8.59653 16.7062C8.98592 16.6112 9.39744 16.505 9.8306 16.3881C13.0107 15.5297 16.2867 14.2627 18.8802 13.0244C17.4952 16.3744 14.8381 19.7979 13.5346 21.375C13.1346 21.855 12.4046 21.855 12.0046 21.375ZM9.28534 10.1768C9.31693 10.1398 9.3207 10.086 9.29456 10.045L8.76472 9.1993C8.74584 9.1698 8.74078 9.1333 8.7509 9.0996C8.76102 9.0658 8.78528 9.03841 8.81708 9.02481L9.47302 8.76908C9.50213 8.75782 9.53455 8.76009 9.56182 8.77529L10.649 9.3082C10.6767 9.3218 10.7084 9.324 10.7378 9.3144L11.7419 8.92774C11.7714 8.91687 11.7954 8.89425 11.8084 8.86502C11.8213 8.8358 11.8222 8.80248 11.8108 8.77267L10.3902 7.0743C10.36 7.04007 10.3531 6.99052 10.3726 6.94883C10.3922 6.90715 10.4343 6.88158 10.4794 6.88408L11.5126 6.91065C11.5304 6.90779 11.5487 6.90906 11.5659 6.91438L13.6082 8.14452C13.6388 8.16454 13.6773 8.16724 13.7103 8.15168L14.9626 7.66358C15.481 7.41254 16.0857 7.43607 16.5823 7.72659C16.7465 7.80735 16.8457 7.98268 16.8325 8.16897C16.8185 8.36901 16.6079 8.57357 16.1949 8.73658L11.4454 10.6157C11.0454 10.7551 10.6259 10.8261 10.2037 10.8258L9.93732 10.8072C9.5377 10.7792 9.29573 10.6664 9.22852 10.4789C9.19296 10.3753 9.21466 10.2599 9.28534 10.1768Z"
    fill="#FF6600"
  />
</svg>
