<svg
  width="24"
  height="24"
  viewBox="0 0 24 24"
  fill="none"
  xmlns="http://www.w3.org/2000/svg"
>
  <path
    d="M16.22 9.25C15.2931 7.89617 13.7795 7.06151 12.14 7C10.4999 7.06081 8.9844 7.89083 8.04996 9.24C7.96907 9.3611 7.96907 9.5189 8.04996 9.64C8.97457 11.0042 10.4932 11.847 12.14 11.91C13.7836 11.8455 15.2985 11.0026 16.22 9.64C16.3083 9.525 16.3083 9.365 16.22 9.25ZM12.14 10.25C11.6833 10.2334 11.326 9.8507 11.3406 9.3939C11.3553 8.93716 11.7364 8.57818 12.1932 8.59087C12.65 8.60356 13.0107 8.98313 13 9.44C13.0001 9.6654 12.9086 9.8812 12.7464 10.0378C12.5841 10.1943 12.3652 10.2781 12.14 10.27V10.25ZM8.99996 9.44C9.66985 8.60313 10.6234 8.04097 11.68 7.86C10.9742 8.06417 10.4885 8.71034 10.4885 9.445C10.4885 10.1797 10.9742 10.8258 11.68 11.03C10.6206 10.85 9.66566 10.2835 8.99996 9.44ZM12 2C16.2593 2.04371 19.6938 5.50045 19.71 9.76C19.71 15.98 12.71 21.76 12.71 21.76C12.2655 22.0933 11.6544 22.0933 11.21 21.76L11.1864 21.7403C10.7434 21.3689 4.20996 15.7885 4.20996 9.76C4.22648 5.46942 7.70935 2 12 2ZM12 4.02C8.80223 4.02 6.20996 6.61227 6.20996 9.81C6.20996 13.75 9.99996 18 12 19.81V19.78C14 18 17.79 13.7 17.79 9.81C17.79 6.61227 15.1977 4.02 12 4.02ZM12.63 7.83C13.6905 8.00777 14.6482 8.57031 15.32 9.41C14.6383 10.2648 13.6603 10.8323 12.58 11C13.2891 10.8072 13.7853 10.1686 13.7969 9.4338C13.8085 8.69897 13.3327 8.04505 12.63 7.83Z"
    fill="#FF6600"
  />
</svg>
