<svg
  width="24"
  height="24"
  viewBox="0 0 24 24"
  fill="none"
  xmlns="http://www.w3.org/2000/svg"
>
  <path
    d="M6.51869 13.2227C2.18026 16.1776 2.92075 16.8305 8.74014 15.1813C17.4692 12.7076 26.4297 7.32685 18.6589 9.0661"
    stroke="#FF6600"
    stroke-linecap="round"
  />
  <path
    fill-rule="evenodd"
    clip-rule="evenodd"
    d="M12 2.26501C8.13 2.26501 5 5.39502 5 9.26501C5 10.8555 5.64303 12.6759 6.53955 14.4409C7.08847 14.3189 7.71272 14.1639 8.41444 13.9745C12.3514 12.9118 16.4313 11.1909 18.9792 9.77271C18.9929 9.60111 19 9.43181 19 9.26501C19 5.39502 15.87 2.26501 12 2.26501ZM11.24 21.375C10.4185 20.3865 9.06725 18.6727 7.83188 16.7062C8.22127 16.6112 8.63279 16.505 9.06595 16.3881C12.2461 15.5297 15.5221 14.2627 18.1156 13.0244C16.7306 16.3744 14.0735 19.7979 12.77 21.375C12.37 21.855 11.64 21.855 11.24 21.375ZM8.52069 10.1768C8.55228 10.1398 8.55605 10.086 8.52991 10.045L8.00007 9.1993C7.98119 9.1698 7.97613 9.1333 7.98625 9.0996C7.99637 9.0658 8.02063 9.03841 8.05243 9.02481L8.70837 8.76908C8.73748 8.75782 8.7699 8.76009 8.79717 8.77529L9.88431 9.3082C9.91201 9.3218 9.94379 9.324 9.97312 9.3144L10.9773 8.92774C11.0068 8.91687 11.0308 8.89425 11.0438 8.86502C11.0567 8.8358 11.0576 8.80248 11.0462 8.77267L9.62556 7.0743C9.5954 7.04007 9.58846 6.99052 9.608 6.94883C9.62754 6.90715 9.66968 6.88158 9.71471 6.88408L10.748 6.91065C10.7658 6.90779 10.7841 6.90906 10.8013 6.91438L12.8436 8.14452C12.8742 8.16454 12.9127 8.16724 12.9457 8.15168L14.198 7.66358C14.7164 7.41254 15.3211 7.43607 15.8177 7.72659C15.9819 7.80735 16.0811 7.98267 16.0679 8.16897C16.0539 8.36901 15.8433 8.57357 15.4303 8.73658L10.6808 10.6157C10.2808 10.7551 9.86124 10.8261 9.43908 10.8258L9.17267 10.8072C8.77305 10.7792 8.53108 10.6664 8.46387 10.4789C8.42831 10.3753 8.45001 10.2599 8.52069 10.1768Z"
    fill="#FF6600"
  />
</svg>
