<svg
  width="24"
  height="24"
  viewBox="0 0 24 24"
  fill="none"
  xmlns="http://www.w3.org/2000/svg"
>
  <path
    d="M6.11979 12.3838L3 11.7343L4.1036 10.6716C4.20971 10.5732 4.3795 10.5141 4.52806 10.5141C4.54928 10.5141 4.54928 10.5141 4.5705 10.5141L6.09856 10.6125L8.22087 8.62485L4.08237 6.75523C3.97626 6.69619 3.93381 6.57811 4.01871 6.49939L4.9313 5.65314C5.10108 5.4957 5.31331 5.41697 5.54676 5.41697C5.61043 5.41697 5.6741 5.41697 5.73777 5.43665L10.5554 6.42066L11.7651 5.27921C11.8076 5.23985 11.9561 5.10209 12.0198 5.04305C12.5716 4.53137 13.2719 4.31488 13.8025 4.31488C14.0784 4.31488 14.3331 4.37392 14.4604 4.492C14.8212 4.80689 14.7151 5.9877 13.8874 6.75523C13.845 6.79459 13.6752 6.95203 13.654 6.99139L12.4655 8.11316L13.5691 12.6396C13.6327 12.9151 13.5478 13.1907 13.3356 13.3875L12.423 14.2337C12.3806 14.2731 12.3381 14.2731 12.2957 14.2731C12.232 14.2731 12.1684 14.2337 12.1471 14.1747L10.1097 10.3173L7.98741 12.3247L8.11475 13.7417C8.13597 13.8991 8.0723 14.0763 7.94497 14.1747L6.84137 15.2374L6.11979 12.3838ZM21.1245 4L20.6788 4.41328C21.655 5.31857 21.5914 7.14883 20.5302 9.3137C19.2568 7.66052 17.2407 6.57811 14.9273 6.46002C14.7788 6.71587 14.609 6.97171 14.3543 7.18819C14.3331 7.20787 14.3119 7.22755 14.2907 7.24723C14.3755 7.24723 14.4817 7.24723 14.5666 7.24723C15.564 7.24723 16.4978 7.46372 17.3255 7.81796C17.0284 7.83764 16.6464 7.83764 16.2432 7.75892C15.8187 7.6802 15.5004 8.01476 15.182 8.32964C14.8849 8.64453 14.5666 8.95941 14.1633 8.99877C13.8662 9.0381 13.6115 9.1365 13.3993 9.294L13.8662 11.1833C13.9723 11.1046 14.0572 10.9865 14.1209 10.9077C14.2907 10.6716 14.3755 10.5732 14.6302 10.6125C14.7788 10.6322 14.9698 10.6519 15.2032 10.6716C15.5428 10.6913 16.3493 10.7503 16.4554 10.8881C16.4766 10.9471 16.8586 12.187 17.4953 12.2657C17.6227 12.2854 17.8349 12.2657 18.0259 11.9902C18.1745 11.7737 18.2806 11.5572 18.3867 11.3801C18.5353 11.1046 18.6626 10.8881 18.7899 10.829C18.9809 10.7503 19.4903 10.7109 19.7237 10.8487C19.7874 10.8881 19.8511 10.9471 19.8299 11.0849C19.8299 11.262 19.6813 11.4194 19.5327 11.5572C19.363 11.7343 19.1083 12.0098 19.3205 12.3247C19.4478 12.4822 19.6389 12.4822 19.7874 12.4822C19.8299 12.4822 19.9148 12.4822 19.9572 12.5018C19.9572 12.5412 19.9572 12.6396 19.8723 12.8364C19.5327 13.6827 19.1507 14.647 20.4453 15.2964C20.4878 15.3161 20.5514 15.3555 20.5939 15.3752C20.318 16.0246 19.936 16.5953 19.4691 17.107C18.9385 16.8512 18.705 16.4379 18.7687 15.8672C18.8324 15.0996 18.132 14.9028 17.6227 14.7651C17.4317 14.706 17.2619 14.6667 17.1133 14.5879C16.3705 14.2337 15.9673 14.7257 15.7338 15.0012L15.6701 15.0603C15.6489 15.08 15.6489 15.08 15.6489 15.08C15.564 15.08 15.2669 14.8241 15.0547 14.2927C14.8637 13.7811 14.5453 13.4465 14.1421 13.2891C14.0784 13.4662 13.9511 13.6433 13.8025 13.8007L12.8899 14.647C12.7414 14.7847 12.5291 14.8635 12.3169 14.8635C11.9986 14.8635 11.7227 14.706 11.5953 14.4502L10.9586 13.23C10.9162 13.2497 10.8737 13.2694 10.8313 13.2891C10.2795 13.5843 10.1097 14.4502 10.0673 14.6076C10.046 14.706 10.0036 14.8044 9.96115 14.9225C9.81259 15.2571 9.64281 15.69 9.98238 16.3985C10.3007 17.048 11.5104 17.6974 12.8475 18.3665C13.1658 18.524 13.4417 18.6617 13.5478 18.7405C13.6327 18.7798 13.6327 18.8192 13.6327 18.8192C13.6327 18.8389 13.6115 18.8782 13.6115 18.9176C13.5903 18.9766 13.5691 19.0553 13.5691 19.1341C11.0223 18.7601 8.96367 16.9889 8.32698 14.6863L7.64784 15.3358C8.0723 16.615 8.92123 17.7171 10.046 18.5437C8.09353 19.1931 6.5018 19.1341 5.65288 18.3469C4.78273 17.54 4.71907 16.0836 5.46187 14.214C5.54676 13.9975 5.65288 13.7614 5.75899 13.5449L5.58921 12.8758L5.3982 12.8364C5.18597 13.23 4.99496 13.6236 4.8464 14.0172C4.01871 16.1033 4.12482 17.7958 5.18597 18.7798C5.78022 19.3309 6.60792 19.5867 7.62662 19.5867C8.51799 19.5867 9.53669 19.3702 10.6615 18.957C11.7863 19.6261 13.1234 20 14.5666 20C18.5989 20 21.8673 16.9693 21.8673 13.23C21.8673 12.0295 21.5277 10.8881 20.9122 9.9041C22.2917 7.32595 22.3554 5.14145 21.1245 4Z"
    fill="#FF6600"
  />
</svg>
