<svg width="25" height="24" viewBox="0 0 25 24" fill="none" xmlns="http://www.w3.org/2000/svg">
  <path
    d="M12.7646 9.5208C11.3979 9.5208 10.2855 10.6329 10.2855 12C10.2855 13.3671 11.3979 14.4792 12.7646 14.4792C14.1313 14.4792 15.2438 13.3671 15.2438 12C15.2438 10.6329 14.1313 9.5208 12.7646 9.5208ZM12.7646 3.5C13.1556 3.5 13.4729 3.81733 13.4729 4.20833V5.66679C16.4228 5.99475 18.7698 8.34181 19.0978 11.2917H20.5563C20.9473 11.2917 21.2646 11.609 21.2646 12C21.2646 12.391 20.9473 12.7083 20.5563 12.7083H19.0978C18.7698 15.6582 16.4228 18.0052 13.4729 18.3332V19.7917C13.4729 20.1827 13.1556 20.5 12.7646 20.5C12.3736 20.5 12.0563 20.1827 12.0563 19.7917V18.3332C9.10646 18.0052 6.7594 15.6582 6.43144 12.7083H4.97298C4.58198 12.7083 4.26465 12.391 4.26465 12C4.26465 11.609 4.58198 11.2917 4.97298 11.2917H6.43144C6.7594 8.34181 9.10646 5.99475 12.0563 5.66679V4.20833C12.0563 3.81733 12.3736 3.5 12.7646 3.5ZM12.7646 7.04167C10.0305 7.04167 7.80632 9.2658 7.80632 12C7.80632 14.7342 10.0305 16.9583 12.7646 16.9583C15.4988 16.9583 17.7229 14.7342 17.7229 12C17.7229 9.2658 15.4988 7.04167 12.7646 7.04167ZM12.7646 10.9375C13.3504 10.9375 13.8271 11.4142 13.8271 12C13.8271 12.5858 13.3504 13.0625 12.7646 13.0625C12.1788 13.0625 11.7021 12.5858 11.7021 12C11.7021 11.4142 12.1788 10.9375 12.7646 10.9375Z"
    fill="#FF6600"
  />
</svg>
