<svg
  width="24"
  height="24"
  viewBox="0 0 24 24"
  fill="none"
  xmlns="http://www.w3.org/2000/svg"
>
  <path
    d="M12 9.5208C10.6333 9.5208 9.52083 10.6329 9.52083 12C9.52083 13.3671 10.6333 14.4792 12 14.4792C13.3667 14.4792 14.4792 13.3671 14.4792 12C14.4792 10.6329 13.3667 9.5208 12 9.5208ZM12 3.5C12.391 3.5 12.7083 3.81733 12.7083 4.20833V5.66679C15.6582 5.99475 18.0052 8.34181 18.3332 11.2917H19.7917C20.1827 11.2917 20.5 11.609 20.5 12C20.5 12.391 20.1827 12.7083 19.7917 12.7083H18.3332C18.0052 15.6582 15.6582 18.0052 12.7083 18.3332V19.7917C12.7083 20.1827 12.391 20.5 12 20.5C11.609 20.5 11.2917 20.1827 11.2917 19.7917V18.3332C8.34181 18.0052 5.99475 15.6582 5.66679 12.7083H4.20833C3.81733 12.7083 3.5 12.391 3.5 12C3.5 11.609 3.81733 11.2917 4.20833 11.2917H5.66679C5.99475 8.34181 8.34181 5.99475 11.2917 5.66679V4.20833C11.2917 3.81733 11.609 3.5 12 3.5ZM12 7.04167C9.26583 7.04167 7.04167 9.2658 7.04167 12C7.04167 14.7342 9.26583 16.9583 12 16.9583C14.7342 16.9583 16.9583 14.7342 16.9583 12C16.9583 9.2658 14.7342 7.04167 12 7.04167ZM12 10.9375C12.5858 10.9375 13.0625 11.4142 13.0625 12C13.0625 12.5858 12.5858 13.0625 12 13.0625C11.4142 13.0625 10.9375 12.5858 10.9375 12C10.9375 11.4142 11.4142 10.9375 12 10.9375Z"
    fill="#FF6600"
  />
</svg>
