<svg
  width="24"
  height="24"
  viewBox="0 0 24 24"
  fill="none"
  xmlns="http://www.w3.org/2000/svg"
>
  <path
    d="M12 5.93C10.3777 5.90972 8.9039 6.87133 8.26899 8.3643C7.63408 9.8573 7.96385 11.5859 9.1038 12.7403C10.2438 13.8947 11.9681 14.2461 13.4689 13.6301C14.9698 13.014 15.9498 11.5524 15.95 9.93C15.9501 7.74024 14.1895 5.95737 12 5.93ZM12 2C16.2593 2.04371 19.6938 5.50045 19.71 9.76C19.71 15.98 12.71 21.76 12.71 21.76C12.2655 22.0933 11.6544 22.0933 11.21 21.76L11.1864 21.7403C10.7434 21.3689 4.20996 15.7885 4.20996 9.76C4.22648 5.46942 7.70935 2 12 2ZM12 3.97C8.80223 3.97 6.20996 6.56227 6.20996 9.76C6.20996 13.7 9.99996 18 12 19.81V19.78C14 18 17.79 13.7 17.79 9.76C17.79 6.56227 15.1977 3.97 12 3.97ZM12.7033 7.98794C13.4568 8.29434 13.9497 9.0266 13.95 9.84C13.9503 10.9253 13.085 11.8129 12 11.84C11.1868 11.8603 10.4423 11.3862 10.1169 10.6406C9.79156 9.8951 9.95011 9.0268 10.518 8.44442C11.0858 7.86202 11.9498 7.68154 12.7033 7.98794Z"
    fill="#FF6600"
  />
</svg>
