<svg width="25" height="24" viewBox="0 0 25 24" fill="none" xmlns="http://www.w3.org/2000/svg">
  <path
    d="M14.5369 21.9984L14.8395 21.9379L15.5858 21.7463L16.0396 21.595L16.4026 21.4538C16.5741 21.3933 16.7254 21.3227 16.8867 21.2521L17.1187 21.1412C21.1336 19.1728 23.3729 14.7957 22.6201 10.388C21.8672 5.98035 18.3019 2.59471 13.8612 2.07059C13.4763 2.02557 13.0891 2.002 12.7015 2C12.2968 2.00144 11.8926 2.02839 11.4913 2.08068L11.0173 2.15127L10.5836 2.23195L10.281 2.31263C9.95832 2.39331 9.64569 2.49416 9.34314 2.59501L9.02042 2.71603L8.61702 2.88747H8.55651L8.24388 3.03875H8.18337L7.8304 3.23036L7.52785 3.42198L7.39675 3.50266L7.13454 3.66401L6.65046 4.01699L6.57987 4.0775C6.39632 4.20751 6.22117 4.34898 6.05545 4.50106L5.97477 4.56157L5.64197 4.86412L5.48061 5.02548L5.34951 5.16667C5.25015 5.26604 5.15591 5.37038 5.06713 5.4793L4.99653 5.55998L4.84526 5.74151C4.82174 5.78083 4.79473 5.81795 4.76458 5.85244L4.53263 6.15499L4.43178 6.29618C4.43178 6.36678 4.34101 6.42729 4.30067 6.4878L4.24016 6.57856L4.0788 6.84077L4.02838 6.93153C3.84187 7.25657 3.6768 7.59346 3.53422 7.94003C3.50806 7.97527 3.48447 8.01234 3.46362 8.05096C3.30049 8.41426 3.16234 8.78827 3.05014 9.1704V9.2511V9.362C3.05014 9.5032 2.98963 9.6545 2.94929 9.7956C2.90895 9.9368 2.94929 9.9973 2.8787 10.0982C2.87305 10.1316 2.87305 10.1657 2.8787 10.1991C2.8787 10.31 2.8787 10.4209 2.82827 10.5319C2.79822 10.6816 2.778 10.8332 2.76776 10.9857C2.76361 11.009 2.76361 11.0329 2.76776 11.0563C2.76776 11.0563 2.76776 11.1269 2.76776 11.1571C2.76776 11.1874 2.76776 11.5101 2.76776 11.6815C2.76776 11.853 2.76776 11.9437 2.76776 12.0748V12.1454C2.76776 12.3371 2.76776 12.5287 2.76776 12.7203C2.76776 12.9119 2.76776 13.0228 2.76776 13.164C2.76776 13.3052 2.76776 13.4262 2.82827 13.5674C2.88878 13.7086 2.82827 13.9708 2.91904 14.1624C2.98963 14.465 3.07031 14.7574 3.16107 15.0499C3.22831 15.2718 3.30899 15.4936 3.40311 15.7155L3.51405 16.0181C3.58464 16.1794 3.66532 16.3408 3.746 16.4921L3.97795 16.9459L4.18974 17.2988C4.30067 17.4703 4.40152 17.6417 4.52254 17.8132L4.58305 17.9039C4.61238 17.9355 4.63935 17.9692 4.66373 18.0048C4.96881 18.4111 5.30606 18.7922 5.67222 19.1444C6.03677 19.5128 6.43146 19.8502 6.85216 20.1529C6.85216 20.1529 6.85216 20.2033 6.93284 20.2134L7.18496 20.405L7.4976 20.5966C7.66904 20.6975 7.8304 20.8084 8.01193 20.8992L8.19346 20.9899L8.52626 21.1412L8.88932 21.3126H8.93974L9.13136 21.3732L9.40365 21.474L9.79696 21.6051L10.0088 21.6555L10.2911 21.7261L10.7248 21.827H10.9568L11.2997 21.8774C11.4207 21.8774 11.5518 21.9278 11.6829 21.9379H11.9148C12.167 21.9379 12.4191 21.9379 12.6813 21.9379C12.9435 21.9379 13.3066 21.9379 13.6091 21.8875H13.8814L14.5369 21.9984ZM12.7015 4.01699C13.1207 4.01844 13.5391 4.05555 13.952 4.12792L13.4074 5.21709C13.3661 5.29557 13.3589 5.38759 13.3875 5.47152C13.4162 5.55546 13.4781 5.62392 13.5587 5.66083L14.5672 6.00372H14.7487L15.9992 5.69109L16.917 6.00372L18.228 6.26593C18.634 6.65806 18.999 7.09059 19.3172 7.5568L18.9743 7.67782L17.1792 7.37527L16.5943 6.4878C16.5287 6.39762 16.4234 6.34496 16.3119 6.34661H14.2949C14.2085 6.3446 14.125 6.3773 14.0629 6.43737L13.0544 7.44586C12.9776 7.52264 12.9404 7.63052 12.9536 7.73833L13.2965 10.0881C13.3124 10.2051 13.3892 10.3049 13.4982 10.3503L15.848 11.3588H16.0598L17.3405 11.0764L18.0767 11.5605V12.7405V12.8816L19.3878 15.4936V16.5021C17.3373 19.5759 13.4608 20.8639 9.97849 19.6285V18.62L11.1887 17.7123C11.2722 17.6468 11.3206 17.5462 11.3198 17.44V16.5727L12.5704 15.3323L12.6611 15.1508L12.9939 13.4767C13.0147 13.3894 12.9983 13.2975 12.9485 13.2229C12.8988 13.1483 12.8202 13.0977 12.7317 13.0833H11.5417L10.6844 11.5807C10.624 11.476 10.5129 11.4108 10.392 11.4092H8.20354L7.65896 10.2596C7.61843 10.1396 7.50302 10.0613 7.37658 10.0679C7.26993 10.0451 7.1591 10.0795 7.08411 10.1587L6.65046 10.6024V10.0679C6.64868 9.9804 6.61244 9.897 6.54961 9.836L5.97477 9.2612V8.67623L8.04218 8.38376H8.1632L9.84739 7.37527L9.95832 7.25425L10.9064 5.681L11.7938 5.38854C11.8949 5.35696 11.974 5.27782 12.0056 5.17675L12.3485 4.16826C12.3534 4.1382 12.3534 4.10755 12.3485 4.0775L12.7015 4.01699ZM5.78316 11.4698L5.39993 11.853C5.33985 11.915 5.30716 11.9986 5.30917 12.0849V13.0934V13.2447L5.98486 14.586C6.02973 14.6793 6.11547 14.7464 6.21681 14.7675L7.6287 15.0499V18.1359V18.2569L7.6993 18.4384C5.35463 16.6369 4.19183 13.6912 4.67382 10.7739L5.78316 11.4698Z"
    fill="#FF6600"
  />
</svg>
