<svg width="25" height="24" viewBox="0 0 25 24" fill="none" xmlns="http://www.w3.org/2000/svg">
  <path
    d="M12.7646 2.26501C8.89465 2.26501 5.76465 5.39501 5.76465 9.26501C5.76465 13.435 10.1846 19.185 12.0046 21.375C12.4046 21.855 13.1346 21.855 13.5346 21.375C15.3446 19.185 19.7646 13.435 19.7646 9.26501C19.7646 5.39501 16.6346 2.26501 12.7646 2.26501ZM12.7646 11.765C11.3846 11.765 10.2646 10.645 10.2646 9.26501C10.2646 7.88501 11.3846 6.76501 12.7646 6.76501C14.1446 6.76501 15.2646 7.88501 15.2646 9.26501C15.2646 10.645 14.1446 11.765 12.7646 11.765Z"
    fill="#FF6600"
  />
</svg>
