<svg width="25" height="24" viewBox="0 0 25 24" fill="none" xmlns="http://www.w3.org/2000/svg">
  <path
    d="M12.7646 2C17.0239 2.04371 20.4584 5.50045 20.4746 9.76C20.4746 15.98 13.4746 21.76 13.4746 21.76C13.029 22.09 12.4201 22.09 11.9746 21.76L11.951 21.7403C11.508 21.3689 4.97461 15.7885 4.97461 9.76C4.99113 5.46942 8.474 2 12.7646 2ZM14.2335 6.16994C12.7327 5.55386 11.0084 5.90535 9.86845 7.05973C8.7285 8.21411 8.39873 9.9427 9.03364 11.4357C9.66855 12.9287 11.1423 13.8903 12.7646 13.87V13.84C14.9425 13.8128 16.6984 12.0481 16.7146 9.87C16.7144 8.24763 15.7344 6.78602 14.2335 6.16994ZM12.7646 7.93C13.8415 7.93 14.7146 8.80304 14.7146 9.88C14.7146 10.957 13.8415 11.83 12.7646 11.83C11.6876 11.83 10.8146 10.957 10.8146 9.88C10.8146 8.80304 11.6876 7.93 12.7646 7.93Z"
    fill="#FF6600"
  />
</svg>
