<svg
  width="24"
  height="24"
  viewBox="0 0 24 24"
  fill="none"
  xmlns="http://www.w3.org/2000/svg"
>
  <path
    fill-rule="evenodd"
    clip-rule="evenodd"
    d="M12.0462 2.5787C13.9546 2.5787 15.6805 3.35056 16.9293 4.59938C18.1781 5.84819 18.95 7.57406 18.95 9.48246C18.95 13.4129 14.8197 18.854 13.1085 20.9244C12.8321 21.2562 12.4412 21.4213 12.0508 21.4213C11.6604 21.4213 11.2696 21.2562 10.9927 20.9238C9.27313 18.8548 5.14245 13.4131 5.14245 9.48246C5.14245 7.57406 5.91431 5.84819 7.16313 4.59938C8.41195 3.35056 10.1378 2.5787 12.0462 2.5787ZM12.0462 7.64147C11.5381 7.64147 11.0778 7.84772 10.7446 8.18092C10.4114 8.51413 10.2052 8.97434 10.2052 9.48246C10.2052 9.99057 10.4114 10.4507 10.7446 10.7839C11.0778 11.1172 11.5381 11.3234 12.0462 11.3234C12.5543 11.3234 13.0146 11.1172 13.3478 10.7839C13.681 10.4507 13.8872 9.99057 13.8872 9.48246C13.8872 8.97434 13.681 8.51413 13.3478 8.18092C13.0146 7.84772 12.5543 7.64147 12.0462 7.64147Z"
    fill="#FF6600"
  />
  <path
    d="M16.0749 18.523C16.7606 19.5492 17.4493 20.4234 17.8977 20.9667C18.1608 21.2845 18.6408 21.2845 18.9038 20.9667C20.0938 19.5172 23 15.7113 23 12.9512C23 10.886 21.6622 9.13921 19.8103 8.53984C19.8474 8.84887 19.8665 9.16345 19.8665 9.48249C19.8665 11.7106 18.7184 14.2365 17.46 16.3671C17.0124 17.1249 16.5389 17.8523 16.0749 18.523Z"
    fill="#FF6600"
  />
  <path
    d="M15.5385 17.6842C14.6009 16.1476 13.7953 14.4045 13.7953 12.9512C13.7953 10.3897 15.8532 8.31799 18.3978 8.31799C18.5526 8.31799 18.7055 8.32565 18.8563 8.34063C18.918 8.71199 18.95 9.09343 18.95 9.48246C18.95 12.0247 17.2221 15.1988 15.5385 17.6842Z"
    fill="#FF6600"
  />
  <path
    d="M4.28538 8.51001C2.38401 9.07939 1 10.8506 1 12.9512C1 15.7113 3.90615 19.5172 5.10281 20.9667C5.36581 21.2845 5.84578 21.2845 6.10878 20.9667C6.56473 20.4114 7.27258 19.5102 7.97237 18.4543C7.52304 17.803 7.06605 17.0995 6.63345 16.3678C5.37372 14.2368 4.22559 11.7109 4.22559 9.48246C4.22559 9.15316 4.24591 8.82861 4.28538 8.51001Z"
    fill="#FF6600"
  />
  <path
    d="M5.23758 8.33232C5.35804 8.32283 5.47981 8.31799 5.60271 8.31799C6.90759 8.31799 8.0845 8.86281 8.92154 9.73913C9.68923 10.5429 10.171 11.6254 10.2034 12.8222C10.2046 12.8651 10.2052 12.908 10.2052 12.9512C10.2052 14.3816 9.42471 16.0928 8.50706 17.6114C6.8369 15.1373 5.14245 12 5.14245 9.48246C5.14245 9.09053 5.17501 8.7063 5.23758 8.33232Z"
    fill="#FF6600"
  />
</svg>
