<svg
  width="24"
  height="24"
  viewBox="0 0 24 24"
  fill="none"
  xmlns="http://www.w3.org/2000/svg"
>
  <path
    d="M12 2C16.2593 2.04371 19.6938 5.50045 19.71 9.76C19.71 15.98 12.71 21.76 12.71 21.76C12.2644 22.09 11.6555 22.09 11.21 21.76L11.1864 21.7403C10.7434 21.3689 4.20996 15.7885 4.20996 9.76C4.22648 5.46942 7.70935 2 12 2ZM13.4689 6.16994C11.9681 5.55386 10.2438 5.90535 9.1038 7.05973C7.96385 8.21411 7.63408 9.9427 8.26899 11.4357C8.9039 12.9287 10.3777 13.8903 12 13.87V13.84C14.1779 13.8128 15.9338 12.0481 15.95 9.87C15.9498 8.24763 14.9698 6.78602 13.4689 6.16994ZM12 7.93C13.0769 7.93 13.95 8.80304 13.95 9.88C13.95 10.957 13.0769 11.83 12 11.83C10.923 11.83 10.05 10.957 10.05 9.88C10.05 8.80304 10.923 7.93 12 7.93Z"
    fill="#FF6600"
  />
</svg>
