<svg width="25" height="24" viewBox="0 0 25 24" fill="none" xmlns="http://www.w3.org/2000/svg">
  <path
    fill-rule="evenodd"
    clip-rule="evenodd"
    d="M12.811 2.57874C14.7194 2.57874 16.4453 3.3506 17.6941 4.59942C18.9429 5.84823 19.7148 7.5741 19.7148 9.4825C19.7148 13.4129 15.5845 18.854 13.8733 20.9244C13.5969 21.2562 13.206 21.4213 12.8156 21.4213C12.4252 21.4213 12.0344 21.2562 11.7575 20.9238C10.0379 18.8548 5.90723 13.4131 5.90723 9.4825C5.90723 7.5741 6.67909 5.84823 7.92791 4.59942C9.17673 3.3506 10.9026 2.57874 12.811 2.57874ZM12.811 7.64151C12.3029 7.64151 11.8426 7.84775 11.5094 8.18095C11.1762 8.51416 10.97 8.97438 10.97 9.4825C10.97 9.99061 11.1762 10.4507 11.5094 10.7839C11.8426 11.1172 12.3029 11.3234 12.811 11.3234C13.3191 11.3234 13.7794 11.1172 14.1126 10.7839C14.4458 10.4507 14.652 9.99061 14.652 9.4825C14.652 8.97438 14.4458 8.51416 14.1126 8.18095C13.7794 7.84775 13.3191 7.64151 12.811 7.64151Z"
    fill="#FF6600"
  />
  <path
    d="M16.8394 18.523C17.5251 19.5492 18.2138 20.4234 18.6622 20.9667C18.9253 21.2845 19.4053 21.2845 19.6683 20.9667C20.8583 19.5172 23.7645 15.7113 23.7645 12.9512C23.7645 10.886 22.4267 9.13916 20.5748 8.53979C20.6119 8.84882 20.631 9.1634 20.631 9.48244C20.631 11.7106 19.4829 14.2365 18.2245 16.3671C17.7769 17.1249 17.3034 17.8523 16.8394 18.523Z"
    fill="#FF6600"
  />
  <path
    d="M16.3033 17.6842C15.3657 16.1476 14.5601 14.4045 14.5601 12.9512C14.5601 10.3897 16.618 8.31799 19.1626 8.31799C19.3174 8.31799 19.4703 8.32565 19.6211 8.34063C19.6828 8.71199 19.7148 9.09343 19.7148 9.48246C19.7148 12.0247 17.9869 15.1988 16.3033 17.6842Z"
    fill="#FF6600"
  />
  <path
    d="M5.05003 8.51001C3.14866 9.07939 1.76465 10.8506 1.76465 12.9512C1.76465 15.7113 4.6708 19.5172 5.86746 20.9667C6.13046 21.2845 6.61043 21.2845 6.87343 20.9667C7.32938 20.4114 8.03723 19.5102 8.73702 18.4543C8.28769 17.803 7.8307 17.0995 7.3981 16.3678C6.13837 14.2368 4.99024 11.7109 4.99024 9.48246C4.99024 9.15316 5.01056 8.82861 5.05003 8.51001Z"
    fill="#FF6600"
  />
  <path
    d="M6.00236 8.33232C6.12282 8.32283 6.24459 8.31799 6.36749 8.31799C7.67237 8.31799 8.84928 8.86281 9.68632 9.73913C10.454 10.5429 10.9358 11.6254 10.9682 12.8222C10.9694 12.8651 10.97 12.908 10.97 12.9512C10.97 14.3816 10.1895 16.0928 9.27184 17.6114C7.60168 15.1373 5.90723 12 5.90723 9.48246C5.90723 9.09053 5.93979 8.7063 6.00236 8.33232Z"
    fill="#FF6600"
  />
</svg>
