<svg
  width="24"
  height="24"
  viewBox="0 0 24 24"
  fill="none"
  xmlns="http://www.w3.org/2000/svg"
>
  <path
    d="M13.7722 21.9984L14.0748 21.9379L14.8211 21.7463L15.2749 21.595L15.6379 21.4538C15.8094 21.3933 15.9607 21.3227 16.122 21.2521L16.354 21.1412C20.3689 19.1728 22.6083 14.7957 21.8554 10.388C21.1025 5.98035 17.5372 2.59471 13.0965 2.07059C12.7116 2.02557 12.3244 2.002 11.9368 2C11.5321 2.00144 11.1279 2.02839 10.7266 2.08068L10.2526 2.15127L9.81894 2.23195L9.51639 2.31263C9.19367 2.39331 8.88104 2.49416 8.57849 2.59501L8.25577 2.71603L7.85237 2.88747H7.79186L7.47923 3.03875H7.41872L7.06575 3.23036L6.7632 3.42198L6.6321 3.50266L6.36989 3.66401L5.88581 4.01699L5.81522 4.0775C5.63167 4.20751 5.45652 4.34898 5.2908 4.50106L5.21012 4.56157L4.87732 4.86412L4.71596 5.02548L4.58486 5.16667C4.4855 5.26604 4.39126 5.37038 4.30248 5.4793L4.23188 5.55998L4.08061 5.74151C4.05709 5.78083 4.03008 5.81795 3.99993 5.85244L3.76798 6.15499L3.66713 6.29618C3.66713 6.36678 3.57636 6.42729 3.53602 6.4878L3.47551 6.57856L3.31415 6.84077L3.26373 6.93153C3.07722 7.25657 2.91215 7.59346 2.76957 7.94003C2.74341 7.97527 2.71982 8.01234 2.69897 8.05096C2.53584 8.41426 2.39769 8.78827 2.28549 9.1704V9.2511V9.362C2.28549 9.5032 2.22498 9.6545 2.18464 9.7956C2.1443 9.9368 2.18464 9.9973 2.11405 10.0982C2.1084 10.1316 2.1084 10.1657 2.11405 10.1991C2.11405 10.31 2.11405 10.4209 2.06362 10.5319C2.03357 10.6816 2.01335 10.8332 2.00311 10.9857C1.99896 11.009 1.99896 11.0329 2.00311 11.0563C2.00311 11.0563 2.00311 11.1269 2.00311 11.1571C2.00311 11.1874 2.00311 11.5101 2.00311 11.6815C2.00311 11.853 2.00311 11.9437 2.00311 12.0748V12.1454C2.00311 12.3371 2.00311 12.5287 2.00311 12.7203C2.00311 12.9119 2.00311 13.0228 2.00311 13.164C2.00311 13.3052 2.00311 13.4262 2.06362 13.5674C2.12413 13.7086 2.06362 13.9708 2.15439 14.1624C2.22498 14.465 2.30566 14.7574 2.39642 15.0499C2.46366 15.2718 2.54434 15.4936 2.63846 15.7155L2.7494 16.0181C2.81999 16.1794 2.90067 16.3408 2.98135 16.4921L3.2133 16.9459L3.42509 17.2988C3.53602 17.4703 3.63687 17.6417 3.75789 17.8132L3.8184 17.9039C3.84773 17.9355 3.8747 17.9692 3.89908 18.0048C4.20416 18.4111 4.54141 18.7922 4.90757 19.1444C5.27212 19.5128 5.66681 19.8502 6.08751 20.1529C6.08751 20.1529 6.08751 20.2033 6.16819 20.2134L6.42031 20.405L6.73295 20.5966C6.90439 20.6975 7.06575 20.8084 7.24728 20.8992L7.42881 20.9899L7.76161 21.1412L8.12467 21.3126H8.17509L8.36671 21.3732L8.639 21.474L9.03231 21.6051L9.2441 21.6555L9.52647 21.7261L9.96013 21.827H10.1921L10.535 21.8774C10.656 21.8774 10.7871 21.9278 10.9182 21.9379H11.1501C11.4023 21.9379 11.6544 21.9379 11.9166 21.9379C12.1788 21.9379 12.5419 21.9379 12.8444 21.8875H13.1167L13.7722 21.9984ZM11.9368 4.01699C12.356 4.01844 12.7744 4.05555 13.1873 4.12792L12.6427 5.21709C12.6014 5.29557 12.5942 5.38759 12.6228 5.47152C12.6515 5.55546 12.7134 5.62392 12.794 5.66083L13.8025 6.00372H13.984L15.2345 5.69109L16.1523 6.00372L17.4633 6.26593C17.8693 6.65806 18.2343 7.09059 18.5525 7.5568L18.2096 7.67782L16.4145 7.37527L15.8296 6.4878C15.764 6.39762 15.6587 6.34496 15.5472 6.34661H13.5302C13.4438 6.3446 13.3603 6.3773 13.2982 6.43737L12.2897 7.44586C12.2129 7.52264 12.1757 7.63052 12.1889 7.73833L12.5318 10.0881C12.5477 10.2051 12.6245 10.3049 12.7335 10.3503L15.0833 11.3588H15.2951L16.5758 11.0764L17.312 11.5605V12.7405V12.8816L18.6231 15.4936V16.5021C16.5726 19.5759 12.6961 20.8639 9.21384 19.6285V18.62L10.424 17.7123C10.5075 17.6468 10.5559 17.5462 10.5551 17.44V16.5727L11.8057 15.3323L11.8964 15.1508L12.2292 13.4767C12.25 13.3894 12.2336 13.2975 12.1838 13.2229C12.1341 13.1483 12.0555 13.0977 11.967 13.0833H10.777L9.91979 11.5807C9.85934 11.476 9.74822 11.4108 9.62732 11.4092H7.43889L6.89431 10.2596C6.85378 10.1396 6.73837 10.0613 6.61193 10.0679C6.50528 10.0451 6.39445 10.0795 6.31946 10.1587L5.88581 10.6024V10.0679C5.88403 9.9804 5.84779 9.897 5.78496 9.836L5.21012 9.2612V8.67623L7.27753 8.38376H7.39855L9.08274 7.37527L9.19367 7.25425L10.1417 5.681L11.0291 5.38854C11.1302 5.35696 11.2093 5.27782 11.2409 5.17675L11.5838 4.16826C11.5887 4.1382 11.5887 4.10755 11.5838 4.0775L11.9368 4.01699ZM5.01851 11.4698L4.63528 11.853C4.5752 11.915 4.54251 11.9986 4.54452 12.0849V13.0934V13.2447L5.22021 14.586C5.26508 14.6793 5.35082 14.7464 5.45216 14.7675L6.86405 15.0499V18.1359V18.2569L6.93465 18.4384C4.58998 16.6369 3.42718 13.6912 3.90917 10.7739L5.01851 11.4698Z"
    fill="#FF6600"
  />
</svg>
