<svg width="25" height="24" viewBox="0 0 25 24" fill="none" xmlns="http://www.w3.org/2000/svg">
  <path
    d="M16.9846 9.25C16.0577 7.89617 14.5441 7.06151 12.9046 7C11.2645 7.06081 9.74905 7.89083 8.81461 9.24C8.73372 9.3611 8.73372 9.5189 8.81461 9.64C9.73922 11.0042 11.2578 11.847 12.9046 11.91C14.5483 11.8455 16.0631 11.0026 16.9846 9.64C17.0729 9.525 17.0729 9.365 16.9846 9.25ZM12.9046 10.25C12.4479 10.2334 12.0906 9.8507 12.1052 9.3939C12.1199 8.93716 12.501 8.57818 12.9578 8.59087C13.4146 8.60356 13.7753 8.98313 13.7646 9.44C13.7647 9.6654 13.6732 9.8812 13.511 10.0378C13.3487 10.1943 13.1298 10.2781 12.9046 10.27V10.25ZM9.76461 9.44C10.4345 8.60313 11.388 8.04097 12.4446 7.86C11.7388 8.06417 11.2531 8.71034 11.2531 9.445C11.2531 10.1797 11.7388 10.8258 12.4446 11.03C11.3852 10.85 10.4303 10.2835 9.76461 9.44ZM12.7646 2C17.0239 2.04371 20.4584 5.50045 20.4746 9.76C20.4746 15.98 13.4746 21.76 13.4746 21.76C13.0301 22.0933 12.419 22.0933 11.9746 21.76L11.951 21.7403C11.508 21.3689 4.97461 15.7885 4.97461 9.76C4.99113 5.46942 8.474 2 12.7646 2ZM12.7646 4.02C9.56688 4.02 6.97461 6.61227 6.97461 9.81C6.97461 13.75 10.7646 18 12.7646 19.81V19.78C14.7646 18 18.5547 13.7 18.5547 9.81C18.5547 6.61227 15.9623 4.02 12.7646 4.02ZM13.3946 7.83C14.4551 8.00777 15.4128 8.57031 16.0846 9.41C15.4029 10.2648 14.4249 10.8323 13.3446 11C14.0537 10.8072 14.5499 10.1686 14.5615 9.4338C14.5731 8.69897 14.0973 8.04505 13.3946 7.83Z"
    fill="#FF6600"
  />
</svg>
