<svg width="25" height="24" viewBox="0 0 25 24" fill="none" xmlns="http://www.w3.org/2000/svg">
  <path
    d="M18.9848 9.21H17.0648V6.29002C17.0648 5.15051 16.6114 4.05781 15.8047 3.25299C14.998 2.44818 13.9043 1.99737 12.7648 2.00001C10.3994 2.00554 8.48481 3.92462 8.48482 6.29002V9.21H6.54482C5.24695 9.21 4.19482 10.2622 4.19482 11.56V19.65C4.19482 20.9479 5.24695 22 6.54482 22H18.9848C19.608 22 20.2058 21.7524 20.6465 21.3117C21.0872 20.871 21.3348 20.2733 21.3348 19.65V11.56C21.3348 10.9368 21.0872 10.339 20.6465 9.8983C20.2058 9.4576 19.608 9.21 18.9848 9.21ZM10.4848 6.29002C10.4848 5.02529 11.51 4.00002 12.7748 4.00002C14.0395 4.00002 15.0648 5.02529 15.0648 6.29002V9.21H10.4848V6.29002ZM13.7748 16.29V17.6C13.7748 18.1523 13.3271 18.6 12.7748 18.6C12.2225 18.6 11.7748 18.1523 11.7748 17.6V16.33C11.1566 15.9731 10.7755 15.3138 10.7747 14.6C10.7689 13.6279 11.4629 12.7924 12.4195 12.6198C13.3762 12.4471 14.3184 12.9874 14.6527 13.9002C14.9871 14.813 14.6166 15.834 13.7748 16.32V16.29Z"
    fill="#FF6600"
  />
</svg>
