<svg
  width="24"
  height="24"
  viewBox="0 0 24 24"
  fill="none"
  xmlns="http://www.w3.org/2000/svg"
>
  <path
    d="M12.0102 2C14.3795 2 16.3002 3.9207 16.3002 6.29V9.21H18.2202C18.8434 9.21 19.4412 9.4576 19.8819 9.8983C20.3226 10.339 20.5702 10.9367 20.5702 11.56V19.65C20.5702 20.2733 20.3226 20.871 19.8819 21.3117C19.4412 21.7524 18.8434 22 18.2202 22H5.78018C4.48231 22 3.43018 20.9479 3.43018 19.65V11.56C3.43018 10.2621 4.48231 9.21 5.78018 9.21H7.72018V6.29C7.72018 3.9207 9.64084 2 12.0102 2ZM18.2202 11.21H5.78018C5.58688 11.21 5.43018 11.3667 5.43018 11.56V19.65C5.43018 19.8433 5.58688 20 5.78018 20H18.2202C18.4135 20 18.5702 19.8433 18.5702 19.65V11.56C18.5702 11.3667 18.4135 11.21 18.2202 11.21ZM12.0002 12.6C12.8972 12.6092 13.6783 13.2144 13.9112 14.0807C14.1441 14.947 13.7717 15.8623 13.0002 16.32V17.6C13.0002 18.1523 12.5525 18.6 12.0002 18.6C11.4479 18.6 11.0002 18.1523 11.0002 17.6V16.33C10.382 15.9731 10.0009 15.3138 10.0002 14.6C10.0002 13.4954 10.8956 12.6 12.0002 12.6ZM12.0102 4C10.7454 4 9.72018 5.02527 9.72018 6.29V9.21H14.3002V6.29C14.3002 5.02527 13.2749 4 12.0102 4Z"
    fill="#FF6600"
  />
</svg>
