<svg width="25" height="24" viewBox="0 0 25 24" fill="none" xmlns="http://www.w3.org/2000/svg">
  <path
    d="M12.7748 2C15.1441 2 17.0648 3.9207 17.0648 6.29V9.21H18.9848C19.608 9.21 20.2058 9.4576 20.6465 9.8983C21.0872 10.339 21.3348 10.9367 21.3348 11.56V19.65C21.3348 20.2733 21.0872 20.871 20.6465 21.3117C20.2058 21.7524 19.608 22 18.9848 22H6.54482C5.24695 22 4.19482 20.9479 4.19482 19.65V11.56C4.19482 10.2621 5.24695 9.21 6.54482 9.21H8.48482V6.29C8.48482 3.9207 10.4055 2 12.7748 2ZM18.9848 11.21H6.54482C6.35152 11.21 6.19482 11.3667 6.19482 11.56V19.65C6.19482 19.8433 6.35152 20 6.54482 20H18.9848C19.1781 20 19.3348 19.8433 19.3348 19.65V11.56C19.3348 11.3667 19.1781 11.21 18.9848 11.21ZM12.7648 12.6C13.6618 12.6092 14.4429 13.2144 14.6758 14.0807C14.9087 14.947 14.5363 15.8623 13.7648 16.32V17.6C13.7648 18.1523 13.3171 18.6 12.7648 18.6C12.2125 18.6 11.7648 18.1523 11.7648 17.6V16.33C11.1466 15.9731 10.7655 15.3138 10.7648 14.6C10.7648 13.4954 11.6602 12.6 12.7648 12.6ZM12.7748 4C11.51 4 10.4848 5.02527 10.4848 6.29V9.21H15.0648V6.29C15.0648 5.02527 14.0395 4 12.7748 4Z"
    fill="#FF6600"
  />
</svg>
