<svg
  width="24"
  height="24"
  viewBox="0 0 24 24"
  fill="none"
  xmlns="http://www.w3.org/2000/svg"
>
  <path
    d="M18.2202 9.21H16.3002V6.29002C16.3002 5.15051 15.8468 4.05781 15.0401 3.25299C14.2334 2.44818 13.1397 1.99737 12.0002 2.00001C9.63478 2.00554 7.72017 3.92462 7.72018 6.29002V9.21H5.78018C4.48231 9.21 3.43018 10.2622 3.43018 11.56V19.65C3.43018 20.9479 4.48231 22 5.78018 22H18.2202C18.8434 22 19.4412 21.7524 19.8819 21.3117C20.3226 20.871 20.5702 20.2733 20.5702 19.65V11.56C20.5702 10.9368 20.3226 10.339 19.8819 9.8983C19.4412 9.4576 18.8434 9.21 18.2202 9.21ZM9.72018 6.29002C9.72018 5.02529 10.7454 4.00002 12.0102 4.00002C13.2749 4.00002 14.3002 5.02529 14.3002 6.29002V9.21H9.72018V6.29002ZM13.0102 16.29V17.6C13.0102 18.1523 12.5625 18.6 12.0102 18.6C11.4579 18.6 11.0102 18.1523 11.0102 17.6V16.33C10.392 15.9731 10.0109 15.3138 10.0101 14.6C10.0043 13.6279 10.6983 12.7924 11.6549 12.6198C12.6116 12.4471 13.5538 12.9874 13.8881 13.9002C14.2225 14.813 13.852 15.834 13.0102 16.32V16.29Z"
    fill="#FF6600"
  />
</svg>
