<svg width="25" height="24" viewBox="0 0 25 24" fill="none" xmlns="http://www.w3.org/2000/svg">
  <path
    d="M19.6587 9.4755H17.6848V6.92383C17.6848 3.70755 15.2545 2 12.7647 2C10.275 2 7.84453 3.70755 7.84453 6.92383V9.4755H5.87065C5.53592 9.4755 5.26465 9.7456 5.26465 10.0789V21.3966C5.26465 21.7299 5.53592 22 5.87065 22H19.6587C19.9933 22 20.2646 21.7299 20.2646 21.3966V10.0789C20.2646 9.7456 19.9933 9.4755 19.6587 9.4755ZM13.7094 16.3636V18.773C13.7094 18.9834 13.5381 19.1541 13.3267 19.1541H12.2024C11.9911 19.1541 11.8197 18.9835 11.8197 18.773V16.3636C11.4016 16.0684 11.1286 15.5831 11.1286 15.034C11.1286 14.1344 11.861 13.405 12.7646 13.405C13.668 13.405 14.4004 14.1344 14.4004 15.034C14.4005 15.5831 14.1275 16.0684 13.7094 16.3636ZM15.8256 9.4755H9.7037V6.92383C9.7037 5.2431 11.0768 3.8758 12.7647 3.8758C14.4525 3.8758 15.8256 5.2431 15.8256 6.92383V9.4755Z"
    fill="#FF6600"
  />
</svg>
