<svg
  width="24"
  height="24"
  viewBox="0 0 24 24"
  fill="none"
  xmlns="http://www.w3.org/2000/svg"
>
  <path
    d="M18.8941 9.4755H16.9202V6.92383C16.9202 3.70755 14.4899 2 12.0001 2C9.51032 2 7.07988 3.70755 7.07988 6.92383V9.4755H5.106C4.77127 9.4755 4.5 9.7456 4.5 10.0789V21.3966C4.5 21.7299 4.77127 22 5.106 22H18.8941C19.2287 22 19.5 21.7299 19.5 21.3966V10.0789C19.5 9.7456 19.2287 9.4755 18.8941 9.4755ZM12.9448 16.3636V18.773C12.9448 18.9834 12.7735 19.1541 12.5621 19.1541H11.4378C11.2265 19.1541 11.0551 18.9835 11.0551 18.773V16.3636C10.637 16.0684 10.364 15.5831 10.364 15.034C10.364 14.1344 11.0964 13.405 12 13.405C12.9034 13.405 13.6358 14.1344 13.6358 15.034C13.6359 15.5831 13.3629 16.0684 12.9448 16.3636ZM15.061 9.4755H8.93905V6.92383C8.93905 5.2431 10.3122 3.8758 12.0001 3.8758C13.6879 3.8758 15.061 5.2431 15.061 6.92383V9.4755Z"
    fill="#FF6600"
  />
</svg>
