<svg width="25" height="24" viewBox="0 0 25 24" fill="none" xmlns="http://www.w3.org/2000/svg">
  <path
    d="M20.9346 5.75H16.7646V3.88C16.7428 2.83527 15.8896 1.99977 14.8446 2H10.6846C9.63969 1.99977 8.78642 2.83527 8.76465 3.88V5.75H4.59465C3.58397 5.75 2.76465 6.56932 2.76465 7.58V18.21C2.7864 19.205 3.59939 20.0002 4.59465 20H20.9346C21.9299 20.0002 22.7428 19.205 22.7646 18.21V7.58C22.7646 6.56932 21.9453 5.75 20.9346 5.75ZM6.76465 18H4.76465V7.75H6.76465V18ZM10.7646 4H14.7646V5.74H10.7646V4ZM16.7646 18H8.76465V7.75H16.7646V18ZM20.7646 7.75V18H18.7646V7.75H20.7646ZM12.7646 9.9C13.0407 9.9 13.2646 10.1239 13.2646 10.4V12.4H15.2646C15.5407 12.4 15.7646 12.6239 15.7646 12.9C15.7646 13.1761 15.5407 13.4 15.2646 13.4H13.2646V15.4C13.2646 15.6761 13.0407 15.9 12.7646 15.9C12.4885 15.9 12.2646 15.6761 12.2646 15.4V13.4H10.2646C9.98851 13.4 9.76465 13.1761 9.76465 12.9C9.76465 12.6239 9.98851 12.4 10.2646 12.4H12.2646V10.4C12.2646 10.1239 12.4885 9.9 12.7646 9.9Z"
    fill="#FF6600"
  />
</svg>
