<svg
  width="24"
  height="24"
  viewBox="0 0 24 24"
  fill="none"
  xmlns="http://www.w3.org/2000/svg"
>
  <path
    d="M16.6802 8.32009H14.4602V3.21009C14.4493 2.53469 13.8957 1.99451 13.2202 2.00004H10.7102C10.0331 1.99443 9.47664 2.53309 9.46028 3.21009V8.32009H7.32028C6.39472 8.32555 5.64574 9.0745 5.64021 10.0001V19.3501C5.63288 20.1336 6.16811 20.8182 6.93028 21.0001C6.93028 21.5524 7.378 22.0001 7.93028 22.0001C8.48257 22.0001 8.93028 21.5524 8.93028 21.0001H14.9302C14.9302 21.5524 15.378 22.0001 15.9302 22.0001C16.4825 22.0001 16.9302 21.5524 16.9302 21.0001C17.7533 20.8719 18.3602 20.1631 18.3602 19.3301V10.0001C18.3548 9.0745 17.6058 8.32555 16.6802 8.32009ZM11.4602 4.00009H12.4602V8.30009H11.4602V4.00009ZM7.64028 10.3201L16.3602 10.3501V15.0001H7.64028V10.3201Z"
    fill="#FF6600"
  />
</svg>
