<svg width="25" height="24" viewBox="0 0 25 24" fill="none" xmlns="http://www.w3.org/2000/svg">
  <path
    d="M21.7646 20.0001C22.3169 20.0001 22.7646 20.4478 22.7646 21.0001C22.7646 21.5524 22.3169 22.0001 21.7646 22.0001H3.76465C3.21237 22.0001 2.76465 21.5524 2.76465 21.0001C2.76465 20.4478 3.21237 20.0001 3.76465 20.0001H21.7646ZM21.7646 16.0001C22.3169 16.0001 22.7646 16.4478 22.7646 17.0001C22.7646 17.5524 22.3169 18.0001 21.7646 18.0001L19.7604 17.9992C20.219 18.0903 20.5646 18.4948 20.5646 18.9801C20.5646 19.5324 20.1169 19.9801 19.5646 19.9801C19.0123 19.9801 18.5646 19.5324 18.5646 18.9801C18.5646 18.4948 18.9102 18.0903 19.3687 17.9992H15.2305C15.689 18.0903 16.0346 18.4948 16.0346 18.9801C16.0346 19.5324 15.5869 19.9801 15.0346 19.9801C14.4823 19.9801 14.0346 19.5324 14.0346 18.9801C14.0346 18.4948 14.3802 18.0903 14.8388 17.9992H10.6905C11.149 18.0903 11.4946 18.4948 11.4946 18.9801C11.4946 19.5324 11.0469 19.9801 10.4946 19.9801C9.94237 19.9801 9.49465 19.5324 9.49465 18.9801C9.49465 18.4948 9.84029 18.0903 10.2988 17.9992H6.1605C6.61901 18.0903 6.96465 18.4948 6.96465 18.9801C6.96465 19.5324 6.51693 19.9801 5.96465 19.9801C5.41237 19.9801 4.96465 19.5324 4.96465 18.9801C4.96465 18.4948 5.31029 18.0903 5.7688 17.9992L3.76465 18.0001C3.21237 18.0001 2.76465 17.5524 2.76465 17.0001C2.76465 16.4478 3.21237 16.0001 3.76465 16.0001H21.7646ZM14.2346 2.00004C14.597 1.99728 14.945 2.14138 15.1994 2.39951C15.4538 2.65764 15.5927 3.00778 15.5846 3.37008V4.71008H18.5246C19.237 4.71008 19.8146 5.28763 19.8146 6.00008V13.4801C19.8173 13.823 19.6822 14.1527 19.4397 14.3952C19.1972 14.6377 18.8675 14.7728 18.5246 14.7701H16.9946V15.2801C16.9946 15.6667 16.6812 15.9802 16.2946 15.9802C16.1072 15.9828 15.9266 15.9102 15.7931 15.7786C15.6597 15.6471 15.5846 15.4675 15.5846 15.2801V14.7701H9.94465V15.2801C9.94467 15.4675 9.86955 15.6471 9.7361 15.7786C9.60266 15.9102 9.42203 15.9828 9.23465 15.9802C8.84805 15.9802 8.53465 15.6667 8.53465 15.2801V14.7701H7.00465C6.31726 14.7486 5.76969 14.1878 5.76465 13.5001V6.00008C5.75326 5.29898 6.30398 4.71716 7.00465 4.69008H9.94465V3.37008C9.93929 3.00858 10.0792 2.66005 10.3329 2.40253C10.5867 2.14501 10.9331 2.00004 11.2946 2.00004H14.2346ZM15.5846 6.10008H9.94465V13.3601H15.5846V6.10008ZM18.4046 6.10008H16.9946V13.3601H18.4046V6.10008ZM8.53465 6.10008H7.12465V13.3601H8.53465V6.10008ZM14.1746 3.43008H11.3546V4.68008H14.1746V3.43008Z"
    fill="#FF6600"
  />
</svg>
