<svg width="25" height="24" viewBox="0 0 25 24" fill="none" xmlns="http://www.w3.org/2000/svg">
  <path
    d="M6.26498 3.81992C6.81726 3.81992 7.26498 4.26764 7.26498 4.81992V8.75992C7.26503 9.0377 7.04273 9.2645 6.76498 9.2699V20.1199H6.96498C7.23889 20.1252 7.45966 20.346 7.46498 20.6199C7.46498 20.8961 7.24112 21.1199 6.96498 21.1199H6.76498V21.5799C6.76498 21.8561 6.54112 22.0799 6.26498 22.0799C5.98884 22.0799 5.76498 21.8561 5.76498 21.5799V21.1199H5.60498C5.32884 21.1199 5.10498 20.8961 5.10498 20.6199C5.1103 20.346 5.33107 20.1252 5.60498 20.1199H5.76498V9.2699C5.48723 9.2645 5.26492 9.0377 5.26498 8.75992V4.81992C5.26498 4.26764 5.71269 3.81992 6.26498 3.81992ZM19.2649 3.81992C19.8172 3.81992 20.2649 4.26764 20.2649 4.81992V8.75992C20.2649 9.0377 20.0427 9.2645 19.7649 9.2699V20.1199H19.9249C20.0602 20.1172 20.1909 20.1684 20.2885 20.2622C20.386 20.356 20.4424 20.4847 20.445 20.6199C20.445 20.8961 20.2211 21.1199 19.945 21.1199H19.7649V21.5799C19.7649 21.8561 19.541 22.0799 19.2649 22.0799C18.9887 22.0799 18.7649 21.8561 18.7649 21.5799V21.1199H18.565C18.2888 21.1199 18.065 20.8961 18.065 20.6199C18.0703 20.346 18.2911 20.1252 18.565 20.1199H18.7649V9.2699C18.4872 9.2645 18.2648 9.0377 18.2649 8.75992V4.81992C18.2649 4.26764 18.7127 3.81992 19.2649 3.81992ZM14.8549 1.91992C15.0849 1.91992 15.345 2.16992 15.535 2.58992C15.7598 3.07854 15.8692 3.61227 15.8549 4.14992V16.3599H16.035C16.3089 16.3652 16.5297 16.586 16.535 16.8599C16.535 17.1361 16.3111 17.3599 16.035 17.3599H15.8549V20.8599C15.8549 21.3699 15.5549 21.7899 15.1849 21.7899H14.535C14.165 21.7899 13.8549 21.3699 13.8549 20.8599V17.3599H13.6849C13.4087 17.3599 13.1849 17.1361 13.1849 16.8599C13.1902 16.586 13.411 16.3652 13.6849 16.3599H13.8549V4.14992C13.8458 3.61274 13.9551 3.08013 14.175 2.58992C14.375 2.16992 14.625 1.91992 14.8549 1.91992ZM10.765 1.91992C10.995 1.91992 11.245 2.16992 11.445 2.58992C11.6649 3.08013 11.7741 3.61274 11.765 4.14992V16.3599H11.885C12.026 16.3457 12.1664 16.3921 12.2713 16.4874C12.3762 16.5828 12.4356 16.7182 12.4349 16.8599C12.4349 17.1361 12.2111 17.3599 11.9349 17.3599H11.765V20.8599C11.765 21.3699 11.465 21.7899 11.085 21.7899H10.435C10.065 21.7899 9.76498 21.3699 9.76498 20.8599V17.3599H9.54498C9.26884 17.3599 9.04498 17.1361 9.04498 16.8599C9.04498 16.5838 9.26884 16.3599 9.54498 16.3599H9.76498V4.14992C9.75072 3.61227 9.8602 3.07854 10.085 2.58992C10.285 2.16992 10.535 1.91992 10.765 1.91992ZM15.275 17.3599H14.5649V20.8599H15.215L15.275 17.3599ZM11.095 17.3599H10.385V20.8599H11.0649L11.095 17.3599ZM15.215 14.4599H14.505V16.3599H15.215V14.4599ZM11.0649 14.4599H10.355V16.3599H11.0649V14.4599ZM10.765 2.84992C10.4862 3.2249 10.3417 3.68284 10.355 4.14992V13.4599H11.115V4.14992C11.1442 3.68992 11.0212 3.2331 10.765 2.84992ZM14.8549 2.84992C14.5988 3.2331 14.4758 3.68992 14.505 4.14992V13.4599H15.215V4.14992C15.2492 3.68797 15.1219 3.22849 14.8549 2.84992Z"
    fill="#FF6600"
  />
</svg>
