<svg
  width="24"
  height="24"
  viewBox="0 0 24 24"
  fill="none"
  xmlns="http://www.w3.org/2000/svg"
>
  <path
    d="M13.9901 11.8228C14.1395 11.8216 14.2886 11.838 14.4341 11.8716C14.7224 11.9395 14.9971 12.0552 15.2468 12.2138C16.0227 12.7084 16.4956 13.5595 16.5044 14.4769V22H7.90142V19.5167L7.91391 16.5401V14.6082C7.91141 14.4728 7.91635 14.3373 7.92871 14.2024C7.97463 13.7517 8.13561 13.3202 8.39632 12.949C8.79471 12.3848 9.3936 11.9926 10.0716 11.8518C10.1836 11.8303 10.2975 11.8206 10.4116 11.8228H13.9901ZM10.4689 1.43686C11.6927 0.796571 13.2441 0.850931 14.38 1.66072C14.9281 2.05088 15.3939 2.56403 15.6682 3.18081C15.8996 3.69968 16.0191 4.26119 16.0188 4.82896V4.96024C16.7521 5.05938 17.4554 5.31434 18.0812 5.70785C19.5686 6.65952 20.4743 8.29373 20.49 10.0544V20.6393C20.4898 21.0093 20.3373 21.3631 20.0682 21.6181C19.8153 21.8484 19.4858 21.9774 19.1431 21.9802C19.0992 21.9802 19.0552 21.9857 19.0118 21.9857H17.762V21.1179C17.7629 21.1076 17.7629 21.0973 17.762 21.087V13.955C17.7517 12.7693 17.1418 11.6686 16.1399 11.0277C16.0196 10.9511 15.8945 10.8823 15.7653 10.8218C15.3139 10.6108 14.8134 10.5238 14.3148 10.5238H10.1771C9.24876 10.5238 8.33712 10.8564 7.67941 11.5063C7.53176 11.6518 7.39726 11.8099 7.27747 11.9789C6.93959 12.4589 6.73083 13.0172 6.6711 13.6003C6.6557 13.7751 6.64952 13.9505 6.6526 14.1259V21.9876H5.41766C5.39222 21.9876 5.36631 21.982 5.33718 21.982C4.83825 21.9766 4.38276 21.6983 4.15172 21.2579C4.00926 20.976 4.00001 20.6918 4.00001 20.3919L4 10.0477C4.00303 9.874 4.01213 9.7005 4.0273 9.5274C4.1171 8.66187 4.42722 7.83346 4.9283 7.12061C5.75837 5.94625 7.03756 5.16431 8.46478 4.95886V4.75342C8.47218 3.38902 9.24506 2.07714 10.4689 1.43686ZM14.4425 13.6819H9.96105C9.63357 13.6819 9.36809 13.9463 9.36809 14.2724C9.36809 14.5986 9.63357 14.8629 9.96105 14.8629H14.4452C14.6017 14.863 14.7516 14.8006 14.8615 14.6897C14.9721 14.5797 15.0346 14.4297 15.034 14.2733C15.0345 14.1167 14.9724 13.9663 14.8615 13.8554C14.7505 13.7444 14.5997 13.682 14.4425 13.6819ZM7.24093 1.51424C7.55268 1.51424 7.80522 1.79339 7.80522 2.13794V4.33562C6.98605 4.56038 6.21907 4.94285 5.54762 5.46141V2.13794C5.54762 1.79339 5.80016 1.51424 6.11191 1.51424H7.24093ZM18.3846 1.51424C18.6963 1.51424 18.947 1.79339 18.947 2.13794V5.46141C18.2763 4.94249 17.5099 4.55955 16.6913 4.33424V2.13794C16.6913 1.79339 16.9438 1.51424 17.2556 1.51424H18.3846ZM12.5438 2.30469C12.3415 2.28488 12.1378 2.28488 11.9356 2.30469L11.8893 2.31022C11.6919 2.34485 11.4981 2.39727 11.3102 2.46683C11.2943 2.47209 11.2788 2.47872 11.264 2.48664C11.1129 2.55637 10.9675 2.63784 10.8292 2.73031L10.714 2.81231C10.7085 2.81783 10.6997 2.82152 10.6997 2.82521C10.6266 2.88693 10.5572 2.94866 10.4911 3.01591C10.4328 3.07257 10.3778 3.13245 10.3251 3.19417L10.3129 3.20661C10.3024 3.21767 10.2887 3.23302 10.2788 3.2453C10.2788 3.24899 10.277 3.24899 10.2733 3.25267C10.2696 3.25636 10.2677 3.26189 10.2645 3.26511C10.2386 3.2992 10.2168 3.32822 10.1965 3.36092C10.1081 3.49457 10.0294 3.63434 9.96105 3.77918C9.95312 3.79505 9.94647 3.81154 9.94116 3.82847C9.87218 4.01395 9.81956 4.20507 9.7839 4.39965L9.77835 4.45078C9.7654 4.58897 9.75985 4.72716 9.75985 4.86535V4.91142C10.3408 4.91511 10.9236 4.91511 11.5045 4.91511H14.2773C14.3971 4.91579 14.5117 4.86626 14.593 4.77863C14.6743 4.691 14.7149 4.57335 14.7047 4.45447C14.7015 4.43282 14.6978 4.41854 14.6978 4.40195C14.6619 4.1973 14.6056 3.99671 14.5299 3.80313C14.4588 3.64562 14.3743 3.49444 14.2773 3.35125C14.2482 3.31302 14.2228 3.27663 14.195 3.23655C14.1903 3.2323 14.1861 3.2275 14.1825 3.22227C14.1228 3.14978 14.0594 3.08044 13.9924 3.01453C13.936 2.95649 13.8754 2.90213 13.8134 2.84916C13.796 2.83279 13.7776 2.81742 13.7584 2.80309C13.7584 2.80309 13.7533 2.80125 13.7533 2.79757C13.7492 2.79523 13.7454 2.79228 13.7422 2.78882L13.7367 2.78513C13.7043 2.76302 13.677 2.74137 13.6441 2.72156C13.5094 2.63191 13.3676 2.55334 13.22 2.48664C13.2052 2.47863 13.1898 2.472 13.1738 2.46683C12.9852 2.3976 12.7907 2.34518 12.5928 2.31022L12.5438 2.30469Z"
    fill="#FF6600"
  />
</svg>
