<svg width="25" height="24" viewBox="0 0 25 24" fill="none" xmlns="http://www.w3.org/2000/svg">
  <path
    d="M22.7646 10.91C22.7664 9.5165 21.7111 8.3488 20.3246 8.20997C20.3246 8.20997 20.3246 8.15997 20.2746 8.14997L13.2746 2.23997C12.9021 1.92554 12.3571 1.92554 11.9846 2.23997L5.19465 8.07997C5.19465 8.07997 5.13465 8.16997 5.09465 8.20997C3.75776 8.40365 2.76559 9.5491 2.76465 10.9L3.30465 19.11C3.39999 20.6961 4.71562 21.9328 6.30465 21.93H19.2946C20.8836 21.9328 22.1993 20.6961 22.2946 19.11L22.7646 11C22.7646 11 22.7646 10.93 22.7646 10.91ZM12.7646 12.66C12.2123 12.66 11.7646 13.1077 11.7646 13.66V14.66H7.05465C6.6546 14.654 6.29664 14.4101 6.14465 14.04L5.46465 12.45L5.34465 12.14C5.10465 11.52 4.93465 11.06 4.76465 10.71C4.84483 10.4037 5.11813 10.1875 5.43465 10.18H20.0946C20.4123 10.1841 20.6875 10.4017 20.7646 10.71C20.6046 11.06 20.4246 11.52 20.1846 12.14L19.3846 14.06C19.2341 14.4268 18.881 14.67 18.4846 14.68H13.7646V13.68C13.77 13.4113 13.667 13.1518 13.4789 12.9599C13.2908 12.768 13.0333 12.6599 12.7646 12.66ZM12.7646 4.30997L17.3146 8.17997H8.17465L12.7646 4.30997ZM20.2746 19C20.2746 19.5523 19.8269 20 19.2746 20H6.27465C5.72237 20 5.27465 19.5523 5.27465 19L5.07465 15.93C5.62377 16.4241 6.33592 16.6983 7.07465 16.7H18.4846C19.2233 16.6983 19.9355 16.4241 20.4846 15.93L20.2746 19Z"
    fill="#FF6600"
  />
</svg>
