<svg width="25" height="24" viewBox="0 0 25 24" fill="none" xmlns="http://www.w3.org/2000/svg">
  <path
    d="M15.5696 5.75192V4.11744C15.5696 3.50035 15.106 3 14.5341 3H10.9951C10.4233 3 9.95966 3.50035 9.95966 4.11744V5.75192H7.05036V21H18.4789V5.75192H15.5696ZM5.62179 6V21H4.16711C3.39454 21 2.76465 20.2576 2.76465 19.347V7.65298C2.76465 6.74241 3.39454 6 4.16711 6H5.62179ZM21.3656 6C22.1382 6 22.7646 6.74241 22.7646 7.65298V19.347C22.7646 20.2576 22.1382 21 21.3656 21H19.9075V6H21.3656ZM14.5341 3.83391C14.681 3.83391 14.7969 3.96317 14.7969 4.11744V5.75192H10.7324V4.11744C10.7324 3.96317 10.8521 3.83391 10.9951 3.83391H14.5341Z"
    fill="#FF6600"
  />
</svg>
