<svg
  width="24"
  height="24"
  viewBox="0 0 24 24"
  fill="none"
  xmlns="http://www.w3.org/2000/svg"
>
  <path
    d="M20.17 6.75H16V4.88C15.9782 3.83527 15.125 2.99977 14.08 3H9.92C8.87504 2.99977 8.02177 3.83527 8 4.88V6.75H3.83C2.81932 6.75 2 7.56932 2 8.58V19.21C2.02175 20.205 2.83474 21.0002 3.83 21H20.17C21.1653 21.0002 21.9782 20.205 22 19.21V8.58C22 7.56932 21.1807 6.75 20.17 6.75ZM10 5H14V6.74H10V5ZM16 8.79V19H8V8.75L16 8.79ZM4 8.79H6V19H4V8.79ZM20 19H18V8.75H20V19Z"
    fill="#FF6600"
  />
</svg>
