<svg
  width="24"
  height="24"
  viewBox="0 0 24 24"
  fill="none"
  xmlns="http://www.w3.org/2000/svg"
>
  <path
    d="M10.1097 17H14.8997C14.9452 17.4047 15.2875 17.7107 15.6947 17.7107C16.102 17.7107 16.4443 17.4047 16.4897 17C17.1395 16.9019 17.6224 16.3471 17.6297 15.69V8.17998C17.6297 7.43992 17.0298 6.83998 16.2897 6.83998H14.4597V3.44998C14.4542 2.77458 13.9051 2.22998 13.2297 2.22998H11.8897C11.2159 2.22998 10.6697 2.77619 10.6697 3.44998V6.83998H8.82968C8.08962 6.83998 7.48968 7.43992 7.48968 8.17998V15.64C7.48997 16.2455 7.90222 16.7732 8.48968 16.92C8.53515 17.3247 8.87741 17.6307 9.28468 17.6307C9.69195 17.6307 10.0343 17.3247 10.0797 16.92L10.1097 17ZM12.1697 3.72998H12.9997V6.83998H12.2097L12.1697 3.72998ZM9.07968 8.42998H16.0797V11.36H9.07968V8.42998ZM6.99968 19.77C7.55197 19.77 7.99968 20.2177 7.99968 20.77C7.99968 21.3223 7.55197 21.77 6.99968 21.77C6.4474 21.77 5.99968 21.3223 5.99968 20.77C5.99968 20.2177 6.4474 19.77 6.99968 19.77ZM14.9997 19.77C15.552 19.77 15.9997 20.2177 15.9997 20.77C15.9997 21.3223 15.552 21.77 14.9997 21.77C14.4474 21.77 13.9997 21.3223 13.9997 20.77C13.9997 20.2177 14.4474 19.77 14.9997 19.77ZM3.10968 3.70418C3.37632 3.70418 3.63192 3.81067 3.81968 3.99998L5.99968 6.09998V17.77H18.8897C19.442 17.77 19.8897 18.2177 19.8897 18.77C19.8897 19.3223 19.442 19.77 18.8897 19.77H5.29968C4.58171 19.77 3.99968 19.188 3.99968 18.47V6.92998L2.39968 5.40998C2.01196 5.01994 2.01196 4.39002 2.39968 3.99998C2.58745 3.81067 2.84305 3.70418 3.10968 3.70418ZM16.0797 13V15.44H9.31968V15.43H9.07968V13H16.0797Z"
    fill="#FF6600"
  />
</svg>
