<svg
  width="24"
  height="24"
  viewBox="0 0 24 24"
  fill="none"
  xmlns="http://www.w3.org/2000/svg"
>
  <path
    d="M21 20.0001C21.5523 20.0001 22 20.4478 22 21.0001C22 21.5524 21.5523 22.0001 21 22.0001H3C2.44772 22.0001 2 21.5524 2 21.0001C2 20.4478 2.44772 20.0001 3 20.0001H21ZM21 16.0001C21.5523 16.0001 22 16.4478 22 17.0001C22 17.5524 21.5523 18.0001 21 18.0001L18.9958 17.9992C19.4544 18.0903 19.8 18.4948 19.8 18.9801C19.8 19.5324 19.3523 19.9801 18.8 19.9801C18.2477 19.9801 17.8 19.5324 17.8 18.9801C17.8 18.4948 18.1456 18.0903 18.6041 17.9992H14.4659C14.9244 18.0903 15.27 18.4948 15.27 18.9801C15.27 19.5324 14.8223 19.9801 14.27 19.9801C13.7177 19.9801 13.27 19.5324 13.27 18.9801C13.27 18.4948 13.6156 18.0903 14.0742 17.9992H9.92585C10.3844 18.0903 10.73 18.4948 10.73 18.9801C10.73 19.5324 10.2823 19.9801 9.73 19.9801C9.17772 19.9801 8.73 19.5324 8.73 18.9801C8.73 18.4948 9.07564 18.0903 9.53415 17.9992H5.39585C5.85436 18.0903 6.2 18.4948 6.2 18.9801C6.2 19.5324 5.75228 19.9801 5.2 19.9801C4.64772 19.9801 4.2 19.5324 4.2 18.9801C4.2 18.4948 4.54564 18.0903 5.00415 17.9992L3 18.0001C2.44772 18.0001 2 17.5524 2 17.0001C2 16.4478 2.44772 16.0001 3 16.0001H21ZM13.47 2.00004C13.8324 1.99728 14.1804 2.14138 14.4348 2.39951C14.6892 2.65764 14.8281 3.00778 14.82 3.37008V4.71008H17.76C18.4724 4.71008 19.05 5.28763 19.05 6.00008V13.4801C19.0527 13.823 18.9176 14.1527 18.6751 14.3952C18.4326 14.6377 18.1029 14.7728 17.76 14.7701H16.23V15.2801C16.23 15.6667 15.9166 15.9802 15.53 15.9802C15.3426 15.9828 15.162 15.9102 15.0285 15.7786C14.8951 15.6471 14.82 15.4675 14.82 15.2801V14.7701H9.18V15.2801C9.18002 15.4675 9.1049 15.6471 8.97145 15.7786C8.83801 15.9102 8.65738 15.9828 8.47 15.9802C8.0834 15.9802 7.77 15.6667 7.77 15.2801V14.7701H6.24C5.55261 14.7486 5.00504 14.1878 5 13.5001V6.00008C4.98861 5.29898 5.53933 4.71716 6.24 4.69008H9.18V3.37008C9.17464 3.00858 9.31451 2.66005 9.56826 2.40253C9.82202 2.14501 10.1685 2.00004 10.53 2.00004H13.47ZM14.82 6.10008H9.18V13.3601H14.82V6.10008ZM17.64 6.10008H16.23V13.3601H17.64V6.10008ZM7.77 6.10008H6.36V13.3601H7.77V6.10008ZM13.41 3.43008H10.59V4.68008H13.41V3.43008Z"
    fill="#FF6600"
  />
</svg>
