<svg width="25" height="24" viewBox="0 0 25 24" fill="none" xmlns="http://www.w3.org/2000/svg">
  <path
    d="M17.4448 8.32009H15.2248V3.21009C15.214 2.53469 14.6603 1.99451 13.9848 2.00004H11.4748C10.7977 1.99443 10.2413 2.53309 10.2249 3.21009V8.32009H8.08493C7.15937 8.32555 6.41039 9.0745 6.40486 10.0001V19.3501C6.39753 20.1336 6.93276 20.8182 7.69493 21.0001C7.69493 21.5524 8.14265 22.0001 8.69493 22.0001C9.24722 22.0001 9.69493 21.5524 9.69493 21.0001H15.6948C15.6948 21.5524 16.1426 22.0001 16.6948 22.0001C17.2471 22.0001 17.6948 21.5524 17.6948 21.0001C18.518 20.8719 19.1249 20.1631 19.1249 19.3301V10.0001C19.1195 9.0745 18.3705 8.32555 17.4448 8.32009ZM12.2248 4.00009H13.2248V8.30009H12.2248V4.00009ZM8.40493 10.3201L17.1249 10.3501V15.0001H8.40493V10.3201Z"
    fill="#FF6600"
  />
</svg>
