<svg width="25" height="24" viewBox="0 0 25 24" fill="none" xmlns="http://www.w3.org/2000/svg">
  <path
    d="M14.7547 11.8228C14.9041 11.8216 15.0532 11.838 15.1987 11.8716C15.487 11.9395 15.7617 12.0552 16.0114 12.2138C16.7873 12.7084 17.2602 13.5595 17.269 14.4769V22H8.66607V19.5167L8.67856 16.5401V14.6082C8.67606 14.4728 8.681 14.3373 8.69336 14.2024C8.73928 13.7517 8.90026 13.3202 9.16097 12.949C9.55936 12.3848 10.1582 11.9926 10.8362 11.8518C10.9482 11.8303 11.0621 11.8206 11.1762 11.8228H14.7547ZM11.2335 1.43686C12.4573 0.796571 14.0087 0.850931 15.1446 1.66072C15.6927 2.05088 16.1585 2.56403 16.4328 3.18081C16.6642 3.69968 16.7837 4.26119 16.7834 4.82896V4.96024C17.5167 5.05938 18.22 5.31434 18.8458 5.70785C20.3332 6.65952 21.2389 8.29373 21.2546 10.0544V20.6393C21.2544 21.0093 21.1019 21.3631 20.8328 21.6181C20.5799 21.8484 20.2504 21.9774 19.9077 21.9802C19.8638 21.9802 19.8198 21.9857 19.7764 21.9857H18.5266V21.1179C18.5275 21.1076 18.5275 21.0973 18.5266 21.087V13.955C18.5163 12.7693 17.9064 11.6686 16.9045 11.0277C16.7842 10.9511 16.6591 10.8823 16.5299 10.8218C16.0785 10.6108 15.578 10.5238 15.0794 10.5238H10.9417C10.0134 10.5238 9.10177 10.8564 8.44406 11.5063C8.29641 11.6518 8.16191 11.8099 8.04212 11.9789C7.70424 12.4589 7.49548 13.0172 7.43575 13.6003C7.42035 13.7751 7.41417 13.9505 7.41725 14.1259V21.9876H6.18231C6.15687 21.9876 6.13096 21.982 6.10183 21.982C5.6029 21.9766 5.14741 21.6983 4.91637 21.2579C4.77391 20.976 4.76466 20.6918 4.76466 20.3919L4.76465 10.0477C4.76768 9.874 4.77678 9.7005 4.79195 9.5274C4.88175 8.66187 5.19187 7.83346 5.69295 7.12061C6.52302 5.94625 7.80221 5.16431 9.22943 4.95886V4.75342C9.23683 3.38902 10.0097 2.07714 11.2335 1.43686ZM15.2071 13.6819H10.7257C10.3982 13.6819 10.1327 13.9463 10.1327 14.2724C10.1327 14.5986 10.3982 14.8629 10.7257 14.8629H15.2098C15.3663 14.863 15.5162 14.8006 15.6261 14.6897C15.7367 14.5797 15.7992 14.4297 15.7986 14.2733C15.7991 14.1167 15.737 13.9663 15.6261 13.8554C15.5151 13.7444 15.3643 13.682 15.2071 13.6819ZM8.00558 1.51424C8.31733 1.51424 8.56987 1.79339 8.56987 2.13794V4.33562C7.7507 4.56038 6.98372 4.94285 6.31227 5.46141V2.13794C6.31227 1.79339 6.56481 1.51424 6.87656 1.51424H8.00558ZM19.1492 1.51424C19.4609 1.51424 19.7116 1.79339 19.7116 2.13794V5.46141C19.0409 4.94249 18.2745 4.55955 17.4559 4.33424V2.13794C17.4559 1.79339 17.7084 1.51424 18.0202 1.51424H19.1492ZM13.3084 2.30469C13.1061 2.28488 12.9024 2.28488 12.7002 2.30469L12.6539 2.31022C12.4565 2.34485 12.2627 2.39727 12.0748 2.46683C12.0589 2.47209 12.0434 2.47872 12.0286 2.48664C11.8775 2.55637 11.7321 2.63784 11.5938 2.73031L11.4786 2.81231C11.4731 2.81783 11.4643 2.82152 11.4643 2.82521C11.3912 2.88693 11.3218 2.94866 11.2557 3.01591C11.1974 3.07257 11.1424 3.13245 11.0897 3.19417L11.0775 3.20661C11.067 3.21767 11.0533 3.23302 11.0434 3.2453C11.0434 3.24899 11.0416 3.24899 11.0379 3.25267C11.0342 3.25636 11.0323 3.26189 11.0291 3.26511C11.0032 3.2992 10.9814 3.32822 10.9611 3.36092C10.8727 3.49457 10.794 3.63434 10.7257 3.77918C10.7178 3.79505 10.7111 3.81154 10.7058 3.82847C10.6368 4.01395 10.5842 4.20507 10.5485 4.39965L10.543 4.45078C10.53 4.58897 10.5245 4.72716 10.5245 4.86535V4.91142C11.1054 4.91511 11.6882 4.91511 12.2691 4.91511H15.0419C15.1617 4.91579 15.2763 4.86626 15.3576 4.77863C15.4389 4.691 15.4795 4.57335 15.4693 4.45447C15.4661 4.43282 15.4624 4.41854 15.4624 4.40195C15.4265 4.1973 15.3702 3.99671 15.2945 3.80313C15.2234 3.64562 15.1389 3.49444 15.0419 3.35125C15.0128 3.31302 14.9874 3.27663 14.9596 3.23655C14.9549 3.2323 14.9507 3.2275 14.9471 3.22227C14.8874 3.14978 14.824 3.08044 14.757 3.01453C14.7006 2.95649 14.64 2.90213 14.578 2.84916C14.5606 2.83279 14.5422 2.81742 14.523 2.80309C14.523 2.80309 14.5179 2.80125 14.5179 2.79757C14.5138 2.79523 14.51 2.79228 14.5068 2.78882L14.5013 2.78513C14.4689 2.76302 14.4416 2.74137 14.4087 2.72156C14.274 2.63191 14.1322 2.55334 13.9846 2.48664C13.9698 2.47863 13.9544 2.472 13.9384 2.46683C13.7498 2.3976 13.5553 2.34518 13.3574 2.31022L13.3084 2.30469Z"
    fill="#FF6600"
  />
</svg>
