<svg
  width="24"
  height="24"
  viewBox="0 0 24 24"
  fill="none"
  xmlns="http://www.w3.org/2000/svg"
>
  <path
    d="M14.805 5.75192V4.11744C14.805 3.50035 14.3414 3 13.7695 3H10.2305C9.65865 3 9.19501 3.50035 9.19501 4.11744V5.75192H6.28571V21H17.7143V5.75192H14.805ZM4.85714 6V21H3.40246C2.62989 21 2 20.2576 2 19.347V7.65298C2 6.74241 2.62989 6 3.40246 6H4.85714ZM20.601 6C21.3736 6 22 6.74241 22 7.65298V19.347C22 20.2576 21.3736 21 20.601 21H19.1429V6H20.601ZM13.7695 3.83391C13.9164 3.83391 14.0323 3.96317 14.0323 4.11744V5.75192H9.96773V4.11744C9.96773 3.96317 10.0875 3.83391 10.2305 3.83391H13.7695Z"
    fill="#FF6600"
  />
</svg>
