<svg width="25" height="24" viewBox="0 0 25 24" fill="none" xmlns="http://www.w3.org/2000/svg">
  <path
    d="M11.8743 17H16.6643C16.7098 17.4047 17.0521 17.7107 17.4593 17.7107C17.8666 17.7107 18.2089 17.4047 18.2543 17C18.9041 16.9019 19.387 16.3471 19.3943 15.69V8.17998C19.3943 7.43992 18.7944 6.83998 18.0543 6.83998H16.2243V3.44998C16.2188 2.77458 15.6697 2.22998 14.9943 2.22998H13.6543C12.9805 2.22998 12.4343 2.77619 12.4343 3.44998V6.83998H10.5943C9.85427 6.83998 9.25433 7.43992 9.25433 8.17998V15.64C9.25462 16.2455 9.66687 16.7732 10.2543 16.92C10.2998 17.3247 10.6421 17.6307 11.0493 17.6307C11.4566 17.6307 11.7989 17.3247 11.8443 16.92L11.8743 17ZM13.9343 3.72998H14.7643V6.83998H13.9743L13.9343 3.72998ZM8.76433 19.77C9.31662 19.77 9.76432 20.2177 9.76432 20.77C9.76432 21.3223 9.31662 21.77 8.76433 21.77C8.21205 21.77 7.76433 21.3223 7.76433 20.77C7.76433 20.2177 8.21205 19.77 8.76433 19.77ZM16.7643 19.77C17.3166 19.77 17.7643 20.2177 17.7643 20.77C17.7643 21.3223 17.3166 21.77 16.7643 21.77C16.212 21.77 15.7643 21.3223 15.7643 20.77C15.7643 20.2177 16.212 19.77 16.7643 19.77ZM4.87433 3.70418C5.14097 3.70418 5.39657 3.81067 5.58433 3.99998L7.76433 6.09998V17.77H20.6543C21.2066 17.77 21.6543 18.2177 21.6543 18.77C21.6543 19.3223 21.2066 19.77 20.6543 19.77H7.06433C6.34636 19.77 5.76433 19.188 5.76433 18.47V6.92998L4.16433 5.40998C3.77661 5.01994 3.77661 4.39002 4.16433 3.99998C4.3521 3.81067 4.6077 3.70418 4.87433 3.70418ZM17.8443 8.42998V11.36H10.8443V8.42998H17.8443Z"
    fill="#FF6600"
  />
</svg>
