<svg width="25" height="24" viewBox="0 0 25 24" fill="none" xmlns="http://www.w3.org/2000/svg">
  <path
    d="M10.8743 17H15.6643C15.7098 17.4047 16.0521 17.7107 16.4593 17.7107C16.8666 17.7107 17.2089 17.4047 17.2543 17C17.9041 16.9019 18.387 16.3471 18.3943 15.69V8.17998C18.3943 7.43992 17.7944 6.83998 17.0543 6.83998H15.2243V3.44998C15.2188 2.77458 14.6697 2.22998 13.9943 2.22998H12.6543C11.9805 2.22998 11.4343 2.77619 11.4343 3.44998V6.83998H9.59433C8.85427 6.83998 8.25432 7.43992 8.25432 8.17998V15.64C8.25461 16.2455 8.66687 16.7732 9.25433 16.92C9.2998 17.3247 9.64206 17.6307 10.0493 17.6307C10.4566 17.6307 10.7989 17.3247 10.8443 16.92L10.8743 17ZM12.9343 3.72998H13.7643V6.83998H12.9743L12.9343 3.72998ZM9.84433 8.42998H16.8443V11.36H9.84433V8.42998ZM7.76433 19.77C8.31662 19.77 8.76433 20.2177 8.76433 20.77C8.76433 21.3223 8.31662 21.77 7.76433 21.77C7.21205 21.77 6.76433 21.3223 6.76433 20.77C6.76433 20.2177 7.21205 19.77 7.76433 19.77ZM15.7643 19.77C16.3166 19.77 16.7643 20.2177 16.7643 20.77C16.7643 21.3223 16.3166 21.77 15.7643 21.77C15.212 21.77 14.7643 21.3223 14.7643 20.77C14.7643 20.2177 15.212 19.77 15.7643 19.77ZM3.87433 3.70418C4.14097 3.70418 4.39657 3.81067 4.58433 3.99998L6.76433 6.09998V17.77H19.6543C20.2066 17.77 20.6543 18.2177 20.6543 18.77C20.6543 19.3223 20.2066 19.77 19.6543 19.77H6.06433C5.34636 19.77 4.76433 19.188 4.76433 18.47V6.92998L3.16433 5.40998C2.77661 5.01994 2.77661 4.39002 3.16433 3.99998C3.3521 3.81067 3.6077 3.70418 3.87433 3.70418ZM16.8443 13V15.44H10.0843V15.43H9.84433V13H16.8443Z"
    fill="#FF6600"
  />
</svg>
