<svg
  width="24"
  height="24"
  viewBox="0 0 24 24"
  fill="none"
  xmlns="http://www.w3.org/2000/svg"
>
  <path
    d="M5.50033 3.81992C6.05261 3.81992 6.50033 4.26764 6.50033 4.81992V8.75992C6.50038 9.0377 6.27808 9.2645 6.00033 9.2699V20.1199H6.20033C6.47424 20.1252 6.69501 20.346 6.70033 20.6199C6.70033 20.8961 6.47647 21.1199 6.20033 21.1199H6.00033V21.5799C6.00033 21.8561 5.77647 22.0799 5.50033 22.0799C5.22419 22.0799 5.00033 21.8561 5.00033 21.5799V21.1199H4.84033C4.56419 21.1199 4.34033 20.8961 4.34033 20.6199C4.34565 20.346 4.56642 20.1252 4.84033 20.1199H5.00033V9.2699C4.72258 9.2645 4.50027 9.0377 4.50033 8.75992V4.81992C4.50033 4.26764 4.94804 3.81992 5.50033 3.81992ZM18.5003 3.81992C19.0526 3.81992 19.5003 4.26764 19.5003 4.81992V8.75992C19.5003 9.0377 19.278 9.2645 19.0003 9.2699V20.1199H19.1603C19.2956 20.1172 19.4263 20.1684 19.5239 20.2622C19.6214 20.356 19.6777 20.4847 19.6803 20.6199C19.6803 20.8961 19.4564 21.1199 19.1803 21.1199H19.0003V21.5799C19.0003 21.8561 18.7764 22.0799 18.5003 22.0799C18.2241 22.0799 18.0003 21.8561 18.0003 21.5799V21.1199H17.8003C17.5241 21.1199 17.3003 20.8961 17.3003 20.6199C17.3056 20.346 17.5264 20.1252 17.8003 20.1199H18.0003V9.2699C17.7225 9.2645 17.5002 9.0377 17.5003 8.75992V4.81992C17.5003 4.26764 17.948 3.81992 18.5003 3.81992ZM14.0903 1.91992C14.3203 1.91992 14.5803 2.16992 14.7703 2.58992C14.9951 3.07854 15.1045 3.61227 15.0903 4.14992V16.3599H15.2703C15.5442 16.3652 15.765 16.586 15.7703 16.8599C15.7703 17.1361 15.5464 17.3599 15.2703 17.3599H15.0903V20.8599C15.0903 21.3699 14.7903 21.7899 14.4203 21.7899H13.7703C13.4003 21.7899 13.0903 21.3699 13.0903 20.8599V17.3599H12.9203C12.6441 17.3599 12.4203 17.1361 12.4203 16.8599C12.4256 16.586 12.6464 16.3652 12.9203 16.3599H13.0903V4.14992C13.0812 3.61274 13.1904 3.08013 13.4103 2.58992C13.6103 2.16992 13.8603 1.91992 14.0903 1.91992ZM10.0003 1.91992C10.2303 1.91992 10.4803 2.16992 10.6803 2.58992C10.9002 3.08013 11.0094 3.61274 11.0003 4.14992V16.3599H11.1203C11.2613 16.3457 11.4017 16.3921 11.5066 16.4874C11.6115 16.5828 11.671 16.7182 11.6703 16.8599C11.6703 17.1361 11.4464 17.3599 11.1703 17.3599H11.0003V20.8599C11.0003 21.3699 10.7003 21.7899 10.3203 21.7899H9.67033C9.30033 21.7899 9.00033 21.3699 9.00033 20.8599V17.3599H8.78033C8.50419 17.3599 8.28033 17.1361 8.28033 16.8599C8.28033 16.5838 8.50419 16.3599 8.78033 16.3599H9.00033V4.14992C8.98607 3.61227 9.09555 3.07854 9.32033 2.58992C9.52033 2.16992 9.77033 1.91992 10.0003 1.91992ZM14.5103 17.3599H13.8003V20.8599H14.4503L14.5103 17.3599ZM10.3303 17.3599H9.62033V20.8599H10.3003L10.3303 17.3599ZM14.4503 14.4599H13.7403V16.3599H14.4503V14.4599ZM10.3003 14.4599H9.59033V16.3599H10.3003V14.4599ZM10.0003 2.84992C9.72152 3.2249 9.57709 3.68284 9.59033 4.14992V13.4599H10.3503V4.14992C10.3795 3.68992 10.2565 3.2331 10.0003 2.84992ZM14.0903 2.84992C13.8341 3.2331 13.7111 3.68992 13.7403 4.14992V13.4599H14.4503V4.14992C14.4845 3.68797 14.3572 3.22849 14.0903 2.84992Z"
    fill="#FF6600"
  />
</svg>
