<svg
  width="24"
  height="24"
  viewBox="0 0 24 24"
  fill="none"
  xmlns="http://www.w3.org/2000/svg"
>
  <path
    d="M22 10.94C22.0018 9.5465 20.9465 8.37883 19.56 8.24C19.56 8.24 19.56 8.19 19.51 8.18L12.51 2.27C12.1375 1.95557 11.5925 1.95557 11.22 2.27L4.43 8.11C4.39433 8.15495 4.36095 8.20167 4.33 8.25C2.99467 8.43911 2.00161 9.5813 2 10.93L2.54 19.14C2.63534 20.7262 3.95097 21.9629 5.54 21.96H18.53C20.119 21.9629 21.4347 20.7262 21.53 19.14L22 11C22 11 22 11 22 10.94ZM12 12.69C11.4477 12.69 11 13.1377 11 13.69V14.69H6.29C5.89236 14.6857 5.53506 14.4462 5.38 14.08L4.7 12.48L4.58 12.17C4.34 11.55 4.17 11.09 4 10.74C4.08018 10.4337 4.35348 10.2175 4.67 10.21H19.33C19.6477 10.2141 19.9229 10.4317 20 10.74C19.84 11.09 19.66 11.55 19.42 12.17L18.62 14.1C18.4664 14.4629 18.114 14.7018 17.72 14.71H13V13.71C13.0054 13.4413 12.9024 13.1818 12.7143 12.9899C12.5262 12.798 12.2687 12.6899 12 12.69ZM12 4.34L16.55 8.21H7.41L12 4.34Z"
    fill="#FF6600"
  />
</svg>
