<svg
  width="24"
  height="24"
  viewBox="0 0 24 24"
  fill="none"
  xmlns="http://www.w3.org/2000/svg"
>
  <path
    d="M11.1097 17H15.8997C15.9452 17.4047 16.2875 17.7107 16.6947 17.7107C17.102 17.7107 17.4443 17.4047 17.4897 17C18.1395 16.9019 18.6224 16.3471 18.6297 15.69V8.17998C18.6297 7.43992 18.0298 6.83998 17.2897 6.83998H15.4597V3.44998C15.4542 2.77458 14.9051 2.22998 14.2297 2.22998H12.8897C12.2159 2.22998 11.6697 2.77619 11.6697 3.44998V6.83998H9.82968C9.08962 6.83998 8.48968 7.43992 8.48968 8.17998V15.64C8.48997 16.2455 8.90222 16.7732 9.48968 16.92C9.53515 17.3247 9.87741 17.6307 10.2847 17.6307C10.692 17.6307 11.0343 17.3247 11.0797 16.92L11.1097 17ZM13.1697 3.72998H13.9997V6.83998H13.2097L13.1697 3.72998ZM7.99968 19.77C8.55197 19.77 8.99968 20.2177 8.99968 20.77C8.99968 21.3223 8.55197 21.77 7.99968 21.77C7.4474 21.77 6.99968 21.3223 6.99968 20.77C6.99968 20.2177 7.4474 19.77 7.99968 19.77ZM15.9997 19.77C16.552 19.77 16.9997 20.2177 16.9997 20.77C16.9997 21.3223 16.552 21.77 15.9997 21.77C15.4474 21.77 14.9997 21.3223 14.9997 20.77C14.9997 20.2177 15.4474 19.77 15.9997 19.77ZM4.10968 3.70418C4.37632 3.70418 4.63192 3.81067 4.81968 3.99998L6.99968 6.09998V17.77H19.8897C20.442 17.77 20.8897 18.2177 20.8897 18.77C20.8897 19.3223 20.442 19.77 19.8897 19.77H6.29968C5.58171 19.77 4.99968 19.188 4.99968 18.47V6.92998L3.39968 5.40998C3.01196 5.01994 3.01196 4.39002 3.39968 3.99998C3.58745 3.81067 3.84305 3.70418 4.10968 3.70418ZM17.0797 8.42998V11.36H10.0797V8.42998H17.0797Z"
    fill="#FF6600"
  />
</svg>
