<svg width="25" height="24" viewBox="0 0 25 24" fill="none" xmlns="http://www.w3.org/2000/svg">
  <path
    d="M20.9346 6.75H16.7646V4.88C16.7428 3.83527 15.8896 2.99977 14.8446 3H10.6846C9.63969 2.99977 8.78642 3.83527 8.76465 4.88V6.75H4.59465C3.58397 6.75 2.76465 7.56932 2.76465 8.58V19.21C2.7864 20.205 3.59939 21.0002 4.59465 21H20.9346C21.9299 21.0002 22.7428 20.205 22.7646 19.21V8.58C22.7646 7.56932 21.9453 6.75 20.9346 6.75ZM10.7646 5H14.7646V6.74H10.7646V5ZM16.7646 8.79V19H8.76465V8.75L16.7646 8.79ZM4.76465 8.79H6.76465V19H4.76465V8.79ZM20.7646 19H18.7646V8.75H20.7646V19Z"
    fill="#FF6600"
  />
</svg>
