<svg
  width="24"
  height="24"
  viewBox="0 0 24 24"
  fill="none"
  xmlns="http://www.w3.org/2000/svg"
>
  <path
    d="M14.476 3C15.4687 2.99979 16.2793 3.78886 16.3 4.77556V20H8.7V4.77556C8.72068 3.78886 9.53129 2.99979 10.524 3H14.476ZM20.2615 6.54167C21.2216 6.54167 22 7.31547 22 8.27V18.3094C21.9793 19.2492 21.207 20.0002 20.2615 20H18.2V6.54167H20.2615ZM6.8 6.54167V20H4.7385C3.793 20.0002 3.02067 19.2492 3 18.3094V8.27C3 7.31547 3.77835 6.54167 4.7385 6.54167H6.8ZM12.5 10.4989C12.2377 10.4989 12.025 10.7103 12.025 10.9711V12.86H10.125C9.86266 12.86 9.65 13.0714 9.65 13.3322C9.65 13.593 9.86266 13.8044 10.125 13.8044H12.025V15.6933C12.025 15.9541 12.2377 16.1656 12.5 16.1656C12.7623 16.1656 12.975 15.9541 12.975 15.6933V13.8044H14.875V13.7667C15.1232 13.7675 15.3301 13.5782 15.35 13.3322C15.35 13.0714 15.1373 12.86 14.875 12.86H12.975V10.9711C12.975 10.7103 12.7623 10.4989 12.5 10.4989ZM14.4 4.88889H10.6V6.53222H14.4V4.88889Z"
    fill="#FF6600"
  />
</svg>
