<svg width="25" height="24" viewBox="0 0 25 24" fill="none" xmlns="http://www.w3.org/2000/svg">
  <path
    d="M22.7646 10.94C22.7664 9.5465 21.7111 8.37883 20.3246 8.24C20.3246 8.24 20.3246 8.19 20.2746 8.18L13.2746 2.27C12.9021 1.95557 12.3571 1.95557 11.9846 2.27L5.19465 8.11C5.15898 8.15495 5.1256 8.20167 5.09465 8.25C3.75932 8.43911 2.76626 9.5813 2.76465 10.93L3.30465 19.14C3.39999 20.7262 4.71562 21.9629 6.30465 21.96H19.2946C20.8836 21.9629 22.1993 20.7262 22.2946 19.14L22.7646 11C22.7646 11 22.7646 11 22.7646 10.94ZM12.7646 12.69C12.2123 12.69 11.7646 13.1377 11.7646 13.69V14.69H7.05465C6.65701 14.6857 6.29971 14.4462 6.14465 14.08L5.46465 12.48L5.34465 12.17C5.10465 11.55 4.93465 11.09 4.76465 10.74C4.84483 10.4337 5.11813 10.2175 5.43465 10.21H20.0946C20.4123 10.2141 20.6875 10.4317 20.7646 10.74C20.6046 11.09 20.4246 11.55 20.1846 12.17L19.3846 14.1C19.231 14.4629 18.8786 14.7018 18.4846 14.71H13.7646V13.71C13.77 13.4413 13.667 13.1818 13.4789 12.9899C13.2908 12.798 13.0333 12.6899 12.7646 12.69ZM12.7646 4.34L17.3146 8.21H8.17465L12.7646 4.34Z"
    fill="#FF6600"
  />
</svg>
