<svg width="25" height="24" viewBox="0 0 25 24" fill="none" xmlns="http://www.w3.org/2000/svg">
  <path
    d="M15.2406 3C16.2333 2.99979 17.0439 3.78886 17.0646 4.77556V20H9.46465V4.77556C9.48533 3.78886 10.2959 2.99979 11.2886 3H15.2406ZM21.0261 6.54167C21.9862 6.54167 22.7646 7.31547 22.7646 8.27V18.3094C22.7439 19.2492 21.9716 20.0002 21.0261 20H18.9646V6.54167H21.0261ZM7.56465 6.54167V20H5.50315C4.55765 20.0002 3.78532 19.2492 3.76465 18.3094V8.27C3.76465 7.31547 4.543 6.54167 5.50315 6.54167H7.56465ZM13.2646 10.4989C13.0023 10.4989 12.7896 10.7103 12.7896 10.9711V12.86H10.8896C10.6273 12.86 10.4146 13.0714 10.4146 13.3322C10.4146 13.593 10.6273 13.8044 10.8896 13.8044H12.7896V15.6933C12.7896 15.9541 13.0023 16.1656 13.2646 16.1656C13.5269 16.1656 13.7396 15.9541 13.7396 15.6933V13.8044H15.6396V13.7667C15.8878 13.7675 16.0947 13.5782 16.1146 13.3322C16.1146 13.0714 15.9019 12.86 15.6396 12.86H13.7396V10.9711C13.7396 10.7103 13.5269 10.4989 13.2646 10.4989ZM15.1646 4.88889H11.3646V6.53222H15.1646V4.88889Z"
    fill="#FF6600"
  />
</svg>
