<svg
  width="24"
  height="24"
  viewBox="0 0 24 24"
  fill="none"
  xmlns="http://www.w3.org/2000/svg"
>
  <path
    d="M20.17 5.75H16V3.88C15.9782 2.83527 15.125 1.99977 14.08 2H9.92C8.87504 1.99977 8.02177 2.83527 8 3.88V5.75H3.83C2.81932 5.75 2 6.56932 2 7.58V18.21C2.02175 19.205 2.83474 20.0002 3.83 20H20.17C21.1653 20.0002 21.9782 19.205 22 18.21V7.58C22 6.56932 21.1807 5.75 20.17 5.75ZM6 18H4V7.75H6V18ZM10 4H14V5.74H10V4ZM16 18H8V7.75H16V18ZM20 7.75V18H18V7.75H20ZM12 9.9C12.2761 9.9 12.5 10.1239 12.5 10.4V12.4H14.5C14.7761 12.4 15 12.6239 15 12.9C15 13.1761 14.7761 13.4 14.5 13.4H12.5V15.4C12.5 15.6761 12.2761 15.9 12 15.9C11.7239 15.9 11.5 15.6761 11.5 15.4V13.4H9.5C9.22386 13.4 9 13.1761 9 12.9C9 12.6239 9.22386 12.4 9.5 12.4H11.5V10.4C11.5 10.1239 11.7239 9.9 12 9.9Z"
    fill="#FF6600"
  />
</svg>
