<svg
  width="24"
  height="24"
  viewBox="0 0 24 24"
  fill="none"
  xmlns="http://www.w3.org/2000/svg"
>
  <path
    d="M22 10.91C22.0018 9.5165 20.9465 8.3488 19.56 8.20997C19.56 8.20997 19.56 8.15997 19.51 8.14997L12.51 2.23997C12.1375 1.92554 11.5925 1.92554 11.22 2.23997L4.43 8.07997C4.43 8.07997 4.37 8.16997 4.33 8.20997C2.99311 8.40365 2.00094 9.5491 2 10.9L2.54 19.11C2.63534 20.6961 3.95097 21.9328 5.54 21.93H18.53C20.119 21.9328 21.4347 20.6961 21.53 19.11L22 11C22 11 22 10.93 22 10.91ZM12 12.66C11.4477 12.66 11 13.1077 11 13.66V14.66H6.29C5.88995 14.654 5.53199 14.4101 5.38 14.04L4.7 12.45L4.58 12.14C4.34 11.52 4.17 11.06 4 10.71C4.08018 10.4037 4.35348 10.1875 4.67 10.18H19.33C19.6477 10.1841 19.9229 10.4017 20 10.71C19.84 11.06 19.66 11.52 19.42 12.14L18.62 14.06C18.4695 14.4268 18.1164 14.67 17.72 14.68H13V13.68C13.0054 13.4113 12.9024 13.1518 12.7143 12.9599C12.5262 12.768 12.2687 12.6599 12 12.66ZM12 4.30997L16.55 8.17997H7.41L12 4.30997ZM19.51 19C19.51 19.5523 19.0623 20 18.51 20H5.51C4.95772 20 4.51 19.5523 4.51 19L4.31 15.93C4.85912 16.4241 5.57127 16.6983 6.31 16.7H17.72C18.4587 16.6983 19.1709 16.4241 19.72 15.93L19.51 19Z"
    fill="#FF6600"
  />
</svg>
