<svg width="25" height="24" viewBox="0 0 25 24" fill="none" xmlns="http://www.w3.org/2000/svg">
  <path
    fill-rule="evenodd"
    clip-rule="evenodd"
    d="M1.76818 5.85327L12.0619 12.3944C12.2727 12.5259 12.5161 12.5956 12.7646 12.5956C13.0131 12.5956 13.2565 12.5259 13.4673 12.3944L13.4697 12.393L23.7611 5.85327C23.6846 4.26457 22.3723 3 20.7646 3H4.76465C3.15699 3 1.84469 4.26457 1.76818 5.85327ZM23.7646 8.22067L14.5369 14.0844L14.5315 14.0878C14.0019 14.4196 13.3896 14.5956 12.7646 14.5956C12.1396 14.5956 11.5273 14.4196 10.9977 14.0878L10.9923 14.0844L1.76465 8.22067V18C1.76465 19.6569 3.1078 21 4.76465 21H20.7646C22.4215 21 23.7646 19.6569 23.7646 18V8.22067Z"
    fill="#FF6600"
  />
</svg>
