<svg
  width="24"
  height="24"
  viewBox="0 0 24 24"
  fill="none"
  xmlns="http://www.w3.org/2000/svg"
>
  <path
    fill-rule="evenodd"
    clip-rule="evenodd"
    d="M1.00353 5.85327L11.2973 12.3944C11.5081 12.5259 11.7515 12.5956 12 12.5956C12.2485 12.5956 12.4919 12.5259 12.7027 12.3944L12.7051 12.393L22.9965 5.85327C22.92 4.26457 21.6077 3 20 3H4C2.39234 3 1.08004 4.26457 1.00353 5.85327ZM23 8.22067L13.7723 14.0844L13.7669 14.0878C13.2373 14.4196 12.625 14.5956 12 14.5956C11.375 14.5956 10.7627 14.4196 10.2331 14.0878L10.2277 14.0844L1 8.22067V18C1 19.6569 2.34315 21 4 21H20C21.6569 21 23 19.6569 23 18V8.22067Z"
    fill="#FF6600"
  />
</svg>
