<svg width="25" height="24" viewBox="0 0 25 24" fill="none" xmlns="http://www.w3.org/2000/svg">
  <path
    d="M15.4645 6.5C16.2173 6.50549 16.8246 7.11726 16.8246 7.87V13.44C16.8246 13.8818 16.4664 14.24 16.0245 14.24C15.5827 14.24 15.2245 13.8818 15.2245 13.44V9.23H14.8746V21C14.7563 21.4355 14.3609 21.7378 13.9096 21.7378C13.4584 21.7378 13.063 21.4355 12.9446 21V14.25H12.5845V21C12.4662 21.4355 12.0709 21.7378 11.6196 21.7378C11.1684 21.7378 10.773 21.4355 10.6546 21V9.23H10.3046V13.44C10.3046 13.8818 9.94642 14.24 9.50459 14.24C9.06276 14.24 8.70459 13.8818 8.70459 13.44V7.87C8.70459 7.11726 9.31187 6.50549 10.0646 6.5H15.4645ZM12.7645 2C13.8691 2 14.7645 2.89543 14.7645 4C14.7645 5.10457 13.8691 6 12.7645 6C11.66 6 10.7646 5.10457 10.7646 4C10.7646 2.89543 11.66 2 12.7645 2Z"
    fill="#FF6600"
  />
</svg>
