<svg
  width="24"
  height="24"
  viewBox="0 0 24 24"
  fill="none"
  xmlns="http://www.w3.org/2000/svg"
>
  <path
    d="M14.6999 6.5C15.4527 6.50549 16.0599 7.11726 16.0599 7.87V13.44C16.0599 13.8818 15.7018 14.24 15.2599 14.24C14.8181 14.24 14.4599 13.8818 14.4599 13.44V9.23H14.1099V21C13.9916 21.4355 13.5962 21.7378 13.1449 21.7378C12.6937 21.7378 12.2983 21.4355 12.1799 21V14.25H11.8199V21C11.7016 21.4355 11.3062 21.7378 10.8549 21.7378C10.4037 21.7378 10.0083 21.4355 9.88994 21V9.23H9.53994V13.44C9.53994 13.8818 9.18177 14.24 8.73994 14.24C8.29811 14.24 7.93994 13.8818 7.93994 13.44V7.87C7.93994 7.11726 8.54722 6.50549 9.29994 6.5H14.6999ZM11.9999 2C13.1045 2 13.9999 2.89543 13.9999 4C13.9999 5.10457 13.1045 6 11.9999 6C10.8954 6 9.99994 5.10457 9.99994 4C9.99994 2.89543 10.8954 2 11.9999 2Z"
    fill="#FF6600"
  />
</svg>
