<svg width="25" height="24" viewBox="0 0 25 24" fill="none" xmlns="http://www.w3.org/2000/svg">
  <path
    d="M12.7646 13C13.3169 13 13.7646 12.5523 13.7646 12C13.7646 11.4477 13.3169 11 12.7646 11C12.2123 11 11.7646 11.4477 11.7646 12C11.7646 12.5523 12.2123 13 12.7646 13Z"
    stroke="#FF6600"
    stroke-width="2"
    stroke-linecap="round"
    stroke-linejoin="round"
  />
  <path
    d="M19.7646 13C20.3169 13 20.7646 12.5523 20.7646 12C20.7646 11.4477 20.3169 11 19.7646 11C19.2123 11 18.7646 11.4477 18.7646 12C18.7646 12.5523 19.2123 13 19.7646 13Z"
    stroke="#FF6600"
    stroke-width="2"
    stroke-linecap="round"
    stroke-linejoin="round"
  />
  <path
    d="M5.76465 13C6.31693 13 6.76465 12.5523 6.76465 12C6.76465 11.4477 6.31693 11 5.76465 11C5.21237 11 4.76465 11.4477 4.76465 12C4.76465 12.5523 5.21237 13 5.76465 13Z"
    stroke="#FF6600"
    stroke-width="2"
    stroke-linecap="round"
    stroke-linejoin="round"
  />
</svg>
