<svg width="25" height="24" viewBox="0 0 25 24" fill="none" xmlns="http://www.w3.org/2000/svg">
  <path
    d="M12.7646 13C13.3169 13 13.7646 12.5523 13.7646 12C13.7646 11.4477 13.3169 11 12.7646 11C12.2123 11 11.7646 11.4477 11.7646 12C11.7646 12.5523 12.2123 13 12.7646 13Z"
    stroke="#FF6600"
    stroke-width="2"
    stroke-linecap="round"
    stroke-linejoin="round"
  />
  <path
    d="M12.7646 6C13.3169 6 13.7646 5.55228 13.7646 5C13.7646 4.44772 13.3169 4 12.7646 4C12.2123 4 11.7646 4.44772 11.7646 5C11.7646 5.55228 12.2123 6 12.7646 6Z"
    stroke="#FF6600"
    stroke-width="2"
    stroke-linecap="round"
    stroke-linejoin="round"
  />
  <path
    d="M12.7646 20C13.3169 20 13.7646 19.5523 13.7646 19C13.7646 18.4477 13.3169 18 12.7646 18C12.2123 18 11.7646 18.4477 11.7646 19C11.7646 19.5523 12.2123 20 12.7646 20Z"
    stroke="#FF6600"
    stroke-width="2"
    stroke-linecap="round"
    stroke-linejoin="round"
  />
</svg>
