<svg
  width="24"
  height="24"
  viewBox="0 0 24 24"
  fill="none"
  xmlns="http://www.w3.org/2000/svg"
>
  <path
    d="M15.12 2.5C16.7398 2.5 18.0545 3.81019 18.06 5.43V6.6H19.48C20.1332 6.5812 20.7669 6.82415 21.2401 7.27485C21.7134 7.72554 21.9869 8.34662 22 9V15C21.9817 15.6499 21.7058 16.2658 21.2332 16.7122C20.7605 17.1586 20.1299 17.3988 19.48 17.38H18.38V20.21C18.38 20.9224 17.8024 21.5 17.09 21.5H6.87C6.16144 21.5 5.58549 20.9285 5.58 20.22V17.39H4.52C3.86846 17.4088 3.23628 17.1672 2.76334 16.7187C2.2904 16.2701 2.01569 15.6516 2 15V9C2.01307 8.34662 2.28663 7.72554 2.75986 7.27485C3.23309 6.82415 3.86676 6.5812 4.52 6.6H5.94V5.43C5.94551 3.81019 7.26018 2.5 8.88 2.5H15.12ZM17.38 13.74H6.58V20.21C6.58 20.3702 6.70984 20.5 6.87 20.5H17.09C17.1669 20.5 17.2407 20.4694 17.2951 20.4151C17.3494 20.3607 17.38 20.2869 17.38 20.21V13.74ZM15 17.69C15.2761 17.69 15.5 17.9139 15.5 18.19C15.5 18.4661 15.2761 18.69 15 18.69H9C8.72386 18.69 8.5 18.4661 8.5 18.19C8.5 17.9139 8.72386 17.69 9 17.69H15ZM15 15.54C15.2761 15.54 15.5 15.7639 15.5 16.04C15.5 16.3161 15.2761 16.54 15 16.54H9C8.72386 16.54 8.5 16.3161 8.5 16.04C8.5 15.7639 8.72386 15.54 9 15.54H15ZM19.52 8.61H4.52C4.29729 8.6043 4.11079 8.77748 4.1 9V15C4.10517 15.1061 4.15236 15.2058 4.23116 15.2771C4.30996 15.3484 4.41388 15.3854 4.52 15.38H5.58V13.74H5C4.72386 13.74 4.5 13.5161 4.5 13.24C4.5 12.9639 4.72386 12.74 5 12.74H19C19.2761 12.74 19.5 12.9639 19.5 13.24C19.5 13.5161 19.2761 13.74 19 13.74H18.38V15.39H19.48C19.5878 15.3954 19.6932 15.3571 19.7723 15.2836C19.8514 15.2102 19.8974 15.1079 19.9 15V9C19.8904 8.79251 19.7272 8.62498 19.52 8.61ZM18.18 9.6C18.4561 9.6 18.68 9.8239 18.68 10.1C18.6747 10.3739 18.4539 10.5947 18.18 10.6H17.18C16.9039 10.6 16.68 10.3761 16.68 10.1C16.68 9.8239 16.9039 9.6 17.18 9.6H18.18ZM15.12 4.5H8.88C8.36473 4.49997 7.94548 4.91476 7.94 5.43V6.56H16.06V5.43C16.0545 4.91476 15.6353 4.49997 15.12 4.5Z"
    fill="#FF6600"
  />
</svg>
