<svg
  width="24"
  height="24"
  viewBox="0 0 24 24"
  fill="none"
  xmlns="http://www.w3.org/2000/svg"
>
  <path
    d="M16.46 2.00006C16.8579 1.98931 17.2437 2.13712 17.5325 2.41095C17.8214 2.68479 17.9895 3.06219 18 3.46006V20.5401C17.9895 20.9379 17.8214 21.3153 17.5325 21.5892C17.2437 21.863 16.8579 22.0108 16.46 22.0001H7.54C7.14214 22.0108 6.75631 21.863 6.46747 21.5892C6.17863 21.3153 6.01047 20.9379 6 20.5401V3.46006C6.01047 3.06219 6.17863 2.68479 6.46747 2.41095C6.75631 2.13712 7.14214 1.98931 7.54 2.00006H16.46ZM12 19.0001C11.4477 19.0001 11 19.4478 11 20.0001C11 20.5523 11.4477 21.0001 12 21.0001C12.5523 21.0001 13 20.5523 13 20.0001C13 19.4478 12.5523 19.0001 12 19.0001ZM16 5.00006H8V18.0001H16V5.00006ZM11.72 11.7701L11.73 14.5001H9V11.7701H11.72ZM13.9 13.9501V14.5001H13.35V13.9501H13.9ZM15 13.9501V14.5001H14.45V13.9501H15ZM13.9 11.7701V12.3201H14.45V11.7701H14.99V13.4101H13.36V12.8601H12.81V14.5001H12.26V11.7701H13.9ZM11.17 12.3201H9.54V14.0001H11.17V12.3201ZM10.63 12.8601V13.4101H10.08V12.8601H10.63ZM11.72 8.50006L11.73 11.2301H9V8.50006H11.72ZM15 8.50006V11.2301H12.26V8.50006H15ZM11.17 9.0501H9.54V10.6801H11.17V9.0501ZM14.45 9.0501H12.81V10.6801H14.46L14.45 9.0501ZM13.9 9.5901V10.1401H13.35V9.5901H13.9ZM10.63 9.5901V10.1401H10.08V9.5901H10.63ZM14 3.00006H10C9.72386 3.00006 9.5 3.22392 9.5 3.50006C9.5 3.7762 9.72386 4.00006 10 4.00006H14C14.2761 4.00006 14.5 3.7762 14.5 3.50006C14.5 3.22392 14.2761 3.00006 14 3.00006Z"
    fill="#FF6600"
  />
</svg>
