<svg width="25" height="24" viewBox="0 0 25 24" fill="none" xmlns="http://www.w3.org/2000/svg">
  <path
    d="M17.2246 2.00006C17.6225 1.98931 18.0083 2.13712 18.2971 2.41095C18.586 2.68479 18.7541 3.06219 18.7646 3.46006V20.5401C18.7541 20.9379 18.586 21.3153 18.2971 21.5892C18.0083 21.863 17.6225 22.0108 17.2246 22.0001H8.30465C7.90679 22.0108 7.52096 21.863 7.23212 21.5892C6.94328 21.3153 6.77512 20.9379 6.76465 20.5401V3.46006C6.77512 3.06219 6.94328 2.68479 7.23212 2.41095C7.52096 2.13712 7.90679 1.98931 8.30465 2.00006H17.2246ZM12.7646 19.0001C12.2123 19.0001 11.7646 19.4478 11.7646 20.0001C11.7646 20.5523 12.2123 21.0001 12.7646 21.0001C13.3169 21.0001 13.7646 20.5523 13.7646 20.0001C13.7646 19.4478 13.3169 19.0001 12.7646 19.0001ZM16.7646 5.00006H8.76465V18.0001H16.7646V5.00006ZM12.4846 11.7701L12.4946 14.5001H9.76465V11.7701H12.4846ZM14.6646 13.9501V14.5001H14.1146V13.9501H14.6646ZM15.7646 13.9501V14.5001H15.2146V13.9501H15.7646ZM14.6646 11.7701V12.3201H15.2146V11.7701H15.7546V13.4101H14.1246V12.8601H13.5746V14.5001H13.0246V11.7701H14.6646ZM11.9346 12.3201H10.3046V14.0001H11.9346V12.3201ZM11.3946 12.8601V13.4101H10.8446V12.8601H11.3946ZM12.4846 8.50006L12.4946 11.2301H9.76465V8.50006H12.4846ZM15.7646 8.50006V11.2301H13.0246V8.50006H15.7646ZM11.9346 9.0501H10.3046V10.6801H11.9346V9.0501ZM15.2146 9.0501H13.5746V10.6801H15.2246L15.2146 9.0501ZM14.6646 9.5901V10.1401H14.1146V9.5901H14.6646ZM11.3946 9.5901V10.1401H10.8446V9.5901H11.3946ZM14.7646 3.00006H10.7646C10.4885 3.00006 10.2646 3.22392 10.2646 3.50006C10.2646 3.7762 10.4885 4.00006 10.7646 4.00006H14.7646C15.0407 4.00006 15.2646 3.7762 15.2646 3.50006C15.2646 3.22392 15.0407 3.00006 14.7646 3.00006Z"
    fill="#FF6600"
  />
</svg>
