<svg width="25" height="24" viewBox="0 0 25 24" fill="none" xmlns="http://www.w3.org/2000/svg">
  <path
    d="M15.8846 2.5C17.5044 2.5 18.8191 3.81019 18.8246 5.43V6.6H20.2446C20.8978 6.5812 21.5315 6.82415 22.0047 7.27485C22.4781 7.72554 22.7515 8.34662 22.7646 9V15C22.7463 15.6499 22.4704 16.2658 21.9978 16.7122C21.5251 17.1586 20.8945 17.3988 20.2446 17.38H19.1446V20.21C19.1446 20.9224 18.567 21.5 17.8546 21.5H7.63465C6.92609 21.5 6.35014 20.9285 6.34465 20.22V17.39H5.28465C4.63311 17.4088 4.00093 17.1672 3.52799 16.7187C3.05505 16.2701 2.78034 15.6516 2.76465 15V9C2.77772 8.34662 3.05128 7.72554 3.52451 7.27485C3.99774 6.82415 4.63141 6.5812 5.28465 6.6H6.70465V5.43C6.71016 3.81019 8.02483 2.5 9.64465 2.5H15.8846ZM18.1446 13.74H7.34465V20.21C7.34465 20.3702 7.47449 20.5 7.63465 20.5H17.8546C17.9315 20.5 18.0053 20.4694 18.0597 20.4151C18.114 20.3607 18.1446 20.2869 18.1446 20.21V13.74ZM15.7646 17.69C16.0407 17.69 16.2646 17.9139 16.2646 18.19C16.2646 18.4661 16.0407 18.69 15.7646 18.69H9.76465C9.48851 18.69 9.26465 18.4661 9.26465 18.19C9.26465 17.9139 9.48851 17.69 9.76465 17.69H15.7646ZM15.7646 15.54C16.0407 15.54 16.2646 15.7639 16.2646 16.04C16.2646 16.3161 16.0407 16.54 15.7646 16.54H9.76465C9.48851 16.54 9.26465 16.3161 9.26465 16.04C9.26465 15.7639 9.48851 15.54 9.76465 15.54H15.7646ZM20.2846 8.61H5.28465C5.06194 8.6043 4.87544 8.77748 4.86465 9V15C4.86982 15.1061 4.91701 15.2058 4.99581 15.2771C5.07461 15.3484 5.17853 15.3854 5.28465 15.38H6.34465V13.74H5.76465C5.48851 13.74 5.26465 13.5161 5.26465 13.24C5.26465 12.9639 5.48851 12.74 5.76465 12.74H19.7646C20.0407 12.74 20.2646 12.9639 20.2646 13.24C20.2646 13.5161 20.0407 13.74 19.7646 13.74H19.1446V15.39H20.2446C20.3524 15.3954 20.4578 15.3571 20.5369 15.2836C20.616 15.2102 20.662 15.1079 20.6646 15V9C20.655 8.79251 20.4918 8.62498 20.2846 8.61ZM18.9446 9.6C19.2207 9.6 19.4446 9.8239 19.4446 10.1C19.4393 10.3739 19.2185 10.5947 18.9446 10.6H17.9446C17.6685 10.6 17.4446 10.3761 17.4446 10.1C17.4446 9.8239 17.6685 9.6 17.9446 9.6H18.9446ZM15.8846 4.5H9.64465C9.12938 4.49997 8.71013 4.91476 8.70465 5.43V6.56H16.8246V5.43C16.8191 4.91476 16.3999 4.49997 15.8846 4.5Z"
    fill="#FF6600"
  />
</svg>
