<svg width="25" height="24" viewBox="0 0 25 24" fill="none" xmlns="http://www.w3.org/2000/svg">
  <g clip-path="url(#clip0_463_46352)">
    <path
      d="M24.2322 18.0699L18.6503 5.29213C18.4518 4.83772 18.0194 4.54663 17.5434 4.54663H13.6466L13.7444 5.47142C13.7644 5.65989 13.6162 5.82441 13.4266 5.82441H12.2622C12.0725 5.82441 11.9244 5.65989 11.9443 5.47142L12.0422 4.54663H8.14539C7.66902 4.54663 7.23657 4.83772 7.03812 5.29213L1.45623 18.0699C1.08687 18.916 1.67624 19.88 2.5639 19.88H10.4238L10.8355 15.9795C10.8698 15.6545 11.1437 15.4077 11.4708 15.4077H14.218C14.545 15.4077 14.8189 15.6545 14.8533 15.9795L15.265 19.88H23.1249C24.0125 19.88 24.6019 18.916 24.2322 18.0699ZM11.7423 7.38809C11.7595 7.22549 11.8966 7.1021 12.0601 7.10219H13.629C13.7923 7.10219 13.9297 7.22557 13.9469 7.38809L14.1305 9.1283C14.1605 9.4114 13.9385 9.6577 13.6542 9.6577H12.0354C11.7507 9.6577 11.5291 9.4114 11.559 9.1283L11.7423 7.38809ZM13.9481 14.13H11.7403C11.361 14.13 11.0651 13.8013 11.105 13.424L11.3074 11.5073C11.3418 11.1823 11.6157 10.9355 11.9427 10.9355H13.7456C14.0726 10.9355 14.3466 11.1823 14.3809 11.5073L14.5833 13.424C14.6233 13.8013 14.3274 14.13 13.9481 14.13Z"
      fill="#FF6600"
    />
  </g>
  <defs>
    <clipPath id="clip0_463_46352">
      <rect width="24" height="24" fill="white" transform="translate(0.764648)" />
    </clipPath>
  </defs>
</svg>
