<svg
  width="24"
  height="24"
  viewBox="0 0 24 24"
  fill="none"
  xmlns="http://www.w3.org/2000/svg"
>
  <path
    d="M23.4676 18.0699L17.8857 5.29213C17.6872 4.83772 17.2548 4.54663 16.7788 4.54663H12.882L12.9798 5.47142C12.9998 5.65989 12.8516 5.82441 12.662 5.82441H11.4976C11.3079 5.82441 11.1598 5.65989 11.1797 5.47142L11.2776 4.54663H7.38074C6.90437 4.54663 6.47192 4.83772 6.27347 5.29213L0.691577 18.0699C0.32222 18.916 0.911595 19.88 1.79925 19.88H9.65918L10.0709 15.9795C10.1052 15.6545 10.3791 15.4077 10.7062 15.4077H13.4534C13.7804 15.4077 14.0543 15.6545 14.0887 15.9795L14.5004 19.88H22.3603C23.2479 19.88 23.8373 18.916 23.4676 18.0699ZM10.9777 7.38809C10.9949 7.22549 11.132 7.1021 11.2955 7.10219H12.8644C13.0277 7.10219 13.1651 7.22557 13.1823 7.38809L13.3659 9.1283C13.3959 9.4114 13.1739 9.6577 12.8896 9.6577H11.2708C10.9861 9.6577 10.7645 9.4114 10.7944 9.1283L10.9777 7.38809ZM13.1835 14.13H10.9757C10.5964 14.13 10.3005 13.8013 10.3404 13.424L10.5428 11.5073C10.5772 11.1823 10.8511 10.9355 11.1781 10.9355H12.981C13.308 10.9355 13.582 11.1823 13.6163 11.5073L13.8187 13.424C13.8587 13.8013 13.5628 14.13 13.1835 14.13Z"
    fill="#FF6600"
  />
</svg>
