<svg
  width="24"
  height="24"
  viewBox="0 0 24 24"
  fill="none"
  xmlns="http://www.w3.org/2000/svg"
>
  <path
    fill-rule="evenodd"
    clip-rule="evenodd"
    d="M12 1C5.92472 1 1 5.92472 1 12C1 18.0753 5.92472 23 12 23C18.0753 23 23 18.0753 23 12C23 5.92472 18.0753 1 12 1ZM11.3753 13.0913C11.3753 12.9677 11.4564 12.8904 11.5862 12.8904H13.9716C14.5071 12.8904 14.8966 12.5042 14.8966 12.0407C14.8966 11.5618 14.5071 11.1601 13.9716 11.1601H11.4564C11.3266 11.1601 11.2454 11.1138 11.2292 10.9747C11.1643 10.434 11.0994 9.507 11.0994 9.3525C11.0994 8.39466 11.6836 7.73034 12.7708 7.73034C13.3712 7.73034 13.9716 8.00843 14.3448 8.39466C14.5396 8.59551 14.8154 8.7191 15.0426 8.7191C15.5294 8.7191 16 8.33286 16 7.80758C16 7.60674 15.9189 7.4059 15.7566 7.18961C15.0264 6.37079 13.8742 6 12.787 6C10.4665 6 9.10345 7.375 9.10345 9.4607C9.10345 9.9087 9.15213 10.5421 9.21704 10.9747C9.23327 11.0983 9.15213 11.1601 9.00609 11.1601C8.45436 11.1601 8 11.5618 8 12.0407C8 12.6124 8.40568 12.8904 9.21704 12.8904C9.34686 12.8904 9.41176 12.9677 9.41176 13.0913C9.36308 13.7247 9.21704 14.4972 9.05477 14.9607C9.00609 15.0997 8.9574 15.1306 8.89249 15.1306C8.43813 15.1306 8 15.5478 8 16.0576C8 16.5365 8.38945 17 8.97363 17H15.0426C15.5294 17 16 16.5365 16 16.0576C16 15.5478 15.5294 15.1306 15.0426 15.1306H11.2292C11.1156 15.1306 11.0669 15.0379 11.1156 14.9298C11.2617 14.3118 11.3266 13.7093 11.3753 13.0913Z"
    fill="#FF6600"
  />
</svg>
