<svg width="25" height="24" viewBox="0 0 25 24" fill="none" xmlns="http://www.w3.org/2000/svg">
  <path
    d="M13.8966 6.47257C15.4641 5.16021 16.5122 2.19829 15.8651 2.0707C15.0084 1.89754 13.131 2.65397 12.2197 2.78156C10.9438 2.93649 9.55856 1.40541 8.7839 2.26209C8.14595 2.95472 9.23047 5.47919 10.9347 6.58193C5.90401 9.0973 -1.23194 21.6011 11.2081 22.5125C28.4145 23.7884 19.8295 8.92412 13.8966 6.47257ZM14.6348 18.1289C14.5922 18.1765 14.5403 18.2148 14.4823 18.2414C14.4243 18.2681 14.3614 18.2825 14.2976 18.2838H11.2263C11.1591 18.287 11.0921 18.2747 11.0305 18.2478C10.9688 18.221 10.9142 18.1803 10.8709 18.1289C10.7827 18.0315 10.734 17.9048 10.7342 17.7734C10.7308 17.6388 10.7798 17.5081 10.8709 17.4089C10.9104 17.363 10.9593 17.3262 11.0144 17.301C11.0694 17.2758 11.1293 17.2629 11.1899 17.2631C11.1899 17.2631 11.2536 17.2631 11.2719 17.1719C11.3658 16.8361 11.4208 16.4905 11.4359 16.1421C11.4359 16.0692 11.4086 16.0327 11.3539 16.0327C10.9347 16.0327 10.7342 15.896 10.7342 15.6226C10.7335 15.5633 10.7462 15.5046 10.7714 15.4509C10.7967 15.3972 10.8338 15.35 10.88 15.3128C10.9823 15.228 11.1117 15.1828 11.2445 15.1852C11.2708 15.1958 11.3002 15.1958 11.3266 15.1852C11.3357 15.1617 11.3357 15.1357 11.3266 15.1123C11.2914 14.8341 11.2731 14.5541 11.2719 14.2738C11.2632 14.0334 11.3023 13.7937 11.3868 13.5684C11.4712 13.3432 11.5994 13.1369 11.764 12.9614C11.9471 12.795 12.1614 12.6666 12.3945 12.5837C12.6276 12.5008 12.8749 12.465 13.1219 12.4784C13.4088 12.475 13.6936 12.5277 13.9604 12.6334C14.2178 12.7341 14.4464 12.8969 14.6257 13.1073C14.7 13.2015 14.7444 13.3157 14.7533 13.4354C14.7537 13.4995 14.7401 13.5629 14.7133 13.6212C14.6866 13.6795 14.6473 13.7311 14.5983 13.7726C14.5557 13.8194 14.5036 13.8566 14.4454 13.8817C14.3873 13.9069 14.3245 13.9194 14.2611 13.9184C14.1914 13.9157 14.1235 13.896 14.0631 13.8611C14.0028 13.8261 13.9519 13.777 13.9148 13.7179C13.8157 13.6017 13.695 13.5057 13.5594 13.4354C13.4232 13.3582 13.2694 13.3174 13.1128 13.3169C12.9978 13.3104 12.8829 13.3291 12.7758 13.3716C12.6688 13.4141 12.5723 13.4794 12.4931 13.5629C12.3391 13.7421 12.2606 13.9741 12.2744 14.21C12.2744 14.3832 12.2744 14.6839 12.3382 15.1214C12.3381 15.1353 12.341 15.1492 12.3466 15.162C12.3522 15.1748 12.3604 15.1862 12.3707 15.1957C12.381 15.2051 12.3931 15.2123 12.4064 15.2168C12.4196 15.2212 12.4336 15.2229 12.4475 15.2216H13.7143C13.839 15.219 13.9598 15.2647 14.0515 15.3492C14.0921 15.3899 14.1243 15.4383 14.1462 15.4914C14.1681 15.5446 14.1792 15.6016 14.1791 15.6591C14.1784 15.7137 14.1667 15.7677 14.1448 15.8178C14.1229 15.8679 14.0911 15.9131 14.0515 15.9507C13.9589 16.0327 13.8379 16.0752 13.7143 16.0692H12.5387C12.5124 16.0585 12.4829 16.0585 12.4566 16.0692C12.4488 16.096 12.4488 16.1244 12.4566 16.1512C12.4365 16.4914 12.3908 16.8295 12.3199 17.1628C12.3108 17.1863 12.3108 17.2123 12.3199 17.2357C12.3299 17.2406 12.3408 17.2431 12.3518 17.2431C12.3629 17.2431 12.3738 17.2406 12.3837 17.2357H14.3158C14.3791 17.2353 14.4417 17.248 14.4998 17.2731C14.5578 17.2982 14.61 17.3352 14.653 17.3815C14.7027 17.4283 14.7421 17.4848 14.7688 17.5475C14.7954 17.6103 14.8088 17.6779 14.8079 17.7461C14.8099 17.8215 14.7955 17.8964 14.7656 17.9657C14.7357 18.0349 14.691 18.0968 14.6348 18.1471V18.1289Z"
    fill="#FF6600"
  />
</svg>
