<svg width="25" height="24" viewBox="0 0 25 24" fill="none" xmlns="http://www.w3.org/2000/svg">
  <path
    d="M11.9346 6.34105L8.31512 9.85263C7.84809 10.3074 7.84809 11.0274 8.31512 11.4821C8.78215 11.9368 9.52161 11.9368 9.98863 11.4821L11.5843 9.92842V16.8505C11.5843 17.4821 12.1162 18 12.7648 18C13.4135 18 13.9453 17.4821 13.9453 16.8505V9.92842L15.5411 11.4695C16.0081 11.9242 16.7476 11.9242 17.2146 11.4695C17.4481 11.2421 17.5648 10.9516 17.5648 10.6611C17.5648 10.3705 17.4481 10.0674 17.2146 9.85263L13.6081 6.34105C13.3875 6.12631 13.0891 6 12.7778 6C12.4664 6 12.1551 6.12631 11.9346 6.34105Z"
    fill="#FF6600"
  />
</svg>
