<svg
  width="24"
  height="24"
  viewBox="0 0 24 24"
  fill="none"
  xmlns="http://www.w3.org/2000/svg"
>
  <path
    d="M13.132 6.47257C14.6995 5.16021 15.7476 2.19829 15.1005 2.0707C14.2438 1.89754 12.3664 2.65397 11.4551 2.78156C10.1792 2.93649 8.79391 1.40541 8.01925 2.26209C7.3813 2.95472 8.46582 5.47919 10.1701 6.58193C5.13936 9.0973 -1.99659 21.6011 10.4435 22.5125C27.6499 23.7884 19.0649 8.92412 13.132 6.47257ZM13.8702 18.1289C13.8276 18.1765 13.7757 18.2148 13.7177 18.2414C13.6597 18.2681 13.5968 18.2825 13.533 18.2838H10.4617C10.3945 18.287 10.3275 18.2747 10.2659 18.2478C10.2042 18.221 10.1496 18.1803 10.1063 18.1289C10.0181 18.0315 9.96939 17.9048 9.96956 17.7734C9.96615 17.6388 10.0152 17.5081 10.1063 17.4089C10.1458 17.363 10.1947 17.3262 10.2498 17.301C10.3048 17.2758 10.3647 17.2629 10.4253 17.2631C10.4253 17.2631 10.489 17.2631 10.5073 17.1719C10.6012 16.8361 10.6562 16.4905 10.6713 16.1421C10.6713 16.0692 10.644 16.0327 10.5893 16.0327C10.1701 16.0327 9.96956 15.896 9.96956 15.6226C9.96883 15.5633 9.98157 15.5046 10.0068 15.4509C10.0321 15.3972 10.0692 15.35 10.1154 15.3128C10.2177 15.228 10.3471 15.1828 10.4799 15.1852C10.5062 15.1958 10.5356 15.1958 10.562 15.1852C10.5711 15.1617 10.5711 15.1357 10.562 15.1123C10.5268 14.8341 10.5085 14.5541 10.5073 14.2738C10.4986 14.0334 10.5377 13.7937 10.6222 13.5684C10.7066 13.3432 10.8348 13.1369 10.9994 12.9614C11.1825 12.795 11.3968 12.6666 11.6299 12.5837C11.863 12.5008 12.1103 12.465 12.3573 12.4784C12.6442 12.475 12.929 12.5277 13.1958 12.6334C13.4532 12.7341 13.6818 12.8969 13.8611 13.1073C13.9354 13.2015 13.9798 13.3157 13.9887 13.4354C13.9891 13.4995 13.9755 13.5629 13.9487 13.6212C13.922 13.6795 13.8827 13.7311 13.8337 13.7726C13.7911 13.8194 13.739 13.8566 13.6808 13.8817C13.6227 13.9069 13.5599 13.9194 13.4965 13.9184C13.4268 13.9157 13.3589 13.896 13.2985 13.8611C13.2382 13.8261 13.1873 13.777 13.1502 13.7179C13.0511 13.6017 12.9304 13.5057 12.7948 13.4354C12.6586 13.3582 12.5048 13.3174 12.3482 13.3169C12.2332 13.3104 12.1183 13.3291 12.0112 13.3716C11.9042 13.4141 11.8077 13.4794 11.7285 13.5629C11.5745 13.7421 11.496 13.9741 11.5098 14.21C11.5098 14.3832 11.5098 14.6839 11.5736 15.1214C11.5735 15.1353 11.5764 15.1492 11.582 15.162C11.5876 15.1748 11.5958 15.1862 11.6061 15.1957C11.6164 15.2051 11.6285 15.2123 11.6418 15.2168C11.655 15.2212 11.669 15.2229 11.6829 15.2216H12.9497C13.0744 15.219 13.1952 15.2647 13.2869 15.3492C13.3275 15.3899 13.3597 15.4383 13.3816 15.4914C13.4035 15.5446 13.4146 15.6016 13.4145 15.6591C13.4138 15.7137 13.4021 15.7677 13.3802 15.8178C13.3583 15.8679 13.3265 15.9131 13.2869 15.9507C13.1943 16.0327 13.0733 16.0752 12.9497 16.0692H11.7741C11.7478 16.0585 11.7183 16.0585 11.692 16.0692C11.6842 16.096 11.6842 16.1244 11.692 16.1512C11.6719 16.4914 11.6262 16.8295 11.5553 17.1628C11.5462 17.1863 11.5462 17.2123 11.5553 17.2357C11.5653 17.2406 11.5762 17.2431 11.5872 17.2431C11.5983 17.2431 11.6092 17.2406 11.6191 17.2357H13.5512C13.6145 17.2353 13.6771 17.248 13.7352 17.2731C13.7932 17.2982 13.8454 17.3352 13.8884 17.3815C13.9381 17.4283 13.9775 17.4848 14.0042 17.5475C14.0308 17.6103 14.0442 17.6779 14.0433 17.7461C14.0453 17.8215 14.0309 17.8964 14.001 17.9657C13.9711 18.0349 13.9264 18.0968 13.8702 18.1471V18.1289Z"
    fill="#FF6600"
  />
</svg>
