<svg width="25" height="24" viewBox="0 0 25 24" fill="none" xmlns="http://www.w3.org/2000/svg">
  <path
    fill-rule="evenodd"
    clip-rule="evenodd"
    d="M12.7646 1C6.68937 1 1.76465 5.92472 1.76465 12C1.76465 18.0753 6.68937 23 12.7646 23C18.8399 23 23.7646 18.0753 23.7646 12C23.7646 5.92472 18.8399 1 12.7646 1ZM12.1399 13.0913C12.1399 12.9677 12.221 12.8904 12.3508 12.8904H14.7362C15.2717 12.8904 15.6612 12.5042 15.6612 12.0407C15.6612 11.5618 15.2717 11.1601 14.7362 11.1601H12.221C12.0912 11.1601 12.01 11.1138 11.9938 10.9747C11.9289 10.434 11.864 9.507 11.864 9.3525C11.864 8.39466 12.4482 7.73034 13.5354 7.73034C14.1358 7.73034 14.7362 8.00843 15.1094 8.39466C15.3042 8.59551 15.58 8.7191 15.8072 8.7191C16.294 8.7191 16.7646 8.33286 16.7646 7.80758C16.7646 7.60674 16.6835 7.4059 16.5212 7.18961C15.791 6.37079 14.6388 6 13.5516 6C11.2311 6 9.8681 7.375 9.8681 9.4607C9.8681 9.9087 9.91678 10.5421 9.98169 10.9747C9.99792 11.0983 9.91678 11.1601 9.77074 11.1601C9.21901 11.1601 8.76465 11.5618 8.76465 12.0407C8.76465 12.6124 9.17033 12.8904 9.98169 12.8904C10.1115 12.8904 10.1764 12.9677 10.1764 13.0913C10.1277 13.7247 9.98169 14.4972 9.81942 14.9607C9.77074 15.0997 9.72205 15.1306 9.65714 15.1306C9.20278 15.1306 8.76465 15.5478 8.76465 16.0576C8.76465 16.5365 9.1541 17 9.73828 17H15.8072C16.294 17 16.7646 16.5365 16.7646 16.0576C16.7646 15.5478 16.294 15.1306 15.8072 15.1306H11.9938C11.8802 15.1306 11.8315 15.0379 11.8802 14.9298C12.0263 14.3118 12.0912 13.7093 12.1399 13.0913Z"
    fill="#FF6600"
  />
</svg>
