<svg
  width="24"
  height="24"
  viewBox="0 0 24 24"
  fill="none"
  xmlns="http://www.w3.org/2000/svg"
>
  <path
    d="M20.4985 12.143L12.8528 4.49725C12.5425 4.19125 12.1175 4 11.65 4H5.70001C4.76074 4 4 4.76074 4 5.70001V11.65C4 12.1217 4.19125 12.5468 4.50151 12.8528L12.1515 20.5028C12.4575 20.8088 12.8825 21 13.35 21C13.8175 21 14.2468 20.8088 14.5528 20.5028L20.5028 14.5528C20.8088 14.2425 21 13.8175 21 13.35C21 12.8783 20.8088 12.4532 20.4985 12.143ZM6.97501 8.25001C6.2695 8.25001 5.70001 7.68052 5.70001 6.97501C5.70001 6.2695 6.2695 5.70001 6.97501 5.70001C7.68052 5.70001 8.25001 6.2695 8.25001 6.97501C8.25001 7.68052 7.68048 8.25001 6.97501 8.25001Z"
    fill="#FF6600"
  />
</svg>
