<svg
  width="24"
  height="24"
  viewBox="0 0 24 24"
  fill="none"
  xmlns="http://www.w3.org/2000/svg"
>
  <path
    d="M11.1698 6.34105L7.55027 9.85263C7.08324 10.3074 7.08324 11.0274 7.55027 11.4821C8.0173 11.9368 8.75676 11.9368 9.22378 11.4821L10.8195 9.92842V16.8505C10.8195 17.4821 11.3514 18 12 18C12.6487 18 13.1805 17.4821 13.1805 16.8505V9.92842L14.7763 11.4695C15.2433 11.9242 15.9828 11.9242 16.4498 11.4695C16.6833 11.2421 16.8 10.9516 16.8 10.6611C16.8 10.3705 16.6833 10.0674 16.4498 9.85263L12.8433 6.34105C12.6227 6.12631 12.3243 6 12.013 6C11.7016 6 11.3903 6.12631 11.1698 6.34105Z"
    fill="#FF6600"
  />
</svg>
