<svg width="25" height="24" viewBox="0 0 25 24" fill="none" xmlns="http://www.w3.org/2000/svg">
  <path
    d="M21.2631 12.143L13.6174 4.49725C13.3071 4.19125 12.8821 4 12.4146 4H6.46466C5.52539 4 4.76465 4.76074 4.76465 5.70001V11.65C4.76465 12.1217 4.9559 12.5468 5.26616 12.8528L12.9161 20.5028C13.2221 20.8088 13.6471 21 14.1146 21C14.5821 21 15.0114 20.8088 15.3174 20.5028L21.2674 14.5528C21.5734 14.2425 21.7646 13.8175 21.7646 13.35C21.7646 12.8783 21.5735 12.4532 21.2631 12.143ZM7.73966 8.25001C7.03415 8.25001 6.46466 7.68052 6.46466 6.97501C6.46466 6.2695 7.03415 5.70001 7.73966 5.70001C8.44517 5.70001 9.01466 6.2695 9.01466 6.97501C9.01466 7.68052 8.44513 8.25001 7.73966 8.25001Z"
    fill="#FF6600"
  />
</svg>
