<?xml version="1.0" encoding="UTF-8"?><svg id="Editable" xmlns="http://www.w3.org/2000/svg" viewBox="0 0 141.73 141.73">
  <defs>
    <style>
      .cls-1 {
        stroke-linecap: round;
        stroke-linejoin: round;
      }
      .cls-1,
      .cls-2 {
        fill: none;
        stroke: #ff6700;
        stroke-width: 4px;
      }
      .cls-2 {
        stroke-miterlimit: 10;
      }
    </style>
  </defs>
  <g>
    <path
      class="cls-1"
      d="M53.76,80.28l-11.04,10.67c-3.57,3.57-3.57,9.31,0,12.87l14.92,15.05c2.13,2.13,5.61,2.13,7.74,0h0c2.13-2.13,2.13-5.61,0-7.74l-11.09-11.13,9.09-9.09"
    />
    <path
      class="cls-1"
      d="M78.79,90.9l9.09,9.09-11.09,11.13c-2.13,2.13-2.13,5.61,0,7.74h0c2.13,2.13,5.61,2.13,7.74,0l14.92-15.05c3.57-3.57,3.57-9.31,0-12.87l-11.04-10.67"
    />
  </g>
  <g>
    <path class="cls-1" d="M54.95,72.47l-.44-10.52-12.35,12.35c-2.13,2.13-5.61,2.13-7.74,0-2.13-2.13-2.13-5.61,0-7.74l21.88-21.88" />
    <path class="cls-1" d="M86.56,45.37l21.18,21.18c2.13,2.13,2.13,5.61,.04,7.74-2.13,2.13-5.61,2.13-7.74,0l-12.35-12.35-.43,10.52" />
  </g>
  <circle class="cls-2" cx="71.08" cy="33.51" r="12.24" />
  <path
    class="cls-1"
    d="M54.95,72.47h32.31c2.82,2.82,1.14,7.79,1.14,7.79l-11.04,11.11c-3.46,3.49-9.1,3.49-12.56,0l-11.04-11.11s-1.63-4.98,1.18-7.79Z"
  />
</svg>
