<svg
  width="24"
  height="24"
  viewBox="0 0 24 24"
  fill="none"
  xmlns="http://www.w3.org/2000/svg"
>
  <path
    d="M3.05 12H22V18.68C22 19.0301 21.8609 19.3658 21.6134 19.6134C21.3658 19.8609 21.0301 20 20.68 20H3.32C2.96991 20 2.63417 19.8609 2.38662 19.6134C2.13907 19.3658 2 19.0301 2 18.68V12H3.05ZM13 15H9C8.44772 15 8 15.4477 8 16C8 16.5523 8.44772 17 9 17H13C13.5523 17 14 16.5523 14 16C14 15.4477 13.5523 15 13 15ZM6 15C5.44772 15 5 15.4477 5 16C5 16.5523 5.44772 17 6 17C6.55228 17 7 16.5523 7 16C7 15.4477 6.55228 15 6 15ZM4 8H3.05V5.11L3 8H2V5.32C2 4.59098 2.59098 4 3.32 4H20.68C21.0301 4 21.3658 4.13907 21.6134 4.38662C21.8609 4.63417 22 4.96991 22 5.32V8H20.51H4Z"
    fill="#FF6600"
  />
</svg>
