<svg
  width="24"
  height="24"
  viewBox="0 0 24 24"
  fill="none"
  xmlns="http://www.w3.org/2000/svg"
>
  <path
    d="M20.69 4.00004C21.4151 4.00557 22 4.59495 22 5.32007V18.6801C22 19.4052 21.4151 19.9946 20.69 20.0001H3.34C2.98726 20.0027 2.64791 19.8652 2.39661 19.6176C2.14531 19.3701 2.00264 19.0328 2 18.6801V5.32007C2.00264 4.96733 2.14531 4.63009 2.39661 4.38254C2.64791 4.13499 2.98726 3.99741 3.34 4.00004H20.69ZM20 12.0001H4V18.0001H20V12.0001ZM6.01 15.0001C6.56229 15.0001 7.01 15.4478 7.01 16.0001C7.01 16.5524 6.56229 17.0001 6.01 17.0001C5.45772 17.0001 5.01 16.5524 5.01 16.0001C5.01 15.4478 5.45772 15.0001 6.01 15.0001ZM13 15.0001C13.5523 15.0001 14 15.4478 14 16.0001C14 16.5524 13.5523 17.0001 13 17.0001H9C8.44772 17.0001 8 16.5524 8 16.0001C8 15.4478 8.44772 15.0001 9 15.0001H13ZM20 6.00007H4V8.00007H20V6.00007Z"
    fill="#FF6600"
  />
</svg>
