<svg width="25" height="24" viewBox="0 0 25 24" fill="none" xmlns="http://www.w3.org/2000/svg">
  <path
    d="M21.4546 4.00004C22.1797 4.00557 22.7646 4.59495 22.7646 5.32007V18.6801C22.7646 19.4052 22.1797 19.9946 21.4546 20.0001H4.10465C3.75191 20.0027 3.41256 19.8652 3.16126 19.6176C2.90996 19.3701 2.76729 19.0328 2.76465 18.6801V5.32007C2.76729 4.96733 2.90996 4.63009 3.16126 4.38254C3.41256 4.13499 3.75191 3.99741 4.10465 4.00004H21.4546ZM20.7646 12.0001H4.76465V18.0001H20.7646V12.0001ZM6.77465 15.0001C7.32694 15.0001 7.77465 15.4478 7.77465 16.0001C7.77465 16.5524 7.32694 17.0001 6.77465 17.0001C6.22237 17.0001 5.77465 16.5524 5.77465 16.0001C5.77465 15.4478 6.22237 15.0001 6.77465 15.0001ZM13.7646 15.0001C14.3169 15.0001 14.7646 15.4478 14.7646 16.0001C14.7646 16.5524 14.3169 17.0001 13.7646 17.0001H9.76465C9.21237 17.0001 8.76465 16.5524 8.76465 16.0001C8.76465 15.4478 9.21237 15.0001 9.76465 15.0001H13.7646ZM20.7646 6.00007H4.76465V8.00007H20.7646V6.00007Z"
    fill="#FF6600"
  />
</svg>
