<svg width="25" height="24" viewBox="0 0 25 24" fill="none" xmlns="http://www.w3.org/2000/svg">
  <path
    d="M3.81465 12H22.7646V18.68C22.7646 19.0301 22.6255 19.3658 22.378 19.6134C22.1304 19.8609 21.7947 20 21.4446 20H4.08465C3.73456 20 3.39882 19.8609 3.15127 19.6134C2.90372 19.3658 2.76465 19.0301 2.76465 18.68V12H3.81465ZM13.7646 15H9.76465C9.21237 15 8.76465 15.4477 8.76465 16C8.76465 16.5523 9.21237 17 9.76465 17H13.7646C14.3169 17 14.7646 16.5523 14.7646 16C14.7646 15.4477 14.3169 15 13.7646 15ZM6.76465 15C6.21237 15 5.76465 15.4477 5.76465 16C5.76465 16.5523 6.21237 17 6.76465 17C7.31693 17 7.76465 16.5523 7.76465 16C7.76465 15.4477 7.31693 15 6.76465 15ZM4.76465 8H3.81465V5.11L3.76465 8H2.76465V5.32C2.76465 4.59098 3.35563 4 4.08465 4H21.4446C21.7947 4 22.1304 4.13907 22.378 4.38662C22.6255 4.63417 22.7646 4.96991 22.7646 5.32V8H21.2746H4.76465Z"
    fill="#FF6600"
  />
</svg>
