<svg width="25" height="24" viewBox="0 0 25 24" fill="none" xmlns="http://www.w3.org/2000/svg">
  <path
    d="M22.7646 16.92V19.92C22.7658 20.1985 22.7086 20.4742 22.597 20.7294C22.4855 20.9845 22.3218 21.2136 22.1166 21.4019C21.9114 21.5901 21.6691 21.7335 21.4053 21.8227C21.1415 21.9119 20.862 21.9451 20.5846 21.92C17.5075 21.5856 14.5516 20.5342 11.9546 18.85C9.53841 17.3147 7.48992 15.2662 5.95458 12.85C4.26456 10.2412 3.21283 7.27096 2.88458 4.17997C2.85959 3.90343 2.89246 3.62474 2.98108 3.3616C3.06971 3.09846 3.21215 2.85665 3.39935 2.65159C3.58654 2.44652 3.81439 2.28268 4.06837 2.1705C4.32236 2.05831 4.59692 2.00024 4.87458 1.99998H7.87458C8.35989 1.9952 8.83037 2.16705 9.19834 2.48351C9.56631 2.79996 9.80666 3.23942 9.87458 3.71998C10.0012 4.68004 10.236 5.6227 10.5746 6.52998C10.7091 6.8879 10.7383 7.27689 10.6585 7.65086C10.5787 8.02482 10.3935 8.36809 10.1246 8.63998L8.85458 9.90998C10.2781 12.4136 12.3511 14.4865 14.8546 15.91L16.1246 14.64C16.3965 14.3711 16.7398 14.1859 17.1138 14.1061C17.4877 14.0263 17.8767 14.0555 18.2346 14.19C19.1419 14.5286 20.0845 14.7634 21.0445 14.89C21.5303 14.9585 21.974 15.2032 22.2912 15.5775C22.6083 15.9518 22.7768 16.4296 22.7646 16.92Z"
    stroke="#FF6600"
    stroke-width="2"
    stroke-linecap="round"
    stroke-linejoin="round"
  />
</svg>
