<svg
  width="24"
  height="24"
  viewBox="0 0 24 24"
  fill="none"
  xmlns="http://www.w3.org/2000/svg"
>
  <path
    d="M15.0599 3.00001H12.9629V9.246H6.37497V5.025C6.37497 4.52795 5.97203 4.125 5.47498 4.125H3.89999C3.40294 4.125 3 4.52795 3 5.025C3 5.52205 3.40294 5.92499 3.89999 5.92499H4.56599V12.6659C4.56598 13.4958 4.89625 14.2915 5.48387 14.8774C6.07149 15.4633 6.86814 15.7913 7.69796 15.7889H10.7849L11.5049 16.4999L10.5329 17.4809C10.3672 17.4274 10.1941 17.4001 10.0199 17.3999C9.144 17.3903 8.38832 18.0126 8.22987 18.8742C8.07142 19.7357 8.55621 20.5863 9.37826 20.8889C10.2003 21.1916 11.1209 20.8585 11.5589 20.0999H14.0069C14.445 20.8585 15.3655 21.1916 16.1876 20.8889C17.0096 20.5863 17.4944 19.7357 17.336 18.8742C17.1775 18.0126 16.4218 17.3903 15.5459 17.3999C15.3839 17.4042 15.2233 17.4314 15.0689 17.4809L14.0609 16.4999L14.7449 15.8069H17.8679C18.7008 15.8093 19.5002 15.4789 20.0884 14.8891C20.6765 14.2992 21.0047 13.4989 20.9999 12.6659V8.93997C21.0023 7.36386 20.3772 5.85162 19.2627 4.73714C18.1483 3.62267 16.636 2.99762 15.0599 3.00001ZM10.0199 19.6409C9.77142 19.6409 9.56995 19.4394 9.56995 19.1909C9.57474 18.9444 9.77343 18.7457 10.0199 18.7409C10.2685 18.7409 10.4699 18.9424 10.4699 19.1909C10.4699 19.4394 10.2685 19.6409 10.0199 19.6409ZM12.2429 18.2999L12.8009 17.7419L13.3679 18.2999H12.2429ZM15.5459 18.7229C15.7944 18.7229 15.9959 18.9244 15.9959 19.1729C15.9959 19.4214 15.7944 19.6229 15.5459 19.6229C15.2974 19.6229 15.0959 19.4214 15.0959 19.1729C15.11 18.9334 15.3061 18.7452 15.5459 18.7409V18.7229Z"
    fill="#FF6600"
  />
</svg>
