<svg width="25" height="24" viewBox="0 0 25 24" fill="none" xmlns="http://www.w3.org/2000/svg">
  <path
    d="M15.8245 3.00001H13.7275V9.246H7.13962V5.025C7.13962 4.52795 6.73668 4.125 6.23963 4.125H4.66464C4.16759 4.125 3.76465 4.52795 3.76465 5.025C3.76465 5.52205 4.16759 5.92499 4.66464 5.92499H5.33064V12.6659C5.33063 13.4958 5.6609 14.2915 6.24852 14.8774C6.83614 15.4633 7.63279 15.7913 8.46261 15.7889H11.5495L12.2695 16.4999L11.2975 17.4809C11.1318 17.4274 10.9587 17.4001 10.7845 17.3999C9.90865 17.3903 9.15297 18.0126 8.99452 18.8742C8.83607 19.7357 9.32086 20.5863 10.1429 20.8889C10.9649 21.1916 11.8855 20.8585 12.3235 20.0999H14.7715C15.2096 20.8585 16.1301 21.1916 16.9522 20.8889C17.7742 20.5863 18.259 19.7357 18.1006 18.8742C17.9421 18.0126 17.1864 17.3903 16.3105 17.3999C16.1485 17.4042 15.9879 17.4314 15.8335 17.4809L14.8255 16.4999L15.5095 15.8069H18.6325C19.4654 15.8093 20.2648 15.4789 20.853 14.8891C21.4411 14.2992 21.7694 13.4989 21.7645 12.6659V8.93997C21.7669 7.36386 21.1418 5.85162 20.0273 4.73714C18.9129 3.62267 17.4006 2.99762 15.8245 3.00001ZM10.7845 19.6409C10.5361 19.6409 10.3346 19.4394 10.3346 19.1909C10.3394 18.9444 10.5381 18.7457 10.7845 18.7409C11.0331 18.7409 11.2345 18.9424 11.2345 19.1909C11.2345 19.4394 11.0331 19.6409 10.7845 19.6409ZM16.2655 18.7499C16.514 18.7499 16.7155 18.9514 16.7155 19.1999C16.7155 19.4484 16.514 19.6499 16.2655 19.6499C16.017 19.6499 15.8155 19.4484 15.8155 19.1999C15.8151 19.0717 15.8684 18.9491 15.9624 18.8619C16.0564 18.7747 16.1827 18.7308 16.3105 18.7409L16.2655 18.7499ZM13.0075 18.2999L13.5655 17.7419L14.1325 18.2999H13.0075ZM19.9645 12.6659C19.9645 13.3966 19.3722 13.9889 18.6415 13.9889H8.47161C8.11918 13.9913 7.78035 13.853 7.5303 13.6046C7.28024 13.3563 7.13962 13.0184 7.13962 12.6659V11.046H19.9645V12.6659ZM19.9645 9.237H15.5275V4.8H15.8245C16.9225 4.8 17.9755 5.23617 18.7519 6.01257C19.5283 6.78896 19.9645 7.84198 19.9645 8.93997V9.237Z"
    fill="#FF6600"
  />
</svg>
