<svg
  width="24"
  height="24"
  viewBox="0 0 24 24"
  fill="none"
  xmlns="http://www.w3.org/2000/svg"
>
  <path
    d="M15.0599 3.00001H12.9629V9.246H6.37497V5.025C6.37497 4.52795 5.97203 4.125 5.47498 4.125H3.89999C3.40294 4.125 3 4.52795 3 5.025C3 5.52205 3.40294 5.92499 3.89999 5.92499H4.56599V12.6659C4.56598 13.4958 4.89625 14.2915 5.48387 14.8774C6.07149 15.4633 6.86814 15.7913 7.69796 15.7889H10.7849L11.5049 16.4999L10.5329 17.4809C10.3672 17.4274 10.1941 17.4001 10.0199 17.3999C9.144 17.3903 8.38832 18.0126 8.22987 18.8742C8.07142 19.7357 8.55621 20.5863 9.37826 20.8889C10.2003 21.1916 11.1209 20.8585 11.5589 20.0999H14.0069C14.445 20.8585 15.3655 21.1916 16.1876 20.8889C17.0096 20.5863 17.4944 19.7357 17.336 18.8742C17.1775 18.0126 16.4218 17.3903 15.5459 17.3999C15.3839 17.4042 15.2233 17.4314 15.0689 17.4809L14.0609 16.4999L14.7449 15.8069H17.8679C18.7008 15.8093 19.5002 15.4789 20.0884 14.8891C20.6765 14.2992 21.0047 13.4989 20.9999 12.6659V8.93997C21.0023 7.36386 20.3772 5.85162 19.2627 4.73714C18.1483 3.62267 16.636 2.99762 15.0599 3.00001ZM10.0199 19.6409C9.77142 19.6409 9.56995 19.4394 9.56995 19.1909C9.57474 18.9444 9.77343 18.7457 10.0199 18.7409C10.2685 18.7409 10.4699 18.9424 10.4699 19.1909C10.4699 19.4394 10.2685 19.6409 10.0199 19.6409ZM15.5009 18.7499C15.7494 18.7499 15.9509 18.9514 15.9509 19.1999C15.9509 19.4484 15.7494 19.6499 15.5009 19.6499C15.2524 19.6499 15.0509 19.4484 15.0509 19.1999C15.0505 19.0717 15.1038 18.9491 15.1978 18.8619C15.2918 18.7747 15.4181 18.7308 15.5459 18.7409L15.5009 18.7499ZM12.2429 18.2999L12.8009 17.7419L13.3679 18.2999H12.2429ZM19.1999 12.6659C19.1999 13.3966 18.6076 13.9889 17.8769 13.9889H7.70696C7.35453 13.9913 7.0157 13.853 6.76565 13.6046C6.51559 13.3563 6.37497 13.0184 6.37497 12.6659V11.046H19.1999V12.6659ZM19.1999 9.237H14.7629V4.8H15.0599C16.1579 4.8 17.2109 5.23617 17.9873 6.01257C18.7637 6.78896 19.1999 7.84198 19.1999 8.93997V9.237Z"
    fill="#FF6600"
  />
</svg>
