<svg
  width="24"
  height="24"
  viewBox="0 0 24 24"
  fill="none"
  xmlns="http://www.w3.org/2000/svg"
>
  <path
    fill-rule="evenodd"
    clip-rule="evenodd"
    d="M21.2827 5.59375C21.2827 7.47497 19.7577 9 17.8765 9C15.9952 9 14.4702 7.47497 14.4702 5.59375C14.4702 3.71253 15.9952 2.1875 17.8765 2.1875C19.7577 2.1875 21.2827 3.71253 21.2827 5.59375ZM19.4827 5.59375C19.4827 6.48086 18.7636 7.2 17.8765 7.2C16.9894 7.2 16.2702 6.48086 16.2702 5.59375C16.2702 4.70664 16.9894 3.9875 17.8765 3.9875C18.7636 3.9875 19.4827 4.70664 19.4827 5.59375Z"
    fill="#FF6600"
  />
  <path
    fill-rule="evenodd"
    clip-rule="evenodd"
    d="M10.436 4.77477L14.5087 12.0149L15.5887 10.4493C15.7874 10.1612 16.2131 10.1612 16.4118 10.4493L22.4595 19.2161C22.6883 19.5478 22.4509 20 22.0479 20H9.95264H9.94885H1.85522C1.4728 20 1.23195 19.5882 1.41943 19.2549L9.5645 4.77477C9.75566 4.43494 10.2449 4.43494 10.436 4.77477ZM3.73605 18.4H10.104L13.4974 13.4808L12.6298 11.9383L7.82155 11.1369L3.73605 18.4ZM11.4971 9.92473L8.76004 9.46853L10.0003 7.2636L11.4971 9.92473ZM18.1941 15.8507L19.9527 18.4H12.0478L13.0342 16.97L18.1941 15.8507ZM17.0889 14.2486L16.0003 12.6704L14.5284 14.804L17.0889 14.2486Z"
    fill="#FF6600"
  />
</svg>
