<svg
  width="24"
  height="24"
  viewBox="0 0 24 24"
  fill="none"
  xmlns="http://www.w3.org/2000/svg"
>
  <path
    d="M17.0767 11.4247L16.2463 10.9946L15.9006 9.9229C15.3767 8.2972 13.9154 7.15992 12.2582 7.15628C10.9751 7.15263 10.2659 7.52443 8.93289 8.07485C8.16305 8.39197 7.53222 8.99342 7.16156 9.7589L6.92277 10.2546C6.64478 10.8306 6.86931 11.5304 7.42886 11.8184C7.98485 12.1063 8.66202 11.8731 8.94358 11.2971L9.18237 10.8014C9.30711 10.5462 9.51382 10.3458 9.77043 10.24L10.7256 9.8464L10.1839 12.059C9.99853 12.8171 10.1982 13.6227 10.7149 14.2023L12.8498 16.5862C13.1064 16.8742 13.2882 17.2204 13.3808 17.5959L14.0331 20.2678C14.1863 20.8911 14.8065 21.2738 15.4159 21.1171C16.0254 20.9603 16.3996 20.3261 16.2463 19.7028L15.4551 16.4586C15.3624 16.0832 15.1807 15.7332 14.9241 15.4489L13.3024 13.6373L13.9154 11.1331L14.1115 11.7345C14.3004 12.3214 14.7067 12.8062 15.2413 13.0832L16.0717 13.5134C16.6277 13.8013 17.3048 13.568 17.5864 12.9921C17.8608 12.4198 17.6363 11.7127 17.0767 11.4247ZM8.91863 16.5534C8.80458 16.8486 8.63351 17.1147 8.41254 17.3371L6.63052 19.1633C6.18501 19.6189 6.18501 20.3589 6.63052 20.8145C7.07602 21.2702 7.79596 21.2702 8.24146 20.8145L10.3585 18.6493C10.5759 18.427 10.747 18.1609 10.8646 17.8656L11.3458 16.6336C9.37483 14.4356 9.96646 15.1099 9.65639 14.6762L8.91863 16.5534Z"
    fill="#FF6600"
  />
  <path
    d="M16.3438 4.84375C16.3438 5.94832 15.4483 6.84375 14.3438 6.84375C13.2392 6.84375 12.3438 5.94832 12.3438 4.84375C12.3438 3.73918 13.2392 2.84375 14.3438 2.84375C15.4483 2.84375 16.3438 3.73918 16.3438 4.84375Z"
    fill="#FF6600"
  />
</svg>
