<svg width="25" height="24" viewBox="0 0 25 24" fill="none" xmlns="http://www.w3.org/2000/svg">
  <path
    d="M21.6367 7.54134C18.6143 5.86404 15.1343 5.25161 11.719 5.79713C10.7913 5.94522 10.0519 6.6891 9.88343 7.64358L8.80565 13.741C8.2829 16.6978 12.042 20.4077 14.1829 20.7841C16.3239 21.1608 21.1282 18.957 21.6509 16.0001L22.7287 9.90274C22.8975 8.94791 22.4577 7.99684 21.6367 7.54134ZM12.3555 10.8293C12.4859 10.0922 13.1904 9.60004 13.9295 9.73014C14.6687 9.86024 15.1619 10.563 15.0318 11.3001C15.007 11.44 14.956 11.5674 14.8935 11.6873C14.6133 11.3847 14.1914 11.1523 13.6938 11.065C13.1962 10.9774 12.72 11.0515 12.3528 11.2407C12.3348 11.1065 12.3307 10.9693 12.3555 10.8293ZM14.7492 17.5806C12.8579 17.2481 11.5726 15.5674 11.7247 13.7457C12.4244 14.6133 13.634 15.314 15.1041 15.5725C16.5742 15.831 17.9512 15.5851 18.9061 15.0086C18.4244 16.7729 16.6401 17.9132 14.7492 17.5806ZM19.1751 12.44C18.8948 12.1374 18.4726 11.9051 17.975 11.8178C17.4774 11.7301 17.0012 11.8042 16.634 11.9934C16.6163 11.8595 16.6123 11.7223 16.6371 11.5824C16.7675 10.8453 17.472 10.3531 18.2111 10.4828C18.9499 10.6129 19.4434 11.3157 19.3133 12.0528C19.2885 12.1931 19.2376 12.3205 19.1751 12.44Z"
    fill="#FF6600"
  />
  <path
    d="M15.5647 4.71774C15.3033 3.92157 14.6303 3.32492 13.8101 3.19398C10.3948 2.64847 6.91484 3.26089 3.89244 4.93819C3.07146 5.39369 2.63158 6.34477 2.8004 7.29958L3.87818 13.397C4.24584 15.4767 6.73147 17.1838 8.91881 17.8826C8.40738 17.1019 8.01967 16.269 7.84138 15.4435C6.49394 14.6631 5.76877 13.7513 5.6507 13.0837L4.57292 6.98627C4.53194 6.7545 4.64601 6.57858 4.76588 6.51207C7.01849 5.26198 9.55732 4.68162 12.108 4.82004C13.271 4.68205 14.4261 4.64512 15.5647 4.71774Z"
    fill="#FF6600"
  />
  <path
    d="M8.93655 8.60463C8.91176 8.46469 8.86081 8.33731 8.79831 8.21741C8.51808 8.52005 8.09621 8.75239 7.59859 8.83968C7.10097 8.92732 6.62475 8.85327 6.25756 8.66407C6.2399 8.7979 6.23582 8.93513 6.26061 9.07506C6.39105 9.81216 7.09553 10.3044 7.83466 10.1746C8.57344 10.0449 9.06699 9.34176 8.93655 8.60463Z"
    fill="#FF6600"
  />
</svg>
