<svg
  width="24"
  height="24"
  viewBox="0 0 24 24"
  fill="none"
  xmlns="http://www.w3.org/2000/svg"
>
  <path
    d="M14.8001 4.71774C14.5387 3.92157 13.8657 3.32492 13.0455 3.19398C9.63012 2.64847 6.15019 3.26089 3.12779 4.93819C2.30681 5.39369 1.86693 6.34477 2.03575 7.29958L3.11353 13.397C3.48119 15.4767 5.96682 17.1838 8.15416 17.8826C7.64273 17.1019 7.25502 16.269 7.07673 15.4435C5.72929 14.6631 5.00412 13.7513 4.88605 13.0837L3.80827 6.98627C3.76729 6.7545 3.88136 6.57858 4.00123 6.51207C6.25384 5.26198 8.79267 4.68162 11.3434 4.82004C12.5064 4.68205 13.6615 4.64512 14.8001 4.71774Z"
    fill="#FF6600"
  />
  <path
    d="M8.1719 8.60457C8.14711 8.46463 8.09616 8.33725 8.03366 8.21735C7.75343 8.51999 7.33156 8.75233 6.83394 8.83962C6.33632 8.92726 5.8601 8.85321 5.49291 8.66401C5.47525 8.79784 5.47118 8.93507 5.49597 9.075C5.62641 9.8121 6.33088 10.3043 7.07001 10.1745C7.80879 10.0448 8.30234 9.3417 8.1719 8.60457Z"
    fill="#FF6600"
  />
  <path
    fill-rule="evenodd"
    clip-rule="evenodd"
    d="M20.0957 8.94041C17.3864 7.43683 14.2687 6.88811 11.2067 7.37716C10.9813 7.41316 10.7495 7.60995 10.6944 7.92176L9.61658 14.0196C9.48133 14.7846 9.90876 15.9687 10.9501 17.1943C11.4353 17.7654 11.987 18.2615 12.5124 18.6254C13.0613 19.0055 13.4782 19.1701 13.6954 19.2083C13.9127 19.2466 14.3614 19.2341 15.0079 19.064C15.6266 18.9013 16.3154 18.6231 16.9675 18.2519C18.3668 17.4551 19.1754 16.4874 19.3108 15.7217L20.3886 9.6243C20.4438 9.3122 20.2935 9.0501 20.0957 8.94041ZM20.8864 16.0002C20.3636 18.9571 15.5593 21.1609 13.4184 20.7842C11.2774 20.4078 7.51825 16.6979 8.041 13.7411L9.11878 7.64364C9.28726 6.68917 10.0267 5.94529 10.9544 5.79719C14.3698 5.25168 17.8497 5.86411 20.8721 7.5414C21.6931 7.9969 22.133 8.94798 21.9641 9.9028L20.8864 16.0002Z"
    fill="#FF6600"
  />
  <path
    d="M11.5908 10.8294C11.7212 10.0924 12.4257 9.60019 13.1648 9.73029C13.9039 9.86039 14.3971 10.5631 14.267 11.3002C14.2422 11.4402 14.1913 11.5675 14.1288 11.6874C13.8486 11.3848 13.4267 11.1525 12.9291 11.0652C12.4315 10.9775 11.9552 11.0516 11.5881 11.2408C11.5701 11.1066 11.566 10.9694 11.5908 10.8294ZM13.9844 17.5807C12.0932 17.2482 10.8078 15.5675 10.96 13.7459C11.6597 14.6134 12.8693 15.3141 14.3394 15.5726C15.8095 15.8311 17.1865 15.5852 18.1413 15.0088C17.6597 16.773 15.8754 17.9133 13.9844 17.5807ZM18.4104 12.4402C18.1301 12.1375 17.7079 11.9052 17.2103 11.8179C16.7127 11.7302 16.2365 11.8043 15.8693 11.9935C15.8516 11.8597 15.8475 11.7224 15.8723 11.5825C16.0028 10.8454 16.7072 10.3532 17.4464 10.483C18.1852 10.6131 18.6787 11.3158 18.5486 12.0529C18.5238 12.1932 18.4729 12.3206 18.4104 12.4402Z"
    fill="#FF6600"
  />
</svg>
