<svg width="25" height="24" viewBox="0 0 25 24" fill="none" xmlns="http://www.w3.org/2000/svg">
  <path
    d="M10.2646 8C10.2646 8.55228 9.81693 9 9.26465 9C8.71237 9 8.26465 8.55228 8.26465 8C8.26465 7.44772 8.71237 7 9.26465 7C9.81693 7 10.2646 7.44772 10.2646 8Z"
    fill="#FF6600"
  />
  <path
    d="M6.76465 11C7.31693 11 7.76465 10.5523 7.76465 10C7.76465 9.4477 7.31693 9 6.76465 9C6.21237 9 5.76465 9.4477 5.76465 10C5.76465 10.5523 6.21237 11 6.76465 11Z"
    fill="#FF6600"
  />
  <path
    d="M11.7646 11C12.3169 11 12.7646 10.5523 12.7646 10C12.7646 9.4477 12.3169 9 11.7646 9C11.2123 9 10.7646 9.4477 10.7646 10C10.7646 10.5523 11.2123 11 11.7646 11Z"
    fill="#FF6600"
  />
  <path
    fill-rule="evenodd"
    clip-rule="evenodd"
    d="M2.76465 9.8757C2.76465 9.3175 2.99793 8.78465 3.40809 8.40604L7.90809 4.25219C8.67421 3.545 9.85509 3.545 10.6212 4.2522L15.1212 8.40604C15.5313 8.78466 15.7646 9.3175 15.7646 9.8757V12.6001L17.3275 9.7868C17.518 9.4439 18.0112 9.4439 18.2017 9.7868L22.3519 17.2572C22.5371 17.5905 22.2961 18 21.9149 18H18.7647V20C18.7647 20.5523 18.3169 21 17.7647 21C17.2124 21 16.7647 20.5523 16.7647 20V18H15.7646V19C15.7646 20.1046 14.8692 21 13.7646 21H4.76465C3.66008 21 2.76465 20.1046 2.76465 19V9.8757ZM15.7646 16.4H20.0454L17.7646 12.2946L15.7646 15.8947V16.4ZM14.1646 9.8757V12.8016H4.36465V9.8757C4.36465 9.764 4.41131 9.6575 4.49334 9.5817L8.99334 5.42788C9.14656 5.28644 9.38274 5.28644 9.53596 5.42788L14.0359 9.5817C14.1179 9.6575 14.1646 9.764 14.1646 9.8757ZM4.36465 19V14.6016H14.1646V19C14.1646 19.2209 13.9855 19.4 13.7646 19.4H4.76465C4.54374 19.4 4.36465 19.2209 4.36465 19Z"
    fill="#FF6600"
  />
  <path
    d="M17.944 4.36344C17.8706 4.21479 17.6587 4.21479 17.5853 4.36344L16.9295 5.69223C16.9004 5.75126 16.8441 5.79217 16.7789 5.80164L15.3125 6.01472C15.1485 6.03856 15.083 6.24015 15.2017 6.35586L16.2628 7.39017C16.3099 7.43612 16.3314 7.50232 16.3203 7.5672L16.0698 9.0277C16.0418 9.1911 16.2133 9.3157 16.36 9.2385L17.6716 8.54897C17.7299 8.51834 17.7995 8.51834 17.8577 8.54897L19.1693 9.2385C19.316 9.3157 19.4875 9.1911 19.4595 9.0277L19.209 7.5672C19.1979 7.50232 19.2194 7.43612 19.2665 7.39017L20.3276 6.35586C20.4463 6.24015 20.3808 6.03856 20.2168 6.01472L18.7504 5.80164C18.6852 5.79217 18.6289 5.75126 18.5998 5.69223L17.944 4.36344Z"
    fill="#FF6600"
  />
</svg>
