<svg width="25" height="24" viewBox="0 0 25 24" fill="none" xmlns="http://www.w3.org/2000/svg">
  <path
    fill-rule="evenodd"
    clip-rule="evenodd"
    d="M17.4592 9.6631C18.3821 9.4208 19.6055 8.78645 20.4914 7.99076C20.935 7.59232 21.3502 7.10386 21.573 6.54624C21.8083 5.95733 21.8275 5.28059 21.4381 4.64294C20.716 3.45614 19.4919 3.0496 18.4145 2.96686C17.3383 2.8842 16.27 3.10692 15.5961 3.32592L15.5816 3.33078C14.8585 3.58116 13.778 4.272 12.9383 4.84262C12.5003 5.14031 12.0969 5.42703 11.7946 5.64464C11.6682 5.73561 11.5588 5.81495 11.4726 5.87749L11.4248 5.91219C11.367 5.95406 11.331 5.97999 11.3109 5.99448C11.2934 6.00706 11.2878 6.01103 11.2906 6.00928C10.9247 6.24359 10.8127 6.72712 11.0383 7.09844L12.9491 10.2427C13.1561 10.5835 13.5825 10.7197 13.9488 10.5622C14.3529 10.3884 14.9 10.2444 15.5384 10.1001C15.7275 10.0574 15.9264 10.0143 16.129 9.9704C16.5768 9.8733 17.0426 9.7724 17.4592 9.6631ZM20.0724 5.47656C20.1537 5.6096 20.1704 5.74443 20.0872 5.95255C19.9914 6.1922 19.7719 6.4864 19.4223 6.8004C18.7217 7.42961 17.7245 7.93927 17.053 8.11552C16.67 8.21603 16.2634 8.30405 15.8351 8.39677C15.6238 8.44251 15.4073 8.48938 15.1857 8.53947C14.7838 8.63029 14.3677 8.73131 13.9767 8.85281L12.7898 6.89971C13.0777 6.69297 13.4441 6.43336 13.8376 6.16597C14.7132 5.57093 15.611 5.01611 16.0983 4.8451C16.64 4.67008 17.4878 4.50039 18.292 4.56216C19.0987 4.62412 19.7226 4.90117 20.0715 5.475L20.0724 5.47656Z"
    fill="#FF6600"
  />
  <path
    fill-rule="evenodd"
    clip-rule="evenodd"
    d="M11.5697 12.0642C11.9433 11.83 12.057 11.3377 11.8239 10.9634L9.76157 7.65208C9.53955 7.29561 9.07969 7.17149 8.70847 7.36783C8.72341 7.35993 8.62974 7.40738 8.54636 7.45345C8.4518 7.5057 8.32767 7.57835 8.1888 7.67091C7.91675 7.85223 7.56207 8.12708 7.26478 8.4971C6.96556 8.86952 6.69616 9.37516 6.67471 9.99816C6.65294 10.6307 6.8906 11.2677 7.38997 11.8861C7.96695 12.6089 8.74587 12.8617 9.5196 12.8089C10.2514 12.759 10.9678 12.4415 11.5697 12.0642ZM8.51207 9.49926C8.60774 9.38016 8.71856 9.27446 8.83015 9.18306L10.0059 11.071C9.79042 11.1525 9.58957 11.2004 9.41063 11.2126C9.0878 11.2347 8.84635 11.1464 8.6396 10.8869L8.63589 10.8822C8.32018 10.4918 8.26804 10.2195 8.27376 10.0533C8.27984 9.87676 8.35589 9.69366 8.51207 9.49926Z"
    fill="#FF6600"
  />
  <path
    fill-rule="evenodd"
    clip-rule="evenodd"
    d="M16.0028 12.7186C14.8121 12.7086 13.4752 13.0429 12.623 13.4722C12.2385 13.666 11.8226 13.8986 11.4227 14.1223C11.2418 14.2235 11.064 14.323 10.894 14.4161C10.3201 14.7305 9.81461 14.9847 9.39666 15.122C9.01786 15.2464 8.78848 15.6307 8.85883 16.0232L9.50797 19.6448C9.58463 20.0725 9.98864 20.3608 10.418 20.2942C10.4148 20.2947 10.4214 20.2941 10.4427 20.2919L10.4438 20.2918C10.4687 20.2893 10.5127 20.2849 10.5828 20.2782L10.6417 20.2725C10.7477 20.2623 10.8821 20.2494 11.037 20.2339C11.4077 20.1969 11.8998 20.1448 12.4252 20.078C13.4323 19.9499 14.6995 19.7525 15.4073 19.4615L15.4214 19.4555C16.0715 19.1736 17.0196 18.6334 17.7716 17.859C18.5244 17.0839 19.1728 15.9688 18.9285 14.6013C18.7983 13.8656 18.3359 13.371 17.7697 13.0854C17.2336 12.8149 16.5991 12.7236 16.0028 12.7186ZM17.0491 14.5139C17.2492 14.6148 17.3259 14.7269 17.353 14.8804L17.3533 14.8822C17.4716 15.5433 17.1874 16.1639 16.6238 16.7444C16.0619 17.323 15.314 17.757 14.7922 17.9844C14.3137 18.1788 13.2736 18.3572 12.2233 18.4908C11.7514 18.5508 11.3049 18.5988 10.9523 18.6344L10.5491 16.3848C10.9225 16.217 11.3013 16.0173 11.6626 15.8194C11.8619 15.7102 12.0552 15.602 12.2438 15.4965C12.6263 15.2825 12.9893 15.0793 13.3429 14.9011C13.9629 14.5887 15.0478 14.3106 15.9894 14.3185C16.4593 14.3224 16.8187 14.3976 17.0491 14.5139Z"
    fill="#FF6600"
  />
  <path
    fill-rule="evenodd"
    clip-rule="evenodd"
    d="M6.61911 15.5711C7.05415 15.4993 7.46523 15.7931 7.53826 16.2279L8.18434 20.0751C8.25389 20.4892 7.99136 20.8866 7.58313 20.9852C7.59956 20.9812 7.49794 21.0077 7.40496 21.0283C7.29949 21.0518 7.15836 21.0795 6.993 21.102C6.66906 21.1462 6.22127 21.175 5.75351 21.0944C5.2827 21.0133 4.74607 20.8127 4.31758 20.3598C3.88257 19.9002 3.63906 19.2654 3.60405 18.4713C3.55807 17.5476 3.97454 16.8425 4.58945 16.3699C5.17102 15.923 5.91821 15.6867 6.61911 15.5711ZM6.02506 19.5176C6.1756 19.5435 6.32864 19.5494 6.47275 19.544L6.10441 17.3507C5.88892 17.4322 5.70664 17.5293 5.56442 17.6386C5.30786 17.8357 5.18529 18.0617 5.20214 18.3931L5.20242 18.399C5.22421 18.9007 5.36542 19.1393 5.47972 19.2601C5.60106 19.3883 5.77931 19.4753 6.02506 19.5176Z"
    fill="#FF6600"
  />
</svg>
