<svg width="25" height="24" viewBox="0 0 25 24" fill="none" xmlns="http://www.w3.org/2000/svg">
  <path
    d="M17.8413 11.4247L17.0109 10.9946L16.6652 9.9229C16.1413 8.2972 14.68 7.15992 13.0228 7.15628C11.7397 7.15263 11.0305 7.52443 9.69754 8.07485C8.9277 8.39197 8.29687 8.99342 7.92621 9.7589L7.68742 10.2546C7.40943 10.8306 7.63396 11.5304 8.19351 11.8184C8.7495 12.1063 9.42667 11.8731 9.70823 11.2971L9.94702 10.8014C10.0718 10.5462 10.2785 10.3458 10.5351 10.24L11.4902 9.8464L10.9485 12.059C10.7632 12.8171 10.9628 13.6227 11.4795 14.2023L13.6144 16.5862C13.871 16.8742 14.0528 17.2204 14.1454 17.5959L14.7977 20.2678C14.9509 20.8911 15.5711 21.2738 16.1805 21.1171C16.79 20.9603 17.1642 20.3261 17.0109 19.7028L16.2197 16.4586C16.127 16.0832 15.9453 15.7332 15.6887 15.4489L14.067 13.6373L14.68 11.1331L14.8761 11.7345C15.065 12.3214 15.4713 12.8062 16.0059 13.0832L16.8363 13.5134C17.3923 13.8013 18.0694 13.568 18.351 12.9921C18.6254 12.4198 18.4009 11.7127 17.8413 11.4247ZM9.68328 16.5534C9.56923 16.8486 9.39816 17.1147 9.17719 17.3371L7.39517 19.1633C6.94966 19.6189 6.94966 20.3589 7.39517 20.8145C7.84067 21.2702 8.56061 21.2702 9.00611 20.8145L11.1231 18.6493C11.3405 18.427 11.5116 18.1609 11.6292 17.8656L12.1104 16.6336C10.1395 14.4356 10.7311 15.1099 10.421 14.6762L9.68328 16.5534Z"
    fill="#FF6600"
  />
  <path
    d="M17.1084 4.84375C17.1084 5.94832 16.2129 6.84375 15.1084 6.84375C14.0038 6.84375 13.1084 5.94832 13.1084 4.84375C13.1084 3.73918 14.0038 2.84375 15.1084 2.84375C16.2129 2.84375 17.1084 3.73918 17.1084 4.84375Z"
    fill="#FF6600"
  />
</svg>
