<svg
  width="24"
  height="24"
  viewBox="0 0 24 24"
  fill="none"
  xmlns="http://www.w3.org/2000/svg"
>
  <path
    d="M20.8721 7.5414C17.8497 5.8641 14.3697 5.25167 10.9544 5.79719C10.0267 5.94528 9.28725 6.68916 9.11878 7.64364L8.041 13.7411C7.51825 16.6979 11.2774 20.4078 13.4183 20.7842C15.5593 21.1609 20.3636 18.9571 20.8863 16.0002L21.9641 9.9028C22.1329 8.94797 21.6931 7.9969 20.8721 7.5414ZM11.5909 10.8294C11.7213 10.0923 12.4258 9.6001 13.1649 9.7302C13.9041 9.8603 14.3973 10.5631 14.2672 11.3002C14.2424 11.4401 14.1914 11.5675 14.1289 11.6874C13.8487 11.3848 13.4268 11.1524 12.9292 11.0651C12.4316 10.9775 11.9554 11.0516 11.5882 11.2408C11.5702 11.1066 11.5661 10.9694 11.5909 10.8294ZM13.9846 17.5807C12.0933 17.2482 10.808 15.5675 10.9601 13.7458C11.6598 14.6134 12.8694 15.3141 14.3395 15.5726C15.8096 15.8311 17.1866 15.5852 18.1415 15.0087C17.6598 16.773 15.8755 17.9133 13.9846 17.5807ZM18.4105 12.4401C18.1302 12.1375 17.708 11.9052 17.2104 11.8179C16.7128 11.7302 16.2366 11.8043 15.8694 11.9935C15.8517 11.8596 15.8477 11.7224 15.8725 11.5825C16.0029 10.8454 16.7074 10.3532 17.4465 10.4829C18.1853 10.613 18.6788 11.3158 18.5487 12.0529C18.5239 12.1932 18.473 12.3206 18.4105 12.4401Z"
    fill="#FF6600"
  />
  <path
    d="M14.8001 4.71774C14.5387 3.92157 13.8657 3.32492 13.0455 3.19398C9.63012 2.64847 6.15019 3.26089 3.12779 4.93819C2.30681 5.39369 1.86693 6.34477 2.03575 7.29958L3.11353 13.397C3.48119 15.4767 5.96682 17.1838 8.15416 17.8826C7.64273 17.1019 7.25502 16.269 7.07673 15.4435C5.72929 14.6631 5.00412 13.7513 4.88605 13.0837L3.80827 6.98627C3.76729 6.7545 3.88136 6.57858 4.00123 6.51207C6.25384 5.26198 8.79267 4.68162 11.3434 4.82004C12.5064 4.68205 13.6615 4.64512 14.8001 4.71774Z"
    fill="#FF6600"
  />
  <path
    d="M8.1719 8.60457C8.14711 8.46463 8.09616 8.33725 8.03366 8.21735C7.75343 8.51999 7.33156 8.75233 6.83394 8.83962C6.33632 8.92726 5.8601 8.85321 5.49291 8.66401C5.47525 8.79784 5.47118 8.93507 5.49597 9.075C5.62641 9.8121 6.33088 10.3043 7.07001 10.1745C7.80879 10.0448 8.30234 9.3417 8.1719 8.60457Z"
    fill="#FF6600"
  />
</svg>
