<svg
  width="24"
  height="24"
  viewBox="0 0 24 24"
  fill="none"
  xmlns="http://www.w3.org/2000/svg"
>
  <path
    d="M9.5 8C9.5 8.55228 9.05228 9 8.5 9C7.94772 9 7.5 8.55228 7.5 8C7.5 7.44772 7.94772 7 8.5 7C9.05228 7 9.5 7.44772 9.5 8Z"
    fill="#FF6600"
  />
  <path
    d="M6 11C6.55228 11 7 10.5523 7 10C7 9.4477 6.55228 9 6 9C5.44772 9 5 9.4477 5 10C5 10.5523 5.44772 11 6 11Z"
    fill="#FF6600"
  />
  <path
    d="M11 11C11.5523 11 12 10.5523 12 10C12 9.4477 11.5523 9 11 9C10.4477 9 10 9.4477 10 10C10 10.5523 10.4477 11 11 11Z"
    fill="#FF6600"
  />
  <path
    fill-rule="evenodd"
    clip-rule="evenodd"
    d="M2 9.8757C2 9.3175 2.23328 8.78465 2.64344 8.40604L7.14344 4.25219C7.90956 3.545 9.09044 3.545 9.85656 4.2522L14.3566 8.40604C14.7667 8.78466 15 9.3175 15 9.8757V12.6001L16.5629 9.7868C16.7534 9.4439 17.2466 9.4439 17.4371 9.7868L21.5873 17.2572C21.7725 17.5905 21.5315 18 21.1503 18H18.0001V20C18.0001 20.5523 17.5523 21 17.0001 21C16.4478 21 16.0001 20.5523 16.0001 20V18H15V19C15 20.1046 14.1046 21 13 21H4C2.89543 21 2 20.1046 2 19V9.8757ZM15 16.4H19.2808L17 12.2946L15 15.8947V16.4ZM13.4 9.8757V12.8016H3.6V9.8757C3.6 9.764 3.64666 9.6575 3.72869 9.5817L8.22869 5.42788C8.38191 5.28644 8.61809 5.28644 8.77131 5.42788L13.2713 9.5817C13.3533 9.6575 13.4 9.764 13.4 9.8757ZM3.6 19V14.6016H13.4V19C13.4 19.2209 13.2209 19.4 13 19.4H4C3.77909 19.4 3.6 19.2209 3.6 19Z"
    fill="#FF6600"
  />
  <path
    d="M17.1794 4.36344C17.106 4.21479 16.8941 4.21479 16.8207 4.36344L16.1649 5.69223C16.1358 5.75126 16.0795 5.79217 16.0143 5.80164L14.5479 6.01472C14.3839 6.03856 14.3184 6.24015 14.4371 6.35586L15.4982 7.39017C15.5453 7.43612 15.5668 7.50232 15.5557 7.5672L15.3052 9.0277C15.2772 9.1911 15.4487 9.3157 15.5954 9.2385L16.907 8.54897C16.9653 8.51834 17.0349 8.51834 17.0931 8.54897L18.4047 9.2385C18.5514 9.3157 18.7229 9.1911 18.6949 9.0277L18.4444 7.5672C18.4333 7.50232 18.4548 7.43612 18.5019 7.39017L19.563 6.35586C19.6817 6.24015 19.6162 6.03856 19.4522 6.01472L17.9858 5.80164C17.9206 5.79217 17.8643 5.75126 17.8352 5.69223L17.1794 4.36344Z"
    fill="#FF6600"
  />
</svg>
