<svg width="25" height="24" viewBox="0 0 25 24" fill="none" xmlns="http://www.w3.org/2000/svg">
  <path
    fill-rule="evenodd"
    clip-rule="evenodd"
    d="M22.0474 5.59375C22.0474 7.47497 20.5224 9 18.6412 9C16.7599 9 15.2349 7.47497 15.2349 5.59375C15.2349 3.71253 16.7599 2.1875 18.6412 2.1875C20.5224 2.1875 22.0474 3.71253 22.0474 5.59375ZM20.2474 5.59375C20.2474 6.48086 19.5283 7.2 18.6412 7.2C17.7541 7.2 17.0349 6.48086 17.0349 5.59375C17.0349 4.70664 17.7541 3.9875 18.6412 3.9875C19.5283 3.9875 20.2474 4.70664 20.2474 5.59375Z"
    fill="#FF6600"
  />
  <path
    fill-rule="evenodd"
    clip-rule="evenodd"
    d="M11.2007 4.77477L15.2734 12.0149L16.3534 10.4493C16.5521 10.1612 16.9778 10.1612 17.1765 10.4493L23.2241 19.2161C23.4529 19.5478 23.2155 20 22.8125 20H10.7173H10.7135H2.61987C2.23745 20 1.9966 19.5882 2.18408 19.2549L10.3292 4.77477C10.5203 4.43494 11.0096 4.43494 11.2007 4.77477ZM4.5007 18.4H10.8687L14.2621 13.4808L13.3945 11.9383L8.5862 11.1369L4.5007 18.4ZM12.2618 9.92473L9.52469 9.46853L10.765 7.2636L12.2618 9.92473ZM18.9587 15.8507L20.7174 18.4H12.8125L13.7989 16.97L18.9587 15.8507ZM17.8535 14.2486L16.7649 12.6704L15.2931 14.804L17.8535 14.2486Z"
    fill="#FF6600"
  />
</svg>
