<svg
  width="24"
  height="24"
  viewBox="0 0 24 24"
  fill="none"
  xmlns="http://www.w3.org/2000/svg"
>
  <path
    fill-rule="evenodd"
    clip-rule="evenodd"
    d="M16.6945 9.6631C17.6174 9.4208 18.8408 8.78645 19.7267 7.99076C20.1703 7.59232 20.5855 7.10386 20.8083 6.54624C21.0436 5.95733 21.0628 5.28059 20.6734 4.64294C19.9513 3.45614 18.7272 3.0496 17.6498 2.96686C16.5736 2.8842 15.5053 3.10692 14.8314 3.32592L14.8169 3.33078C14.0938 3.58116 13.0133 4.272 12.1736 4.84262C11.7356 5.14031 11.3322 5.42703 11.0299 5.64464C10.9035 5.73561 10.7941 5.81495 10.7079 5.87749L10.6601 5.91219C10.6023 5.95406 10.5663 5.97999 10.5462 5.99448C10.5287 6.00706 10.5231 6.01103 10.5259 6.00928C10.16 6.24359 10.048 6.72712 10.2736 7.09844L12.1844 10.2427C12.3914 10.5835 12.8178 10.7197 13.1841 10.5622C13.5882 10.3884 14.1353 10.2444 14.7737 10.1001C14.9628 10.0574 15.1617 10.0143 15.3643 9.9704C15.8121 9.8733 16.2779 9.7724 16.6945 9.6631ZM19.3077 5.47656C19.389 5.6096 19.4057 5.74443 19.3225 5.95255C19.2267 6.1922 19.0072 6.4864 18.6576 6.8004C17.957 7.42961 16.9598 7.93927 16.2883 8.11552C15.9053 8.21603 15.4987 8.30405 15.0704 8.39677C14.8591 8.44251 14.6426 8.48938 14.421 8.53947C14.0191 8.63029 13.603 8.73131 13.212 8.85281L12.0251 6.89971C12.313 6.69297 12.6794 6.43336 13.0729 6.16597C13.9485 5.57093 14.8463 5.01611 15.3336 4.8451C15.8753 4.67008 16.7231 4.50039 17.5273 4.56216C18.334 4.62412 18.9579 4.90117 19.3068 5.475L19.3077 5.47656Z"
    fill="#FF6600"
  />
  <path
    fill-rule="evenodd"
    clip-rule="evenodd"
    d="M10.805 12.0641C11.1786 11.8299 11.2923 11.3376 11.0592 10.9633L8.99692 7.65202C8.7749 7.29555 8.31504 7.17143 7.94382 7.36777C7.95876 7.35987 7.86509 7.40732 7.78171 7.45339C7.68715 7.50564 7.56302 7.57829 7.42415 7.67085C7.1521 7.85217 6.79742 8.12702 6.50013 8.49704C6.20091 8.86946 5.93151 9.3751 5.91006 9.9981C5.88829 10.6306 6.12595 11.2676 6.62532 11.886C7.2023 12.6088 7.98122 12.8616 8.75495 12.8088C9.48672 12.7589 10.2031 12.4414 10.805 12.0641ZM7.74742 9.4992C7.84309 9.3801 7.95391 9.2744 8.0655 9.183L9.24127 11.0709C9.02577 11.1524 8.82492 11.2003 8.64598 11.2125C8.32315 11.2346 8.0817 11.1463 7.87495 10.8868L7.87124 10.8821C7.55553 10.4917 7.50339 10.2194 7.50911 10.0532C7.51519 9.8767 7.59124 9.6936 7.74742 9.4992Z"
    fill="#FF6600"
  />
  <path
    fill-rule="evenodd"
    clip-rule="evenodd"
    d="M15.2382 12.7186C14.0475 12.7086 12.7105 13.0429 11.8584 13.4722C11.4738 13.666 11.058 13.8986 10.6581 14.1223C10.4772 14.2235 10.2994 14.323 10.1294 14.4161C9.55542 14.7305 9.04996 14.9847 8.63201 15.122C8.25321 15.2464 8.02383 15.6307 8.09418 16.0232L8.74332 19.6448C8.81998 20.0725 9.22399 20.3608 9.65336 20.2942C9.65016 20.2947 9.6568 20.2941 9.67804 20.2919L9.6792 20.2918C9.70404 20.2893 9.74802 20.2849 9.8182 20.2782L9.87703 20.2725C9.98306 20.2623 10.1175 20.2494 10.2724 20.2339C10.6431 20.1969 11.1352 20.1448 11.6606 20.078C12.6677 19.9499 13.9349 19.7525 14.6427 19.4615L14.6568 19.4555C15.3069 19.1736 16.255 18.6334 17.007 17.859C17.7598 17.0839 18.4082 15.9688 18.1639 14.6013C18.0336 13.8656 17.5713 13.371 17.0051 13.0854C16.4689 12.8149 15.8345 12.7236 15.2382 12.7186ZM16.2844 14.5139C16.4845 14.6148 16.5613 14.7269 16.5884 14.8804L16.5887 14.8822C16.707 15.5433 16.4228 16.1639 15.8592 16.7444C15.2973 17.323 14.5494 17.757 14.0276 17.9844C13.5491 18.1788 12.5089 18.3572 11.4587 18.4908C10.9868 18.5508 10.5403 18.5988 10.1877 18.6344L9.78449 16.3848C10.1579 16.217 10.5367 16.0173 10.898 15.8194C11.0973 15.7102 11.2906 15.602 11.4792 15.4965C11.8616 15.2825 12.2247 15.0793 12.5783 14.9011C13.1983 14.5887 14.2832 14.3106 15.2248 14.3185C15.6947 14.3224 16.054 14.3976 16.2844 14.5139Z"
    fill="#FF6600"
  />
  <path
    fill-rule="evenodd"
    clip-rule="evenodd"
    d="M5.85446 15.5711C6.2895 15.4993 6.70058 15.7931 6.77361 16.2279L7.41969 20.0751C7.48924 20.4892 7.22671 20.8866 6.81848 20.9852C6.83491 20.9812 6.73329 21.0077 6.64031 21.0283C6.53484 21.0518 6.39371 21.0795 6.22835 21.102C5.90441 21.1462 5.45662 21.175 4.98886 21.0944C4.51805 21.0133 3.98142 20.8127 3.55293 20.3598C3.11792 19.9002 2.87441 19.2654 2.8394 18.4713C2.79342 17.5476 3.20989 16.8425 3.8248 16.3699C4.40637 15.923 5.15356 15.6867 5.85446 15.5711ZM5.26041 19.5176C5.41095 19.5435 5.56399 19.5494 5.7081 19.544L5.33976 17.3507C5.12427 17.4322 4.94199 17.5293 4.79977 17.6386C4.54321 17.8357 4.42064 18.0617 4.43749 18.3931L4.43777 18.399C4.45956 18.9007 4.60077 19.1393 4.71507 19.2601C4.83641 19.3883 5.01466 19.4753 5.26041 19.5176Z"
    fill="#FF6600"
  />
</svg>
