<svg width="25" height="24" viewBox="0 0 25 24" fill="none" xmlns="http://www.w3.org/2000/svg">
  <path
    d="M15.5647 4.71774C15.3033 3.92157 14.6303 3.32492 13.8101 3.19398C10.3948 2.64847 6.91484 3.26089 3.89244 4.93819C3.07146 5.39369 2.63158 6.34477 2.8004 7.29958L3.87818 13.397C4.24584 15.4767 6.73147 17.1838 8.91881 17.8826C8.40738 17.1019 8.01967 16.269 7.84138 15.4435C6.49394 14.6631 5.76877 13.7513 5.6507 13.0837L4.57292 6.98627C4.53194 6.7545 4.64601 6.57858 4.76588 6.51207C7.01849 5.26198 9.55732 4.68162 12.108 4.82004C13.271 4.68205 14.4261 4.64512 15.5647 4.71774Z"
    fill="#FF6600"
  />
  <path
    d="M8.93655 8.60463C8.91176 8.46469 8.86081 8.33731 8.79831 8.21741C8.51808 8.52005 8.09621 8.75239 7.59859 8.83968C7.10097 8.92732 6.62475 8.85327 6.25756 8.66407C6.2399 8.7979 6.23582 8.93513 6.26061 9.07506C6.39105 9.81216 7.09553 10.3044 7.83466 10.1746C8.57344 10.0449 9.06699 9.34176 8.93655 8.60463Z"
    fill="#FF6600"
  />
  <path
    fill-rule="evenodd"
    clip-rule="evenodd"
    d="M20.8603 8.94047C18.151 7.43689 15.0333 6.88817 11.9713 7.37722C11.7459 7.41322 11.5141 7.61001 11.459 7.92182L10.3812 14.0197C10.246 14.7847 10.6734 15.9688 11.7147 17.1944C12.1999 17.7655 12.7516 18.2616 13.277 18.6255C13.8259 19.0056 14.2428 19.1702 14.46 19.2084C14.6773 19.2467 15.126 19.2342 15.7725 19.0641C16.3912 18.9014 17.08 18.6232 17.7321 18.252C19.1314 17.4552 19.94 16.4875 20.0754 15.7218L21.1532 9.62436C21.2084 9.31226 21.0581 9.05016 20.8603 8.94047ZM21.651 16.0003C21.1282 18.9572 16.3239 21.161 14.183 20.7843C12.042 20.4079 8.2829 16.698 8.80565 13.7412L9.88343 7.6437C10.0519 6.68923 10.7913 5.94535 11.719 5.79725C15.1344 5.25174 18.6143 5.86417 21.6367 7.54146C22.4577 7.99696 22.8976 8.94804 22.7287 9.90286L21.651 16.0003Z"
    fill="#FF6600"
  />
  <path
    d="M12.3554 10.8294C12.4858 10.0924 13.1903 9.60022 13.9294 9.73032C14.6685 9.86042 15.1617 10.5631 15.0316 11.3002C15.0068 11.4402 14.9559 11.5675 14.8934 11.6874C14.6132 11.3848 14.1913 11.1525 13.6937 11.0652C13.1961 10.9775 12.7198 11.0516 12.3527 11.2408C12.3347 11.1066 12.3306 10.9694 12.3554 10.8294ZM14.749 17.5807C12.8578 17.2482 11.5724 15.5675 11.7246 13.7459C12.4243 14.6134 13.6339 15.3141 15.104 15.5726C16.5741 15.8311 17.9511 15.5852 18.9059 15.0088C18.4243 16.773 16.64 17.9133 14.749 17.5807ZM19.175 12.4402C18.8947 12.1375 18.4725 11.9052 17.9749 11.8179C17.4773 11.7302 17.0011 11.8043 16.6339 11.9935C16.6162 11.8597 16.6121 11.7224 16.6369 11.5825C16.7674 10.8454 17.4718 10.3532 18.211 10.483C18.9498 10.6131 19.4433 11.3158 19.3132 12.0529C19.2884 12.1932 19.2375 12.3206 19.175 12.4402Z"
    fill="#FF6600"
  />
</svg>
