<svg width="25" height="24" viewBox="0 0 25 24" fill="none" xmlns="http://www.w3.org/2000/svg">
  <path
    d="M13.0104 3C9.56657 3 6.76465 5.80171 6.76465 9.2458C6.76465 11.5372 8.03702 13.6508 10.0393 14.7432V16.0338C10.0393 16.3931 10.3306 16.6844 10.6899 16.6844H15.3094C15.6687 16.6844 15.96 16.3931 15.96 16.0338V14.7449C17.9756 13.6569 19.2562 11.5424 19.2562 9.2458C19.2562 5.80171 16.4543 3 13.0104 3ZM15.0396 13.7501C14.8076 13.8557 14.6586 14.0871 14.6586 14.3422V15.3832H11.3405V14.3422C11.3405 14.0882 11.1926 13.8573 10.9621 13.7512C9.2027 12.9408 8.06585 11.1722 8.06585 9.2458C8.06585 6.51932 10.284 4.3012 13.0104 4.3012C15.7369 4.3012 17.955 6.51932 17.955 9.2458C17.955 11.1753 16.8106 12.9434 15.0396 13.7501Z"
    fill="#FF6600"
  />
  <path
    d="M14.8102 17.5518H11.2102C10.8509 17.5518 10.5596 17.843 10.5596 18.2024C10.5596 18.5617 10.8509 18.853 11.2102 18.853H14.8102C15.1695 18.853 15.4608 18.5617 15.4608 18.2024C15.4608 17.843 15.1695 17.5518 14.8102 17.5518Z"
    fill="#FF6600"
  />
  <path
    d="M13.7693 19.6987H12.2512C11.8919 19.6987 11.6006 19.99 11.6006 20.3493C11.6006 20.7087 11.8919 21 12.2512 21H13.7693C14.1287 21 14.4199 20.7087 14.4199 20.3493C14.4199 19.99 14.1287 19.6987 13.7693 19.6987Z"
    fill="#FF6600"
  />
</svg>
