<svg width="25" height="24" viewBox="0 0 25 24" fill="none" xmlns="http://www.w3.org/2000/svg">
  <path
    d="M16.9946 4.69C18.7376 4.69 20.1536 6.09707 20.1646 7.84V18.84C20.1591 20.5868 18.7414 22 16.9946 22H5.92465C4.18946 21.9946 2.78106 20.5951 2.76465 18.86V7.86C2.76465 6.11316 4.17781 4.69551 5.92465 4.69H16.9946ZM16.9946 6.69H5.92465C5.28239 6.69549 4.76465 7.21771 4.76465 7.86V17.24L6.62465 15.44C6.7504 15.3136 6.92135 15.2425 7.09965 15.2425C7.27795 15.2425 7.4489 15.3136 7.57465 15.44L12.0146 20H14.2246L10.9746 16.5L13.4246 13.89C13.7433 13.5432 14.1936 13.3471 14.6646 13.35C15.1299 13.3509 15.5744 13.5425 15.8946 13.88L18.1646 16.29V7.86C18.1592 7.21609 17.6385 6.69543 16.9946 6.69ZM17.4346 2C20.3863 2.02743 22.7646 4.42813 22.7646 7.38V18.38C22.7646 18.9323 22.3169 19.38 21.7646 19.38C21.2123 19.38 20.7646 18.9323 20.7646 18.38V7.38C20.7648 5.53263 19.2818 4.02733 17.4346 4H6.43465C5.88237 4 5.43465 3.55228 5.43465 3C5.43465 2.44772 5.88237 2 6.43465 2H17.4346ZM8.23465 8.42C9.20667 8.42 9.99465 9.1901 9.99465 10.14C9.99465 11.0899 9.20667 11.86 8.23465 11.86C7.26263 11.86 6.47465 11.0899 6.47465 10.14C6.47465 9.1901 7.26263 8.42 8.23465 8.42Z"
    fill="#FF6600"
  />
</svg>
