<svg
  width="24"
  height="24"
  viewBox="0 0 24 24"
  fill="none"
  xmlns="http://www.w3.org/2000/svg"
>
  <path
    d="M16.23 4.69C17.973 4.69 19.389 6.09707 19.4 7.84V18.84C19.3945 20.5868 17.9768 22 16.23 22H5.16C3.42481 21.9946 2.01641 20.5951 2 18.86V7.86C2 6.11316 3.41316 4.69551 5.16 4.69H16.23ZM16.23 6.69H5.16C4.51774 6.69549 4 7.21771 4 7.86V17.24L5.86 15.44C5.98575 15.3136 6.1567 15.2425 6.335 15.2425C6.5133 15.2425 6.68425 15.3136 6.81 15.44L11.25 20H13.46L10.21 16.5L12.66 13.89C12.9787 13.5432 13.429 13.3471 13.9 13.35C14.3653 13.3509 14.8098 13.5425 15.13 13.88L17.4 16.29V7.86C17.3946 7.21609 16.8739 6.69543 16.23 6.69ZM16.67 2C19.6217 2.02743 22 4.42813 22 7.38V18.38C22 18.9323 21.5523 19.38 21 19.38C20.4477 19.38 20 18.9323 20 18.38V7.38C20.0002 5.53263 18.5172 4.02733 16.67 4H5.67C5.11772 4 4.67 3.55228 4.67 3C4.67 2.44772 5.11772 2 5.67 2H16.67ZM7.47 8.42C8.44202 8.42 9.23 9.1901 9.23 10.14C9.23 11.0899 8.44202 11.86 7.47 11.86C6.49798 11.86 5.71 11.0899 5.71 10.14C5.71 9.1901 6.49798 8.42 7.47 8.42Z"
    fill="#FF6600"
  />
</svg>
