<svg
  width="24"
  height="24"
  viewBox="0 0 24 24"
  fill="none"
  xmlns="http://www.w3.org/2000/svg"
>
  <path
    d="M23.5 8.69048C23.5 7.54193 22.5182 6.6075 21.3115 6.6075C20.1047 6.6075 19.1231 7.54193 19.1231 8.69048C19.1231 9.2426 19.3503 9.745 19.7202 10.1181C19.0624 10.8186 18.1071 11.2606 17.0448 11.2606C15.3251 11.2606 13.8848 10.1036 13.5363 8.56472C13.9387 8.18677 14.1885 7.66218 14.1885 7.08298C14.1885 5.93444 13.2067 5 12 5C10.7933 5 9.81146 5.93444 9.81146 7.08298C9.81146 7.66218 10.0615 8.18677 10.4637 8.56472C10.1152 10.1036 8.6749 11.2606 6.95524 11.2606C5.89291 11.2606 4.93761 10.8186 4.27975 10.1181C4.64966 9.745 4.87708 9.2426 4.87708 8.69048C4.87708 7.54193 3.89529 6.6075 2.68854 6.6075C1.48179 6.6075 0.5 7.54193 0.5 8.69048C0.5 9.6859 1.23753 10.5199 2.21967 10.7247C2.45252 12.5538 2.94579 14.8619 3.98917 16.432V18.3552C3.98917 18.7112 4.29239 19 4.6665 19H19.3335C19.7076 19 20.0108 18.7112 20.0108 18.3552V16.432C21.0542 14.8619 21.5475 12.554 21.7803 10.7247C22.7625 10.5198 23.5 9.6859 23.5 8.69048ZM20.4778 8.69048C20.4778 8.2529 20.8517 7.89683 21.3115 7.89683C21.7712 7.89683 22.1453 8.2529 22.1453 8.69048C22.1453 9.1281 21.7712 9.4839 21.3115 9.4839C20.8517 9.4839 20.4778 9.1281 20.4778 8.69048ZM11.1661 7.08298C11.1661 6.64541 11.5403 6.28934 12 6.28934C12.4597 6.28934 12.8337 6.64541 12.8337 7.08298C12.8337 7.52055 12.4597 7.87646 12 7.87646C11.5403 7.87646 11.1661 7.52055 11.1661 7.08298ZM1.85468 8.69048C1.85468 8.2529 2.22879 7.89683 2.68854 7.89683C3.14828 7.89683 3.52222 8.2529 3.52222 8.69048C3.52222 9.1281 3.14828 9.4839 2.68854 9.4839C2.22879 9.4839 1.85468 9.1281 1.85468 8.69048ZM5.34384 17.7105V16.885H18.6562V17.7105H5.34384ZM18.9613 15.5954H5.03886C4.3259 14.4444 3.91652 12.8274 3.68173 11.368C4.55437 12.1032 5.70094 12.55 6.95524 12.55C9.20695 12.55 11.1116 11.1098 11.7066 9.1466C11.8026 9.159 11.9005 9.1658 12 9.1658C12.0995 9.1658 12.1974 9.159 12.2934 9.1466C12.8884 11.1098 14.7931 12.55 17.0448 12.55C18.2994 12.55 19.4467 12.1029 20.3193 11.367C20.0847 12.8262 19.6753 14.4431 18.9613 15.5954Z"
    fill="#FF6600"
  />
</svg>
