<svg width="25" height="24" viewBox="0 0 25 24" fill="none" xmlns="http://www.w3.org/2000/svg">
  <g clip-path="url(#clip0_463_46370)">
    <path
      d="M24.2646 8.69048C24.2646 7.54193 23.2828 6.6075 22.0761 6.6075C20.8693 6.6075 19.8877 7.54193 19.8877 8.69048C19.8877 9.2426 20.1149 9.745 20.4848 10.1181C19.827 10.8186 18.8717 11.2606 17.8094 11.2606C16.0897 11.2606 14.6494 10.1036 14.3009 8.56472C14.7033 8.18677 14.9531 7.66218 14.9531 7.08298C14.9531 5.93444 13.9713 5 12.7646 5C11.5579 5 10.5761 5.93444 10.5761 7.08298C10.5761 7.66218 10.8261 8.18677 11.2283 8.56472C10.8798 10.1036 9.43955 11.2606 7.71989 11.2606C6.65756 11.2606 5.70226 10.8186 5.0444 10.1181C5.41431 9.745 5.64173 9.2426 5.64173 8.69048C5.64173 7.54193 4.65994 6.6075 3.45319 6.6075C2.24644 6.6075 1.26465 7.54193 1.26465 8.69048C1.26465 9.6859 2.00218 10.5199 2.98432 10.7247C3.21717 12.5538 3.71044 14.8619 4.75382 16.432V18.3552C4.75382 18.7112 5.05704 19 5.43115 19H20.0981C20.4722 19 20.7754 18.7112 20.7754 18.3552V16.432C21.8188 14.8619 22.3121 12.554 22.5449 10.7247C23.5271 10.5198 24.2646 9.6859 24.2646 8.69048ZM21.2424 8.69048C21.2424 8.2529 21.6163 7.89683 22.0761 7.89683C22.5358 7.89683 22.9099 8.2529 22.9099 8.69048C22.9099 9.1281 22.5358 9.4839 22.0761 9.4839C21.6163 9.4839 21.2424 9.1281 21.2424 8.69048ZM11.9307 7.08298C11.9307 6.64541 12.3049 6.28934 12.7646 6.28934C13.2243 6.28934 13.5983 6.64541 13.5983 7.08298C13.5983 7.52055 13.2243 7.87646 12.7646 7.87646C12.3049 7.87646 11.9307 7.52055 11.9307 7.08298ZM2.61933 8.69048C2.61933 8.2529 2.99344 7.89683 3.45319 7.89683C3.91293 7.89683 4.28687 8.2529 4.28687 8.69048C4.28687 9.1281 3.91293 9.4839 3.45319 9.4839C2.99344 9.4839 2.61933 9.1281 2.61933 8.69048ZM6.10849 17.7105V16.885H19.4208V17.7105H6.10849ZM19.7259 15.5954H5.80351C5.09055 14.4444 4.68117 12.8274 4.44638 11.368C5.31902 12.1032 6.46559 12.55 7.71989 12.55C9.9716 12.55 11.8762 11.1098 12.4712 9.1466C12.5672 9.159 12.6651 9.1658 12.7646 9.1658C12.8641 9.1658 12.962 9.159 13.058 9.1466C13.653 11.1098 15.5577 12.55 17.8094 12.55C19.064 12.55 20.2113 12.1029 21.0839 11.367C20.8493 12.8262 20.4399 14.4431 19.7259 15.5954Z"
      fill="#FF6600"
    />
  </g>
  <defs>
    <clipPath id="clip0_463_46370">
      <rect width="24" height="24" fill="white" transform="translate(0.764648)" />
    </clipPath>
  </defs>
</svg>
