<svg
  width="24"
  height="24"
  viewBox="0 0 24 24"
  fill="none"
  xmlns="http://www.w3.org/2000/svg"
>
  <path
    d="M12.2458 3C8.80192 3 6 5.80171 6 9.2458C6 11.5372 7.27237 13.6508 9.2747 14.7432V16.0338C9.2747 16.3931 9.56597 16.6844 9.9253 16.6844H14.5448C14.9041 16.6844 15.1954 16.3931 15.1954 16.0338V14.7449C17.211 13.6569 18.4916 11.5424 18.4916 9.2458C18.4916 5.80171 15.6897 3 12.2458 3ZM14.275 13.7501C14.043 13.8557 13.894 14.0871 13.894 14.3422V15.3832H10.5759V14.3422C10.5759 14.0882 10.428 13.8573 10.1975 13.7512C8.43805 12.9408 7.3012 11.1722 7.3012 9.2458C7.3012 6.51932 9.51931 4.3012 12.2458 4.3012C14.9723 4.3012 17.1904 6.51932 17.1904 9.2458C17.1904 11.1753 16.046 12.9434 14.275 13.7501Z"
    fill="#FF6600"
  />
  <path
    d="M14.0455 17.5518H10.4455C10.0862 17.5518 9.79492 17.843 9.79492 18.2024C9.79492 18.5617 10.0862 18.853 10.4455 18.853H14.0455C14.4049 18.853 14.6961 18.5617 14.6961 18.2024C14.6961 17.843 14.4049 17.5518 14.0455 17.5518Z"
    fill="#FF6600"
  />
  <path
    d="M13.0046 19.6987H11.4865C11.1272 19.6987 10.8359 19.99 10.8359 20.3493C10.8359 20.7087 11.1272 21 11.4865 21H13.0046C13.364 21 13.6552 20.7087 13.6552 20.3493C13.6552 19.99 13.364 19.6987 13.0046 19.6987Z"
    fill="#FF6600"
  />
</svg>
