<svg width="25" height="24" viewBox="0 0 25 24" fill="none" xmlns="http://www.w3.org/2000/svg">
  <path
    d="M22.2646 14.6606C22.2646 14.3006 22.0746 13.9706 21.7746 13.7706L14.2646 9.0806V3.58057C14.2646 2.75057 13.5946 2.08057 12.7646 2.08057C11.9346 2.08057 11.2646 2.75057 11.2646 3.58057V9.0806L3.75465 13.7706C3.45465 13.9606 3.26465 14.3006 3.26465 14.6606C3.26465 15.3606 3.94465 15.8706 4.62465 15.6606L11.2646 13.5806V19.0806L9.46465 20.4306C9.33465 20.5206 9.26465 20.6706 9.26465 20.8306V21.4206C9.26465 21.7506 9.58465 21.9906 9.90465 21.9006L12.7646 21.0806L15.6246 21.9006C15.9446 21.9906 16.2646 21.7506 16.2646 21.4206V20.8306C16.2646 20.6706 16.1946 20.5206 16.0646 20.4306L14.2646 19.0806V13.5806L20.9046 15.6606C21.5846 15.8706 22.2646 15.3606 22.2646 14.6606Z"
    fill="#FF6600"
  />
</svg>
