<svg width="25" height="24" viewBox="0 0 25 24" fill="none" xmlns="http://www.w3.org/2000/svg">
  <path
    d="M11.7648 20C10.0089 20.0053 8.31513 19.3505 7.01939 18.1654C5.72365 16.9803 4.92064 15.3515 4.76961 13.6021C4.61858 11.8527 5.13056 10.1104 6.20402 8.72074C7.27748 7.33112 8.834 6.3957 10.5649 6.1C16.2648 5 17.7648 4.48 19.7648 2C20.7648 4 21.7648 6.18 21.7648 10C21.7648 15.5 16.9848 20 11.7648 20Z"
    stroke="#FF6600"
    stroke-width="2"
    stroke-linecap="round"
    stroke-linejoin="round"
  />
  <path
    d="M2.76465 21C2.76465 18 4.61465 15.64 7.84465 15C10.2646 14.52 12.7646 13 13.7646 12"
    stroke="#FF6600"
    stroke-width="2"
    stroke-linecap="round"
    stroke-linejoin="round"
  />
</svg>
