<svg width="25" height="24" viewBox="0 0 25 24" fill="none" xmlns="http://www.w3.org/2000/svg">
  <path
    d="M10.506 8.55766C11.2361 8.56289 11.8252 9.1583 11.8252 9.8909V21.5H8.02915V9.8909C8.02915 9.1583 8.6182 8.56289 9.34826 8.55766H10.506ZM5.76105 11.9766C6.48957 11.9766 7.08015 12.5692 7.08015 13.3003V21.5H3.28416V13.3003C3.28938 12.5677 3.88269 11.9766 4.61276 11.9766H5.76105ZM19.996 9.7481C20.7246 9.7481 21.3152 10.3408 21.3152 11.0718V21.5H17.5191V11.0718C17.5191 10.3408 18.1098 9.7481 18.8383 9.7481H19.996ZM15.251 12.9956C15.9811 13.0008 16.5702 13.5962 16.5702 14.3289V21.5H12.7741V14.3289C12.7741 13.5962 13.3632 13.0008 14.0933 12.9956H15.251ZM7.82037 2.77693C8.19052 2.40769 8.78831 2.40769 9.15846 2.77693L14.8998 8.49099L18.5061 4.87209C18.6852 4.69382 18.9276 4.59445 19.1798 4.59591L19.305 4.60348C19.5112 4.62976 19.7045 4.72353 19.8537 4.87209L21.989 7.01486C22.3584 7.3883 22.3563 7.99162 21.9841 8.36243C21.612 8.73323 21.0108 8.7311 20.6413 8.35766L19.1325 6.89106L15.5262 10.51C15.3471 10.6882 15.1047 10.7876 14.8525 10.7862C14.6002 10.7876 14.3577 10.6882 14.1786 10.51L8.48467 4.74828L4.88797 8.35766C4.51847 8.7311 3.91726 8.73323 3.54514 8.36243C3.17301 7.99162 3.17089 7.3883 3.54039 7.01486L7.82037 2.77693Z"
    fill="#FF6600"
  />
</svg>
