<svg width="25" height="24" viewBox="0 0 25 24" fill="none" xmlns="http://www.w3.org/2000/svg">
  <path
    d="M10.1043 21.5001C10.4643 21.5001 10.7944 21.3101 10.9944 21.0101L15.6844 13.5001H21.1844C22.0144 13.5001 22.6844 12.8301 22.6844 12.0001C22.6844 11.1701 22.0144 10.5001 21.1844 10.5001H15.6844L10.9944 2.99012C10.8044 2.69012 10.4643 2.50012 10.1043 2.50012C9.40428 2.50012 8.89428 3.18012 9.10428 3.86012L11.1844 10.5001H5.68428L4.33428 8.70012C4.24428 8.57012 4.09428 8.50012 3.93428 8.50012H3.34428C3.01428 8.50012 2.77428 8.82012 2.86428 9.1401L3.68428 12.0001L2.86428 14.8601C2.77428 15.1801 3.01428 15.5001 3.34428 15.5001H3.93428C4.09428 15.5001 4.24428 15.4301 4.33428 15.3001L5.68428 13.5001H11.1844L9.10428 20.1401C8.89428 20.8201 9.40428 21.5001 10.1043 21.5001Z"
    fill="#FF6600"
  />
</svg>
