<svg
  width="24"
  height="24"
  viewBox="0 0 24 24"
  fill="none"
  xmlns="http://www.w3.org/2000/svg"
>
  <path
    d="M9.33963 21.5001C9.69963 21.5001 10.0297 21.3101 10.2297 21.0101L14.9197 13.5001H20.4197C21.2497 13.5001 21.9197 12.8301 21.9197 12.0001C21.9197 11.1701 21.2497 10.5001 20.4197 10.5001H14.9197L10.2297 2.99012C10.0397 2.69012 9.69963 2.50012 9.33963 2.50012C8.63963 2.50012 8.12963 3.18012 8.33963 3.86012L10.4197 10.5001H4.91963L3.56963 8.70012C3.47963 8.57012 3.32963 8.50012 3.16963 8.50012H2.57963C2.24963 8.50012 2.00963 8.82012 2.09963 9.1401L2.91963 12.0001L2.09963 14.8601C2.00963 15.1801 2.24963 15.5001 2.57963 15.5001H3.16963C3.32963 15.5001 3.47963 15.4301 3.56963 15.3001L4.91963 13.5001H10.4197L8.33963 20.1401C8.12963 20.8201 8.63963 21.5001 9.33963 21.5001Z"
    fill="#FF6600"
  />
</svg>
