<svg
  width="24"
  height="24"
  viewBox="0 0 24 24"
  fill="none"
  xmlns="http://www.w3.org/2000/svg"
>
  <path
    d="M9.74139 8.55766C10.4714 8.56289 11.0605 9.1583 11.0605 9.8909V21.5H7.2645V9.8909C7.2645 9.1583 7.85355 8.56289 8.58361 8.55766H9.74139ZM4.9964 11.9766C5.72492 11.9766 6.3155 12.5692 6.3155 13.3003V21.5H2.51951V13.3003C2.52473 12.5677 3.11804 11.9766 3.84811 11.9766H4.9964ZM19.2314 9.7481C19.9599 9.7481 20.5505 10.3408 20.5505 11.0718V21.5H16.7545V11.0718C16.7545 10.3408 17.3451 9.7481 18.0736 9.7481H19.2314ZM14.4864 12.9956C15.2164 13.0008 15.8055 13.5962 15.8055 14.3289V21.5H12.0095V14.3289C12.0095 13.5962 12.5985 13.0008 13.3286 12.9956H14.4864ZM7.05572 2.77693C7.42587 2.40769 8.02366 2.40769 8.39381 2.77693L14.1352 8.49099L17.7414 4.87209C17.9205 4.69382 18.163 4.59445 18.4152 4.59591L18.5403 4.60348C18.7465 4.62976 18.9398 4.72353 19.089 4.87209L21.2243 7.01486C21.5938 7.3883 21.5916 7.99162 21.2195 8.36243C20.8474 8.73323 20.2462 8.7311 19.8767 8.35766L18.3678 6.89106L14.7616 10.51C14.5825 10.6882 14.34 10.7876 14.0878 10.7862C13.8355 10.7876 13.5931 10.6882 13.414 10.51L7.72002 4.74828L4.12332 8.35766C3.75382 8.7311 3.15261 8.73323 2.78049 8.36243C2.40836 7.99162 2.40624 7.3883 2.77574 7.01486L7.05572 2.77693Z"
    fill="#FF6600"
  />
</svg>
