<svg width="25" height="24" viewBox="0 0 25 24" fill="none" xmlns="http://www.w3.org/2000/svg">
  <path
    d="M2.26465 16.5H4.76465C5.31693 16.5 5.76465 16.0523 5.76465 15.5V12H4.26465V5.5C4.26465 4.94772 3.81693 4.5 3.26465 4.5H2.26465"
    stroke="#FF6600"
    stroke-width="1.5"
  />
  <path d="M2.26465 19.5H5.76465C4.26465 19.5 4.26465 18 4.26465 16.5" stroke="#FF6600" stroke-width="1.5" stroke-linejoin="round" />
  <path
    d="M8.26465 15.5V12H9.76465V5.5C9.76465 4.94772 10.2124 4.5 10.7646 4.5H14.7646C15.3169 4.5 15.7646 4.94772 15.7646 5.5V12H17.2646V15.5C17.2646 16.0523 16.8169 16.5 16.2646 16.5H9.26465C8.71236 16.5 8.26465 16.0523 8.26465 15.5Z"
    stroke="#FF6600"
    stroke-width="1.5"
  />
  <path
    d="M9.76465 16.5C9.76465 18 9.76465 19.5 8.26465 19.5H17.2646C15.7646 19.5 15.7646 18 15.7646 16.5"
    stroke="#FF6600"
    stroke-width="1.5"
    stroke-linejoin="round"
  />
  <path
    d="M21.2231 4.60359L20.6795 4.76479C20.255 4.89069 19.9639 5.28075 19.9639 5.72352V9.26961C19.9639 9.71935 20.2641 10.1138 20.6976 10.2335L21.2411 10.3837C21.878 10.5596 22.5074 10.0805 22.5074 9.41977V5.56231C22.5074 4.89375 21.864 4.41348 21.2231 4.60359Z"
    stroke="#FF6600"
    stroke-width="1.5"
  />
</svg>
