<svg
  width="24"
  height="24"
  viewBox="0 0 24 24"
  fill="none"
  xmlns="http://www.w3.org/2000/svg"
>
  <path
    d="M19.1698 20.0001H15.9998V17.0001H17.4398C18.9641 17.0001 20.1998 15.7644 20.1998 14.2401C20.1998 12.7158 18.9641 11.4801 17.4398 11.4801H11.3398V11.4101L9.33984 4.08012C8.94219 2.58619 7.40877 1.69747 5.91484 2.09512C4.42091 2.49276 3.53219 4.02619 3.92984 5.52012L7.10984 17.0001H9.99984V20.0001H5.76984C5.21755 20.0001 4.76984 20.4478 4.76984 21.0001C4.76984 21.5524 5.21755 22.0001 5.76984 22.0001H19.1698C19.7221 22.0001 20.1698 21.5524 20.1698 21.0001C20.1698 20.4478 19.7221 20.0001 19.1698 20.0001ZM13.9998 20.0001H11.9998V17.0001H13.9998V20.0001Z"
    fill="#FF6600"
  />
</svg>
