<svg
  width="24"
  height="24"
  viewBox="0 0 24 24"
  fill="none"
  xmlns="http://www.w3.org/2000/svg"
>
  <path
    d="M19.1699 20.0001H15.9999V17.0001H17.4399C18.9642 17.0001 20.1999 15.7644 20.1999 14.2401C20.1999 12.7158 18.9642 11.4801 17.4399 11.4801H11.3399V11.4101L9.33984 4.08012C8.94219 2.58619 7.40877 1.69747 5.91484 2.09512C4.42091 2.49276 3.53219 4.02619 3.92984 5.52012L7.10984 17.0001H9.99986V20.0001H5.76984C5.21755 20.0001 4.76984 20.4478 4.76984 21.0001C4.76984 21.5524 5.21755 22.0001 5.76984 22.0001H19.1699C19.7222 22.0001 20.1699 21.5524 20.1699 21.0001C20.1699 20.4478 19.7222 20.0001 19.1699 20.0001ZM8.62984 15.0001L5.85984 5.00012C5.80497 4.80518 5.83016 4.5964 5.92984 4.42012C6.03076 4.24507 6.19567 4.11601 6.38984 4.06012C6.45609 4.04964 6.52359 4.04964 6.58984 4.06012C6.93136 4.06156 7.22997 4.29064 7.31984 4.62012L9.31984 11.9501V12.0201L9.71984 13.4901H17.3499C17.7696 13.4901 18.1099 13.8304 18.1099 14.2501C18.1099 14.6699 17.7696 15.0101 17.3499 15.0101L8.62984 15.0001ZM13.9999 20.0001H11.9999V17.0001H13.9999V20.0001Z"
    fill="#FF6600"
  />
</svg>
