<svg width="25" height="24" viewBox="0 0 25 24" fill="none" xmlns="http://www.w3.org/2000/svg">
  <path
    d="M19.9345 20.0001H16.7645V17.0001H18.2045C19.7288 17.0001 20.9645 15.7644 20.9645 14.2401C20.9645 12.7158 19.7288 11.4801 18.2045 11.4801H12.1045V11.4101L10.1045 4.08012C9.70684 2.58619 8.17342 1.69747 6.67949 2.09512C5.18556 2.49276 4.29684 4.02619 4.69449 5.52012L7.87449 17.0001H10.7645V20.0001H6.53449C5.9822 20.0001 5.53449 20.4478 5.53449 21.0001C5.53449 21.5524 5.9822 22.0001 6.53449 22.0001H19.9345C20.4868 22.0001 20.9345 21.5524 20.9345 21.0001C20.9345 20.4478 20.4868 20.0001 19.9345 20.0001ZM9.39449 15.0001L6.62449 5.00012C6.56962 4.80518 6.59481 4.5964 6.69449 4.42012C6.79541 4.24507 6.96032 4.11601 7.15449 4.06012C7.22074 4.04964 7.28824 4.04964 7.35449 4.06012C7.69601 4.06156 7.99462 4.29064 8.08449 4.62012L10.0845 11.9501V12.0201L10.4845 13.4901H18.1145C18.5342 13.4901 18.8745 13.8304 18.8745 14.2501C18.8745 14.6699 18.5342 15.0101 18.1145 15.0101L9.39449 15.0001ZM14.7645 20.0001H12.7645V17.0001H14.7645V20.0001Z"
    fill="#FF6600"
  />
</svg>
