<svg width="25" height="24" viewBox="0 0 25 24" fill="none" xmlns="http://www.w3.org/2000/svg">
  <path
    d="M8.26465 15.5V12H9.76465V5.5C9.76465 4.94772 10.2124 4.5 10.7646 4.5H14.7646C15.3169 4.5 15.7646 4.94772 15.7646 5.5V12H17.2646V15.5C17.2646 16.0523 16.8169 16.5 16.2646 16.5H9.26465C8.71236 16.5 8.26465 16.0523 8.26465 15.5Z"
    stroke="#FF6600"
    stroke-width="1.5"
  />
  <path
    d="M9.76465 16.5C9.76465 18 9.76465 19.5 8.26465 19.5H17.2646C15.7646 19.5 15.7646 18 15.7646 16.5"
    stroke="#FF6600"
    stroke-width="1.5"
    stroke-linejoin="round"
  />
  <path
    d="M23.2646 16.5H20.7646C20.2124 16.5 19.7646 16.0523 19.7646 15.5V12H21.2646V5.5C21.2646 4.94772 21.7124 4.5 22.2646 4.5H23.2646"
    stroke="#FF6600"
    stroke-width="1.5"
  />
  <path d="M21.2646 16.5C21.2646 18 21.2646 19.5 19.7646 19.5H23.2646" stroke="#FF6600" stroke-width="1.5" stroke-linejoin="round" />
  <path
    d="M5.79446 7.60321L2.54253 5.43526C2.36893 5.31952 2.26465 5.12467 2.26465 4.91603C2.26465 4.41761 2.82013 4.12032 3.23484 4.39679L6.48676 6.56474C6.66037 6.68048 6.76465 6.87533 6.76465 7.08397C6.76465 7.58239 6.20916 7.87968 5.79446 7.60321Z"
    fill="#FF6600"
  />
  <path
    d="M2.54253 18.5647L5.79446 16.3968C6.20916 16.1203 6.76465 16.4176 6.76465 16.916C6.76465 17.1247 6.66037 17.3195 6.48676 17.4353L3.23484 19.6032C2.82013 19.8797 2.26465 19.5824 2.26465 19.084C2.26465 18.8753 2.36893 18.6805 2.54253 18.5647Z"
    fill="#FF6600"
  />
</svg>
