<svg width="25" height="24" viewBox="0 0 25 24" fill="none" xmlns="http://www.w3.org/2000/svg">
  <path
    d="M19.9344 20.0001H16.7644V17.0001H18.2044C19.7287 17.0001 20.9644 15.7644 20.9644 14.2401C20.9644 12.7158 19.7287 11.4801 18.2044 11.4801H12.1044V11.4101L10.1045 4.08012C9.70684 2.58619 8.17342 1.69747 6.67949 2.09512C5.18556 2.49276 4.29684 4.02619 4.69449 5.52012L7.87449 17.0001H10.7645V20.0001H6.53449C5.9822 20.0001 5.53449 20.4478 5.53449 21.0001C5.53449 21.5524 5.9822 22.0001 6.53449 22.0001H19.9344C20.4867 22.0001 20.9344 21.5524 20.9344 21.0001C20.9344 20.4478 20.4867 20.0001 19.9344 20.0001ZM14.7644 20.0001H12.7644V17.0001H14.7644V20.0001Z"
    fill="#FF6600"
  />
</svg>
