<svg width="25" height="24" viewBox="0 0 25 24" fill="none" xmlns="http://www.w3.org/2000/svg">
  <path
    d="M2.26465 16.5H4.76465C5.31693 16.5 5.76465 16.0523 5.76465 15.5V12H4.26465V5.5C4.26465 4.94772 3.81693 4.5 3.26465 4.5H2.26465"
    stroke="#FF6600"
    stroke-width="1.5"
  />
  <path d="M2.26465 19.5H5.76465C4.26465 19.5 4.26465 18 4.26465 16.5" stroke="#FF6600" stroke-width="1.5" stroke-linejoin="round" />
  <path
    d="M8.26465 15.5V12H9.76465V5.5C9.76465 4.94772 10.2124 4.5 10.7646 4.5H14.7646C15.3169 4.5 15.7646 4.94772 15.7646 5.5V12H17.2646V15.5C17.2646 16.0523 16.8169 16.5 16.2646 16.5H9.26465C8.71236 16.5 8.26465 16.0523 8.26465 15.5Z"
    stroke="#FF6600"
    stroke-width="1.5"
  />
  <path
    d="M9.76465 16.5C9.76465 18 9.76465 19.5 8.26465 19.5H17.2646C15.7646 19.5 15.7646 18 15.7646 16.5"
    stroke="#FF6600"
    stroke-width="1.5"
    stroke-linejoin="round"
  />
  <path
    d="M23.2646 16.5H20.7646C20.2124 16.5 19.7646 16.0523 19.7646 15.5V12H21.2646V5.5C21.2646 4.94772 21.7124 4.5 22.2646 4.5H23.2646"
    stroke="#FF6600"
    stroke-width="1.5"
  />
  <path d="M21.2646 16.5C21.2646 18 21.2646 19.5 19.7646 19.5H23.2646" stroke="#FF6600" stroke-width="1.5" stroke-linejoin="round" />
</svg>
