<svg width="25" height="24" viewBox="0 0 25 24" fill="none" xmlns="http://www.w3.org/2000/svg">
  <path
    d="M8.48481 4.10002C8.87694 3.7079 9.51269 3.7079 9.90481 4.10002L17.0548 11.26C17.2495 11.456 17.3545 11.7239 17.3448 12C17.3545 12.2762 17.2495 12.544 17.0548 12.74L9.90481 19.9C9.51269 20.2921 8.87694 20.2921 8.48481 19.9C8.09269 19.5079 8.09269 18.8721 8.48481 18.48L14.9648 12L8.48481 5.52002C8.09269 5.1279 8.09269 4.49214 8.48481 4.10002ZM14.3649 3.84014C14.7114 3.7473 15.0811 3.84636 15.3348 4.10002L22.4848 11.26C22.871 11.6778 22.871 12.3223 22.4848 12.74L15.3348 19.9C14.9427 20.2921 14.3069 20.2921 13.9148 19.9C13.5227 19.5079 13.5227 18.8721 13.9148 18.48L20.4048 12L13.9148 5.52002C13.6611 5.26636 13.562 4.89665 13.6549 4.55014C13.7477 4.20364 14.0184 3.93299 14.3649 3.84014ZM3.04478 4.10002C3.43482 3.7123 4.06478 3.7123 4.45481 4.10002L11.6148 11.26C11.8059 11.4577 11.9071 11.7254 11.8948 12C11.9071 12.2747 11.8059 12.5423 11.6148 12.74L4.45481 19.9C4.06478 20.2877 3.43482 20.2877 3.04478 19.9C2.85547 19.7123 2.74902 19.4567 2.74902 19.19C2.74902 18.9234 2.85547 18.6678 3.04478 18.48L9.52481 12L3.04478 5.52002C2.85547 5.33226 2.74902 5.07666 2.74902 4.81002C2.74902 4.54339 2.85547 4.28779 3.04478 4.10002Z"
    fill="#FF6600"
  />
</svg>
