<svg
  width="24"
  height="24"
  viewBox="0 0 24 24"
  fill="none"
  xmlns="http://www.w3.org/2000/svg"
>
  <path
    d="M19.1005 3.6888C19.5103 3.42 20.0107 3.32679 20.4898 3.43004C21.4845 3.64031 22.1231 4.61388 21.9198 5.61004L19.3998 17.79C19.3616 18.0667 19.2588 18.3305 19.0998 18.56C18.712 19.133 18.0368 19.4416 17.3498 19.36H15.4198L15.9398 20.62C16.0086 20.7737 15.9937 20.9519 15.9003 21.092C15.8069 21.2321 15.6481 21.3144 15.4798 21.3102H12.1498C11.9835 21.3092 11.8285 21.2258 11.7363 21.0874C11.644 20.949 11.6266 20.7739 11.6898 20.62L12.2198 19.36H9.82981C9.13823 19.411 8.47624 19.0709 8.11489 18.479C7.95676 18.22 7.86783 17.9318 7.8481 17.64L7.84981 20.47C7.84981 21.0223 7.40209 21.47 6.84981 21.47C6.29752 21.47 5.84981 21.0223 5.84981 20.47V17.19L3.74981 19.28C3.50542 19.5654 3.12169 19.6897 2.75639 19.6018C2.39109 19.514 2.10587 19.2288 2.018 18.8635C1.93013 18.4982 2.05443 18.1144 2.33981 17.87L6.74981 13.48C6.9434 13.2878 7.20711 13.1831 7.47981 13.19H12.1698L12.6098 11H8.99981C8.44752 11 7.99981 10.5523 7.99981 10C7.99981 9.4477 8.44752 9 8.99981 9H12.9998C13.3678 8.08957 14.3424 7.58097 15.2997 7.79979C16.2571 8.01861 16.9139 8.9001 16.8498 9.88L16.1098 13.59C15.9263 14.4926 15.1501 15.1532 14.2298 15.19H7.84981L7.84809 17.3904C7.86778 17.0984 7.95672 16.8101 8.11489 16.551C8.47624 15.9592 9.13823 15.6191 9.82981 15.67H16.0698L18.3098 4.86004C18.4059 4.3795 18.6908 3.95759 19.1005 3.6888ZM15.5998 2.54004C16.8314 2.54004 17.8298 3.53844 17.8298 4.77004C17.8298 6.00163 16.8314 7.00004 15.5998 7.00004C14.3682 7.00004 13.3698 6.00163 13.3698 4.77004C13.3698 3.53844 14.3682 2.54004 15.5998 2.54004Z"
    fill="#FF6600"
  />
</svg>
