<svg
  width="24"
  height="24"
  viewBox="0 0 24 24"
  fill="none"
  xmlns="http://www.w3.org/2000/svg"
>
  <path
    d="M7.72017 4.10002C8.1123 3.7079 8.74805 3.7079 9.14017 4.10002L16.2902 11.26C16.4849 11.456 16.5899 11.7239 16.5802 12C16.5899 12.2762 16.4849 12.544 16.2902 12.74L9.14017 19.9C8.74805 20.2921 8.1123 20.2921 7.72017 19.9C7.32805 19.5079 7.32805 18.8721 7.72017 18.48L14.2002 12L7.72017 5.52002C7.32805 5.1279 7.32805 4.49214 7.72017 4.10002ZM13.6003 3.84014C13.9468 3.7473 14.3165 3.84636 14.5702 4.10002L21.7202 11.26C22.1064 11.6778 22.1064 12.3223 21.7202 12.74L14.5702 19.9C14.1781 20.2921 13.5423 20.2921 13.1502 19.9C12.7581 19.5079 12.7581 18.8721 13.1502 18.48L19.6402 12L13.1502 5.52002C12.8965 5.26636 12.7974 4.89665 12.8903 4.55014C12.9831 4.20364 13.2538 3.93299 13.6003 3.84014ZM2.28014 4.10002C2.67018 3.7123 3.30014 3.7123 3.69017 4.10002L10.8502 11.26C11.0413 11.4577 11.1425 11.7254 11.1302 12C11.1425 12.2747 11.0413 12.5423 10.8502 12.74L3.69017 19.9C3.30014 20.2877 2.67018 20.2877 2.28014 19.9C2.09083 19.7123 1.98438 19.4567 1.98438 19.19C1.98438 18.9234 2.09083 18.6678 2.28014 18.48L8.76017 12L2.28014 5.52002C2.09083 5.33226 1.98438 5.07666 1.98438 4.81002C1.98438 4.54339 2.09083 4.28779 2.28014 4.10002Z"
    fill="#FF6600"
  />
</svg>
