<svg width="25" height="24" viewBox="0 0 25 24" fill="none" xmlns="http://www.w3.org/2000/svg">
  <path
    d="M19.8651 3.6888C20.2749 3.42 20.7753 3.32679 21.2544 3.43004C22.2491 3.64031 22.8877 4.61388 22.6844 5.61004L20.1644 17.79C20.1262 18.0667 20.0234 18.3305 19.8644 18.56C19.4766 19.133 18.8014 19.4416 18.1144 19.36H16.1844L16.7044 20.62C16.7732 20.7737 16.7583 20.9519 16.6649 21.092C16.5715 21.2321 16.4127 21.3144 16.2444 21.3102H12.9144C12.7481 21.3092 12.5931 21.2258 12.5009 21.0874C12.4086 20.949 12.3912 20.7739 12.4544 20.62L12.9844 19.36H10.5945C9.90288 19.411 9.24089 19.0709 8.87954 18.479C8.72141 18.22 8.63248 17.9318 8.61275 17.64L8.61446 20.47C8.61446 21.0223 8.16674 21.47 7.61446 21.47C7.06217 21.47 6.61446 21.0223 6.61446 20.47V17.19L4.51446 19.28C4.27007 19.5654 3.88634 19.6897 3.52104 19.6018C3.15574 19.514 2.87052 19.2288 2.78265 18.8635C2.69478 18.4982 2.81908 18.1144 3.10446 17.87L7.51446 13.48C7.70805 13.2878 7.97176 13.1831 8.24446 13.19H12.9344L13.3744 11H9.76446C9.21217 11 8.76446 10.5523 8.76446 10C8.76446 9.4477 9.21217 9 9.76446 9H13.7644C14.1324 8.08957 15.107 7.58097 16.0643 7.79979C17.0217 8.01861 17.6785 8.9001 17.6144 9.88L16.8744 13.59C16.6909 14.4926 15.9147 15.1532 14.9944 15.19H8.61446L8.61274 17.3904C8.63243 17.0984 8.72137 16.8101 8.87954 16.551C9.24089 15.9592 9.90288 15.6191 10.5945 15.67H16.8344L19.0744 4.86004C19.1705 4.3795 19.4554 3.95759 19.8651 3.6888ZM16.3644 2.54004C17.596 2.54004 18.5944 3.53844 18.5944 4.77004C18.5944 6.00163 17.596 7.00004 16.3644 7.00004C15.1328 7.00004 14.1344 6.00163 14.1344 4.77004C14.1344 3.53844 15.1328 2.54004 16.3644 2.54004Z"
    fill="#FF6600"
  />
</svg>
