<svg width="25" height="24" viewBox="0 0 25 24" fill="none" xmlns="http://www.w3.org/2000/svg">
  <path
    d="M18.7646 8C20.4215 8 21.7646 6.65685 21.7646 5C21.7646 3.34315 20.4215 2 18.7646 2C17.1077 2 15.7646 3.34315 15.7646 5C15.7646 6.65685 17.1077 8 18.7646 8Z"
    stroke="#FF6600"
    stroke-width="2"
    stroke-linecap="round"
    stroke-linejoin="round"
  />
  <path
    d="M6.76465 15C8.4215 15 9.76465 13.6569 9.76465 12C9.76465 10.3431 8.4215 9 6.76465 9C5.1078 9 3.76465 10.3431 3.76465 12C3.76465 13.6569 5.1078 15 6.76465 15Z"
    stroke="#FF6600"
    stroke-width="2"
    stroke-linecap="round"
    stroke-linejoin="round"
  />
  <path
    d="M18.7646 22C20.4215 22 21.7646 20.6569 21.7646 19C21.7646 17.3431 20.4215 16 18.7646 16C17.1077 16 15.7646 17.3431 15.7646 19C15.7646 20.6569 17.1077 22 18.7646 22Z"
    stroke="#FF6600"
    stroke-width="2"
    stroke-linecap="round"
    stroke-linejoin="round"
  />
  <path d="M9.35449 13.51L16.1845 17.49" stroke="#FF6600" stroke-width="2" stroke-linecap="round" stroke-linejoin="round" />
  <path d="M16.1745 6.51001L9.35449 10.49" stroke="#FF6600" stroke-width="2" stroke-linecap="round" stroke-linejoin="round" />
</svg>
