<svg
  width="24"
  height="24"
  viewBox="0 0 24 24"
  fill="none"
  xmlns="http://www.w3.org/2000/svg"
>
  <path
    d="M13.0972 9.5C13.6472 9.5 14.0972 9.05 14.0972 8.5V6.5H16.0972C16.6472 6.5 17.0972 6.05 17.0972 5.5C17.0972 4.95 16.6472 4.5 16.0972 4.5H14.0972V2.5C14.0972 1.95 13.6472 1.5 13.0972 1.5C12.5472 1.5 12.0972 1.95 12.0972 2.5V4.5H10.0972C9.54717 4.5 9.09717 4.95 9.09717 5.5C9.09717 6.05 9.54717 6.5 10.0972 6.5H12.0972V8.5C12.0972 9.05 12.5472 9.5 13.0972 9.5ZM8.09717 18.5C6.99717 18.5 6.10717 19.4 6.10717 20.5C6.10717 21.6 6.99717 22.5 8.09717 22.5C9.19717 22.5 10.0972 21.6 10.0972 20.5C10.0972 19.4 9.19717 18.5 8.09717 18.5ZM18.0972 18.5C16.9972 18.5 16.1072 19.4 16.1072 20.5C16.1072 21.6 16.9972 22.5 18.0972 22.5C19.1972 22.5 20.0972 21.6 20.0972 20.5C20.0972 19.4 19.1972 18.5 18.0972 18.5ZM9.19717 13.5H16.6472C17.3972 13.5 18.0572 13.09 18.3972 12.47L21.7772 6.34C22.0472 5.86 21.8672 5.25 21.3872 4.98C20.9072 4.72 20.2972 4.89 20.0372 5.37L16.6472 11.5H9.62717L5.63717 3.07C5.47717 2.72 5.11717 2.5 4.73717 2.5H3.09717C2.54717 2.5 2.09717 2.95 2.09717 3.5C2.09717 4.05 2.54717 4.5 3.09717 4.5H4.09717L7.69717 12.09L6.34717 14.53C5.61717 15.87 6.57717 17.5 8.09717 17.5H19.0972C19.6472 17.5 20.0972 17.05 20.0972 16.5C20.0972 15.95 19.6472 15.5 19.0972 15.5H8.09717L9.19717 13.5Z"
    fill="#FF6600"
  />
</svg>
