<svg width="25" height="24" viewBox="0 0 25 24" fill="none" xmlns="http://www.w3.org/2000/svg">
  <path
    d="M13.8618 9.5C14.4118 9.5 14.8618 9.05 14.8618 8.5V6.5H16.8618C17.4118 6.5 17.8618 6.05 17.8618 5.5C17.8618 4.95 17.4118 4.5 16.8618 4.5H14.8618V2.5C14.8618 1.95 14.4118 1.5 13.8618 1.5C13.3118 1.5 12.8618 1.95 12.8618 2.5V4.5H10.8618C10.3118 4.5 9.86182 4.95 9.86182 5.5C9.86182 6.05 10.3118 6.5 10.8618 6.5H12.8618V8.5C12.8618 9.05 13.3118 9.5 13.8618 9.5ZM8.86182 18.5C7.76182 18.5 6.87182 19.4 6.87182 20.5C6.87182 21.6 7.76182 22.5 8.86182 22.5C9.96182 22.5 10.8618 21.6 10.8618 20.5C10.8618 19.4 9.96182 18.5 8.86182 18.5ZM18.8618 18.5C17.7618 18.5 16.8718 19.4 16.8718 20.5C16.8718 21.6 17.7618 22.5 18.8618 22.5C19.9618 22.5 20.8618 21.6 20.8618 20.5C20.8618 19.4 19.9618 18.5 18.8618 18.5ZM9.96182 13.5H17.4118C18.1618 13.5 18.8218 13.09 19.1618 12.47L22.5418 6.34C22.8118 5.86 22.6318 5.25 22.1518 4.98C21.6718 4.72 21.0618 4.89 20.8018 5.37L17.4118 11.5H10.3918L6.40182 3.07C6.24182 2.72 5.88182 2.5 5.50182 2.5H3.86182C3.31182 2.5 2.86182 2.95 2.86182 3.5C2.86182 4.05 3.31182 4.5 3.86182 4.5H4.86182L8.46182 12.09L7.11182 14.53C6.38182 15.87 7.34182 17.5 8.86182 17.5H19.8618C20.4118 17.5 20.8618 17.05 20.8618 16.5C20.8618 15.95 20.4118 15.5 19.8618 15.5H8.86182L9.96182 13.5Z"
    fill="#FF6600"
  />
</svg>
