<svg width="25" height="24" viewBox="0 0 25 24" fill="none" xmlns="http://www.w3.org/2000/svg">
  <path
    d="M13.7347 3.03424C14.0812 2.94139 14.4509 3.04046 14.7046 3.29411L19.2946 7.89411H21.7646C22.3169 7.89411 22.7646 8.34183 22.7646 8.89411C22.7646 9.4464 22.3169 9.8941 21.7646 9.8941H20.7646L18.4346 19.0241C18.2579 19.6851 17.6588 20.1447 16.9746 20.1441H8.61465C7.93297 20.1436 7.33734 19.6836 7.16465 19.0241L4.76465 9.8941H3.76465C3.21237 9.8941 2.76465 9.4464 2.76465 8.89411C2.76465 8.34183 3.21237 7.89411 3.76465 7.89411H6.19465L10.7846 3.29411C11.1746 2.90639 11.8046 2.90639 12.1946 3.29411C12.3839 3.48188 12.4904 3.73748 12.4904 4.00411C12.4904 4.27075 12.3839 4.52635 12.1946 4.71411L9.01465 7.89411H16.4646L13.2846 4.71411C13.0309 4.46046 12.9319 4.09074 13.0247 3.74424C13.1176 3.39773 13.3882 3.12708 13.7347 3.03424ZM18.7646 9.8941H6.76465L8.92465 18.1441H16.5246L18.7646 9.8941ZM10.2446 11.0741C10.5208 11.0741 10.7446 11.298 10.7446 11.5741V16.4041C10.7446 16.6803 10.5208 16.9041 10.2446 16.9041C10.1093 16.8964 9.9826 16.8351 9.89254 16.7338C9.80247 16.6324 9.75646 16.4994 9.76465 16.3641V11.5741C9.76942 11.3076 9.97858 11.0898 10.2446 11.0741ZM12.7646 11.0741C13.0407 11.0741 13.2646 11.298 13.2646 11.5741V16.4041C13.2646 16.6803 13.0407 16.9041 12.7646 16.9041C12.6248 16.9046 12.4911 16.8464 12.3961 16.7438C12.3011 16.6412 12.2534 16.5035 12.2646 16.3641V11.5741C12.2646 11.298 12.4885 11.0741 12.7646 11.0741ZM15.2446 11.0741C15.5207 11.0741 15.7446 11.298 15.7446 11.5741V16.4041C15.7446 16.6803 15.5207 16.9041 15.2446 16.9041C15.1048 16.9046 14.9711 16.8464 14.8761 16.7438C14.7811 16.6412 14.7334 16.5035 14.7446 16.3641V11.5741C14.7446 11.298 14.9685 11.0741 15.2446 11.0741Z"
    fill="#FF6600"
  />
</svg>
