<svg
  width="24"
  height="24"
  viewBox="0 0 24 24"
  fill="none"
  xmlns="http://www.w3.org/2000/svg"
>
  <path
    d="M12.9701 3.03424C13.3166 2.94139 13.6863 3.04046 13.94 3.29411L18.53 7.89411H21C21.5523 7.89411 22 8.34183 22 8.89411C22 9.4464 21.5523 9.8941 21 9.8941H20L17.67 19.0241C17.4933 19.6851 16.8942 20.1447 16.21 20.1441H7.85C7.16832 20.1436 6.57269 19.6836 6.4 19.0241L4 9.8941H3C2.44772 9.8941 2 9.4464 2 8.89411C2 8.34183 2.44772 7.89411 3 7.89411H5.43L10.02 3.29411C10.41 2.90639 11.04 2.90639 11.43 3.29411C11.6193 3.48188 11.7258 3.73748 11.7258 4.00411C11.7258 4.27075 11.6193 4.52635 11.43 4.71411L8.25 7.89411H15.7L12.52 4.71411C12.2663 4.46046 12.1673 4.09074 12.2601 3.74424C12.353 3.39773 12.6236 3.12708 12.9701 3.03424ZM18 9.8941H6L8.16 18.1441H15.76L18 9.8941ZM9.48 11.0741C9.75614 11.0741 9.98 11.298 9.98 11.5741V16.4041C9.98 16.6803 9.75614 16.9041 9.48 16.9041C9.34465 16.8964 9.21795 16.8351 9.12789 16.7338C9.03782 16.6324 8.99181 16.4994 9 16.3641V11.5741C9.00477 11.3076 9.21393 11.0898 9.48 11.0741ZM12 11.0741C12.2761 11.0741 12.5 11.298 12.5 11.5741V16.4041C12.5 16.6803 12.2761 16.9041 12 16.9041C11.8602 16.9046 11.7265 16.8464 11.6315 16.7438C11.5365 16.6412 11.4888 16.5035 11.5 16.3641V11.5741C11.5 11.298 11.7239 11.0741 12 11.0741ZM14.48 11.0741C14.7561 11.0741 14.98 11.298 14.98 11.5741V16.4041C14.98 16.6803 14.7561 16.9041 14.48 16.9041C14.3402 16.9046 14.2065 16.8464 14.1115 16.7438C14.0165 16.6412 13.9688 16.5035 13.98 16.3641V11.5741C13.98 11.298 14.2039 11.0741 14.48 11.0741Z"
    fill="#FF6600"
  />
</svg>
