<svg width="25" height="24" viewBox="0 0 25 24" fill="none" xmlns="http://www.w3.org/2000/svg">
  <path
    fill-rule="evenodd"
    clip-rule="evenodd"
    d="M6.76465 3V19.666L11.9506 14.7249C12.4064 14.2907 13.1228 14.2907 13.5786 14.7249L18.7646 19.666V3H6.76465ZM4.76465 2.18C4.76465 1.5283 5.29295 1 5.94465 1H19.5846C20.2363 1 20.7646 1.5283 20.7646 2.18V21.5799C20.7646 22.2316 20.2363 22.7599 19.5846 22.7599C19.2815 22.7599 18.9901 22.6433 18.7706 22.4342L12.7646 16.7118L6.75862 22.4342C6.28679 22.8837 5.53987 22.8657 5.09033 22.3939C4.88127 22.1745 4.76465 21.883 4.76465 21.5799V2.18Z"
    fill="#FF6600"
  />
</svg>
