<svg
  width="24"
  height="24"
  viewBox="0 0 24 24"
  fill="none"
  xmlns="http://www.w3.org/2000/svg"
>
  <path
    fill-rule="evenodd"
    clip-rule="evenodd"
    d="M6 3V19.666L11.186 14.7249C11.6418 14.2907 12.3582 14.2907 12.814 14.7249L18 19.666V3H6ZM4 2.18C4 1.5283 4.5283 1 5.18 1H18.82C19.4717 1 20 1.5283 20 2.18V21.5799C20 22.2316 19.4717 22.7599 18.82 22.7599C18.5169 22.7599 18.2255 22.6433 18.006 22.4342L12 16.7118L5.99397 22.4342C5.52214 22.8837 4.77522 22.8657 4.32568 22.3939C4.11662 22.1745 4 21.883 4 21.5799V2.18Z"
    fill="#FF6600"
  />
</svg>
