<svg
  width="24"
  height="24"
  viewBox="0 0 24 24"
  fill="none"
  xmlns="http://www.w3.org/2000/svg"
>
  <path
    d="M20.4235 11.74C18.2378 8.82571 15.2635 7 11.9892 7C8.71493 7 5.74064 8.82571 3.55493 11.74C3.37492 11.9784 3.37492 12.3073 3.55493 12.5457C5.74064 15.46 8.71493 17.2857 11.9892 17.2857C15.2635 17.2857 18.2378 15.4943 20.4235 12.58C20.6214 12.335 20.6214 11.985 20.4235 11.74ZM13.7035 12.1429C13.7035 13.0896 12.936 13.8571 11.9892 13.8571C11.0424 13.8571 10.2749 13.0896 10.2749 12.1429C10.2696 11.2651 10.9282 10.5251 11.8006 10.4286H11.9892H12.1692C13.0451 10.521 13.7084 11.2621 13.7035 12.1429ZM5.4235 12.1429C6.85368 10.3197 8.93248 9.1191 11.2264 8.79143C9.65298 9.1593 8.55001 10.5758 8.57893 12.1913C8.60785 13.8069 9.76082 15.183 11.3464 15.4943C9.00535 15.208 6.87439 14.0022 5.4235 12.1429ZM12.7435 8.79143C15.0399 9.1187 17.1215 10.3192 18.5549 12.1429C17.097 14.0084 14.9567 15.2173 12.6064 15.5029C14.2025 15.204 15.3701 13.8264 15.4032 12.2029C15.4364 10.5794 14.3261 9.1552 12.7435 8.79143Z"
    fill="#FF6600"
  />
</svg>
