<svg
  width="24"
  height="24"
  viewBox="0 0 24 24"
  fill="none"
  xmlns="http://www.w3.org/2000/svg"
>
  <path
    d="M16.7999 16.4399L15.2999 14.9399L14.8299 14.4699L13.4199 13.0599L10.5999 10.2399L9.17988 8.80995L8.72988 8.36995L7.22988 6.86995L2.85988 2.49995C2.76599 2.40529 2.63819 2.35205 2.50488 2.35205C2.37156 2.35205 2.24376 2.40529 2.14988 2.49995C2.0532 2.59068 1.99836 2.71736 1.99836 2.84995C1.99836 2.98254 2.0532 3.10922 2.14988 3.19995L6.32987 7.37995C4.70893 8.36732 3.29317 9.6575 2.15988 11.18C1.92587 11.4722 1.92587 11.8877 2.15988 12.18C4.70988 15.58 8.15988 17.67 11.9999 17.67C13.3092 17.6636 14.6054 17.4091 15.8199 16.92L20.4499 21.5499C20.5438 21.6446 20.6716 21.6978 20.8049 21.6978C20.9382 21.6978 21.066 21.6446 21.1599 21.5499C21.3504 21.3555 21.3504 21.0444 21.1599 20.85L16.7999 16.4399ZM12.5099 13.57C12.3501 13.6135 12.1855 13.637 12.0199 13.6399C10.9153 13.6399 10.0199 12.7445 10.0199 11.6399C10.0222 11.4644 10.0457 11.2898 10.0899 11.1199L12.5099 13.57ZM4.33988 11.66C5.29438 10.5086 6.4582 9.5484 7.76988 8.82995L8.56988 9.62C8.20235 10.2227 8.00535 10.914 7.99988 11.6199C8.00422 13.5365 9.36734 15.1806 11.2499 15.5399C8.52474 15.2093 6.04087 13.8146 4.33988 11.66ZM11.9999 5.69995C15.8399 5.69995 19.2899 7.78995 21.8399 11.1899C22.044 11.4725 22.0359 11.8563 21.8199 12.1299C20.6984 13.6478 19.3007 14.9404 17.6999 15.9399L16.2399 14.4799C17.5354 13.7547 18.6876 12.799 19.6399 11.66C17.9703 9.5292 15.5404 8.1278 12.8599 7.74995C14.0955 8.03605 15.1222 8.89118 15.627 10.0547C16.1319 11.2182 16.055 12.5521 15.4199 13.65L13.9099 12.1399L13.9465 11.9611C14.0314 11.4225 13.8929 10.8693 13.5578 10.4325C13.1855 9.9471 12.6115 9.6588 11.9999 9.65L11.8314 9.6592C11.7195 9.6701 11.6086 9.6904 11.4999 9.72L9.99988 8.20995C10.3422 7.99684 10.7172 7.84144 11.1099 7.74995C10.6638 7.79752 10.2224 7.88113 9.78988 7.99995L8.20988 6.41995C9.41847 5.94993 10.7031 5.70588 11.9999 5.69995ZM14.0199 15.08L14.2299 15.2899C13.736 15.4284 13.2306 15.5221 12.7199 15.57C13.1793 15.4868 13.6198 15.3208 14.0199 15.08Z"
    fill="#FF6600"
  />
</svg>
