<svg width="25" height="24" viewBox="0 0 25 24" fill="none" xmlns="http://www.w3.org/2000/svg">
  <path
    d="M21.1881 11.74C19.0024 8.82571 16.0281 7 12.7538 7C9.47958 7 6.50529 8.82571 4.31958 11.74C4.13957 11.9784 4.13957 12.3073 4.31958 12.5457C6.50529 15.46 9.47958 17.2857 12.7538 17.2857C16.0281 17.2857 19.0024 15.4943 21.1881 12.58C21.386 12.335 21.386 11.985 21.1881 11.74ZM14.4681 12.1429C14.4681 13.0896 13.7006 13.8571 12.7538 13.8571C11.807 13.8571 11.0395 13.0896 11.0395 12.1429C11.0342 11.2651 11.6928 10.5251 12.5652 10.4286H12.7538H12.9338C13.8097 10.521 14.473 11.2621 14.4681 12.1429ZM6.18815 12.1429C7.61833 10.3197 9.69713 9.1191 11.991 8.79143C10.4176 9.1593 9.31466 10.5758 9.34358 12.1913C9.3725 13.8069 10.5255 15.183 12.111 15.4943C9.77 15.208 7.63904 14.0022 6.18815 12.1429ZM13.5081 8.79143C15.8045 9.1187 17.8861 10.3192 19.3195 12.1429C17.8616 14.0084 15.7213 15.2173 13.371 15.5029C14.9671 15.204 16.1347 13.8264 16.1678 12.2029C16.201 10.5794 15.0907 9.1552 13.5081 8.79143Z"
    fill="#FF6600"
  />
</svg>
