<svg width="25" height="24" viewBox="0 0 25 24" fill="none" xmlns="http://www.w3.org/2000/svg">
  <path
    d="M17.5646 16.4399L16.0646 14.9399L15.5946 14.4699L14.1846 13.0599L11.3646 10.2399L9.94453 8.80995L9.49453 8.36995L7.99453 6.86995L3.62453 2.49995C3.53064 2.40529 3.40284 2.35205 3.26953 2.35205C3.13621 2.35205 3.00841 2.40529 2.91453 2.49995C2.81785 2.59068 2.76301 2.71736 2.76301 2.84995C2.76301 2.98254 2.81785 3.10922 2.91453 3.19995L7.09452 7.37995C5.47358 8.36732 4.05782 9.6575 2.92453 11.18C2.69052 11.4722 2.69052 11.8877 2.92453 12.18C5.47453 15.58 8.92453 17.67 12.7646 17.67C14.0739 17.6636 15.3701 17.4091 16.5846 16.92L21.2146 21.5499C21.3085 21.6446 21.4362 21.6978 21.5695 21.6978C21.7029 21.6978 21.8307 21.6446 21.9246 21.5499C22.1151 21.3555 22.1151 21.0444 21.9246 20.85L17.5646 16.4399ZM13.2746 13.57C13.1148 13.6135 12.9502 13.637 12.7846 13.6399C11.68 13.6399 10.7846 12.7445 10.7846 11.6399C10.7869 11.4644 10.8104 11.2898 10.8546 11.1199L13.2746 13.57ZM5.10453 11.66C6.05903 10.5086 7.22285 9.5484 8.53453 8.82995L9.33453 9.62C8.967 10.2227 8.77 10.914 8.76453 11.6199C8.76887 13.5365 10.132 15.1806 12.0146 15.5399C9.28939 15.2093 6.80552 13.8146 5.10453 11.66ZM12.7646 5.69995C16.6046 5.69995 20.0546 7.78995 22.6045 11.1899C22.8086 11.4725 22.8006 11.8563 22.5846 12.1299C21.4631 13.6478 20.0654 14.9404 18.4646 15.9399L17.0046 14.4799C18.3001 13.7547 19.4523 12.799 20.4046 11.66C18.735 9.5292 16.3051 8.1278 13.6246 7.74995C14.8602 8.03605 15.8869 8.89118 16.3917 10.0547C16.8966 11.2182 16.8197 12.5521 16.1846 13.65L14.6746 12.1399L14.7112 11.9611C14.7961 11.4225 14.6576 10.8693 14.3225 10.4325C13.9502 9.9471 13.3762 9.6588 12.7646 9.65L12.5961 9.6592C12.4842 9.6701 12.3733 9.6904 12.2646 9.72L10.7645 8.20995C11.1069 7.99684 11.4819 7.84144 11.8746 7.74995C11.4285 7.79752 10.9871 7.88113 10.5545 7.99995L8.97453 6.41995C10.1831 5.94993 11.4678 5.70588 12.7646 5.69995ZM14.7846 15.08L14.9946 15.2899C14.5007 15.4284 13.9953 15.5221 13.4846 15.57C13.944 15.4868 14.3845 15.3208 14.7846 15.08Z"
    fill="#FF6600"
  />
</svg>
