<svg width="56" height="56" viewBox="0 0 56 56" fill="none" xmlns="http://www.w3.org/2000/svg">
  <path
    d="M33.1036 14.0715C32.7717 13.635 32.4014 13.2403 31.9989 12.8937C32.0562 12.5963 32.0849 12.2924 32.0845 11.9876C32.1014 9.88856 30.7058 8.1406 28.907 8.00801C27.1082 7.87541 25.5345 9.40449 25.3241 11.4893C20.4921 12.5586 16.7161 16.967 15.8099 22.5973L15.1098 26.8104C14.8296 26.992 14.5685 27.2109 14.3318 27.4627C13.4852 28.3885 13.004 29.68 13.0015 31.0325V41.905C12.9593 43.2242 13.7841 44.3652 14.9075 44.5415L27.7747 46.8791C27.8885 46.8921 28.0031 46.8921 28.117 46.8791C28.6481 46.8801 29.1618 46.6581 29.5639 46.254L29.7584 46.0274L33.9126 41.9322C34.0216 41.8173 34.123 41.6932 34.216 41.5607C35.7299 40.7647 37.1062 39.6532 38.2769 38.2808C40.6825 35.5771 42.0795 31.8805 42.1666 27.9882C42.1821 20.9846 38.2457 15.1678 33.1036 14.0715ZM28.6926 10.248C29.4166 10.2674 30.0207 10.8979 30.1163 11.7339C29.4129 11.4462 28.6754 11.2873 27.9302 11.2628H27.3779C27.607 10.6532 28.1213 10.2563 28.6926 10.248ZM28.3815 44.2788C28.3809 44.3739 28.3438 44.4637 28.2803 44.5234C28.2207 44.5844 28.1408 44.611 28.0625 44.5959L15.2031 42.2583C15.0681 42.2356 14.9683 42.1001 14.9697 41.9412V31.0688C14.9707 30.3419 15.2293 29.6477 15.6843 29.1503C16.1394 28.6529 16.7507 28.3963 17.3736 28.4413L26.281 29.1117C27.4505 29.2144 28.3607 30.3372 28.3815 31.703V44.2788ZM32.9246 39.4677C32.9302 39.7482 32.8239 40.0159 32.6368 40.1926L30.303 42.4758V31.703C30.2994 29.122 28.578 26.9864 26.3666 26.8195L17.4903 26.149H17.1947L17.7081 23.0322C18.6372 17.3886 22.9438 13.3629 27.8758 13.5279C30.7007 13.602 32.9536 16.2985 32.9402 19.5893L32.9246 39.4677ZM36.9388 36.6771C36.3257 37.3858 35.6504 38.0174 34.9239 38.5617V36.206C37.1255 34.0587 38.6269 30.7698 38.6269 27.9792C38.6989 24.5567 37.3088 21.3153 34.9162 19.3265C34.8952 18.5127 34.7721 17.7068 34.5505 16.9346C37.8957 18.6289 40.2762 22.9416 40.2762 27.9792C40.1862 31.2761 38.9876 34.3998 36.9388 36.6771ZM34.9239 32.9805V22.3074C36.0836 23.8854 36.7088 25.9023 36.6821 27.9792C36.5668 29.8298 35.9358 31.5859 34.885 32.9805H34.9239ZM25.3942 33.1074C25.3574 33.7008 24.9326 34.1599 24.4217 34.1584H24.3517L17.2491 33.5876C16.7121 33.545 16.3063 33.0035 16.3428 32.378C16.3793 31.7525 16.8443 31.2799 17.3814 31.3225L24.484 31.8933C25.0051 31.9643 25.3877 32.4974 25.3553 33.1074H25.3942Z"
    fill="black"
  />
</svg>
