<svg
  width="24"
  height="24"
  viewBox="0 0 24 24"
  fill="none"
  xmlns="http://www.w3.org/2000/svg"
>
  <path
    d="M13.503 3C13.9269 3.00493 14.268 3.35002 14.268 3.774V4.799L15.213 4.8C16.7173 4.80426 18.003 5.86088 18.3116 7.31607L18.345 7.5H20.01C20.5071 7.5 20.91 7.90294 20.91 8.4C20.91 8.89706 20.5071 9.3 20.01 9.3H19.569L19.713 9.417C20.4453 10.0902 20.9035 11.0099 21 12V16.257C20.9977 16.9837 20.6061 17.6535 19.974 18.012V20.1C19.974 20.5971 19.5711 21 19.074 21H17.274C16.7769 21 16.374 20.5971 16.374 20.1V18.3H7.599V20.1C7.599 20.5971 7.19606 21 6.699 21H4.899C4.40194 21 3.999 20.5971 3.999 20.1V17.994C3.38279 17.6319 3.00312 16.9717 3 16.257V12C3.17373 11.0916 3.62311 10.2589 4.287 9.615C4.39814 9.5003 4.51855 9.3949 4.647 9.3H3.9C3.40294 9.3 3 8.89706 3 8.4C3 7.90294 3.40294 7.5 3.9 7.5H5.7C5.93527 5.95076 7.265 4.80443 8.832 4.8L9.768 4.799V3.774C9.77246 3.38402 10.0616 3.06271 10.4375 3.00813L10.542 3H13.503ZM6.699 12.9C6.20194 12.9 5.799 13.3029 5.799 13.8C5.799 14.2971 6.20194 14.7 6.699 14.7C7.19606 14.7 7.599 14.2971 7.599 13.8C7.599 13.3029 7.19606 12.9 6.699 12.9ZM13.8 12.9H10.29C9.79294 12.9 9.39 13.3029 9.39 13.8L9.39701 13.9129C9.45255 14.3567 9.83118 14.7 10.29 14.7H13.8C14.2971 14.7 14.7 14.2971 14.7 13.8C14.7 13.3029 14.2971 12.9 13.8 12.9ZM17.328 12.9C16.8309 12.9 16.428 13.3029 16.428 13.8C16.428 14.2971 16.8309 14.7 17.328 14.7L17.322 14.699H17.3973C17.5604 14.6864 17.7171 14.6295 17.8503 14.5345L17.9456 14.4563C18.1262 14.2859 18.2284 14.0484 18.228 13.8C18.228 13.3029 17.8251 12.9 17.328 12.9ZM15.213 6.6H8.832C8.0842 6.62914 7.49457 7.24665 7.49996 7.995V8.4H16.599V7.986C16.599 7.61841 16.453 7.26588 16.1931 7.00595C15.9331 6.74602 15.5806 6.6 15.213 6.6Z"
    fill="#FF6600"
  />
</svg>
