<svg width="25" height="24" viewBox="0 0 25 24" fill="none" xmlns="http://www.w3.org/2000/svg">
  <path
    d="M10.2846 2.86C10.29 2.38729 10.6719 2.0054 11.1446 2H14.4346C14.9057 2.00548 15.2846 2.38891 15.2846 2.86V4H16.3346C18.0757 4.00493 19.5532 5.27862 19.8146 7H21.6646C22.2169 7 22.6646 7.44772 22.6646 8C22.6646 8.55228 22.2169 9 21.6646 9H21.1746L21.3346 9.13C22.1483 9.8781 22.6574 10.8999 22.7646 12V16.73C22.762 17.5375 22.327 18.2817 21.6246 18.68V21C21.6246 21.5523 21.1769 22 20.6246 22H18.6246C18.0723 22 17.6246 21.5523 17.6246 21V19H7.87465V21C7.87465 21.5523 7.42693 22 6.87465 22H4.87465C4.32237 22 3.87465 21.5523 3.87465 21V18.66C3.18998 18.2576 2.76812 17.5241 2.76465 16.73V12C2.95768 10.9907 3.457 10.0654 4.19465 9.35C4.31814 9.2225 4.45193 9.1055 4.59465 9H3.76465C3.21237 9 2.76465 8.55228 2.76465 8C2.76465 7.44772 3.21237 7 3.76465 7H5.76465C6.02606 5.27862 7.50354 4.00493 9.24465 4H10.2846V2.86ZM18.5546 10H7.06465C6.5088 10.1185 5.99657 10.3884 5.58465 10.78C5.18315 11.1707 4.89909 11.6661 4.76465 12.21V16.73C4.76465 16.8736 4.88106 16.99 5.02465 16.99H20.5046C20.6482 16.99 20.7646 16.8736 20.7646 16.73V12.11C20.6878 11.5364 20.4159 11.0068 19.9946 10.61C19.5941 10.2548 19.0883 10.0406 18.5546 10ZM14.7646 13C15.3169 13 15.7646 13.4477 15.7646 14C15.7646 14.5523 15.3169 15 14.7646 15H10.8646C10.3124 15 9.86465 14.5523 9.86465 14C9.86465 13.4477 10.3124 13 10.8646 13H14.7646ZM6.87465 12.96C7.42693 12.96 7.87465 13.4077 7.87465 13.96C7.87465 14.5123 7.42693 14.96 6.87465 14.96C6.32237 14.96 5.87465 14.5123 5.87465 13.96C5.87465 13.4077 6.32237 12.96 6.87465 12.96ZM18.6246 12.96C19.1769 12.96 19.6246 13.4077 19.6246 13.96C19.6246 14.5123 19.1769 14.96 18.6246 14.96C18.0723 14.96 17.6246 14.5123 17.6246 13.96C17.6246 13.4077 18.0723 12.96 18.6246 12.96ZM16.3346 6H9.24465C8.83448 6 8.44125 6.16361 8.15215 6.45459C7.86306 6.74556 7.70199 7.13984 7.70462 7.55V8H17.8746V7.54C17.8746 7.13157 17.7124 6.73986 17.4235 6.45106C17.1347 6.16225 16.743 6 16.3346 6Z"
    fill="#FF6600"
  />
</svg>
