<svg
  width="24"
  height="24"
  viewBox="0 0 24 24"
  fill="none"
  xmlns="http://www.w3.org/2000/svg"
>
  <path
    d="M9.52 2.86C9.5254 2.38729 9.90729 2.0054 10.38 2H13.67C14.1411 2.00548 14.52 2.38891 14.52 2.86V4H15.57C17.3111 4.00493 18.7886 5.27862 19.05 7H20.9C21.4523 7 21.9 7.44772 21.9 8C21.9 8.55228 21.4523 9 20.9 9H20.41L20.57 9.13C21.3837 9.8781 21.8928 10.8999 22 12V16.73C21.9974 17.5375 21.5624 18.2817 20.86 18.68V21C20.86 21.5523 20.4123 22 19.86 22H17.86C17.3077 22 16.86 21.5523 16.86 21V19H7.11V21C7.11 21.5523 6.66228 22 6.11 22H4.11C3.55772 22 3.11 21.5523 3.11 21V18.66C2.42533 18.2576 2.00347 17.5241 2 16.73V12C2.19303 10.9907 2.69235 10.0654 3.43 9.35C3.55349 9.2225 3.68728 9.1055 3.83 9H3C2.44772 9 2 8.55228 2 8C2 7.44772 2.44772 7 3 7H5C5.26141 5.27862 6.73889 4.00493 8.48 4H9.52V2.86ZM17.79 10H6.3C5.74415 10.1185 5.23192 10.3884 4.82 10.78C4.4185 11.1707 4.13444 11.6661 4 12.21V16.73C4 16.8736 4.11641 16.99 4.26 16.99H19.74C19.8836 16.99 20 16.8736 20 16.73V12.11C19.9232 11.5364 19.6513 11.0068 19.23 10.61C18.8295 10.2548 18.3237 10.0406 17.79 10ZM14 13C14.5523 13 15 13.4477 15 14C15 14.5523 14.5523 15 14 15H10.1C9.54772 15 9.1 14.5523 9.1 14C9.1 13.4477 9.54772 13 10.1 13H14ZM6.11 12.96C6.66228 12.96 7.11 13.4077 7.11 13.96C7.11 14.5123 6.66228 14.96 6.11 14.96C5.55772 14.96 5.11 14.5123 5.11 13.96C5.11 13.4077 5.55772 12.96 6.11 12.96ZM17.86 12.96C18.4123 12.96 18.86 13.4077 18.86 13.96C18.86 14.5123 18.4123 14.96 17.86 14.96C17.3077 14.96 16.86 14.5123 16.86 13.96C16.86 13.4077 17.3077 12.96 17.86 12.96ZM15.57 6H8.48C8.06983 6 7.6766 6.16361 7.3875 6.45459C7.09841 6.74556 6.93734 7.13984 6.93997 7.55V8H17.11V7.54C17.11 7.13157 16.9478 6.73986 16.6589 6.45106C16.3701 6.16225 15.9784 6 15.57 6Z"
    fill="#FF6600"
  />
</svg>
