<svg width="25" height="24" viewBox="0 0 25 24" fill="none" xmlns="http://www.w3.org/2000/svg">
  <path
    d="M14.2676 3C14.6915 3.00493 15.0326 3.35002 15.0326 3.774V4.799L15.9776 4.8C17.4819 4.80426 18.7676 5.86088 19.0762 7.31607L19.1096 7.5H20.7746C21.2717 7.5 21.6746 7.90294 21.6746 8.4C21.6746 8.89706 21.2717 9.3 20.7746 9.3H20.3336L20.4776 9.417C21.2099 10.0902 21.6681 11.0099 21.7646 12V16.257C21.7623 16.9837 21.3707 17.6535 20.7386 18.012V20.1C20.7386 20.5971 20.3357 21 19.8386 21H18.0386C17.5415 21 17.1386 20.5971 17.1386 20.1V18.3H8.36365V20.1C8.36365 20.5971 7.96071 21 7.46365 21H5.66365C5.16659 21 4.76365 20.5971 4.76365 20.1V17.994C4.14744 17.6319 3.76777 16.9717 3.76465 16.257V12C3.93838 11.0916 4.38776 10.2589 5.05165 9.615C5.16279 9.5003 5.2832 9.3949 5.41165 9.3H4.66465C4.16759 9.3 3.76465 8.89706 3.76465 8.4C3.76465 7.90294 4.16759 7.5 4.66465 7.5H6.46465C6.69992 5.95076 8.02965 4.80443 9.59665 4.8L10.5326 4.799V3.774C10.5371 3.38402 10.8262 3.06271 11.2021 3.00813L11.3066 3H14.2676ZM7.46365 12.9C6.96659 12.9 6.56365 13.3029 6.56365 13.8C6.56365 14.2971 6.96659 14.7 7.46365 14.7C7.96071 14.7 8.36365 14.2971 8.36365 13.8C8.36365 13.3029 7.96071 12.9 7.46365 12.9ZM14.5646 12.9H11.0546C10.5576 12.9 10.1546 13.3029 10.1546 13.8L10.1617 13.9129C10.2172 14.3567 10.5958 14.7 11.0546 14.7H14.5646C15.0617 14.7 15.4646 14.2971 15.4646 13.8C15.4646 13.3029 15.0617 12.9 14.5646 12.9ZM18.0926 12.9C17.5955 12.9 17.1926 13.3029 17.1926 13.8C17.1926 14.2971 17.5955 14.7 18.0926 14.7L18.0866 14.699H18.1619C18.325 14.6864 18.4817 14.6295 18.6149 14.5345L18.7102 14.4563C18.8908 14.2859 18.993 14.0484 18.9926 13.8C18.9926 13.3029 18.5897 12.9 18.0926 12.9ZM15.9776 6.6H9.59665C8.84885 6.62914 8.25922 7.24665 8.26461 7.995V8.4H17.3636V7.986C17.3636 7.61841 17.2176 7.26588 16.9577 7.00595C16.6977 6.74602 16.3452 6.6 15.9776 6.6Z"
    fill="#FF6600"
  />
</svg>
