<svg
  width="24"
  height="24"
  viewBox="0 0 24 24"
  fill="none"
  xmlns="http://www.w3.org/2000/svg"
>
  <path
    d="M19.4 8.74999C20.0378 8.732 20.6625 8.93318 21.17 9.32C21.3893 9.449 21.5229 9.6855 21.52 9.94C21.5001 10.2279 21.2682 10.4555 20.98 10.47C20.8063 10.4997 20.6294 10.4395 20.51 10.31C20.197 10.0473 19.7985 9.9086 19.39 9.92C18.8 9.92 18.52 10.19 18.52 10.59C18.52 10.99 18.79 11.2 19.72 11.4C21.06 11.69 21.75 12.28 21.75 13.37C21.754 13.9164 21.5226 14.4381 21.1148 14.8018C20.707 15.1656 20.1624 15.3362 19.62 15.27C18.8209 15.2724 18.0514 14.9682 17.47 14.42C17.3168 14.2833 17.2205 14.0942 17.2 13.89C17.1826 13.7349 17.2331 13.58 17.3386 13.4649C17.444 13.3499 17.594 13.2861 17.75 13.29C17.9374 13.2958 18.1129 13.3835 18.23 13.53C18.5904 13.9196 19.0993 14.1377 19.63 14.13C20.23 14.13 20.57 13.8 20.57 13.41C20.57 13.02 20.29 12.82 19.4 12.6C18.19 12.32 17.33 11.77 17.33 10.6C17.3326 10.0708 17.5593 9.5676 17.9539 9.215C18.3484 8.86234 18.8739 8.69339 19.4 8.74999ZM5.19 8.85999C5.45877 8.84416 5.7079 9.0009 5.81 9.25L8.14 14.29C8.171 14.3698 8.18792 14.4544 8.19 14.54C8.17658 14.8346 7.96357 15.0819 7.6742 15.1388C7.38482 15.1958 7.09402 15.0476 6.97 14.78L6.49 13.58C6.47299 13.5406 6.43275 13.5165 6.39 13.52H4.09C4.04999 13.5177 4.01329 13.5422 4 13.58L3.47 14.74C3.37715 14.9681 3.15626 15.118 2.91 15.12C2.74024 15.1254 2.5753 15.0631 2.45151 14.9468C2.32771 14.8305 2.25522 14.6698 2.25 14.5C2.25448 14.4125 2.27839 14.3271 2.32 14.25L4.59 9.25C4.694 9.0117 4.93 8.85829 5.19 8.85999ZM15.57 8.84999C15.7406 8.84727 15.9049 8.91382 16.0256 9.0344C16.1462 9.1551 16.2127 9.3194 16.21 9.49V14.49C16.21 14.8435 15.9235 15.13 15.57 15.13C15.2165 15.13 14.93 14.8435 14.93 14.49V9.49C14.9273 9.3194 14.9938 9.1551 15.1144 9.0344C15.2351 8.91382 15.3994 8.84727 15.57 8.84999ZM11.84 8.84999C12.4136 8.80328 12.9795 9.0059 13.3931 9.4061C13.8066 9.8063 14.0278 10.3652 14 10.94L14.0005 11.1154C13.9797 11.6392 13.7616 12.1385 13.3861 12.5105C12.9689 12.9239 12.3964 13.1416 11.81 13.11H10.44C10.33 13.11 10.33 13.16 10.33 13.24V14.49C10.33 14.7186 10.208 14.9299 10.01 15.0443C9.81198 15.1586 9.56802 15.1586 9.37 15.0443C9.17198 14.9299 9.05 14.7186 9.05 14.49V9.49C9.04727 9.3194 9.11382 9.1551 9.23444 9.0344C9.35506 8.91382 9.51944 8.84727 9.69 8.84999H11.84ZM5.31 10.82C5.28 10.71 5.12 10.71 5.12 10.82L4.53 12.24C4.51662 12.2706 4.51944 12.306 4.53753 12.3341C4.55561 12.3622 4.58656 12.3794 4.62 12.38H5.82C5.85278 12.3835 5.88487 12.3688 5.90363 12.3417C5.9224 12.3146 5.92484 12.2794 5.91 12.25L5.31 10.82ZM11.79 9.98H10.44C10.33 9.98 10.33 10.02 10.33 10.1V11.87C10.33 11.95 10.36 12 10.44 12H11.79C12.38 12 12.71 11.57 12.71 10.98C12.7585 10.7172 12.6805 10.447 12.4996 10.2503C12.3187 10.0537 12.0559 9.9536 11.79 9.98Z"
    fill="#FF6600"
  />
</svg>
