<svg
  width="24"
  height="24"
  viewBox="0 0 24 24"
  fill="none"
  xmlns="http://www.w3.org/2000/svg"
>
  <path
    d="M8.09018 8.37995C8.913 8.36577 9.71646 8.63007 10.3702 9.1299C10.5482 9.2629 10.6581 9.4681 10.6702 9.6899C10.6702 10.06 10.3702 10.3599 10.0002 10.3599C9.81093 10.3396 9.6344 10.2549 9.50018 10.1199C9.09145 9.8051 8.58582 9.6425 8.07018 9.6599C7.45425 9.6289 6.85603 9.8714 6.43565 10.3226C6.01526 10.7739 5.81563 11.3878 5.89018 11.9999C5.822 12.6089 6.0245 13.2171 6.44411 13.6637C6.86372 14.1102 7.45816 14.3501 8.07018 14.3199C8.61701 14.3333 9.14885 14.1405 9.56018 13.7799C9.752 13.6012 10.0315 13.5529 10.2721 13.657C10.5128 13.761 10.6691 13.9977 10.6702 14.2599C10.6662 14.4377 10.5861 14.6053 10.4502 14.7199C9.80296 15.3032 8.96145 15.6242 8.09018 15.6199C7.10405 15.69 6.13523 15.3337 5.4295 14.6414C4.72378 13.9491 4.34898 12.9872 4.40018 11.9999C4.33202 11.0081 4.70143 10.036 5.41115 9.3398C6.12087 8.64353 7.09979 8.29281 8.09018 8.37995ZM19.4802 8.36995C20.1998 8.34126 20.9069 8.56401 21.4802 8.99995C21.7424 9.1389 21.9047 9.4132 21.9002 9.7099C21.8758 10.0289 21.6195 10.2809 21.3002 10.2999C21.1048 10.3293 20.9073 10.2622 20.7702 10.1199C20.4257 9.8246 19.9838 9.6678 19.5302 9.6799C18.8502 9.6799 18.5302 9.9899 18.5302 10.4299C18.5302 10.8699 18.8702 11.1099 19.8702 11.3299C21.3602 11.6499 22.1202 12.3099 22.1302 13.4299C22.1348 14.035 21.8783 14.6127 21.4262 15.0149C20.9742 15.4172 20.3706 15.6049 19.7702 15.5299C18.8826 15.5338 18.0273 15.1974 17.3802 14.5899C17.2097 14.4379 17.1026 14.2273 17.0802 13.9999C17.063 13.829 17.1199 13.6588 17.2365 13.5326C17.3532 13.4064 17.5184 13.3362 17.6902 13.3399C17.8962 13.3456 18.0896 13.4405 18.2202 13.5999C18.622 14.0339 19.1888 14.2774 19.7802 14.2699C20.4002 14.2699 20.7802 13.8999 20.7802 13.4699C20.7802 13.0399 20.4802 12.8099 19.4802 12.5699C18.1802 12.2799 17.1802 11.6699 17.1802 10.3699C17.1991 9.792 17.4579 9.248 17.8942 8.86858C18.3306 8.48914 18.9052 8.30848 19.4802 8.36995ZM2.59018 8.49995C2.78014 8.49436 2.964 8.56737 3.09838 8.70175C3.23277 8.83613 3.30577 9.02 3.30018 9.2099V14.7899C3.30577 14.9799 3.23277 15.1638 3.09838 15.2982C2.964 15.4325 2.78014 15.5055 2.59018 15.4999C2.40022 15.5055 2.21636 15.4325 2.08198 15.2982C1.9476 15.1638 1.87459 14.9799 1.88018 14.7899V9.2099C1.87459 9.02 1.9476 8.83613 2.08198 8.70175C2.21636 8.56737 2.40022 8.49436 2.59018 8.49995ZM11.6102 8.49995H16.1802C16.3505 8.48873 16.5178 8.5494 16.6413 8.66723C16.7648 8.78506 16.8334 8.94926 16.8302 9.1199C16.833 9.2896 16.7662 9.4531 16.6452 9.5721C16.5243 9.6912 16.3598 9.7554 16.1902 9.7499H14.7402C14.6102 9.7499 14.6102 9.7999 14.6102 9.8899V14.7899C14.6102 15.1821 14.2923 15.4999 13.9002 15.4999C13.5081 15.4999 13.1902 15.1821 13.1902 14.7899V9.8899C13.1902 9.7999 13.1502 9.7499 13.0602 9.7499H11.6102C11.368 9.7806 11.1299 9.6687 10.9991 9.4626C10.8683 9.2565 10.8683 8.99339 10.9991 8.78731C11.1299 8.58122 11.368 8.46926 11.6102 8.49995Z"
    fill="#FF6600"
  />
</svg>
