<svg
  width="24"
  height="24"
  viewBox="0 0 24 24"
  fill="none"
  xmlns="http://www.w3.org/2000/svg"
>
  <path
    d="M19.2611 8.49989C19.5033 8.46919 19.7414 8.58116 19.8722 8.78724C20.0031 8.99333 20.0031 9.2564 19.8722 9.4625C19.7414 9.6686 19.5033 9.7806 19.2611 9.7499H16.3311C16.2511 9.7499 16.2111 9.7999 16.2111 9.8899V11.3399C16.2111 11.4299 16.2511 11.4799 16.3311 11.4799H18.8611C19.1033 11.4492 19.3414 11.5612 19.4722 11.7672C19.6031 11.9733 19.6031 12.2364 19.4722 12.4425C19.3414 12.6486 19.1033 12.7606 18.8611 12.7299H16.3311C16.2111 12.7299 16.2111 12.7799 16.2111 12.8699V14.7899C16.2111 15.182 15.8933 15.4999 15.5011 15.4999C15.109 15.4999 14.7911 15.182 14.7911 14.7899V9.2099C14.7855 9.0199 14.8586 8.83607 14.9929 8.70169C15.1273 8.5673 15.3112 8.4943 15.5011 8.49989H19.2611ZM9.65016 8.49989C9.841 8.49441 10.0258 8.56712 10.1617 8.70118C10.2977 8.83523 10.373 9.019 10.3702 9.2099V14.7899C10.373 14.9808 10.2977 15.1645 10.1617 15.2986C10.0258 15.4327 9.841 15.5054 9.65016 15.4999C9.43259 15.4978 9.22726 15.3988 9.09016 15.2299L5.75016 11.2999C5.65016 11.1999 5.53016 11.2499 5.53016 11.3699V14.7899C5.53016 15.182 5.21228 15.4999 4.82016 15.4999C4.42804 15.4999 4.11016 15.182 4.11016 14.7899V9.2099C4.10457 9.0199 4.17758 8.83607 4.31196 8.70169C4.44634 8.5673 4.6302 8.4943 4.82016 8.49989C5.04092 8.50036 5.24995 8.59937 5.39016 8.76989L8.73016 12.7099C8.80016 12.7999 8.95016 12.7899 8.95016 12.6399V9.2099C8.94468 9.0217 9.01634 8.83945 9.14852 8.70538C9.2807 8.57131 9.46192 8.49708 9.65016 8.49989ZM12.5805 8.49989C12.7705 8.4943 12.9544 8.5673 13.0887 8.70169C13.2231 8.83607 13.2961 9.0199 13.2905 9.2099V14.7899C13.2905 15.182 12.9727 15.4999 12.5805 15.4999C12.1884 15.4999 11.8705 15.182 11.8705 14.7899V9.2099C11.8649 9.0199 11.938 8.83607 12.0723 8.70169C12.2067 8.5673 12.3906 8.4943 12.5805 8.49989Z"
    fill="#FF6600"
  />
</svg>
