<svg width="25" height="24" viewBox="0 0 25 24" fill="none" xmlns="http://www.w3.org/2000/svg">
  <path
    d="M20.0258 8.49989C20.268 8.46919 20.5061 8.58116 20.6369 8.78724C20.7678 8.99333 20.7678 9.2564 20.6369 9.4625C20.5061 9.6686 20.268 9.7806 20.0258 9.7499H17.0958C17.0158 9.7499 16.9757 9.7999 16.9757 9.8899V11.3399C16.9757 11.4299 17.0158 11.4799 17.0958 11.4799H19.6257C19.8679 11.4492 20.1061 11.5612 20.2369 11.7672C20.3678 11.9733 20.3678 12.2364 20.2369 12.4425C20.1061 12.6486 19.8679 12.7606 19.6257 12.7299H17.0958C16.9758 12.7299 16.9757 12.7799 16.9757 12.8699V14.7899C16.9757 15.182 16.6579 15.4999 16.2657 15.4999C15.8736 15.4999 15.5557 15.182 15.5557 14.7899V9.2099C15.5501 9.0199 15.6233 8.83607 15.7576 8.70169C15.892 8.5673 16.0758 8.4943 16.2657 8.49989H20.0258ZM10.4148 8.49989C10.6057 8.49441 10.7905 8.56712 10.9264 8.70118C11.0624 8.83523 11.1377 9.019 11.1349 9.2099V14.7899C11.1377 14.9808 11.0624 15.1645 10.9264 15.2986C10.7905 15.4327 10.6057 15.5054 10.4148 15.4999C10.1972 15.4978 9.99191 15.3988 9.85481 15.2299L6.51481 11.2999C6.41481 11.1999 6.29481 11.2499 6.29481 11.3699V14.7899C6.29481 15.182 5.97693 15.4999 5.58481 15.4999C5.19269 15.4999 4.87481 15.182 4.87481 14.7899V9.2099C4.86922 9.0199 4.94223 8.83607 5.07661 8.70169C5.21099 8.5673 5.39485 8.4943 5.58481 8.49989C5.80557 8.50036 6.0146 8.59937 6.15481 8.76989L9.49481 12.7099C9.56481 12.7999 9.71481 12.7899 9.71481 12.6399V9.2099C9.70933 9.0217 9.78099 8.83945 9.91317 8.70538C10.0454 8.57131 10.2266 8.49708 10.4148 8.49989ZM13.3451 8.49989C13.5351 8.4943 13.7191 8.5673 13.8534 8.70169C13.9878 8.83607 14.0608 9.0199 14.0552 9.2099V14.7899C14.0552 15.182 13.7374 15.4999 13.3451 15.4999C12.953 15.4999 12.6352 15.182 12.6352 14.7899V9.2099C12.6296 9.0199 12.7027 8.83607 12.837 8.70169C12.9714 8.5673 13.1552 8.4943 13.3451 8.49989Z"
    fill="#FF6600"
  />
</svg>
