<svg width="25" height="24" viewBox="0 0 25 24" fill="none" xmlns="http://www.w3.org/2000/svg">
  <path
    d="M8.85483 8.37995C9.67765 8.36577 10.4811 8.63007 11.1349 9.1299C11.3129 9.2629 11.4228 9.4681 11.4349 9.6899C11.4349 10.06 11.1349 10.3599 10.7649 10.3599C10.5756 10.3396 10.3991 10.2549 10.2648 10.1199C9.8561 9.8051 9.35047 9.6425 8.83483 9.6599C8.2189 9.6289 7.62068 9.8714 7.2003 10.3226C6.77991 10.7739 6.58028 11.3878 6.65483 11.9999C6.58665 12.6089 6.78915 13.2171 7.20876 13.6637C7.62837 14.1102 8.22281 14.3501 8.83483 14.3199C9.38166 14.3333 9.9135 14.1405 10.3248 13.7799C10.5167 13.6012 10.7962 13.5529 11.0368 13.657C11.2775 13.761 11.4338 13.9977 11.4349 14.2599C11.4309 14.4377 11.3507 14.6053 11.2149 14.7199C10.5676 15.3032 9.7261 15.6242 8.85483 15.6199C7.8687 15.69 6.89988 15.3337 6.19415 14.6414C5.48843 13.9491 5.11363 12.9872 5.16483 11.9999C5.09667 11.0081 5.46608 10.036 6.1758 9.3398C6.88552 8.64353 7.86444 8.29281 8.85483 8.37995ZM20.2449 8.36995C20.9645 8.34126 21.6716 8.56401 22.2449 8.99995C22.507 9.1389 22.6693 9.4132 22.6649 9.7099C22.6404 10.0289 22.3841 10.2809 22.0648 10.2999C21.8694 10.3293 21.672 10.2622 21.5349 10.1199C21.1904 9.8246 20.7484 9.6678 20.2948 9.6799C19.6148 9.6799 19.2948 9.9899 19.2948 10.4299C19.2948 10.8699 19.6348 11.1099 20.6348 11.3299C22.1248 11.6499 22.8848 12.3099 22.8948 13.4299C22.8995 14.035 22.643 14.6127 22.1909 15.0149C21.7389 15.4172 21.1353 15.6049 20.5349 15.5299C19.6473 15.5338 18.792 15.1974 18.1448 14.5899C17.9743 14.4379 17.8673 14.2273 17.8449 13.9999C17.8277 13.829 17.8846 13.6588 18.0012 13.5326C18.1179 13.4064 18.2831 13.3362 18.4549 13.3399C18.6609 13.3456 18.8542 13.4405 18.9848 13.5999C19.3867 14.0339 19.9534 14.2774 20.5448 14.2699C21.1649 14.2699 21.5448 13.8999 21.5448 13.4699C21.5448 13.0399 21.2449 12.8099 20.2449 12.5699C18.9449 12.2799 17.9449 11.6699 17.9449 10.3699C17.9638 9.792 18.2225 9.248 18.6588 8.86858C19.0952 8.48914 19.6698 8.30848 20.2449 8.36995ZM3.35483 8.49995C3.54479 8.49436 3.72865 8.56737 3.86303 8.70175C3.99742 8.83613 4.07042 9.02 4.06483 9.2099V14.7899C4.07042 14.9799 3.99742 15.1638 3.86303 15.2982C3.72865 15.4325 3.54479 15.5055 3.35483 15.4999C3.16487 15.5055 2.98101 15.4325 2.84663 15.2982C2.71225 15.1638 2.63924 14.9799 2.64483 14.7899V9.2099C2.63924 9.02 2.71225 8.83613 2.84663 8.70175C2.98101 8.56737 3.16487 8.49436 3.35483 8.49995ZM12.3749 8.49995H16.9449C17.1152 8.48873 17.2825 8.5494 17.406 8.66723C17.5295 8.78506 17.5981 8.94926 17.5949 9.1199C17.5977 9.2896 17.5309 9.4531 17.4099 9.5721C17.289 9.6912 17.1245 9.7554 16.9549 9.7499H15.5049C15.3749 9.7499 15.3749 9.7999 15.3749 9.8899V14.7899C15.3749 15.1821 15.057 15.4999 14.6649 15.4999C14.2727 15.4999 13.9549 15.1821 13.9549 14.7899V9.8899C13.9549 9.7999 13.9149 9.7499 13.8249 9.7499H12.3749C12.1327 9.7806 11.8946 9.6687 11.7638 9.4626C11.6329 9.2565 11.6329 8.99339 11.7638 8.78731C11.8946 8.58122 12.1327 8.46926 12.3749 8.49995Z"
    fill="#FF6600"
  />
</svg>
