<svg width="25" height="24" viewBox="0 0 25 24" fill="none" xmlns="http://www.w3.org/2000/svg">
  <path
    d="M20.1646 8.74999C20.8024 8.732 21.4271 8.93318 21.9346 9.32C22.1539 9.449 22.2875 9.6855 22.2846 9.94C22.2647 10.2279 22.0328 10.4555 21.7446 10.47C21.5709 10.4997 21.394 10.4395 21.2746 10.31C20.9616 10.0473 20.5631 9.9086 20.1546 9.92C19.5646 9.92 19.2846 10.19 19.2846 10.59C19.2846 10.99 19.5546 11.2 20.4846 11.4C21.8246 11.69 22.5146 12.28 22.5146 13.37C22.5186 13.9164 22.2872 14.4381 21.8794 14.8018C21.4716 15.1656 20.927 15.3362 20.3846 15.27C19.5855 15.2724 18.816 14.9682 18.2346 14.42C18.0814 14.2833 17.9851 14.0942 17.9646 13.89C17.9472 13.7349 17.9977 13.58 18.1032 13.4649C18.2086 13.3499 18.3586 13.2861 18.5146 13.29C18.702 13.2958 18.8775 13.3835 18.9946 13.53C19.355 13.9196 19.8639 14.1377 20.3946 14.13C20.9946 14.13 21.3346 13.8 21.3346 13.41C21.3346 13.02 21.0546 12.82 20.1646 12.6C18.9546 12.32 18.0946 11.77 18.0946 10.6C18.0972 10.0708 18.3239 9.5676 18.7185 9.215C19.113 8.86234 19.6385 8.69339 20.1646 8.74999ZM5.95465 8.85999C6.22342 8.84416 6.47255 9.0009 6.57465 9.25L8.90465 14.29C8.93565 14.3698 8.95257 14.4544 8.95465 14.54C8.94123 14.8346 8.72822 15.0819 8.43885 15.1388C8.14947 15.1958 7.85867 15.0476 7.73465 14.78L7.25465 13.58C7.23764 13.5406 7.1974 13.5165 7.15465 13.52H4.85465C4.81464 13.5177 4.77794 13.5422 4.76465 13.58L4.23465 14.74C4.1418 14.9681 3.92091 15.118 3.67465 15.12C3.50489 15.1254 3.33995 15.0631 3.21616 14.9468C3.09236 14.8305 3.01987 14.6698 3.01465 14.5C3.01913 14.4125 3.04304 14.3271 3.08465 14.25L5.35465 9.25C5.45865 9.0117 5.69465 8.85829 5.95465 8.85999ZM16.3346 8.84999C16.5052 8.84727 16.6695 8.91382 16.7902 9.0344C16.9108 9.1551 16.9773 9.3194 16.9746 9.49V14.49C16.9746 14.8435 16.6881 15.13 16.3346 15.13C15.9811 15.13 15.6946 14.8435 15.6946 14.49V9.49C15.6919 9.3194 15.7584 9.1551 15.879 9.0344C15.9997 8.91382 16.164 8.84727 16.3346 8.84999ZM12.6046 8.84999C13.1782 8.80328 13.7441 9.0059 14.1577 9.4061C14.5712 9.8063 14.7924 10.3652 14.7646 10.94L14.7651 11.1154C14.7443 11.6392 14.5262 12.1385 14.1507 12.5105C13.7335 12.9239 13.161 13.1416 12.5746 13.11H11.2046C11.0946 13.11 11.0946 13.16 11.0946 13.24V14.49C11.0946 14.7186 10.9726 14.9299 10.7746 15.0443C10.5766 15.1586 10.3327 15.1586 10.1346 15.0443C9.93663 14.9299 9.81465 14.7186 9.81465 14.49V9.49C9.81192 9.3194 9.87847 9.1551 9.99909 9.0344C10.1197 8.91382 10.2841 8.84727 10.4546 8.84999H12.6046ZM6.07465 10.82C6.04465 10.71 5.88465 10.71 5.88465 10.82L5.29465 12.24C5.28127 12.2706 5.28409 12.306 5.30218 12.3341C5.32026 12.3622 5.35121 12.3794 5.38465 12.38H6.58465C6.61743 12.3835 6.64952 12.3688 6.66828 12.3417C6.68705 12.3146 6.68949 12.2794 6.67465 12.25L6.07465 10.82ZM12.5546 9.98H11.2046C11.0946 9.98 11.0946 10.02 11.0946 10.1V11.87C11.0946 11.95 11.1246 12 11.2046 12H12.5546C13.1446 12 13.4746 11.57 13.4746 10.98C13.5231 10.7172 13.4451 10.447 13.2642 10.2503C13.0833 10.0537 12.8205 9.9536 12.5546 9.98Z"
    fill="#FF6600"
  />
</svg>
