<svg width="25" height="24" viewBox="0 0 25 24" fill="none" xmlns="http://www.w3.org/2000/svg">
  <path
    fill-rule="evenodd"
    clip-rule="evenodd"
    d="M12.7646 1C6.68952 1 1.76465 5.92487 1.76465 12C1.76465 18.0751 6.68952 23 12.7646 23C18.8397 23 23.7646 18.0751 23.7646 12C23.7646 5.92487 18.8397 1 12.7646 1ZM13.7646 6C13.7646 5.44772 13.3169 5 12.7646 5C12.2123 5 11.7646 5.44772 11.7646 6V12C11.7646 12.3788 11.9786 12.725 12.3174 12.8944L16.3174 14.8944C16.8114 15.1414 17.412 14.9412 17.659 14.4472C17.906 13.9532 17.7058 13.3526 17.2118 13.1056L13.7646 11.382V6Z"
    fill="#FF6600"
  />
</svg>
