<svg width="25" height="24" viewBox="0 0 25 24" fill="none" xmlns="http://www.w3.org/2000/svg">
  <path
    d="M18.9433 18.6169C19.3747 18.6169 19.7241 18.9663 19.7241 19.3977C19.7241 19.8291 19.3747 20.1786 18.9433 20.1786H6.44981C6.01839 20.1786 5.66897 19.8291 5.66897 19.3977C5.66897 18.9663 6.01839 18.6169 6.44981 18.6169H18.9433ZM9.01968 9.3844C11.3174 8.15851 14.0757 8.15851 16.3733 9.3844C18.671 10.6113 20.2063 12.9021 20.4659 15.4935H22.8474C23.2788 15.4935 23.6282 15.8429 23.6282 16.2743C23.6282 16.7058 23.2788 17.0552 22.8474 17.0552H2.54549C2.11407 17.0552 1.76465 16.7058 1.76465 16.2743C1.76465 15.8429 2.11407 15.4935 2.54549 15.4935H4.92706C5.18667 12.9021 6.72205 10.6113 9.01968 9.3844ZM15.5963 10.7245C13.7797 9.7728 11.613 9.7728 9.79658 10.7245C7.98014 11.6762 6.74739 13.4584 6.49654 15.4935H18.8963C18.6454 13.4583 17.4127 11.6761 15.5963 10.7245ZM19.3258 6.20158C19.6322 5.89802 20.1271 5.899 20.4307 6.20549C20.7342 6.51198 20.7332 7.00684 20.4267 7.31039L19.3258 8.41136C19.1784 8.55777 18.9793 8.63879 18.7714 8.63783L18.7746 8.637L18.6747 8.63148C18.4345 8.60061 18.2218 8.45948 18.1003 8.2503L18.054 8.15662C17.932 7.86379 17.9993 7.52608 18.2248 7.30256L19.3258 6.20158ZM5.00728 6.24238C5.29523 5.95347 5.75786 5.9359 6.06728 6.20139L7.16826 7.31018C7.43375 7.6196 7.41616 8.08226 7.12726 8.37018C6.83931 8.6591 6.37668 8.67666 6.06726 8.41118L4.96629 7.30238C4.70079 6.99296 4.71838 6.5303 5.00728 6.24238ZM12.6965 3C13.1279 3 13.4774 3.34942 13.4774 3.78084V5.34253C13.4774 5.54945 13.3954 5.74856 13.249 5.89497C13.1026 6.04138 12.9034 6.12337 12.6965 6.12337C12.4896 6.12337 12.2905 6.04138 12.1441 5.89497C11.9977 5.74857 11.9157 5.54946 11.9157 5.34253V3.78084C11.9157 3.34942 12.2651 3 12.6965 3Z"
    fill="#FF6600"
  />
</svg>
