<svg
  width="24"
  height="24"
  viewBox="0 0 24 24"
  fill="none"
  xmlns="http://www.w3.org/2000/svg"
>
  <path
    d="M18.1787 18.6169C18.6101 18.6169 18.9595 18.9663 18.9595 19.3977C18.9595 19.8291 18.6101 20.1786 18.1787 20.1786H5.68516C5.25374 20.1786 4.90432 19.8291 4.90432 19.3977C4.90432 18.9663 5.25374 18.6169 5.68516 18.6169H18.1787ZM8.25503 9.3844C10.5528 8.15851 13.3111 8.15851 15.6087 9.3844C17.9064 10.6113 19.4417 12.9021 19.7013 15.4935H22.0828C22.5142 15.4935 22.8636 15.8429 22.8636 16.2743C22.8636 16.7058 22.5142 17.0552 22.0828 17.0552H1.78084C1.34942 17.0552 1 16.7058 1 16.2743C1 15.8429 1.34942 15.4935 1.78084 15.4935H4.16241C4.42202 12.9021 5.9574 10.6113 8.25503 9.3844ZM14.8317 10.7245C13.0151 9.7728 10.8484 9.7728 9.03193 10.7245C7.21549 11.6762 5.98274 13.4584 5.73189 15.4935H18.1317C17.8808 13.4583 16.6481 11.6761 14.8317 10.7245ZM18.5612 6.20158C18.8676 5.89802 19.3625 5.899 19.6661 6.20549C19.9696 6.51198 19.9686 7.00684 19.6621 7.31039L18.5612 8.41136C18.4138 8.55777 18.2147 8.63879 18.0068 8.63783L18.01 8.637L17.9101 8.63148C17.6699 8.60061 17.4572 8.45948 17.3357 8.2503L17.2894 8.15662C17.1674 7.86379 17.2347 7.52608 17.4602 7.30256L18.5612 6.20158ZM4.24263 6.24238C4.53058 5.95347 4.99321 5.9359 5.30263 6.20139L6.40361 7.31018C6.6691 7.6196 6.65151 8.08226 6.36261 8.37018C6.07466 8.6591 5.61203 8.67666 5.30261 8.41118L4.20164 7.30238C3.93614 6.99296 3.95373 6.5303 4.24263 6.24238ZM11.9319 3C12.3633 3 12.7128 3.34942 12.7128 3.78084V5.34253C12.7128 5.54945 12.6308 5.74856 12.4844 5.89497C12.338 6.04138 12.1388 6.12337 11.9319 6.12337C11.725 6.12337 11.5259 6.04138 11.3795 5.89497C11.2331 5.74857 11.1511 5.54946 11.1511 5.34253V3.78084C11.1511 3.34942 11.5005 3 11.9319 3Z"
    fill="#FF6600"
  />
</svg>
