<svg width="25" height="24" viewBox="0 0 25 24" fill="none" xmlns="http://www.w3.org/2000/svg">
  <path
    d="M12.7646 3C11.5711 4.19347 10.9006 5.81217 10.9006 7.5C10.9006 9.18783 11.5711 10.8065 12.7646 12C13.9581 13.1935 15.5768 13.864 17.2646 13.864C18.9524 13.864 20.5711 13.1935 21.7646 12C21.7646 13.78 21.2368 15.5201 20.2478 17.0001C19.2589 18.4802 17.8533 19.6337 16.2088 20.3149C14.5642 20.9961 12.7546 21.1743 11.0088 20.8271C9.26301 20.4798 7.65937 19.6226 6.40069 18.364C5.14202 17.1053 4.28485 15.5016 3.93759 13.7558C3.59032 12.01 3.76855 10.2004 4.44974 8.55585C5.13093 6.91131 6.28448 5.50571 7.76452 4.51677C9.24457 3.52784 10.9846 3 12.7646 3Z"
    fill="#FF6600"
  />
  <path
    fill-rule="evenodd"
    clip-rule="evenodd"
    d="M10.6382 4.28778C9.81818 4.51389 9.03501 4.87055 8.32009 5.34824C7.0045 6.22729 5.97912 7.47672 5.37362 8.93853C4.76812 10.4003 4.60969 12.0089 4.91837 13.5607C5.22705 15.1126 5.98898 16.538 7.1078 17.6569C8.22662 18.7757 9.65208 19.5376 11.2039 19.8463C12.7557 20.155 14.3643 19.9965 15.8261 19.391C17.2879 18.7855 18.5373 17.7602 19.4164 16.4446C19.8941 15.7296 20.2507 14.9465 20.4768 14.1264C19.4848 14.6073 18.3879 14.864 17.2646 14.864C15.3116 14.864 13.4385 14.0881 12.0575 12.7071C10.6765 11.3261 9.90069 9.45304 9.90069 7.5C9.90069 6.37666 10.1574 5.27979 10.6382 4.28778ZM7.20895 3.6853C8.85344 2.58649 10.7868 2 12.7646 2C13.1691 2 13.5337 2.24364 13.6885 2.61732C13.8433 2.99099 13.7577 3.42111 13.4717 3.70711C12.4658 4.71304 11.9006 6.07739 11.9006 7.5C11.9006 8.92261 12.4658 10.287 13.4717 11.2929C14.4776 12.2988 15.842 12.864 17.2646 12.864C18.6872 12.864 20.0516 12.2988 21.0575 11.2929C21.3435 11.0069 21.7736 10.9213 22.1473 11.0761C22.521 11.2309 22.7646 11.5955 22.7646 12C22.7646 13.9778 22.1781 15.9112 21.0793 17.5557C19.9805 19.2002 18.4187 20.4819 16.5914 21.2388C14.7642 21.9957 12.7535 22.1937 10.8137 21.8079C8.87394 21.422 7.09211 20.4696 5.69359 19.0711C4.29506 17.6725 3.34265 15.8907 2.9568 13.9509C2.57095 12.0111 2.76898 10.0004 3.52586 8.17317C4.28274 6.3459 5.56446 4.78412 7.20895 3.6853Z"
    fill="#FF6600"
  />
</svg>
