<svg width="25" height="24" viewBox="0 0 25 24" fill="none" xmlns="http://www.w3.org/2000/svg">
  <path
    d="M12.7645 1C12.3778 1.00382 12.0236 1.34662 12.0312 1.73333V4.69722C11.2253 4.77743 10.4633 4.99417 9.75485 5.31596C9.75485 5.31596 8.20513 2.75418 8.15834 2.70334C8.02561 2.56011 7.84227 2.46653 7.63127 2.46653C7.22642 2.46653 6.89793 2.79502 6.89793 3.19987C6.89793 3.34787 6.94472 3.48249 7.02016 3.59709C7.05931 3.65629 8.48682 6.04911 8.48682 6.04911C7.84706 6.51126 7.28369 7.07463 6.82155 7.71439C6.82155 7.71439 4.42865 6.2859 4.35412 6.24009C4.24145 6.17039 4.10682 6.13315 3.96453 6.13315C3.55968 6.13315 3.23119 6.46163 3.23119 6.86648C3.23119 7.07464 3.32 7.2618 3.46036 7.39355C3.53007 7.45944 6.08056 8.99007 6.08056 8.99007C5.76163 9.6957 5.54965 10.4644 5.46945 11.2665H2.49798C2.07593 11.2665 1.76465 11.6541 1.76465 11.9998C1.76465 12.3455 2.07593 12.7331 2.49798 12.7331H5.46945C5.54966 13.5352 5.76163 14.3029 6.08056 15.0095C6.08056 15.0095 3.53003 16.5402 3.46036 16.606C3.32 16.7378 3.23119 16.925 3.23119 17.1331C3.23119 17.5379 3.55968 17.8664 3.96453 17.8664C4.1068 17.8664 4.24143 17.8292 4.35412 17.7595C4.4286 17.7137 6.82155 16.2852 6.82155 16.2852C7.28369 16.925 7.84706 17.4883 8.48682 17.9505C8.48682 17.9505 7.05932 20.3434 7.02016 20.4025C6.94472 20.5171 6.89793 20.6517 6.89793 20.7997C6.89793 21.2046 7.22642 21.5331 7.63127 21.5331C7.84229 21.5331 8.02563 21.4395 8.15834 21.2962C8.20513 21.2456 9.75485 18.6836 9.75485 18.6836C10.4633 19.0054 11.2253 19.2222 12.0312 19.3024V22.2663C12.0236 22.653 12.3778 22.9958 12.7645 22.9996C13.1512 22.9958 13.5055 22.653 13.4979 22.2663V19.3024C14.3038 19.2222 15.0658 19.0054 15.7742 18.6836C15.7742 18.6836 17.324 21.2454 17.3708 21.2962C17.5035 21.4395 17.6868 21.5331 17.8978 21.5331C18.3027 21.5331 18.6312 21.2046 18.6312 20.7997C18.6312 20.6517 18.5844 20.5171 18.5089 20.4025C18.4698 20.3433 17.0423 17.9505 17.0423 17.9505C17.682 17.4883 18.2454 16.925 18.7076 16.2852C18.7076 16.2852 21.1005 17.7137 21.175 17.7595C21.2877 17.8292 21.4223 17.8664 21.5646 17.8664C21.9694 17.8664 22.2979 17.5379 22.2979 17.1331C22.2979 16.9249 22.2091 16.7378 22.0687 16.606C21.999 16.5401 19.4485 15.0095 19.4485 15.0095C19.7675 14.3029 19.9795 13.5352 20.0597 12.7331H23.0311C23.4532 12.7331 23.7645 12.3455 23.7645 11.9998C23.7645 11.6541 23.4532 11.2665 23.0311 11.2665H20.0597C19.9794 10.4644 19.7675 9.6957 19.4485 8.99007C19.4485 8.99007 21.9991 7.45943 22.0687 7.39355C22.2091 7.26178 22.2979 7.07463 22.2979 6.86648C22.2979 6.46163 21.9694 6.13315 21.5646 6.13315C21.4223 6.13315 21.2877 6.17039 21.175 6.24009C21.1005 6.28593 18.7076 7.71439 18.7076 7.71439C18.2454 7.07463 17.682 6.51126 17.0423 6.04911C17.0423 6.04911 18.4698 3.65622 18.5089 3.59709C18.5844 3.4825 18.6312 3.34788 18.6312 3.19987C18.6312 2.79502 18.3027 2.46653 17.8978 2.46653C17.6868 2.46653 17.5035 2.56011 17.3708 2.70334C17.324 2.75395 15.7742 5.31596 15.7742 5.31596C15.0658 4.99417 14.3038 4.77742 13.4979 4.69722V1.73333C13.5055 1.34662 13.1512 1.00381 12.7645 1ZM12.7645 6.14091C16.0129 6.14091 18.6388 8.75158 18.6388 12C18.6388 15.2484 16.0129 17.8591 12.7645 17.8591C9.51615 17.8591 6.89033 15.2484 6.89033 12C6.89033 8.75158 9.51615 6.14091 12.7645 6.14091Z"
    fill="#FF6600"
  />
</svg>
