<svg width="25" height="24" viewBox="0 0 25 24" fill="none" xmlns="http://www.w3.org/2000/svg">
  <path
    d="M12.7646 3C11.5711 4.19347 10.9006 5.81217 10.9006 7.5C10.9006 9.18783 11.5711 10.8065 12.7646 12C13.9581 13.1935 15.5768 13.864 17.2646 13.864C18.9524 13.864 20.5711 13.1935 21.7646 12C21.7646 13.78 21.2368 15.5201 20.2478 17.0001C19.2589 18.4802 17.8533 19.6337 16.2088 20.3149C14.5642 20.9961 12.7546 21.1743 11.0088 20.8271C9.26301 20.4798 7.65937 19.6226 6.40069 18.364C5.14202 17.1053 4.28485 15.5016 3.93759 13.7558C3.59032 12.01 3.76855 10.2004 4.44974 8.55585C5.13093 6.91131 6.28448 5.50571 7.76452 4.51677C9.24456 3.52784 10.9846 3 12.7646 3Z"
    stroke="#FF6600"
    stroke-width="2"
    stroke-linecap="round"
    stroke-linejoin="round"
  />
</svg>
