<svg
  width="24"
  height="24"
  viewBox="0 0 24 24"
  fill="none"
  xmlns="http://www.w3.org/2000/svg"
>
  <path
    d="M11.9999 1C11.6132 1.00382 11.259 1.34662 11.2666 1.73333V4.69722C10.4607 4.77743 9.6987 4.99417 8.9902 5.31596C8.9902 5.31596 7.44048 2.75418 7.39369 2.70334C7.26096 2.56011 7.07762 2.46653 6.86662 2.46653C6.46177 2.46653 6.13328 2.79502 6.13328 3.19987C6.13328 3.34787 6.18007 3.48249 6.25551 3.59709C6.29466 3.65629 7.72217 6.04911 7.72217 6.04911C7.08241 6.51126 6.51904 7.07463 6.0569 7.71439C6.0569 7.71439 3.664 6.2859 3.58947 6.24009C3.4768 6.17039 3.34217 6.13315 3.19988 6.13315C2.79503 6.13315 2.46654 6.46163 2.46654 6.86648C2.46654 7.07464 2.55535 7.2618 2.69571 7.39355C2.76542 7.45944 5.31591 8.99007 5.31591 8.99007C4.99698 9.6957 4.785 10.4644 4.7048 11.2665H1.73333C1.31128 11.2665 1 11.6541 1 11.9998C1 12.3455 1.31128 12.7331 1.73333 12.7331H4.7048C4.78501 13.5352 4.99698 14.3029 5.31591 15.0095C5.31591 15.0095 2.76538 16.5402 2.69571 16.606C2.55535 16.7378 2.46654 16.925 2.46654 17.1331C2.46654 17.5379 2.79503 17.8664 3.19988 17.8664C3.34215 17.8664 3.47678 17.8292 3.58947 17.7595C3.66395 17.7137 6.0569 16.2852 6.0569 16.2852C6.51904 16.925 7.08241 17.4883 7.72217 17.9505C7.72217 17.9505 6.29467 20.3434 6.25551 20.4025C6.18007 20.5171 6.13328 20.6517 6.13328 20.7997C6.13328 21.2046 6.46177 21.5331 6.86662 21.5331C7.07764 21.5331 7.26098 21.4395 7.39369 21.2962C7.44048 21.2456 8.9902 18.6836 8.9902 18.6836C9.6987 19.0054 10.4607 19.2222 11.2666 19.3024V22.2663C11.259 22.653 11.6132 22.9958 11.9999 22.9996C12.3866 22.9958 12.7409 22.653 12.7333 22.2663V19.3024C13.5392 19.2222 14.3012 19.0054 15.0096 18.6836C15.0096 18.6836 16.5594 21.2454 16.6062 21.2962C16.7389 21.4395 16.9222 21.5331 17.1332 21.5331C17.5381 21.5331 17.8666 21.2046 17.8666 20.7997C17.8666 20.6517 17.8198 20.5171 17.7443 20.4025C17.7052 20.3433 16.2777 17.9505 16.2777 17.9505C16.9174 17.4883 17.4808 16.925 17.943 16.2852C17.943 16.2852 20.3359 17.7137 20.4104 17.7595C20.5231 17.8292 20.6577 17.8664 20.8 17.8664C21.2048 17.8664 21.5333 17.5379 21.5333 17.1331C21.5333 16.9249 21.4445 16.7378 21.3041 16.606C21.2344 16.5401 18.6839 15.0095 18.6839 15.0095C19.0029 14.3029 19.2149 13.5352 19.2951 12.7331H22.2665C22.6886 12.7331 22.9999 12.3455 22.9999 11.9998C22.9999 11.6541 22.6886 11.2665 22.2665 11.2665H19.2951C19.2148 10.4644 19.0029 9.6957 18.6839 8.99007C18.6839 8.99007 21.2345 7.45943 21.3041 7.39355C21.4445 7.26178 21.5333 7.07463 21.5333 6.86648C21.5333 6.46163 21.2048 6.13315 20.8 6.13315C20.6577 6.13315 20.5231 6.17039 20.4104 6.24009C20.3359 6.28593 17.943 7.71439 17.943 7.71439C17.4808 7.07463 16.9174 6.51126 16.2777 6.04911C16.2777 6.04911 17.7052 3.65622 17.7443 3.59709C17.8198 3.4825 17.8666 3.34788 17.8666 3.19987C17.8666 2.79502 17.5381 2.46653 17.1332 2.46653C16.9222 2.46653 16.7389 2.56011 16.6062 2.70334C16.5594 2.75395 15.0096 5.31596 15.0096 5.31596C14.3012 4.99417 13.5392 4.77742 12.7333 4.69722V1.73333C12.7409 1.34662 12.3866 1.00381 11.9999 1ZM11.9999 6.14091C15.2483 6.14091 17.8742 8.75158 17.8742 12C17.8742 15.2484 15.2483 17.8591 11.9999 17.8591C8.7515 17.8591 6.12568 15.2484 6.12568 12C6.12568 8.75158 8.7515 6.14091 11.9999 6.14091Z"
    fill="#FF6600"
  />
</svg>
