<svg width="25" height="24" viewBox="0 0 25 24" fill="none" xmlns="http://www.w3.org/2000/svg">
  <path
    fill-rule="evenodd"
    clip-rule="evenodd"
    d="M1.76465 12C1.76465 5.92487 6.68951 1 12.7646 1C18.8397 1 23.7646 5.92486 23.7646 12C23.7646 18.0751 18.8397 23 12.7646 23C6.68951 23 1.76465 18.0751 1.76465 12ZM12.7646 3C7.79408 3 3.76465 7.02943 3.76465 12C3.76465 16.9705 7.79409 21 12.7646 21C17.7352 21 21.7646 16.9705 21.7646 12C21.7646 7.02944 17.7352 3 12.7646 3Z"
    fill="#FF6600"
  />
  <path
    fill-rule="evenodd"
    clip-rule="evenodd"
    d="M12.7646 5C13.3169 5 13.7646 5.44772 13.7646 6V11.382L17.2119 13.1056C17.7058 13.3526 17.9061 13.9532 17.6591 14.4472C17.4121 14.9412 16.8114 15.1414 16.3174 14.8944L12.3174 12.8944C11.9787 12.725 11.7646 12.3788 11.7646 12V6C11.7646 5.44772 12.2124 5 12.7646 5Z"
    fill="#FF6600"
  />
</svg>
