<svg
  width="24"
  height="24"
  viewBox="0 0 24 24"
  fill="none"
  xmlns="http://www.w3.org/2000/svg"
>
  <path
    d="M16.5 2C16.7761 2 17 2.22386 17 2.5C17 2.77614 16.7761 3 16.5 3H12.5V4.52H17.35C17.9245 4.50926 18.4791 4.72997 18.8891 5.13247C19.2992 5.53497 19.53 6.08544 19.53 6.66V17.37C19.53 17.9393 19.3032 18.4851 18.8997 18.8868C18.4962 19.2884 17.9493 19.5127 17.38 19.51H15.24L16.86 21.13C17.0518 21.3278 17.0518 21.6422 16.86 21.84C16.7646 21.9357 16.6351 21.9897 16.5 21.99C16.3679 21.9892 16.2417 21.9351 16.15 21.84L15.39 21.08H8.49L7.74 21.84C7.64461 21.9357 7.51513 21.9897 7.38 21.99C7.24812 21.9881 7.12232 21.9342 7.03 21.84C6.93534 21.7461 6.8821 21.6183 6.8821 21.485C6.8821 21.3517 6.93534 21.2239 7.03 21.13L8.65 19.51H6.65C6.08071 19.5127 5.53382 19.2884 5.13032 18.8868C4.72683 18.4851 4.5 17.9393 4.5 17.37V6.66C4.5 6.0907 4.72683 5.54486 5.13032 5.14324C5.53382 4.74163 6.08071 4.51734 6.65 4.52H11.5V3H7.5C7.22386 3 7 2.77614 7 2.5C7 2.22386 7.22386 2 7.5 2H16.5ZM13.79 19.51H10.03L9.46 20.08H14.36L13.79 19.51ZM17.5 14.17H6.5V17.37C6.50527 17.4489 6.57091 17.5102 6.65 17.51H17.31C17.3891 17.5102 17.4547 17.4489 17.46 17.37L17.5 14.17ZM15.69 14.86C16.2423 14.86 16.69 15.3077 16.69 15.86C16.69 16.4123 16.2423 16.86 15.69 16.86C15.1377 16.86 14.69 16.4123 14.69 15.86C14.69 15.3077 15.1377 14.86 15.69 14.86ZM8.32 14.86C8.87228 14.86 9.32 15.3077 9.32 15.86C9.32 16.4123 8.87228 16.86 8.32 16.86C7.76772 16.86 7.32 16.4123 7.32 15.86C7.32 15.3077 7.76772 14.86 8.32 14.86ZM17.35 6.52H6.65C6.57091 6.51982 6.50527 6.58109 6.5 6.66V12.17H17.46L17.5 6.66C17.4947 6.58109 17.4291 6.51982 17.35 6.52Z"
    fill="#FF6600"
  />
</svg>
