<svg width="25" height="24" viewBox="0 0 25 24" fill="none" xmlns="http://www.w3.org/2000/svg">
  <path
    d="M17.2646 2C17.5407 2 17.7646 2.22386 17.7646 2.5C17.7646 2.77614 17.5407 3 17.2646 3H13.2646V4.52H18.1146C18.6891 4.50926 19.2437 4.72997 19.6537 5.13247C20.0638 5.53497 20.2946 6.08544 20.2946 6.66V17.37C20.2946 17.9393 20.0678 18.4851 19.6643 18.8868C19.2608 19.2884 18.7139 19.5127 18.1446 19.51H16.0046L17.6246 21.13C17.8164 21.3278 17.8164 21.6422 17.6246 21.84C17.5292 21.9357 17.3997 21.9897 17.2646 21.99C17.1325 21.9892 17.0063 21.9351 16.9146 21.84L16.1546 21.08H9.25465L8.50465 21.84C8.40926 21.9357 8.27978 21.9897 8.14465 21.99C8.01277 21.9881 7.88697 21.9342 7.79465 21.84C7.69999 21.7461 7.64675 21.6183 7.64675 21.485C7.64675 21.3517 7.69999 21.2239 7.79465 21.13L9.41465 19.51H7.41465C6.84536 19.5127 6.29847 19.2884 5.89497 18.8868C5.49148 18.4851 5.26465 17.9393 5.26465 17.37V6.66C5.26465 6.0907 5.49148 5.54486 5.89497 5.14324C6.29847 4.74163 6.84536 4.51734 7.41465 4.52H12.2646V3H8.26465C7.98851 3 7.76465 2.77614 7.76465 2.5C7.76465 2.22386 7.98851 2 8.26465 2H17.2646ZM14.5546 19.51H10.7946L10.2246 20.08H15.1246L14.5546 19.51ZM18.2646 14.17H7.26465V17.37C7.26992 17.4489 7.33556 17.5102 7.41465 17.51H18.0746C18.1537 17.5102 18.2193 17.4489 18.2246 17.37L18.2646 14.17ZM16.4546 14.86C17.0069 14.86 17.4546 15.3077 17.4546 15.86C17.4546 16.4123 17.0069 16.86 16.4546 16.86C15.9023 16.86 15.4546 16.4123 15.4546 15.86C15.4546 15.3077 15.9023 14.86 16.4546 14.86ZM9.08465 14.86C9.63693 14.86 10.0846 15.3077 10.0846 15.86C10.0846 16.4123 9.63693 16.86 9.08465 16.86C8.53237 16.86 8.08465 16.4123 8.08465 15.86C8.08465 15.3077 8.53237 14.86 9.08465 14.86ZM18.1146 6.52H7.41465C7.33556 6.51982 7.26992 6.58109 7.26465 6.66V12.17H18.2246L18.2646 6.66C18.2593 6.58109 18.1937 6.51982 18.1146 6.52Z"
    fill="#FF6600"
  />
</svg>
