<svg
  width="24"
  height="24"
  viewBox="0 0 24 24"
  fill="none"
  xmlns="http://www.w3.org/2000/svg"
>
  <path
    d="M17.35 4.52H12.5V3H16.5C16.7761 3 17 2.77614 17 2.5C17 2.22386 16.7761 2 16.5 2H7.5C7.22386 2 7 2.22386 7 2.5C7 2.77614 7.22386 3 7.5 3H11.5V4.52H6.65C6.08071 4.51734 5.53382 4.74163 5.13032 5.14324C4.72683 5.54486 4.5 6.0907 4.5 6.66V17.37C4.5 17.9393 4.72683 18.4851 5.13032 18.8868C5.53382 19.2884 6.08071 19.5127 6.65 19.51H8.65L7.93 20.23L7.03 21.13C6.93534 21.2239 6.8821 21.3517 6.8821 21.485C6.8821 21.6183 6.93534 21.7461 7.03 21.84C7.12232 21.9342 7.24812 21.9881 7.38 21.99C7.51513 21.9897 7.64461 21.9357 7.74 21.84L8.49 21.08H15.39L16.15 21.84C16.2417 21.9351 16.3679 21.9892 16.5 21.99C16.6351 21.9897 16.7646 21.9357 16.86 21.84C17.0518 21.6422 17.0518 21.3278 16.86 21.13L15.24 19.51H17.38C17.9493 19.5127 18.4962 19.2884 18.8997 18.8868C19.3032 18.4851 19.53 17.9393 19.53 17.37V6.66C19.53 6.08544 19.2992 5.53497 18.8891 5.13247C18.4791 4.72997 17.9245 4.50926 17.35 4.52ZM8.35 16.86C7.79772 16.86 7.35 16.4123 7.35 15.86C7.35 15.3077 7.79772 14.86 8.35 14.86C8.90228 14.86 9.35 15.3077 9.35 15.86C9.35012 16.1305 9.24066 16.3895 9.04658 16.5779C8.8525 16.7664 8.59038 16.8681 8.32 16.86H8.35ZM9.49 20.08L10.06 19.51H13.82L14.39 20.08H9.49ZM15.72 16.86C15.1677 16.86 14.72 16.4123 14.72 15.86C14.72 15.3077 15.1677 14.86 15.72 14.86C16.2723 14.86 16.72 15.3077 16.72 15.86C16.7201 16.1305 16.6107 16.3895 16.4166 16.5779C16.2225 16.7664 15.9604 16.8681 15.69 16.86H15.72ZM17.53 12.17H6.5V6.66C6.50527 6.58109 6.57091 6.51982 6.65 6.52H17.35C17.4291 6.51982 17.4947 6.58109 17.5 6.66L17.53 12.17Z"
    fill="#FF6600"
  />
</svg>
