<svg width="25" height="24" viewBox="0 0 25 24" fill="none" xmlns="http://www.w3.org/2000/svg">
  <path
    d="M18.1146 4.52H13.2646V3H17.2646C17.5407 3 17.7646 2.77614 17.7646 2.5C17.7646 2.22386 17.5407 2 17.2646 2H8.26465C7.98851 2 7.76465 2.22386 7.76465 2.5C7.76465 2.77614 7.98851 3 8.26465 3H12.2646V4.52H7.41465C6.84536 4.51734 6.29847 4.74163 5.89497 5.14324C5.49148 5.54486 5.26465 6.0907 5.26465 6.66V17.37C5.26465 17.9393 5.49148 18.4851 5.89497 18.8868C6.29847 19.2884 6.84536 19.5127 7.41465 19.51H9.41465L8.69465 20.23L7.79465 21.13C7.69999 21.2239 7.64675 21.3517 7.64675 21.485C7.64675 21.6183 7.69999 21.7461 7.79465 21.84C7.88697 21.9342 8.01277 21.9881 8.14465 21.99C8.27978 21.9897 8.40926 21.9357 8.50465 21.84L9.25465 21.08H16.1546L16.9146 21.84C17.0063 21.9351 17.1325 21.9892 17.2646 21.99C17.3997 21.9897 17.5292 21.9357 17.6246 21.84C17.8164 21.6422 17.8164 21.3278 17.6246 21.13L16.0046 19.51H18.1446C18.7139 19.5127 19.2608 19.2884 19.6643 18.8868C20.0678 18.4851 20.2946 17.9393 20.2946 17.37V6.66C20.2946 6.08544 20.0638 5.53497 19.6537 5.13247C19.2437 4.72997 18.6891 4.50926 18.1146 4.52ZM9.11465 16.86C8.56237 16.86 8.11465 16.4123 8.11465 15.86C8.11465 15.3077 8.56237 14.86 9.11465 14.86C9.66693 14.86 10.1146 15.3077 10.1146 15.86C10.1148 16.1305 10.0053 16.3895 9.81123 16.5779C9.61715 16.7664 9.35503 16.8681 9.08465 16.86H9.11465ZM10.2546 20.08L10.8246 19.51H14.5846L15.1546 20.08H10.2546ZM16.4846 16.86C15.9323 16.86 15.4846 16.4123 15.4846 15.86C15.4846 15.3077 15.9323 14.86 16.4846 14.86C17.0369 14.86 17.4846 15.3077 17.4846 15.86C17.4847 16.1305 17.3753 16.3895 17.1812 16.5779C16.9871 16.7664 16.725 16.8681 16.4546 16.86H16.4846ZM18.2946 12.17H7.26465V6.66C7.26992 6.58109 7.33556 6.51982 7.41465 6.52H18.1146C18.1937 6.51982 18.2593 6.58109 18.2646 6.66L18.2946 12.17Z"
    fill="#FF6600"
  />
</svg>
