<svg width="25" height="24" viewBox="0 0 25 24" fill="none" xmlns="http://www.w3.org/2000/svg">
  <path
    d="M18.2945 2C19.4819 2 20.4445 2.96259 20.4445 4.15V6.36C20.8831 6.47322 21.1908 6.86708 21.1945 7.32V9.32C21.1819 9.7654 20.876 10.1488 20.4445 10.26V17.5C20.4458 18.1971 20.106 18.8507 19.5345 19.25H19.6745V21C19.6745 21.5523 19.2268 22 18.6745 22H16.6745C16.1222 22 15.6745 21.5523 15.6745 21V19.65H9.84447V21C9.84447 21.5523 9.39676 22 8.84447 22H6.84447C6.29219 22 5.84447 21.5523 5.84447 21V19.25H5.97447C5.40305 18.8507 5.06316 18.1971 5.06447 17.5V10.23C4.64432 10.1124 4.34888 9.7361 4.33447 9.3V7.3C4.34456 6.86021 4.64087 6.47866 5.06447 6.36V4.15C5.06447 2.96259 6.02706 2 7.21447 2H18.2945ZM9.06447 15C8.51219 15 8.06447 15.4477 8.06447 16C8.06447 16.5523 8.51219 17 9.06447 17C9.61676 17 10.0645 16.5523 10.0645 16C10.0645 15.4477 9.61676 15 9.06447 15ZM16.4445 15C15.8922 15 15.4445 15.4477 15.4445 16C15.4445 16.5523 15.8922 17 16.4445 17C16.9968 17 17.4445 16.5523 17.4445 16C17.4445 15.4477 16.9968 15 16.4445 15ZM18.2945 4H7.21447C7.13163 4 7.06447 4.06716 7.06447 4.15V12.31H18.4445V4.15C18.4445 4.06716 18.3774 4 18.2945 4ZM10.1895 7.8721C10.3228 7.8721 10.4506 7.92534 10.5445 8.02C10.7351 8.21442 10.7351 8.52558 10.5445 8.72L10.1445 9.12H16.4445C16.7207 9.12 16.9445 9.3439 16.9445 9.62C16.9392 9.8939 16.7184 10.1147 16.4445 10.12H10.1445L10.5445 10.51C10.7363 10.7078 10.7363 11.0222 10.5445 11.22C10.4522 11.3142 10.3264 11.3681 10.1945 11.37C10.0593 11.3697 9.92986 11.3157 9.83447 11.22L8.58447 9.97C8.5809 9.9435 8.5809 9.9166 8.58447 9.89L8.51447 9.81V9.76C8.50446 9.7139 8.50446 9.6661 8.51447 9.62C8.50414 9.5739 8.50414 9.5261 8.51447 9.48V9.43L8.58447 9.35C8.58071 9.3201 8.58071 9.2899 8.58447 9.26L9.83447 8.02C9.92836 7.92534 10.0562 7.8721 10.1895 7.8721ZM15.0596 5.01006C15.2328 4.96364 15.4177 5.01317 15.5445 5.14L16.7645 6.44C16.77 6.46975 16.77 6.50025 16.7645 6.53C16.7903 6.55075 16.8138 6.57422 16.8345 6.6L16.8414 6.67L16.8345 6.74C16.8442 6.78953 16.8442 6.84047 16.8345 6.89V6.94L16.7645 7.01C16.7683 7.03988 16.7683 7.07012 16.7645 7.1L15.5445 8.35C15.4512 8.44147 15.3252 8.49187 15.1945 8.49C15.0606 8.49344 14.9309 8.44301 14.8345 8.35C14.6427 8.15219 14.6427 7.83781 14.8345 7.64L15.2345 7.24H8.94447C8.81187 7.24 8.68469 7.18732 8.59092 7.09355C8.49715 6.99979 8.44447 6.87261 8.44447 6.74C8.44447 6.46386 8.66833 6.24 8.94447 6.24H15.2345L14.8345 5.85C14.7077 5.72317 14.6582 5.53831 14.7046 5.36506C14.751 5.19181 14.8863 5.05648 15.0596 5.01006Z"
    fill="#FF6600"
  />
</svg>
