<svg
  width="24"
  height="24"
  viewBox="0 0 24 24"
  fill="none"
  xmlns="http://www.w3.org/2000/svg"
>
  <path
    d="M17.5298 2C18.7172 2 19.6798 2.96259 19.6798 4.15V6.36C20.1184 6.47322 20.4261 6.86708 20.4298 7.32V9.32C20.4172 9.7654 20.1113 10.1488 19.6798 10.26V17.5C19.6811 18.1971 19.3413 18.8507 18.7698 19.25H18.9098V21C18.9098 21.5523 18.4621 22 17.9098 22H15.9098C15.3575 22 14.9098 21.5523 14.9098 21V19.65H9.07982V21C9.07982 21.5523 8.63211 22 8.07982 22H6.07982C5.52754 22 5.07982 21.5523 5.07982 21V19.25H5.20982C4.6384 18.8507 4.29851 18.1971 4.29982 17.5V10.23C3.87967 10.1124 3.58423 9.7361 3.56982 9.3V7.3C3.57991 6.86021 3.87622 6.47866 4.29982 6.36V4.15C4.29982 2.96259 5.26241 2 6.44982 2H17.5298ZM8.29982 15C7.74754 15 7.29982 15.4477 7.29982 16C7.29982 16.5523 7.74754 17 8.29982 17C8.85211 17 9.29982 16.5523 9.29982 16C9.29982 15.4477 8.85211 15 8.29982 15ZM15.6798 15C15.1275 15 14.6798 15.4477 14.6798 16C14.6798 16.5523 15.1275 17 15.6798 17C16.2321 17 16.6798 16.5523 16.6798 16C16.6798 15.4477 16.2321 15 15.6798 15ZM17.5298 4H6.44982C6.36698 4 6.29982 4.06716 6.29982 4.15V12.31H17.6798V4.15C17.6798 4.06716 17.6127 4 17.5298 4ZM9.42482 7.8721C9.55814 7.8721 9.68594 7.92534 9.77982 8.02C9.9704 8.21442 9.9704 8.52558 9.77982 8.72L9.37982 9.12H15.6798C15.956 9.12 16.1798 9.3439 16.1798 9.62C16.1745 9.8939 15.9537 10.1147 15.6798 10.12H9.37982L9.77982 10.51C9.97161 10.7078 9.97161 11.0222 9.77982 11.22C9.68751 11.3142 9.56171 11.3681 9.42982 11.37C9.29469 11.3697 9.16521 11.3157 9.06982 11.22L7.81982 9.97C7.81625 9.9435 7.81625 9.9166 7.81982 9.89L7.74982 9.81V9.76C7.73981 9.7139 7.73981 9.6661 7.74982 9.62C7.73949 9.5739 7.73949 9.5261 7.74982 9.48V9.43L7.81982 9.35C7.81606 9.3201 7.81606 9.2899 7.81982 9.26L9.06982 8.02C9.16371 7.92534 9.29151 7.8721 9.42482 7.8721ZM14.2949 5.01006C14.4681 4.96364 14.653 5.01317 14.7798 5.14L15.9998 6.44C16.0053 6.46975 16.0053 6.50025 15.9998 6.53C16.0256 6.55075 16.0491 6.57422 16.0698 6.6L16.0767 6.67L16.0698 6.74C16.0795 6.78953 16.0795 6.84047 16.0698 6.89V6.94L15.9998 7.01C16.0036 7.03988 16.0036 7.07012 15.9998 7.1L14.7798 8.35C14.6865 8.44147 14.5605 8.49187 14.4298 8.49C14.2959 8.49344 14.1662 8.44301 14.0698 8.35C13.878 8.15219 13.878 7.83781 14.0698 7.64L14.4698 7.24H8.17982C8.04722 7.24 7.92004 7.18732 7.82627 7.09355C7.7325 6.99979 7.67982 6.87261 7.67982 6.74C7.67982 6.46386 7.90368 6.24 8.17982 6.24H14.4698L14.0698 5.85C13.943 5.72317 13.8935 5.53831 13.9399 5.36506C13.9863 5.19181 14.1216 5.05648 14.2949 5.01006Z"
    fill="#FF6600"
  />
</svg>
