<svg width="25" height="24" viewBox="0 0 25 24" fill="none" xmlns="http://www.w3.org/2000/svg">
  <path
    d="M20.4086 6.40399C21.2561 5.8901 21.9065 5.07525 22.2117 4.10457C21.4181 4.58159 20.5412 4.92656 19.6056 5.11332C18.859 4.30442 17.7919 3.80005 16.6109 3.80005C14.3453 3.80005 12.5093 5.6617 12.5093 7.95755C12.5093 8.28348 12.5433 8.6011 12.6138 8.90443C9.20475 8.73076 6.18192 7.07728 4.15691 4.56018C3.80357 5.17637 3.60165 5.8901 3.60165 6.65141C3.60165 8.09316 4.32596 9.366 5.42709 10.113C4.75444 10.0916 4.1217 9.9025 3.56761 9.5932V9.6443C3.56761 11.6594 4.981 13.3403 6.86044 13.7209C6.51531 13.8185 6.15374 13.8673 5.77809 13.8673C5.51396 13.8673 5.2557 13.8423 5.00683 13.7935C5.52805 15.4446 7.04357 16.6484 8.83966 16.6806C7.43449 17.7964 5.6654 18.4601 3.7437 18.4601C3.41265 18.4601 3.08513 18.4423 2.76465 18.403C4.5807 19.5819 6.73718 20.2706 9.05449 20.2706C16.6027 20.2706 20.7279 13.9351 20.7279 8.44051C20.7279 8.25969 20.7255 8.08007 20.7173 7.90283C21.5191 7.31638 22.2164 6.58361 22.7646 5.74973C22.0286 6.08043 21.2373 6.30406 20.4086 6.40399Z"
    fill="#FF6600"
  />
</svg>
