<svg
  width="24"
  height="24"
  viewBox="0 0 24 24"
  fill="none"
  xmlns="http://www.w3.org/2000/svg"
>
  <path
    d="M19.644 6.40399C20.4915 5.8901 21.1419 5.07525 21.4471 4.10457C20.6535 4.58159 19.7766 4.92656 18.841 5.11332C18.0944 4.30442 17.0273 3.80005 15.8463 3.80005C13.5807 3.80005 11.7447 5.6617 11.7447 7.95755C11.7447 8.28348 11.7787 8.6011 11.8492 8.90443C8.4401 8.73076 5.41727 7.07728 3.39226 4.56018C3.03892 5.17637 2.837 5.8901 2.837 6.65141C2.837 8.09316 3.56131 9.366 4.66244 10.113C3.98979 10.0916 3.35705 9.9025 2.80296 9.5932V9.6443C2.80296 11.6594 4.21635 13.3403 6.09579 13.7209C5.75066 13.8185 5.38909 13.8673 5.01344 13.8673C4.74931 13.8673 4.49105 13.8423 4.24218 13.7935C4.7634 15.4446 6.27892 16.6484 8.07501 16.6806C6.66984 17.7964 4.90075 18.4601 2.97905 18.4601C2.648 18.4601 2.32048 18.4423 2 18.403C3.81605 19.5819 5.97253 20.2706 8.28984 20.2706C15.8381 20.2706 19.9633 13.9351 19.9633 8.44051C19.9633 8.25969 19.9609 8.08007 19.9527 7.90283C20.7545 7.31638 21.4518 6.58361 22 5.74973C21.264 6.08043 20.4727 6.30406 19.644 6.40399Z"
    fill="#FF6600"
  />
</svg>
