<svg width="25" height="24" viewBox="0 0 25 24" fill="none" xmlns="http://www.w3.org/2000/svg">
  <path
    d="M12.7646 22C18.2876 22 22.7646 17.523 22.7646 12C22.7646 6.477 18.2876 2 12.7646 2C7.24165 2 2.76465 6.477 2.76465 12C2.76465 17.523 7.24165 22 12.7646 22Z"
    fill="#FF6600"
  />
  <path
    fill-rule="evenodd"
    clip-rule="evenodd"
    d="M1.76465 12C1.76465 5.92472 6.68937 1 12.7646 1C18.8399 1 23.7646 5.92472 23.7646 12C23.7646 18.0753 18.8399 23 12.7646 23C6.68937 23 1.76465 18.0753 1.76465 12ZM12.7646 3C7.79393 3 3.76465 7.02928 3.76465 12C3.76465 16.9707 7.79393 21 12.7646 21C17.7353 21 21.7646 16.9707 21.7646 12C21.7646 7.02928 17.7353 3 12.7646 3Z"
    fill="#FF6600"
  />
</svg>
