<svg
  width="24"
  height="24"
  viewBox="0 0 24 24"
  fill="none"
  xmlns="http://www.w3.org/2000/svg"
>
  <path
    d="M12 22C17.523 22 22 17.523 22 12C22 6.477 17.523 2 12 2C6.477 2 2 6.477 2 12C2 17.523 6.477 22 12 22Z"
    fill="#FF6600"
  />
  <path
    fill-rule="evenodd"
    clip-rule="evenodd"
    d="M1 12C1 5.92472 5.92472 1 12 1C18.0753 1 23 5.92472 23 12C23 18.0753 18.0753 23 12 23C5.92472 23 1 18.0753 1 12ZM12 3C7.02928 3 3 7.02928 3 12C3 16.9707 7.02928 21 12 21C16.9707 21 21 16.9707 21 12C21 7.02928 16.9707 3 12 3Z"
    fill="#FF6600"
  />
</svg>
