<svg width="25" height="24" viewBox="0 0 25 24" fill="none" xmlns="http://www.w3.org/2000/svg">
  <path
    d="M12.7646 13C15.526 13 17.7646 10.7614 17.7646 8C17.7646 5.23858 15.526 3 12.7646 3C10.0032 3 7.76465 5.23858 7.76465 8C7.76465 10.7614 10.0032 13 12.7646 13Z"
    fill="#FF6600"
  />
  <path
    d="M20.7646 21C20.7646 18.8783 19.9217 16.8434 18.4215 15.3431C16.9212 13.8429 14.8863 13 12.7646 13C10.6429 13 8.60809 13.8429 7.1078 15.3431C5.6075 16.8434 4.76465 18.8783 4.76465 21"
    fill="#FF6600"
  />
  <path
    d="M12.7646 13C15.526 13 17.7646 10.7614 17.7646 8C17.7646 5.23858 15.526 3 12.7646 3C10.0032 3 7.76465 5.23858 7.76465 8C7.76465 10.7614 10.0032 13 12.7646 13ZM12.7646 13C14.8863 13 16.9212 13.8429 18.4215 15.3431C19.9217 16.8434 20.7646 18.8783 20.7646 21H4.76465C4.76465 18.8783 5.6075 16.8434 7.1078 15.3431C8.60809 13.8429 10.6429 13 12.7646 13Z"
    stroke="#FF6600"
    stroke-width="2"
    stroke-linecap="round"
    stroke-linejoin="round"
  />
</svg>
