<svg width="25" height="24" viewBox="0 0 25 24" fill="none" xmlns="http://www.w3.org/2000/svg">
  <path
    d="M11.9499 6.71378L12.0087 6.71783L13.5726 6.82103C14.0524 6.8436 14.385 6.96936 15.9905 9.346C16.0557 9.4358 16.1534 9.4961 16.2623 9.5137L18.1813 9.8072C18.6389 9.9474 18.9242 10.4061 18.8502 10.8826C18.7761 11.3591 18.3653 11.7078 17.887 11.7001L15.9681 11.4034C15.3431 11.309 14.7843 10.9591 14.4234 10.436C14.3402 10.307 14.2795 10.2038 14.1963 10.0974L12.9682 14.0316L14.676 15.7569C14.9332 16.0194 15.1327 16.3336 15.2613 16.6791L16.5758 20.5489C16.686 20.8827 16.6316 21.2496 16.4294 21.5364C16.2271 21.8231 15.9013 21.9954 15.5523 22C15.0859 21.9953 14.6704 21.7019 14.5065 21.2615L13.1953 17.3918C13.1729 17.3499 13.1537 17.3305 13.1313 17.2854L10.093 14.1993C9.66406 13.7729 9.48282 13.154 9.61327 12.5611L10.2785 9.5685C10.2123 9.6154 10.1428 9.6574 10.0706 9.6943C9.88477 9.8052 9.73309 9.966 9.63246 10.1587L8.63142 12.0935C8.4649 12.406 8.14211 12.6015 7.79029 12.603C7.63847 12.5988 7.48922 12.5626 7.35214 12.4966C6.90397 12.2432 6.73336 11.6788 6.96516 11.2164L7.96619 9.2815C8.23354 8.77976 8.62877 8.35897 9.11115 8.06256C11.2723 6.76835 11.6699 6.69893 11.9499 6.71378ZM10.1122 15.1474L11.8008 16.85L10.3489 20.823C10.1857 21.2502 9.77951 21.533 9.32543 21.5356C9.19823 21.5358 9.07185 21.5151 8.95124 21.4744C8.39018 21.2617 8.10451 20.6323 8.3116 20.0651L10.1122 15.1474ZM13.1121 2C14.2743 2 15.2165 2.95001 15.2165 4.1219C15.2165 5.29379 14.2743 6.24379 13.1121 6.24379C11.9499 6.24379 11.0077 5.29379 11.0077 4.1219C11.0077 2.95001 11.9499 2 13.1121 2Z"
    fill="#FF6600"
  />
</svg>
