<svg
  width="24"
  height="24"
  viewBox="0 0 24 24"
  fill="none"
  xmlns="http://www.w3.org/2000/svg"
>
  <path
    d="M11.1852 6.71378L11.244 6.71783L12.8079 6.82103C13.2877 6.8436 13.6203 6.96936 15.2258 9.346C15.291 9.4358 15.3887 9.4961 15.4976 9.5137L17.4166 9.8072C17.8742 9.9474 18.1595 10.4061 18.0855 10.8826C18.0114 11.3591 17.6006 11.7078 17.1223 11.7001L15.2034 11.4034C14.5784 11.309 14.0196 10.9591 13.6587 10.436C13.5755 10.307 13.5148 10.2038 13.4316 10.0974L12.2035 14.0316L13.9113 15.7569C14.1685 16.0194 14.368 16.3336 14.4966 16.6791L15.8111 20.5489C15.9213 20.8827 15.8669 21.2496 15.6647 21.5364C15.4624 21.8231 15.1366 21.9954 14.7876 22C14.3212 21.9953 13.9057 21.7019 13.7418 21.2615L12.4306 17.3918C12.4082 17.3499 12.389 17.3305 12.3666 17.2854L9.32835 14.1993C8.89941 13.7729 8.71817 13.154 8.84862 12.5611L9.51384 9.5685C9.44761 9.6154 9.37814 9.6574 9.30596 9.6943C9.12012 9.8052 8.96844 9.966 8.86781 10.1587L7.86677 12.0935C7.70025 12.406 7.37746 12.6015 7.02564 12.603C6.87382 12.5988 6.72457 12.5626 6.58749 12.4966C6.13932 12.2432 5.96871 11.6788 6.20051 11.2164L7.20154 9.2815C7.46889 8.77976 7.86412 8.35897 8.3465 8.06256C10.5076 6.76835 10.9052 6.69893 11.1852 6.71378ZM9.34754 15.1474L11.0361 16.85L9.5842 20.823C9.421 21.2502 9.01486 21.533 8.56078 21.5356C8.43358 21.5358 8.3072 21.5151 8.18659 21.4744C7.62553 21.2617 7.33986 20.6323 7.54695 20.0651L9.34754 15.1474ZM12.3474 2C13.5096 2 14.4518 2.95001 14.4518 4.1219C14.4518 5.29379 13.5096 6.24379 12.3474 6.24379C11.1852 6.24379 10.243 5.29379 10.243 4.1219C10.243 2.95001 11.1852 2 12.3474 2Z"
    fill="#FF6600"
  />
</svg>
