<svg width="25" height="24" viewBox="0 0 25 24" fill="none" xmlns="http://www.w3.org/2000/svg">
  <path
    fill-rule="evenodd"
    clip-rule="evenodd"
    d="M1.76465 12C1.76465 5.92487 6.68952 1 12.7646 1C18.8397 1 23.7646 5.92487 23.7646 12C23.7646 18.0751 18.8397 23 12.7646 23C6.68952 23 1.76465 18.0751 1.76465 12ZM12.7646 7C13.3169 7 13.7646 7.44772 13.7646 8V12C13.7646 12.5523 13.3169 13 12.7646 13C12.2123 13 11.7646 12.5523 11.7646 12V8C11.7646 7.44772 12.2123 7 12.7646 7ZM12.7646 15C12.2123 15 11.7646 15.4477 11.7646 16C11.7646 16.5523 12.2123 17 12.7646 17H12.7746C13.3269 17 13.7746 16.5523 13.7746 16C13.7746 15.4477 13.3269 15 12.7746 15H12.7646Z"
    fill="#FF6600"
  />
</svg>
