<svg
  width="24"
  height="24"
  viewBox="0 0 24 24"
  fill="none"
  xmlns="http://www.w3.org/2000/svg"
>
  <path
    fill-rule="evenodd"
    clip-rule="evenodd"
    d="M11.9973 1H12.0027C18.0679 1 23 5.93487 23 12C23 18.0651 18.0679 23 12.0027 23C9.76563 23 7.69075 22.3345 5.95137 21.1823L1.72325 22.5339L3.09413 18.4474C1.7755 16.6365 1 14.4063 1 12C1 5.9335 5.93213 1 11.9973 1ZM16.2447 18.0857C17.0848 17.9042 18.138 17.2827 18.4034 16.5333C18.6688 15.7826 18.6688 15.1432 18.5918 15.0071C18.5296 14.8992 18.3826 14.8283 18.1632 14.7227C18.106 14.6952 18.0439 14.6653 17.9771 14.6317C17.654 14.4709 16.0824 13.694 15.7854 13.5909C15.494 13.4809 15.2161 13.5193 14.9961 13.8301C14.9542 13.8887 14.9124 13.9475 14.8709 14.006C14.6056 14.3791 14.3496 14.7391 14.1368 14.9686C13.943 15.1749 13.6267 15.201 13.3613 15.091C13.3323 15.0789 13.2991 15.0655 13.2619 15.0505C12.8417 14.8808 11.9098 14.5043 10.7818 13.5001C9.83027 12.6531 9.18404 11.5985 8.99704 11.2822C8.81346 10.965 8.97178 10.779 9.11813 10.607C9.12085 10.6039 9.12357 10.6006 9.12629 10.5975C9.22063 10.4808 9.31219 10.3835 9.40419 10.2858C9.47042 10.2155 9.53688 10.145 9.60479 10.0667C9.6149 10.0551 9.62473 10.0438 9.63431 10.0328C9.77841 9.86706 9.86424 9.76841 9.96095 9.56214C10.071 9.349 9.99254 9.129 9.91414 8.96673C9.86019 8.85314 9.52734 8.04543 9.24145 7.35177C9.11899 7.0546 9.00513 6.77837 8.92554 6.5866C8.71242 6.07648 8.55017 6.05723 8.22704 6.04348C8.21707 6.04299 8.20701 6.04248 8.19683 6.04196C8.09475 6.03679 7.98233 6.0311 7.85854 6.0311C7.43779 6.0311 6.99917 6.15486 6.73379 6.42573C6.72451 6.43521 6.71484 6.44504 6.70481 6.45524C6.36531 6.80053 5.60904 7.56968 5.60904 9.10286C5.60904 10.6389 6.69893 12.1256 6.90066 12.4008C6.90623 12.4083 6.91112 12.415 6.91529 12.4207C6.92742 12.4367 6.9503 12.4698 6.98358 12.518C7.39535 13.1143 9.40104 16.0189 12.392 17.258C14.9191 18.3057 15.67 18.2081 16.2447 18.0857Z"
    fill="#FF6600"
  />
</svg>
