<svg width="25" height="24" viewBox="0 0 25 24" fill="none" xmlns="http://www.w3.org/2000/svg">
  <path
    fill-rule="evenodd"
    clip-rule="evenodd"
    d="M12.7619 1H12.7673C18.8325 1 23.7646 5.93487 23.7646 12C23.7646 18.0651 18.8325 23 12.7673 23C10.5303 23 8.4554 22.3345 6.71602 21.1823L2.4879 22.5339L3.85878 18.4474C2.54015 16.6365 1.76465 14.4063 1.76465 12C1.76465 5.9335 6.69678 1 12.7619 1ZM17.0093 18.0857C17.8494 17.9042 18.9026 17.2827 19.168 16.5333C19.4334 15.7826 19.4334 15.1432 19.3564 15.0071C19.2942 14.8992 19.1472 14.8283 18.9278 14.7227C18.8706 14.6952 18.8085 14.6653 18.7417 14.6317C18.4186 14.4709 16.847 13.694 16.55 13.5909C16.2586 13.4809 15.9807 13.5193 15.7607 13.8301C15.7188 13.8887 15.677 13.9475 15.6355 14.006C15.3702 14.3791 15.1142 14.7391 14.9014 14.9686C14.7076 15.1749 14.3913 15.201 14.1259 15.091C14.0969 15.0789 14.0637 15.0655 14.0265 15.0505C13.6063 14.8808 12.6744 14.5043 11.5464 13.5001C10.5949 12.6531 9.94869 11.5985 9.76169 11.2822C9.57811 10.965 9.73643 10.779 9.88278 10.607C9.8855 10.6039 9.88822 10.6006 9.89094 10.5975C9.98528 10.4808 10.0768 10.3835 10.1688 10.2858C10.2351 10.2155 10.3015 10.145 10.3694 10.0667C10.3795 10.0551 10.3894 10.0438 10.399 10.0328C10.5431 9.86706 10.6289 9.76841 10.7256 9.56214C10.8356 9.349 10.7572 9.129 10.6788 8.96673C10.6248 8.85314 10.292 8.04543 10.0061 7.35177C9.88364 7.0546 9.76978 6.77837 9.69019 6.5866C9.47707 6.07648 9.31482 6.05723 8.99169 6.04348C8.98172 6.04299 8.97166 6.04248 8.96148 6.04196C8.8594 6.03679 8.74698 6.0311 8.62319 6.0311C8.20244 6.0311 7.76382 6.15486 7.49844 6.42573C7.48916 6.43521 7.47949 6.44504 7.46946 6.45524C7.12996 6.80053 6.37369 7.56968 6.37369 9.10286C6.37369 10.6389 7.46358 12.1256 7.66531 12.4008C7.67088 12.4083 7.67577 12.415 7.67994 12.4207C7.69207 12.4367 7.71495 12.4698 7.74823 12.518C8.16 13.1143 10.1657 16.0189 13.1566 17.258C15.6837 18.3057 16.4346 18.2081 17.0093 18.0857Z"
    fill="#FF6600"
  />
</svg>
