<svg
  width="24"
  height="24"
  viewBox="0 0 24 24"
  fill="none"
  xmlns="http://www.w3.org/2000/svg"
>
  <path
    d="M18.86 14.92H18.62V12.76C18.62 12.2078 18.1723 11.76 17.62 11.76H15.48C14.9277 11.76 14.48 12.2078 14.48 12.76V14.92H14.22C13.7616 14.92 13.39 15.2916 13.39 15.75V20.34C13.3946 20.7198 13.6594 21.0467 14.03 21.13C14.03 21.4062 14.2538 21.63 14.53 21.63C14.8061 21.63 15.03 21.4062 15.03 21.13H18C18 21.4062 18.2238 21.63 18.5 21.63C18.7761 21.63 19 21.4062 19 21.13C19.4056 21.0751 19.7087 20.7294 19.71 20.32V15.75C19.71 15.5264 19.6198 15.3122 19.4598 15.156C19.2998 14.9997 19.0835 14.9146 18.86 14.92ZM15.5 12.78H17.63V14.91H15.5V12.78ZM12.5 5.86004C13.5344 5.86004 14.3745 6.69565 14.38 7.73004V9.87L16.01 10.87C16.1717 10.9742 16.2892 11.1345 16.34 11.32H15.2C14.8857 11.3193 14.5923 11.4772 14.42 11.74L13.15 10.93C12.9196 10.79 12.7793 10.5396 12.78 10.27V7.70004L12.7768 7.65743C12.7707 7.62976 12.7568 7.60407 12.7364 7.58361C12.7057 7.55293 12.6633 7.53704 12.62 7.54004C12.5298 7.53988 12.4553 7.61008 12.45 7.70004V21.05C12.32 21.4684 11.933 21.7534 11.495 21.7534C11.0569 21.7534 10.6699 21.4684 10.54 21.05V13.43H10.13V21.05C9.99508 21.4604 9.61194 21.7378 9.17997 21.7378C8.74799 21.7378 8.36485 21.4604 8.22997 21.05V7.70004C8.22997 7.6576 8.21311 7.61691 8.1831 7.5869C8.1531 7.55689 8.1124 7.54004 8.06997 7.54004C7.98553 7.54532 7.9198 7.61543 7.91997 7.70004V13.53C7.91997 13.7396 7.83674 13.9405 7.68858 14.0887C7.54043 14.2368 7.33949 14.32 7.12997 14.32L7.00463 14.31C6.83988 14.2836 6.68654 14.2054 6.56779 14.0851C6.41934 13.9348 6.33729 13.7313 6.3399 13.52V7.69004C6.37224 6.67359 7.20302 5.86491 8.21997 5.86004H12.5ZM18.71 15.9V17.7H14.42V15.9H18.71ZM9.72158 2.11852C10.3378 1.85998 11.0491 1.99867 11.5231 2.46977C11.9971 2.94087 12.1401 3.65134 11.8853 4.26913C11.6305 4.88692 11.0282 5.29003 10.36 5.29007C9.92328 5.2927 9.50357 5.12109 9.19384 4.81324C8.88412 4.50539 8.70994 4.08673 8.70994 3.65004C8.70592 2.98178 9.10535 2.37707 9.72158 2.11852Z"
    fill="#FF6600"
  />
</svg>
