<svg width="25" height="24" viewBox="0 0 25 24" fill="none" xmlns="http://www.w3.org/2000/svg">
  <path
    d="M19.6247 14.92H19.3847V12.76C19.3847 12.2078 18.937 11.76 18.3847 11.76H16.2447C15.6924 11.76 15.2447 12.2078 15.2447 12.76V14.92H14.9847C14.5263 14.92 14.1547 15.2916 14.1547 15.75V20.34C14.1593 20.7198 14.4241 21.0467 14.7947 21.13C14.7947 21.4062 15.0185 21.63 15.2947 21.63C15.5708 21.63 15.7947 21.4062 15.7947 21.13H18.7647C18.7647 21.4062 18.9885 21.63 19.2647 21.63C19.5408 21.63 19.7647 21.4062 19.7647 21.13C20.1703 21.0751 20.4734 20.7294 20.4747 20.32V15.75C20.4747 15.5264 20.3845 15.3122 20.2245 15.156C20.0645 14.9997 19.8482 14.9146 19.6247 14.92ZM16.2647 12.78H18.3947V14.91H16.2647V12.78ZM13.2647 5.86004C14.2991 5.86004 15.1392 6.69565 15.1447 7.73004V9.87L16.7747 10.87C16.9364 10.9742 17.0539 11.1345 17.1047 11.32H15.9647C15.6504 11.3193 15.357 11.4772 15.1847 11.74L13.9147 10.93C13.6843 10.79 13.544 10.5396 13.5447 10.27V7.70004L13.5415 7.65743C13.5354 7.62976 13.5215 7.60407 13.5011 7.58361C13.4704 7.55293 13.428 7.53704 13.3847 7.54004C13.2945 7.53988 13.22 7.61008 13.2147 7.70004V21.05C13.0847 21.4684 12.6977 21.7534 12.2597 21.7534C11.8216 21.7534 11.4346 21.4684 11.3047 21.05V13.43H10.8947V21.05C10.7597 21.4604 10.3766 21.7378 9.94462 21.7378C9.51264 21.7378 9.1295 21.4604 8.99462 21.05V7.70004C8.99462 7.6576 8.97776 7.61691 8.94775 7.5869C8.91775 7.55689 8.87705 7.54004 8.83462 7.54004C8.75018 7.54532 8.68445 7.61543 8.68462 7.70004V13.53C8.68462 13.7396 8.60139 13.9405 8.45323 14.0887C8.30508 14.2368 8.10414 14.32 7.89462 14.32L7.76928 14.31C7.60453 14.2836 7.45119 14.2054 7.33244 14.0851C7.18399 13.9348 7.10194 13.7313 7.10455 13.52V7.69004C7.13689 6.67359 7.96767 5.86491 8.98462 5.86004H13.2647ZM19.4747 15.9V17.7H15.1847V15.9H19.4747ZM10.4862 2.11852C11.1025 1.85998 11.8138 1.99867 12.2878 2.46977C12.7618 2.94087 12.9048 3.65134 12.65 4.26913C12.3952 4.88692 11.7929 5.29003 11.1247 5.29007C10.6879 5.2927 10.2682 5.12109 9.95849 4.81324C9.64877 4.50539 9.47459 4.08673 9.47459 3.65004C9.47057 2.98178 9.87 2.37707 10.4862 2.11852Z"
    fill="#FF6600"
  />
</svg>
