<svg width="25" height="24" viewBox="0 0 25 24" fill="none" xmlns="http://www.w3.org/2000/svg">
  <path
    d="M15.0743 6.52002C15.7243 6.52002 16.0743 7.12002 16.2543 7.80002C16.395 8.29689 17.643 12.4324 17.7985 12.9474L17.8143 13C17.857 13.1808 17.8149 13.3712 17.7001 13.5172C17.5852 13.6632 17.4101 13.7489 17.2243 13.75C16.794 13.7203 16.4312 13.418 16.3243 13L14.8643 9.08H14.5643L16.4443 15H14.5643V21.08C14.5994 21.4002 14.4484 21.7122 14.1755 21.8832C13.9027 22.0543 13.556 22.0543 13.2831 21.8832C13.0103 21.7122 12.8592 21.4002 12.8943 21.08V14.92H12.6343V21C12.6694 21.3202 12.5184 21.6322 12.2455 21.8032C11.9727 21.9743 11.626 21.9743 11.3531 21.8032C11.0803 21.6322 10.9292 21.3202 10.9643 21V15H9.08433L10.9643 9.08H10.6643L9.25433 13C9.14751 13.418 8.7847 13.7203 8.35433 13.75C8.16858 13.7489 7.99347 13.6632 7.87862 13.5172C7.76377 13.3712 7.7217 13.1808 7.76433 13C7.76433 13 8.88129 9.1646 9.20236 8.05098L9.2568 7.86157L9.27433 7.80002C9.45433 7.12002 9.80433 6.52002 10.4543 6.52002H15.0743ZM12.7643 2.02002C13.8689 2.02002 14.7643 2.91545 14.7643 4.02002C14.7643 5.12459 13.8689 6.02002 12.7643 6.02002C11.6598 6.02002 10.7643 5.12459 10.7643 4.02002C10.7643 2.91545 11.6598 2.02002 12.7643 2.02002Z"
    fill="#FF6600"
  />
</svg>
