<svg
  width="24"
  height="24"
  viewBox="0 0 24 24"
  fill="none"
  xmlns="http://www.w3.org/2000/svg"
>
  <path
    d="M14.3097 6.52002C14.9597 6.52002 15.3097 7.12002 15.4897 7.80002C15.6304 8.29689 16.8784 12.4324 17.0339 12.9474L17.0497 13C17.0924 13.1808 17.0503 13.3712 16.9355 13.5172C16.8206 13.6632 16.6455 13.7489 16.4597 13.75C16.0294 13.7203 15.6666 13.418 15.5597 13L14.0997 9.08H13.7997L15.6797 15H13.7997V21.08C13.8348 21.4002 13.6838 21.7122 13.4109 21.8832C13.1381 22.0543 12.7914 22.0543 12.5185 21.8832C12.2457 21.7122 12.0946 21.4002 12.1297 21.08V14.92H11.8697V21C11.9048 21.3202 11.7538 21.6322 11.4809 21.8032C11.2081 21.9743 10.8614 21.9743 10.5885 21.8032C10.3157 21.6322 10.1646 21.3202 10.1997 21V15H8.31969L10.1997 9.08H9.89969L8.48969 13C8.38287 13.418 8.02006 13.7203 7.58969 13.75C7.40394 13.7489 7.22883 13.6632 7.11398 13.5172C6.99913 13.3712 6.95706 13.1808 6.99969 13C6.99969 13 8.11665 9.1646 8.43772 8.05098L8.49216 7.86157L8.50969 7.80002C8.68969 7.12002 9.03969 6.52002 9.68969 6.52002H14.3097ZM11.9997 2.02002C13.1043 2.02002 13.9997 2.91545 13.9997 4.02002C13.9997 5.12459 13.1043 6.02002 11.9997 6.02002C10.8952 6.02002 9.99969 5.12459 9.99969 4.02002C9.99969 2.91545 10.8952 2.02002 11.9997 2.02002Z"
    fill="#FF6600"
  />
</svg>
