<svg
  width="32"
  height="32"
  viewBox="0 0 32 32"
  fill="none"
  xmlns="http://www.w3.org/2000/svg"
>
  <rect width="32" height="32" rx="8" fill="url(#background)" />
  <path
    fill-rule="evenodd"
    clip-rule="evenodd"
    d="M25.1675 16.8442C26.6299 16.8442 28 16.4315 28 13.4129C28 9.98292 24.5791 4 16.8233 4C9.97535 4 4 9.11719 4 16.1621C4 22.0551 8.24032 28 16.4558 28C20.5572 28 26.991 25.4445 26.991 21.921C26.991 21.0515 26.179 19.6338 25.2155 19.6338C24.8838 19.6338 24.4642 19.8799 23.9154 20.2018C22.8787 20.8097 21.381 21.688 19.1442 21.688C16.9975 21.688 14.0338 19.7679 14.0338 17.4884C14.0338 16.8077 14.5958 16.8253 15.0713 16.8401C15.1387 16.8422 15.2043 16.8442 15.2663 16.8442H25.1675ZM15.9819 12.4662C14.9231 12.5155 13.8065 12.5674 13.8065 11.1714C13.8065 9.70954 15.034 8.154 16.548 8.154C18.2363 8.154 19.2402 9.43741 19.2402 11.079C19.2402 12.5189 18.1306 12.488 17.0241 12.4574C16.8642 12.4529 16.7044 12.4486 16.548 12.4486C16.366 12.4486 16.1748 12.4574 15.9819 12.4662Z"
    fill="#FFF"
  />
  <defs>
    <linearGradient
      id="background"
      x1="32"
      y1="32"
      x2="2.86102e-06"
      y2="-2.86102e-06"
      gradientUnits="userSpaceOnUse"
    >
      <stop stop-color="#F60" />
      <stop offset="1" stop-color="#F80" />
    </linearGradient>
  </defs>
</svg>
